<svg width="1600" height="250" viewBox="0 0 1600 250" fill="none" xmlns="http://www.w3.org/2000/svg">
<rect x="0.5" y="0.5" width="1599" height="249" fill="#EDEDED" stroke="#C8C8C8"/>
<rect x="545.641" y="48.6413" width="20.5435" height="20.5435" rx="2.05435" stroke="#616161" stroke-width="1.36957"/>
<path d="M586.638 65.8478H585.065V52.4223H586.638V65.8478ZM594.418 65.7542C594.056 65.9539 593.578 66.0537 592.985 66.0537C591.306 66.0537 590.467 65.1175 590.467 63.2451V57.5715H588.819V56.2608H590.467V53.9203L592.002 53.4241V56.2608H594.418V57.5715H592.002V62.9736C592.002 63.6164 592.111 64.0752 592.33 64.3498C592.548 64.6244 592.91 64.7618 593.416 64.7618C593.803 64.7618 594.137 64.6557 594.418 64.4434V65.7542ZM604.173 61.4382H597.404C597.429 62.5055 597.716 63.3293 598.266 63.9098C598.815 64.4903 599.57 64.7805 600.531 64.7805C601.611 64.7805 602.603 64.4247 603.508 63.7132V65.155C602.666 65.7666 601.552 66.0725 600.166 66.0725C598.812 66.0725 597.748 65.6387 596.974 64.7711C596.2 63.8973 595.813 62.6709 595.813 61.0917C595.813 59.6 596.234 58.3861 597.077 57.4498C597.925 56.5074 598.977 56.0361 600.232 56.0361C601.486 56.0361 602.457 56.4418 603.143 57.2532C603.83 58.0646 604.173 59.1912 604.173 60.633V61.4382ZM602.6 60.1368C602.594 59.2505 602.379 58.5608 601.954 58.0677C601.536 57.5747 600.953 57.3281 600.204 57.3281C599.48 57.3281 598.865 57.5871 598.359 58.1052C597.854 58.6232 597.542 59.3004 597.423 60.1368H602.6ZM620.117 65.8478H618.582V60.3428C618.582 59.2817 618.416 58.514 618.085 58.0397C617.761 57.5653 617.212 57.3281 616.438 57.3281C615.782 57.3281 615.224 57.6277 614.762 58.2269C614.306 58.8261 614.078 59.5439 614.078 60.3802V65.8478H612.543V60.1555C612.543 58.2706 611.816 57.3281 610.362 57.3281C609.688 57.3281 609.132 57.6121 608.695 58.1801C608.258 58.7418 608.04 59.4752 608.04 60.3802V65.8478H606.504V56.2608H608.04V57.7775H608.077C608.758 56.6166 609.75 56.0361 611.054 56.0361C611.71 56.0361 612.281 56.2203 612.768 56.5885C613.255 56.9505 613.588 57.428 613.769 58.0209C614.481 56.6977 615.542 56.0361 616.953 56.0361C619.062 56.0361 620.117 57.3375 620.117 59.9402V65.8478ZM633.505 65.8478H631.97V54.2479C631.851 54.3665 631.676 54.5038 631.445 54.6599C631.221 54.8097 630.965 54.9595 630.678 55.1093C630.397 55.2591 630.097 55.3995 629.779 55.5306C629.467 55.6616 629.161 55.7646 628.861 55.8395V54.2854C629.198 54.1918 629.554 54.0669 629.929 53.9109C630.309 53.7486 630.681 53.5707 631.043 53.3772C631.411 53.1775 631.758 52.9715 632.082 52.7593C632.407 52.5409 632.688 52.3287 632.925 52.1227H633.505V65.8478Z" fill="#616161"/>
<rect x="946.641" y="48.6413" width="20.5435" height="20.5435" rx="2.05435" stroke="#616161" stroke-width="1.36957"/>
<path d="M987.638 65.8478H986.065V52.4223H987.638V65.8478ZM995.418 65.7542C995.056 65.9539 994.578 66.0537 993.985 66.0537C992.306 66.0537 991.467 65.1175 991.467 63.2451V57.5715H989.819V56.2608H991.467V53.9203L993.002 53.4241V56.2608H995.418V57.5715H993.002V62.9736C993.002 63.6164 993.111 64.0752 993.33 64.3498C993.548 64.6244 993.91 64.7618 994.416 64.7618C994.803 64.7618 995.137 64.6557 995.418 64.4434V65.7542ZM1005.17 61.4382H998.404C998.429 62.5055 998.716 63.3293 999.266 63.9098C999.815 64.4903 1000.57 64.7805 1001.53 64.7805C1002.61 64.7805 1003.6 64.4247 1004.51 63.7132V65.155C1003.67 65.7666 1002.55 66.0725 1001.17 66.0725C999.812 66.0725 998.748 65.6387 997.974 64.7711C997.2 63.8973 996.813 62.6709 996.813 61.0917C996.813 59.6 997.234 58.3861 998.077 57.4498C998.925 56.5074 999.977 56.0361 1001.23 56.0361C1002.49 56.0361 1003.46 56.4418 1004.14 57.2532C1004.83 58.0646 1005.17 59.1912 1005.17 60.633V61.4382ZM1003.6 60.1368C1003.59 59.2505 1003.38 58.5608 1002.95 58.0677C1002.54 57.5747 1001.95 57.3281 1001.2 57.3281C1000.48 57.3281 999.865 57.5871 999.359 58.1052C998.854 58.6232 998.542 59.3004 998.423 60.1368H1003.6ZM1021.12 65.8478H1019.58V60.3428C1019.58 59.2817 1019.42 58.514 1019.09 58.0397C1018.76 57.5653 1018.21 57.3281 1017.44 57.3281C1016.78 57.3281 1016.22 57.6277 1015.76 58.2269C1015.31 58.8261 1015.08 59.5439 1015.08 60.3802V65.8478H1013.54V60.1555C1013.54 58.2706 1012.82 57.3281 1011.36 57.3281C1010.69 57.3281 1010.13 57.6121 1009.7 58.1801C1009.26 58.7418 1009.04 59.4752 1009.04 60.3802V65.8478H1007.5V56.2608H1009.04V57.7775H1009.08C1009.76 56.6166 1010.75 56.0361 1012.05 56.0361C1012.71 56.0361 1013.28 56.2203 1013.77 56.5885C1014.25 56.9505 1014.59 57.428 1014.77 58.0209C1015.48 56.6977 1016.54 56.0361 1017.95 56.0361C1020.06 56.0361 1021.12 57.3375 1021.12 59.9402V65.8478ZM1036.65 62.0467C1036.65 62.6521 1036.53 63.2045 1036.3 63.7038C1036.08 64.1969 1035.76 64.6213 1035.34 64.9771C1034.93 65.3266 1034.43 65.5981 1033.85 65.7916C1033.27 65.9851 1032.63 66.0818 1031.93 66.0818C1030.65 66.0818 1029.63 65.8384 1028.88 65.3516V63.7038C1029.78 64.4154 1030.82 64.7711 1031.99 64.7711C1032.45 64.7711 1032.88 64.7118 1033.25 64.5932C1033.63 64.4746 1033.96 64.303 1034.22 64.0783C1034.5 63.8536 1034.71 63.5821 1034.85 63.2638C1035 62.9455 1035.08 62.5866 1035.08 62.1871C1035.08 60.4333 1033.83 59.5563 1031.33 59.5563H1030.22V58.255H1031.28C1033.48 58.255 1034.59 57.4311 1034.59 55.7833C1034.59 54.2604 1033.75 53.499 1032.06 53.499C1031.11 53.499 1030.22 53.8173 1029.39 54.4539V52.9653C1030.25 52.4535 1031.27 52.1976 1032.45 52.1976C1033.01 52.1976 1033.52 52.2756 1033.97 52.4317C1034.43 52.5877 1034.82 52.8061 1035.14 53.087C1035.47 53.3679 1035.72 53.7049 1035.89 54.0981C1036.07 54.4914 1036.16 54.9251 1036.16 55.3995C1036.16 57.1658 1035.27 58.3018 1033.48 58.8074V58.8448C1033.94 58.8947 1034.36 59.0071 1034.75 59.1818C1035.14 59.3504 1035.47 59.5719 1035.75 59.8466C1036.03 60.1212 1036.25 60.4458 1036.41 60.8202C1036.57 61.1885 1036.65 61.5973 1036.65 62.0467Z" fill="#616161"/>
<rect x="748.956" y="47.9565" width="21.913" height="21.913" rx="2.73913" fill="#0F6CBD"/>
<path d="M765.069 55.0847C765.482 55.4742 765.5 56.1244 765.111 56.5368L759.29 62.6998C759.099 62.9016 758.835 63.0176 758.558 63.0216C758.28 63.0256 758.013 62.9171 757.817 62.7209L754.735 59.6393C754.334 59.2382 754.334 58.5878 754.735 58.1867C755.137 57.7856 755.787 57.7856 756.188 58.1867L758.522 60.5208L763.617 55.1262C764.007 54.7138 764.657 54.6952 765.069 55.0847Z" fill="white"/>
<path d="M790.638 65.8478H789.065V52.4223H790.638V65.8478ZM798.418 65.7542C798.056 65.9539 797.578 66.0537 796.985 66.0537C795.306 66.0537 794.467 65.1175 794.467 63.2451V57.5715H792.819V56.2608H794.467V53.9203L796.002 53.4241V56.2608H798.418V57.5715H796.002V62.9736C796.002 63.6164 796.111 64.0752 796.33 64.3498C796.548 64.6244 796.91 64.7618 797.416 64.7618C797.803 64.7618 798.137 64.6557 798.418 64.4434V65.7542ZM808.173 61.4382H801.404C801.429 62.5055 801.716 63.3293 802.266 63.9098C802.815 64.4903 803.57 64.7805 804.531 64.7805C805.611 64.7805 806.603 64.4247 807.508 63.7132V65.155C806.666 65.7666 805.552 66.0725 804.166 66.0725C802.812 66.0725 801.748 65.6387 800.974 64.7711C800.2 63.8973 799.813 62.6709 799.813 61.0917C799.813 59.6 800.234 58.3861 801.077 57.4498C801.925 56.5074 802.977 56.0361 804.232 56.0361C805.486 56.0361 806.457 56.4418 807.143 57.2532C807.83 58.0646 808.173 59.1912 808.173 60.633V61.4382ZM806.6 60.1368C806.594 59.2505 806.379 58.5608 805.954 58.0677C805.536 57.5747 804.953 57.3281 804.204 57.3281C803.48 57.3281 802.865 57.5871 802.359 58.1052C801.854 58.6232 801.542 59.3004 801.423 60.1368H806.6ZM824.117 65.8478H822.582V60.3428C822.582 59.2817 822.416 58.514 822.085 58.0397C821.761 57.5653 821.212 57.3281 820.438 57.3281C819.782 57.3281 819.224 57.6277 818.762 58.2269C818.306 58.8261 818.078 59.5439 818.078 60.3802V65.8478H816.543V60.1555C816.543 58.2706 815.816 57.3281 814.362 57.3281C813.688 57.3281 813.132 57.6121 812.695 58.1801C812.258 58.7418 812.04 59.4752 812.04 60.3802V65.8478H810.504V56.2608H812.04V57.7775H812.077C812.758 56.6166 813.75 56.0361 815.054 56.0361C815.71 56.0361 816.281 56.2203 816.768 56.5885C817.255 56.9505 817.588 57.428 817.769 58.0209C818.481 56.6977 819.542 56.0361 820.953 56.0361C823.062 56.0361 824.117 57.3375 824.117 59.9402V65.8478ZM837.955 55.9425C837.955 55.5306 837.889 55.1717 837.758 54.8658C837.633 54.56 837.458 54.3072 837.234 54.1075C837.015 53.9015 836.756 53.7486 836.457 53.6488C836.157 53.5489 835.832 53.499 835.483 53.499C835.183 53.499 834.89 53.5395 834.603 53.6207C834.316 53.7018 834.035 53.8142 833.76 53.9577C833.492 54.1013 833.23 54.2729 832.974 54.4726C832.724 54.6724 832.49 54.8939 832.272 55.1373V53.4896C832.702 53.0714 833.183 52.7531 833.713 52.5346C834.25 52.3099 834.902 52.1976 835.67 52.1976C836.219 52.1976 836.728 52.2787 837.196 52.441C837.664 52.5971 838.07 52.828 838.413 53.1338C838.757 53.4397 839.025 53.8173 839.218 54.2667C839.418 54.716 839.518 55.231 839.518 55.8114C839.518 56.342 839.456 56.8226 839.331 57.2532C839.212 57.6839 839.028 58.0896 838.778 58.4703C838.535 58.851 838.226 59.2162 837.852 59.5657C837.477 59.9152 837.037 60.271 836.531 60.633C835.901 61.0824 835.38 61.4662 834.968 61.7846C834.562 62.1029 834.238 62.4025 833.994 62.6833C833.757 62.958 833.589 63.2357 833.489 63.5166C833.395 63.7912 833.348 64.1095 833.348 64.4715H840.033V65.8478H831.747V65.1831C831.747 64.6088 831.81 64.1033 831.935 63.6664C832.059 63.2295 832.265 62.8144 832.553 62.4212C832.84 62.028 833.214 61.6348 833.676 61.2415C834.144 60.8483 834.715 60.4052 835.389 59.9121C835.876 59.5626 836.282 59.2287 836.606 58.9103C836.937 58.592 837.202 58.2737 837.402 57.9554C837.602 57.6371 837.742 57.3156 837.823 56.9911C837.911 56.6603 837.955 56.3108 837.955 55.9425Z" fill="#242424"/>
<path d="M551.778 134.979H550.243V123.379C550.124 123.497 549.95 123.635 549.719 123.791C549.494 123.94 549.238 124.09 548.951 124.24C548.67 124.39 548.37 124.53 548.052 124.661C547.74 124.792 547.434 124.895 547.135 124.97V123.416C547.472 123.322 547.827 123.198 548.202 123.042C548.583 122.879 548.954 122.701 549.316 122.508C549.684 122.308 550.031 122.102 550.355 121.89C550.68 121.672 550.961 121.459 551.198 121.253H551.778V134.979ZM561.571 134.632V132.984C562.408 133.602 563.328 133.911 564.333 133.911C565.681 133.911 566.355 133.462 566.355 132.563C566.355 132.307 566.296 132.092 566.177 131.917C566.065 131.736 565.909 131.577 565.709 131.44C565.516 131.302 565.285 131.181 565.017 131.074C564.754 130.962 564.47 130.847 564.165 130.728C563.74 130.56 563.366 130.391 563.041 130.222C562.723 130.048 562.454 129.854 562.236 129.642C562.024 129.424 561.861 129.177 561.749 128.902C561.643 128.628 561.59 128.306 561.59 127.938C561.59 127.489 561.693 127.092 561.899 126.749C562.105 126.4 562.379 126.109 562.723 125.878C563.066 125.641 563.456 125.463 563.893 125.345C564.336 125.226 564.792 125.167 565.26 125.167C566.09 125.167 566.833 125.31 567.488 125.598V127.152C566.783 126.69 565.971 126.459 565.054 126.459C564.767 126.459 564.508 126.493 564.277 126.562C564.046 126.624 563.846 126.715 563.678 126.833C563.515 126.952 563.387 127.095 563.294 127.264C563.206 127.426 563.163 127.607 563.163 127.807C563.163 128.057 563.206 128.266 563.294 128.434C563.387 128.603 563.522 128.753 563.696 128.884C563.871 129.015 564.083 129.133 564.333 129.239C564.583 129.346 564.867 129.461 565.185 129.586C565.609 129.748 565.99 129.917 566.327 130.091C566.664 130.26 566.951 130.453 567.189 130.672C567.426 130.884 567.607 131.131 567.732 131.411C567.863 131.692 567.928 132.026 567.928 132.413C567.928 132.888 567.822 133.3 567.61 133.649C567.404 133.999 567.126 134.289 566.777 134.52C566.427 134.751 566.025 134.922 565.569 135.035C565.113 135.147 564.636 135.203 564.136 135.203C563.15 135.203 562.295 135.013 561.571 134.632ZM578.002 130.569H571.233C571.258 131.636 571.545 132.46 572.094 133.041C572.644 133.621 573.399 133.911 574.36 133.911C575.44 133.911 576.432 133.555 577.337 132.844V134.286C576.495 134.897 575.381 135.203 573.995 135.203C572.641 135.203 571.576 134.769 570.802 133.902C570.028 133.028 569.641 131.802 569.641 130.222C569.641 128.731 570.063 127.517 570.905 126.581C571.754 125.638 572.806 125.167 574.06 125.167C575.315 125.167 576.286 125.573 576.972 126.384C577.659 127.195 578.002 128.322 578.002 129.764V130.569ZM576.429 129.268C576.423 128.381 576.208 127.692 575.783 127.198C575.365 126.705 574.781 126.459 574.032 126.459C573.308 126.459 572.694 126.718 572.188 127.236C571.682 127.754 571.37 128.431 571.252 129.268H576.429ZM581.869 134.979H580.333V120.785H581.869V134.979ZM592.682 130.569H585.913C585.938 131.636 586.225 132.46 586.774 133.041C587.324 133.621 588.079 133.911 589.04 133.911C590.12 133.911 591.112 133.555 592.017 132.844V134.286C591.175 134.897 590.061 135.203 588.675 135.203C587.321 135.203 586.256 134.769 585.482 133.902C584.708 133.028 584.322 131.802 584.322 130.222C584.322 128.731 584.743 127.517 585.585 126.581C586.434 125.638 587.486 125.167 588.74 125.167C589.995 125.167 590.966 125.573 591.652 126.384C592.339 127.195 592.682 128.322 592.682 129.764V130.569ZM591.109 129.268C591.103 128.381 590.888 127.692 590.463 127.198C590.045 126.705 589.461 126.459 588.712 126.459C587.988 126.459 587.374 126.718 586.868 127.236C586.362 127.754 586.05 128.431 585.932 129.268H591.109ZM601.548 134.538C600.812 134.982 599.938 135.203 598.927 135.203C597.56 135.203 596.455 134.76 595.612 133.874C594.776 132.981 594.358 131.827 594.358 130.41C594.358 128.831 594.81 127.564 595.715 126.609C596.62 125.647 597.828 125.167 599.339 125.167C600.181 125.167 600.924 125.323 601.567 125.635V127.208C600.855 126.709 600.094 126.459 599.282 126.459C598.302 126.459 597.497 126.812 596.867 127.517C596.243 128.216 595.931 129.136 595.931 130.279C595.931 131.402 596.224 132.288 596.811 132.938C597.404 133.587 598.196 133.911 599.189 133.911C600.025 133.911 600.812 133.633 601.548 133.078V134.538ZM608.317 134.885C607.955 135.085 607.478 135.184 606.885 135.184C605.206 135.184 604.366 134.248 604.366 132.376V126.702H602.718V125.392H604.366V123.051L605.902 122.555V125.392H608.317V126.702H605.902V132.104C605.902 132.747 606.011 133.206 606.229 133.481C606.448 133.755 606.81 133.892 607.315 133.892C607.702 133.892 608.036 133.786 608.317 133.574V134.885ZM618.072 130.569H611.304C611.329 131.636 611.616 132.46 612.165 133.041C612.714 133.621 613.469 133.911 614.431 133.911C615.51 133.911 616.503 133.555 617.408 132.844V134.286C616.565 134.897 615.451 135.203 614.065 135.203C612.711 135.203 611.647 134.769 610.873 133.902C610.099 133.028 609.712 131.802 609.712 130.222C609.712 128.731 610.133 127.517 610.976 126.581C611.825 125.638 612.876 125.167 614.131 125.167C615.385 125.167 616.356 125.573 617.043 126.384C617.729 127.195 618.072 128.322 618.072 129.764V130.569ZM616.5 129.268C616.493 128.381 616.278 127.692 615.854 127.198C615.435 126.705 614.852 126.459 614.103 126.459C613.379 126.459 612.764 126.718 612.258 127.236C611.753 127.754 611.441 128.431 611.322 129.268H616.5ZM628.586 134.979H627.051V133.349H627.013C626.302 134.585 625.203 135.203 623.718 135.203C622.513 135.203 621.549 134.776 620.825 133.921C620.107 133.059 619.748 131.889 619.748 130.41C619.748 128.824 620.148 127.554 620.947 126.599C621.746 125.644 622.81 125.167 624.139 125.167C625.456 125.167 626.414 125.685 627.013 126.721H627.051V120.785H628.586V134.979ZM627.051 130.644V129.23C627.051 128.456 626.795 127.801 626.283 127.264C625.771 126.727 625.122 126.459 624.336 126.459C623.4 126.459 622.663 126.802 622.126 127.489C621.59 128.175 621.321 129.124 621.321 130.335C621.321 131.44 621.577 132.313 622.089 132.956C622.607 133.593 623.3 133.911 624.167 133.911C625.022 133.911 625.715 133.602 626.246 132.984C626.782 132.366 627.051 131.586 627.051 130.644ZM637.743 122.957C637.468 122.957 637.234 122.864 637.04 122.677C636.847 122.489 636.75 122.252 636.75 121.965C636.75 121.678 636.847 121.441 637.04 121.253C637.234 121.06 637.468 120.963 637.743 120.963C638.023 120.963 638.261 121.06 638.454 121.253C638.654 121.441 638.754 121.678 638.754 121.965C638.754 122.24 638.654 122.474 638.454 122.667C638.261 122.861 638.023 122.957 637.743 122.957ZM638.492 134.979H636.956V125.392H638.492V134.979ZM646.047 134.885C645.685 135.085 645.207 135.184 644.614 135.184C642.936 135.184 642.096 134.248 642.096 132.376V126.702H640.448V125.392H642.096V123.051L643.631 122.555V125.392H646.047V126.702H643.631V132.104C643.631 132.747 643.741 133.206 643.959 133.481C644.178 133.755 644.54 133.892 645.045 133.892C645.432 133.892 645.766 133.786 646.047 133.574V134.885ZM655.802 130.569H649.033C649.058 131.636 649.346 132.46 649.895 133.041C650.444 133.621 651.199 133.911 652.16 133.911C653.24 133.911 654.233 133.555 655.138 132.844V134.286C654.295 134.897 653.181 135.203 651.795 135.203C650.441 135.203 649.377 134.769 648.603 133.902C647.829 133.028 647.442 131.802 647.442 130.222C647.442 128.731 647.863 127.517 648.706 126.581C649.555 125.638 650.606 125.167 651.861 125.167C653.115 125.167 654.086 125.573 654.773 126.384C655.459 127.195 655.802 128.322 655.802 129.764V130.569ZM654.23 129.268C654.223 128.381 654.008 127.692 653.584 127.198C653.165 126.705 652.582 126.459 651.833 126.459C651.109 126.459 650.494 126.718 649.988 127.236C649.483 127.754 649.171 128.431 649.052 129.268H654.23ZM671.746 134.979H670.211V129.474C670.211 128.412 670.045 127.645 669.715 127.17C669.39 126.696 668.841 126.459 668.067 126.459C667.412 126.459 666.853 126.758 666.391 127.358C665.935 127.957 665.708 128.675 665.708 129.511V134.979H664.172V129.286C664.172 127.401 663.445 126.459 661.991 126.459C661.317 126.459 660.761 126.743 660.324 127.311C659.887 127.873 659.669 128.606 659.669 129.511V134.979H658.134V125.392H659.669V126.908H659.706C660.387 125.747 661.379 125.167 662.684 125.167C663.339 125.167 663.91 125.351 664.397 125.719C664.884 126.081 665.218 126.559 665.399 127.152C666.11 125.828 667.171 125.167 668.582 125.167C670.691 125.167 671.746 126.468 671.746 129.071V134.979Z" fill="black"/>
<path d="M544.718 174.652C544.718 171.627 547.17 169.174 550.196 169.174H614.109C617.135 169.174 619.587 171.627 619.587 174.652V207.522C619.587 210.547 617.135 213 614.109 213H550.196C547.17 213 544.718 210.547 544.718 207.522V174.652Z" fill="#0F6CBD"/>
<path d="M574.194 198.022H571.76L565.347 188.154C565.184 187.904 565.05 187.645 564.944 187.377H564.888C564.938 187.664 564.963 188.279 564.963 189.221V198.022H562.809V184.596H565.403L571.601 194.23C571.863 194.629 572.031 194.904 572.106 195.054H572.144C572.081 194.698 572.05 194.096 572.05 193.247V184.596H574.194V198.022ZM585.401 193.818H578.866C578.891 194.704 579.162 195.388 579.68 195.868C580.205 196.349 580.922 196.589 581.834 196.589C582.857 196.589 583.797 196.283 584.652 195.672V197.423C583.778 197.972 582.623 198.246 581.188 198.246C579.777 198.246 578.669 197.813 577.864 196.945C577.065 196.071 576.666 194.845 576.666 193.266C576.666 191.774 577.106 190.56 577.986 189.624C578.872 188.681 579.97 188.21 581.281 188.21C582.592 188.21 583.606 188.631 584.324 189.474C585.042 190.317 585.401 191.487 585.401 192.985V193.818ZM583.303 192.283C583.297 191.502 583.113 190.897 582.751 190.466C582.389 190.029 581.89 189.811 581.253 189.811C580.629 189.811 580.098 190.039 579.662 190.494C579.231 190.95 578.966 191.546 578.866 192.283H583.303ZM595.484 188.435L592.291 193.284L595.446 198.022H592.928L591.243 195.054C591.137 194.873 591.012 194.642 590.868 194.361H590.831C590.806 194.417 590.675 194.648 590.438 195.054L588.724 198.022H586.215L589.473 193.322L586.384 188.435H588.911L590.569 191.552C590.693 191.783 590.815 192.021 590.934 192.264H590.962L593.106 188.435H595.484ZM602.131 197.919C601.707 198.131 601.148 198.237 600.455 198.237C598.595 198.237 597.665 197.345 597.665 195.559V190.139H596.064V188.435H597.665V186.216L599.837 185.598V188.435H602.131V190.139H599.837V194.932C599.837 195.5 599.94 195.906 600.146 196.149C600.352 196.393 600.695 196.514 601.176 196.514C601.544 196.514 601.863 196.408 602.131 196.196V197.919Z" fill="white"/>
<line x1="545" y1="93.5" x2="1067" y2="93.5" stroke="black"/>
</svg>
