<svg width="1600" height="250" viewBox="0 0 1600 250" fill="none" xmlns="http://www.w3.org/2000/svg">
<path d="M0.5 0.5H1599.5V249.5H0.5V0.5Z" fill="#EDEDED" stroke="#C8C8C8"/>
<path d="M544.758 84.625H534.53V65.3259H544.328V67.3715H536.791V73.7911H543.763V75.8233H536.791V82.5793H544.758V84.625ZM567.745 84.625H565.538V76.7115C565.538 75.1863 565.3 74.0827 564.825 73.4008C564.358 72.7189 563.569 72.378 562.456 72.378C561.514 72.378 560.711 72.8087 560.047 73.67C559.392 74.5313 559.065 75.5631 559.065 76.7654V84.625H556.857V76.4424C556.857 73.7328 555.812 72.378 553.722 72.378C552.753 72.378 551.954 72.7862 551.326 73.6027C550.698 74.4102 550.384 75.4644 550.384 76.7654V84.625H548.177V70.8438H550.384V73.024H550.438C551.416 71.3552 552.842 70.5208 554.718 70.5208C555.66 70.5208 556.481 70.7854 557.18 71.3148C557.88 71.8352 558.36 72.5215 558.62 73.3739C559.643 71.4718 561.169 70.5208 563.196 70.5208C566.229 70.5208 567.745 72.3914 567.745 76.1328V84.625ZM581.782 84.625H579.575V82.4717H579.521C578.561 84.1226 577.148 84.948 575.282 84.948C573.909 84.948 572.832 84.5846 572.052 83.8579C571.28 83.1311 570.894 82.1666 570.894 80.9644C570.894 78.3893 572.411 76.891 575.443 76.4693L579.575 75.8906C579.575 73.5489 578.628 72.378 576.735 72.378C575.075 72.378 573.577 72.9432 572.24 74.0737V71.8127C573.595 70.9514 575.156 70.5208 576.924 70.5208C580.163 70.5208 581.782 72.2344 581.782 75.6618V84.625ZM579.575 77.6536L576.251 78.1112C575.228 78.2548 574.456 78.5105 573.936 78.8783C573.416 79.2372 573.155 79.8787 573.155 80.8029C573.155 81.4758 573.393 82.0276 573.869 82.4582C574.353 82.8799 574.995 83.0908 575.793 83.0908C576.888 83.0908 577.789 82.7094 578.498 81.9468C579.216 81.1752 579.575 80.2017 579.575 79.0264V77.6536ZM587.071 67.3446C586.676 67.3446 586.34 67.21 586.062 66.9409C585.784 66.6717 585.645 66.3307 585.645 65.918C585.645 65.5053 585.784 65.1644 586.062 64.8952C586.34 64.6171 586.676 64.478 587.071 64.478C587.475 64.478 587.816 64.6171 588.094 64.8952C588.381 65.1644 588.525 65.5053 588.525 65.918C588.525 66.3128 588.381 66.6493 588.094 66.9274C587.816 67.2055 587.475 67.3446 587.071 67.3446ZM588.148 84.625H585.941V70.8438H588.148V84.625ZM594.823 84.625H592.616V64.2223H594.823V84.625ZM616.72 84.625H614.513V82.4717H614.459C613.499 84.1226 612.086 84.948 610.219 84.948C608.847 84.948 607.77 84.5846 606.989 83.8579C606.218 83.1311 605.832 82.1666 605.832 80.9644C605.832 78.3893 607.348 76.891 610.381 76.4693L614.513 75.8906C614.513 73.5489 613.566 72.378 611.673 72.378C610.013 72.378 608.515 72.9432 607.178 74.0737V71.8127C608.533 70.9514 610.094 70.5208 611.861 70.5208C615.1 70.5208 616.72 72.2344 616.72 75.6618V84.625ZM614.513 77.6536L611.188 78.1112C610.166 78.2548 609.394 78.5105 608.874 78.8783C608.353 79.2372 608.093 79.8787 608.093 80.8029C608.093 81.4758 608.331 82.0276 608.806 82.4582C609.291 82.8799 609.932 83.0908 610.731 83.0908C611.825 83.0908 612.727 82.7094 613.436 81.9468C614.154 81.1752 614.513 80.2017 614.513 79.0264V77.6536ZM632.641 84.625H630.434V82.2833H630.38C629.357 84.0598 627.778 84.948 625.643 84.948C623.911 84.948 622.525 84.3334 621.484 83.1042C620.452 81.8661 619.936 80.1838 619.936 78.0574C619.936 75.7784 620.51 73.9526 621.659 72.5799C622.807 71.2071 624.337 70.5208 626.248 70.5208C628.141 70.5208 629.518 71.2654 630.38 72.7548H630.434V64.2223H632.641V84.625ZM630.434 78.3938V76.3616C630.434 75.2491 630.066 74.307 629.33 73.5354C628.594 72.7638 627.661 72.378 626.531 72.378C625.185 72.378 624.126 72.8715 623.355 73.8584C622.583 74.8453 622.197 76.2091 622.197 77.9497C622.197 79.5378 622.565 80.7939 623.301 81.718C624.045 82.6332 625.041 83.0908 626.289 83.0908C627.518 83.0908 628.514 82.6466 629.276 81.7584C630.048 80.8701 630.434 79.7486 630.434 78.3938ZM648.871 84.625H646.664V82.2833H646.61C645.588 84.0598 644.009 84.948 641.873 84.948C640.142 84.948 638.755 84.3334 637.715 83.1042C636.683 81.8661 636.167 80.1838 636.167 78.0574C636.167 75.7784 636.741 73.9526 637.89 72.5799C639.038 71.2071 640.568 70.5208 642.479 70.5208C644.372 70.5208 645.749 71.2654 646.61 72.7548H646.664V64.2223H648.871V84.625ZM646.664 78.3938V76.3616C646.664 75.2491 646.296 74.307 645.561 73.5354C644.825 72.7638 643.892 72.378 642.761 72.378C641.416 72.378 640.357 72.8715 639.585 73.8584C638.814 74.8453 638.428 76.2091 638.428 77.9497C638.428 79.5378 638.796 80.7939 639.531 81.718C640.276 82.6332 641.272 83.0908 642.519 83.0908C643.748 83.0908 644.744 82.6466 645.507 81.7584C646.279 80.8701 646.664 79.7486 646.664 78.3938ZM660.526 73.0778C660.141 72.7817 659.584 72.6337 658.857 72.6337C657.915 72.6337 657.126 73.0778 656.489 73.9661C655.861 74.8543 655.547 76.0656 655.547 77.5998V84.625H653.34V70.8438H655.547V73.6834H655.601C655.915 72.7144 656.395 71.9608 657.041 71.4225C657.687 70.8752 658.409 70.6015 659.207 70.6015C659.782 70.6015 660.221 70.6643 660.526 70.7899V73.0778ZM673.998 78.2862H664.268C664.304 79.8204 664.716 81.0047 665.506 81.8391C666.295 82.6736 667.381 83.0908 668.763 83.0908C670.315 83.0908 671.742 82.5793 673.042 81.5565V83.6291C671.831 84.5084 670.23 84.948 668.238 84.948C666.291 84.948 664.761 84.3244 663.649 83.0773C662.536 81.8212 661.98 80.0582 661.98 77.7882C661.98 75.6439 662.585 73.8988 663.797 72.5529C665.017 71.1982 666.529 70.5208 668.332 70.5208C670.135 70.5208 671.531 71.1039 672.518 72.2703C673.505 73.4367 673.998 75.0562 673.998 77.1288V78.2862ZM671.737 76.4155C671.728 75.1414 671.419 74.15 670.808 73.4412C670.207 72.7324 669.368 72.378 668.292 72.378C667.251 72.378 666.367 72.7503 665.64 73.495C664.914 74.2397 664.465 75.2132 664.295 76.4155H671.737ZM676.515 84.127V81.7584C677.717 82.6466 679.04 83.0908 680.485 83.0908C682.423 83.0908 683.392 82.4448 683.392 81.1528C683.392 80.7849 683.307 80.4754 683.136 80.2242C682.975 79.964 682.75 79.7352 682.463 79.5378C682.185 79.3404 681.853 79.1654 681.467 79.0129C681.091 78.8514 680.682 78.6854 680.243 78.515C679.633 78.2727 679.094 78.0305 678.628 77.7882C678.17 77.537 677.784 77.2589 677.47 76.9538C677.165 76.6398 676.932 76.2854 676.77 75.8906C676.618 75.4958 676.542 75.0338 676.542 74.5044C676.542 73.8584 676.69 73.2887 676.986 72.7952C677.282 72.2928 677.677 71.8755 678.17 71.5436C678.664 71.2026 679.224 70.9469 679.852 70.7765C680.489 70.606 681.144 70.5208 681.817 70.5208C683.011 70.5208 684.078 70.7271 685.02 71.1398V73.3739C684.006 72.71 682.84 72.378 681.521 72.378C681.108 72.378 680.736 72.4273 680.404 72.526C680.072 72.6158 679.785 72.7458 679.543 72.9163C679.31 73.0868 679.126 73.2932 678.991 73.5354C678.865 73.7687 678.803 74.0289 678.803 74.316C678.803 74.6749 678.865 74.9754 678.991 75.2177C679.126 75.4599 679.319 75.6753 679.57 75.8637C679.821 76.0521 680.126 76.2226 680.485 76.3751C680.844 76.5276 681.252 76.6936 681.71 76.873C682.32 77.1063 682.867 77.3486 683.352 77.5998C683.836 77.842 684.249 78.1202 684.59 78.4342C684.931 78.7393 685.191 79.0937 685.37 79.4974C685.559 79.9012 685.653 80.3812 685.653 80.9374C685.653 81.6193 685.5 82.2115 685.195 82.7139C684.899 83.2164 684.5 83.6336 683.997 83.9655C683.495 84.2975 682.916 84.5443 682.261 84.7057C681.606 84.8672 680.92 84.948 680.202 84.948C678.785 84.948 677.555 84.6743 676.515 84.127ZM688.223 84.127V81.7584C689.426 82.6466 690.749 83.0908 692.194 83.0908C694.132 83.0908 695.101 82.4448 695.101 81.1528C695.101 80.7849 695.015 80.4754 694.845 80.2242C694.683 79.964 694.459 79.7352 694.172 79.5378C693.894 79.3404 693.562 79.1654 693.176 79.0129C692.799 78.8514 692.391 78.6854 691.951 78.515C691.341 78.2727 690.803 78.0305 690.336 77.7882C689.879 77.537 689.493 77.2589 689.179 76.9538C688.874 76.6398 688.641 76.2854 688.479 75.8906C688.327 75.4958 688.25 75.0338 688.25 74.5044C688.25 73.8584 688.398 73.2887 688.694 72.7952C688.991 72.2928 689.385 71.8755 689.879 71.5436C690.372 71.2026 690.933 70.9469 691.561 70.7765C692.198 70.606 692.853 70.5208 693.526 70.5208C694.719 70.5208 695.787 70.7271 696.729 71.1398V73.3739C695.715 72.71 694.549 72.378 693.23 72.378C692.817 72.378 692.445 72.4273 692.113 72.526C691.781 72.6158 691.494 72.7458 691.251 72.9163C691.018 73.0868 690.834 73.2932 690.7 73.5354C690.574 73.7687 690.511 74.0289 690.511 74.316C690.511 74.6749 690.574 74.9754 690.7 75.2177C690.834 75.4599 691.027 75.6753 691.278 75.8637C691.53 76.0521 691.835 76.2226 692.194 76.3751C692.552 76.5276 692.961 76.6936 693.418 76.873C694.028 77.1063 694.576 77.3486 695.06 77.5998C695.545 77.842 695.957 78.1202 696.298 78.4342C696.639 78.7393 696.899 79.0937 697.079 79.4974C697.267 79.9012 697.362 80.3812 697.362 80.9374C697.362 81.6193 697.209 82.2115 696.904 82.7139C696.608 83.2164 696.209 83.6336 695.706 83.9655C695.204 84.2975 694.625 84.5443 693.97 84.7057C693.315 84.8672 692.629 84.948 691.911 84.948C690.493 84.948 689.264 84.6743 688.223 84.127Z" fill="#242424"/>
<g clip-path="url(#clip0_8_2528)">
<g clip-path="url(#clip1_8_2528)">
<rect x="532" y="101.188" width="536" height="63.625" rx="7.875" fill="#F5F5F5"/>
<path d="M560.066 141.453C560.066 143.714 559.609 145.454 558.693 146.674C557.787 147.904 556.486 148.518 554.791 148.518C554.163 148.518 553.552 148.375 552.96 148.087V146.028C553.624 146.432 554.252 146.634 554.844 146.634C556.854 146.634 557.859 145.028 557.859 141.816V128.25H560.066V141.453ZM558.99 124.751C558.595 124.751 558.258 124.616 557.98 124.347C557.702 124.078 557.563 123.737 557.563 123.324C557.563 122.912 557.702 122.571 557.98 122.301C558.258 122.023 558.595 121.884 558.99 121.884C559.393 121.884 559.734 122.023 560.012 122.301C560.299 122.571 560.443 122.912 560.443 123.324C560.443 123.719 560.299 124.056 560.012 124.334C559.734 124.612 559.393 124.751 558.99 124.751ZM570.294 142.354C568.258 142.354 566.629 141.713 565.409 140.43C564.198 139.138 563.592 137.429 563.592 135.302C563.592 132.987 564.225 131.179 565.49 129.878C566.755 128.577 568.464 127.927 570.617 127.927C572.672 127.927 574.274 128.56 575.422 129.825C576.579 131.09 577.158 132.844 577.158 135.087C577.158 137.285 576.535 139.048 575.288 140.376C574.049 141.695 572.385 142.354 570.294 142.354ZM570.456 129.784C569.038 129.784 567.917 130.269 567.091 131.238C566.266 132.198 565.853 133.526 565.853 135.221C565.853 136.854 566.27 138.142 567.105 139.084C567.939 140.026 569.056 140.497 570.456 140.497C571.883 140.497 572.977 140.035 573.74 139.111C574.511 138.187 574.897 136.872 574.897 135.168C574.897 133.445 574.511 132.117 573.74 131.184C572.977 130.251 571.883 129.784 570.456 129.784ZM592.124 142.031H589.917V134.091C589.917 131.22 588.849 129.784 586.714 129.784C585.637 129.784 584.731 130.201 583.995 131.036C583.259 131.861 582.891 132.924 582.891 134.225V142.031H580.684V121.629H582.891V130.538H582.945C584.004 128.797 585.511 127.927 587.467 127.927C590.572 127.927 592.124 129.798 592.124 133.539V142.031ZM607.735 142.031H605.528V134.172C605.528 131.247 604.461 129.784 602.325 129.784C601.222 129.784 600.306 130.201 599.58 131.036C598.862 131.861 598.503 132.907 598.503 134.172V142.031H596.296V128.25H598.503V130.538H598.557C599.598 128.797 601.105 127.927 603.079 127.927C604.586 127.927 605.739 128.416 606.538 129.394C607.336 130.363 607.735 131.767 607.735 133.606V142.031ZM611.073 141.533V139.165C612.275 140.053 613.599 140.497 615.043 140.497C616.981 140.497 617.95 139.851 617.95 138.559C617.95 138.191 617.865 137.882 617.694 137.63C617.533 137.37 617.309 137.141 617.022 136.944C616.743 136.747 616.411 136.572 616.026 136.419C615.649 136.258 615.241 136.092 614.801 135.921C614.191 135.679 613.652 135.437 613.186 135.194C612.728 134.943 612.343 134.665 612.029 134.36C611.723 134.046 611.49 133.692 611.329 133.297C611.176 132.902 611.1 132.44 611.1 131.911C611.1 131.265 611.248 130.695 611.544 130.201C611.84 129.699 612.235 129.282 612.728 128.95C613.222 128.609 613.783 128.353 614.411 128.183C615.048 128.012 615.703 127.927 616.376 127.927C617.569 127.927 618.637 128.133 619.579 128.546V130.78C618.565 130.116 617.398 129.784 616.079 129.784C615.667 129.784 615.294 129.834 614.962 129.932C614.63 130.022 614.343 130.152 614.101 130.323C613.868 130.493 613.684 130.699 613.549 130.942C613.424 131.175 613.361 131.435 613.361 131.722C613.361 132.081 613.424 132.382 613.549 132.624C613.684 132.866 613.877 133.082 614.128 133.27C614.379 133.458 614.684 133.629 615.043 133.781C615.402 133.934 615.81 134.1 616.268 134.279C616.878 134.513 617.425 134.755 617.91 135.006C618.394 135.248 618.807 135.526 619.148 135.84C619.489 136.146 619.749 136.5 619.929 136.904C620.117 137.307 620.211 137.787 620.211 138.344C620.211 139.026 620.059 139.618 619.754 140.12C619.457 140.623 619.058 141.04 618.556 141.372C618.053 141.704 617.475 141.951 616.82 142.112C616.165 142.273 615.478 142.354 614.761 142.354C613.343 142.354 612.114 142.081 611.073 141.533ZM643.184 142.031H640.977V134.118C640.977 132.593 640.739 131.489 640.264 130.807C639.797 130.125 639.008 129.784 637.895 129.784C636.953 129.784 636.15 130.215 635.486 131.076C634.831 131.938 634.504 132.969 634.504 134.172V142.031H632.297V133.849C632.297 131.139 631.251 129.784 629.161 129.784C628.192 129.784 627.393 130.192 626.765 131.009C626.137 131.816 625.823 132.871 625.823 134.172V142.031H623.616V128.25H625.823V130.43H625.877C626.855 128.761 628.282 127.927 630.157 127.927C631.099 127.927 631.92 128.192 632.62 128.721C633.319 129.241 633.799 129.928 634.06 130.78C635.083 128.878 636.608 127.927 638.635 127.927C641.668 127.927 643.184 129.798 643.184 133.539V142.031ZM648.487 124.751C648.092 124.751 647.756 124.616 647.478 124.347C647.199 124.078 647.06 123.737 647.06 123.324C647.06 122.912 647.199 122.571 647.478 122.301C647.756 122.023 648.092 121.884 648.487 121.884C648.891 121.884 649.232 122.023 649.51 122.301C649.797 122.571 649.94 122.912 649.94 123.324C649.94 123.719 649.797 124.056 649.51 124.334C649.232 124.612 648.891 124.751 648.487 124.751ZM649.564 142.031H647.356V128.25H649.564V142.031ZM660.424 141.897C659.904 142.184 659.218 142.327 658.365 142.327C655.952 142.327 654.745 140.982 654.745 138.29V130.134H652.376V128.25H654.745V124.885L656.952 124.172V128.25H660.424V130.134H656.952V137.9C656.952 138.824 657.109 139.483 657.423 139.878C657.737 140.273 658.258 140.47 658.984 140.47C659.541 140.47 660.021 140.318 660.424 140.013V141.897ZM674.811 142.031H672.604V134.091C672.604 131.22 671.536 129.784 669.401 129.784C668.324 129.784 667.418 130.201 666.682 131.036C665.947 131.861 665.579 132.924 665.579 134.225V142.031H663.372V121.629H665.579V130.538H665.633C666.691 128.797 668.199 127.927 670.155 127.927C673.259 127.927 674.811 129.798 674.811 133.539V142.031ZM679.75 142.327C679.338 142.327 678.983 142.179 678.687 141.883C678.4 141.587 678.257 141.233 678.257 140.82C678.257 140.407 678.4 140.053 678.687 139.757C678.983 139.452 679.338 139.299 679.75 139.299C680.172 139.299 680.531 139.452 680.827 139.757C681.123 140.053 681.271 140.407 681.271 140.82C681.271 141.233 681.123 141.587 680.827 141.883C680.531 142.179 680.172 142.327 679.75 142.327ZM694.353 141.399C693.294 142.036 692.038 142.354 690.584 142.354C688.619 142.354 687.031 141.717 685.82 140.443C684.618 139.16 684.017 137.5 684.017 135.464C684.017 133.194 684.667 131.372 685.968 130C687.269 128.618 689.005 127.927 691.177 127.927C692.388 127.927 693.455 128.151 694.38 128.6V130.861C693.357 130.143 692.262 129.784 691.096 129.784C689.687 129.784 688.53 130.291 687.624 131.305C686.726 132.31 686.278 133.633 686.278 135.275C686.278 136.89 686.699 138.164 687.543 139.097C688.395 140.03 689.535 140.497 690.961 140.497C692.163 140.497 693.294 140.098 694.353 139.299V141.399ZM703.45 142.354C701.414 142.354 699.785 141.713 698.565 140.43C697.354 139.138 696.748 137.429 696.748 135.302C696.748 132.987 697.381 131.179 698.646 129.878C699.911 128.577 701.62 127.927 703.773 127.927C705.828 127.927 707.43 128.56 708.578 129.825C709.735 131.09 710.314 132.844 710.314 135.087C710.314 137.285 709.691 139.048 708.443 140.376C707.205 141.695 705.541 142.354 703.45 142.354ZM703.612 129.784C702.194 129.784 701.073 130.269 700.247 131.238C699.422 132.198 699.009 133.526 699.009 135.221C699.009 136.854 699.426 138.142 700.261 139.084C701.095 140.026 702.212 140.497 703.612 140.497C705.039 140.497 706.133 140.035 706.896 139.111C707.667 138.187 708.053 136.872 708.053 135.168C708.053 133.445 707.667 132.117 706.896 131.184C706.133 130.251 705.039 129.784 703.612 129.784ZM733.409 142.031H731.201V134.118C731.201 132.593 730.964 131.489 730.488 130.807C730.022 130.125 729.232 129.784 728.119 129.784C727.177 129.784 726.374 130.215 725.71 131.076C725.055 131.938 724.728 132.969 724.728 134.172V142.031H722.521V133.849C722.521 131.139 721.476 129.784 719.385 129.784C718.416 129.784 717.617 130.192 716.989 131.009C716.361 131.816 716.047 132.871 716.047 134.172V142.031H713.84V128.25H716.047V130.43H716.101C717.079 128.761 718.506 127.927 720.381 127.927C721.323 127.927 722.144 128.192 722.844 128.721C723.544 129.241 724.024 129.928 724.284 130.78C725.307 128.878 726.832 127.927 728.86 127.927C731.892 127.927 733.409 129.798 733.409 133.539V142.031Z" fill="#242424"/>
</g>
<rect x="532.984" y="102.172" width="534.031" height="61.6562" rx="6.89062" stroke="#C50F1F" stroke-width="1.96875"/>
</g>
<path d="M543.812 194.344C549.249 194.344 553.656 189.937 553.656 184.5C553.656 179.063 549.249 174.656 543.812 174.656C538.376 174.656 533.969 179.063 533.969 184.5C533.969 189.937 538.376 194.344 543.812 194.344ZM542.336 188.93C542.336 188.114 542.997 187.453 543.812 187.453C544.628 187.453 545.289 188.114 545.289 188.93C545.289 189.745 544.628 190.406 543.812 190.406C542.997 190.406 542.336 189.745 542.336 188.93ZM542.844 179.401C542.927 178.942 543.329 178.594 543.812 178.594C544.296 178.594 544.698 178.942 544.781 179.401L544.797 179.578V184.5L544.781 184.677C544.698 185.136 544.296 185.484 543.812 185.484C543.329 185.484 542.927 185.136 542.844 184.677L542.828 184.5V179.578L542.844 179.401Z" fill="#B10E1C"/>
<path d="M567.607 188.498V194.75H565.669V178.208H570.214C571.983 178.208 573.351 178.639 574.32 179.5C575.297 180.361 575.785 181.576 575.785 183.145C575.785 184.714 575.243 185.998 574.159 186.998C573.082 187.998 571.625 188.498 569.787 188.498H567.607ZM567.607 179.961V186.744H569.637C570.975 186.744 571.994 186.44 572.694 185.833C573.401 185.218 573.755 184.353 573.755 183.237C573.755 181.053 572.463 179.961 569.879 179.961H567.607ZM580.55 194.75H578.658V177.262H580.55V194.75ZM593.873 189.317H585.533C585.564 190.632 585.918 191.647 586.594 192.362C587.271 193.077 588.202 193.435 589.386 193.435C590.716 193.435 591.939 192.997 593.054 192.12V193.896C592.016 194.65 590.643 195.027 588.936 195.027C587.267 195.027 585.956 194.492 585.002 193.423C584.049 192.347 583.572 190.836 583.572 188.89C583.572 187.052 584.091 185.556 585.129 184.403C586.175 183.241 587.471 182.661 589.017 182.661C590.563 182.661 591.758 183.161 592.604 184.16C593.45 185.16 593.873 186.548 593.873 188.325V189.317ZM591.935 187.713C591.928 186.621 591.662 185.771 591.139 185.164C590.624 184.556 589.905 184.253 588.982 184.253C588.09 184.253 587.333 184.572 586.71 185.21C586.087 185.848 585.702 186.683 585.556 187.713H591.935ZM605.201 194.75H603.31V192.904H603.263C602.44 194.319 601.229 195.027 599.63 195.027C598.453 195.027 597.53 194.715 596.861 194.092C596.2 193.47 595.869 192.643 595.869 191.612C595.869 189.405 597.169 188.121 599.768 187.759L603.31 187.263C603.31 185.256 602.498 184.253 600.875 184.253C599.453 184.253 598.168 184.737 597.023 185.706V183.768C598.184 183.03 599.522 182.661 601.037 182.661C603.813 182.661 605.201 184.13 605.201 187.067V194.75ZM603.31 188.775L600.46 189.167C599.583 189.29 598.922 189.509 598.476 189.824C598.03 190.132 597.807 190.682 597.807 191.474C597.807 192.051 598.011 192.524 598.418 192.893C598.834 193.254 599.384 193.435 600.068 193.435C601.006 193.435 601.779 193.108 602.387 192.454C603.002 191.793 603.31 190.959 603.31 189.951V188.775ZM608.051 194.323V192.293C609.081 193.054 610.216 193.435 611.454 193.435C613.115 193.435 613.945 192.881 613.945 191.774C613.945 191.458 613.872 191.193 613.726 190.978C613.588 190.755 613.396 190.559 613.149 190.39C612.911 190.22 612.626 190.07 612.296 189.94C611.973 189.801 611.623 189.659 611.246 189.513C610.723 189.305 610.262 189.098 609.862 188.89C609.47 188.675 609.139 188.436 608.87 188.175C608.608 187.906 608.408 187.602 608.27 187.263C608.139 186.925 608.074 186.529 608.074 186.075C608.074 185.521 608.201 185.033 608.454 184.61C608.708 184.18 609.047 183.822 609.47 183.537C609.893 183.245 610.373 183.026 610.911 182.88C611.458 182.734 612.019 182.661 612.596 182.661C613.619 182.661 614.534 182.838 615.341 183.191V185.106C614.472 184.537 613.472 184.253 612.342 184.253C611.988 184.253 611.669 184.295 611.384 184.379C611.1 184.456 610.854 184.568 610.646 184.714C610.446 184.86 610.289 185.037 610.173 185.245C610.066 185.445 610.012 185.668 610.012 185.914C610.012 186.221 610.066 186.479 610.173 186.687C610.289 186.894 610.454 187.079 610.669 187.24C610.885 187.402 611.146 187.548 611.454 187.679C611.761 187.809 612.111 187.952 612.503 188.105C613.026 188.305 613.495 188.513 613.911 188.728C614.326 188.936 614.68 189.174 614.972 189.444C615.264 189.705 615.487 190.009 615.641 190.355C615.803 190.701 615.883 191.112 615.883 191.589C615.883 192.174 615.753 192.681 615.491 193.112C615.237 193.543 614.895 193.9 614.464 194.185C614.034 194.469 613.538 194.681 612.976 194.819C612.415 194.958 611.827 195.027 611.211 195.027C609.996 195.027 608.943 194.792 608.051 194.323ZM628.296 189.317H619.955C619.986 190.632 620.34 191.647 621.017 192.362C621.693 193.077 622.624 193.435 623.808 193.435C625.139 193.435 626.362 192.997 627.477 192.12V193.896C626.438 194.65 625.066 195.027 623.358 195.027C621.69 195.027 620.378 194.492 619.425 193.423C618.471 192.347 617.994 190.836 617.994 188.89C617.994 187.052 618.513 185.556 619.552 184.403C620.598 183.241 621.893 182.661 623.439 182.661C624.985 182.661 626.181 183.161 627.027 184.16C627.873 185.16 628.296 186.548 628.296 188.325V189.317ZM626.358 187.713C626.35 186.621 626.085 185.771 625.562 185.164C625.047 184.556 624.327 184.253 623.405 184.253C622.513 184.253 621.755 184.572 621.132 185.21C620.509 185.848 620.125 186.683 619.979 187.713H626.358ZM647.145 189.317H638.805C638.835 190.632 639.189 191.647 639.866 192.362C640.543 193.077 641.473 193.435 642.658 193.435C643.988 193.435 645.211 192.997 646.326 192.12V193.896C645.288 194.65 643.915 195.027 642.208 195.027C640.539 195.027 639.228 194.492 638.274 193.423C637.32 192.347 636.844 190.836 636.844 188.89C636.844 187.052 637.363 185.556 638.401 184.403C639.447 183.241 640.743 182.661 642.288 182.661C643.834 182.661 645.03 183.161 645.876 184.16C646.722 185.16 647.145 186.548 647.145 188.325V189.317ZM645.207 187.713C645.199 186.621 644.934 185.771 644.411 185.164C643.896 184.556 643.177 184.253 642.254 184.253C641.362 184.253 640.604 184.572 639.981 185.21C639.358 185.848 638.974 186.683 638.828 187.713H645.207ZM659.823 194.75H657.931V188.013C657.931 185.506 657.016 184.253 655.185 184.253C654.239 184.253 653.455 184.61 652.832 185.325C652.217 186.033 651.909 186.929 651.909 188.013V194.75H650.017V182.938H651.909V184.899H651.955C652.847 183.407 654.139 182.661 655.831 182.661C657.123 182.661 658.112 183.08 658.796 183.918C659.48 184.749 659.823 185.952 659.823 187.529V194.75ZM668.878 194.635C668.432 194.881 667.844 195.004 667.113 195.004C665.044 195.004 664.01 193.85 664.01 191.543V184.552H661.98V182.938H664.01V180.054L665.902 179.442V182.938H668.878V184.552H665.902V191.209C665.902 192.001 666.036 192.566 666.306 192.904C666.575 193.243 667.021 193.412 667.644 193.412C668.121 193.412 668.532 193.281 668.878 193.02V194.635ZM680.898 189.317H672.558C672.589 190.632 672.943 191.647 673.619 192.362C674.296 193.077 675.227 193.435 676.411 193.435C677.741 193.435 678.964 192.997 680.079 192.12V193.896C679.041 194.65 677.668 195.027 675.961 195.027C674.292 195.027 672.981 194.492 672.027 193.423C671.074 192.347 670.597 190.836 670.597 188.89C670.597 187.052 671.116 185.556 672.154 184.403C673.2 183.241 674.496 182.661 676.042 182.661C677.588 182.661 678.783 183.161 679.629 184.16C680.475 185.16 680.898 186.548 680.898 188.325V189.317ZM678.96 187.713C678.953 186.621 678.687 185.771 678.164 185.164C677.649 184.556 676.93 184.253 676.007 184.253C675.115 184.253 674.358 184.572 673.735 185.21C673.112 185.848 672.727 186.683 672.581 187.713H678.96ZM689.931 184.852C689.6 184.599 689.123 184.472 688.5 184.472C687.693 184.472 687.016 184.852 686.47 185.614C685.932 186.375 685.662 187.413 685.662 188.728V194.75H683.771V182.938H685.662V185.372H685.709C685.978 184.541 686.389 183.895 686.943 183.434C687.497 182.964 688.116 182.73 688.8 182.73C689.292 182.73 689.669 182.784 689.931 182.891V184.852ZM706.923 194.75H705.031V192.904H704.985C704.162 194.319 702.951 195.027 701.351 195.027C700.174 195.027 699.251 194.715 698.582 194.092C697.921 193.47 697.59 192.643 697.59 191.612C697.59 189.405 698.89 188.121 701.489 187.759L705.031 187.263C705.031 185.256 704.219 184.253 702.597 184.253C701.174 184.253 699.89 184.737 698.744 185.706V183.768C699.905 183.03 701.243 182.661 702.758 182.661C705.535 182.661 706.923 184.13 706.923 187.067V194.75ZM705.031 188.775L702.182 189.167C701.305 189.29 700.643 189.509 700.197 189.824C699.751 190.132 699.528 190.682 699.528 191.474C699.528 192.051 699.732 192.524 700.14 192.893C700.555 193.254 701.105 193.435 701.789 193.435C702.728 193.435 703.5 193.108 704.108 192.454C704.723 191.793 705.031 190.959 705.031 189.951V188.775ZM725.022 194.208C724.115 194.754 723.038 195.027 721.792 195.027C720.108 195.027 718.747 194.481 717.708 193.389C716.678 192.289 716.163 190.866 716.163 189.121C716.163 187.175 716.72 185.614 717.835 184.437C718.951 183.253 720.439 182.661 722.3 182.661C723.338 182.661 724.253 182.853 725.045 183.237V185.175C724.168 184.56 723.23 184.253 722.23 184.253C721.023 184.253 720.031 184.687 719.254 185.556C718.485 186.417 718.101 187.552 718.101 188.959C718.101 190.343 718.462 191.435 719.185 192.235C719.916 193.035 720.892 193.435 722.115 193.435C723.146 193.435 724.115 193.093 725.022 192.408V194.208ZM732.82 195.027C731.074 195.027 729.679 194.477 728.633 193.377C727.595 192.27 727.075 190.805 727.075 188.982C727.075 186.998 727.618 185.448 728.702 184.333C729.786 183.218 731.251 182.661 733.097 182.661C734.858 182.661 736.231 183.203 737.215 184.287C738.207 185.372 738.703 186.875 738.703 188.798C738.703 190.682 738.169 192.193 737.1 193.331C736.039 194.462 734.612 195.027 732.82 195.027ZM732.959 184.253C731.744 184.253 730.782 184.668 730.075 185.498C729.367 186.321 729.013 187.459 729.013 188.913C729.013 190.313 729.371 191.416 730.086 192.224C730.801 193.031 731.759 193.435 732.959 193.435C734.181 193.435 735.12 193.039 735.773 192.247C736.435 191.455 736.765 190.328 736.765 188.867C736.765 187.39 736.435 186.252 735.773 185.452C735.12 184.652 734.181 184.253 732.959 184.253ZM747.886 184.852C747.555 184.599 747.078 184.472 746.455 184.472C745.648 184.472 744.971 184.852 744.425 185.614C743.887 186.375 743.618 187.413 743.618 188.728V194.75H741.726V182.938H743.618V185.372H743.664C743.933 184.541 744.344 183.895 744.898 183.434C745.452 182.964 746.071 182.73 746.755 182.73C747.247 182.73 747.624 182.784 747.886 182.891V184.852ZM756.099 184.852C755.768 184.599 755.292 184.472 754.669 184.472C753.861 184.472 753.184 184.852 752.638 185.614C752.1 186.375 751.831 187.413 751.831 188.728V194.75H749.939V182.938H751.831V185.372H751.877C752.146 184.541 752.558 183.895 753.111 183.434C753.665 182.964 754.284 182.73 754.969 182.73C755.461 182.73 755.838 182.784 756.099 182.891V184.852ZM767.646 189.317H759.306C759.337 190.632 759.691 191.647 760.367 192.362C761.044 193.077 761.975 193.435 763.159 193.435C764.489 193.435 765.712 192.997 766.827 192.12V193.896C765.789 194.65 764.416 195.027 762.709 195.027C761.04 195.027 759.729 194.492 758.775 193.423C757.822 192.347 757.345 190.836 757.345 188.89C757.345 187.052 757.864 185.556 758.902 184.403C759.948 183.241 761.244 182.661 762.79 182.661C764.336 182.661 765.531 183.161 766.377 184.16C767.223 185.16 767.646 186.548 767.646 188.325V189.317ZM765.708 187.713C765.701 186.621 765.435 185.771 764.912 185.164C764.397 184.556 763.678 184.253 762.755 184.253C761.863 184.253 761.106 184.572 760.483 185.21C759.86 185.848 759.475 186.683 759.329 187.713H765.708ZM778.571 194.208C777.663 194.754 776.586 195.027 775.341 195.027C773.656 195.027 772.295 194.481 771.257 193.389C770.226 192.289 769.711 190.866 769.711 189.121C769.711 187.175 770.269 185.614 771.384 184.437C772.499 183.253 773.987 182.661 775.848 182.661C776.886 182.661 777.802 182.853 778.594 183.237V185.175C777.717 184.56 776.779 184.253 775.779 184.253C774.572 184.253 773.579 184.687 772.803 185.556C772.034 186.417 771.649 187.552 771.649 188.959C771.649 190.343 772.011 191.435 772.734 192.235C773.464 193.035 774.441 193.435 775.664 193.435C776.694 193.435 777.663 193.093 778.571 192.408V194.208ZM786.911 194.635C786.465 194.881 785.876 195.004 785.146 195.004C783.077 195.004 782.043 193.85 782.043 191.543V184.552H780.013V182.938H782.043V180.054L783.935 179.442V182.938H786.911V184.552H783.935V191.209C783.935 192.001 784.069 192.566 784.338 192.904C784.608 193.243 785.054 193.412 785.677 193.412C786.153 193.412 786.565 193.281 786.911 193.02V194.635ZM805.414 189.317H797.074C797.104 190.632 797.458 191.647 798.135 192.362C798.812 193.077 799.742 193.435 800.927 193.435C802.257 193.435 803.48 192.997 804.595 192.12V193.896C803.557 194.65 802.184 195.027 800.477 195.027C798.808 195.027 797.497 194.492 796.543 193.423C795.589 192.347 795.113 190.836 795.113 188.89C795.113 187.052 795.632 185.556 796.67 184.403C797.716 183.241 799.012 182.661 800.557 182.661C802.103 182.661 803.299 183.161 804.145 184.16C804.991 185.16 805.414 186.548 805.414 188.325V189.317ZM803.476 187.713C803.468 186.621 803.203 185.771 802.68 185.164C802.165 184.556 801.446 184.253 800.523 184.253C799.631 184.253 798.873 184.572 798.25 185.21C797.627 185.848 797.243 186.683 797.097 187.713H803.476ZM825.059 194.75H823.167V187.967C823.167 186.66 822.964 185.714 822.556 185.129C822.156 184.545 821.479 184.253 820.526 184.253C819.718 184.253 819.03 184.622 818.461 185.36C817.899 186.098 817.619 186.983 817.619 188.013V194.75H815.727V187.736C815.727 185.414 814.831 184.253 813.039 184.253C812.208 184.253 811.524 184.602 810.986 185.302C810.447 185.994 810.178 186.898 810.178 188.013V194.75H808.286V182.938H810.178V184.806H810.224C811.063 183.376 812.285 182.661 813.893 182.661C814.7 182.661 815.404 182.888 816.004 183.341C816.604 183.787 817.015 184.376 817.238 185.106C818.115 183.476 819.422 182.661 821.16 182.661C823.76 182.661 825.059 184.264 825.059 187.471V194.75ZM837.091 194.75H835.199V192.904H835.153C834.33 194.319 833.119 195.027 831.519 195.027C830.343 195.027 829.42 194.715 828.751 194.092C828.089 193.47 827.759 192.643 827.759 191.612C827.759 189.405 829.058 188.121 831.658 187.759L835.199 187.263C835.199 185.256 834.388 184.253 832.765 184.253C831.342 184.253 830.058 184.737 828.912 185.706V183.768C830.073 183.03 831.411 182.661 832.927 182.661C835.703 182.661 837.091 184.13 837.091 187.067V194.75ZM835.199 188.775L832.35 189.167C831.473 189.29 830.812 189.509 830.366 189.824C829.92 190.132 829.697 190.682 829.697 191.474C829.697 192.051 829.9 192.524 830.308 192.893C830.723 193.254 831.273 193.435 831.958 193.435C832.896 193.435 833.669 193.108 834.276 192.454C834.891 191.793 835.199 190.959 835.199 189.951V188.775ZM841.624 179.938C841.286 179.938 840.998 179.823 840.759 179.592C840.521 179.361 840.402 179.069 840.402 178.715C840.402 178.362 840.521 178.069 840.759 177.839C840.998 177.6 841.286 177.481 841.624 177.481C841.97 177.481 842.263 177.6 842.501 177.839C842.747 178.069 842.87 178.362 842.87 178.715C842.87 179.054 842.747 179.342 842.501 179.581C842.263 179.819 841.97 179.938 841.624 179.938ZM842.547 194.75H840.655V182.938H842.547V194.75ZM848.269 194.75H846.377V177.262H848.269V194.75ZM867.037 194.75H865.146V192.904H865.099C864.277 194.319 863.065 195.027 861.466 195.027C860.289 195.027 859.366 194.715 858.697 194.092C858.036 193.47 857.705 192.643 857.705 191.612C857.705 189.405 859.005 188.121 861.604 187.759L865.146 187.263C865.146 185.256 864.334 184.253 862.712 184.253C861.289 184.253 860.005 184.737 858.859 185.706V183.768C860.02 183.03 861.358 182.661 862.873 182.661C865.649 182.661 867.037 184.13 867.037 187.067V194.75ZM865.146 188.775L862.296 189.167C861.42 189.29 860.758 189.509 860.312 189.824C859.866 190.132 859.643 190.682 859.643 191.474C859.643 192.051 859.847 192.524 860.254 192.893C860.67 193.254 861.22 193.435 861.904 193.435C862.842 193.435 863.615 193.108 864.223 192.454C864.838 191.793 865.146 190.959 865.146 189.951V188.775ZM880.684 194.75H878.792V192.743H878.746C877.869 194.266 876.516 195.027 874.686 195.027C873.201 195.027 872.013 194.5 871.121 193.446C870.237 192.385 869.794 190.943 869.794 189.121C869.794 187.167 870.287 185.602 871.271 184.426C872.255 183.249 873.567 182.661 875.205 182.661C876.827 182.661 878.008 183.299 878.746 184.576H878.792V177.262H880.684V194.75ZM878.792 189.409V187.667C878.792 186.714 878.477 185.906 877.846 185.245C877.216 184.583 876.416 184.253 875.447 184.253C874.293 184.253 873.386 184.676 872.724 185.521C872.063 186.367 871.732 187.536 871.732 189.028C871.732 190.39 872.048 191.466 872.678 192.258C873.317 193.043 874.17 193.435 875.239 193.435C876.293 193.435 877.146 193.054 877.8 192.293C878.462 191.532 878.792 190.57 878.792 189.409ZM894.596 194.75H892.704V192.743H892.658C891.781 194.266 890.428 195.027 888.598 195.027C887.113 195.027 885.925 194.5 885.033 193.446C884.149 192.385 883.706 190.943 883.706 189.121C883.706 187.167 884.199 185.602 885.183 184.426C886.167 183.249 887.479 182.661 889.117 182.661C890.739 182.661 891.92 183.299 892.658 184.576H892.704V177.262H894.596V194.75ZM892.704 189.409V187.667C892.704 186.714 892.389 185.906 891.758 185.245C891.128 184.583 890.328 184.253 889.359 184.253C888.205 184.253 887.298 184.676 886.636 185.521C885.975 186.367 885.644 187.536 885.644 189.028C885.644 190.39 885.96 191.466 886.59 192.258C887.229 193.043 888.082 193.435 889.151 193.435C890.205 193.435 891.058 193.054 891.712 192.293C892.374 191.532 892.704 190.57 892.704 189.409ZM904.586 184.852C904.255 184.599 903.778 184.472 903.156 184.472C902.348 184.472 901.671 184.852 901.125 185.614C900.587 186.375 900.318 187.413 900.318 188.728V194.75H898.426V182.938H900.318V185.372H900.364C900.633 184.541 901.044 183.895 901.598 183.434C902.152 182.964 902.771 182.73 903.455 182.73C903.948 182.73 904.324 182.784 904.586 182.891V184.852ZM916.133 189.317H907.793C907.824 190.632 908.177 191.647 908.854 192.362C909.531 193.077 910.461 193.435 911.646 193.435C912.976 193.435 914.199 192.997 915.314 192.12V193.896C914.276 194.65 912.903 195.027 911.196 195.027C909.527 195.027 908.216 194.492 907.262 193.423C906.309 192.347 905.832 190.836 905.832 188.89C905.832 187.052 906.351 185.556 907.389 184.403C908.435 183.241 909.731 182.661 911.277 182.661C912.822 182.661 914.018 183.161 914.864 184.16C915.71 185.16 916.133 186.548 916.133 188.325V189.317ZM914.195 187.713C914.187 186.621 913.922 185.771 913.399 185.164C912.884 184.556 912.165 184.253 911.242 184.253C910.35 184.253 909.592 184.572 908.969 185.21C908.347 185.848 907.962 186.683 907.816 187.713H914.195ZM918.29 194.323V192.293C919.321 193.054 920.455 193.435 921.693 193.435C923.354 193.435 924.185 192.881 924.185 191.774C924.185 191.458 924.112 191.193 923.966 190.978C923.827 190.755 923.635 190.559 923.389 190.39C923.151 190.22 922.866 190.07 922.535 189.94C922.212 189.801 921.862 189.659 921.486 189.513C920.963 189.305 920.501 189.098 920.101 188.89C919.709 188.675 919.378 188.436 919.109 188.175C918.848 187.906 918.648 187.602 918.509 187.263C918.379 186.925 918.313 186.529 918.313 186.075C918.313 185.521 918.44 185.033 918.694 184.61C918.948 184.18 919.286 183.822 919.709 183.537C920.132 183.245 920.613 183.026 921.151 182.88C921.697 182.734 922.259 182.661 922.835 182.661C923.858 182.661 924.773 182.838 925.581 183.191V185.106C924.712 184.537 923.712 184.253 922.582 184.253C922.228 184.253 921.909 184.295 921.624 184.379C921.34 184.456 921.093 184.568 920.886 184.714C920.686 184.86 920.528 185.037 920.413 185.245C920.305 185.445 920.251 185.668 920.251 185.914C920.251 186.221 920.305 186.479 920.413 186.687C920.528 186.894 920.694 187.079 920.909 187.24C921.124 187.402 921.386 187.548 921.693 187.679C922.001 187.809 922.351 187.952 922.743 188.105C923.266 188.305 923.735 188.513 924.15 188.728C924.566 188.936 924.919 189.174 925.212 189.444C925.504 189.705 925.727 190.009 925.881 190.355C926.042 190.701 926.123 191.112 926.123 191.589C926.123 192.174 925.992 192.681 925.731 193.112C925.477 193.543 925.135 193.9 924.704 194.185C924.273 194.469 923.777 194.681 923.216 194.819C922.655 194.958 922.066 195.027 921.451 195.027C920.236 195.027 919.182 194.792 918.29 194.323ZM928.326 194.323V192.293C929.357 193.054 930.491 193.435 931.729 193.435C933.39 193.435 934.221 192.881 934.221 191.774C934.221 191.458 934.148 191.193 934.002 190.978C933.863 190.755 933.671 190.559 933.425 190.39C933.187 190.22 932.902 190.07 932.571 189.94C932.248 189.801 931.898 189.659 931.522 189.513C930.999 189.305 930.537 189.098 930.137 188.89C929.745 188.675 929.414 188.436 929.145 188.175C928.884 187.906 928.684 187.602 928.545 187.263C928.415 186.925 928.349 186.529 928.349 186.075C928.349 185.521 928.476 185.033 928.73 184.61C928.984 184.18 929.322 183.822 929.745 183.537C930.168 183.245 930.649 183.026 931.187 182.88C931.733 182.734 932.295 182.661 932.871 182.661C933.894 182.661 934.809 182.838 935.617 183.191V185.106C934.748 184.537 933.748 184.253 932.618 184.253C932.264 184.253 931.945 184.295 931.66 184.379C931.376 184.456 931.129 184.568 930.922 184.714C930.722 184.86 930.564 185.037 930.449 185.245C930.341 185.445 930.287 185.668 930.287 185.914C930.287 186.221 930.341 186.479 930.449 186.687C930.564 186.894 930.73 187.079 930.945 187.24C931.16 187.402 931.422 187.548 931.729 187.679C932.037 187.809 932.387 187.952 932.779 188.105C933.302 188.305 933.771 188.513 934.186 188.728C934.602 188.936 934.955 189.174 935.248 189.444C935.54 189.705 935.763 190.009 935.917 190.355C936.078 190.701 936.159 191.112 936.159 191.589C936.159 192.174 936.028 192.681 935.767 193.112C935.513 193.543 935.171 193.9 934.74 194.185C934.309 194.469 933.813 194.681 933.252 194.819C932.691 194.958 932.102 195.027 931.487 195.027C930.272 195.027 929.218 194.792 928.326 194.323Z" fill="#B10E1C"/>
<defs>
<clipPath id="clip0_8_2528">
<path d="M532 109.062C532 104.713 535.526 101.188 539.875 101.188H1060.12C1064.47 101.188 1068 104.713 1068 109.062V156.938C1068 161.287 1064.47 164.812 1060.13 164.812H539.875C535.526 164.812 532 161.287 532 156.938V109.062Z" fill="white"/>
</clipPath>
<clipPath id="clip1_8_2528">
<rect x="532" y="101.188" width="536" height="63.625" rx="7.875" fill="white"/>
</clipPath>
</defs>
</svg>
