<svg width="1600" height="250" viewBox="0 0 1600 250" fill="none" xmlns="http://www.w3.org/2000/svg">
<rect x="0.5" y="0.5" width="1599" height="249" fill="#EDEDED" stroke="#C8C8C8"/>
<rect x="808" y="91" width="188" height="67" rx="8" fill="#0F6CBD"/>
<path d="M888.766 136.5H884.703L874 120.031C873.729 119.615 873.505 119.182 873.328 118.734H873.234C873.318 119.214 873.359 120.24 873.359 121.812V136.5H869.766V114.094H874.094L884.438 130.172C884.875 130.839 885.156 131.297 885.281 131.547H885.344C885.24 130.953 885.188 129.948 885.188 128.531V114.094H888.766V136.5ZM907.469 129.484H896.562C896.604 130.964 897.057 132.104 897.922 132.906C898.797 133.708 899.995 134.109 901.516 134.109C903.224 134.109 904.792 133.599 906.219 132.578V135.5C904.76 136.417 902.833 136.875 900.438 136.875C898.083 136.875 896.234 136.151 894.891 134.703C893.557 133.245 892.891 131.198 892.891 128.562C892.891 126.073 893.625 124.047 895.094 122.484C896.573 120.911 898.406 120.125 900.594 120.125C902.781 120.125 904.474 120.828 905.672 122.234C906.87 123.641 907.469 125.594 907.469 128.094V129.484ZM903.969 126.922C903.958 125.62 903.651 124.609 903.047 123.891C902.443 123.161 901.609 122.797 900.547 122.797C899.505 122.797 898.62 123.177 897.891 123.938C897.172 124.698 896.729 125.693 896.562 126.922H903.969ZM924.297 120.5L918.969 128.594L924.234 136.5H920.031L917.219 131.547C917.042 131.245 916.833 130.859 916.594 130.391H916.531C916.49 130.484 916.271 130.87 915.875 131.547L913.016 136.5H908.828L914.266 128.656L909.109 120.5H913.328L916.094 125.703C916.302 126.089 916.505 126.484 916.703 126.891H916.75L920.328 120.5H924.297ZM935.391 136.328C934.682 136.682 933.75 136.859 932.594 136.859C929.49 136.859 927.938 135.37 927.938 132.391V123.344H925.266V120.5H927.938V116.797L931.562 115.766V120.5H935.391V123.344H931.562V131.344C931.562 132.292 931.734 132.969 932.078 133.375C932.422 133.781 932.995 133.984 933.797 133.984C934.411 133.984 934.943 133.807 935.391 133.453V136.328Z" fill="white"/>
<rect x="605" y="92" width="186" height="65" rx="7" fill="white"/>
<rect x="605" y="92" width="186" height="65" rx="7" stroke="#D1D1D1" stroke-width="2"/>
<path d="M666.766 136.5V114.094H673.875C676.042 114.094 677.755 114.568 679.016 115.516C680.286 116.464 680.922 117.698 680.922 119.219C680.922 120.49 680.562 121.594 679.844 122.531C679.125 123.469 678.13 124.135 676.859 124.531V124.594C678.401 124.771 679.63 125.344 680.547 126.312C681.474 127.271 681.938 128.521 681.938 130.062C681.938 131.979 681.182 133.531 679.672 134.719C678.161 135.906 676.255 136.5 673.953 136.5H666.766ZM670.469 117.078V123.453H672.875C674.167 123.453 675.177 123.151 675.906 122.547C676.646 121.932 677.016 121.068 677.016 119.953C677.016 118.036 675.734 117.078 673.172 117.078H670.469ZM670.469 126.438V133.531H673.641C675.026 133.531 676.094 133.214 676.844 132.578C677.604 131.932 677.984 131.047 677.984 129.922C677.984 127.599 676.375 126.438 673.156 126.438H670.469ZM697.984 136.5H694.469V134H694.406C693.302 135.917 691.682 136.875 689.547 136.875C687.974 136.875 686.74 136.448 685.844 135.594C684.958 134.74 684.516 133.609 684.516 132.203C684.516 129.182 686.255 127.422 689.734 126.922L694.484 126.25C694.484 123.969 693.401 122.828 691.234 122.828C689.328 122.828 687.609 123.484 686.078 124.797V121.625C687.766 120.625 689.714 120.125 691.922 120.125C695.964 120.125 697.984 122.115 697.984 126.094V136.5ZM694.484 128.641L691.125 129.109C690.083 129.245 689.297 129.5 688.766 129.875C688.245 130.24 687.984 130.885 687.984 131.812C687.984 132.49 688.224 133.047 688.703 133.484C689.193 133.911 689.844 134.125 690.656 134.125C691.76 134.125 692.672 133.74 693.391 132.969C694.12 132.188 694.484 131.208 694.484 130.031V128.641ZM713.875 135.766C712.594 136.505 711.078 136.875 709.328 136.875C706.953 136.875 705.036 136.135 703.578 134.656C702.12 133.167 701.391 131.24 701.391 128.875C701.391 126.24 702.172 124.125 703.734 122.531C705.307 120.927 707.406 120.125 710.031 120.125C711.49 120.125 712.776 120.38 713.891 120.891V124.266C712.776 123.432 711.589 123.016 710.328 123.016C708.797 123.016 707.542 123.536 706.562 124.578C705.583 125.609 705.094 126.964 705.094 128.641C705.094 130.297 705.552 131.604 706.469 132.562C707.396 133.521 708.635 134 710.188 134C711.49 134 712.719 133.536 713.875 132.609V135.766ZM732 136.5H727.406L721.188 128.812H721.125V136.5H717.484V112.812H721.125V127.828H721.188L727.062 120.5H731.422L724.812 128.219L732 136.5Z" fill="#242424"/>
</svg>
