<svg width="1600" height="250" viewBox="0 0 1600 250" fill="none" xmlns="http://www.w3.org/2000/svg">
<rect x="0.5" y="0.5" width="1599" height="249" fill="#EDEDED" stroke="#C8C8C8"/>
<path d="M548.583 175H546.654L539.745 164.299C539.57 164.031 539.427 163.75 539.314 163.456H539.258C539.308 163.743 539.333 164.358 539.333 165.301V175H537.76V161.575H539.801L546.523 172.107C546.804 172.544 546.985 172.844 547.066 173.006H547.104C547.041 172.619 547.01 171.96 547.01 171.03V161.575H548.583V175ZM559.602 170.59H552.833C552.858 171.658 553.145 172.482 553.695 173.062C554.244 173.642 554.999 173.933 555.96 173.933C557.04 173.933 558.033 173.577 558.938 172.865V174.307C558.095 174.919 556.981 175.225 555.595 175.225C554.241 175.225 553.177 174.791 552.403 173.923C551.629 173.05 551.242 171.823 551.242 170.244C551.242 168.752 551.663 167.538 552.506 166.602C553.355 165.66 554.406 165.188 555.661 165.188C556.915 165.188 557.886 165.594 558.572 166.405C559.259 167.217 559.602 168.343 559.602 169.785V170.59ZM558.029 169.289C558.023 168.403 557.808 167.713 557.383 167.22C556.965 166.727 556.382 166.48 555.633 166.48C554.909 166.48 554.294 166.739 553.788 167.257C553.283 167.775 552.971 168.453 552.852 169.289H558.029ZM574.011 165.413L571.137 175H569.545L567.57 168.137C567.495 167.875 567.445 167.579 567.42 167.248H567.382C567.364 167.473 567.298 167.763 567.186 168.119L565.042 175H563.506L560.604 165.413H562.214L564.199 172.622C564.262 172.84 564.305 173.128 564.33 173.483H564.405C564.424 173.209 564.48 172.915 564.574 172.603L566.783 165.413H568.187L570.172 172.641C570.235 172.872 570.281 173.159 570.313 173.502H570.388C570.4 173.259 570.453 172.972 570.547 172.641L572.494 165.413H574.011ZM587.914 175H586.378V173.502H586.341C585.673 174.65 584.69 175.225 583.392 175.225C582.437 175.225 581.688 174.972 581.145 174.466C580.608 173.961 580.34 173.29 580.34 172.453C580.34 170.662 581.394 169.62 583.504 169.326L586.378 168.924C586.378 167.295 585.72 166.48 584.403 166.48C583.248 166.48 582.206 166.874 581.276 167.66V166.087C582.218 165.488 583.304 165.188 584.534 165.188C586.787 165.188 587.914 166.38 587.914 168.765V175ZM586.378 170.15L584.066 170.469C583.354 170.569 582.818 170.746 582.456 171.002C582.094 171.252 581.913 171.698 581.913 172.341C581.913 172.809 582.078 173.193 582.409 173.493C582.746 173.786 583.192 173.933 583.748 173.933C584.509 173.933 585.136 173.667 585.629 173.137C586.129 172.6 586.378 171.923 586.378 171.105V170.15ZM592.38 173.614H592.342V179.41H590.807V165.413H592.342V167.098H592.38C593.135 165.825 594.24 165.188 595.694 165.188C596.93 165.188 597.894 165.619 598.587 166.48C599.28 167.335 599.626 168.484 599.626 169.926C599.626 171.53 599.236 172.815 598.456 173.783C597.675 174.744 596.608 175.225 595.254 175.225C594.012 175.225 593.054 174.688 592.38 173.614ZM592.342 169.748V171.087C592.342 171.879 592.598 172.553 593.11 173.109C593.628 173.658 594.283 173.933 595.076 173.933C596.006 173.933 596.733 173.577 597.257 172.865C597.788 172.154 598.053 171.165 598.053 169.898C598.053 168.83 597.807 167.994 597.313 167.388C596.82 166.783 596.153 166.48 595.31 166.48C594.417 166.48 593.7 166.792 593.157 167.417C592.614 168.034 592.342 168.812 592.342 169.748ZM603.652 173.614H603.614V179.41H602.079V165.413H603.614V167.098H603.652C604.407 165.825 605.512 165.188 606.966 165.188C608.202 165.188 609.166 165.619 609.859 166.48C610.552 167.335 610.898 168.484 610.898 169.926C610.898 171.53 610.508 172.815 609.728 173.783C608.948 174.744 607.88 175.225 606.526 175.225C605.284 175.225 604.326 174.688 603.652 173.614ZM603.614 169.748V171.087C603.614 171.879 603.87 172.553 604.382 173.109C604.9 173.658 605.555 173.933 606.348 173.933C607.278 173.933 608.005 173.577 608.529 172.865C609.06 172.154 609.325 171.165 609.325 169.898C609.325 168.83 609.079 167.994 608.586 167.388C608.093 166.783 607.425 166.48 606.582 166.48C605.69 166.48 604.972 166.792 604.429 167.417C603.886 168.034 603.614 168.812 603.614 169.748ZM618.032 174.654V173.006C618.869 173.624 619.789 173.933 620.794 173.933C622.142 173.933 622.816 173.483 622.816 172.585C622.816 172.329 622.757 172.113 622.638 171.939C622.526 171.758 622.37 171.598 622.17 171.461C621.977 171.324 621.746 171.202 621.477 171.096C621.215 170.984 620.931 170.868 620.625 170.75C620.201 170.581 619.827 170.412 619.502 170.244C619.184 170.069 618.915 169.876 618.697 169.664C618.485 169.445 618.322 169.199 618.21 168.924C618.104 168.649 618.051 168.328 618.051 167.96C618.051 167.51 618.154 167.114 618.36 166.771C618.566 166.421 618.84 166.131 619.184 165.9C619.527 165.663 619.917 165.485 620.354 165.366C620.797 165.248 621.253 165.188 621.721 165.188C622.551 165.188 623.294 165.332 623.949 165.619V167.173C623.244 166.711 622.432 166.48 621.515 166.48C621.228 166.48 620.969 166.515 620.738 166.583C620.507 166.646 620.307 166.736 620.139 166.855C619.976 166.973 619.848 167.117 619.755 167.285C619.667 167.448 619.624 167.629 619.624 167.829C619.624 168.078 619.667 168.287 619.755 168.456C619.848 168.624 619.983 168.774 620.157 168.905C620.332 169.036 620.544 169.155 620.794 169.261C621.044 169.367 621.328 169.483 621.646 169.607C622.07 169.77 622.451 169.938 622.788 170.113C623.125 170.281 623.412 170.475 623.65 170.693C623.887 170.906 624.068 171.152 624.193 171.433C624.324 171.714 624.389 172.048 624.389 172.435C624.389 172.909 624.283 173.321 624.071 173.671C623.865 174.02 623.587 174.31 623.238 174.541C622.888 174.772 622.485 174.944 622.03 175.056C621.574 175.169 621.097 175.225 620.597 175.225C619.611 175.225 618.756 175.034 618.032 174.654ZM633.293 174.56C632.556 175.003 631.682 175.225 630.671 175.225C629.304 175.225 628.2 174.782 627.357 173.895C626.521 173.003 626.102 171.848 626.102 170.431C626.102 168.852 626.555 167.585 627.46 166.63C628.365 165.669 629.573 165.188 631.083 165.188C631.926 165.188 632.668 165.344 633.311 165.656V167.229C632.6 166.73 631.838 166.48 631.027 166.48C630.047 166.48 629.242 166.833 628.611 167.538C627.987 168.237 627.675 169.158 627.675 170.3C627.675 171.424 627.969 172.31 628.555 172.959C629.148 173.608 629.941 173.933 630.933 173.933C631.77 173.933 632.556 173.655 633.293 173.099V174.56ZM640.614 166.967C640.346 166.761 639.959 166.658 639.453 166.658C638.798 166.658 638.248 166.967 637.805 167.585C637.368 168.203 637.15 169.046 637.15 170.113V175H635.614V165.413H637.15V167.388H637.187C637.406 166.714 637.74 166.19 638.189 165.816C638.638 165.435 639.141 165.245 639.696 165.245C640.096 165.245 640.402 165.288 640.614 165.376V166.967ZM649.986 170.59H643.217C643.242 171.658 643.529 172.482 644.078 173.062C644.627 173.642 645.382 173.933 646.344 173.933C647.423 173.933 648.416 173.577 649.321 172.865V174.307C648.478 174.919 647.364 175.225 645.979 175.225C644.624 175.225 643.56 174.791 642.786 173.923C642.012 173.05 641.625 171.823 641.625 170.244C641.625 168.752 642.046 167.538 642.889 166.602C643.738 165.66 644.789 165.188 646.044 165.188C647.299 165.188 648.269 165.594 648.956 166.405C649.642 167.217 649.986 168.343 649.986 169.785V170.59ZM648.413 169.289C648.406 168.403 648.191 167.713 647.767 167.22C647.349 166.727 646.765 166.48 646.016 166.48C645.292 166.48 644.677 166.739 644.172 167.257C643.666 167.775 643.354 168.453 643.235 169.289H648.413ZM660.022 170.59H653.253C653.278 171.658 653.565 172.482 654.114 173.062C654.664 173.642 655.419 173.933 656.38 173.933C657.46 173.933 658.452 173.577 659.357 172.865V174.307C658.515 174.919 657.4 175.225 656.015 175.225C654.66 175.225 653.596 174.791 652.822 173.923C652.048 173.05 651.661 171.823 651.661 170.244C651.661 168.752 652.083 167.538 652.925 166.602C653.774 165.66 654.826 165.188 656.08 165.188C657.335 165.188 658.305 165.594 658.992 166.405C659.679 167.217 660.022 168.343 660.022 169.785V170.59ZM658.449 169.289C658.443 168.403 658.227 167.713 657.803 167.22C657.385 166.727 656.801 166.48 656.052 166.48C655.328 166.48 654.713 166.739 654.208 167.257C653.702 167.775 653.39 168.453 653.272 169.289H658.449ZM670.311 175H668.776V169.532C668.776 167.498 668.033 166.48 666.547 166.48C665.78 166.48 665.143 166.771 664.637 167.351C664.138 167.925 663.889 168.652 663.889 169.532V175H662.353V165.413H663.889V167.005H663.926C664.65 165.794 665.699 165.188 667.072 165.188C668.12 165.188 668.922 165.529 669.478 166.209C670.033 166.883 670.311 167.86 670.311 169.139V175Z" fill="black"/>
<path d="M537.065 205.195C537.065 202.878 538.944 201 541.261 201H615.041C617.358 201 619.236 202.878 619.236 205.195V230.366C619.236 232.683 617.358 234.561 615.041 234.561H541.261C538.944 234.561 537.065 232.683 537.065 230.366V205.195Z" fill="#0F6CBD"/>
<path d="M565.156 223.416C563.675 223.416 562.487 222.936 561.593 221.975C560.704 221.014 560.26 219.764 560.26 218.225C560.26 216.572 560.714 215.252 561.622 214.268C562.53 213.283 563.763 212.791 565.321 212.791C566.765 212.791 567.926 213.269 568.806 214.225C569.69 215.181 570.132 216.431 570.132 217.974C570.132 219.652 569.68 220.978 568.777 221.953C567.874 222.928 566.667 223.416 565.156 223.416ZM565.235 214.289C564.294 214.289 563.527 214.641 562.934 215.343C562.346 216.046 562.052 216.971 562.052 218.118C562.052 219.26 562.339 220.18 562.912 220.878C563.486 221.576 564.236 221.925 565.164 221.925C566.148 221.925 566.925 221.593 567.494 220.928C568.062 220.264 568.347 219.334 568.347 218.139C568.347 216.911 568.07 215.962 567.515 215.293C566.966 214.624 566.206 214.289 565.235 214.289ZM573.523 222.161H573.494V226.621H571.831V215.902H573.494V217.193H573.523C574.092 216.218 574.924 215.73 576.018 215.73C576.95 215.73 577.677 216.058 578.198 216.713C578.719 217.367 578.979 218.247 578.979 219.351C578.979 220.574 578.685 221.554 578.097 222.29C577.509 223.026 576.706 223.394 575.688 223.394C574.752 223.394 574.03 222.983 573.523 222.161ZM573.48 219.265V220.175C573.48 220.711 573.65 221.165 573.989 221.538C574.333 221.91 574.768 222.097 575.294 222.097C575.911 222.097 576.393 221.858 576.742 221.38C577.096 220.897 577.273 220.226 577.273 219.365C577.273 218.644 577.108 218.08 576.778 217.673C576.453 217.262 576.011 217.057 575.452 217.057C574.859 217.057 574.381 217.267 574.018 217.688C573.659 218.108 573.48 218.634 573.48 219.265ZM586.894 220.025H581.89C581.909 220.704 582.117 221.227 582.514 221.595C582.915 221.963 583.465 222.147 584.163 222.147C584.946 222.147 585.666 221.913 586.321 221.444V222.785C585.651 223.206 584.767 223.416 583.668 223.416C582.588 223.416 581.739 223.084 581.123 222.419C580.511 221.75 580.205 220.811 580.205 219.602C580.205 218.46 580.542 217.53 581.216 216.813C581.895 216.091 582.736 215.73 583.74 215.73C584.743 215.73 585.52 216.053 586.07 216.698C586.619 217.343 586.894 218.24 586.894 219.387V220.025ZM585.288 218.849C585.283 218.252 585.142 217.788 584.865 217.458C584.588 217.124 584.206 216.956 583.718 216.956C583.24 216.956 582.834 217.131 582.499 217.48C582.169 217.829 581.966 218.285 581.89 218.849H585.288ZM595.017 223.244H593.354V219.107C593.354 217.735 592.869 217.05 591.898 217.05C591.392 217.05 590.973 217.241 590.644 217.623C590.314 218.001 590.149 218.479 590.149 219.057V223.244H588.479V215.902H590.149V217.121H590.178C590.727 216.194 591.521 215.73 592.558 215.73C593.356 215.73 593.966 215.991 594.386 216.512C594.807 217.028 595.017 217.776 595.017 218.756V223.244Z" fill="white"/>
<path d="M871.796 177.082C870.448 177.844 868.95 178.225 867.303 178.225C865.386 178.225 863.835 177.607 862.65 176.371C861.47 175.135 860.88 173.5 860.88 171.465C860.88 169.387 861.535 167.683 862.846 166.353C864.163 165.018 865.83 164.35 867.846 164.35C869.306 164.35 870.533 164.587 871.525 165.061V166.803C870.439 166.116 869.153 165.773 867.668 165.773C866.163 165.773 864.931 166.291 863.97 167.327C863.008 168.363 862.528 169.705 862.528 171.353C862.528 173.05 862.974 174.386 863.867 175.36C864.759 176.327 865.97 176.811 867.499 176.811C868.548 176.811 869.456 176.602 870.224 176.184V172.42H867.284V170.997H871.796V177.082ZM878.725 178.225C877.308 178.225 876.175 177.778 875.326 176.886C874.483 175.987 874.062 174.798 874.062 173.319C874.062 171.709 874.502 170.451 875.382 169.546C876.262 168.641 877.451 168.188 878.949 168.188C880.379 168.188 881.493 168.628 882.292 169.508C883.097 170.388 883.499 171.609 883.499 173.169C883.499 174.698 883.065 175.925 882.198 176.848C881.337 177.766 880.179 178.225 878.725 178.225ZM878.837 169.48C877.851 169.48 877.071 169.817 876.496 170.491C875.922 171.159 875.635 172.083 875.635 173.263C875.635 174.399 875.925 175.294 876.506 175.95C877.086 176.605 877.863 176.933 878.837 176.933C879.829 176.933 880.591 176.611 881.121 175.968C881.658 175.326 881.926 174.411 881.926 173.225C881.926 172.027 881.658 171.103 881.121 170.454C880.591 169.805 879.829 169.48 878.837 169.48ZM895.661 177.906C895.299 178.106 894.821 178.206 894.228 178.206C892.549 178.206 891.71 177.27 891.71 175.397V169.724H890.062V168.413H891.71V166.072L893.245 165.576V168.413H895.661V169.724H893.245V175.126C893.245 175.769 893.355 176.227 893.573 176.502C893.792 176.777 894.154 176.914 894.659 176.914C895.046 176.914 895.38 176.808 895.661 176.596V177.906ZM901.718 178.225C900.301 178.225 899.169 177.778 898.32 176.886C897.477 175.987 897.056 174.798 897.056 173.319C897.056 171.709 897.496 170.451 898.376 169.546C899.256 168.641 900.445 168.188 901.943 168.188C903.372 168.188 904.486 168.628 905.285 169.508C906.09 170.388 906.493 171.609 906.493 173.169C906.493 174.698 906.059 175.925 905.192 176.848C904.33 177.766 903.173 178.225 901.718 178.225ZM901.831 169.48C900.844 169.48 900.064 169.817 899.49 170.491C898.916 171.159 898.629 172.083 898.629 173.263C898.629 174.399 898.919 175.294 899.499 175.95C900.08 176.605 900.857 176.933 901.831 176.933C902.823 176.933 903.584 176.611 904.115 175.968C904.652 175.326 904.92 174.411 904.92 173.225C904.92 172.027 904.652 171.103 904.115 170.454C903.584 169.805 902.823 169.48 901.831 169.48ZM922.165 178H920.63V172.532C920.63 170.498 919.887 169.48 918.402 169.48C917.634 169.48 916.997 169.771 916.492 170.351C915.993 170.925 915.743 171.652 915.743 172.532V178H914.208V168.413H915.743V170.005H915.78C916.504 168.794 917.553 168.188 918.926 168.188C919.975 168.188 920.777 168.529 921.332 169.209C921.888 169.883 922.165 170.86 922.165 172.139V178ZM932.773 173.59H926.004C926.029 174.658 926.316 175.482 926.865 176.062C927.415 176.642 928.17 176.933 929.131 176.933C930.211 176.933 931.203 176.577 932.108 175.865V177.307C931.266 177.919 930.151 178.225 928.766 178.225C927.411 178.225 926.347 177.791 925.573 176.923C924.799 176.05 924.412 174.823 924.412 173.244C924.412 171.752 924.834 170.538 925.676 169.602C926.525 168.66 927.577 168.188 928.831 168.188C930.086 168.188 931.056 168.594 931.743 169.405C932.43 170.217 932.773 171.343 932.773 172.785V173.59ZM931.2 172.289C931.194 171.403 930.978 170.713 930.554 170.22C930.136 169.727 929.552 169.48 928.803 169.48C928.079 169.48 927.464 169.739 926.959 170.257C926.453 170.775 926.141 171.453 926.023 172.289H931.2ZM947.181 168.413L944.307 178H942.716L940.74 171.137C940.665 170.875 940.615 170.579 940.59 170.248H940.553C940.534 170.473 940.469 170.763 940.356 171.119L938.212 178H936.677L933.775 168.413H935.385L937.37 175.622C937.432 175.84 937.476 176.128 937.501 176.483H937.576C937.594 176.209 937.651 175.915 937.744 175.603L939.954 168.413H941.358L943.343 175.641C943.405 175.872 943.452 176.159 943.483 176.502H943.558C943.571 176.259 943.624 175.972 943.717 175.641L945.665 168.413H947.181ZM953.641 177.654V176.006C954.478 176.624 955.398 176.933 956.403 176.933C957.751 176.933 958.425 176.483 958.425 175.585C958.425 175.329 958.366 175.113 958.248 174.939C958.135 174.758 957.979 174.598 957.779 174.461C957.586 174.324 957.355 174.202 957.087 174.096C956.825 173.984 956.541 173.868 956.235 173.75C955.81 173.581 955.436 173.412 955.111 173.244C954.793 173.069 954.525 172.876 954.306 172.664C954.094 172.445 953.932 172.199 953.819 171.924C953.713 171.649 953.66 171.328 953.66 170.96C953.66 170.51 953.763 170.114 953.969 169.771C954.175 169.421 954.45 169.131 954.793 168.9C955.136 168.663 955.526 168.485 955.963 168.366C956.406 168.248 956.862 168.188 957.33 168.188C958.16 168.188 958.903 168.332 959.558 168.619V170.173C958.853 169.711 958.042 169.48 957.124 169.48C956.837 169.48 956.578 169.515 956.347 169.583C956.116 169.646 955.916 169.736 955.748 169.855C955.586 169.973 955.458 170.117 955.364 170.285C955.277 170.448 955.233 170.629 955.233 170.829C955.233 171.078 955.277 171.287 955.364 171.456C955.458 171.624 955.592 171.774 955.767 171.905C955.941 172.036 956.154 172.155 956.403 172.261C956.653 172.367 956.937 172.483 957.255 172.607C957.68 172.77 958.06 172.938 958.397 173.113C958.734 173.281 959.022 173.475 959.259 173.693C959.496 173.906 959.677 174.152 959.802 174.433C959.933 174.714 959.998 175.048 959.998 175.435C959.998 175.909 959.892 176.321 959.68 176.671C959.474 177.02 959.196 177.31 958.847 177.541C958.497 177.772 958.095 177.944 957.639 178.056C957.183 178.169 956.706 178.225 956.207 178.225C955.22 178.225 954.365 178.034 953.641 177.654ZM968.902 177.56C968.165 178.003 967.292 178.225 966.28 178.225C964.914 178.225 963.809 177.782 962.966 176.895C962.13 176.003 961.712 174.848 961.712 173.431C961.712 171.852 962.164 170.585 963.069 169.63C963.974 168.669 965.182 168.188 966.692 168.188C967.535 168.188 968.278 168.344 968.921 168.656V170.229C968.209 169.73 967.448 169.48 966.636 169.48C965.656 169.48 964.851 169.833 964.221 170.538C963.597 171.237 963.284 172.158 963.284 173.3C963.284 174.424 963.578 175.31 964.165 175.959C964.757 176.608 965.55 176.933 966.543 176.933C967.379 176.933 968.165 176.655 968.902 176.099V177.56ZM976.223 169.967C975.955 169.761 975.568 169.658 975.062 169.658C974.407 169.658 973.858 169.967 973.414 170.585C972.978 171.203 972.759 172.046 972.759 173.113V178H971.224V168.413H972.759V170.388H972.797C973.015 169.714 973.349 169.19 973.798 168.816C974.248 168.435 974.75 168.245 975.306 168.245C975.705 168.245 976.011 168.288 976.223 168.376V169.967ZM985.595 173.59H978.826C978.851 174.658 979.138 175.482 979.687 176.062C980.236 176.642 980.992 176.933 981.953 176.933C983.033 176.933 984.025 176.577 984.93 175.865V177.307C984.087 177.919 982.973 178.225 981.588 178.225C980.233 178.225 979.169 177.791 978.395 176.923C977.621 176.05 977.234 174.823 977.234 173.244C977.234 171.752 977.656 170.538 978.498 169.602C979.347 168.66 980.399 168.188 981.653 168.188C982.908 168.188 983.878 168.594 984.565 169.405C985.251 170.217 985.595 171.343 985.595 172.785V173.59ZM984.022 172.289C984.016 171.403 983.8 170.713 983.376 170.22C982.958 169.727 982.374 169.48 981.625 169.48C980.901 169.48 980.286 169.739 979.781 170.257C979.275 170.775 978.963 171.453 978.845 172.289H984.022ZM995.631 173.59H988.862C988.887 174.658 989.174 175.482 989.724 176.062C990.273 176.642 991.028 176.933 991.989 176.933C993.069 176.933 994.061 176.577 994.966 175.865V177.307C994.124 177.919 993.01 178.225 991.624 178.225C990.27 178.225 989.205 177.791 988.432 176.923C987.658 176.05 987.271 174.823 987.271 173.244C987.271 171.752 987.692 170.538 988.535 169.602C989.383 168.66 990.435 168.188 991.69 168.188C992.944 168.188 993.915 168.594 994.601 169.405C995.288 170.217 995.631 171.343 995.631 172.785V173.59ZM994.058 172.289C994.052 171.403 993.837 170.713 993.412 170.22C992.994 169.727 992.41 169.48 991.661 169.48C990.937 169.48 990.323 169.739 989.817 170.257C989.312 170.775 988.999 171.453 988.881 172.289H994.058ZM1005.92 178H1004.38V172.532C1004.38 170.498 1003.64 169.48 1002.16 169.48C1001.39 169.48 1000.75 169.771 1000.25 170.351C999.747 170.925 999.498 171.652 999.498 172.532V178H997.962V168.413H999.498V170.005H999.535C1000.26 168.794 1001.31 168.188 1002.68 168.188C1003.73 168.188 1004.53 168.529 1005.09 169.209C1005.64 169.883 1005.92 170.86 1005.92 172.139V178Z" fill="#0064C1"/>
<path d="M1045.93 174L1034.9 185.027L1033.85 183.973L1043.07 174.75H1022V173.25H1043.07L1033.85 164.027L1034.9 162.973L1045.93 174Z" fill="#0064C1"/>
<rect x="536" y="113" width="204" height="26" fill="#C4C4C4"/>
<rect x="536" y="15" width="204" height="84" fill="#C4C4C4"/>
<rect x="860" y="113" width="204" height="26" fill="#C4C4C4"/>
<rect x="860" y="15" width="204" height="84" fill="#C4C4C4"/>
</svg>
