<svg width="1600" height="250" viewBox="0 0 1600 250" fill="none" xmlns="http://www.w3.org/2000/svg">
<rect x="0.5" y="0.5" width="1599" height="249" fill="#EDEDED" stroke="#C8C8C8"/>
<path d="M590.915 203.195C590.915 200.878 592.793 199 595.11 199H730.891C733.208 199 735.086 200.878 735.086 203.195V228.366C735.086 230.683 733.208 232.561 730.891 232.561H595.11C592.793 232.561 590.915 230.683 590.915 228.366V203.195Z" fill="#0F6CBD"/>
<path d="M611.938 220.814C611.164 221.215 610.201 221.416 609.049 221.416C607.558 221.416 606.363 220.945 605.464 220.004C604.566 219.062 604.117 217.826 604.117 216.297C604.117 214.653 604.621 213.324 605.629 212.311C606.643 211.298 607.921 210.791 609.465 210.791C610.459 210.791 611.284 210.932 611.938 211.214V212.906C611.245 212.495 610.481 212.289 609.644 212.289C608.531 212.289 607.627 212.645 606.934 213.358C606.246 214.07 605.902 215.021 605.902 216.211C605.902 217.344 606.224 218.247 606.87 218.921C607.515 219.59 608.363 219.925 609.415 219.925C610.385 219.925 611.226 219.695 611.938 219.236V220.814ZM616.957 221.416C615.824 221.416 614.918 221.074 614.24 220.391C613.566 219.702 613.229 218.792 613.229 217.659C613.229 216.426 613.58 215.463 614.283 214.77C614.99 214.077 615.941 213.73 617.136 213.73C618.283 213.73 619.177 214.067 619.818 214.741C620.458 215.415 620.778 216.35 620.778 217.544C620.778 218.715 620.432 219.655 619.739 220.362C619.05 221.065 618.123 221.416 616.957 221.416ZM617.036 215.057C616.386 215.057 615.872 215.284 615.494 215.738C615.117 216.192 614.928 216.818 614.928 217.616C614.928 218.386 615.119 218.993 615.502 219.437C615.884 219.877 616.395 220.097 617.036 220.097C617.691 220.097 618.192 219.879 618.541 219.444C618.895 219.009 619.072 218.39 619.072 217.588C619.072 216.78 618.895 216.156 618.541 215.716C618.192 215.277 617.691 215.057 617.036 215.057ZM629.016 221.244H627.353V217.107C627.353 215.735 626.867 215.05 625.897 215.05C625.391 215.05 624.972 215.241 624.643 215.623C624.313 216.001 624.148 216.479 624.148 217.057V221.244H622.477V213.902H624.148V215.121H624.177C624.726 214.194 625.52 213.73 626.557 213.73C627.355 213.73 627.964 213.991 628.385 214.512C628.806 215.028 629.016 215.776 629.016 216.756V221.244ZM635.203 211.73C634.978 211.601 634.723 211.537 634.436 211.537C633.628 211.537 633.224 211.993 633.224 212.906V213.902H634.931V215.207H633.231V221.244H631.568V215.207H630.314V213.902H631.568V212.712C631.568 211.938 631.822 211.329 632.328 210.884C632.835 210.435 633.468 210.21 634.228 210.21C634.639 210.21 634.964 210.256 635.203 210.346V211.73ZM636.952 212.361C636.68 212.361 636.446 212.273 636.25 212.096C636.059 211.919 635.963 211.694 635.963 211.422C635.963 211.149 636.059 210.922 636.25 210.741C636.446 210.559 636.68 210.468 636.952 210.468C637.234 210.468 637.473 210.559 637.669 210.741C637.865 210.922 637.963 211.149 637.963 211.422C637.963 211.68 637.865 211.902 637.669 212.089C637.473 212.27 637.234 212.361 636.952 212.361ZM637.777 221.244H636.114V213.902H637.777V221.244ZM644.215 215.487C644.014 215.329 643.725 215.25 643.348 215.25C642.855 215.25 642.444 215.473 642.114 215.917C641.785 216.362 641.62 216.966 641.62 217.731V221.244H639.956V213.902H641.62V215.415H641.648C641.811 214.899 642.059 214.497 642.394 214.211C642.733 213.919 643.111 213.773 643.527 213.773C643.828 213.773 644.057 213.819 644.215 213.91V215.487ZM656.367 221.244H654.704V217.243C654.704 216.474 654.594 215.917 654.374 215.573C654.159 215.229 653.793 215.057 653.277 215.057C652.842 215.057 652.472 215.274 652.166 215.709C651.865 216.144 651.714 216.665 651.714 217.272V221.244H650.044V217.107C650.044 215.74 649.561 215.057 648.596 215.057C648.146 215.057 647.776 215.262 647.484 215.673C647.197 216.084 647.054 216.617 647.054 217.272V221.244H645.391V213.902H647.054V215.064H647.083C647.613 214.175 648.385 213.73 649.398 213.73C649.905 213.73 650.347 213.871 650.725 214.153C651.107 214.431 651.368 214.796 651.506 215.25C652.051 214.237 652.864 213.73 653.944 213.73C655.559 213.73 656.367 214.727 656.367 216.72V221.244ZM668.075 221.244H666.462V220.097H666.433C665.926 220.976 665.183 221.416 664.203 221.416C663.482 221.416 662.915 221.22 662.504 220.828C662.098 220.436 661.895 219.918 661.895 219.272C661.895 217.886 662.693 217.078 664.289 216.849L666.469 216.541C666.469 215.494 665.972 214.971 664.978 214.971C664.103 214.971 663.314 215.272 662.612 215.874V214.419C663.386 213.96 664.28 213.73 665.293 213.73C667.148 213.73 668.075 214.643 668.075 216.469V221.244ZM666.469 217.638L664.927 217.853C664.449 217.915 664.089 218.032 663.845 218.204C663.606 218.371 663.486 218.668 663.486 219.093C663.486 219.404 663.596 219.659 663.816 219.86C664.041 220.056 664.34 220.154 664.712 220.154C665.219 220.154 665.637 219.977 665.967 219.624C666.302 219.265 666.469 218.816 666.469 218.276V217.638ZM676.649 221.244H674.986V217.107C674.986 215.735 674.501 215.05 673.531 215.05C673.024 215.05 672.606 215.241 672.276 215.623C671.946 216.001 671.781 216.479 671.781 217.057V221.244H670.111V213.902H671.781V215.121H671.81C672.36 214.194 673.153 213.73 674.19 213.73C674.988 213.73 675.598 213.991 676.018 214.512C676.439 215.028 676.649 215.776 676.649 216.756V221.244ZM685.36 221.244H683.697V219.996H683.668C683.133 220.943 682.308 221.416 681.195 221.416C680.291 221.416 679.567 221.089 679.022 220.434C678.482 219.774 678.212 218.878 678.212 217.745C678.212 216.531 678.511 215.559 679.108 214.827C679.711 214.096 680.511 213.73 681.51 213.73C682.5 213.73 683.219 214.127 683.668 214.92H683.697V210.375H685.36V221.244ZM683.718 217.889V216.928C683.718 216.407 683.549 215.965 683.209 215.602C682.87 215.238 682.437 215.057 681.912 215.057C681.29 215.057 680.8 215.289 680.442 215.752C680.088 216.216 679.911 216.859 679.911 217.681C679.911 218.426 680.081 219.017 680.42 219.452C680.765 219.882 681.226 220.097 681.804 220.097C682.373 220.097 682.834 219.889 683.188 219.473C683.542 219.052 683.718 218.524 683.718 217.889ZM691.117 221.014V219.473C691.739 219.946 692.424 220.183 693.175 220.183C694.179 220.183 694.68 219.886 694.68 219.294C694.68 219.127 694.637 218.986 694.551 218.871C694.465 218.751 694.348 218.646 694.2 218.555C694.057 218.465 693.885 218.383 693.684 218.312C693.488 218.24 693.268 218.159 693.024 218.068C692.723 217.948 692.451 217.822 692.207 217.688C691.968 217.554 691.767 217.403 691.605 217.236C691.447 217.064 691.328 216.871 691.246 216.655C691.165 216.44 691.124 216.189 691.124 215.903C691.124 215.549 691.208 215.238 691.375 214.971C691.543 214.698 691.767 214.471 692.049 214.29C692.331 214.103 692.651 213.965 693.01 213.874C693.368 213.778 693.739 213.73 694.121 213.73C694.8 213.73 695.407 213.833 695.942 214.039V215.494C695.426 215.14 694.833 214.964 694.164 214.964C693.954 214.964 693.763 214.985 693.591 215.028C693.423 215.071 693.28 215.131 693.16 215.207C693.041 215.284 692.948 215.377 692.881 215.487C692.814 215.592 692.781 215.709 692.781 215.838C692.781 215.996 692.814 216.13 692.881 216.24C692.948 216.35 693.046 216.448 693.175 216.534C693.309 216.615 693.466 216.691 693.648 216.763C693.834 216.83 694.047 216.904 694.286 216.985C694.602 217.114 694.884 217.246 695.132 217.38C695.385 217.513 695.6 217.666 695.777 217.838C695.954 218.006 696.09 218.202 696.186 218.426C696.282 218.646 696.329 218.909 696.329 219.215C696.329 219.588 696.243 219.913 696.071 220.19C695.899 220.467 695.67 220.697 695.383 220.878C695.096 221.06 694.764 221.194 694.386 221.28C694.014 221.371 693.619 221.416 693.204 221.416C692.401 221.416 691.705 221.282 691.117 221.014ZM704.13 218.025H699.125C699.145 218.704 699.352 219.227 699.749 219.595C700.151 219.963 700.7 220.147 701.398 220.147C702.182 220.147 702.901 219.913 703.556 219.444V220.785C702.887 221.206 702.003 221.416 700.903 221.416C699.823 221.416 698.975 221.084 698.358 220.419C697.747 219.75 697.441 218.811 697.441 217.602C697.441 216.46 697.778 215.53 698.452 214.813C699.13 214.091 699.971 213.73 700.975 213.73C701.979 213.73 702.756 214.053 703.305 214.698C703.855 215.343 704.13 216.24 704.13 217.387V218.025ZM702.524 216.849C702.519 216.252 702.378 215.788 702.101 215.458C701.824 215.124 701.441 214.956 700.954 214.956C700.476 214.956 700.069 215.131 699.735 215.48C699.405 215.829 699.202 216.285 699.125 216.849H702.524ZM712.253 221.244H710.589V217.107C710.589 215.735 710.104 215.05 709.134 215.05C708.627 215.05 708.209 215.241 707.879 215.623C707.549 216.001 707.385 216.479 707.385 217.057V221.244H705.714V213.902H707.385V215.121H707.413C707.963 214.194 708.756 213.73 709.793 213.73C710.592 213.73 711.201 213.991 711.622 214.512C712.042 215.028 712.253 215.776 712.253 216.756V221.244ZM720.963 221.244H719.3V219.996H719.271C718.736 220.943 717.912 221.416 716.798 221.416C715.895 221.416 715.171 221.089 714.626 220.434C714.086 219.774 713.816 218.878 713.816 217.745C713.816 216.531 714.114 215.559 714.712 214.827C715.314 214.096 716.115 213.73 717.113 213.73C718.103 213.73 718.822 214.127 719.271 214.92H719.3V210.375H720.963V221.244ZM719.322 217.889V216.928C719.322 216.407 719.152 215.965 718.813 215.602C718.473 215.238 718.041 215.057 717.515 215.057C716.894 215.057 716.404 215.289 716.045 215.752C715.692 216.216 715.515 216.859 715.515 217.681C715.515 218.426 715.684 219.017 716.024 219.452C716.368 219.882 716.829 220.097 717.407 220.097C717.976 220.097 718.437 219.889 718.791 219.473C719.145 219.052 719.322 218.524 719.322 217.889Z" fill="white"/>
<rect x="590" y="162" width="204" height="26" fill="#C4C4C4"/>
<rect x="590" y="65" width="204" height="28" fill="#C4C4C4"/>
<rect x="590" y="131" width="204" height="26" fill="#C4C4C4"/>
<rect x="590" y="98" width="204" height="28" fill="#C4C4C4"/>
<path d="M600.898 38.4383C599.905 38.9626 598.669 39.2247 597.19 39.2247C595.28 39.2247 593.751 38.6099 592.603 37.3803C591.454 36.1508 590.88 34.5373 590.88 32.54C590.88 30.393 591.526 28.6578 592.818 27.3346C594.11 26.0114 595.748 25.3498 597.733 25.3498C599.006 25.3498 600.061 25.5339 600.898 25.9022V27.578C599.936 27.0413 598.875 26.7729 597.715 26.7729C596.173 26.7729 594.921 27.2878 593.96 28.3177C593.005 29.3475 592.528 30.7238 592.528 32.4464C592.528 34.0817 592.974 35.3862 593.867 36.3598C594.765 37.3273 595.942 37.811 597.396 37.811C598.744 37.811 599.912 37.5114 600.898 36.9122V38.4383ZM611.383 39H609.848V33.4763C609.848 31.479 609.105 30.4803 607.62 30.4803C606.871 30.4803 606.24 30.7706 605.729 31.351C605.217 31.9253 604.961 32.6649 604.961 33.5699V39H603.425V24.8068H604.961V31.0046H604.998C605.735 29.7938 606.783 29.1883 608.144 29.1883C610.304 29.1883 611.383 30.4897 611.383 33.0924V39ZM621.991 34.5904H615.222C615.247 35.6577 615.534 36.4816 616.083 37.062C616.633 37.6425 617.388 37.9327 618.349 37.9327C619.429 37.9327 620.421 37.5769 621.326 36.8654V38.3072C620.484 38.9189 619.369 39.2247 617.984 39.2247C616.629 39.2247 615.565 38.7909 614.791 37.9233C614.017 37.0495 613.63 35.8231 613.63 34.244C613.63 32.7523 614.052 31.5383 614.894 30.6021C615.743 29.6596 616.795 29.1883 618.049 29.1883C619.304 29.1883 620.274 29.594 620.961 30.4054C621.648 31.2168 621.991 32.3434 621.991 33.7852V34.5904ZM620.418 33.289C620.412 32.4027 620.196 31.713 619.772 31.22C619.354 30.7269 618.77 30.4803 618.021 30.4803C617.297 30.4803 616.682 30.7394 616.177 31.2574C615.671 31.7755 615.359 32.4527 615.241 33.289H620.418ZM630.857 38.56C630.12 39.0031 629.247 39.2247 628.235 39.2247C626.869 39.2247 625.764 38.7815 624.921 37.8953C624.085 37.0027 623.667 35.848 623.667 34.4312C623.667 32.8521 624.119 31.5851 625.024 30.6301C625.929 29.6689 627.137 29.1883 628.647 29.1883C629.49 29.1883 630.233 29.3444 630.876 29.6565V31.2293C630.164 30.73 629.403 30.4803 628.591 30.4803C627.611 30.4803 626.806 30.833 626.176 31.5383C625.552 32.2373 625.24 33.1579 625.24 34.3001C625.24 35.4236 625.533 36.3099 626.12 36.959C626.713 37.6081 627.505 37.9327 628.498 37.9327C629.334 37.9327 630.12 37.655 630.857 37.0995V38.56ZM641.137 39H638.983L634.752 34.3938H634.714V39H633.179V24.8068H634.714V33.8039H634.752L638.777 29.413H640.79L636.343 34.038L641.137 39ZM648.758 26.9789C648.483 26.9789 648.249 26.8852 648.055 26.698C647.862 26.5107 647.765 26.2736 647.765 25.9865C647.765 25.6993 647.862 25.4622 648.055 25.2749C648.249 25.0814 648.483 24.9847 648.758 24.9847C649.038 24.9847 649.276 25.0814 649.469 25.2749C649.669 25.4622 649.769 25.6993 649.769 25.9865C649.769 26.2611 649.669 26.4951 649.469 26.6886C649.276 26.8821 649.038 26.9789 648.758 26.9789ZM649.507 39H647.971V29.413H649.507V39ZM660.573 39H659.037V33.5324C659.037 31.4977 658.295 30.4803 656.809 30.4803C656.041 30.4803 655.405 30.7706 654.899 31.351C654.4 31.9253 654.15 32.6524 654.15 33.5324V39H652.615V29.413H654.15V31.0046H654.188C654.912 29.7938 655.96 29.1883 657.333 29.1883C658.382 29.1883 659.184 29.5285 659.739 30.2088C660.295 30.8829 660.573 31.8597 660.573 33.1392V39ZM668.212 26.155C667.913 25.9865 667.573 25.9022 667.192 25.9022C666.118 25.9022 665.582 26.5794 665.582 27.9338V29.413H667.828V30.7238H665.582V39H664.056V30.7238H662.417V29.413H664.056V27.8589C664.056 26.854 664.346 26.0614 664.926 25.4809C665.507 24.8942 666.231 24.6008 667.098 24.6008C667.566 24.6008 667.938 24.657 668.212 24.7694V26.155ZM673.493 39.2247C672.076 39.2247 670.943 38.7784 670.094 37.8859C669.252 36.9871 668.83 35.7981 668.83 34.3189C668.83 32.7086 669.27 31.4509 670.15 30.5459C671.03 29.6409 672.219 29.1883 673.717 29.1883C675.147 29.1883 676.261 29.6284 677.06 30.5084C677.865 31.3885 678.267 32.6087 678.267 34.1691C678.267 35.6982 677.834 36.9247 676.966 37.8484C676.105 38.7659 674.947 39.2247 673.493 39.2247ZM673.605 30.4803C672.619 30.4803 671.839 30.8174 671.264 31.4915C670.69 32.1593 670.403 33.083 670.403 34.2627C670.403 35.3986 670.693 36.2943 671.274 36.9497C671.854 37.605 672.631 37.9327 673.605 37.9327C674.597 37.9327 675.359 37.6113 675.889 36.9684C676.426 36.3255 676.695 35.4111 676.695 34.2252C676.695 33.0269 676.426 32.1031 675.889 31.454C675.359 30.8049 674.597 30.4803 673.605 30.4803ZM685.72 30.9672C685.451 30.7612 685.064 30.6582 684.559 30.6582C683.903 30.6582 683.354 30.9672 682.911 31.5851C682.474 32.203 682.256 33.0456 682.256 34.1129V39H680.72V29.413H682.256V31.3885H682.293C682.512 30.7144 682.846 30.1901 683.295 29.8156C683.744 29.4349 684.247 29.2445 684.802 29.2445C685.202 29.2445 685.508 29.2882 685.72 29.3756V30.9672ZM700.999 39H699.464V33.495C699.464 32.4339 699.298 31.6662 698.967 31.1919C698.643 30.7175 698.094 30.4803 697.32 30.4803C696.664 30.4803 696.106 30.7799 695.644 31.3791C695.188 31.9783 694.96 32.6961 694.96 33.5324V39H693.425V33.3077C693.425 31.4228 692.698 30.4803 691.244 30.4803C690.569 30.4803 690.014 30.7643 689.577 31.3323C689.14 31.894 688.922 32.6274 688.922 33.5324V39H687.386V29.413H688.922V30.9297H688.959C689.639 29.7688 690.632 29.1883 691.936 29.1883C692.592 29.1883 693.163 29.3725 693.65 29.7407C694.136 30.1027 694.47 30.5802 694.651 31.1731C695.363 29.8499 696.424 29.1883 697.835 29.1883C699.944 29.1883 700.999 30.4897 700.999 33.0924V39ZM710.764 39H709.228V37.502H709.191C708.523 38.6505 707.54 39.2247 706.242 39.2247C705.287 39.2247 704.538 38.9719 703.995 38.4664C703.458 37.9608 703.19 37.2898 703.19 36.4535C703.19 34.6622 704.245 33.6198 706.354 33.3265L709.228 32.9239C709.228 31.2949 708.57 30.4803 707.253 30.4803C706.098 30.4803 705.056 30.8736 704.126 31.66V30.0871C705.068 29.4879 706.154 29.1883 707.384 29.1883C709.637 29.1883 710.764 30.3805 710.764 32.7647V39ZM709.228 34.1503L706.916 34.4687C706.204 34.5685 705.668 34.7464 705.306 35.0023C704.944 35.252 704.763 35.6982 704.763 36.3411C704.763 36.8092 704.928 37.1931 705.259 37.4927C705.596 37.786 706.042 37.9327 706.598 37.9327C707.359 37.9327 707.986 37.6674 708.479 37.1369C708.979 36.6001 709.228 35.9229 709.228 35.1053V34.1503ZM718.104 38.9064C717.742 39.1061 717.264 39.206 716.671 39.206C714.992 39.206 714.153 38.2697 714.153 36.3973V30.7238H712.505V29.413H714.153V27.0725L715.688 26.5763V29.413H718.104V30.7238H715.688V36.1258C715.688 36.7687 715.798 37.2274 716.016 37.502C716.235 37.7767 716.597 37.914 717.102 37.914C717.489 37.914 717.823 37.8079 718.104 37.5957V38.9064ZM720.941 26.9789C720.666 26.9789 720.432 26.8852 720.238 26.698C720.045 26.5107 719.948 26.2736 719.948 25.9865C719.948 25.6993 720.045 25.4622 720.238 25.2749C720.432 25.0814 720.666 24.9847 720.941 24.9847C721.221 24.9847 721.459 25.0814 721.652 25.2749C721.852 25.4622 721.952 25.6993 721.952 25.9865C721.952 26.2611 721.852 26.4951 721.652 26.6886C721.459 26.8821 721.221 26.9789 720.941 26.9789ZM721.69 39H720.154V29.413H721.69V39ZM728.805 39.2247C727.388 39.2247 726.255 38.7784 725.406 37.8859C724.564 36.9871 724.143 35.7981 724.143 34.3189C724.143 32.7086 724.583 31.4509 725.463 30.5459C726.343 29.6409 727.532 29.1883 729.03 29.1883C730.459 29.1883 731.573 29.6284 732.372 30.5084C733.177 31.3885 733.58 32.6087 733.58 34.1691C733.58 35.6982 733.146 36.9247 732.278 37.8484C731.417 38.7659 730.259 39.2247 728.805 39.2247ZM728.917 30.4803C727.931 30.4803 727.151 30.8174 726.577 31.4915C726.002 32.1593 725.715 33.083 725.715 34.2627C725.715 35.3986 726.006 36.2943 726.586 36.9497C727.167 37.605 727.944 37.9327 728.917 37.9327C729.91 37.9327 730.671 37.6113 731.202 36.9684C731.738 36.3255 732.007 35.4111 732.007 34.2252C732.007 33.0269 731.738 32.1031 731.202 31.454C730.671 30.8049 729.91 30.4803 728.917 30.4803ZM743.99 39H742.455V33.5324C742.455 31.4977 741.712 30.4803 740.227 30.4803C739.459 30.4803 738.823 30.7706 738.317 31.351C737.818 31.9253 737.568 32.6524 737.568 33.5324V39H736.033V29.413H737.568V31.0046H737.605C738.329 29.7938 739.378 29.1883 740.751 29.1883C741.8 29.1883 742.602 29.5285 743.157 30.2088C743.713 30.8829 743.99 31.8597 743.99 33.1392V39ZM759.785 29.413L755.375 40.5354C754.589 42.5202 753.484 43.5126 752.061 43.5126C751.661 43.5126 751.327 43.472 751.059 43.3909V42.0146C751.39 42.127 751.693 42.1832 751.967 42.1832C752.741 42.1832 753.322 41.7213 753.709 40.7976L754.476 38.9813L750.731 29.413H752.435L755.029 36.7905C755.06 36.8841 755.125 37.1275 755.225 37.5208H755.281C755.313 37.371 755.375 37.1338 755.469 36.8092L758.193 29.413H759.785ZM765.449 39.2247C764.032 39.2247 762.899 38.7784 762.05 37.8859C761.208 36.9871 760.786 35.7981 760.786 34.3189C760.786 32.7086 761.226 31.4509 762.106 30.5459C762.987 29.6409 764.176 29.1883 765.673 29.1883C767.103 29.1883 768.217 29.6284 769.016 30.5084C769.821 31.3885 770.224 32.6087 770.224 34.1691C770.224 35.6982 769.79 36.9247 768.922 37.8484C768.061 38.7659 766.903 39.2247 765.449 39.2247ZM765.561 30.4803C764.575 30.4803 763.795 30.8174 763.221 31.4915C762.646 32.1593 762.359 33.083 762.359 34.2627C762.359 35.3986 762.649 36.2943 763.23 36.9497C763.81 37.605 764.587 37.9327 765.561 37.9327C766.554 37.9327 767.315 37.6113 767.846 36.9684C768.382 36.3255 768.651 35.4111 768.651 34.2252C768.651 33.0269 768.382 32.1031 767.846 31.454C767.315 30.8049 766.554 30.4803 765.561 30.4803ZM780.428 39H778.893V37.4833H778.856C778.219 38.6442 777.233 39.2247 775.897 39.2247C773.613 39.2247 772.47 37.864 772.47 35.1427V29.413H773.997V34.8993C773.997 36.9216 774.77 37.9327 776.318 37.9327C777.067 37.9327 777.682 37.6581 778.163 37.1088C778.65 36.5533 778.893 35.8293 778.893 34.9368V29.413H780.428V39ZM796.756 39H795.221V33.4763C795.221 31.479 794.478 30.4803 792.993 30.4803C792.244 30.4803 791.613 30.7706 791.101 31.351C790.59 31.9253 790.334 32.6649 790.334 33.5699V39H788.798V24.8068H790.334V31.0046H790.371C791.108 29.7938 792.156 29.1883 793.517 29.1883C795.676 29.1883 796.756 30.4897 796.756 33.0924V39ZM806.521 39H804.986V37.502H804.948C804.28 38.6505 803.297 39.2247 801.999 39.2247C801.044 39.2247 800.295 38.9719 799.752 38.4664C799.215 37.9608 798.947 37.2898 798.947 36.4535C798.947 34.6622 800.002 33.6198 802.111 33.3265L804.986 32.9239C804.986 31.2949 804.327 30.4803 803.01 30.4803C801.856 30.4803 800.813 30.8736 799.883 31.66V30.0871C800.826 29.4879 801.912 29.1883 803.141 29.1883C805.394 29.1883 806.521 30.3805 806.521 32.7647V39ZM804.986 34.1503L802.673 34.4687C801.962 34.5685 801.425 34.7464 801.063 35.0023C800.701 35.252 800.52 35.6982 800.52 36.3411C800.52 36.8092 800.685 37.1931 801.016 37.4927C801.353 37.786 801.799 37.9327 802.355 37.9327C803.116 37.9327 803.744 37.6674 804.237 37.1369C804.736 36.6001 804.986 35.9229 804.986 35.1053V34.1503ZM816.951 29.413L813.131 39H811.623L807.991 29.413H809.676L812.11 36.3786C812.291 36.8904 812.404 37.3366 812.447 37.7174H812.485C812.547 37.2368 812.647 36.803 812.784 36.416L815.331 29.413H816.951ZM826.313 34.5904H819.544C819.569 35.6577 819.856 36.4816 820.405 37.062C820.955 37.6425 821.71 37.9327 822.671 37.9327C823.751 37.9327 824.743 37.5769 825.648 36.8654V38.3072C824.806 38.9189 823.691 39.2247 822.306 39.2247C820.951 39.2247 819.887 38.7909 819.113 37.9233C818.339 37.0495 817.952 35.8231 817.952 34.244C817.952 32.7523 818.374 31.5383 819.216 30.6021C820.065 29.6596 821.117 29.1883 822.371 29.1883C823.626 29.1883 824.596 29.594 825.283 30.4054C825.97 31.2168 826.313 32.3434 826.313 33.7852V34.5904ZM824.74 33.289C824.734 32.4027 824.518 31.713 824.094 31.22C823.676 30.7269 823.092 30.4803 822.343 30.4803C821.619 30.4803 821.004 30.7394 820.499 31.2574C819.993 31.7755 819.681 32.4527 819.563 33.289H824.74ZM841.611 34.5904H834.842C834.867 35.6577 835.154 36.4816 835.703 37.062C836.252 37.6425 837.008 37.9327 837.969 37.9327C839.049 37.9327 840.041 37.5769 840.946 36.8654V38.3072C840.103 38.9189 838.989 39.2247 837.604 39.2247C836.249 39.2247 835.185 38.7909 834.411 37.9233C833.637 37.0495 833.25 35.8231 833.25 34.244C833.25 32.7523 833.672 31.5383 834.514 30.6021C835.363 29.6596 836.415 29.1883 837.669 29.1883C838.924 29.1883 839.894 29.594 840.581 30.4054C841.268 31.2168 841.611 32.3434 841.611 33.7852V34.5904ZM840.038 33.289C840.032 32.4027 839.816 31.713 839.392 31.22C838.974 30.7269 838.39 30.4803 837.641 30.4803C836.917 30.4803 836.302 30.7394 835.797 31.2574C835.291 31.7755 834.979 32.4527 834.861 33.289H840.038ZM851.9 39H850.365V33.5324C850.365 31.4977 849.622 30.4803 848.136 30.4803C847.369 30.4803 846.732 30.7706 846.226 31.351C845.727 31.9253 845.477 32.6524 845.477 33.5324V39H843.942V29.413H845.477V31.0046H845.515C846.239 29.7938 847.287 29.1883 848.661 29.1883C849.709 29.1883 850.511 29.5285 851.067 30.2088C851.622 30.8829 851.9 31.8597 851.9 33.1392V39ZM859.249 38.9064C858.887 39.1061 858.41 39.206 857.817 39.206C856.138 39.206 855.298 38.2697 855.298 36.3973V30.7238H853.651V29.413H855.298V27.0725L856.834 26.5763V29.413H859.249V30.7238H856.834V36.1258C856.834 36.7687 856.943 37.2274 857.162 37.502C857.38 37.7767 857.742 37.914 858.248 37.914C858.635 37.914 858.968 37.8079 859.249 37.5957V38.9064ZM869.005 34.5904H862.236C862.261 35.6577 862.548 36.4816 863.097 37.062C863.646 37.6425 864.402 37.9327 865.363 37.9327C866.443 37.9327 867.435 37.5769 868.34 36.8654V38.3072C867.497 38.9189 866.383 39.2247 864.998 39.2247C863.643 39.2247 862.579 38.7909 861.805 37.9233C861.031 37.0495 860.644 35.8231 860.644 34.244C860.644 32.7523 861.066 31.5383 861.908 30.6021C862.757 29.6596 863.809 29.1883 865.063 29.1883C866.318 29.1883 867.288 29.594 867.975 30.4054C868.662 31.2168 869.005 32.3434 869.005 33.7852V34.5904ZM867.432 33.289C867.426 32.4027 867.21 31.713 866.786 31.22C866.368 30.7269 865.784 30.4803 865.035 30.4803C864.311 30.4803 863.696 30.7394 863.191 31.2574C862.685 31.7755 862.373 32.4527 862.255 33.289H867.432ZM876.335 30.9672C876.067 30.7612 875.68 30.6582 875.175 30.6582C874.519 30.6582 873.97 30.9672 873.527 31.5851C873.09 32.203 872.871 33.0456 872.871 34.1129V39H871.336V29.413H872.871V31.3885H872.909C873.127 30.7144 873.461 30.1901 873.911 29.8156C874.36 29.4349 874.862 29.2445 875.418 29.2445C875.817 29.2445 876.123 29.2882 876.335 29.3756V30.9672ZM885.707 34.5904H878.938C878.963 35.6577 879.25 36.4816 879.799 37.062C880.349 37.6425 881.104 37.9327 882.065 37.9327C883.145 37.9327 884.137 37.5769 885.042 36.8654V38.3072C884.2 38.9189 883.086 39.2247 881.7 39.2247C880.346 39.2247 879.281 38.7909 878.507 37.9233C877.734 37.0495 877.347 35.8231 877.347 34.244C877.347 32.7523 877.768 31.5383 878.61 30.6021C879.459 29.6596 880.511 29.1883 881.766 29.1883C883.02 29.1883 883.991 29.594 884.677 30.4054C885.364 31.2168 885.707 32.3434 885.707 33.7852V34.5904ZM884.134 33.289C884.128 32.4027 883.913 31.713 883.488 31.22C883.07 30.7269 882.486 30.4803 881.737 30.4803C881.013 30.4803 880.399 30.7394 879.893 31.2574C879.388 31.7755 879.075 32.4527 878.957 33.289H884.134ZM896.221 39H894.685V37.371H894.648C893.936 38.6068 892.838 39.2247 891.353 39.2247C890.148 39.2247 889.184 38.7972 888.46 37.9421C887.742 37.0807 887.383 35.9105 887.383 34.4312C887.383 32.8459 887.782 31.5757 888.581 30.6208C889.38 29.6658 890.444 29.1883 891.774 29.1883C893.091 29.1883 894.049 29.7064 894.648 30.7425H894.685V24.8068H896.221V39ZM894.685 34.6653V33.2516C894.685 32.4776 894.43 31.8223 893.918 31.2855C893.406 30.7487 892.757 30.4803 891.97 30.4803C891.034 30.4803 890.298 30.8236 889.761 31.5102C889.224 32.1968 888.956 33.1455 888.956 34.3563C888.956 35.4611 889.212 36.3349 889.723 36.9778C890.242 37.6144 890.934 37.9327 891.802 37.9327C892.657 37.9327 893.35 37.6237 893.88 37.0058C894.417 36.3879 894.685 35.6077 894.685 34.6653ZM899.863 31.2855C899.576 31.2855 899.329 31.1825 899.123 30.9765C898.923 30.7706 898.824 30.524 898.824 30.2369C898.824 29.9498 898.923 29.7064 899.123 29.5067C899.329 29.3069 899.576 29.2071 899.863 29.2071C900.156 29.2071 900.406 29.3069 900.612 29.5067C900.818 29.7064 900.921 29.9498 900.921 30.2369C900.921 30.524 900.818 30.7706 900.612 30.9765C900.406 31.1825 900.156 31.2855 899.863 31.2855ZM899.863 39.206C899.576 39.206 899.329 39.103 899.123 38.897C898.923 38.691 898.824 38.4445 898.824 38.1574C898.824 37.8703 898.923 37.6237 899.123 37.4178C899.329 37.2056 899.576 37.0995 899.863 37.0995C900.156 37.0995 900.406 37.2056 900.612 37.4178C900.818 37.6237 900.921 37.8703 900.921 38.1574C900.921 38.4445 900.818 38.691 900.612 38.897C900.406 39.103 900.156 39.206 899.863 39.206Z" fill="black"/>
<rect x="807" y="162" width="204" height="26" fill="#C4C4C4"/>
<rect x="807" y="131" width="204" height="26" fill="#C4C4C4"/>
<rect x="807" y="65" width="204" height="28" fill="#C4C4C4"/>
<rect x="807" y="98" width="204" height="28" fill="#C4C4C4"/>
</svg>
