<svg width="1600" height="250" viewBox="0 0 1600 250" fill="none" xmlns="http://www.w3.org/2000/svg">
<rect x="0.5" y="0.5" width="1599" height="249" fill="#EDEDED" stroke="#C8C8C8"/>
<rect x="567.956" y="95.9565" width="21.913" height="21.913" rx="2.73913" fill="#0F6CBD"/>
<path d="M584.069 103.085C584.482 103.474 584.5 104.124 584.111 104.537L578.29 110.7C578.099 110.902 577.835 111.018 577.558 111.022C577.28 111.026 577.013 110.917 576.817 110.721L573.735 107.639C573.334 107.238 573.334 106.588 573.735 106.187C574.137 105.786 574.787 105.786 575.188 106.187L577.522 108.521L582.617 103.126C583.007 102.714 583.657 102.695 584.069 103.085Z" fill="white"/>
<path d="M609.638 113.848H608.065V100.422H609.638V113.848ZM617.418 113.754C617.056 113.954 616.578 114.054 615.985 114.054C614.306 114.054 613.467 113.118 613.467 111.245V105.572H611.819V104.261H613.467V101.92L615.002 101.424V104.261H617.418V105.572H615.002V110.974C615.002 111.617 615.111 112.075 615.33 112.35C615.548 112.625 615.91 112.762 616.416 112.762C616.803 112.762 617.137 112.656 617.418 112.443V113.754ZM627.173 109.438H620.404C620.429 110.506 620.716 111.329 621.266 111.91C621.815 112.49 622.57 112.781 623.531 112.781C624.611 112.781 625.603 112.425 626.508 111.713V113.155C625.666 113.767 624.552 114.073 623.166 114.073C621.812 114.073 620.748 113.639 619.974 112.771C619.2 111.897 618.813 110.671 618.813 109.092C618.813 107.6 619.234 106.386 620.077 105.45C620.925 104.507 621.977 104.036 623.232 104.036C624.486 104.036 625.457 104.442 626.143 105.253C626.83 106.065 627.173 107.191 627.173 108.633V109.438ZM625.6 108.137C625.594 107.251 625.379 106.561 624.954 106.068C624.536 105.575 623.953 105.328 623.204 105.328C622.48 105.328 621.865 105.587 621.359 106.105C620.854 106.623 620.542 107.3 620.423 108.137H625.6ZM643.117 113.848H641.582V108.343C641.582 107.282 641.416 106.514 641.085 106.04C640.761 105.565 640.212 105.328 639.438 105.328C638.782 105.328 638.224 105.628 637.762 106.227C637.306 106.826 637.078 107.544 637.078 108.38V113.848H635.543V108.156C635.543 106.271 634.816 105.328 633.362 105.328C632.688 105.328 632.132 105.612 631.695 106.18C631.258 106.742 631.04 107.475 631.04 108.38V113.848H629.504V104.261H631.04V105.778H631.077C631.758 104.617 632.75 104.036 634.054 104.036C634.71 104.036 635.281 104.22 635.768 104.589C636.255 104.951 636.588 105.428 636.769 106.021C637.481 104.698 638.542 104.036 639.953 104.036C642.062 104.036 643.117 105.338 643.117 107.94V113.848ZM656.505 113.848H654.97V102.248C654.851 102.367 654.676 102.504 654.445 102.66C654.221 102.81 653.965 102.96 653.678 103.109C653.397 103.259 653.097 103.4 652.779 103.531C652.467 103.662 652.161 103.765 651.861 103.84V102.285C652.198 102.192 652.554 102.067 652.929 101.911C653.309 101.749 653.681 101.571 654.043 101.377C654.411 101.178 654.758 100.972 655.082 100.759C655.407 100.541 655.688 100.329 655.925 100.123H656.505V113.848Z" fill="#242424"/>
<rect x="567.956" y="150.957" width="21.913" height="21.913" rx="2.73913" fill="#0F6CBD"/>
<path d="M584.069 158.085C584.482 158.474 584.5 159.124 584.111 159.537L578.29 165.7C578.099 165.902 577.835 166.018 577.558 166.022C577.28 166.026 577.013 165.917 576.817 165.721L573.735 162.639C573.334 162.238 573.334 161.588 573.735 161.187C574.137 160.786 574.787 160.786 575.188 161.187L577.522 163.521L582.617 158.126C583.007 157.714 583.657 157.695 584.069 158.085Z" fill="white"/>
<path d="M609.638 168.848H608.065V155.422H609.638V168.848ZM617.418 168.754C617.056 168.954 616.578 169.054 615.985 169.054C614.306 169.054 613.467 168.118 613.467 166.245V160.572H611.819V159.261H613.467V156.92L615.002 156.424V159.261H617.418V160.572H615.002V165.974C615.002 166.617 615.111 167.075 615.33 167.35C615.548 167.625 615.91 167.762 616.416 167.762C616.803 167.762 617.137 167.656 617.418 167.443V168.754ZM627.173 164.438H620.404C620.429 165.506 620.716 166.329 621.266 166.91C621.815 167.49 622.57 167.781 623.531 167.781C624.611 167.781 625.603 167.425 626.508 166.713V168.155C625.666 168.767 624.552 169.073 623.166 169.073C621.812 169.073 620.748 168.639 619.974 167.771C619.2 166.897 618.813 165.671 618.813 164.092C618.813 162.6 619.234 161.386 620.077 160.45C620.925 159.507 621.977 159.036 623.232 159.036C624.486 159.036 625.457 159.442 626.143 160.253C626.83 161.065 627.173 162.191 627.173 163.633V164.438ZM625.6 163.137C625.594 162.251 625.379 161.561 624.954 161.068C624.536 160.575 623.953 160.328 623.204 160.328C622.48 160.328 621.865 160.587 621.359 161.105C620.854 161.623 620.542 162.3 620.423 163.137H625.6ZM643.117 168.848H641.582V163.343C641.582 162.282 641.416 161.514 641.085 161.04C640.761 160.565 640.212 160.328 639.438 160.328C638.782 160.328 638.224 160.628 637.762 161.227C637.306 161.826 637.078 162.544 637.078 163.38V168.848H635.543V163.156C635.543 161.271 634.816 160.328 633.362 160.328C632.688 160.328 632.132 160.612 631.695 161.18C631.258 161.742 631.04 162.475 631.04 163.38V168.848H629.504V159.261H631.04V160.778H631.077C631.758 159.617 632.75 159.036 634.054 159.036C634.71 159.036 635.281 159.22 635.768 159.589C636.255 159.951 636.588 160.428 636.769 161.021C637.481 159.698 638.542 159.036 639.953 159.036C642.062 159.036 643.117 160.338 643.117 162.94V168.848ZM656.955 158.943C656.955 158.531 656.889 158.172 656.758 157.866C656.633 157.56 656.458 157.307 656.234 157.108C656.015 156.902 655.756 156.749 655.457 156.649C655.157 156.549 654.832 156.499 654.483 156.499C654.183 156.499 653.89 156.54 653.603 156.621C653.316 156.702 653.035 156.814 652.76 156.958C652.492 157.101 652.23 157.273 651.974 157.473C651.724 157.672 651.49 157.894 651.272 158.137V156.49C651.702 156.071 652.183 155.753 652.713 155.535C653.25 155.31 653.902 155.198 654.67 155.198C655.219 155.198 655.728 155.279 656.196 155.441C656.664 155.597 657.07 155.828 657.413 156.134C657.757 156.44 658.025 156.817 658.218 157.267C658.418 157.716 658.518 158.231 658.518 158.811C658.518 159.342 658.456 159.823 658.331 160.253C658.212 160.684 658.028 161.09 657.778 161.47C657.535 161.851 657.226 162.216 656.852 162.566C656.477 162.915 656.037 163.271 655.531 163.633C654.901 164.082 654.38 164.466 653.968 164.785C653.562 165.103 653.238 165.403 652.994 165.683C652.757 165.958 652.589 166.236 652.489 166.517C652.395 166.791 652.348 167.11 652.348 167.472H659.033V168.848H650.747V168.183C650.747 167.609 650.81 167.103 650.935 166.666C651.059 166.23 651.265 165.814 651.553 165.421C651.84 165.028 652.214 164.635 652.676 164.242C653.144 163.848 653.715 163.405 654.389 162.912C654.876 162.563 655.282 162.229 655.606 161.91C655.937 161.592 656.202 161.274 656.402 160.955C656.602 160.637 656.742 160.316 656.823 159.991C656.911 159.66 656.955 159.311 656.955 158.943Z" fill="#242424"/>
<rect x="568.956" y="205.957" width="21.913" height="21.913" rx="2.73913" fill="#0F6CBD"/>
<path d="M585.069 213.085C585.482 213.474 585.5 214.124 585.111 214.537L579.29 220.7C579.099 220.902 578.835 221.018 578.558 221.022C578.28 221.026 578.013 220.917 577.817 220.721L574.735 217.639C574.334 217.238 574.334 216.588 574.735 216.187C575.137 215.786 575.787 215.786 576.188 216.187L578.522 218.521L583.617 213.126C584.007 212.714 584.657 212.695 585.069 213.085Z" fill="white"/>
<path d="M610.638 223.848H609.065V210.422H610.638V223.848ZM618.418 223.754C618.056 223.954 617.578 224.054 616.985 224.054C615.306 224.054 614.467 223.118 614.467 221.245V215.572H612.819V214.261H614.467V211.92L616.002 211.424V214.261H618.418V215.572H616.002V220.974C616.002 221.617 616.111 222.075 616.33 222.35C616.548 222.625 616.91 222.762 617.416 222.762C617.803 222.762 618.137 222.656 618.418 222.443V223.754ZM628.173 219.438H621.404C621.429 220.506 621.716 221.329 622.266 221.91C622.815 222.49 623.57 222.781 624.531 222.781C625.611 222.781 626.603 222.425 627.508 221.713V223.155C626.666 223.767 625.552 224.073 624.166 224.073C622.812 224.073 621.748 223.639 620.974 222.771C620.2 221.897 619.813 220.671 619.813 219.092C619.813 217.6 620.234 216.386 621.077 215.45C621.925 214.507 622.977 214.036 624.232 214.036C625.486 214.036 626.457 214.442 627.143 215.253C627.83 216.065 628.173 217.191 628.173 218.633V219.438ZM626.6 218.137C626.594 217.251 626.379 216.561 625.954 216.068C625.536 215.575 624.953 215.328 624.204 215.328C623.48 215.328 622.865 215.587 622.359 216.105C621.854 216.623 621.542 217.3 621.423 218.137H626.6ZM644.117 223.848H642.582V218.343C642.582 217.282 642.416 216.514 642.085 216.04C641.761 215.565 641.212 215.328 640.438 215.328C639.782 215.328 639.224 215.628 638.762 216.227C638.306 216.826 638.078 217.544 638.078 218.38V223.848H636.543V218.156C636.543 216.271 635.816 215.328 634.362 215.328C633.688 215.328 633.132 215.612 632.695 216.18C632.258 216.742 632.04 217.475 632.04 218.38V223.848H630.504V214.261H632.04V215.778H632.077C632.758 214.617 633.75 214.036 635.054 214.036C635.71 214.036 636.281 214.22 636.768 214.589C637.255 214.951 637.588 215.428 637.769 216.021C638.481 214.698 639.542 214.036 640.953 214.036C643.062 214.036 644.117 215.338 644.117 217.94V223.848ZM659.649 220.047C659.649 220.652 659.534 221.205 659.303 221.704C659.078 222.197 658.757 222.621 658.338 222.977C657.926 223.327 657.43 223.598 656.85 223.792C656.269 223.985 655.63 224.082 654.931 224.082C653.651 224.082 652.634 223.838 651.878 223.352V221.704C652.783 222.415 653.82 222.771 654.987 222.771C655.455 222.771 655.876 222.712 656.251 222.593C656.631 222.475 656.956 222.303 657.224 222.078C657.499 221.854 657.708 221.582 657.852 221.264C658.001 220.946 658.076 220.587 658.076 220.187C658.076 218.433 656.828 217.556 654.331 217.556H653.217V216.255H654.275C656.485 216.255 657.589 215.431 657.589 213.783C657.589 212.26 656.747 211.499 655.062 211.499C654.113 211.499 653.223 211.817 652.393 212.454V210.965C653.248 210.454 654.266 210.198 655.445 210.198C656.007 210.198 656.516 210.276 656.971 210.432C657.427 210.588 657.817 210.806 658.142 211.087C658.466 211.368 658.716 211.705 658.891 212.098C659.072 212.491 659.162 212.925 659.162 213.4C659.162 215.166 658.27 216.302 656.485 216.807V216.845C656.94 216.895 657.362 217.007 657.749 217.182C658.136 217.35 658.469 217.572 658.75 217.847C659.031 218.121 659.25 218.446 659.406 218.82C659.568 219.189 659.649 219.597 659.649 220.047Z" fill="#242424"/>
<path d="M575.171 32.2247C573.267 32.2247 571.741 31.5974 570.592 30.3429C569.45 29.0883 568.879 27.4562 568.879 25.4464C568.879 23.2869 569.463 21.5642 570.63 20.2784C571.797 18.9927 573.385 18.3498 575.395 18.3498C577.249 18.3498 578.741 18.974 579.87 20.2223C581.006 21.4706 581.574 23.1027 581.574 25.1187C581.574 27.3095 580.994 29.0415 579.833 30.3148C578.672 31.5881 577.118 32.2247 575.171 32.2247ZM575.283 19.7729C573.872 19.7729 572.727 20.2816 571.847 21.2989C570.967 22.3163 570.527 23.652 570.527 25.306C570.527 26.96 570.954 28.2925 571.809 29.3037C572.671 30.3086 573.791 30.811 575.171 30.811C576.644 30.811 577.804 30.3304 578.653 29.3692C579.502 28.408 579.927 27.063 579.927 25.3341C579.927 23.5615 579.515 22.1915 578.691 21.224C577.867 20.2566 576.731 19.7729 575.283 19.7729ZM585.581 30.6144H585.544V36.4096H584.008V22.413H585.544V24.0983H585.581C586.337 22.825 587.441 22.1883 588.896 22.1883C590.131 22.1883 591.096 22.619 591.789 23.4803C592.481 24.3354 592.828 25.4839 592.828 26.9257C592.828 28.5297 592.438 29.8155 591.657 30.7829C590.877 31.7441 589.81 32.2247 588.456 32.2247C587.214 32.2247 586.255 31.6879 585.581 30.6144ZM585.544 26.7478V28.0866C585.544 28.8792 585.8 29.5533 586.312 30.1088C586.83 30.6581 587.485 30.9327 588.278 30.9327C589.208 30.9327 589.935 30.5769 590.459 29.8654C590.99 29.1539 591.255 28.1646 591.255 26.8976C591.255 25.8303 591.008 24.9939 590.515 24.3885C590.022 23.7831 589.354 23.4803 588.512 23.4803C587.619 23.4803 586.901 23.7924 586.358 24.4166C585.815 25.0345 585.544 25.8115 585.544 26.7478ZM599.728 31.9064C599.366 32.1061 598.888 32.206 598.295 32.206C596.616 32.206 595.777 31.2697 595.777 29.3973V23.7238H594.129V22.413H595.777V20.0725L597.312 19.5763V22.413H599.728V23.7238H597.312V29.1258C597.312 29.7687 597.421 30.2274 597.64 30.502C597.858 30.7767 598.22 30.914 598.726 30.914C599.113 30.914 599.447 30.8079 599.728 30.5957V31.9064ZM602.564 19.9789C602.29 19.9789 602.056 19.8852 601.862 19.698C601.669 19.5107 601.572 19.2736 601.572 18.9865C601.572 18.6993 601.669 18.4622 601.862 18.2749C602.056 18.0814 602.29 17.9847 602.564 17.9847C602.845 17.9847 603.083 18.0814 603.276 18.2749C603.476 18.4622 603.576 18.6993 603.576 18.9865C603.576 19.2611 603.476 19.4951 603.276 19.6886C603.083 19.8821 602.845 19.9789 602.564 19.9789ZM603.313 32H601.778V22.413H603.313V32ZM610.429 32.2247C609.012 32.2247 607.879 31.7784 607.03 30.8859C606.188 29.9871 605.766 28.7981 605.766 27.3189C605.766 25.7086 606.206 24.4509 607.086 23.5459C607.967 22.6409 609.156 22.1883 610.653 22.1883C612.083 22.1883 613.197 22.6284 613.996 23.5084C614.801 24.3885 615.204 25.6087 615.204 27.1691C615.204 28.6982 614.77 29.9247 613.902 30.8484C613.041 31.7659 611.883 32.2247 610.429 32.2247ZM610.541 23.4803C609.555 23.4803 608.775 23.8174 608.201 24.4915C607.626 25.1593 607.339 26.083 607.339 27.2627C607.339 28.3986 607.629 29.2943 608.21 29.9497C608.79 30.605 609.567 30.9327 610.541 30.9327C611.534 30.9327 612.295 30.6113 612.826 29.9684C613.362 29.3255 613.631 28.4111 613.631 27.2252C613.631 26.0269 613.362 25.1031 612.826 24.454C612.295 23.8049 611.534 23.4803 610.541 23.4803ZM625.614 32H624.079V26.5324C624.079 24.4977 623.336 23.4803 621.851 23.4803C621.083 23.4803 620.446 23.7706 619.941 24.351C619.442 24.9253 619.192 25.6524 619.192 26.5324V32H617.656V22.413H619.192V24.0046H619.229C619.953 22.7938 621.002 22.1883 622.375 22.1883C623.424 22.1883 624.226 22.5285 624.781 23.2088C625.337 23.8829 625.614 24.8597 625.614 26.1392V32ZM627.936 31.6536V30.0058C628.773 30.6237 629.693 30.9327 630.698 30.9327C632.046 30.9327 632.72 30.4833 632.72 29.5845C632.72 29.3286 632.661 29.1133 632.542 28.9385C632.43 28.7575 632.274 28.5984 632.074 28.4611C631.881 28.3238 631.65 28.202 631.382 28.0959C631.119 27.9836 630.835 27.8681 630.53 27.7495C630.105 27.581 629.731 27.4125 629.406 27.244C629.088 27.0692 628.819 26.8757 628.601 26.6635C628.389 26.4451 628.226 26.1985 628.114 25.9239C628.008 25.6493 627.955 25.3278 627.955 24.9596C627.955 24.5102 628.058 24.1139 628.264 23.7706C628.47 23.421 628.745 23.1308 629.088 22.8999C629.431 22.6627 629.821 22.4848 630.258 22.3662C630.701 22.2476 631.157 22.1883 631.625 22.1883C632.455 22.1883 633.198 22.3319 633.853 22.619V24.1731C633.148 23.7113 632.336 23.4803 631.419 23.4803C631.132 23.4803 630.873 23.5147 630.642 23.5833C630.411 23.6457 630.211 23.7362 630.043 23.8548C629.88 23.9734 629.753 24.117 629.659 24.2855C629.572 24.4478 629.528 24.6288 629.528 24.8285C629.528 25.0782 629.572 25.2873 629.659 25.4558C629.753 25.6243 629.887 25.7741 630.061 25.9052C630.236 26.0362 630.448 26.1548 630.698 26.2609C630.948 26.367 631.232 26.4825 631.55 26.6073C631.974 26.7696 632.355 26.9381 632.692 27.1129C633.029 27.2814 633.316 27.4749 633.554 27.6934C633.791 27.9056 633.972 28.1521 634.097 28.433C634.228 28.7138 634.293 29.0478 634.293 29.4347C634.293 29.9091 634.187 30.321 633.975 30.6706C633.769 31.0201 633.491 31.3103 633.142 31.5412C632.792 31.7722 632.39 31.9438 631.934 32.0562C631.478 32.1685 631.001 32.2247 630.501 32.2247C629.515 32.2247 628.66 32.0343 627.936 31.6536ZM643.496 30.6144H643.459V36.4096H641.923V22.413H643.459V24.0983H643.496C644.252 22.825 645.356 22.1883 646.811 22.1883C648.046 22.1883 649.011 22.619 649.703 23.4803C650.396 24.3354 650.743 25.4839 650.743 26.9257C650.743 28.5297 650.353 29.8155 649.572 30.7829C648.792 31.7441 647.725 32.2247 646.371 32.2247C645.128 32.2247 644.17 31.6879 643.496 30.6144ZM643.459 26.7478V28.0866C643.459 28.8792 643.715 29.5533 644.227 30.1088C644.745 30.6581 645.4 30.9327 646.193 30.9327C647.123 30.9327 647.85 30.5769 648.374 29.8654C648.905 29.1539 649.17 28.1646 649.17 26.8976C649.17 25.8303 648.923 24.9939 648.43 24.3885C647.937 23.7831 647.269 23.4803 646.427 23.4803C645.534 23.4803 644.816 23.7924 644.273 24.4166C643.73 25.0345 643.459 25.8115 643.459 26.7478ZM653.982 19.9789C653.707 19.9789 653.473 19.8852 653.28 19.698C653.086 19.5107 652.99 19.2736 652.99 18.9865C652.99 18.6993 653.086 18.4622 653.28 18.2749C653.473 18.0814 653.707 17.9847 653.982 17.9847C654.263 17.9847 654.5 18.0814 654.694 18.2749C654.893 18.4622 654.993 18.6993 654.993 18.9865C654.993 19.2611 654.893 19.4951 654.694 19.6886C654.5 19.8821 654.263 19.9789 653.982 19.9789ZM654.731 32H653.196V22.413H654.731V32ZM664.374 31.56C663.638 32.0031 662.764 32.2247 661.753 32.2247C660.386 32.2247 659.281 31.7815 658.438 30.8953C657.602 30.0027 657.184 28.848 657.184 27.4312C657.184 25.8521 657.636 24.5851 658.541 23.6301C659.446 22.6689 660.654 22.1883 662.165 22.1883C663.007 22.1883 663.75 22.3444 664.393 22.6565V24.2293C663.681 23.73 662.92 23.4803 662.108 23.4803C661.129 23.4803 660.323 23.833 659.693 24.5383C659.069 25.2373 658.757 26.1579 658.757 27.3001C658.757 28.4236 659.05 29.3099 659.637 29.959C660.23 30.6081 661.022 30.9327 662.015 30.9327C662.851 30.9327 663.638 30.655 664.374 30.0995V31.56ZM674.654 32H672.501L668.269 27.3938H668.231V32H666.696V17.8068H668.231V26.8039H668.269L672.295 22.413H674.308L669.86 27.038L674.654 32ZM683.932 27.5904H677.163C677.188 28.6577 677.475 29.4816 678.024 30.062C678.574 30.6425 679.329 30.9327 680.29 30.9327C681.37 30.9327 682.362 30.5769 683.267 29.8654V31.3072C682.425 31.9189 681.31 32.2247 679.925 32.2247C678.57 32.2247 677.506 31.7909 676.732 30.9233C675.958 30.0495 675.571 28.8231 675.571 27.244C675.571 25.7523 675.993 24.5383 676.835 23.6021C677.684 22.6596 678.736 22.1883 679.99 22.1883C681.245 22.1883 682.216 22.594 682.902 23.4054C683.589 24.2168 683.932 25.3434 683.932 26.7852V27.5904ZM682.359 26.289C682.353 25.4027 682.137 24.713 681.713 24.22C681.295 23.7269 680.711 23.4803 679.962 23.4803C679.238 23.4803 678.624 23.7394 678.118 24.2574C677.612 24.7755 677.3 25.4527 677.182 26.289H682.359ZM694.446 32H692.91V30.371H692.873C692.161 31.6068 691.063 32.2247 689.577 32.2247C688.373 32.2247 687.408 31.7972 686.684 30.9421C685.967 30.0807 685.608 28.9105 685.608 27.4312C685.608 25.8459 686.007 24.5757 686.806 23.6208C687.605 22.6658 688.669 22.1883 689.999 22.1883C691.316 22.1883 692.274 22.7064 692.873 23.7425H692.91V17.8068H694.446V32ZM692.91 27.6653V26.2516C692.91 25.4776 692.654 24.8223 692.143 24.2855C691.631 23.7487 690.982 23.4803 690.195 23.4803C689.259 23.4803 688.523 23.8236 687.986 24.5102C687.449 25.1968 687.181 26.1455 687.181 27.3563C687.181 28.4611 687.437 29.3349 687.948 29.9778C688.466 30.6144 689.159 30.9327 690.027 30.9327C690.882 30.9327 691.575 30.6237 692.105 30.0058C692.642 29.3879 692.91 28.6077 692.91 27.6653ZM583.166 59H581.63V53.495C581.63 52.4339 581.465 51.6662 581.134 51.1919C580.81 50.7175 580.26 50.4803 579.487 50.4803C578.831 50.4803 578.273 50.7799 577.811 51.3791C577.355 51.9783 577.127 52.6961 577.127 53.5324V59H575.592V53.3077C575.592 51.4228 574.865 50.4803 573.41 50.4803C572.736 50.4803 572.181 50.7643 571.744 51.3323C571.307 51.894 571.089 52.6274 571.089 53.5324V59H569.553V49.413H571.089V50.9297H571.126C571.806 49.7688 572.799 49.1883 574.103 49.1883C574.759 49.1883 575.33 49.3725 575.817 49.7407C576.303 50.1027 576.637 50.5802 576.818 51.1731C577.53 49.8499 578.591 49.1883 580.001 49.1883C582.111 49.1883 583.166 50.4897 583.166 53.0924V59ZM590.075 59.2247C588.658 59.2247 587.526 58.7784 586.677 57.8859C585.834 56.9871 585.413 55.7981 585.413 54.3189C585.413 52.7086 585.853 51.4509 586.733 50.5459C587.613 49.6409 588.802 49.1883 590.3 49.1883C591.729 49.1883 592.843 49.6284 593.642 50.5084C594.447 51.3885 594.85 52.6087 594.85 54.1691C594.85 55.6982 594.416 56.9247 593.549 57.8484C592.687 58.7659 591.53 59.2247 590.075 59.2247ZM590.188 50.4803C589.201 50.4803 588.421 50.8174 587.847 51.4915C587.273 52.1593 586.986 53.083 586.986 54.2627C586.986 55.3986 587.276 56.2943 587.856 56.9497C588.437 57.605 589.214 57.9327 590.188 57.9327C591.18 57.9327 591.941 57.6113 592.472 56.9684C593.009 56.3255 593.277 55.4111 593.277 54.2252C593.277 53.0269 593.009 52.1031 592.472 51.454C591.941 50.8049 591.18 50.4803 590.188 50.4803ZM596.722 58.6536V57.0058C597.559 57.6237 598.479 57.9327 599.484 57.9327C600.832 57.9327 601.507 57.4833 601.507 56.5845C601.507 56.3286 601.447 56.1133 601.329 55.9385C601.216 55.7575 601.06 55.5984 600.861 55.4611C600.667 55.3238 600.436 55.202 600.168 55.0959C599.906 54.9836 599.622 54.8681 599.316 54.7495C598.891 54.581 598.517 54.4125 598.192 54.244C597.874 54.0692 597.606 53.8757 597.387 53.6635C597.175 53.4451 597.013 53.1985 596.9 52.9239C596.794 52.6493 596.741 52.3278 596.741 51.9596C596.741 51.5102 596.844 51.1139 597.05 50.7706C597.256 50.421 597.531 50.1308 597.874 49.8999C598.217 49.6627 598.607 49.4848 599.044 49.3662C599.487 49.2476 599.943 49.1883 600.411 49.1883C601.241 49.1883 601.984 49.3319 602.639 49.619V51.1731C601.934 50.7113 601.123 50.4803 600.205 50.4803C599.918 50.4803 599.659 50.5147 599.428 50.5833C599.197 50.6457 598.997 50.7362 598.829 50.8548C598.667 50.9734 598.539 51.117 598.445 51.2855C598.358 51.4478 598.314 51.6288 598.314 51.8285C598.314 52.0782 598.358 52.2873 598.445 52.4558C598.539 52.6243 598.673 52.7741 598.848 52.9052C599.022 53.0362 599.235 53.1548 599.484 53.2609C599.734 53.367 600.018 53.4825 600.336 53.6073C600.761 53.7696 601.141 53.9381 601.478 54.1129C601.816 54.2814 602.103 54.4749 602.34 54.6934C602.577 54.9056 602.758 55.1521 602.883 55.433C603.014 55.7138 603.079 56.0478 603.079 56.4347C603.079 56.9091 602.973 57.321 602.761 57.6706C602.555 58.0201 602.277 58.3103 601.928 58.5412C601.578 58.7722 601.176 58.9438 600.72 59.0562C600.265 59.1685 599.787 59.2247 599.288 59.2247C598.302 59.2247 597.446 59.0343 596.722 58.6536ZM609.895 58.9064C609.533 59.1061 609.056 59.206 608.463 59.206C606.784 59.206 605.944 58.2697 605.944 56.3973V50.7238H604.297V49.413H605.944V47.0725L607.48 46.5763V49.413H609.895V50.7238H607.48V56.1258C607.48 56.7687 607.589 57.2274 607.807 57.502C608.026 57.7767 608.388 57.914 608.893 57.914C609.28 57.914 609.614 57.8079 609.895 57.5957V58.9064ZM621.944 46.155C621.645 45.9865 621.305 45.9022 620.924 45.9022C619.85 45.9022 619.314 46.5794 619.314 47.9338V49.413H621.561V50.7238H619.314V59H617.788V50.7238H616.149V49.413H617.788V47.8589C617.788 46.854 618.078 46.0614 618.658 45.4809C619.239 44.8942 619.963 44.6008 620.83 44.6008C621.298 44.6008 621.67 44.657 621.944 44.7694V46.155ZM628.217 50.9672C627.949 50.7612 627.562 50.6582 627.056 50.6582C626.401 50.6582 625.852 50.9672 625.408 51.5851C624.972 52.203 624.753 53.0456 624.753 54.1129V59H623.218V49.413H624.753V51.3885H624.791C625.009 50.7144 625.343 50.1901 625.792 49.8156C626.242 49.4349 626.744 49.2445 627.3 49.2445C627.699 49.2445 628.005 49.2882 628.217 49.3756V50.9672ZM637.589 54.5904H630.82C630.845 55.6577 631.132 56.4816 631.681 57.062C632.23 57.6425 632.986 57.9327 633.947 57.9327C635.027 57.9327 636.019 57.5769 636.924 56.8654V58.3072C636.081 58.9189 634.967 59.2247 633.582 59.2247C632.227 59.2247 631.163 58.7909 630.389 57.9233C629.615 57.0495 629.228 55.8231 629.228 54.244C629.228 52.7523 629.65 51.5383 630.492 50.6021C631.341 49.6596 632.393 49.1883 633.647 49.1883C634.902 49.1883 635.872 49.594 636.559 50.4054C637.245 51.2168 637.589 52.3434 637.589 53.7852V54.5904ZM636.016 53.289C636.01 52.4027 635.794 51.713 635.37 51.22C634.952 50.7269 634.368 50.4803 633.619 50.4803C632.895 50.4803 632.28 50.7394 631.775 51.2574C631.269 51.7755 630.957 52.4527 630.839 53.289H636.016ZM648.103 63.4096H646.567V57.3522H646.53C645.862 58.6005 644.77 59.2247 643.253 59.2247C642.048 59.2247 641.081 58.7972 640.351 57.9421C639.627 57.0807 639.265 55.9105 639.265 54.4312C639.265 52.8396 639.664 51.5695 640.463 50.6208C641.262 49.6658 642.335 49.1883 643.684 49.1883C644.994 49.1883 645.943 49.7064 646.53 50.7425H646.567V49.413H648.103V63.4096ZM646.567 54.684V53.289C646.567 52.5026 646.308 51.8379 645.79 51.2949C645.278 50.7518 644.626 50.4803 643.833 50.4803C642.91 50.4803 642.179 50.8236 641.643 51.5102C641.106 52.1905 640.837 53.1517 640.837 54.3938C640.837 55.4985 641.096 56.3661 641.614 56.9965C642.133 57.6206 642.8 57.9327 643.618 57.9327C644.517 57.9327 645.231 57.6269 645.762 57.0152C646.299 56.3973 646.567 55.6202 646.567 54.684ZM658.963 59H657.427V57.4833H657.39C656.753 58.6442 655.767 59.2247 654.431 59.2247C652.147 59.2247 651.005 57.864 651.005 55.1427V49.413H652.531V54.8993C652.531 56.9216 653.305 57.9327 654.853 57.9327C655.602 57.9327 656.217 57.6581 656.697 57.1088C657.184 56.5533 657.427 55.8293 657.427 54.9368V49.413H658.963V59ZM669.776 54.5904H663.007C663.032 55.6577 663.319 56.4816 663.869 57.062C664.418 57.6425 665.173 57.9327 666.134 57.9327C667.214 57.9327 668.206 57.5769 669.111 56.8654V58.3072C668.269 58.9189 667.155 59.2247 665.769 59.2247C664.415 59.2247 663.351 58.7909 662.577 57.9233C661.803 57.0495 661.416 55.8231 661.416 54.244C661.416 52.7523 661.837 51.5383 662.68 50.6021C663.528 49.6596 664.58 49.1883 665.835 49.1883C667.089 49.1883 668.06 49.594 668.746 50.4054C669.433 51.2168 669.776 52.3434 669.776 53.7852V54.5904ZM668.203 53.289C668.197 52.4027 667.982 51.713 667.557 51.22C667.139 50.7269 666.556 50.4803 665.807 50.4803C665.083 50.4803 664.468 50.7394 663.962 51.2574C663.457 51.7755 663.145 52.4527 663.026 53.289H668.203ZM680.065 59H678.53V53.5324C678.53 51.4977 677.787 50.4803 676.302 50.4803C675.534 50.4803 674.897 50.7706 674.392 51.351C673.892 51.9253 673.643 52.6524 673.643 53.5324V59H672.107V49.413H673.643V51.0046H673.68C674.404 49.7938 675.453 49.1883 676.826 49.1883C677.875 49.1883 678.677 49.5285 679.232 50.2088C679.788 50.8829 680.065 51.8597 680.065 53.1392V59ZM687.415 58.9064C687.053 59.1061 686.575 59.206 685.982 59.206C684.303 59.206 683.464 58.2697 683.464 56.3973V50.7238H681.816V49.413H683.464V47.0725L684.999 46.5763V49.413H687.415V50.7238H684.999V56.1258C684.999 56.7687 685.108 57.2274 685.327 57.502C685.545 57.7767 685.907 57.914 686.413 57.914C686.8 57.914 687.134 57.8079 687.415 57.5957V58.9064ZM691 59H689.465V44.8068H691V59ZM701.739 49.413L697.329 60.5354C696.543 62.5202 695.438 63.5126 694.015 63.5126C693.616 63.5126 693.282 63.472 693.013 63.3909V62.0146C693.344 62.127 693.647 62.1832 693.921 62.1832C694.695 62.1832 695.276 61.7213 695.663 60.7976L696.431 58.9813L692.686 49.413H694.39L696.983 56.7905C697.014 56.8841 697.08 57.1275 697.18 57.5208H697.236C697.267 57.371 697.329 57.1338 697.423 56.8092L700.147 49.413H701.739Z" fill="black"/>
<path d="M853.699 19.9976H849.823V32H848.25V19.9976H844.384V18.5745H853.699V19.9976ZM862.172 22.413L857.763 33.5354C856.976 35.5202 855.871 36.5126 854.448 36.5126C854.049 36.5126 853.715 36.472 853.447 36.3909V35.0146C853.777 35.127 854.08 35.1832 854.355 35.1832C855.129 35.1832 855.709 34.7213 856.096 33.7976L856.864 31.9813L853.119 22.413H854.823L857.416 29.7905C857.447 29.8841 857.513 30.1275 857.613 30.5208H857.669C857.7 30.371 857.763 30.1338 857.856 29.8092L860.581 22.413H862.172ZM865.402 30.6144H865.365V36.4096H863.829V22.413H865.365V24.0983H865.402C866.157 22.825 867.262 22.1883 868.716 22.1883C869.952 22.1883 870.917 22.619 871.609 23.4803C872.302 24.3354 872.649 25.4839 872.649 26.9257C872.649 28.5297 872.258 29.8155 871.478 30.7829C870.698 31.7441 869.631 32.2247 868.276 32.2247C867.034 32.2247 866.076 31.6879 865.402 30.6144ZM865.365 26.7478V28.0866C865.365 28.8792 865.621 29.5533 866.132 30.1088C866.65 30.6581 867.306 30.9327 868.098 30.9327C869.028 30.9327 869.756 30.5769 870.28 29.8654C870.81 29.1539 871.076 28.1646 871.076 26.8976C871.076 25.8303 870.829 24.9939 870.336 24.3885C869.843 23.7831 869.175 23.4803 868.333 23.4803C867.44 23.4803 866.722 23.7924 866.179 24.4166C865.636 25.0345 865.365 25.8115 865.365 26.7478ZM882.807 27.5904H876.038C876.063 28.6577 876.35 29.4816 876.899 30.062C877.448 30.6425 878.203 30.9327 879.165 30.9327C880.244 30.9327 881.237 30.5769 882.142 29.8654V31.3072C881.299 31.9189 880.185 32.2247 878.8 32.2247C877.445 32.2247 876.381 31.7909 875.607 30.9233C874.833 30.0495 874.446 28.8231 874.446 27.244C874.446 25.7523 874.867 24.5383 875.71 23.6021C876.559 22.6596 877.611 22.1883 878.865 22.1883C880.12 22.1883 881.09 22.594 881.777 23.4054C882.463 24.2168 882.807 25.3434 882.807 26.7852V27.5904ZM881.234 26.289C881.227 25.4027 881.012 24.713 880.588 24.22C880.17 23.7269 879.586 23.4803 878.837 23.4803C878.113 23.4803 877.498 23.7394 876.993 24.2574C876.487 24.7755 876.175 25.4527 876.056 26.289H881.234ZM891.186 19.9789C890.911 19.9789 890.677 19.8852 890.484 19.698C890.29 19.5107 890.193 19.2736 890.193 18.9865C890.193 18.6993 890.29 18.4622 890.484 18.2749C890.677 18.0814 890.911 17.9847 891.186 17.9847C891.467 17.9847 891.704 18.0814 891.897 18.2749C892.097 18.4622 892.197 18.6993 892.197 18.9865C892.197 19.2611 892.097 19.4951 891.897 19.6886C891.704 19.8821 891.467 19.9789 891.186 19.9789ZM891.935 32H890.399V22.413H891.935V32ZM903.001 32H901.466V26.5324C901.466 24.4977 900.723 23.4803 899.237 23.4803C898.47 23.4803 897.833 23.7706 897.327 24.351C896.828 24.9253 896.578 25.6524 896.578 26.5324V32H895.043V22.413H896.578V24.0046H896.616C897.34 22.7938 898.389 22.1883 899.762 22.1883C900.81 22.1883 901.612 22.5285 902.168 23.2088C902.723 23.8829 903.001 24.8597 903.001 26.1392V32ZM915.612 31.9064C915.25 32.1061 914.772 32.206 914.18 32.206C912.501 32.206 911.661 31.2697 911.661 29.3973V23.7238H910.013V22.413H911.661V20.0725L913.196 19.5763V22.413H915.612V23.7238H913.196V29.1258C913.196 29.7687 913.306 30.2274 913.524 30.502C913.743 30.7767 914.105 30.914 914.61 30.914C914.997 30.914 915.331 30.8079 915.612 30.5957V31.9064ZM925.62 32H924.085V26.4763C924.085 24.479 923.342 23.4803 921.857 23.4803C921.108 23.4803 920.477 23.7706 919.965 24.351C919.454 24.9253 919.198 25.6649 919.198 26.5699V32H917.662V17.8068H919.198V24.0046H919.235C919.972 22.7938 921.02 22.1883 922.381 22.1883C924.54 22.1883 925.62 23.4897 925.62 26.0924V32ZM933.522 23.9672C933.254 23.7612 932.867 23.6582 932.361 23.6582C931.706 23.6582 931.156 23.9672 930.713 24.5851C930.276 25.203 930.058 26.0456 930.058 27.1129V32H928.523V22.413H930.058V24.3885H930.095C930.314 23.7144 930.648 23.1901 931.097 22.8156C931.547 22.4349 932.049 22.2445 932.604 22.2445C933.004 22.2445 933.31 22.2882 933.522 22.3756V23.9672ZM942.894 27.5904H936.125C936.15 28.6577 936.437 29.4816 936.986 30.062C937.535 30.6425 938.29 30.9327 939.252 30.9327C940.331 30.9327 941.324 30.5769 942.229 29.8654V31.3072C941.386 31.9189 940.272 32.2247 938.887 32.2247C937.532 32.2247 936.468 31.7909 935.694 30.9233C934.92 30.0495 934.533 28.8231 934.533 27.244C934.533 25.7523 934.954 24.5383 935.797 23.6021C936.646 22.6596 937.698 22.1883 938.952 22.1883C940.207 22.1883 941.177 22.594 941.864 23.4054C942.55 24.2168 942.894 25.3434 942.894 26.7852V27.5904ZM941.321 26.289C941.314 25.4027 941.099 24.713 940.675 24.22C940.257 23.7269 939.673 23.4803 938.924 23.4803C938.2 23.4803 937.585 23.7394 937.08 24.2574C936.574 24.7755 936.262 25.4527 936.143 26.289H941.321ZM952.93 27.5904H946.161C946.186 28.6577 946.473 29.4816 947.022 30.062C947.572 30.6425 948.327 30.9327 949.288 30.9327C950.368 30.9327 951.36 30.5769 952.265 29.8654V31.3072C951.423 31.9189 950.308 32.2247 948.923 32.2247C947.568 32.2247 946.504 31.7909 945.73 30.9233C944.956 30.0495 944.569 28.8231 944.569 27.244C944.569 25.7523 944.991 24.5383 945.833 23.6021C946.682 22.6596 947.734 22.1883 948.988 22.1883C950.243 22.1883 951.214 22.594 951.9 23.4054C952.587 24.2168 952.93 25.3434 952.93 26.7852V27.5904ZM951.357 26.289C951.351 25.4027 951.135 24.713 950.711 24.22C950.293 23.7269 949.709 23.4803 948.96 23.4803C948.236 23.4803 947.622 23.7394 947.116 24.2574C946.61 24.7755 946.298 25.4527 946.18 26.289H951.357ZM847.127 57.6144H847.09V63.4096H845.554V49.413H847.09V51.0983H847.127C847.882 49.825 848.987 49.1883 850.441 49.1883C851.677 49.1883 852.641 49.619 853.334 50.4803C854.027 51.3354 854.373 52.4839 854.373 53.9257C854.373 55.5297 853.983 56.8155 853.203 57.7829C852.423 58.7441 851.356 59.2247 850.001 59.2247C848.759 59.2247 847.801 58.6879 847.127 57.6144ZM847.09 53.7478V55.0866C847.09 55.8792 847.345 56.5533 847.857 57.1088C848.375 57.6581 849.031 57.9327 849.823 57.9327C850.753 57.9327 851.48 57.5769 852.005 56.8654C852.535 56.1539 852.801 55.1646 852.801 53.8976C852.801 52.8303 852.554 51.9939 852.061 51.3885C851.568 50.7831 850.9 50.4803 850.057 50.4803C849.165 50.4803 848.447 50.7924 847.904 51.4166C847.361 52.0345 847.09 52.8115 847.09 53.7478ZM861.826 50.9672C861.557 50.7612 861.17 50.6582 860.665 50.6582C860.009 50.6582 859.46 50.9672 859.017 51.5851C858.58 52.203 858.362 53.0456 858.362 54.1129V59H856.826V49.413H858.362V51.3885H858.399C858.618 50.7144 858.952 50.1901 859.401 49.8156C859.85 49.4349 860.353 49.2445 860.908 49.2445C861.308 49.2445 861.614 49.2882 861.826 49.3756V50.9672ZM871.197 54.5904H864.428C864.453 55.6577 864.741 56.4816 865.29 57.062C865.839 57.6425 866.594 57.9327 867.555 57.9327C868.635 57.9327 869.628 57.5769 870.533 56.8654V58.3072C869.69 58.9189 868.576 59.2247 867.19 59.2247C865.836 59.2247 864.772 58.7909 863.998 57.9233C863.224 57.0495 862.837 55.8231 862.837 54.244C862.837 52.7523 863.258 51.5383 864.101 50.6021C864.95 49.6596 866.001 49.1883 867.256 49.1883C868.51 49.1883 869.481 49.594 870.168 50.4054C870.854 51.2168 871.197 52.3434 871.197 53.7852V54.5904ZM869.625 53.289C869.618 52.4027 869.403 51.713 868.979 51.22C868.56 50.7269 867.977 50.4803 867.228 50.4803C866.504 50.4803 865.889 50.7394 865.383 51.2574C864.878 51.7755 864.566 52.4527 864.447 53.289H869.625ZM878.266 46.155C877.966 45.9865 877.626 45.9022 877.245 45.9022C876.172 45.9022 875.635 46.5794 875.635 47.9338V49.413H877.882V50.7238H875.635V59H874.109V50.7238H872.471V49.413H874.109V47.8589C874.109 46.854 874.399 46.0614 874.98 45.4809C875.56 44.8942 876.284 44.6008 877.152 44.6008C877.62 44.6008 877.991 44.657 878.266 44.7694V46.155ZM887.244 54.5904H880.475C880.5 55.6577 880.787 56.4816 881.337 57.062C881.886 57.6425 882.641 57.9327 883.602 57.9327C884.682 57.9327 885.675 57.5769 886.58 56.8654V58.3072C885.737 58.9189 884.623 59.2247 883.237 59.2247C881.883 59.2247 880.819 58.7909 880.045 57.9233C879.271 57.0495 878.884 55.8231 878.884 54.244C878.884 52.7523 879.305 51.5383 880.148 50.6021C880.997 49.6596 882.048 49.1883 883.303 49.1883C884.557 49.1883 885.528 49.594 886.214 50.4054C886.901 51.2168 887.244 52.3434 887.244 53.7852V54.5904ZM885.671 53.289C885.665 52.4027 885.45 51.713 885.025 51.22C884.607 50.7269 884.024 50.4803 883.275 50.4803C882.551 50.4803 881.936 50.7394 881.43 51.2574C880.925 51.7755 880.613 52.4527 880.494 53.289H885.671ZM894.575 50.9672C894.307 50.7612 893.92 50.6582 893.414 50.6582C892.759 50.6582 892.209 50.9672 891.766 51.5851C891.329 52.203 891.111 53.0456 891.111 54.1129V59H889.575V49.413H891.111V51.3885H891.148C891.367 50.7144 891.701 50.1901 892.15 49.8156C892.6 49.4349 893.102 49.2445 893.657 49.2445C894.057 49.2445 894.363 49.2882 894.575 49.3756V50.9672ZM901.241 50.9672C900.972 50.7612 900.586 50.6582 900.08 50.6582C899.425 50.6582 898.875 50.9672 898.432 51.5851C897.995 52.203 897.777 53.0456 897.777 54.1129V59H896.241V49.413H897.777V51.3885H897.814C898.033 50.7144 898.367 50.1901 898.816 49.8156C899.265 49.4349 899.768 49.2445 900.323 49.2445C900.723 49.2445 901.029 49.2882 901.241 49.3756V50.9672ZM910.612 54.5904H903.844C903.869 55.6577 904.156 56.4816 904.705 57.062C905.254 57.6425 906.009 57.9327 906.971 57.9327C908.05 57.9327 909.043 57.5769 909.948 56.8654V58.3072C909.105 58.9189 907.991 59.2247 906.605 59.2247C905.251 59.2247 904.187 58.7909 903.413 57.9233C902.639 57.0495 902.252 55.8231 902.252 54.244C902.252 52.7523 902.673 51.5383 903.516 50.6021C904.365 49.6596 905.416 49.1883 906.671 49.1883C907.926 49.1883 908.896 49.594 909.583 50.4054C910.269 51.2168 910.612 52.3434 910.612 53.7852V54.5904ZM909.04 53.289C909.033 52.4027 908.818 51.713 908.394 51.22C907.975 50.7269 907.392 50.4803 906.643 50.4803C905.919 50.4803 905.304 50.7394 904.799 51.2574C904.293 51.7755 903.981 52.4527 903.862 53.289H909.04ZM921.126 59H919.591V57.371H919.553C918.842 58.6068 917.743 59.2247 916.258 59.2247C915.053 59.2247 914.089 58.7972 913.365 57.9421C912.647 57.0807 912.288 55.9105 912.288 54.4312C912.288 52.8459 912.688 51.5757 913.487 50.6208C914.286 49.6658 915.35 49.1883 916.679 49.1883C917.996 49.1883 918.954 49.7064 919.553 50.7425H919.591V44.8068H921.126V59ZM919.591 54.6653V53.2516C919.591 52.4776 919.335 51.8223 918.823 51.2855C918.311 50.7487 917.662 50.4803 916.876 50.4803C915.94 50.4803 915.203 50.8236 914.666 51.5102C914.13 52.1968 913.861 53.1455 913.861 54.3563C913.861 55.4611 914.117 56.3349 914.629 56.9778C915.147 57.6144 915.84 57.9327 916.707 57.9327C917.562 57.9327 918.255 57.6237 918.786 57.0058C919.323 56.3879 919.591 55.6077 919.591 54.6653ZM933.503 59.2247C932.086 59.2247 930.954 58.7784 930.105 57.8859C929.262 56.9871 928.841 55.7981 928.841 54.3189C928.841 52.7086 929.281 51.4509 930.161 50.5459C931.041 49.6409 932.23 49.1883 933.728 49.1883C935.157 49.1883 936.271 49.6284 937.07 50.5084C937.875 51.3885 938.278 52.6087 938.278 54.1691C938.278 55.6982 937.844 56.9247 936.977 57.8484C936.115 58.7659 934.958 59.2247 933.503 59.2247ZM933.616 50.4803C932.629 50.4803 931.849 50.8174 931.275 51.4915C930.701 52.1593 930.414 53.083 930.414 54.2627C930.414 55.3986 930.704 56.2943 931.284 56.9497C931.865 57.605 932.642 57.9327 933.616 57.9327C934.608 57.9327 935.369 57.6113 935.9 56.9684C936.437 56.3255 936.705 55.4111 936.705 54.2252C936.705 53.0269 936.437 52.1031 935.9 51.454C935.369 50.8049 934.608 50.4803 933.616 50.4803ZM942.304 57.6144H942.266V63.4096H940.731V49.413H942.266V51.0983H942.304C943.059 49.825 944.164 49.1883 945.618 49.1883C946.854 49.1883 947.818 49.619 948.511 50.4803C949.204 51.3354 949.55 52.4839 949.55 53.9257C949.55 55.5297 949.16 56.8155 948.38 57.7829C947.6 58.7441 946.532 59.2247 945.178 59.2247C943.936 59.2247 942.978 58.6879 942.304 57.6144ZM942.266 53.7478V55.0866C942.266 55.8792 942.522 56.5533 943.034 57.1088C943.552 57.6581 944.207 57.9327 945 57.9327C945.93 57.9327 946.657 57.5769 947.182 56.8654C947.712 56.1539 947.977 55.1646 947.977 53.8976C947.977 52.8303 947.731 51.9939 947.238 51.3885C946.745 50.7831 946.077 50.4803 945.234 50.4803C944.342 50.4803 943.624 50.7924 943.081 51.4166C942.538 52.0345 942.266 52.8115 942.266 53.7478ZM956.45 58.9064C956.088 59.1061 955.611 59.206 955.018 59.206C953.339 59.206 952.499 58.2697 952.499 56.3973V50.7238H950.852V49.413H952.499V47.0725L954.035 46.5763V49.413H956.45V50.7238H954.035V56.1258C954.035 56.7687 954.144 57.2274 954.362 57.502C954.581 57.7767 954.943 57.914 955.448 57.914C955.835 57.914 956.169 57.8079 956.45 57.5957V58.9064ZM959.287 46.9789C959.012 46.9789 958.778 46.8852 958.585 46.698C958.391 46.5107 958.295 46.2736 958.295 45.9865C958.295 45.6993 958.391 45.4622 958.585 45.2749C958.778 45.0814 959.012 44.9847 959.287 44.9847C959.568 44.9847 959.805 45.0814 959.998 45.2749C960.198 45.4622 960.298 45.6993 960.298 45.9865C960.298 46.2611 960.198 46.4951 959.998 46.6886C959.805 46.8821 959.568 46.9789 959.287 46.9789ZM960.036 59H958.5V49.413H960.036V59ZM967.151 59.2247C965.734 59.2247 964.602 58.7784 963.753 57.8859C962.91 56.9871 962.489 55.7981 962.489 54.3189C962.489 52.7086 962.929 51.4509 963.809 50.5459C964.689 49.6409 965.878 49.1883 967.376 49.1883C968.805 49.1883 969.919 49.6284 970.718 50.5084C971.523 51.3885 971.926 52.6087 971.926 54.1691C971.926 55.6982 971.492 56.9247 970.625 57.8484C969.763 58.7659 968.605 59.2247 967.151 59.2247ZM967.264 50.4803C966.277 50.4803 965.497 50.8174 964.923 51.4915C964.349 52.1593 964.062 53.083 964.062 54.2627C964.062 55.3986 964.352 56.2943 964.932 56.9497C965.513 57.605 966.29 57.9327 967.264 57.9327C968.256 57.9327 969.017 57.6113 969.548 56.9684C970.085 56.3255 970.353 55.4111 970.353 54.2252C970.353 53.0269 970.085 52.1031 969.548 51.454C969.017 50.8049 968.256 50.4803 967.264 50.4803ZM982.337 59H980.801V53.5324C980.801 51.4977 980.059 50.4803 978.573 50.4803C977.805 50.4803 977.169 50.7706 976.663 51.351C976.164 51.9253 975.914 52.6524 975.914 53.5324V59H974.379V49.413H975.914V51.0046H975.952C976.676 49.7938 977.724 49.1883 979.097 49.1883C980.146 49.1883 980.948 49.5285 981.504 50.2088C982.059 50.8829 982.337 51.8597 982.337 53.1392V59ZM984.659 58.6536V57.0058C985.495 57.6237 986.416 57.9327 987.421 57.9327C988.769 57.9327 989.443 57.4833 989.443 56.5845C989.443 56.3286 989.383 56.1133 989.265 55.9385C989.153 55.7575 988.996 55.5984 988.797 55.4611C988.603 55.3238 988.372 55.202 988.104 55.0959C987.842 54.9836 987.558 54.8681 987.252 54.7495C986.828 54.581 986.453 54.4125 986.129 54.244C985.81 54.0692 985.542 53.8757 985.323 53.6635C985.111 53.4451 984.949 53.1985 984.837 52.9239C984.73 52.6493 984.677 52.3278 984.677 51.9596C984.677 51.5102 984.78 51.1139 984.986 50.7706C985.192 50.421 985.467 50.1308 985.81 49.8999C986.153 49.6627 986.544 49.4848 986.98 49.3662C987.424 49.2476 987.879 49.1883 988.347 49.1883C989.177 49.1883 989.92 49.3319 990.576 49.619V51.1731C989.87 50.7113 989.059 50.4803 988.141 50.4803C987.854 50.4803 987.595 50.5147 987.364 50.5833C987.133 50.6457 986.934 50.7362 986.765 50.8548C986.603 50.9734 986.475 51.117 986.381 51.2855C986.294 51.4478 986.25 51.6288 986.25 51.8285C986.25 52.0782 986.294 52.2873 986.381 52.4558C986.475 52.6243 986.609 52.7741 986.784 52.9052C986.959 53.0362 987.171 53.1548 987.421 53.2609C987.67 53.367 987.954 53.4825 988.272 53.6073C988.697 53.7696 989.078 53.9381 989.415 54.1129C989.752 54.2814 990.039 54.4749 990.276 54.6934C990.513 54.9056 990.694 55.1521 990.819 55.433C990.95 55.7138 991.016 56.0478 991.016 56.4347C991.016 56.9091 990.91 57.321 990.697 57.6706C990.491 58.0201 990.214 58.3103 989.864 58.5412C989.515 58.7722 989.112 58.9438 988.656 59.0562C988.201 59.1685 987.723 59.2247 987.224 59.2247C986.238 59.2247 985.383 59.0343 984.659 58.6536Z" fill="black"/>
<line x1="841" y1="113" x2="1043" y2="113" stroke="#646464" stroke-width="2"/>
<line x1="841" y1="168" x2="1043" y2="168" stroke="#646464" stroke-width="2"/>
<line x1="841" y1="223" x2="1043" y2="223" stroke="#646464" stroke-width="2"/>
<path d="M772.373 37.413L768.806 47H765.436L762.037 37.413H765.202L766.868 43.3206C767.056 43.9885 767.165 44.5564 767.196 45.0246H767.234C767.277 44.5814 767.393 44.0322 767.58 43.3768L769.284 37.413H772.373ZM773.01 46.7472V44.3505C773.497 44.6438 773.981 44.8623 774.461 45.0058C774.948 45.1494 775.407 45.2212 775.837 45.2212C776.362 45.2212 776.774 45.1494 777.073 45.0058C777.379 44.8623 777.532 44.6438 777.532 44.3505C777.532 44.1632 777.463 44.0072 777.326 43.8824C777.189 43.7575 777.011 43.6483 776.792 43.5547C776.58 43.4611 776.346 43.3768 776.09 43.3019C775.834 43.227 775.588 43.1427 775.351 43.0491C774.97 42.9056 774.633 42.7527 774.339 42.5904C774.052 42.4219 773.809 42.2284 773.609 42.0099C773.416 41.7915 773.266 41.5387 773.16 41.2516C773.06 40.9645 773.01 40.6243 773.01 40.2311C773.01 39.6943 773.125 39.2324 773.356 38.8455C773.594 38.4585 773.906 38.1433 774.293 37.8999C774.686 37.6502 775.132 37.4692 775.631 37.3569C776.137 37.2383 776.661 37.179 777.204 37.179C777.629 37.179 778.059 37.2133 778.496 37.282C778.933 37.3444 779.364 37.438 779.788 37.5628V39.8472C779.414 39.6288 779.011 39.4665 778.581 39.3604C778.156 39.248 777.738 39.1919 777.326 39.1919C777.133 39.1919 776.948 39.2106 776.774 39.248C776.605 39.2793 776.455 39.3292 776.324 39.3978C776.193 39.4603 776.09 39.5445 776.015 39.6506C775.94 39.7505 775.903 39.866 775.903 39.997C775.903 40.1718 775.959 40.3216 776.071 40.4464C776.184 40.5712 776.331 40.6805 776.512 40.7741C776.693 40.8615 776.892 40.9426 777.111 41.0175C777.335 41.0862 777.557 41.1579 777.775 41.2328C778.169 41.3702 778.524 41.52 778.843 41.6822C779.161 41.8445 779.433 42.0349 779.657 42.2533C779.888 42.4718 780.063 42.7277 780.182 43.021C780.306 43.3144 780.369 43.6639 780.369 44.0696C780.369 44.6376 780.244 45.1244 779.994 45.5301C779.751 45.9296 779.423 46.2573 779.011 46.5132C778.606 46.7628 778.134 46.9438 777.598 47.0562C777.067 47.1748 776.515 47.2341 775.94 47.2341C774.886 47.2341 773.909 47.0718 773.01 46.7472Z" fill="black"/>
</svg>
