<svg width="1600" height="250" viewBox="0 0 1600 250" fill="none" xmlns="http://www.w3.org/2000/svg">
<rect x="0.5" y="0.5" width="1599" height="249" fill="#EDEDED" stroke="#C8C8C8"/>
<rect x="641" y="15" width="319" height="234.831" fill="white"/>
<g clip-path="url(#clip0_8_4328)">
<rect x="668.775" y="168.187" width="258.398" height="42.0844" rx="4" fill="#F5F5F5"/>
<path d="M690.033 196.23H682.611V182.226H689.721V183.71H684.252V188.368H689.311V189.843H684.252V194.745H690.033V196.23ZM700.814 196.23H699.213V190.526C699.213 188.404 698.438 187.343 696.889 187.343C696.088 187.343 695.424 187.646 694.896 188.251C694.376 188.85 694.115 189.609 694.115 190.526V196.23H692.514V186.23H694.115V187.89H694.154C694.91 186.627 696.003 185.995 697.436 185.995C698.529 185.995 699.366 186.35 699.945 187.06C700.525 187.763 700.814 188.782 700.814 190.116V196.23ZM708.48 196.132C708.103 196.34 707.605 196.444 706.986 196.444C705.235 196.444 704.359 195.468 704.359 193.515V187.597H702.641V186.23H704.359V183.788L705.961 183.271V186.23H708.48V187.597H705.961V193.232C705.961 193.902 706.075 194.381 706.303 194.667C706.531 194.954 706.908 195.097 707.436 195.097C707.839 195.097 708.188 194.986 708.48 194.765V196.132ZM718.656 191.63H711.596C711.622 192.743 711.921 193.603 712.494 194.208C713.067 194.814 713.855 195.116 714.857 195.116C715.984 195.116 717.019 194.745 717.963 194.003V195.507C717.084 196.145 715.922 196.464 714.477 196.464C713.064 196.464 711.954 196.012 711.146 195.107C710.339 194.195 709.936 192.916 709.936 191.269C709.936 189.713 710.375 188.446 711.254 187.47C712.139 186.487 713.236 185.995 714.545 185.995C715.854 185.995 716.866 186.418 717.582 187.265C718.298 188.111 718.656 189.286 718.656 190.79V191.63ZM717.016 190.273C717.009 189.348 716.785 188.629 716.342 188.114C715.906 187.6 715.297 187.343 714.516 187.343C713.76 187.343 713.119 187.613 712.592 188.153C712.064 188.694 711.739 189.4 711.615 190.273H717.016ZM726.303 187.851C726.023 187.636 725.619 187.528 725.092 187.528C724.408 187.528 723.835 187.851 723.373 188.495C722.917 189.14 722.689 190.019 722.689 191.132V196.23H721.088V186.23H722.689V188.29H722.729C722.956 187.587 723.305 187.04 723.773 186.65C724.242 186.252 724.766 186.054 725.346 186.054C725.762 186.054 726.081 186.099 726.303 186.191V187.851ZM741.83 196.23H739.584L735.17 191.425H735.131V196.23H733.529V181.425H735.131V190.81H735.17L739.369 186.23H741.469L736.83 191.054L741.83 196.23ZM751.508 191.63H744.447C744.473 192.743 744.773 193.603 745.346 194.208C745.919 194.814 746.706 195.116 747.709 195.116C748.835 195.116 749.87 194.745 750.814 194.003V195.507C749.936 196.145 748.773 196.464 747.328 196.464C745.915 196.464 744.805 196.012 743.998 195.107C743.191 194.195 742.787 192.916 742.787 191.269C742.787 189.713 743.227 188.446 744.105 187.47C744.991 186.487 746.088 185.995 747.396 185.995C748.705 185.995 749.717 186.418 750.434 187.265C751.15 188.111 751.508 189.286 751.508 190.79V191.63ZM749.867 190.273C749.861 189.348 749.636 188.629 749.193 188.114C748.757 187.6 748.148 187.343 747.367 187.343C746.612 187.343 745.971 187.613 745.443 188.153C744.916 188.694 744.59 189.4 744.467 190.273H749.867ZM761.898 186.23L757.299 197.831C756.479 199.901 755.326 200.937 753.842 200.937C753.425 200.937 753.077 200.894 752.797 200.81V199.374C753.142 199.491 753.458 199.55 753.744 199.55C754.551 199.55 755.157 199.068 755.561 198.105L756.361 196.21L752.455 186.23H754.232L756.938 193.925C756.97 194.023 757.038 194.276 757.143 194.687H757.201C757.234 194.53 757.299 194.283 757.396 193.944L760.238 186.23H761.898ZM776.225 186.23L773.227 196.23H771.566L769.506 189.071C769.428 188.798 769.376 188.489 769.35 188.144H769.311C769.291 188.378 769.223 188.681 769.105 189.052L766.869 196.23H765.268L762.24 186.23H763.92L765.99 193.749C766.055 193.977 766.101 194.276 766.127 194.648H766.205C766.225 194.361 766.283 194.055 766.381 193.73L768.686 186.23H770.15L772.221 193.769C772.286 194.01 772.335 194.309 772.367 194.667H772.445C772.458 194.413 772.514 194.114 772.611 193.769L774.643 186.23H776.225ZM782.26 196.464C780.782 196.464 779.6 195.998 778.715 195.068C777.836 194.13 777.396 192.89 777.396 191.347C777.396 189.667 777.855 188.355 778.773 187.411C779.691 186.467 780.932 185.995 782.494 185.995C783.985 185.995 785.147 186.454 785.98 187.372C786.82 188.29 787.24 189.563 787.24 191.191C787.24 192.786 786.788 194.065 785.883 195.028C784.984 195.985 783.777 196.464 782.26 196.464ZM782.377 187.343C781.348 187.343 780.535 187.694 779.936 188.398C779.337 189.094 779.037 190.058 779.037 191.288C779.037 192.473 779.34 193.407 779.945 194.091C780.551 194.775 781.361 195.116 782.377 195.116C783.412 195.116 784.206 194.781 784.76 194.11C785.32 193.44 785.6 192.486 785.6 191.249C785.6 189.999 785.32 189.036 784.76 188.359C784.206 187.681 783.412 187.343 782.377 187.343ZM795.014 187.851C794.734 187.636 794.33 187.528 793.803 187.528C793.119 187.528 792.546 187.851 792.084 188.495C791.628 189.14 791.4 190.019 791.4 191.132V196.23H789.799V186.23H791.4V188.29H791.439C791.667 187.587 792.016 187.04 792.484 186.65C792.953 186.252 793.477 186.054 794.057 186.054C794.473 186.054 794.792 186.099 795.014 186.191V187.851ZM805.287 196.23H803.686V194.53H803.646C802.904 195.819 801.758 196.464 800.209 196.464C798.952 196.464 797.947 196.018 797.191 195.126C796.443 194.228 796.068 193.007 796.068 191.464C796.068 189.81 796.485 188.485 797.318 187.489C798.152 186.493 799.262 185.995 800.648 185.995C802.022 185.995 803.021 186.536 803.646 187.616H803.686V181.425H805.287V196.23ZM803.686 191.708V190.234C803.686 189.426 803.419 188.743 802.885 188.183C802.351 187.623 801.674 187.343 800.854 187.343C799.877 187.343 799.109 187.701 798.549 188.417C797.989 189.133 797.709 190.123 797.709 191.386C797.709 192.538 797.976 193.45 798.51 194.12C799.05 194.784 799.773 195.116 800.678 195.116C801.57 195.116 802.292 194.794 802.846 194.15C803.406 193.505 803.686 192.691 803.686 191.708Z" fill="#707070"/>
</g>
<path d="M678.035 142.935H672.422V147.448H677.595V149.553H672.422V155.836H669.93V140.82H678.035V142.935ZM681.669 142.862C681.271 142.862 680.929 142.733 680.642 142.474C680.363 142.216 680.224 141.888 680.224 141.49C680.224 141.092 680.363 140.76 680.642 140.495C680.929 140.23 681.271 140.097 681.669 140.097C682.081 140.097 682.43 140.23 682.716 140.495C683.002 140.76 683.145 141.092 683.145 141.49C683.145 141.867 683.002 142.192 682.716 142.464C682.43 142.729 682.081 142.862 681.669 142.862ZM682.873 155.836H680.444V145.113H682.873V155.836ZM688.496 155.836H686.056V139.961H688.496V155.836ZM697.324 155.721C696.85 155.959 696.225 156.077 695.45 156.077C693.369 156.077 692.329 155.079 692.329 153.082V147.019H690.538V145.113H692.329V142.631L694.759 141.94V145.113H697.324V147.019H694.759V152.381C694.759 153.016 694.874 153.47 695.104 153.742C695.335 154.014 695.719 154.15 696.256 154.15C696.668 154.15 697.024 154.032 697.324 153.794V155.721ZM708.372 151.135H701.063C701.091 152.126 701.394 152.89 701.974 153.428C702.56 153.965 703.363 154.234 704.382 154.234C705.527 154.234 706.578 153.892 707.534 153.208V155.166C706.557 155.781 705.265 156.088 703.66 156.088C702.082 156.088 700.843 155.603 699.942 154.632C699.049 153.655 698.602 152.283 698.602 150.517C698.602 148.848 699.094 147.49 700.078 146.443C701.07 145.389 702.298 144.862 703.765 144.862C705.231 144.862 706.365 145.333 707.168 146.276C707.971 147.218 708.372 148.527 708.372 150.203V151.135ZM706.026 149.417C706.019 148.544 705.814 147.867 705.409 147.386C705.004 146.897 704.445 146.653 703.733 146.653C703.035 146.653 702.442 146.907 701.953 147.417C701.471 147.927 701.174 148.593 701.063 149.417H706.026ZM716.907 147.427C716.614 147.197 716.191 147.082 715.64 147.082C714.921 147.082 714.32 147.407 713.839 148.056C713.357 148.705 713.116 149.588 713.116 150.705V155.836H710.686V145.113H713.116V147.323H713.158C713.395 146.569 713.758 145.982 714.247 145.563C714.743 145.138 715.294 144.925 715.901 144.925C716.341 144.925 716.676 144.991 716.907 145.124V147.427ZM730.185 155.721C729.71 155.959 729.086 156.077 728.311 156.077C726.23 156.077 725.19 155.079 725.19 153.082V147.019H723.399V145.113H725.19V142.631L727.62 141.94V145.113H730.185V147.019H727.62V152.381C727.62 153.016 727.735 153.47 727.965 153.742C728.196 154.014 728.579 154.15 729.117 154.15C729.529 154.15 729.885 154.032 730.185 153.794V155.721ZM741.809 155.836H739.38V149.972C739.38 147.85 738.671 146.789 737.254 146.789C736.542 146.789 735.941 147.096 735.453 147.71C734.964 148.325 734.72 149.11 734.72 150.066V155.836H732.28V139.961H734.72V146.893H734.761C735.571 145.539 736.73 144.862 738.238 144.862C740.619 144.862 741.809 146.317 741.809 149.229V155.836ZM750.982 147.427C750.689 147.197 750.267 147.082 749.715 147.082C748.996 147.082 748.396 147.407 747.914 148.056C747.432 148.705 747.192 149.588 747.192 150.705V155.836H744.762V145.113H747.192V147.323H747.233C747.471 146.569 747.834 145.982 748.323 145.563C748.818 145.138 749.37 144.925 749.977 144.925C750.417 144.925 750.752 144.991 750.982 145.124V147.427ZM757.266 156.088C755.611 156.088 754.288 155.589 753.297 154.59C752.312 153.585 751.82 152.255 751.82 150.6C751.82 148.799 752.333 147.393 753.36 146.38C754.393 145.368 755.782 144.862 757.527 144.862C759.203 144.862 760.508 145.354 761.444 146.338C762.379 147.323 762.847 148.688 762.847 150.433C762.847 152.143 762.341 153.515 761.329 154.548C760.323 155.575 758.969 156.088 757.266 156.088ZM757.381 146.799C756.431 146.799 755.681 147.131 755.129 147.794C754.578 148.457 754.302 149.372 754.302 150.538C754.302 151.662 754.581 152.548 755.14 153.197C755.698 153.84 756.445 154.161 757.381 154.161C758.337 154.161 759.07 153.843 759.58 153.208C760.097 152.573 760.355 151.669 760.355 150.496C760.355 149.316 760.097 148.405 759.58 147.763C759.07 147.12 758.337 146.799 757.381 146.799ZM774.68 155.836H772.251V154.14H772.209C771.504 155.438 770.408 156.088 768.921 156.088C766.387 156.088 765.12 154.566 765.12 151.522V145.113H767.549V151.271C767.549 153.197 768.293 154.161 769.78 154.161C770.499 154.161 771.089 153.896 771.549 153.365C772.017 152.834 772.251 152.14 772.251 151.281V145.113H774.68V155.836ZM787.613 154.978C787.613 158.915 785.634 160.884 781.676 160.884C780.279 160.884 779.061 160.65 778.021 160.182V157.962C779.194 158.632 780.307 158.968 781.362 158.968C783.91 158.968 785.184 157.714 785.184 155.208V154.035H785.142C784.339 155.404 783.131 156.088 781.519 156.088C780.213 156.088 779.159 155.613 778.356 154.664C777.56 153.707 777.162 152.426 777.162 150.82C777.162 148.998 777.592 147.55 778.45 146.475C779.309 145.399 780.489 144.862 781.99 144.862C783.407 144.862 784.458 145.441 785.142 146.6H785.184V145.113H787.613V154.978ZM785.205 150.925V149.532C785.205 148.778 784.953 148.136 784.451 147.605C783.955 147.068 783.334 146.799 782.587 146.799C781.665 146.799 780.943 147.141 780.419 147.825C779.902 148.503 779.644 149.452 779.644 150.674C779.644 151.728 779.892 152.573 780.388 153.208C780.89 153.836 781.553 154.15 782.377 154.15C783.215 154.15 783.896 153.85 784.419 153.25C784.943 152.642 785.205 151.868 785.205 150.925ZM800.305 155.836H797.876V149.972C797.876 147.85 797.167 146.789 795.75 146.789C795.038 146.789 794.437 147.096 793.949 147.71C793.46 148.325 793.216 149.11 793.216 150.066V155.836H790.776V139.961H793.216V146.893H793.258C794.067 145.539 795.226 144.862 796.734 144.862C799.115 144.862 800.305 146.317 800.305 149.229V155.836ZM818.893 155.836H815.814L811.646 150.684H811.604V155.836H809.164V139.961H811.604V150.025H811.646L815.584 145.113H818.505L814.076 150.286L818.893 155.836ZM829.134 151.135H821.825C821.853 152.126 822.157 152.89 822.736 153.428C823.323 153.965 824.125 154.234 825.145 154.234C826.29 154.234 827.34 153.892 828.297 153.208V155.166C827.319 155.781 826.028 156.088 824.422 156.088C822.844 156.088 821.605 155.603 820.705 154.632C819.811 153.655 819.364 152.283 819.364 150.517C819.364 148.848 819.856 147.49 820.841 146.443C821.832 145.389 823.061 144.862 824.527 144.862C825.993 144.862 827.127 145.333 827.93 146.276C828.733 147.218 829.134 148.527 829.134 150.203V151.135ZM826.789 149.417C826.782 148.544 826.576 147.867 826.171 147.386C825.766 146.897 825.207 146.653 824.495 146.653C823.797 146.653 823.204 146.907 822.715 147.417C822.233 147.927 821.937 148.593 821.825 149.417H826.789ZM840.737 145.113L835.899 157.554C834.894 159.774 833.484 160.884 831.669 160.884C831.159 160.884 830.733 160.839 830.391 160.748V158.727C830.775 158.852 831.124 158.915 831.438 158.915C832.346 158.915 833.023 158.468 833.47 157.575L834.192 155.815L829.93 145.113H832.622L835.177 152.904C835.205 153.002 835.268 153.26 835.365 153.679H835.418C835.453 153.519 835.515 153.267 835.606 152.925L838.287 145.113H840.737ZM856.78 145.113L853.618 155.836H851.073L849.125 148.569C849.049 148.29 849 147.975 848.979 147.626H848.937C848.923 147.864 848.86 148.171 848.748 148.548L846.633 155.836H844.141L840.989 145.113H843.502L845.45 152.841C845.513 153.072 845.554 153.379 845.575 153.763H845.649C845.67 153.47 845.725 153.156 845.816 152.821L847.984 145.113H850.267L852.194 152.873C852.256 153.117 852.302 153.424 852.33 153.794H852.403C852.417 153.536 852.469 153.229 852.56 152.873L854.466 145.113H856.78ZM863.262 156.088C861.608 156.088 860.285 155.589 859.294 154.59C858.309 153.585 857.817 152.255 857.817 150.6C857.817 148.799 858.33 147.393 859.356 146.38C860.39 145.368 861.779 144.862 863.524 144.862C865.2 144.862 866.505 145.354 867.441 146.338C868.376 147.323 868.844 148.688 868.844 150.433C868.844 152.143 868.338 153.515 867.326 154.548C866.32 155.575 864.966 156.088 863.262 156.088ZM863.378 146.799C862.428 146.799 861.678 147.131 861.126 147.794C860.575 148.457 860.299 149.372 860.299 150.538C860.299 151.662 860.578 152.548 861.137 153.197C861.695 153.84 862.442 154.161 863.378 154.161C864.334 154.161 865.067 153.843 865.577 153.208C866.093 152.573 866.352 151.669 866.352 150.496C866.352 149.316 866.093 148.405 865.577 147.763C865.067 147.12 864.334 146.799 863.378 146.799ZM877.546 147.427C877.253 147.197 876.831 147.082 876.279 147.082C875.56 147.082 874.96 147.407 874.478 148.056C873.996 148.705 873.755 149.588 873.755 150.705V155.836H871.326V145.113H873.755V147.323H873.797C874.035 146.569 874.398 145.982 874.886 145.563C875.382 145.138 875.934 144.925 876.541 144.925C876.981 144.925 877.316 144.991 877.546 145.124V147.427ZM888.824 155.836H886.395V154.014H886.353C885.571 155.397 884.367 156.088 882.74 156.088C881.421 156.088 880.363 155.61 879.567 154.653C878.778 153.69 878.384 152.381 878.384 150.726C878.384 148.953 878.82 147.532 879.693 146.464C880.573 145.396 881.742 144.862 883.201 144.862C884.646 144.862 885.697 145.441 886.353 146.6H886.395V139.961H888.824V155.836ZM886.426 150.936V149.532C886.426 148.771 886.179 148.126 885.683 147.595C885.187 147.064 884.555 146.799 883.787 146.799C882.88 146.799 882.164 147.138 881.641 147.815C881.124 148.492 880.866 149.431 880.866 150.632C880.866 151.721 881.114 152.583 881.609 153.218C882.112 153.847 882.786 154.161 883.63 154.161C884.461 154.161 885.135 153.857 885.651 153.25C886.168 152.636 886.426 151.864 886.426 150.936ZM891.327 155.501V153.25C892.235 153.941 893.237 154.287 894.333 154.287C895.799 154.287 896.532 153.854 896.532 152.988C896.532 152.744 896.469 152.538 896.343 152.37C896.218 152.196 896.047 152.042 895.83 151.909C895.621 151.777 895.369 151.658 895.076 151.553C894.79 151.449 894.469 151.33 894.113 151.197C893.673 151.023 893.275 150.838 892.919 150.642C892.57 150.447 892.277 150.227 892.039 149.983C891.809 149.731 891.634 149.449 891.516 149.134C891.397 148.82 891.338 148.454 891.338 148.035C891.338 147.518 891.46 147.064 891.704 146.673C891.949 146.276 892.277 145.944 892.689 145.679C893.1 145.406 893.568 145.204 894.092 145.071C894.615 144.932 895.156 144.862 895.715 144.862C896.706 144.862 897.593 145.012 898.375 145.312V147.438C897.621 146.921 896.755 146.663 895.778 146.663C895.471 146.663 895.191 146.694 894.94 146.757C894.696 146.82 894.486 146.907 894.312 147.019C894.137 147.131 894.001 147.267 893.903 147.427C893.806 147.581 893.757 147.752 893.757 147.941C893.757 148.171 893.806 148.366 893.903 148.527C894.001 148.688 894.144 148.831 894.333 148.956C894.528 149.075 894.759 149.187 895.024 149.291C895.296 149.389 895.607 149.497 895.956 149.616C896.417 149.805 896.828 149.997 897.192 150.192C897.562 150.388 897.876 150.611 898.134 150.862C898.392 151.107 898.591 151.393 898.731 151.721C898.871 152.042 898.94 152.426 898.94 152.873C898.94 153.417 898.815 153.892 898.563 154.297C898.312 154.702 897.977 155.037 897.558 155.302C897.139 155.568 896.654 155.763 896.102 155.889C895.558 156.021 894.982 156.088 894.375 156.088C893.202 156.088 892.186 155.892 891.327 155.501Z" fill="#171717"/>
<path d="M681.7 52.8358L676.307 67.8525H673.522L668.223 52.8358H670.945L674.653 64.2293C674.771 64.5923 674.862 65.0146 674.925 65.4964H674.967C675.016 65.0984 675.117 64.6691 675.27 64.2083L679.061 52.8358H681.7ZM684.643 54.8778C684.245 54.8778 683.903 54.7487 683.617 54.4904C683.337 54.232 683.198 53.9039 683.198 53.506C683.198 53.1081 683.337 52.7765 683.617 52.5112C683.903 52.2459 684.245 52.1132 684.643 52.1132C685.055 52.1132 685.404 52.2459 685.69 52.5112C685.976 52.7765 686.119 53.1081 686.119 53.506C686.119 53.883 685.976 54.2076 685.69 54.4799C685.404 54.7452 685.055 54.8778 684.643 54.8778ZM685.847 67.8525H683.418V57.1293H685.847V67.8525ZM698.11 63.1506H690.8C690.828 64.142 691.132 64.9064 691.711 65.444C692.298 65.9816 693.101 66.2503 694.12 66.2503C695.265 66.2503 696.315 65.9083 697.272 65.2241V67.1823C696.295 67.7967 695.003 68.1039 693.397 68.1039C691.82 68.1039 690.58 67.6187 689.68 66.6483C688.786 65.6709 688.339 64.2991 688.339 62.5328C688.339 60.8643 688.832 59.5064 689.816 58.4592C690.807 57.405 692.036 56.878 693.502 56.878C694.968 56.878 696.103 57.3492 696.905 58.2917C697.708 59.2341 698.11 60.5431 698.11 62.2186V63.1506ZM695.764 61.4332C695.757 60.5606 695.551 59.8834 695.146 59.4017C694.741 58.913 694.183 58.6687 693.471 58.6687C692.772 58.6687 692.179 58.9235 691.69 59.4331C691.209 59.9427 690.912 60.6095 690.8 61.4332H695.764ZM714.844 57.1293L711.681 67.8525H709.137L707.189 60.585C707.112 60.3058 707.063 59.9916 707.042 59.6425H707C706.986 59.8799 706.924 60.1871 706.812 60.5641L704.697 67.8525H702.204L699.052 57.1293H701.565L703.513 64.8576C703.576 65.0879 703.618 65.3951 703.639 65.7791H703.712C703.733 65.4859 703.789 65.1717 703.88 64.8366L706.047 57.1293H708.33L710.257 64.889C710.32 65.1333 710.365 65.4405 710.393 65.8105H710.467C710.481 65.5522 710.533 65.245 710.624 64.889L712.53 57.1293H714.844ZM721.891 67.5174V65.266C722.799 65.9571 723.801 66.3027 724.897 66.3027C726.363 66.3027 727.096 65.8699 727.096 65.0042C727.096 64.7598 727.033 64.5539 726.907 64.3863C726.782 64.2118 726.611 64.0582 726.394 63.9256C726.185 63.7929 725.934 63.6742 725.64 63.5695C725.354 63.4648 725.033 63.3461 724.677 63.2135C724.237 63.0389 723.839 62.8539 723.483 62.6585C723.134 62.463 722.841 62.2431 722.604 61.9987C722.373 61.7474 722.199 61.4647 722.08 61.1505C721.961 60.8363 721.902 60.4698 721.902 60.051C721.902 59.5343 722.024 59.0806 722.268 58.6896C722.513 58.2917 722.841 57.9601 723.253 57.6948C723.665 57.4225 724.132 57.22 724.656 57.0874C725.18 56.9478 725.721 56.878 726.279 56.878C727.271 56.878 728.157 57.0281 728.939 57.3282V59.4541C728.185 58.9374 727.319 58.6791 726.342 58.6791C726.035 58.6791 725.756 58.7105 725.504 58.7734C725.26 58.8362 725.05 58.9235 724.876 59.0352C724.701 59.1469 724.565 59.283 724.468 59.4436C724.37 59.5972 724.321 59.7682 724.321 59.9567C724.321 60.1871 724.37 60.3826 724.468 60.5431C724.565 60.7037 724.708 60.8468 724.897 60.9725C725.092 61.0912 725.323 61.2029 725.588 61.3076C725.86 61.4053 726.171 61.5135 726.52 61.6322C726.981 61.8207 727.393 62.0127 727.756 62.2082C728.126 62.4036 728.44 62.627 728.698 62.8784C728.956 63.1227 729.155 63.409 729.295 63.7371C729.435 64.0582 729.505 64.4422 729.505 64.889C729.505 65.4335 729.379 65.9083 729.128 66.3132C728.876 66.7181 728.541 67.0532 728.122 67.3185C727.703 67.5838 727.218 67.7792 726.667 67.9049C726.122 68.0375 725.546 68.1039 724.939 68.1039C723.766 68.1039 722.75 67.9084 721.891 67.5174ZM740.05 67.8525H737.694V66.177H737.652C736.912 67.4616 735.826 68.1039 734.395 68.1039C733.341 68.1039 732.513 67.8176 731.913 67.2452C731.32 66.6727 731.023 65.9152 731.023 64.9728C731.023 62.9482 732.189 61.7683 734.521 61.4332L737.704 60.983C737.704 59.4541 736.978 58.6896 735.526 58.6896C734.248 58.6896 733.096 59.1294 732.07 60.0091V57.8833C733.201 57.2131 734.507 56.878 735.987 56.878C738.695 56.878 740.05 58.2114 740.05 60.8782V67.8525ZM737.704 62.5852L735.453 62.8993C734.754 62.9901 734.227 63.1611 733.871 63.4124C733.522 63.6568 733.348 64.0896 733.348 64.711C733.348 65.1647 733.508 65.5382 733.829 65.8315C734.158 66.1177 734.594 66.2608 735.138 66.2608C735.878 66.2608 736.489 66.0025 736.971 65.4859C737.46 64.9623 737.704 64.306 737.704 63.5172V62.5852ZM752.26 57.1293L748.113 67.8525H745.485L741.537 57.1293H744.176L746.553 64.6272C746.734 65.1787 746.846 65.6604 746.888 66.0723H746.919C746.982 65.5557 747.08 65.0879 747.213 64.6691L749.705 57.1293H752.26ZM762.826 63.1506H755.517C755.545 64.142 755.848 64.9064 756.428 65.444C757.014 65.9816 757.817 66.2503 758.836 66.2503C759.981 66.2503 761.032 65.9083 761.988 65.2241V67.1823C761.011 67.7967 759.72 68.1039 758.114 68.1039C756.536 68.1039 755.297 67.6187 754.396 66.6483C753.503 65.6709 753.056 64.2991 753.056 62.5328C753.056 60.8643 753.548 59.5064 754.532 58.4592C755.524 57.405 756.752 56.878 758.219 56.878C759.685 56.878 760.819 57.3492 761.622 58.2917C762.425 59.2341 762.826 60.5431 762.826 62.2186V63.1506ZM760.48 61.4332C760.473 60.5606 760.268 59.8834 759.863 59.4017C759.458 58.913 758.899 58.6687 758.187 58.6687C757.489 58.6687 756.896 58.9235 756.407 59.4331C755.925 59.9427 755.628 60.6095 755.517 61.4332H760.48ZM774.89 67.8525H772.46V66.0304H772.418C771.637 67.4127 770.432 68.1039 768.806 68.1039C767.486 68.1039 766.429 67.6256 765.633 66.6692C764.844 65.7058 764.449 64.3968 764.449 62.7422C764.449 60.969 764.886 59.5483 765.758 58.4802C766.638 57.412 767.807 56.878 769.266 56.878C770.712 56.878 771.762 57.4574 772.418 58.6163H772.46V51.9771H774.89V67.8525ZM772.492 62.9517V61.5484C772.492 60.7875 772.244 60.1417 771.748 59.6111C771.253 59.0806 770.621 58.8153 769.853 58.8153C768.945 58.8153 768.23 59.1539 767.706 59.831C767.189 60.5082 766.931 61.4472 766.931 62.648C766.931 63.7371 767.179 64.5993 767.675 65.2346C768.177 65.8629 768.851 66.177 769.696 66.177C770.527 66.177 771.2 65.8733 771.717 65.266C772.233 64.6516 772.492 63.8802 772.492 62.9517ZM790.032 53.9563C789.704 53.7678 789.331 53.6735 788.912 53.6735C787.732 53.6735 787.142 54.3403 787.142 55.6737V57.1293H789.634V59.0352H787.152V67.8525H784.723V59.0352H782.89V57.1293H784.723V55.3909C784.723 54.26 785.093 53.3699 785.833 52.7206C786.573 52.0644 787.498 51.7362 788.608 51.7362C789.208 51.7362 789.683 51.8026 790.032 51.9352V53.9563ZM792.587 54.8778C792.189 54.8778 791.847 54.7487 791.561 54.4904C791.282 54.232 791.142 53.9039 791.142 53.506C791.142 53.1081 791.282 52.7765 791.561 52.5112C791.847 52.2459 792.189 52.1132 792.587 52.1132C792.999 52.1132 793.348 52.2459 793.635 52.5112C793.921 52.7765 794.064 53.1081 794.064 53.506C794.064 53.883 793.921 54.2076 793.635 54.4799C793.348 54.7452 792.999 54.8778 792.587 54.8778ZM793.792 67.8525H791.362V57.1293H793.792V67.8525ZM799.415 67.8525H796.975V51.9771H799.415V67.8525ZM808.243 67.7373C807.768 67.9747 807.143 68.0934 806.368 68.0934C804.288 68.0934 803.248 67.0951 803.248 65.0984V59.0352H801.457V57.1293H803.248V54.6474L805.677 53.9563V57.1293H808.243V59.0352H805.677V64.3968C805.677 65.0321 805.793 65.4859 806.023 65.7582C806.253 66.0304 806.637 66.1666 807.175 66.1666C807.587 66.1666 807.943 66.0479 808.243 65.8105V67.7373ZM819.291 63.1506H811.981C812.009 64.142 812.313 64.9064 812.892 65.444C813.479 65.9816 814.282 66.2503 815.301 66.2503C816.446 66.2503 817.497 65.9083 818.453 65.2241V67.1823C817.476 67.7967 816.184 68.1039 814.578 68.1039C813.001 68.1039 811.762 67.6187 810.861 66.6483C809.967 65.6709 809.521 64.2991 809.521 62.5328C809.521 60.8643 810.013 59.5064 810.997 58.4592C811.988 57.405 813.217 56.878 814.683 56.878C816.149 56.878 817.284 57.3492 818.087 58.2917C818.889 59.2341 819.291 60.5431 819.291 62.2186V63.1506ZM816.945 61.4332C816.938 60.5606 816.732 59.8834 816.327 59.4017C815.922 58.913 815.364 58.6687 814.652 58.6687C813.954 58.6687 813.36 58.9235 812.872 59.4331C812.39 59.9427 812.093 60.6095 811.981 61.4332H816.945ZM827.825 59.4436C827.532 59.2132 827.11 59.098 826.558 59.098C825.839 59.098 825.239 59.4226 824.757 60.0719C824.275 60.7212 824.035 61.6043 824.035 62.7213V67.8525H821.605V57.1293H824.035V59.3389H824.077C824.314 58.5849 824.677 57.9985 825.166 57.5796C825.661 57.1537 826.213 56.9408 826.82 56.9408C827.26 56.9408 827.595 57.0071 827.825 57.1398V59.4436ZM829.019 67.5174V65.266C829.927 65.9571 830.929 66.3027 832.025 66.3027C833.491 66.3027 834.224 65.8699 834.224 65.0042C834.224 64.7598 834.161 64.5539 834.035 64.3863C833.91 64.2118 833.739 64.0582 833.522 63.9256C833.313 63.7929 833.061 63.6742 832.768 63.5695C832.482 63.4648 832.161 63.3461 831.805 63.2135C831.365 63.0389 830.967 62.8539 830.611 62.6585C830.262 62.463 829.969 62.2431 829.731 61.9987C829.501 61.7474 829.326 61.4647 829.208 61.1505C829.089 60.8363 829.03 60.4698 829.03 60.051C829.03 59.5343 829.152 59.0806 829.396 58.6896C829.641 58.2917 829.969 57.9601 830.381 57.6948C830.793 57.4225 831.26 57.22 831.784 57.0874C832.307 56.9478 832.848 56.878 833.407 56.878C834.398 56.878 835.285 57.0281 836.067 57.3282V59.4541C835.313 58.9374 834.447 58.6791 833.47 58.6791C833.163 58.6791 832.883 58.7105 832.632 58.7734C832.388 58.8362 832.178 58.9235 832.004 59.0352C831.829 59.1469 831.693 59.283 831.595 59.4436C831.498 59.5972 831.449 59.7682 831.449 59.9567C831.449 60.1871 831.498 60.3826 831.595 60.5431C831.693 60.7037 831.836 60.8468 832.025 60.9725C832.22 61.0912 832.451 61.2029 832.716 61.3076C832.988 61.4053 833.299 61.5135 833.648 61.6322C834.109 61.8207 834.521 62.0127 834.884 62.2082C835.254 62.4036 835.568 62.627 835.826 62.8784C836.084 63.1227 836.283 63.409 836.423 63.7371C836.563 64.0582 836.632 64.4422 836.632 64.889C836.632 65.4335 836.507 65.9083 836.255 66.3132C836.004 66.7181 835.669 67.0532 835.25 67.3185C834.831 67.5838 834.346 67.7792 833.794 67.9049C833.25 68.0375 832.674 68.1039 832.067 68.1039C830.894 68.1039 829.878 67.9084 829.019 67.5174Z" fill="#0064C1"/>
<defs>
<clipPath id="clip0_8_4328">
<path d="M668.775 172.187C668.775 169.978 670.566 168.187 672.775 168.187H923.174C925.383 168.187 927.174 169.978 927.174 172.187V206.272C927.174 208.481 925.383 210.272 923.174 210.272H672.775C670.566 210.272 668.775 208.481 668.775 206.272V172.187Z" fill="white"/>
</clipPath>
</defs>
</svg>
