<svg width="1600" height="250" viewBox="0 0 1600 250" fill="none" xmlns="http://www.w3.org/2000/svg">
<rect x="0.5" y="0.5" width="1599" height="249" fill="#EDEDED" stroke="#C8C8C8"/>
<g filter="url(#filter0_dd_8_4391)">
<rect x="614" y="28" width="373" height="194" rx="4" fill="white"/>
<path d="M644.21 88V78.1973H647.04C650.654 78.1973 652.461 79.79 652.461 82.9756C652.461 84.4886 651.96 85.7054 650.957 86.626C649.954 87.542 648.61 88 646.924 88H644.21ZM645.83 79.5781V86.626H647.129C648.273 86.626 649.161 86.3115 649.795 85.6826C650.433 85.0537 650.752 84.165 650.752 83.0166C650.752 80.7243 649.565 79.5781 647.19 79.5781H645.83ZM654.881 79.5303C654.621 79.5303 654.398 79.446 654.211 79.2773C654.029 79.1087 653.938 78.8945 653.938 78.6348C653.938 78.375 654.029 78.1585 654.211 77.9854C654.398 77.8122 654.621 77.7256 654.881 77.7256C655.15 77.7256 655.378 77.8122 655.564 77.9854C655.751 78.1585 655.845 78.375 655.845 78.6348C655.845 78.8809 655.751 79.0928 655.564 79.2705C655.378 79.4437 655.15 79.5303 654.881 79.5303ZM655.667 88H654.081V81H655.667V88ZM663.118 88H661.58V86.9062H661.553C661.07 87.7448 660.361 88.1641 659.427 88.1641C658.739 88.1641 658.199 87.9772 657.807 87.6035C657.419 87.2298 657.226 86.7354 657.226 86.1201C657.226 84.7985 657.987 84.0283 659.509 83.8096L661.587 83.5156C661.587 82.5176 661.113 82.0186 660.165 82.0186C659.331 82.0186 658.579 82.3057 657.909 82.8799V81.4922C658.647 81.0547 659.5 80.8359 660.466 80.8359C662.234 80.8359 663.118 81.7064 663.118 83.4473V88ZM661.587 84.5615L660.117 84.7666C659.661 84.8258 659.317 84.9375 659.085 85.1016C658.857 85.2611 658.743 85.5436 658.743 85.9492C658.743 86.2454 658.848 86.4893 659.058 86.6807C659.272 86.8675 659.557 86.9609 659.912 86.9609C660.395 86.9609 660.794 86.7923 661.108 86.4551C661.427 86.1133 661.587 85.6849 661.587 85.1699V84.5615ZM666.652 88H665.06V77.6367H666.652V88ZM671.827 88.1641C670.747 88.1641 669.883 87.8382 669.236 87.1865C668.594 86.5303 668.272 85.6621 668.272 84.582C668.272 83.4062 668.607 82.488 669.277 81.8271C669.952 81.1663 670.859 80.8359 671.998 80.8359C673.092 80.8359 673.944 81.1572 674.555 81.7998C675.165 82.4424 675.471 83.3333 675.471 84.4727C675.471 85.5892 675.14 86.4847 674.479 87.1592C673.823 87.8291 672.939 88.1641 671.827 88.1641ZM671.902 82.1006C671.283 82.1006 670.793 82.3171 670.433 82.75C670.073 83.1829 669.893 83.7799 669.893 84.541C669.893 85.2747 670.075 85.8535 670.439 86.2773C670.804 86.6966 671.292 86.9062 671.902 86.9062C672.527 86.9062 673.005 86.6989 673.338 86.2842C673.675 85.8695 673.844 85.2793 673.844 84.5137C673.844 83.7435 673.675 83.1488 673.338 82.7295C673.005 82.3102 672.527 82.1006 671.902 82.1006ZM683.462 87.4395C683.462 90.0098 682.17 91.2949 679.586 91.2949C678.674 91.2949 677.879 91.1423 677.2 90.8369V89.3877C677.966 89.8252 678.693 90.0439 679.381 90.0439C681.044 90.0439 681.876 89.2259 681.876 87.5898V86.8242H681.849C681.325 87.7174 680.536 88.1641 679.483 88.1641C678.631 88.1641 677.943 87.8542 677.419 87.2344C676.899 86.61 676.64 85.7738 676.64 84.7256C676.64 83.5361 676.92 82.5905 677.48 81.8887C678.041 81.1868 678.811 80.8359 679.791 80.8359C680.716 80.8359 681.402 81.2142 681.849 81.9707H681.876V81H683.462V87.4395ZM681.89 84.7939V83.8848C681.89 83.3926 681.726 82.9733 681.397 82.627C681.074 82.276 680.668 82.1006 680.181 82.1006C679.579 82.1006 679.107 82.3239 678.766 82.7705C678.428 83.2126 678.26 83.8324 678.26 84.6299C678.26 85.318 678.422 85.8695 678.745 86.2842C679.073 86.6943 679.506 86.8994 680.044 86.8994C680.591 86.8994 681.035 86.7035 681.377 86.3115C681.719 85.915 681.89 85.4092 681.89 84.7939ZM691.631 88H690.045V86.8926H690.018C689.557 87.7402 688.842 88.1641 687.871 88.1641C686.217 88.1641 685.39 87.1706 685.39 85.1836V81H686.976V85.0195C686.976 86.2773 687.461 86.9062 688.432 86.9062C688.901 86.9062 689.286 86.7331 689.587 86.3867C689.892 86.0404 690.045 85.5869 690.045 85.0264V81H691.631V88ZM699.629 84.9307H694.857C694.876 85.5778 695.074 86.0768 695.452 86.4277C695.835 86.7786 696.359 86.9541 697.024 86.9541C697.772 86.9541 698.458 86.7308 699.082 86.2842V87.5625C698.444 87.9635 697.601 88.1641 696.553 88.1641C695.523 88.1641 694.714 87.8473 694.126 87.2139C693.543 86.5758 693.251 85.6803 693.251 84.5273C693.251 83.4382 693.572 82.5518 694.215 81.8682C694.862 81.18 695.664 80.8359 696.621 80.8359C697.578 80.8359 698.319 81.1436 698.843 81.7588C699.367 82.374 699.629 83.2285 699.629 84.3223V84.9307ZM698.098 83.8096C698.093 83.2399 697.959 82.7979 697.694 82.4834C697.43 82.1644 697.065 82.0049 696.601 82.0049C696.145 82.0049 695.757 82.1712 695.438 82.5039C695.124 82.8366 694.93 83.2718 694.857 83.8096H698.098ZM714.408 81L712.344 88H710.683L709.411 83.2559C709.361 83.0736 709.329 82.8685 709.315 82.6406H709.288C709.279 82.7956 709.238 82.9961 709.165 83.2422L707.784 88H706.157L704.1 81H705.74L707.012 86.0449C707.053 86.1953 707.08 86.3958 707.094 86.6465H707.142C707.155 86.4551 707.192 86.25 707.251 86.0312L708.666 81H710.156L711.414 86.0654C711.455 86.2249 711.485 86.4255 711.503 86.667H711.551C711.56 86.4984 711.594 86.2979 711.653 86.0654L712.897 81H714.408ZM716.391 79.5303C716.131 79.5303 715.908 79.446 715.721 79.2773C715.538 79.1087 715.447 78.8945 715.447 78.6348C715.447 78.375 715.538 78.1585 715.721 77.9854C715.908 77.8122 716.131 77.7256 716.391 77.7256C716.66 77.7256 716.887 77.8122 717.074 77.9854C717.261 78.1585 717.354 78.375 717.354 78.6348C717.354 78.8809 717.261 79.0928 717.074 79.2705C716.887 79.4437 716.66 79.5303 716.391 79.5303ZM717.177 88H715.591V81H717.177V88ZM722.946 87.9248C722.636 88.0798 722.229 88.1572 721.723 88.1572C720.365 88.1572 719.686 87.5055 719.686 86.2021V82.2441H718.517V81H719.686V79.3799L721.271 78.9287V81H722.946V82.2441H721.271V85.7441C721.271 86.1589 721.347 86.4551 721.497 86.6328C721.647 86.8105 721.898 86.8994 722.249 86.8994C722.518 86.8994 722.75 86.8219 722.946 86.667V87.9248ZM730.534 88H728.948V84.1719C728.948 82.7865 728.486 82.0938 727.561 82.0938C727.096 82.0938 726.704 82.2943 726.385 82.6953C726.066 83.0964 725.906 83.609 725.906 84.2334V88H724.313V77.6367H725.906V82.1621H725.934C726.462 81.278 727.219 80.8359 728.203 80.8359C729.757 80.8359 730.534 81.7861 730.534 83.6865V88ZM741.69 88H740.152V86.9062H740.125C739.642 87.7448 738.933 88.1641 737.999 88.1641C737.311 88.1641 736.771 87.9772 736.379 87.6035C735.992 87.2298 735.798 86.7354 735.798 86.1201C735.798 84.7985 736.559 84.0283 738.081 83.8096L740.159 83.5156C740.159 82.5176 739.685 82.0186 738.737 82.0186C737.903 82.0186 737.151 82.3057 736.481 82.8799V81.4922C737.22 81.0547 738.072 80.8359 739.038 80.8359C740.806 80.8359 741.69 81.7064 741.69 83.4473V88ZM740.159 84.5615L738.689 84.7666C738.234 84.8258 737.89 84.9375 737.657 85.1016C737.429 85.2611 737.315 85.5436 737.315 85.9492C737.315 86.2454 737.42 86.4893 737.63 86.6807C737.844 86.8675 738.129 86.9609 738.484 86.9609C738.967 86.9609 739.366 86.7923 739.681 86.4551C740 86.1133 740.159 85.6849 740.159 85.1699V84.5615ZM747.05 87.7812V86.3115C747.642 86.7627 748.296 86.9883 749.012 86.9883C749.969 86.9883 750.447 86.7057 750.447 86.1406C750.447 85.9811 750.406 85.8467 750.324 85.7373C750.242 85.6234 750.131 85.5231 749.989 85.4365C749.853 85.3499 749.688 85.2725 749.497 85.2041C749.31 85.1357 749.101 85.0583 748.868 84.9717C748.581 84.8577 748.321 84.737 748.089 84.6094C747.861 84.4818 747.67 84.3382 747.515 84.1787C747.364 84.0146 747.25 83.8301 747.173 83.625C747.095 83.4199 747.057 83.1807 747.057 82.9072C747.057 82.57 747.136 82.2738 747.296 82.0186C747.455 81.7588 747.67 81.5423 747.938 81.3691C748.207 81.1914 748.513 81.0592 748.854 80.9727C749.196 80.8815 749.549 80.8359 749.914 80.8359C750.561 80.8359 751.14 80.9339 751.65 81.1299V82.5176C751.158 82.1803 750.593 82.0117 749.955 82.0117C749.755 82.0117 749.572 82.0322 749.408 82.0732C749.249 82.1143 749.112 82.1712 748.998 82.2441C748.884 82.3171 748.795 82.4059 748.731 82.5107C748.668 82.611 748.636 82.7227 748.636 82.8457C748.636 82.9961 748.668 83.1237 748.731 83.2285C748.795 83.3333 748.889 83.4268 749.012 83.5088C749.139 83.5863 749.29 83.6592 749.463 83.7275C749.641 83.7913 749.843 83.862 750.071 83.9395C750.372 84.0625 750.641 84.1878 750.878 84.3154C751.119 84.443 751.325 84.5889 751.493 84.7529C751.662 84.9124 751.792 85.0993 751.883 85.3135C751.974 85.5231 752.02 85.7738 752.02 86.0654C752.02 86.4209 751.938 86.7308 751.773 86.9951C751.609 87.2594 751.391 87.4782 751.117 87.6514C750.844 87.8245 750.527 87.9521 750.167 88.0342C749.812 88.1208 749.436 88.1641 749.039 88.1641C748.273 88.1641 747.61 88.0365 747.05 87.7812ZM759.635 88H758.049V86.8926H758.021C757.561 87.7402 756.846 88.1641 755.875 88.1641C754.221 88.1641 753.394 87.1706 753.394 85.1836V81H754.979V85.0195C754.979 86.2773 755.465 86.9062 756.436 86.9062C756.905 86.9062 757.29 86.7331 757.591 86.3867C757.896 86.0404 758.049 85.5869 758.049 85.0264V81H759.635V88ZM766.717 87.6787C766.156 88.0023 765.493 88.1641 764.728 88.1641C763.688 88.1641 762.85 87.8405 762.212 87.1934C761.574 86.5417 761.255 85.6986 761.255 84.6641C761.255 83.5111 761.597 82.5859 762.28 81.8887C762.968 81.1868 763.887 80.8359 765.035 80.8359C765.673 80.8359 766.236 80.9476 766.724 81.1709V82.6475C766.236 82.2829 765.716 82.1006 765.165 82.1006C764.495 82.1006 763.946 82.3285 763.518 82.7842C763.089 83.2354 762.875 83.8278 762.875 84.5615C762.875 85.2861 763.076 85.8581 763.477 86.2773C763.882 86.6966 764.424 86.9062 765.104 86.9062C765.673 86.9062 766.211 86.7035 766.717 86.2979V87.6787ZM773.307 87.6787C772.746 88.0023 772.083 88.1641 771.317 88.1641C770.278 88.1641 769.44 87.8405 768.802 87.1934C768.164 86.5417 767.845 85.6986 767.845 84.6641C767.845 83.5111 768.187 82.5859 768.87 81.8887C769.558 81.1868 770.477 80.8359 771.625 80.8359C772.263 80.8359 772.826 80.9476 773.313 81.1709V82.6475C772.826 82.2829 772.306 82.1006 771.755 82.1006C771.085 82.1006 770.536 82.3285 770.107 82.7842C769.679 83.2354 769.465 83.8278 769.465 84.5615C769.465 85.2861 769.665 85.8581 770.066 86.2773C770.472 86.6966 771.014 86.9062 771.693 86.9062C772.263 86.9062 772.801 86.7035 773.307 86.2979V87.6787ZM775.686 79.5303C775.426 79.5303 775.202 79.446 775.016 79.2773C774.833 79.1087 774.742 78.8945 774.742 78.6348C774.742 78.375 774.833 78.1585 775.016 77.9854C775.202 77.8122 775.426 77.7256 775.686 77.7256C775.954 77.7256 776.182 77.8122 776.369 77.9854C776.556 78.1585 776.649 78.375 776.649 78.6348C776.649 78.8809 776.556 79.0928 776.369 79.2705C776.182 79.4437 775.954 79.5303 775.686 79.5303ZM776.472 88H774.886V81H776.472V88ZM784.784 88H783.198V84.0557C783.198 82.7477 782.736 82.0938 781.811 82.0938C781.327 82.0938 780.929 82.276 780.614 82.6406C780.3 83.0007 780.143 83.4564 780.143 84.0078V88H778.55V81H780.143V82.1621H780.17C780.694 81.278 781.451 80.8359 782.439 80.8359C783.201 80.8359 783.782 81.0843 784.183 81.5811C784.584 82.0732 784.784 82.7865 784.784 83.7207V88ZM790.417 87.9248C790.107 88.0798 789.699 88.1572 789.193 88.1572C787.835 88.1572 787.156 87.5055 787.156 86.2021V82.2441H785.987V81H787.156V79.3799L788.742 78.9287V81H790.417V82.2441H788.742V85.7441C788.742 86.1589 788.817 86.4551 788.968 86.6328C789.118 86.8105 789.369 86.8994 789.72 86.8994C789.989 86.8994 790.221 86.8219 790.417 86.667V87.9248ZM801.013 88H799.475V86.9062H799.447C798.964 87.7448 798.256 88.1641 797.321 88.1641C796.633 88.1641 796.093 87.9772 795.701 87.6035C795.314 87.2298 795.12 86.7354 795.12 86.1201C795.12 84.7985 795.881 84.0283 797.403 83.8096L799.481 83.5156C799.481 82.5176 799.007 82.0186 798.06 82.0186C797.226 82.0186 796.474 82.3057 795.804 82.8799V81.4922C796.542 81.0547 797.394 80.8359 798.36 80.8359C800.129 80.8359 801.013 81.7064 801.013 83.4473V88ZM799.481 84.5615L798.012 84.7666C797.556 84.8258 797.212 84.9375 796.979 85.1016C796.752 85.2611 796.638 85.5436 796.638 85.9492C796.638 86.2454 796.743 86.4893 796.952 86.6807C797.166 86.8675 797.451 86.9609 797.807 86.9609C798.29 86.9609 798.688 86.7923 799.003 86.4551C799.322 86.1133 799.481 85.6849 799.481 85.1699V84.5615ZM807.965 87.6787C807.404 88.0023 806.741 88.1641 805.976 88.1641C804.937 88.1641 804.098 87.8405 803.46 87.1934C802.822 86.5417 802.503 85.6986 802.503 84.6641C802.503 83.5111 802.845 82.5859 803.528 81.8887C804.216 81.1868 805.135 80.8359 806.283 80.8359C806.921 80.8359 807.484 80.9476 807.972 81.1709V82.6475C807.484 82.2829 806.965 82.1006 806.413 82.1006C805.743 82.1006 805.194 82.3285 804.766 82.7842C804.337 83.2354 804.123 83.8278 804.123 84.5615C804.123 85.2861 804.324 85.8581 804.725 86.2773C805.13 86.6966 805.673 86.9062 806.352 86.9062C806.921 86.9062 807.459 86.7035 807.965 86.2979V87.6787ZM813.235 87.9248C812.925 88.0798 812.518 88.1572 812.012 88.1572C810.654 88.1572 809.975 87.5055 809.975 86.2021V82.2441H808.806V81H809.975V79.3799L811.561 78.9287V81H813.235V82.2441H811.561V85.7441C811.561 86.1589 811.636 86.4551 811.786 86.6328C811.937 86.8105 812.187 86.8994 812.538 86.8994C812.807 86.8994 813.039 86.8219 813.235 86.667V87.9248ZM815.402 79.5303C815.143 79.5303 814.919 79.446 814.732 79.2773C814.55 79.1087 814.459 78.8945 814.459 78.6348C814.459 78.375 814.55 78.1585 814.732 77.9854C814.919 77.8122 815.143 77.7256 815.402 77.7256C815.671 77.7256 815.899 77.8122 816.086 77.9854C816.273 78.1585 816.366 78.375 816.366 78.6348C816.366 78.8809 816.273 79.0928 816.086 79.2705C815.899 79.4437 815.671 79.5303 815.402 79.5303ZM816.188 88H814.603V81H816.188V88ZM821.37 88.1641C820.29 88.1641 819.426 87.8382 818.779 87.1865C818.137 86.5303 817.815 85.6621 817.815 84.582C817.815 83.4062 818.15 82.488 818.82 81.8271C819.495 81.1663 820.402 80.8359 821.541 80.8359C822.635 80.8359 823.487 81.1572 824.098 81.7998C824.708 82.4424 825.014 83.3333 825.014 84.4727C825.014 85.5892 824.683 86.4847 824.022 87.1592C823.366 87.8291 822.482 88.1641 821.37 88.1641ZM821.445 82.1006C820.826 82.1006 820.336 82.3171 819.976 82.75C819.616 83.1829 819.436 83.7799 819.436 84.541C819.436 85.2747 819.618 85.8535 819.982 86.2773C820.347 86.6966 820.835 86.9062 821.445 86.9062C822.07 86.9062 822.548 86.6989 822.881 86.2842C823.218 85.8695 823.387 85.2793 823.387 84.5137C823.387 83.7435 823.218 83.1488 822.881 82.7295C822.548 82.3102 822.07 82.1006 821.445 82.1006ZM832.868 88H831.282V84.0557C831.282 82.7477 830.82 82.0938 829.895 82.0938C829.411 82.0938 829.013 82.276 828.698 82.6406C828.384 83.0007 828.227 83.4564 828.227 84.0078V88H826.634V81H828.227V82.1621H828.254C828.778 81.278 829.535 80.8359 830.523 80.8359C831.285 80.8359 831.866 81.0843 832.267 81.5811C832.668 82.0732 832.868 82.7865 832.868 83.7207V88ZM840.183 88H838.645V86.9062H838.617C838.134 87.7448 837.425 88.1641 836.491 88.1641C835.803 88.1641 835.263 87.9772 834.871 87.6035C834.484 87.2298 834.29 86.7354 834.29 86.1201C834.29 84.7985 835.051 84.0283 836.573 83.8096L838.651 83.5156C838.651 82.5176 838.177 82.0186 837.229 82.0186C836.396 82.0186 835.644 82.3057 834.974 82.8799V81.4922C835.712 81.0547 836.564 80.8359 837.53 80.8359C839.299 80.8359 840.183 81.7064 840.183 83.4473V88ZM838.651 84.5615L837.182 84.7666C836.726 84.8258 836.382 84.9375 836.149 85.1016C835.922 85.2611 835.808 85.5436 835.808 85.9492C835.808 86.2454 835.912 86.4893 836.122 86.6807C836.336 86.8675 836.621 86.9609 836.977 86.9609C837.46 86.9609 837.858 86.7923 838.173 86.4551C838.492 86.1133 838.651 85.6849 838.651 85.1699V84.5615ZM843.737 86.9883H843.71V88H842.124V77.6367H843.71V82.2305H843.737C844.28 81.3008 845.073 80.8359 846.116 80.8359C847 80.8359 847.691 81.1504 848.188 81.7793C848.689 82.4036 848.939 83.2422 848.939 84.2949C848.939 85.4661 848.659 86.4049 848.099 87.1113C847.538 87.8132 846.772 88.1641 845.802 88.1641C844.89 88.1641 844.202 87.7721 843.737 86.9883ZM843.696 84.2061V85.0742C843.696 85.5846 843.858 86.0176 844.182 86.373C844.51 86.7285 844.924 86.9062 845.426 86.9062C846.014 86.9062 846.474 86.6784 846.807 86.2227C847.144 85.7624 847.312 85.1221 847.312 84.3018C847.312 83.6136 847.155 83.0758 846.841 82.6885C846.531 82.2965 846.109 82.1006 845.576 82.1006C845.011 82.1006 844.555 82.3011 844.209 82.7021C843.867 83.1032 843.696 83.6045 843.696 84.2061ZM852.152 88H850.56V77.6367H852.152V88ZM860.15 84.9307H855.379C855.397 85.5778 855.595 86.0768 855.974 86.4277C856.356 86.7786 856.881 86.9541 857.546 86.9541C858.293 86.9541 858.979 86.7308 859.604 86.2842V87.5625C858.965 87.9635 858.122 88.1641 857.074 88.1641C856.044 88.1641 855.235 87.8473 854.647 87.2139C854.064 86.5758 853.772 85.6803 853.772 84.5273C853.772 83.4382 854.094 82.5518 854.736 81.8682C855.383 81.18 856.186 80.8359 857.143 80.8359C858.1 80.8359 858.84 81.1436 859.364 81.7588C859.888 82.374 860.15 83.2285 860.15 84.3223V84.9307ZM858.619 83.8096C858.615 83.2399 858.48 82.7979 858.216 82.4834C857.951 82.1644 857.587 82.0049 857.122 82.0049C856.666 82.0049 856.279 82.1712 855.96 82.5039C855.646 82.8366 855.452 83.2718 855.379 83.8096H858.619ZM871.881 91.2197H870.295V86.7969H870.268C869.789 87.7083 869.007 88.1641 867.923 88.1641C867.062 88.1641 866.369 87.8519 865.845 87.2275C865.325 86.5986 865.065 85.7441 865.065 84.6641C865.065 83.502 865.35 82.5745 865.92 81.8818C866.494 81.1846 867.264 80.8359 868.23 80.8359C869.169 80.8359 869.848 81.2142 870.268 81.9707H870.295V81H871.881V91.2197ZM870.315 84.8145V83.9121C870.315 83.4062 870.151 82.9779 869.823 82.627C869.5 82.276 869.087 82.1006 868.586 82.1006C867.998 82.1006 867.533 82.3216 867.191 82.7637C866.854 83.2012 866.686 83.821 866.686 84.623C866.686 85.334 866.85 85.8923 867.178 86.2979C867.506 86.7035 867.93 86.9062 868.449 86.9062C869.019 86.9062 869.472 86.708 869.81 86.3115C870.147 85.915 870.315 85.416 870.315 84.8145ZM880.057 88H878.471V86.8926H878.443C877.983 87.7402 877.268 88.1641 876.297 88.1641C874.643 88.1641 873.815 87.1706 873.815 85.1836V81H875.401V85.0195C875.401 86.2773 875.887 86.9062 876.857 86.9062C877.327 86.9062 877.712 86.7331 878.013 86.3867C878.318 86.0404 878.471 85.5869 878.471 85.0264V81H880.057V88ZM888.055 84.9307H883.283C883.301 85.5778 883.5 86.0768 883.878 86.4277C884.261 86.7786 884.785 86.9541 885.45 86.9541C886.198 86.9541 886.883 86.7308 887.508 86.2842V87.5625C886.87 87.9635 886.027 88.1641 884.979 88.1641C883.949 88.1641 883.14 87.8473 882.552 87.2139C881.968 86.5758 881.677 85.6803 881.677 84.5273C881.677 83.4382 881.998 82.5518 882.641 81.8682C883.288 81.18 884.09 80.8359 885.047 80.8359C886.004 80.8359 886.744 81.1436 887.269 81.7588C887.793 82.374 888.055 83.2285 888.055 84.3223V84.9307ZM886.523 83.8096C886.519 83.2399 886.384 82.7979 886.12 82.4834C885.856 82.1644 885.491 82.0049 885.026 82.0049C884.571 82.0049 884.183 82.1712 883.864 82.5039C883.55 82.8366 883.356 83.2718 883.283 83.8096H886.523ZM889.128 87.7812V86.3115C889.72 86.7627 890.374 86.9883 891.09 86.9883C892.047 86.9883 892.525 86.7057 892.525 86.1406C892.525 85.9811 892.484 85.8467 892.402 85.7373C892.32 85.6234 892.209 85.5231 892.067 85.4365C891.931 85.3499 891.767 85.2725 891.575 85.2041C891.388 85.1357 891.179 85.0583 890.946 84.9717C890.659 84.8577 890.399 84.737 890.167 84.6094C889.939 84.4818 889.748 84.3382 889.593 84.1787C889.442 84.0146 889.328 83.8301 889.251 83.625C889.174 83.4199 889.135 83.1807 889.135 82.9072C889.135 82.57 889.215 82.2738 889.374 82.0186C889.534 81.7588 889.748 81.5423 890.017 81.3691C890.285 81.1914 890.591 81.0592 890.933 80.9727C891.274 80.8815 891.628 80.8359 891.992 80.8359C892.639 80.8359 893.218 80.9339 893.729 81.1299V82.5176C893.236 82.1803 892.671 82.0117 892.033 82.0117C891.833 82.0117 891.65 82.0322 891.486 82.0732C891.327 82.1143 891.19 82.1712 891.076 82.2441C890.962 82.3171 890.873 82.4059 890.81 82.5107C890.746 82.611 890.714 82.7227 890.714 82.8457C890.714 82.9961 890.746 83.1237 890.81 83.2285C890.873 83.3333 890.967 83.4268 891.09 83.5088C891.217 83.5863 891.368 83.6592 891.541 83.7275C891.719 83.7913 891.922 83.862 892.149 83.9395C892.45 84.0625 892.719 84.1878 892.956 84.3154C893.198 84.443 893.403 84.5889 893.571 84.7529C893.74 84.9124 893.87 85.0993 893.961 85.3135C894.052 85.5231 894.098 85.7738 894.098 86.0654C894.098 86.4209 894.016 86.7308 893.852 86.9951C893.688 87.2594 893.469 87.4782 893.195 87.6514C892.922 87.8245 892.605 87.9521 892.245 88.0342C891.89 88.1208 891.514 88.1641 891.117 88.1641C890.352 88.1641 889.688 88.0365 889.128 87.7812ZM899.3 87.9248C898.99 88.0798 898.582 88.1572 898.076 88.1572C896.718 88.1572 896.039 87.5055 896.039 86.2021V82.2441H894.87V81H896.039V79.3799L897.625 78.9287V81H899.3V82.2441H897.625V85.7441C897.625 86.1589 897.7 86.4551 897.851 86.6328C898.001 86.8105 898.252 86.8994 898.603 86.8994C898.871 86.8994 899.104 86.8219 899.3 86.667V87.9248ZM901.467 79.5303C901.207 79.5303 900.984 79.446 900.797 79.2773C900.615 79.1087 900.523 78.8945 900.523 78.6348C900.523 78.375 900.615 78.1585 900.797 77.9854C900.984 77.8122 901.207 77.7256 901.467 77.7256C901.736 77.7256 901.964 77.8122 902.15 77.9854C902.337 78.1585 902.431 78.375 902.431 78.6348C902.431 78.8809 902.337 79.0928 902.15 79.2705C901.964 79.4437 901.736 79.5303 901.467 79.5303ZM902.253 88H900.667V81H902.253V88ZM907.435 88.1641C906.354 88.1641 905.491 87.8382 904.844 87.1865C904.201 86.5303 903.88 85.6621 903.88 84.582C903.88 83.4062 904.215 82.488 904.885 81.8271C905.559 81.1663 906.466 80.8359 907.605 80.8359C908.699 80.8359 909.551 81.1572 910.162 81.7998C910.773 82.4424 911.078 83.3333 911.078 84.4727C911.078 85.5892 910.748 86.4847 910.087 87.1592C909.431 87.8291 908.547 88.1641 907.435 88.1641ZM907.51 82.1006C906.89 82.1006 906.4 82.3171 906.04 82.75C905.68 83.1829 905.5 83.7799 905.5 84.541C905.5 85.2747 905.682 85.8535 906.047 86.2773C906.411 86.6966 906.899 86.9062 907.51 86.9062C908.134 86.9062 908.613 86.6989 908.945 86.2842C909.283 85.8695 909.451 85.2793 909.451 84.5137C909.451 83.7435 909.283 83.1488 908.945 82.7295C908.613 82.3102 908.134 82.1006 907.51 82.1006ZM918.933 88H917.347V84.0557C917.347 82.7477 916.884 82.0938 915.959 82.0938C915.476 82.0938 915.077 82.276 914.763 82.6406C914.448 83.0007 914.291 83.4564 914.291 84.0078V88H912.698V81H914.291V82.1621H914.318C914.842 81.278 915.599 80.8359 916.588 80.8359C917.349 80.8359 917.93 81.0843 918.331 81.5811C918.732 82.0732 918.933 82.7865 918.933 83.7207V88ZM921.53 88.1504C921.257 88.1504 921.024 88.0615 920.833 87.8838C920.642 87.7015 920.546 87.485 920.546 87.2344C920.546 86.9792 920.642 86.7604 920.833 86.5781C921.024 86.3958 921.257 86.3047 921.53 86.3047C921.808 86.3047 922.043 86.3958 922.234 86.5781C922.43 86.7604 922.528 86.9792 922.528 87.2344C922.528 87.485 922.43 87.7015 922.234 87.8838C922.043 88.0615 921.808 88.1504 921.53 88.1504Z" fill="#171717"/>
<rect x="641.122" y="166" width="74.5965" height="30.1287" rx="4" fill="#0F6CBD"/>
<path d="M675.989 176.478L672.964 182.354V185.708H671.432V182.387L668.484 176.478H670.228L672.043 180.436C672.065 180.484 672.129 180.662 672.237 180.971H672.256C672.294 180.833 672.365 180.655 672.468 180.436L674.367 176.478H675.989ZM681.408 182.818H676.916C676.933 183.427 677.119 183.897 677.476 184.227C677.836 184.558 678.329 184.723 678.956 184.723C679.66 184.723 680.305 184.513 680.893 184.092V185.296C680.293 185.673 679.499 185.862 678.512 185.862C677.542 185.862 676.781 185.564 676.227 184.967C675.678 184.367 675.403 183.524 675.403 182.438C675.403 181.413 675.706 180.578 676.311 179.934C676.92 179.286 677.675 178.963 678.576 178.963C679.477 178.963 680.175 179.252 680.668 179.831C681.161 180.411 681.408 181.215 681.408 182.245V182.818ZM679.966 181.762C679.962 181.226 679.836 180.81 679.587 180.514C679.338 180.213 678.995 180.063 678.557 180.063C678.128 180.063 677.763 180.22 677.463 180.533C677.167 180.846 676.984 181.256 676.916 181.762H679.966ZM682.419 185.502V184.118C682.976 184.543 683.592 184.755 684.266 184.755C685.167 184.755 685.617 184.489 685.617 183.957C685.617 183.807 685.579 183.68 685.502 183.577C685.424 183.47 685.319 183.376 685.186 183.294C685.057 183.213 684.903 183.14 684.723 183.075C684.547 183.011 684.349 182.938 684.131 182.856C683.86 182.749 683.616 182.635 683.397 182.515C683.182 182.395 683.002 182.26 682.856 182.11C682.715 181.955 682.607 181.782 682.534 181.588C682.462 181.395 682.425 181.17 682.425 180.913C682.425 180.595 682.5 180.316 682.65 180.076C682.8 179.831 683.002 179.628 683.255 179.465C683.508 179.297 683.796 179.173 684.118 179.091C684.44 179.005 684.772 178.963 685.115 178.963C685.725 178.963 686.27 179.055 686.75 179.239V180.546C686.287 180.228 685.755 180.07 685.154 180.07C684.965 180.07 684.794 180.089 684.639 180.127C684.489 180.166 684.36 180.22 684.253 180.288C684.146 180.357 684.062 180.441 684.002 180.539C683.942 180.634 683.912 180.739 683.912 180.855C683.912 180.996 683.942 181.117 684.002 181.215C684.062 181.314 684.15 181.402 684.266 181.479C684.386 181.552 684.528 181.621 684.691 181.685C684.858 181.745 685.049 181.812 685.263 181.885C685.547 182 685.8 182.118 686.023 182.239C686.25 182.359 686.443 182.496 686.602 182.65C686.761 182.801 686.883 182.977 686.969 183.178C687.055 183.376 687.098 183.612 687.098 183.886C687.098 184.221 687.02 184.513 686.866 184.762C686.712 185.01 686.506 185.216 686.248 185.379C685.991 185.542 685.692 185.663 685.353 185.74C685.019 185.821 684.665 185.862 684.292 185.862C683.571 185.862 682.946 185.742 682.419 185.502Z" fill="white"/>
<mask id="path-6-inside-1_8_4391" fill="white">
<path d="M723.719 170C723.719 167.791 725.51 166 727.719 166H792.315C794.524 166 796.315 167.791 796.315 170V192.129C796.315 194.338 794.524 196.129 792.315 196.129H727.719C725.51 196.129 723.719 194.338 723.719 192.129V170Z"/>
</mask>
<path d="M727.719 166.942H792.315V165.058H727.719V166.942ZM795.374 170V192.129H797.257V170H795.374ZM792.315 195.187H727.719V197.07H792.315V195.187ZM724.66 192.129V170H722.777V192.129H724.66ZM727.719 195.187C726.03 195.187 724.66 193.818 724.66 192.129H722.777C722.777 194.858 724.99 197.07 727.719 197.07V195.187ZM795.374 192.129C795.374 193.818 794.004 195.187 792.315 195.187V197.07C795.044 197.07 797.257 194.858 797.257 192.129H795.374ZM792.315 166.942C794.004 166.942 795.374 168.311 795.374 170H797.257C797.257 167.271 795.044 165.058 792.315 165.058V166.942ZM727.719 165.058C724.99 165.058 722.777 167.271 722.777 170H724.66C724.66 168.311 726.03 166.942 727.719 166.942V165.058Z" fill="#D1D1D1" mask="url(#path-6-inside-1_8_4391)"/>
<path d="M759.982 185.708H758.309L753.9 178.924C753.788 178.752 753.696 178.574 753.623 178.39H753.585C753.619 178.587 753.636 179.01 753.636 179.658V185.708H752.156V176.478H753.939L758.199 183.101C758.38 183.376 758.495 183.564 758.547 183.667H758.573C758.53 183.423 758.508 183.009 758.508 182.425V176.478H759.982V185.708ZM765.028 185.862C764.011 185.862 763.198 185.555 762.589 184.942C761.984 184.324 761.681 183.506 761.681 182.49C761.681 181.383 761.997 180.518 762.627 179.896C763.262 179.274 764.116 178.963 765.189 178.963C766.219 178.963 767.021 179.265 767.596 179.87C768.171 180.475 768.459 181.314 768.459 182.387C768.459 183.438 768.148 184.281 767.525 184.916C766.908 185.547 766.075 185.862 765.028 185.862ZM765.099 180.153C764.515 180.153 764.054 180.357 763.715 180.765C763.376 181.172 763.207 181.734 763.207 182.451C763.207 183.142 763.378 183.687 763.722 184.086C764.065 184.48 764.524 184.678 765.099 184.678C765.687 184.678 766.137 184.483 766.451 184.092C766.768 183.702 766.927 183.146 766.927 182.425C766.927 181.7 766.768 181.14 766.451 180.745C766.137 180.351 765.687 180.153 765.099 180.153Z" fill="#242424"/>
</g>
<defs>
<filter id="filter0_dd_8_4391" x="598" y="20" width="405" height="226" filterUnits="userSpaceOnUse" color-interpolation-filters="sRGB">
<feFlood flood-opacity="0" result="BackgroundImageFix"/>
<feColorMatrix in="SourceAlpha" type="matrix" values="0 0 0 0 0 0 0 0 0 0 0 0 0 0 0 0 0 0 127 0" result="hardAlpha"/>
<feOffset/>
<feGaussianBlur stdDeviation="1"/>
<feComposite in2="hardAlpha" operator="out"/>
<feColorMatrix type="matrix" values="0 0 0 0 0 0 0 0 0 0 0 0 0 0 0 0 0 0 0.24 0"/>
<feBlend mode="normal" in2="BackgroundImageFix" result="effect1_dropShadow_8_4391"/>
<feColorMatrix in="SourceAlpha" type="matrix" values="0 0 0 0 0 0 0 0 0 0 0 0 0 0 0 0 0 0 127 0" result="hardAlpha"/>
<feOffset dy="8"/>
<feGaussianBlur stdDeviation="8"/>
<feComposite in2="hardAlpha" operator="out"/>
<feColorMatrix type="matrix" values="0 0 0 0 0 0 0 0 0 0 0 0 0 0 0 0 0 0 0.28 0"/>
<feBlend mode="normal" in2="effect1_dropShadow_8_4391" result="effect2_dropShadow_8_4391"/>
<feBlend mode="normal" in="SourceGraphic" in2="effect2_dropShadow_8_4391" result="shape"/>
</filter>
</defs>
</svg>
