<svg width="1600" height="250" viewBox="0 0 1600 250" fill="none" xmlns="http://www.w3.org/2000/svg">
<rect x="0.5" y="0.5" width="1599" height="249" fill="white" stroke="#C8C8C8"/>
<path d="M647.704 116.783H643.054V130.688H640.368V116.783H635.73V114.504H647.704V116.783ZM660.051 130.688H657.432V124.367C657.432 122.08 656.669 120.937 655.141 120.937C654.374 120.937 653.727 121.268 653.2 121.93C652.674 122.592 652.41 123.438 652.41 124.469V130.688H649.781V113.578H652.41V121.049H652.455C653.328 119.59 654.577 118.86 656.202 118.86C658.768 118.86 660.051 120.429 660.051 123.566V130.688ZM673.018 125.62H665.141C665.171 126.689 665.498 127.512 666.122 128.092C666.754 128.671 667.62 128.961 668.718 128.961C669.952 128.961 671.084 128.592 672.115 127.855V129.965C671.062 130.627 669.67 130.958 667.939 130.958C666.239 130.958 664.904 130.435 663.933 129.39C662.97 128.336 662.488 126.858 662.488 124.954C662.488 123.156 663.019 121.693 664.08 120.564C665.148 119.428 666.472 118.86 668.052 118.86C669.632 118.86 670.855 119.368 671.72 120.384C672.585 121.399 673.018 122.81 673.018 124.616V125.62ZM670.49 123.769C670.482 122.829 670.26 122.099 669.824 121.58C669.388 121.053 668.786 120.79 668.018 120.79C667.266 120.79 666.626 121.065 666.1 121.614C665.581 122.163 665.261 122.882 665.141 123.769H670.49ZM690.15 130.157C689.224 130.691 688.13 130.958 686.866 130.958C685.15 130.958 683.766 130.424 682.712 129.356C681.659 128.28 681.132 126.888 681.132 125.18C681.132 123.277 681.697 121.749 682.825 120.598C683.961 119.439 685.477 118.86 687.373 118.86C688.427 118.86 689.356 119.044 690.161 119.413V121.851C689.356 121.249 688.498 120.948 687.588 120.948C686.482 120.948 685.575 121.324 684.868 122.076C684.161 122.821 683.807 123.799 683.807 125.011C683.807 126.207 684.138 127.151 684.8 127.843C685.47 128.536 686.365 128.882 687.486 128.882C688.427 128.882 689.315 128.547 690.15 127.877V130.157ZM697.88 130.958C696.097 130.958 694.672 130.42 693.603 129.344C692.542 128.261 692.012 126.828 692.012 125.045C692.012 123.103 692.565 121.587 693.671 120.496C694.784 119.406 696.282 118.86 698.163 118.86C699.968 118.86 701.375 119.39 702.383 120.451C703.392 121.512 703.896 122.983 703.896 124.864C703.896 126.707 703.35 128.186 702.259 129.299C701.176 130.405 699.716 130.958 697.88 130.958ZM698.005 120.948C696.981 120.948 696.173 121.305 695.578 122.02C694.984 122.735 694.687 123.72 694.687 124.977C694.687 126.188 694.988 127.144 695.589 127.843C696.191 128.536 696.996 128.882 698.005 128.882C699.035 128.882 699.825 128.539 700.375 127.855C700.931 127.17 701.21 126.196 701.21 124.932C701.21 123.66 700.931 122.678 700.375 121.986C699.825 121.294 699.035 120.948 698.005 120.948ZM716.863 130.688H714.245V124.176C714.245 122.016 713.481 120.937 711.954 120.937C711.156 120.937 710.498 121.238 709.979 121.839C709.46 122.434 709.2 123.186 709.2 124.097V130.688H706.57V119.131H709.2V121.049H709.245C710.11 119.59 711.359 118.86 712.992 118.86C714.249 118.86 715.208 119.27 715.87 120.09C716.532 120.903 716.863 122.08 716.863 123.623V130.688ZM726.163 130.563C725.651 130.819 724.978 130.947 724.142 130.947C721.9 130.947 720.779 129.871 720.779 127.719V121.185H718.849V119.131H720.779V116.456L723.398 115.711V119.131H726.163V121.185H723.398V126.963C723.398 127.648 723.522 128.137 723.77 128.43C724.018 128.724 724.432 128.87 725.011 128.87C725.455 128.87 725.839 128.743 726.163 128.487V130.563ZM738.069 125.62H730.192C730.222 126.689 730.549 127.512 731.173 128.092C731.805 128.671 732.671 128.961 733.769 128.961C735.003 128.961 736.135 128.592 737.166 127.855V129.965C736.113 130.627 734.721 130.958 732.99 130.958C731.29 130.958 729.955 130.435 728.984 129.39C728.021 128.336 727.539 126.858 727.539 124.954C727.539 123.156 728.07 121.693 729.131 120.564C730.199 119.428 731.523 118.86 733.103 118.86C734.683 118.86 735.906 119.368 736.771 120.384C737.636 121.399 738.069 122.81 738.069 124.616V125.62ZM735.541 123.769C735.533 122.829 735.312 122.099 734.875 121.58C734.439 121.053 733.837 120.79 733.069 120.79C732.317 120.79 731.678 121.065 731.151 121.614C730.632 122.163 730.312 122.882 730.192 123.769H735.541ZM750.856 130.688H748.237V124.176C748.237 122.016 747.474 120.937 745.946 120.937C745.149 120.937 744.491 121.238 743.971 121.839C743.452 122.434 743.193 123.186 743.193 124.097V130.688H740.563V119.131H743.193V121.049H743.238C744.103 119.59 745.352 118.86 746.985 118.86C748.241 118.86 749.2 119.27 749.863 120.09C750.525 120.903 750.856 122.08 750.856 123.623V130.688ZM760.155 130.563C759.644 130.819 758.97 130.947 758.135 130.947C755.893 130.947 754.772 129.871 754.772 127.719V121.185H752.842V119.131H754.772V116.456L757.39 115.711V119.131H760.155V121.185H757.39V126.963C757.39 127.648 757.514 128.137 757.763 128.43C758.011 128.724 758.425 128.87 759.004 128.87C759.448 128.87 759.832 128.743 760.155 128.487V130.563ZM777.05 130.157C776.125 130.691 775.03 130.958 773.766 130.958C772.05 130.958 770.666 130.424 769.613 129.356C768.559 128.28 768.033 126.888 768.033 125.18C768.033 123.277 768.597 121.749 769.725 120.598C770.862 119.439 772.378 118.86 774.274 118.86C775.327 118.86 776.256 119.044 777.061 119.413V121.851C776.256 121.249 775.398 120.948 774.488 120.948C773.382 120.948 772.475 121.324 771.768 122.076C771.061 122.821 770.707 123.799 770.707 125.011C770.707 126.207 771.038 127.151 771.701 127.843C772.37 128.536 773.265 128.882 774.387 128.882C775.327 128.882 776.215 128.547 777.05 127.877V130.157ZM784.781 130.958C782.998 130.958 781.572 130.42 780.503 129.344C779.443 128.261 778.912 126.828 778.912 125.045C778.912 123.103 779.465 121.587 780.571 120.496C781.685 119.406 783.182 118.86 785.063 118.86C786.869 118.86 788.276 119.39 789.284 120.451C790.292 121.512 790.796 122.983 790.796 124.864C790.796 126.707 790.251 128.186 789.16 129.299C788.076 130.405 786.617 130.958 784.781 130.958ZM784.905 120.948C783.882 120.948 783.073 121.305 782.478 122.02C781.884 122.735 781.587 123.72 781.587 124.977C781.587 126.188 781.888 127.144 782.49 127.843C783.092 128.536 783.897 128.882 784.905 128.882C785.936 128.882 786.726 128.539 787.275 127.855C787.832 127.17 788.11 126.196 788.11 124.932C788.11 123.66 787.832 122.678 787.275 121.986C786.726 121.294 785.936 120.948 784.905 120.948ZM803.549 130.688H800.931V128.859H800.885C800.126 130.259 798.944 130.958 797.342 130.958C794.611 130.958 793.245 129.318 793.245 126.038V119.131H795.863V125.767C795.863 127.843 796.665 128.882 798.267 128.882C799.042 128.882 799.678 128.596 800.174 128.024C800.679 127.452 800.931 126.704 800.931 125.778V119.131H803.549V130.688ZM809.598 130.688H806.968V113.578H809.598V130.688ZM823.525 130.688H820.906V128.724H820.861C820.019 130.213 818.721 130.958 816.968 130.958C815.546 130.958 814.406 130.443 813.548 129.412C812.698 128.374 812.273 126.963 812.273 125.18C812.273 123.269 812.743 121.738 813.683 120.587C814.631 119.436 815.892 118.86 817.464 118.86C819.022 118.86 820.154 119.485 820.861 120.733H820.906V113.578H823.525V130.688ZM820.94 125.406V123.893C820.94 123.073 820.673 122.377 820.139 121.806C819.605 121.234 818.924 120.948 818.096 120.948C817.118 120.948 816.347 121.313 815.783 122.043C815.226 122.772 814.947 123.784 814.947 125.078C814.947 126.252 815.215 127.181 815.749 127.866C816.29 128.543 817.017 128.882 817.927 128.882C818.822 128.882 819.548 128.554 820.105 127.9C820.662 127.238 820.94 126.406 820.94 125.406ZM837.237 130.688H834.619V124.176C834.619 122.016 833.855 120.937 832.328 120.937C831.53 120.937 830.872 121.238 830.353 121.839C829.833 122.434 829.574 123.186 829.574 124.097V130.688H826.944V119.131H829.574V121.049H829.619C830.484 119.59 831.733 118.86 833.366 118.86C834.622 118.86 835.582 119.27 836.244 120.09C836.906 120.903 837.237 122.08 837.237 123.623V130.688ZM843.557 114.188L841.717 119.21H839.991L841.266 114.188H843.557ZM852.473 130.563C851.961 130.819 851.288 130.947 850.452 130.947C848.21 130.947 847.089 129.871 847.089 127.719V121.185H845.159V119.131H847.089V116.456L849.708 115.711V119.131H852.473V121.185H849.708V126.963C849.708 127.648 849.832 128.137 850.08 128.43C850.328 128.724 850.742 128.87 851.321 128.87C851.765 128.87 852.149 128.743 852.473 128.487V130.563ZM863.758 129.017H863.713V130.688H861.095V113.578H863.713V121.162H863.758C864.654 119.627 865.963 118.86 867.686 118.86C869.145 118.86 870.285 119.379 871.105 120.417C871.933 121.448 872.347 122.833 872.347 124.571C872.347 126.504 871.884 128.054 870.959 129.22C870.033 130.379 868.769 130.958 867.167 130.958C865.662 130.958 864.526 130.311 863.758 129.017ZM863.691 124.424V125.857C863.691 126.7 863.958 127.415 864.492 128.001C865.034 128.588 865.718 128.882 866.546 128.882C867.516 128.882 868.276 128.506 868.826 127.753C869.382 126.993 869.661 125.936 869.661 124.582C869.661 123.446 869.401 122.558 868.882 121.918C868.37 121.271 867.674 120.948 866.794 120.948C865.861 120.948 865.109 121.279 864.537 121.941C863.973 122.603 863.691 123.431 863.691 124.424ZM884.806 125.62H876.929C876.959 126.689 877.286 127.512 877.911 128.092C878.543 128.671 879.408 128.961 880.506 128.961C881.74 128.961 882.873 128.592 883.903 127.855V129.965C882.85 130.627 881.458 130.958 879.728 130.958C878.027 130.958 876.692 130.435 875.721 129.39C874.758 128.336 874.277 126.858 874.277 124.954C874.277 123.156 874.807 121.693 875.868 120.564C876.936 119.428 878.261 118.86 879.841 118.86C881.421 118.86 882.643 119.368 883.508 120.384C884.374 121.399 884.806 122.81 884.806 124.616V125.62ZM882.278 123.769C882.271 122.829 882.049 122.099 881.612 121.58C881.176 121.053 880.574 120.79 879.807 120.79C879.054 120.79 878.415 121.065 877.888 121.614C877.369 122.163 877.049 122.882 876.929 123.769H882.278ZM896.295 130.688H893.666V113.578H896.295V130.688ZM904.838 130.958C903.055 130.958 901.63 130.42 900.561 129.344C899.5 128.261 898.97 126.828 898.97 125.045C898.97 123.103 899.523 121.587 900.629 120.496C901.742 119.406 903.24 118.86 905.121 118.86C906.926 118.86 908.333 119.39 909.341 120.451C910.35 121.512 910.854 122.983 910.854 124.864C910.854 126.707 910.308 128.186 909.217 129.299C908.134 130.405 906.674 130.958 904.838 130.958ZM904.963 120.948C903.939 120.948 903.131 121.305 902.536 122.02C901.942 122.735 901.645 123.72 901.645 124.977C901.645 126.188 901.946 127.144 902.547 127.843C903.149 128.536 903.954 128.882 904.963 128.882C905.993 128.882 906.783 128.539 907.333 127.855C907.889 127.17 908.168 126.196 908.168 124.932C908.168 123.66 907.889 122.678 907.333 121.986C906.783 121.294 905.993 120.948 904.963 120.948ZM922.128 130.688H919.589V128.882H919.544C918.746 130.266 917.576 130.958 916.034 130.958C914.898 130.958 914.006 130.65 913.359 130.033C912.72 129.416 912.4 128.6 912.4 127.584C912.4 125.402 913.656 124.13 916.169 123.769L919.6 123.284C919.6 121.636 918.818 120.812 917.253 120.812C915.876 120.812 914.634 121.286 913.528 122.234V119.943C914.747 119.221 916.154 118.86 917.749 118.86C920.669 118.86 922.128 120.297 922.128 123.171V130.688ZM919.6 125.011L917.174 125.349C916.421 125.447 915.853 125.631 915.47 125.902C915.093 126.166 914.905 126.632 914.905 127.302C914.905 127.791 915.078 128.193 915.424 128.509C915.778 128.818 916.248 128.972 916.835 128.972C917.633 128.972 918.291 128.694 918.81 128.137C919.337 127.573 919.6 126.865 919.6 126.015V125.011ZM935.84 130.688H933.222V128.724H933.177C932.334 130.213 931.036 130.958 929.283 130.958C927.861 130.958 926.722 130.443 925.864 129.412C925.014 128.374 924.588 126.963 924.588 125.18C924.588 123.269 925.059 121.738 925.999 120.587C926.947 119.436 928.207 118.86 929.78 118.86C931.337 118.86 932.47 119.485 933.177 120.733H933.222V113.578H935.84V130.688ZM933.256 125.406V123.893C933.256 123.073 932.989 122.377 932.455 121.806C931.92 121.234 931.24 120.948 930.412 120.948C929.434 120.948 928.663 121.313 928.098 122.043C927.542 122.772 927.263 123.784 927.263 125.078C927.263 126.252 927.53 127.181 928.065 127.866C928.606 128.543 929.332 128.882 930.243 128.882C931.138 128.882 931.864 128.554 932.421 127.9C932.978 127.238 933.256 126.406 933.256 125.406ZM949.045 125.62H941.167C941.197 126.689 941.525 127.512 942.149 128.092C942.781 128.671 943.646 128.961 944.745 128.961C945.979 128.961 947.111 128.592 948.142 127.855V129.965C947.089 130.627 945.697 130.958 943.966 130.958C942.266 130.958 940.93 130.435 939.96 129.39C938.997 128.336 938.515 126.858 938.515 124.954C938.515 123.156 939.046 121.693 940.106 120.564C941.175 119.428 942.499 118.86 944.079 118.86C945.659 118.86 946.882 119.368 947.747 120.384C948.612 121.399 949.045 122.81 949.045 124.616V125.62ZM946.517 123.769C946.509 122.829 946.287 122.099 945.851 121.58C945.414 121.053 944.813 120.79 944.045 120.79C943.293 120.79 942.653 121.065 942.127 121.614C941.607 122.163 941.288 122.882 941.167 123.769H946.517ZM962.046 130.688H959.428V128.724H959.382C958.54 130.213 957.242 130.958 955.489 130.958C954.067 130.958 952.927 130.443 952.069 129.412C951.219 128.374 950.794 126.963 950.794 125.18C950.794 123.269 951.264 121.738 952.205 120.587C953.153 119.436 954.413 118.86 955.985 118.86C957.543 118.86 958.675 119.485 959.382 120.733H959.428V113.578H962.046V130.688ZM959.461 125.406V123.893C959.461 123.073 959.194 122.377 958.66 121.806C958.126 121.234 957.445 120.948 956.617 120.948C955.639 120.948 954.868 121.313 954.304 122.043C953.747 122.772 953.469 123.784 953.469 125.078C953.469 126.252 953.736 127.181 954.27 127.866C954.812 128.543 955.538 128.882 956.448 128.882C957.343 128.882 958.07 128.554 958.626 127.9C959.183 127.238 959.461 126.406 959.461 125.406ZM623.327 162.017H623.282V163.688H620.663V146.578H623.282V154.162H623.327C624.222 152.627 625.531 151.86 627.254 151.86C628.714 151.86 629.854 152.379 630.674 153.417C631.501 154.448 631.915 155.833 631.915 157.571C631.915 159.504 631.453 161.054 630.527 162.22C629.602 163.379 628.338 163.958 626.735 163.958C625.23 163.958 624.094 163.311 623.327 162.017ZM623.259 157.424V158.857C623.259 159.7 623.526 160.415 624.06 161.001C624.602 161.588 625.287 161.882 626.114 161.882C627.085 161.882 627.845 161.506 628.394 160.753C628.951 159.993 629.229 158.936 629.229 157.582C629.229 156.446 628.97 155.558 628.451 154.918C627.939 154.271 627.243 153.948 626.363 153.948C625.43 153.948 624.677 154.279 624.106 154.941C623.541 155.603 623.259 156.431 623.259 157.424ZM644.375 158.62H636.497C636.527 159.689 636.855 160.512 637.479 161.092C638.111 161.671 638.976 161.961 640.075 161.961C641.309 161.961 642.441 161.592 643.472 160.855V162.965C642.419 163.627 641.027 163.958 639.296 163.958C637.596 163.958 636.26 163.435 635.29 162.39C634.327 161.336 633.845 159.858 633.845 157.954C633.845 156.156 634.376 154.693 635.436 153.564C636.505 152.428 637.829 151.86 639.409 151.86C640.989 151.86 642.212 152.368 643.077 153.384C643.942 154.399 644.375 155.81 644.375 157.616V158.62ZM641.847 156.769C641.839 155.829 641.617 155.099 641.181 154.58C640.744 154.053 640.143 153.79 639.375 153.79C638.623 153.79 637.983 154.065 637.457 154.614C636.937 155.163 636.618 155.882 636.497 156.769H641.847ZM655.141 163.157C654.216 163.691 653.121 163.958 651.857 163.958C650.142 163.958 648.757 163.424 647.704 162.356C646.651 161.28 646.124 159.888 646.124 158.18C646.124 156.277 646.688 154.749 647.817 153.598C648.953 152.439 650.469 151.86 652.365 151.86C653.418 151.86 654.348 152.044 655.153 152.413V154.851C654.348 154.249 653.49 153.948 652.579 153.948C651.473 153.948 650.567 154.324 649.86 155.076C649.152 155.821 648.799 156.799 648.799 158.011C648.799 159.207 649.13 160.151 649.792 160.843C650.462 161.536 651.357 161.882 652.478 161.882C653.418 161.882 654.306 161.547 655.141 160.877V163.157ZM666.619 163.688H664.08V161.882H664.035C663.237 163.266 662.067 163.958 660.525 163.958C659.389 163.958 658.497 163.65 657.85 163.033C657.21 162.416 656.891 161.6 656.891 160.584C656.891 158.402 658.147 157.13 660.66 156.769L664.091 156.284C664.091 154.636 663.308 153.812 661.744 153.812C660.367 153.812 659.125 154.286 658.019 155.234V152.943C659.238 152.221 660.645 151.86 662.24 151.86C665.159 151.86 666.619 153.297 666.619 156.171V163.688ZM664.091 158.011L661.665 158.349C660.912 158.447 660.344 158.631 659.96 158.902C659.584 159.166 659.396 159.632 659.396 160.302C659.396 160.791 659.569 161.193 659.915 161.509C660.269 161.818 660.739 161.972 661.326 161.972C662.123 161.972 662.782 161.694 663.301 161.137C663.828 160.573 664.091 159.865 664.091 159.015V158.011ZM679.902 163.688H677.284V161.859H677.239C676.479 163.259 675.298 163.958 673.695 163.958C670.964 163.958 669.598 162.318 669.598 159.038V152.131H672.217V158.767C672.217 160.843 673.018 161.882 674.621 161.882C675.395 161.882 676.031 161.596 676.528 161.024C677.032 160.452 677.284 159.704 677.284 158.778V152.131H679.902V163.688ZM682.6 163.326V160.9C683.578 161.645 684.657 162.017 685.839 162.017C687.419 162.017 688.209 161.551 688.209 160.618C688.209 160.354 688.141 160.132 688.005 159.952C687.87 159.764 687.686 159.598 687.452 159.455C687.227 159.312 686.956 159.184 686.64 159.072C686.331 158.959 685.985 158.831 685.602 158.688C685.128 158.5 684.699 158.3 684.315 158.09C683.939 157.879 683.623 157.642 683.367 157.379C683.119 157.108 682.931 156.803 682.803 156.465C682.675 156.126 682.611 155.731 682.611 155.28C682.611 154.723 682.743 154.234 683.006 153.812C683.269 153.384 683.623 153.026 684.067 152.74C684.511 152.447 685.015 152.229 685.579 152.086C686.143 151.935 686.726 151.86 687.328 151.86C688.397 151.86 689.352 152.022 690.195 152.345V154.636C689.382 154.08 688.449 153.801 687.396 153.801C687.065 153.801 686.764 153.835 686.493 153.903C686.23 153.97 686.004 154.065 685.816 154.185C685.628 154.305 685.481 154.452 685.376 154.625C685.271 154.791 685.218 154.975 685.218 155.178C685.218 155.426 685.271 155.637 685.376 155.81C685.481 155.983 685.635 156.137 685.839 156.273C686.049 156.401 686.298 156.521 686.583 156.634C686.877 156.739 687.212 156.856 687.588 156.984C688.084 157.187 688.528 157.394 688.92 157.604C689.318 157.815 689.657 158.056 689.935 158.327C690.214 158.59 690.428 158.899 690.579 159.252C690.729 159.598 690.804 160.012 690.804 160.494C690.804 161.08 690.669 161.592 690.398 162.028C690.127 162.465 689.766 162.826 689.315 163.112C688.863 163.398 688.34 163.608 687.746 163.744C687.159 163.887 686.538 163.958 685.884 163.958C684.62 163.958 683.525 163.748 682.6 163.326ZM703.083 158.62H695.206C695.236 159.689 695.563 160.512 696.188 161.092C696.82 161.671 697.685 161.961 698.783 161.961C700.017 161.961 701.15 161.592 702.18 160.855V162.965C701.127 163.627 699.735 163.958 698.005 163.958C696.304 163.958 694.969 163.435 693.998 162.39C693.035 161.336 692.554 159.858 692.554 157.954C692.554 156.156 693.084 154.693 694.145 153.564C695.213 152.428 696.537 151.86 698.117 151.86C699.697 151.86 700.92 152.368 701.785 153.384C702.651 154.399 703.083 155.81 703.083 157.616V158.62ZM700.555 156.769C700.548 155.829 700.326 155.099 699.889 154.58C699.453 154.053 698.851 153.79 698.084 153.79C697.331 153.79 696.692 154.065 696.165 154.614C695.646 155.163 695.326 155.882 695.206 156.769H700.555ZM717.066 163.958C715.283 163.958 713.857 163.42 712.789 162.344C711.728 161.261 711.198 159.828 711.198 158.045C711.198 156.103 711.751 154.587 712.857 153.496C713.97 152.406 715.467 151.86 717.348 151.86C719.154 151.86 720.561 152.39 721.569 153.451C722.577 154.512 723.082 155.983 723.082 157.864C723.082 159.707 722.536 161.186 721.445 162.299C720.362 163.405 718.902 163.958 717.066 163.958ZM717.19 153.948C716.167 153.948 715.358 154.305 714.764 155.02C714.17 155.735 713.872 156.72 713.872 157.977C713.872 159.188 714.173 160.144 714.775 160.843C715.377 161.536 716.182 161.882 717.19 161.882C718.221 161.882 719.011 161.539 719.56 160.855C720.117 160.17 720.396 159.196 720.396 157.932C720.396 156.66 720.117 155.678 719.56 154.986C719.011 154.294 718.221 153.948 717.19 153.948ZM731.907 148.711C731.553 148.508 731.151 148.407 730.699 148.407C729.428 148.407 728.792 149.125 728.792 150.562V152.131H731.478V154.185H728.803V163.688H726.185V154.185H724.21V152.131H726.185V150.257C726.185 149.039 726.584 148.079 727.381 147.38C728.179 146.672 729.176 146.319 730.372 146.319C731.019 146.319 731.531 146.39 731.907 146.533V148.711ZM748.576 163.688H746.037V161.882H745.992C745.194 163.266 744.024 163.958 742.482 163.958C741.346 163.958 740.454 163.65 739.807 163.033C739.167 162.416 738.848 161.6 738.848 160.584C738.848 158.402 740.104 157.13 742.617 156.769L746.048 156.284C746.048 154.636 745.266 153.812 743.701 153.812C742.324 153.812 741.082 154.286 739.976 155.234V152.943C741.195 152.221 742.602 151.86 744.197 151.86C747.116 151.86 748.576 153.297 748.576 156.171V163.688ZM746.048 158.011L743.622 158.349C742.869 158.447 742.301 158.631 741.917 158.902C741.541 159.166 741.353 159.632 741.353 160.302C741.353 160.791 741.526 161.193 741.872 161.509C742.226 161.818 742.696 161.972 743.283 161.972C744.081 161.972 744.739 161.694 745.258 161.137C745.785 160.573 746.048 159.865 746.048 159.015V158.011ZM766.419 163.157C765.493 163.691 764.399 163.958 763.135 163.958C761.419 163.958 760.035 163.424 758.981 162.356C757.928 161.28 757.401 159.888 757.401 158.18C757.401 156.277 757.966 154.749 759.094 153.598C760.23 152.439 761.747 151.86 763.643 151.86C764.696 151.86 765.625 152.044 766.43 152.413V154.851C765.625 154.249 764.767 153.948 763.857 153.948C762.751 153.948 761.844 154.324 761.137 155.076C760.43 155.821 760.076 156.799 760.076 158.011C760.076 159.207 760.407 160.151 761.069 160.843C761.739 161.536 762.634 161.882 763.755 161.882C764.696 161.882 765.584 161.547 766.419 160.877V163.157ZM774.15 163.958C772.366 163.958 770.941 163.42 769.872 162.344C768.811 161.261 768.281 159.828 768.281 158.045C768.281 156.103 768.834 154.587 769.94 153.496C771.053 152.406 772.551 151.86 774.432 151.86C776.237 151.86 777.644 152.39 778.653 153.451C779.661 154.512 780.165 155.983 780.165 157.864C780.165 159.707 779.619 161.186 778.528 162.299C777.445 163.405 775.985 163.958 774.15 163.958ZM774.274 153.948C773.25 153.948 772.442 154.305 771.847 155.02C771.253 155.735 770.956 156.72 770.956 157.977C770.956 159.188 771.257 160.144 771.859 160.843C772.46 161.536 773.265 161.882 774.274 161.882C775.304 161.882 776.094 161.539 776.644 160.855C777.2 160.17 777.479 159.196 777.479 157.932C777.479 156.66 777.2 155.678 776.644 154.986C776.094 154.294 775.304 153.948 774.274 153.948ZM793.132 163.688H790.514V157.176C790.514 155.016 789.75 153.937 788.223 153.937C787.425 153.937 786.767 154.238 786.248 154.839C785.729 155.434 785.469 156.186 785.469 157.097V163.688H782.84V152.131H785.469V154.049H785.514C786.38 152.59 787.628 151.86 789.261 151.86C790.518 151.86 791.477 152.27 792.139 153.09C792.801 153.903 793.132 155.08 793.132 156.623V163.688ZM806.63 163.688H804.012V157.176C804.012 155.016 803.248 153.937 801.721 153.937C800.923 153.937 800.265 154.238 799.746 154.839C799.226 155.434 798.967 156.186 798.967 157.097V163.688H796.337V152.131H798.967V154.049H799.012C799.877 152.59 801.126 151.86 802.759 151.86C804.015 151.86 804.975 152.27 805.637 153.09C806.299 153.903 806.63 155.08 806.63 156.623V163.688ZM819.62 158.62H811.742C811.772 159.689 812.1 160.512 812.724 161.092C813.356 161.671 814.221 161.961 815.32 161.961C816.554 161.961 817.686 161.592 818.717 160.855V162.965C817.664 163.627 816.272 163.958 814.541 163.958C812.841 163.958 811.505 163.435 810.535 162.39C809.572 161.336 809.09 159.858 809.09 157.954C809.09 156.156 809.621 154.693 810.681 153.564C811.75 152.428 813.074 151.86 814.654 151.86C816.234 151.86 817.457 152.368 818.322 153.384C819.187 154.399 819.62 155.81 819.62 157.616V158.62ZM817.092 156.769C817.084 155.829 816.862 155.099 816.426 154.58C815.99 154.053 815.388 153.79 814.62 153.79C813.868 153.79 813.228 154.065 812.702 154.614C812.182 155.163 811.863 155.882 811.742 156.769H817.092ZM830.386 163.157C829.461 163.691 828.366 163.958 827.102 163.958C825.387 163.958 824.002 163.424 822.949 162.356C821.896 161.28 821.369 159.888 821.369 158.18C821.369 156.277 821.933 154.749 823.062 153.598C824.198 152.439 825.714 151.86 827.61 151.86C828.663 151.86 829.593 152.044 830.398 152.413V154.851C829.593 154.249 828.735 153.948 827.825 153.948C826.719 153.948 825.812 154.324 825.105 155.076C824.397 155.821 824.044 156.799 824.044 158.011C824.044 159.207 824.375 160.151 825.037 160.843C825.707 161.536 826.602 161.882 827.723 161.882C828.663 161.882 829.551 161.547 830.386 160.877V163.157ZM839.088 163.563C838.576 163.819 837.903 163.947 837.068 163.947C834.825 163.947 833.704 162.871 833.704 160.719V154.185H831.775V152.131H833.704V149.456L836.323 148.711V152.131H839.088V154.185H836.323V159.963C836.323 160.648 836.447 161.137 836.695 161.43C836.943 161.724 837.357 161.87 837.937 161.87C838.38 161.87 838.764 161.743 839.088 161.487V163.563ZM842.665 149.704C842.236 149.704 841.868 149.565 841.559 149.287C841.258 149.009 841.108 148.655 841.108 148.226C841.108 147.797 841.258 147.44 841.559 147.154C841.868 146.868 842.236 146.725 842.665 146.725C843.109 146.725 843.485 146.868 843.794 147.154C844.102 147.44 844.257 147.797 844.257 148.226C844.257 148.632 844.102 148.982 843.794 149.276C843.485 149.562 843.109 149.704 842.665 149.704ZM843.963 163.688H841.345V152.131H843.963V163.688ZM852.518 163.958C850.735 163.958 849.309 163.42 848.24 162.344C847.18 161.261 846.649 159.828 846.649 158.045C846.649 156.103 847.202 154.587 848.308 153.496C849.422 152.406 850.919 151.86 852.8 151.86C854.606 151.86 856.013 152.39 857.021 153.451C858.029 154.512 858.533 155.983 858.533 157.864C858.533 159.707 857.988 161.186 856.897 162.299C855.813 163.405 854.354 163.958 852.518 163.958ZM852.642 153.948C851.619 153.948 850.81 154.305 850.215 155.02C849.621 155.735 849.324 156.72 849.324 157.977C849.324 159.188 849.625 160.144 850.227 160.843C850.829 161.536 851.634 161.882 852.642 161.882C853.673 161.882 854.463 161.539 855.012 160.855C855.569 160.17 855.847 159.196 855.847 157.932C855.847 156.66 855.569 155.678 855.012 154.986C854.463 154.294 853.673 153.948 852.642 153.948ZM871.5 163.688H868.882V157.176C868.882 155.016 868.118 153.937 866.591 153.937C865.794 153.937 865.135 154.238 864.616 154.839C864.097 155.434 863.837 156.186 863.837 157.097V163.688H861.208V152.131H863.837V154.049H863.882C864.748 152.59 865.997 151.86 867.629 151.86C868.886 151.86 869.845 152.27 870.507 153.09C871.169 153.903 871.5 155.08 871.5 156.623V163.688ZM883.734 161.983H883.689V169.003H881.071V152.131H883.689V154.162H883.734C884.629 152.627 885.939 151.86 887.662 151.86C889.129 151.86 890.272 152.375 891.092 153.406C891.913 154.437 892.323 155.821 892.323 157.559C892.323 159.485 891.86 161.028 890.934 162.186C890.009 163.345 888.745 163.925 887.142 163.925C885.668 163.925 884.532 163.277 883.734 161.983ZM883.666 157.424V158.857C883.666 159.7 883.933 160.415 884.468 161.001C885.009 161.588 885.694 161.882 886.522 161.882C887.492 161.882 888.252 161.506 888.801 160.753C889.358 159.993 889.637 158.936 889.637 157.582C889.637 156.446 889.377 155.558 888.858 154.918C888.346 154.271 887.65 153.948 886.77 153.948C885.837 153.948 885.085 154.279 884.513 154.941C883.949 155.603 883.666 156.431 883.666 157.424ZM901.701 154.625C901.385 154.377 900.93 154.253 900.335 154.253C899.561 154.253 898.913 154.602 898.394 155.302C897.875 156.002 897.616 156.954 897.616 158.157V163.688H894.997V152.131H897.616V154.512H897.661C897.917 153.7 898.308 153.068 898.834 152.616C899.369 152.157 899.963 151.928 900.618 151.928C901.092 151.928 901.453 151.999 901.701 152.142V154.625ZM908.472 163.958C906.689 163.958 905.264 163.42 904.195 162.344C903.134 161.261 902.604 159.828 902.604 158.045C902.604 156.103 903.157 154.587 904.263 153.496C905.376 152.406 906.874 151.86 908.755 151.86C910.56 151.86 911.967 152.39 912.975 153.451C913.984 154.512 914.488 155.983 914.488 157.864C914.488 159.707 913.942 161.186 912.851 162.299C911.768 163.405 910.308 163.958 908.472 163.958ZM908.597 153.948C907.573 153.948 906.765 154.305 906.17 155.02C905.576 155.735 905.279 156.72 905.279 157.977C905.279 159.188 905.58 160.144 906.181 160.843C906.783 161.536 907.588 161.882 908.597 161.882C909.627 161.882 910.417 161.539 910.967 160.855C911.523 160.17 911.802 159.196 911.802 157.932C911.802 156.66 911.523 155.678 910.967 154.986C910.417 154.294 909.627 153.948 908.597 153.948ZM919.826 162.017H919.781V163.688H917.163V146.578H919.781V154.162H919.826C920.721 152.627 922.03 151.86 923.753 151.86C925.213 151.86 926.353 152.379 927.173 153.417C928.001 154.448 928.414 155.833 928.414 157.571C928.414 159.504 927.952 161.054 927.026 162.22C926.101 163.379 924.837 163.958 923.234 163.958C921.729 163.958 920.593 163.311 919.826 162.017ZM919.758 157.424V158.857C919.758 159.7 920.025 160.415 920.56 161.001C921.101 161.588 921.786 161.882 922.614 161.882C923.584 161.882 924.344 161.506 924.893 160.753C925.45 159.993 925.728 158.936 925.728 157.582C925.728 156.446 925.469 155.558 924.95 154.918C924.438 154.271 923.742 153.948 922.862 153.948C921.929 153.948 921.176 154.279 920.605 154.941C920.04 155.603 919.758 156.431 919.758 157.424ZM933.719 163.688H931.089V146.578H933.719V163.688ZM946.923 158.62H939.046C939.076 159.689 939.403 160.512 940.027 161.092C940.659 161.671 941.525 161.961 942.623 161.961C943.857 161.961 944.989 161.592 946.02 160.855V162.965C944.967 163.627 943.575 163.958 941.844 163.958C940.144 163.958 938.809 163.435 937.838 162.39C936.875 161.336 936.393 159.858 936.393 157.954C936.393 156.156 936.924 154.693 937.985 153.564C939.053 152.428 940.377 151.86 941.957 151.86C943.537 151.86 944.76 152.368 945.625 153.384C946.49 154.399 946.923 155.81 946.923 157.616V158.62ZM944.395 156.769C944.388 155.829 944.166 155.099 943.729 154.58C943.293 154.053 942.691 153.79 941.923 153.79C941.171 153.79 940.532 154.065 940.005 154.614C939.486 155.163 939.166 155.882 939.046 156.769H944.395ZM966.696 163.688H964.077V157.39C964.077 156.179 963.904 155.302 963.558 154.76C963.22 154.219 962.644 153.948 961.831 153.948C961.147 153.948 960.564 154.29 960.082 154.975C959.608 155.66 959.371 156.48 959.371 157.435V163.688H956.742V157.176C956.742 155.024 955.982 153.948 954.462 153.948C953.755 153.948 953.172 154.271 952.713 154.918C952.261 155.566 952.035 156.404 952.035 157.435V163.688H949.417V152.131H952.035V153.959H952.081C952.916 152.56 954.131 151.86 955.726 151.86C956.523 151.86 957.219 152.082 957.814 152.526C958.416 152.962 958.826 153.538 959.044 154.253C959.902 152.658 961.181 151.86 962.881 151.86C965.424 151.86 966.696 153.429 966.696 156.566V163.688ZM970.973 163.936C970.522 163.936 970.138 163.789 969.822 163.496C969.506 163.195 969.348 162.837 969.348 162.423C969.348 162.002 969.506 161.641 969.822 161.34C970.138 161.039 970.522 160.889 970.973 160.889C971.432 160.889 971.819 161.039 972.135 161.34C972.459 161.641 972.621 162.002 972.621 162.423C972.621 162.837 972.459 163.195 972.135 163.496C971.819 163.789 971.432 163.936 970.973 163.936ZM636.418 182.219H631.746V196.688H629.85V182.219H625.189V180.504H636.418V182.219ZM642.738 187.004C642.415 186.756 641.948 186.632 641.339 186.632C640.549 186.632 639.887 187.004 639.353 187.749C638.826 188.494 638.563 189.51 638.563 190.796V196.688H636.712V185.131H638.563V187.512H638.608C638.871 186.7 639.274 186.068 639.815 185.616C640.357 185.157 640.963 184.928 641.632 184.928C642.114 184.928 642.482 184.98 642.738 185.086V187.004ZM653.945 185.131L648.629 198.538C647.681 200.931 646.35 202.127 644.634 202.127C644.153 202.127 643.75 202.078 643.427 201.981V200.322C643.826 200.457 644.19 200.525 644.521 200.525C645.454 200.525 646.154 199.968 646.621 198.854L647.546 196.665L643.032 185.131H645.086L648.212 194.024C648.25 194.137 648.329 194.43 648.449 194.904H648.517C648.554 194.724 648.629 194.438 648.742 194.047L652.026 185.131H653.945ZM670.558 196.688H668.707V194.882H668.662C667.857 196.266 666.672 196.958 665.107 196.958C663.956 196.958 663.053 196.654 662.398 196.044C661.751 195.435 661.428 194.626 661.428 193.618C661.428 191.458 662.699 190.202 665.242 189.848L668.707 189.363C668.707 187.399 667.913 186.417 666.326 186.417C664.934 186.417 663.677 186.891 662.556 187.839V185.943C663.692 185.221 665.001 184.86 666.484 184.86C669.2 184.86 670.558 186.297 670.558 189.171V196.688ZM668.707 190.841L665.919 191.225C665.062 191.346 664.414 191.56 663.978 191.868C663.542 192.169 663.324 192.707 663.324 193.482C663.324 194.047 663.523 194.509 663.922 194.87C664.328 195.224 664.866 195.401 665.536 195.401C666.453 195.401 667.21 195.081 667.804 194.442C668.406 193.795 668.707 192.978 668.707 191.993V190.841ZM683.909 195.762C683.909 200.006 681.877 202.127 677.814 202.127C676.385 202.127 675.136 201.856 674.068 201.315V199.464C675.369 200.186 676.611 200.547 677.792 200.547C680.636 200.547 682.058 199.035 682.058 196.01V194.746H682.013C681.132 196.221 679.808 196.958 678.04 196.958C676.603 196.958 675.444 196.447 674.564 195.423C673.691 194.393 673.255 193.012 673.255 191.282C673.255 189.318 673.725 187.757 674.666 186.598C675.614 185.439 676.908 184.86 678.548 184.86C680.105 184.86 681.26 185.485 682.013 186.733H682.058V185.131H683.909V195.762ZM682.058 191.462V189.758C682.058 188.84 681.746 188.054 681.121 187.399C680.504 186.745 679.733 186.417 678.808 186.417C677.664 186.417 676.769 186.835 676.122 187.67C675.474 188.498 675.151 189.66 675.151 191.157C675.151 192.444 675.459 193.475 676.076 194.25C676.701 195.017 677.525 195.401 678.548 195.401C679.586 195.401 680.429 195.032 681.076 194.295C681.731 193.558 682.058 192.613 682.058 191.462ZM695.928 196.688H694.077V194.882H694.032C693.227 196.266 692.042 196.958 690.477 196.958C689.326 196.958 688.423 196.654 687.768 196.044C687.121 195.435 686.798 194.626 686.798 193.618C686.798 191.458 688.069 190.202 690.612 189.848L694.077 189.363C694.077 187.399 693.283 186.417 691.696 186.417C690.304 186.417 689.047 186.891 687.926 187.839V185.943C689.063 185.221 690.372 184.86 691.854 184.86C694.57 184.86 695.928 186.297 695.928 189.171V196.688ZM694.077 190.841L691.29 191.225C690.432 191.346 689.785 191.56 689.348 191.868C688.912 192.169 688.694 192.707 688.694 193.482C688.694 194.047 688.893 194.509 689.292 194.87C689.698 195.224 690.236 195.401 690.906 195.401C691.824 195.401 692.58 195.081 693.174 194.442C693.776 193.795 694.077 192.978 694.077 191.993V190.841ZM700.363 182.197C700.032 182.197 699.75 182.084 699.517 181.858C699.284 181.632 699.167 181.346 699.167 181C699.167 180.654 699.284 180.368 699.517 180.143C699.75 179.909 700.032 179.793 700.363 179.793C700.702 179.793 700.988 179.909 701.221 180.143C701.462 180.368 701.582 180.654 701.582 181C701.582 181.331 701.462 181.614 701.221 181.847C700.988 182.08 700.702 182.197 700.363 182.197ZM701.266 196.688H699.415V185.131H701.266V196.688ZM714.606 196.688H712.755V190.097C712.755 187.644 711.86 186.417 710.069 186.417C709.144 186.417 708.376 186.767 707.767 187.467C707.165 188.159 706.864 189.036 706.864 190.097V196.688H705.013V185.131H706.864V187.049H706.909C707.782 185.59 709.046 184.86 710.701 184.86C711.965 184.86 712.932 185.27 713.602 186.09C714.271 186.903 714.606 188.08 714.606 189.623V196.688ZM726.298 196.688H724.447V179.578H726.298V196.688ZM738.317 196.688H736.466V194.882H736.421C735.616 196.266 734.431 196.958 732.866 196.958C731.715 196.958 730.812 196.654 730.158 196.044C729.511 195.435 729.187 194.626 729.187 193.618C729.187 191.458 730.459 190.202 733.002 189.848L736.466 189.363C736.466 187.399 735.673 186.417 734.085 186.417C732.693 186.417 731.437 186.891 730.316 187.839V185.943C731.452 185.221 732.761 184.86 734.243 184.86C736.959 184.86 738.317 186.297 738.317 189.171V196.688ZM736.466 190.841L733.679 191.225C732.821 191.346 732.174 191.56 731.738 191.868C731.301 192.169 731.083 192.707 731.083 193.482C731.083 194.047 731.283 194.509 731.681 194.87C732.088 195.224 732.626 195.401 733.295 195.401C734.213 195.401 734.969 195.081 735.564 194.442C736.165 193.795 736.466 192.978 736.466 191.993V190.841ZM747.165 196.575C746.729 196.815 746.153 196.936 745.439 196.936C743.415 196.936 742.403 195.807 742.403 193.55V186.711H740.416V185.131H742.403V182.309L744.254 181.711V185.131H747.165V186.711H744.254V193.223C744.254 193.998 744.385 194.551 744.649 194.882C744.912 195.213 745.348 195.378 745.958 195.378C746.424 195.378 746.827 195.25 747.165 194.995V196.575ZM758.925 191.372H750.765C750.796 192.658 751.142 193.652 751.804 194.351C752.466 195.051 753.376 195.401 754.535 195.401C755.837 195.401 757.033 194.972 758.124 194.114V195.852C757.108 196.59 755.765 196.958 754.095 196.958C752.462 196.958 751.179 196.435 750.246 195.39C749.313 194.336 748.847 192.858 748.847 190.954C748.847 189.156 749.355 187.693 750.37 186.564C751.394 185.428 752.661 184.86 754.174 184.86C755.686 184.86 756.856 185.349 757.684 186.327C758.511 187.305 758.925 188.663 758.925 190.401V191.372ZM757.029 189.803C757.022 188.735 756.762 187.903 756.25 187.309C755.746 186.715 755.043 186.417 754.14 186.417C753.267 186.417 752.526 186.73 751.917 187.354C751.307 187.979 750.931 188.795 750.788 189.803H757.029ZM767.762 187.004C767.438 186.756 766.972 186.632 766.362 186.632C765.572 186.632 764.91 187.004 764.376 187.749C763.849 188.494 763.586 189.51 763.586 190.796V196.688H761.735V185.131H763.586V187.512H763.631C763.895 186.7 764.297 186.068 764.839 185.616C765.381 185.157 765.986 184.928 766.656 184.928C767.137 184.928 767.506 184.98 767.762 185.086V187.004ZM780.944 196.958C779.236 196.958 777.87 196.42 776.847 195.344C775.831 194.261 775.323 192.828 775.323 191.045C775.323 189.103 775.854 187.587 776.915 186.496C777.975 185.406 779.409 184.86 781.214 184.86C782.937 184.86 784.28 185.39 785.243 186.451C786.214 187.512 786.699 188.983 786.699 190.864C786.699 192.707 786.176 194.186 785.131 195.299C784.092 196.405 782.697 196.958 780.944 196.958ZM781.079 186.417C779.89 186.417 778.95 186.824 778.258 187.636C777.565 188.441 777.219 189.555 777.219 190.977C777.219 192.346 777.569 193.426 778.269 194.216C778.969 195.006 779.905 195.401 781.079 195.401C782.275 195.401 783.193 195.013 783.833 194.238C784.48 193.464 784.803 192.361 784.803 190.932C784.803 189.487 784.48 188.374 783.833 187.591C783.193 186.809 782.275 186.417 781.079 186.417ZM795.683 187.004C795.359 186.756 794.893 186.632 794.283 186.632C793.493 186.632 792.831 187.004 792.297 187.749C791.77 188.494 791.507 189.51 791.507 190.796V196.688H789.656V185.131H791.507V187.512H791.552C791.815 186.7 792.218 186.068 792.76 185.616C793.301 185.157 793.907 184.928 794.577 184.928C795.058 184.928 795.427 184.98 795.683 185.086V187.004ZM810.061 187.004C809.737 186.756 809.271 186.632 808.661 186.632C807.871 186.632 807.209 187.004 806.675 187.749C806.148 188.494 805.885 189.51 805.885 190.796V196.688H804.034V185.131H805.885V187.512H805.93C806.194 186.7 806.596 186.068 807.138 185.616C807.679 185.157 808.285 184.928 808.955 184.928C809.436 184.928 809.805 184.98 810.061 185.086V187.004ZM821.358 191.372H813.198C813.228 192.658 813.574 193.652 814.236 194.351C814.899 195.051 815.809 195.401 816.968 195.401C818.269 195.401 819.466 194.972 820.557 194.114V195.852C819.541 196.59 818.198 196.958 816.528 196.958C814.895 196.958 813.612 196.435 812.679 195.39C811.746 194.336 811.28 192.858 811.28 190.954C811.28 189.156 811.787 187.693 812.803 186.564C813.826 185.428 815.094 184.86 816.607 184.86C818.119 184.86 819.289 185.349 820.116 186.327C820.944 187.305 821.358 188.663 821.358 190.401V191.372ZM819.462 189.803C819.454 188.735 819.195 187.903 818.683 187.309C818.179 186.715 817.476 186.417 816.573 186.417C815.7 186.417 814.959 186.73 814.349 187.354C813.74 187.979 813.364 188.795 813.221 189.803H819.462ZM829.879 181.203C829.517 181 829.107 180.899 828.648 180.899C827.354 180.899 826.707 181.715 826.707 183.348V185.131H829.416V186.711H826.707V196.688H824.868V186.711H822.893V185.131H824.868V183.257C824.868 182.046 825.218 181.091 825.917 180.391C826.617 179.684 827.49 179.33 828.536 179.33C829.1 179.33 829.547 179.398 829.879 179.533V181.203ZM837.44 187.004C837.116 186.756 836.65 186.632 836.041 186.632C835.251 186.632 834.588 187.004 834.054 187.749C833.528 188.494 833.264 189.51 833.264 190.796V196.688H831.413V185.131H833.264V187.512H833.309C833.573 186.7 833.975 186.068 834.517 185.616C835.059 185.157 835.664 184.928 836.334 184.928C836.816 184.928 837.184 184.98 837.44 185.086V187.004ZM848.737 191.372H840.577C840.608 192.658 840.954 193.652 841.616 194.351C842.278 195.051 843.188 195.401 844.347 195.401C845.648 195.401 846.845 194.972 847.936 194.114V195.852C846.92 196.59 845.577 196.958 843.907 196.958C842.274 196.958 840.991 196.435 840.058 195.39C839.125 194.336 838.659 192.858 838.659 190.954C838.659 189.156 839.167 187.693 840.182 186.564C841.206 185.428 842.473 184.86 843.986 184.86C845.498 184.86 846.668 185.349 847.496 186.327C848.323 187.305 848.737 188.663 848.737 190.401V191.372ZM846.841 189.803C846.833 188.735 846.574 187.903 846.062 187.309C845.558 186.715 844.855 186.417 843.952 186.417C843.079 186.417 842.338 186.73 841.729 187.354C841.119 187.979 840.743 188.795 840.6 189.803H846.841ZM850.847 196.27V194.284C851.856 195.028 852.965 195.401 854.177 195.401C855.802 195.401 856.614 194.859 856.614 193.776C856.614 193.467 856.543 193.208 856.4 192.997C856.265 192.779 856.077 192.587 855.836 192.421C855.603 192.256 855.324 192.109 855.001 191.981C854.685 191.846 854.342 191.707 853.974 191.564C853.462 191.361 853.011 191.157 852.619 190.954C852.236 190.744 851.912 190.51 851.649 190.255C851.393 189.991 851.197 189.694 851.062 189.363C850.934 189.032 850.87 188.645 850.87 188.201C850.87 187.659 850.994 187.181 851.242 186.767C851.491 186.346 851.822 185.996 852.236 185.718C852.649 185.432 853.12 185.217 853.646 185.074C854.181 184.932 854.73 184.86 855.294 184.86C856.295 184.86 857.19 185.033 857.98 185.379V187.253C857.13 186.696 856.152 186.417 855.046 186.417C854.7 186.417 854.387 186.459 854.109 186.542C853.831 186.617 853.59 186.726 853.387 186.869C853.191 187.012 853.037 187.185 852.924 187.388C852.819 187.584 852.766 187.802 852.766 188.043C852.766 188.344 852.819 188.596 852.924 188.799C853.037 189.002 853.199 189.182 853.409 189.34C853.62 189.498 853.876 189.641 854.177 189.769C854.478 189.897 854.82 190.036 855.204 190.187C855.715 190.383 856.174 190.586 856.581 190.796C856.987 190.999 857.333 191.233 857.619 191.496C857.905 191.752 858.123 192.049 858.273 192.388C858.431 192.726 858.51 193.129 858.51 193.595C858.51 194.167 858.383 194.664 858.127 195.085C857.878 195.506 857.544 195.856 857.122 196.134C856.701 196.413 856.216 196.62 855.666 196.755C855.117 196.891 854.542 196.958 853.94 196.958C852.751 196.958 851.72 196.729 850.847 196.27ZM870.959 196.688H869.108V190.029C869.108 187.621 868.212 186.417 866.422 186.417C865.519 186.417 864.759 186.767 864.142 187.467C863.525 188.159 863.217 189.051 863.217 190.142V196.688H861.366V179.578H863.217V187.049H863.262C864.15 185.59 865.414 184.86 867.054 184.86C869.657 184.86 870.959 186.429 870.959 189.566V196.688ZM886.161 196.575C885.724 196.815 885.149 196.936 884.434 196.936C882.41 196.936 881.398 195.807 881.398 193.55V186.711H879.412V185.131H881.398V182.309L883.249 181.711V185.131H886.161V186.711H883.249V193.223C883.249 193.998 883.38 194.551 883.644 194.882C883.907 195.213 884.344 195.378 884.953 195.378C885.419 195.378 885.822 195.25 886.161 194.995V196.575ZM898.225 196.688H896.374V190.029C896.374 187.621 895.479 186.417 893.688 186.417C892.785 186.417 892.025 186.767 891.408 187.467C890.791 188.159 890.483 189.051 890.483 190.142V196.688H888.632V179.578H890.483V187.049H890.528C891.416 185.59 892.68 184.86 894.32 184.86C896.923 184.86 898.225 186.429 898.225 189.566V196.688ZM911.012 191.372H902.852C902.882 192.658 903.228 193.652 903.89 194.351C904.553 195.051 905.463 195.401 906.622 195.401C907.923 195.401 909.12 194.972 910.21 194.114V195.852C909.195 196.59 907.852 196.958 906.181 196.958C904.549 196.958 903.266 196.435 902.333 195.39C901.4 194.336 900.934 192.858 900.934 190.954C900.934 189.156 901.441 187.693 902.457 186.564C903.48 185.428 904.748 184.86 906.26 184.86C907.773 184.86 908.943 185.349 909.77 186.327C910.598 187.305 911.012 188.663 911.012 190.401V191.372ZM909.116 189.803C909.108 188.735 908.849 187.903 908.337 187.309C907.833 186.715 907.129 186.417 906.227 186.417C905.354 186.417 904.613 186.73 904.003 187.354C903.394 187.979 903.018 188.795 902.875 189.803H909.116ZM922.061 195.017H922.015V202.003H920.165V185.131H922.015V187.162H922.061C922.971 185.627 924.303 184.86 926.056 184.86C927.545 184.86 928.708 185.379 929.543 186.417C930.378 187.448 930.796 188.833 930.796 190.571C930.796 192.504 930.325 194.054 929.385 195.22C928.444 196.379 927.158 196.958 925.525 196.958C924.028 196.958 922.873 196.311 922.061 195.017ZM922.015 190.356V191.97C922.015 192.926 922.324 193.738 922.941 194.408C923.565 195.07 924.355 195.401 925.311 195.401C926.432 195.401 927.308 194.972 927.94 194.114C928.58 193.257 928.9 192.064 928.9 190.537C928.9 189.25 928.602 188.242 928.008 187.512C927.414 186.782 926.609 186.417 925.593 186.417C924.517 186.417 923.652 186.794 922.997 187.546C922.343 188.291 922.015 189.228 922.015 190.356ZM942.025 196.688H940.174V194.882H940.129C939.324 196.266 938.139 196.958 936.574 196.958C935.423 196.958 934.52 196.654 933.865 196.044C933.218 195.435 932.895 194.626 932.895 193.618C932.895 191.458 934.166 190.202 936.709 189.848L940.174 189.363C940.174 187.399 939.38 186.417 937.793 186.417C936.401 186.417 935.144 186.891 934.023 187.839V185.943C935.16 185.221 936.469 184.86 937.951 184.86C940.667 184.86 942.025 186.297 942.025 189.171V196.688ZM940.174 190.841L937.387 191.225C936.529 191.346 935.882 191.56 935.445 191.868C935.009 192.169 934.791 192.707 934.791 193.482C934.791 194.047 934.99 194.509 935.389 194.87C935.795 195.224 936.333 195.401 937.003 195.401C937.921 195.401 938.677 195.081 939.271 194.442C939.873 193.795 940.174 192.978 940.174 191.993V190.841ZM955.376 195.762C955.376 200.006 953.345 202.127 949.282 202.127C947.852 202.127 946.603 201.856 945.535 201.315V199.464C946.836 200.186 948.078 200.547 949.259 200.547C952.103 200.547 953.525 199.035 953.525 196.01V194.746H953.48C952.6 196.221 951.276 196.958 949.507 196.958C948.07 196.958 946.912 196.447 946.031 195.423C945.159 194.393 944.722 193.012 944.722 191.282C944.722 189.318 945.193 187.757 946.133 186.598C947.081 185.439 948.375 184.86 950.015 184.86C951.573 184.86 952.728 185.485 953.48 186.733H953.525V185.131H955.376V195.762ZM953.525 191.462V189.758C953.525 188.84 953.213 188.054 952.588 187.399C951.971 186.745 951.2 186.417 950.275 186.417C949.131 186.417 948.236 186.835 947.589 187.67C946.942 188.498 946.618 189.66 946.618 191.157C946.618 192.444 946.927 193.475 947.544 194.25C948.168 195.017 948.992 195.401 950.015 195.401C951.054 195.401 951.896 195.032 952.543 194.295C953.198 193.558 953.525 192.613 953.525 191.462ZM968.411 191.372H960.251C960.282 192.658 960.628 193.652 961.29 194.351C961.952 195.051 962.862 195.401 964.021 195.401C965.323 195.401 966.519 194.972 967.61 194.114V195.852C966.594 196.59 965.251 196.958 963.581 196.958C961.948 196.958 960.665 196.435 959.732 195.39C958.799 194.336 958.333 192.858 958.333 190.954C958.333 189.156 958.841 187.693 959.856 186.564C960.88 185.428 962.147 184.86 963.66 184.86C965.172 184.86 966.342 185.349 967.17 186.327C967.997 187.305 968.411 188.663 968.411 190.401V191.372ZM966.515 189.803C966.508 188.735 966.248 187.903 965.736 187.309C965.232 186.715 964.529 186.417 963.626 186.417C962.753 186.417 962.012 186.73 961.403 187.354C960.793 187.979 960.417 188.795 960.274 189.803H966.515ZM971.864 196.936C971.518 196.936 971.221 196.812 970.973 196.563C970.732 196.315 970.612 196.018 970.612 195.672C970.612 195.326 970.732 195.028 970.973 194.78C971.221 194.524 971.518 194.396 971.864 194.396C972.218 194.396 972.519 194.524 972.767 194.78C973.016 195.028 973.14 195.326 973.14 195.672C973.14 196.018 973.016 196.315 972.767 196.563C972.519 196.812 972.218 196.936 971.864 196.936Z" fill="#171717"/>
<circle cx="798.717" cy="64.4151" r="26.4151" fill="#FDE7E9"/>
<path d="M800.25 70.0001C800.25 70.6904 799.69 71.2501 799 71.2501C798.309 71.2501 797.75 70.6904 797.75 70.0001C797.75 69.3097 798.309 68.7501 799 68.7501C799.69 68.7501 800.25 69.3097 800.25 70.0001ZM799 57.0001C798.447 57.0001 798 57.4478 798 58.0001V66.0001C798 66.5524 798.447 67.0001 799 67.0001C799.552 67.0001 800 66.5524 800 66.0001V58.0001C800 57.4478 799.552 57.0001 799 57.0001ZM795.936 51.8089C797.268 49.3984 800.732 49.3983 802.064 51.8088L812.557 70.8078C813.846 73.1406 812.158 76 809.494 76H788.507C785.842 76 784.155 73.1406 785.443 70.8079L795.936 51.8089ZM800.313 52.7758C799.742 51.7427 798.258 51.7427 797.687 52.7758L787.194 71.7748C786.642 72.7746 787.365 74 788.507 74H809.494C810.636 74 811.359 72.7745 810.807 71.7748L800.313 52.7758Z" fill="#C50F1F"/>
</svg>
