<?xml version="1.0" encoding="utf-8"?>
<!-- Generator: Adobe Illustrator 23.0.0, SVG Export Plug-In . SVG Version: 6.00 Build 0)  -->
<svg version="1.1" id="Layer_1" xmlns="http://www.w3.org/2000/svg" xmlns:xlink="http://www.w3.org/1999/xlink" x="0px" y="0px"
	 viewBox="0 0 156.8 117.3" style="enable-background:new 0 0 156.8 117.3;" xml:space="preserve">
<style type="text/css">
	.st0{fill:#0066FF;}
</style>
<g>
	<path class="st0" d="M6.3,69.2V18.5c0-6.7,5.5-12.2,12.2-12.2h119.8c6.7,0,12.2,5.5,12.2,12.2v64.6c0,6.7-5.5,12.2-12.2,12.2H83
		v6.3h55.3c10.2,0,18.5-8.3,18.5-18.5V18.5c0-10.2-8.3-18.5-18.5-18.5H18.5C8.3,0,0,8.3,0,18.5v50.7H6.3z"/>
	<path class="st0" d="M83.2,56.5c0,3.1,2.5,5.5,5.5,5.5h25.7c3,0,5.5-2.5,5.5-5.5V30.7c0-3.1-2.5-5.5-5.5-5.5H88.7
		c-3,0-5.5,2.5-5.5,5.5V39H72.8c-4.3,0-8.2,2.8-9.6,6.9L47.4,93.7c-0.1,0.4-0.5,0.6-0.9,0.6h-9.8V86c0-3.1-2.5-5.5-5.5-5.5H5.5
		c-3,0-5.5,2.5-5.5,5.5v25.8c0,3.1,2.5,5.5,5.5,5.5h25.7c3,0,5.5-2.5,5.5-5.5v-8.3h9.8c4.3,0,8.2-2.8,9.6-6.9l15.8-47.8
		c0.1-0.4,0.5-0.6,0.9-0.6h10.4V56.5z M27.6,108.1H9.2V89.7h18.4V108.1z"/>
</g>
</svg>
