<svg xmlns="http://www.w3.org/2000/svg" viewBox="0 0 102 76.35"><defs><style>.cls-1{fill:#edbd11;}</style></defs><title>Asset 37</title><g id="Layer_2" data-name="Layer 2"><g id="Layer_1-2" data-name="Layer 1"><path class="cls-1" d="M90,66.08H87.91V62H90a7.93,7.93,0,0,0,7.92-7.92V12A7.93,7.93,0,0,0,90,4.11H12A7.93,7.93,0,0,0,4.11,12v42A7.93,7.93,0,0,0,12,62h2.06v4.11H12a12,12,0,0,1-12-12V12A12,12,0,0,1,12,0H90a12,12,0,0,1,12,12v42a12,12,0,0,1-12,12"/><rect class="cls-1" x="19.08" y="52.31" width="11.17" height="24.04" rx="5.58" ry="5.58"/><path class="cls-1" d="M42.22,76.35a5.58,5.58,0,0,1-5.58-5.58v-33a5.58,5.58,0,0,1,11.16,0v33a5.59,5.59,0,0,1-5.59,5.59"/><path class="cls-1" d="M77.34,76.19a5.59,5.59,0,0,1-5.59-5.59V23.81a5.59,5.59,0,0,1,11.17,0V70.6a5.58,5.58,0,0,1-5.58,5.59"/><path class="cls-1" d="M59.78,76.35a5.58,5.58,0,0,1-5.58-5.58V46.22a5.59,5.59,0,1,1,11.17,0V70.76a5.58,5.58,0,0,1-5.58,5.59"/></g></g></svg>