<?xml version="1.0" encoding="utf-8"?>
<!-- Generator: Adobe Illustrator 23.0.3, SVG Export Plug-In . SVG Version: 6.00 Build 0)  -->
<svg version="1.1" id="Layer_1" xmlns="http://www.w3.org/2000/svg" xmlns:xlink="http://www.w3.org/1999/xlink" x="0px" y="0px"
	 viewBox="0 0 200 149.7" style="enable-background:new 0 0 200 149.7;" xml:space="preserve">
<style type="text/css">
	.st0{fill:#742774;}
</style>
<g>
	<g>
		<g>
			<path class="st0" d="M131.89,112.16c-2.45-2.45-6.47-2.45-8.92,0l-13.39,13.39c-2.45,2.46-2.45,6.47,0,8.93l13.39,13.39
				c2.45,2.45,6.47,2.45,8.92,0l13.39-13.39c2.45-2.45,2.45-6.47,0-8.93L131.89,112.16z"/>
		</g>
		<g>
			<path class="st0" d="M159.78,84.23c-2.45-2.45-6.47-2.45-8.93,0l-13.39,13.39c-2.45,2.46-2.45,6.47,0,8.93l13.39,13.39
				c2.45,2.46,6.47,2.46,8.93,0l13.39-13.39c2.45-2.45,2.45-6.47,0-8.93L159.78,84.23z"/>
		</g>
		<g>
			<g>
				<path class="st0" d="M117.44,97.62l-4.35-4.35l0,0L76.16,56.34c-2.45-2.46-6.47-2.46-8.92,0L30.31,93.26l0,0l-4.35,4.35
					c-2.45,2.45-2.45,6.47,0,8.93l4.35,4.35l0,0l36.93,36.92c2.45,2.46,6.47,2.46,8.92,0l36.93-36.92l0,0l4.35-4.35
					C119.89,104.09,119.89,100.07,117.44,97.62z M67.23,119.93l-9.97-9.97l-3.42-3.42c-2.45-2.45-2.45-6.47,0-8.93l13.39-13.39
					c2.45-2.45,6.47-2.45,8.92,0l13.39,13.39c2.45,2.45,2.45,6.47,0,8.93l-3.42,3.42l-9.97,9.97
					C73.7,122.38,69.69,122.38,67.23,119.93z"/>
			</g>
		</g>
		<g>
			<path class="st0" d="M131.89,92.04l13.39-13.39c2.45-2.45,2.45-6.47,0-8.93l-13.39-13.39c-2.45-2.45-6.47-2.45-8.92,0
				l-13.39,13.39c-2.45,2.46-2.45,6.47,0,8.93l13.39,13.39C125.42,94.49,129.44,94.49,131.89,92.04z"/>
		</g>
	</g>
	<path class="st0" d="M176.41,129.58h-4.03v-8.07h4.03c8.56,0,15.52-6.96,15.52-15.52v-82.4c0-8.56-6.96-15.52-15.52-15.52H23.59
		c-8.56,0-15.52,6.96-15.52,15.52v82.4c0,8.56,6.96,15.52,15.52,15.52h4.03v8.07h-4.03C10.58,129.58,0,118.99,0,105.99v-82.4
		C0,10.58,10.58,0,23.59,0h152.82C189.42,0,200,10.58,200,23.59v82.4C200,118.99,189.42,129.58,176.41,129.58"/>
</g>
</svg>
