<svg width="800" height="194" viewBox="0 0 800 194" fill="none" xmlns="http://www.w3.org/2000/svg">
<mask id="path-1-outside-1_2_8101" maskUnits="userSpaceOnUse" x="328" y="2" width="144" height="144" fill="black">
<rect fill="white" x="328" y="2" width="144" height="144"/>
<path d="M470 74C470 112.66 438.66 144 400 144C361.34 144 330 112.66 330 74C330 35.3401 361.34 4 400 4C438.66 4 470 35.3401 470 74ZM345.82 74C345.82 103.923 370.077 128.18 400 128.18C429.923 128.18 454.18 103.923 454.18 74C454.18 44.0772 429.923 19.82 400 19.82C370.077 19.82 345.82 44.0772 345.82 74Z"/>
</mask>
<path d="M470 74C470 112.66 438.66 144 400 144C361.34 144 330 112.66 330 74C330 35.3401 361.34 4 400 4C438.66 4 470 35.3401 470 74ZM345.82 74C345.82 103.923 370.077 128.18 400 128.18C429.923 128.18 454.18 103.923 454.18 74C454.18 44.0772 429.923 19.82 400 19.82C370.077 19.82 345.82 44.0772 345.82 74Z" fill="#F5F5F5"/>
<path d="M470 74C470 112.66 438.66 144 400 144C361.34 144 330 112.66 330 74C330 35.3401 361.34 4 400 4C438.66 4 470 35.3401 470 74ZM345.82 74C345.82 103.923 370.077 128.18 400 128.18C429.923 128.18 454.18 103.923 454.18 74C454.18 44.0772 429.923 19.82 400 19.82C370.077 19.82 345.82 44.0772 345.82 74Z" stroke="white" stroke-width="4" mask="url(#path-1-outside-1_2_8101)"/>
<mask id="path-2-outside-2_2_8101" maskUnits="userSpaceOnUse" x="328" y="2" width="144" height="144" fill="black">
<rect fill="white" x="328" y="2" width="144" height="144"/>
<path d="M470 74C470 112.66 438.66 144 400 144C361.34 144 330 112.66 330 74C330 35.3401 361.34 4 400 4C438.66 4 470 35.3401 470 74ZM345.82 74C345.82 103.923 370.077 128.18 400 128.18C429.923 128.18 454.18 103.923 454.18 74C454.18 44.0772 429.923 19.82 400 19.82C370.077 19.82 345.82 44.0772 345.82 74Z"/>
</mask>
<path d="M470 74C470 112.66 438.66 144 400 144C361.34 144 330 112.66 330 74C330 35.3401 361.34 4 400 4C438.66 4 470 35.3401 470 74ZM345.82 74C345.82 103.923 370.077 128.18 400 128.18C429.923 128.18 454.18 103.923 454.18 74C454.18 44.0772 429.923 19.82 400 19.82C370.077 19.82 345.82 44.0772 345.82 74Z" fill="#3483FA"/>
<path d="M470 74C470 112.66 438.66 144 400 144C361.34 144 330 112.66 330 74C330 35.3401 361.34 4 400 4C438.66 4 470 35.3401 470 74ZM345.82 74C345.82 103.923 370.077 128.18 400 128.18C429.923 128.18 454.18 103.923 454.18 74C454.18 44.0772 429.923 19.82 400 19.82C370.077 19.82 345.82 44.0772 345.82 74Z" stroke="white" stroke-width="4" mask="url(#path-2-outside-2_2_8101)"/>
<mask id="path-3-outside-3_2_8101" maskUnits="userSpaceOnUse" x="328" y="2" width="144" height="144" fill="black">
<rect fill="white" x="328" y="2" width="144" height="144"/>
<path d="M400 4C413.316 4 426.355 7.79804 437.589 14.9484C448.822 22.0988 457.783 32.3048 463.419 44.3688C469.056 56.4328 471.135 69.8543 469.411 83.0582C467.688 96.2621 462.235 108.701 453.691 118.914C445.147 129.128 433.867 136.692 421.175 140.72C408.483 144.748 394.906 145.073 382.036 141.656C369.166 138.238 357.538 131.221 348.516 121.428C339.494 111.634 333.452 99.47 331.1 86.3635L346.672 83.5694C348.492 93.7138 353.168 103.129 360.151 110.709C367.134 118.289 376.134 123.721 386.096 126.365C396.057 129.01 406.566 128.759 416.39 125.642C426.213 122.524 434.944 116.669 441.557 108.764C448.17 100.858 452.391 91.2309 453.724 81.0111C455.058 70.7912 453.449 60.403 449.086 51.0655C444.724 41.7279 437.788 33.8284 429.094 28.2941C420.399 22.7597 410.306 19.82 400 19.82L400 4Z"/>
</mask>
<path d="M400 4C413.316 4 426.355 7.79804 437.589 14.9484C448.822 22.0988 457.783 32.3048 463.419 44.3688C469.056 56.4328 471.135 69.8543 469.411 83.0582C467.688 96.2621 462.235 108.701 453.691 118.914C445.147 129.128 433.867 136.692 421.175 140.72C408.483 144.748 394.906 145.073 382.036 141.656C369.166 138.238 357.538 131.221 348.516 121.428C339.494 111.634 333.452 99.47 331.1 86.3635L346.672 83.5694C348.492 93.7138 353.168 103.129 360.151 110.709C367.134 118.289 376.134 123.721 386.096 126.365C396.057 129.01 406.566 128.759 416.39 125.642C426.213 122.524 434.944 116.669 441.557 108.764C448.17 100.858 452.391 91.2309 453.724 81.0111C455.058 70.7912 453.449 60.403 449.086 51.0655C444.724 41.7279 437.788 33.8284 429.094 28.2941C420.399 22.7597 410.306 19.82 400 19.82L400 4Z" fill="#9A44FC"/>
<path d="M400 4C413.316 4 426.355 7.79804 437.589 14.9484C448.822 22.0988 457.783 32.3048 463.419 44.3688C469.056 56.4328 471.135 69.8543 469.411 83.0582C467.688 96.2621 462.235 108.701 453.691 118.914C445.147 129.128 433.867 136.692 421.175 140.72C408.483 144.748 394.906 145.073 382.036 141.656C369.166 138.238 357.538 131.221 348.516 121.428C339.494 111.634 333.452 99.47 331.1 86.3635L346.672 83.5694C348.492 93.7138 353.168 103.129 360.151 110.709C367.134 118.289 376.134 123.721 386.096 126.365C396.057 129.01 406.566 128.759 416.39 125.642C426.213 122.524 434.944 116.669 441.557 108.764C448.17 100.858 452.391 91.2309 453.724 81.0111C455.058 70.7912 453.449 60.403 449.086 51.0655C444.724 41.7279 437.788 33.8284 429.094 28.2941C420.399 22.7597 410.306 19.82 400 19.82L400 4Z" stroke="white" stroke-width="4" mask="url(#path-3-outside-3_2_8101)"/>
<mask id="path-4-outside-4_2_8101" maskUnits="userSpaceOnUse" x="367" y="2" width="105" height="144" fill="black">
<rect fill="white" x="367" y="2" width="105" height="144"/>
<path d="M400 4C410.505 4 420.876 6.36453 430.343 10.9183C439.81 15.4721 448.131 22.0983 454.688 30.3057C461.246 38.5131 465.872 48.0912 468.224 58.33C470.575 68.5687 470.592 79.2055 468.273 89.4517C465.954 99.6979 461.359 109.291 454.828 117.519C448.297 125.747 439.997 132.4 430.545 136.984C421.092 141.568 410.729 143.966 400.224 144C389.719 144.033 379.341 141.702 369.859 137.178L376.671 122.9C384.01 126.401 392.042 128.206 400.173 128.18C408.304 128.154 416.325 126.298 423.642 122.75C430.958 119.202 437.382 114.053 442.437 107.684C447.492 101.315 451.049 93.8901 452.844 85.9596C454.638 78.029 454.625 69.7962 452.805 61.8714C450.985 53.9466 447.404 46.5332 442.329 40.1806C437.253 33.8281 430.813 28.6994 423.486 25.1748C416.158 21.6501 408.131 19.82 400 19.82L400 4Z"/>
</mask>
<path d="M400 4C410.505 4 420.876 6.36453 430.343 10.9183C439.81 15.4721 448.131 22.0983 454.688 30.3057C461.246 38.5131 465.872 48.0912 468.224 58.33C470.575 68.5687 470.592 79.2055 468.273 89.4517C465.954 99.6979 461.359 109.291 454.828 117.519C448.297 125.747 439.997 132.4 430.545 136.984C421.092 141.568 410.729 143.966 400.224 144C389.719 144.033 379.341 141.702 369.859 137.178L376.671 122.9C384.01 126.401 392.042 128.206 400.173 128.18C408.304 128.154 416.325 126.298 423.642 122.75C430.958 119.202 437.382 114.053 442.437 107.684C447.492 101.315 451.049 93.8901 452.844 85.9596C454.638 78.029 454.625 69.7962 452.805 61.8714C450.985 53.9466 447.404 46.5332 442.329 40.1806C437.253 33.8281 430.813 28.6994 423.486 25.1748C416.158 21.6501 408.131 19.82 400 19.82L400 4Z" fill="#00A892"/>
<path d="M400 4C410.505 4 420.876 6.36453 430.343 10.9183C439.81 15.4721 448.131 22.0983 454.688 30.3057C461.246 38.5131 465.872 48.0912 468.224 58.33C470.575 68.5687 470.592 79.2055 468.273 89.4517C465.954 99.6979 461.359 109.291 454.828 117.519C448.297 125.747 439.997 132.4 430.545 136.984C421.092 141.568 410.729 143.966 400.224 144C389.719 144.033 379.341 141.702 369.859 137.178L376.671 122.9C384.01 126.401 392.042 128.206 400.173 128.18C408.304 128.154 416.325 126.298 423.642 122.75C430.958 119.202 437.382 114.053 442.437 107.684C447.492 101.315 451.049 93.8901 452.844 85.9596C454.638 78.029 454.625 69.7962 452.805 61.8714C450.985 53.9466 447.404 46.5332 442.329 40.1806C437.253 33.8281 430.813 28.6994 423.486 25.1748C416.158 21.6501 408.131 19.82 400 19.82L400 4Z" stroke="white" stroke-width="4" mask="url(#path-4-outside-4_2_8101)"/>
<path d="M382.375 66.9112V84.0909H379.656V70.2393C379.164 70.5909 378.633 70.8917 378.063 71.1417C377.5 71.3839 376.856 71.5987 376.129 71.7862V69.4659C376.582 69.3175 377.02 69.1612 377.441 68.9972C377.863 68.8331 378.277 68.6495 378.684 68.4464C379.098 68.2433 379.512 68.0167 379.926 67.7667C380.348 67.5167 380.781 67.2315 381.227 66.9112H382.375ZM391.305 84.3722C389.555 84.3722 388.188 83.6573 387.203 82.2276C386.227 80.7979 385.738 78.7315 385.738 76.0284C385.738 73.0597 386.25 70.8136 387.273 69.2901C388.297 67.7667 389.773 67.005 391.703 67.005C395.398 67.005 397.246 69.8761 397.246 75.6183C397.246 78.462 396.723 80.6339 395.676 82.1339C394.637 83.6261 393.18 84.3722 391.305 84.3722ZM391.574 69.1729C389.535 69.1729 388.516 71.419 388.516 75.9112C388.516 80.1143 389.516 82.2159 391.516 82.2159C393.484 82.2159 394.469 80.0792 394.469 75.8058C394.469 71.3839 393.504 69.1729 391.574 69.1729ZM404.641 84.3722C402.891 84.3722 401.523 83.6573 400.539 82.2276C399.563 80.7979 399.074 78.7315 399.074 76.0284C399.074 73.0597 399.586 70.8136 400.609 69.2901C401.633 67.7667 403.109 67.005 405.039 67.005C408.734 67.005 410.582 69.8761 410.582 75.6183C410.582 78.462 410.059 80.6339 409.012 82.1339C407.973 83.6261 406.516 84.3722 404.641 84.3722ZM404.91 69.1729C402.871 69.1729 401.852 71.419 401.852 75.9112C401.852 80.1143 402.852 82.2159 404.852 82.2159C406.82 82.2159 407.805 80.0792 407.805 75.8058C407.805 71.3839 406.84 69.1729 404.91 69.1729ZM417.977 84.3722C416.227 84.3722 414.859 83.6573 413.875 82.2276C412.898 80.7979 412.41 78.7315 412.41 76.0284C412.41 73.0597 412.922 70.8136 413.945 69.2901C414.969 67.7667 416.445 67.005 418.375 67.005C422.07 67.005 423.918 69.8761 423.918 75.6183C423.918 78.462 423.395 80.6339 422.348 82.1339C421.309 83.6261 419.852 84.3722 417.977 84.3722ZM418.246 69.1729C416.207 69.1729 415.188 71.419 415.188 75.9112C415.188 80.1143 416.188 82.2159 418.188 82.2159C420.156 82.2159 421.141 80.0792 421.141 75.8058C421.141 71.3839 420.176 69.1729 418.246 69.1729Z" fill="#323130"/>
<path d="M477.205 52.1211C477.205 52.5 477.133 52.8457 476.988 53.1582C476.848 53.4668 476.646 53.7324 476.385 53.9551C476.127 54.1738 475.816 54.3438 475.453 54.4648C475.09 54.5859 474.689 54.6465 474.252 54.6465C473.451 54.6465 472.814 54.4941 472.342 54.1895V53.1582C472.908 53.6035 473.557 53.8262 474.287 53.8262C474.58 53.8262 474.844 53.7891 475.078 53.7148C475.316 53.6406 475.52 53.5332 475.688 53.3926C475.859 53.252 475.99 53.082 476.08 52.8828C476.174 52.6836 476.221 52.459 476.221 52.209C476.221 51.1113 475.439 50.5625 473.877 50.5625H473.18V49.748H473.842C475.225 49.748 475.916 49.2324 475.916 48.2012C475.916 47.248 475.389 46.7715 474.334 46.7715C473.74 46.7715 473.184 46.9707 472.664 47.3691V46.4375C473.199 46.1172 473.836 45.957 474.574 45.957C474.926 45.957 475.244 46.0059 475.529 46.1035C475.814 46.2012 476.059 46.3379 476.262 46.5137C476.465 46.6895 476.621 46.9004 476.73 47.1465C476.844 47.3926 476.9 47.6641 476.9 47.9609C476.9 49.0664 476.342 49.7773 475.225 50.0938V50.1172C475.51 50.1484 475.773 50.2188 476.016 50.3281C476.258 50.4336 476.467 50.5723 476.643 50.7441C476.818 50.916 476.955 51.1191 477.053 51.3535C477.154 51.584 477.205 51.8398 477.205 52.1211ZM484.078 51.834C484.078 52.2441 484.012 52.6211 483.879 52.9648C483.746 53.3086 483.562 53.6055 483.328 53.8555C483.094 54.1055 482.814 54.3008 482.49 54.4414C482.166 54.5781 481.814 54.6465 481.436 54.6465C481.014 54.6465 480.635 54.5586 480.299 54.3828C479.967 54.207 479.684 53.9551 479.449 53.627C479.219 53.2949 479.043 52.8906 478.922 52.4141C478.801 51.9375 478.74 51.4004 478.74 50.8027C478.74 50.0723 478.82 49.4102 478.98 48.8164C479.145 48.2188 479.375 47.709 479.672 47.2871C479.973 46.8613 480.334 46.5332 480.756 46.3027C481.178 46.0723 481.648 45.957 482.168 45.957C482.746 45.957 483.211 46.0371 483.562 46.1973V47.1055C483.129 46.8828 482.672 46.7715 482.191 46.7715C481.816 46.7715 481.479 46.8555 481.178 47.0234C480.877 47.1914 480.619 47.4297 480.404 47.7383C480.189 48.043 480.023 48.4121 479.906 48.8457C479.793 49.2793 479.736 49.7617 479.736 50.293H479.76C480.146 49.5938 480.785 49.2441 481.676 49.2441C482.043 49.2441 482.373 49.3066 482.666 49.4316C482.963 49.5566 483.215 49.7344 483.422 49.9648C483.633 50.1914 483.795 50.4629 483.908 50.7793C484.021 51.0957 484.078 51.4473 484.078 51.834ZM483.094 51.957C483.094 51.6641 483.057 51.4004 482.982 51.166C482.908 50.9316 482.801 50.7324 482.66 50.5684C482.523 50.4043 482.354 50.2793 482.15 50.1934C481.947 50.1035 481.717 50.0586 481.459 50.0586C481.221 50.0586 481 50.1035 480.797 50.1934C480.594 50.2832 480.418 50.4062 480.27 50.5625C480.121 50.7148 480.004 50.8945 479.918 51.1016C479.836 51.3047 479.795 51.5215 479.795 51.752C479.795 52.041 479.836 52.3125 479.918 52.5664C480 52.8164 480.115 53.0352 480.264 53.2227C480.412 53.4102 480.588 53.5586 480.791 53.668C480.998 53.7734 481.227 53.8262 481.477 53.8262C481.719 53.8262 481.939 53.7812 482.139 53.6914C482.338 53.5977 482.508 53.4688 482.648 53.3047C482.789 53.1406 482.898 52.9453 482.977 52.7188C483.055 52.4883 483.094 52.2344 483.094 51.957ZM486.926 50.3105C486.348 50.3105 485.887 50.1211 485.543 49.7422C485.199 49.3594 485.027 48.8496 485.027 48.2129C485.027 47.5176 485.209 46.9707 485.572 46.5723C485.936 46.1699 486.426 45.9688 487.043 45.9688C487.641 45.9688 488.104 46.1543 488.432 46.5254C488.764 46.8965 488.93 47.418 488.93 48.0898C488.93 48.7617 488.744 49.3008 488.373 49.707C488.006 50.1094 487.523 50.3105 486.926 50.3105ZM487.008 46.6133C486.637 46.6133 486.344 46.752 486.129 47.0293C485.914 47.3027 485.807 47.6797 485.807 48.1602C485.807 48.6328 485.912 49.002 486.123 49.2676C486.334 49.5293 486.621 49.6602 486.984 49.6602C487.352 49.6602 487.639 49.5234 487.846 49.25C488.053 48.9766 488.156 48.5977 488.156 48.1133C488.156 47.6406 488.053 47.2734 487.846 47.0117C487.643 46.7461 487.363 46.6133 487.008 46.6133ZM492.551 46.0977L487.16 54.5586H486.322L491.707 46.0977H492.551ZM491.93 54.6289C491.352 54.6289 490.891 54.4375 490.547 54.0547C490.203 53.6719 490.031 53.1641 490.031 52.5312C490.031 51.8359 490.215 51.2871 490.582 50.8848C490.949 50.4785 491.438 50.2754 492.047 50.2754C492.641 50.2754 493.104 50.4629 493.436 50.8379C493.768 51.2129 493.934 51.7383 493.934 52.4141C493.934 53.082 493.748 53.6191 493.377 54.0254C493.01 54.4277 492.527 54.6289 491.93 54.6289ZM492.012 50.9375C491.637 50.9375 491.342 51.0742 491.127 51.3477C490.916 51.6211 490.811 52 490.811 52.4844C490.811 52.9492 490.916 53.3145 491.127 53.5801C491.338 53.8418 491.625 53.9727 491.988 53.9727C492.355 53.9727 492.643 53.8359 492.85 53.5625C493.057 53.2852 493.16 52.9062 493.16 52.4258C493.16 51.9492 493.057 51.582 492.85 51.3242C492.646 51.0664 492.367 50.9375 492.012 50.9375Z" fill="#323130"/>
<path d="M414.145 151.301C414.145 151.043 414.104 150.818 414.021 150.627C413.943 150.436 413.834 150.277 413.693 150.152C413.557 150.023 413.395 149.928 413.207 149.865C413.02 149.803 412.816 149.771 412.598 149.771C412.41 149.771 412.227 149.797 412.047 149.848C411.867 149.898 411.691 149.969 411.52 150.059C411.352 150.148 411.188 150.256 411.027 150.381C410.871 150.506 410.725 150.645 410.588 150.797V149.766C410.857 149.504 411.158 149.305 411.49 149.168C411.826 149.027 412.234 148.957 412.715 148.957C413.059 148.957 413.377 149.008 413.67 149.109C413.963 149.207 414.217 149.352 414.432 149.543C414.646 149.734 414.814 149.971 414.936 150.252C415.061 150.533 415.123 150.855 415.123 151.219C415.123 151.551 415.084 151.852 415.006 152.121C414.932 152.391 414.816 152.645 414.66 152.883C414.508 153.121 414.314 153.35 414.08 153.568C413.846 153.787 413.57 154.01 413.254 154.236C412.859 154.518 412.533 154.758 412.275 154.957C412.021 155.156 411.818 155.344 411.666 155.52C411.518 155.691 411.412 155.865 411.35 156.041C411.291 156.213 411.262 156.412 411.262 156.639H415.445V157.5H410.26V157.084C410.26 156.725 410.299 156.408 410.377 156.135C410.455 155.861 410.584 155.602 410.764 155.355C410.943 155.109 411.178 154.863 411.467 154.617C411.76 154.371 412.117 154.094 412.539 153.785C412.844 153.566 413.098 153.357 413.301 153.158C413.508 152.959 413.674 152.76 413.799 152.561C413.924 152.361 414.012 152.16 414.062 151.957C414.117 151.75 414.145 151.531 414.145 151.301ZM422.066 153.264C422.066 153.967 422.002 154.59 421.873 155.133C421.748 155.676 421.564 156.135 421.322 156.51C421.084 156.881 420.789 157.164 420.438 157.359C420.09 157.551 419.693 157.646 419.248 157.646C418.826 157.646 418.449 157.555 418.117 157.371C417.789 157.184 417.512 156.912 417.285 156.557C417.059 156.201 416.887 155.766 416.77 155.25C416.652 154.73 416.594 154.137 416.594 153.469C416.594 152.734 416.654 152.086 416.775 151.523C416.9 150.961 417.082 150.49 417.32 150.111C417.559 149.729 417.854 149.441 418.205 149.25C418.561 149.055 418.967 148.957 419.424 148.957C421.186 148.957 422.066 150.393 422.066 153.264ZM421.082 153.357C421.082 150.967 420.514 149.771 419.377 149.771C418.178 149.771 417.578 150.988 417.578 153.422C417.578 155.691 418.166 156.826 419.342 156.826C420.502 156.826 421.082 155.67 421.082 153.357ZM424.926 153.311C424.348 153.311 423.887 153.121 423.543 152.742C423.199 152.359 423.027 151.85 423.027 151.213C423.027 150.518 423.209 149.971 423.572 149.572C423.936 149.17 424.426 148.969 425.043 148.969C425.641 148.969 426.104 149.154 426.432 149.525C426.764 149.896 426.93 150.418 426.93 151.09C426.93 151.762 426.744 152.301 426.373 152.707C426.006 153.109 425.523 153.311 424.926 153.311ZM425.008 149.613C424.637 149.613 424.344 149.752 424.129 150.029C423.914 150.303 423.807 150.68 423.807 151.16C423.807 151.633 423.912 152.002 424.123 152.268C424.334 152.529 424.621 152.66 424.984 152.66C425.352 152.66 425.639 152.523 425.846 152.25C426.053 151.977 426.156 151.598 426.156 151.113C426.156 150.641 426.053 150.273 425.846 150.012C425.643 149.746 425.363 149.613 425.008 149.613ZM430.551 149.098L425.16 157.559H424.322L429.707 149.098H430.551ZM429.93 157.629C429.352 157.629 428.891 157.438 428.547 157.055C428.203 156.672 428.031 156.164 428.031 155.531C428.031 154.836 428.215 154.287 428.582 153.885C428.949 153.479 429.438 153.275 430.047 153.275C430.641 153.275 431.104 153.463 431.436 153.838C431.768 154.213 431.934 154.738 431.934 155.414C431.934 156.082 431.748 156.619 431.377 157.025C431.01 157.428 430.527 157.629 429.93 157.629ZM430.012 153.938C429.637 153.938 429.342 154.074 429.127 154.348C428.916 154.621 428.811 155 428.811 155.484C428.811 155.949 428.916 156.314 429.127 156.58C429.338 156.842 429.625 156.973 429.988 156.973C430.355 156.973 430.643 156.836 430.85 156.562C431.057 156.285 431.16 155.906 431.16 155.426C431.16 154.949 431.057 154.582 430.85 154.324C430.646 154.066 430.367 153.938 430.012 153.938Z" fill="#323130"/>
<path d="M325.363 128.5H324.402V121.24C324.328 121.314 324.219 121.4 324.074 121.498C323.934 121.592 323.773 121.686 323.594 121.779C323.418 121.873 323.23 121.961 323.031 122.043C322.836 122.125 322.645 122.189 322.457 122.236V121.264C322.668 121.205 322.891 121.127 323.125 121.029C323.363 120.928 323.596 120.816 323.822 120.695C324.053 120.57 324.27 120.441 324.473 120.309C324.676 120.172 324.852 120.039 325 119.91H325.363V128.5ZM332.57 120.098V125.646H333.648V126.525H332.57V128.5H331.621V126.525H327.672V125.693C328.039 125.279 328.41 124.838 328.785 124.369C329.16 123.896 329.518 123.418 329.857 122.934C330.201 122.449 330.518 121.967 330.807 121.486C331.1 121.002 331.346 120.539 331.545 120.098H332.57ZM328.756 125.646H331.621V121.533C331.328 122.045 331.051 122.502 330.789 122.904C330.527 123.307 330.277 123.672 330.039 124C329.805 124.328 329.58 124.625 329.365 124.891C329.15 125.156 328.947 125.408 328.756 125.646ZM336.426 124.311C335.848 124.311 335.387 124.121 335.043 123.742C334.699 123.359 334.527 122.85 334.527 122.213C334.527 121.518 334.709 120.971 335.072 120.572C335.436 120.17 335.926 119.969 336.543 119.969C337.141 119.969 337.604 120.154 337.932 120.525C338.264 120.896 338.43 121.418 338.43 122.09C338.43 122.762 338.244 123.301 337.873 123.707C337.506 124.109 337.023 124.311 336.426 124.311ZM336.508 120.613C336.137 120.613 335.844 120.752 335.629 121.029C335.414 121.303 335.307 121.68 335.307 122.16C335.307 122.633 335.412 123.002 335.623 123.268C335.834 123.529 336.121 123.66 336.484 123.66C336.852 123.66 337.139 123.523 337.346 123.25C337.553 122.977 337.656 122.598 337.656 122.113C337.656 121.641 337.553 121.273 337.346 121.012C337.143 120.746 336.863 120.613 336.508 120.613ZM342.051 120.098L336.66 128.559H335.822L341.207 120.098H342.051ZM341.43 128.629C340.852 128.629 340.391 128.438 340.047 128.055C339.703 127.672 339.531 127.164 339.531 126.531C339.531 125.836 339.715 125.287 340.082 124.885C340.449 124.479 340.938 124.275 341.547 124.275C342.141 124.275 342.604 124.463 342.936 124.838C343.268 125.213 343.434 125.738 343.434 126.414C343.434 127.082 343.248 127.619 342.877 128.025C342.51 128.428 342.027 128.629 341.43 128.629ZM341.512 124.938C341.137 124.938 340.842 125.074 340.627 125.348C340.416 125.621 340.311 126 340.311 126.484C340.311 126.949 340.416 127.314 340.627 127.58C340.838 127.842 341.125 127.973 341.488 127.973C341.855 127.973 342.143 127.836 342.35 127.562C342.557 127.285 342.66 126.906 342.66 126.426C342.66 125.949 342.557 125.582 342.35 125.324C342.146 125.066 341.867 124.938 341.512 124.938Z" fill="#323130"/>
<path d="M317.497 167.624C317.497 167.278 317.777 166.999 318.122 166.999H326.873C327.219 166.999 327.499 167.278 327.499 167.624V176.375C327.499 176.72 327.219 177 326.873 177H318.122C317.777 177 317.497 176.72 317.497 176.375V167.624Z" fill="#00A892"/>
<path d="M336.866 169.488H333.585V172.395H336.62V173.279H333.585V177H332.601V168.598H336.866V169.488ZM338.823 169.477C338.652 169.477 338.505 169.418 338.384 169.301C338.263 169.184 338.202 169.035 338.202 168.855C338.202 168.676 338.263 168.527 338.384 168.41C338.505 168.289 338.652 168.229 338.823 168.229C338.999 168.229 339.148 168.289 339.269 168.41C339.394 168.527 339.456 168.676 339.456 168.855C339.456 169.027 339.394 169.174 339.269 169.295C339.148 169.416 338.999 169.477 338.823 169.477ZM339.292 177H338.331V171H339.292V177ZM344.366 171.973C344.198 171.844 343.956 171.779 343.64 171.779C343.23 171.779 342.886 171.973 342.609 172.359C342.335 172.746 342.198 173.273 342.198 173.941V177H341.237V171H342.198V172.236H342.222C342.359 171.814 342.568 171.486 342.849 171.252C343.13 171.014 343.445 170.895 343.792 170.895C344.042 170.895 344.234 170.922 344.366 170.977V171.973ZM345.046 176.783V175.752C345.57 176.139 346.146 176.332 346.775 176.332C347.618 176.332 348.04 176.051 348.04 175.488C348.04 175.328 348.003 175.193 347.929 175.084C347.859 174.971 347.761 174.871 347.636 174.785C347.515 174.699 347.37 174.623 347.202 174.557C347.038 174.486 346.861 174.414 346.669 174.34C346.403 174.234 346.169 174.129 345.966 174.023C345.767 173.914 345.599 173.793 345.462 173.66C345.329 173.523 345.228 173.369 345.157 173.197C345.091 173.025 345.058 172.824 345.058 172.594C345.058 172.312 345.122 172.064 345.251 171.85C345.38 171.631 345.552 171.449 345.767 171.305C345.982 171.156 346.226 171.045 346.499 170.971C346.777 170.896 347.062 170.859 347.355 170.859C347.874 170.859 348.339 170.949 348.749 171.129V172.102C348.308 171.812 347.8 171.668 347.226 171.668C347.046 171.668 346.884 171.689 346.739 171.732C346.595 171.771 346.47 171.828 346.364 171.902C346.263 171.977 346.183 172.066 346.124 172.172C346.07 172.273 346.042 172.387 346.042 172.512C346.042 172.668 346.07 172.799 346.124 172.904C346.183 173.01 346.267 173.104 346.376 173.186C346.486 173.268 346.618 173.342 346.775 173.408C346.931 173.475 347.109 173.547 347.308 173.625C347.573 173.727 347.812 173.832 348.023 173.941C348.234 174.047 348.413 174.168 348.562 174.305C348.71 174.438 348.823 174.592 348.902 174.768C348.984 174.943 349.025 175.152 349.025 175.395C349.025 175.691 348.958 175.949 348.825 176.168C348.696 176.387 348.523 176.568 348.304 176.713C348.085 176.857 347.833 176.965 347.548 177.035C347.263 177.105 346.964 177.141 346.652 177.141C346.034 177.141 345.499 177.021 345.046 176.783ZM353.29 176.941C353.064 177.066 352.765 177.129 352.394 177.129C351.343 177.129 350.818 176.543 350.818 175.371V171.82H349.786V171H350.818V169.535L351.778 169.225V171H353.29V171.82H351.778V175.201C351.778 175.604 351.847 175.891 351.984 176.062C352.12 176.234 352.347 176.32 352.663 176.32C352.905 176.32 353.114 176.254 353.29 176.121V176.941Z" fill="#323130"/>
<path d="M370.499 167.624C370.499 167.278 370.778 166.999 371.124 166.999H379.875C380.22 166.999 380.5 167.278 380.5 167.624V176.375C380.5 176.72 380.22 177 379.875 177H371.124C370.778 177 370.499 176.72 370.499 176.375V167.624Z" fill="#9A44FC"/>
<path d="M385.21 176.66V175.5C385.343 175.617 385.501 175.723 385.684 175.816C385.872 175.91 386.067 175.99 386.27 176.057C386.477 176.119 386.684 176.168 386.891 176.203C387.098 176.238 387.29 176.256 387.466 176.256C388.071 176.256 388.522 176.145 388.819 175.922C389.12 175.695 389.27 175.371 389.27 174.949C389.27 174.723 389.22 174.525 389.118 174.357C389.02 174.189 388.884 174.037 388.708 173.9C388.532 173.76 388.323 173.627 388.081 173.502C387.843 173.373 387.585 173.238 387.307 173.098C387.014 172.949 386.741 172.799 386.487 172.646C386.233 172.494 386.013 172.326 385.825 172.143C385.638 171.959 385.489 171.752 385.38 171.521C385.274 171.287 385.222 171.014 385.222 170.701C385.222 170.318 385.306 169.986 385.473 169.705C385.641 169.42 385.862 169.186 386.136 169.002C386.409 168.818 386.72 168.682 387.067 168.592C387.419 168.502 387.776 168.457 388.139 168.457C388.968 168.457 389.571 168.557 389.95 168.756V169.863C389.454 169.52 388.817 169.348 388.04 169.348C387.825 169.348 387.61 169.371 387.395 169.418C387.181 169.461 386.989 169.533 386.821 169.635C386.653 169.736 386.516 169.867 386.411 170.027C386.306 170.188 386.253 170.383 386.253 170.613C386.253 170.828 386.292 171.014 386.37 171.17C386.452 171.326 386.571 171.469 386.727 171.598C386.884 171.727 387.073 171.852 387.296 171.973C387.522 172.094 387.782 172.227 388.075 172.371C388.376 172.52 388.661 172.676 388.931 172.84C389.2 173.004 389.436 173.186 389.639 173.385C389.843 173.584 390.003 173.805 390.12 174.047C390.241 174.289 390.302 174.566 390.302 174.879C390.302 175.293 390.22 175.645 390.056 175.934C389.895 176.219 389.677 176.451 389.399 176.631C389.126 176.811 388.809 176.939 388.45 177.018C388.091 177.1 387.712 177.141 387.313 177.141C387.181 177.141 387.016 177.129 386.821 177.105C386.626 177.086 386.427 177.055 386.223 177.012C386.02 176.973 385.827 176.924 385.643 176.865C385.464 176.803 385.319 176.734 385.21 176.66ZM396.671 174.24H392.434C392.45 174.908 392.63 175.424 392.973 175.787C393.317 176.15 393.79 176.332 394.391 176.332C395.067 176.332 395.688 176.109 396.255 175.664V176.566C395.727 176.949 395.03 177.141 394.163 177.141C393.315 177.141 392.649 176.869 392.165 176.326C391.681 175.779 391.438 175.012 391.438 174.023C391.438 173.09 391.702 172.33 392.229 171.744C392.761 171.154 393.419 170.859 394.204 170.859C394.989 170.859 395.597 171.113 396.026 171.621C396.456 172.129 396.671 172.834 396.671 173.736V174.24ZM395.686 173.426C395.682 172.871 395.548 172.439 395.282 172.131C395.02 171.822 394.655 171.668 394.186 171.668C393.733 171.668 393.348 171.83 393.032 172.154C392.716 172.479 392.52 172.902 392.446 173.426H395.686ZM402.22 176.725C401.759 177.002 401.212 177.141 400.579 177.141C399.723 177.141 399.032 176.863 398.505 176.309C397.981 175.75 397.72 175.027 397.72 174.141C397.72 173.152 398.003 172.359 398.569 171.762C399.136 171.16 399.891 170.859 400.837 170.859C401.364 170.859 401.829 170.957 402.231 171.152V172.137C401.786 171.824 401.309 171.668 400.802 171.668C400.188 171.668 399.684 171.889 399.29 172.33C398.899 172.768 398.704 173.344 398.704 174.059C398.704 174.762 398.888 175.316 399.255 175.723C399.626 176.129 400.122 176.332 400.743 176.332C401.266 176.332 401.759 176.158 402.22 175.811V176.725ZM406.181 177.141C405.294 177.141 404.585 176.861 404.054 176.303C403.526 175.74 403.263 174.996 403.263 174.07C403.263 173.062 403.538 172.275 404.089 171.709C404.639 171.143 405.384 170.859 406.321 170.859C407.216 170.859 407.913 171.135 408.413 171.686C408.917 172.236 409.169 173 409.169 173.977C409.169 174.934 408.897 175.701 408.354 176.279C407.815 176.854 407.091 177.141 406.181 177.141ZM406.251 171.668C405.634 171.668 405.145 171.879 404.786 172.301C404.427 172.719 404.247 173.297 404.247 174.035C404.247 174.746 404.429 175.307 404.792 175.717C405.155 176.127 405.641 176.332 406.251 176.332C406.872 176.332 407.348 176.131 407.681 175.729C408.016 175.326 408.184 174.754 408.184 174.012C408.184 173.262 408.016 172.684 407.681 172.277C407.348 171.871 406.872 171.668 406.251 171.668ZM415.684 177H414.723V173.578C414.723 172.305 414.259 171.668 413.329 171.668C412.848 171.668 412.45 171.85 412.134 172.213C411.821 172.572 411.665 173.027 411.665 173.578V177H410.704V171H411.665V171.996H411.688C412.141 171.238 412.798 170.859 413.657 170.859C414.313 170.859 414.815 171.072 415.163 171.498C415.511 171.92 415.684 172.531 415.684 173.332V177ZM422.622 177H421.661V175.98H421.638C421.192 176.754 420.505 177.141 419.575 177.141C418.821 177.141 418.218 176.873 417.764 176.338C417.315 175.799 417.091 175.066 417.091 174.141C417.091 173.148 417.341 172.354 417.841 171.756C418.341 171.158 419.007 170.859 419.839 170.859C420.663 170.859 421.263 171.184 421.638 171.832H421.661V168.117H422.622V177ZM421.661 174.287V173.402C421.661 172.918 421.501 172.508 421.181 172.172C420.86 171.836 420.454 171.668 419.962 171.668C419.376 171.668 418.915 171.883 418.579 172.312C418.243 172.742 418.075 173.336 418.075 174.094C418.075 174.785 418.235 175.332 418.556 175.734C418.88 176.133 419.313 176.332 419.856 176.332C420.391 176.332 420.825 176.139 421.157 175.752C421.493 175.365 421.661 174.877 421.661 174.287Z" fill="#323130"/>
<path d="M440.5 167.624C440.5 167.278 440.78 166.999 441.125 166.999H449.877C450.222 166.999 450.502 167.278 450.502 167.624V176.375C450.502 176.72 450.222 177 449.877 177H441.125C440.78 177 440.5 176.72 440.5 176.375V167.624Z" fill="#3483FA"/>
<path d="M460.573 169.488H458.147V177H457.163V169.488H454.743V168.598H460.573V169.488ZM466.749 177H465.788V173.543C465.788 172.293 465.323 171.668 464.393 171.668C463.924 171.668 463.53 171.85 463.209 172.213C462.889 172.572 462.729 173.035 462.729 173.602V177H461.768V168.117H462.729V171.996H462.752C463.213 171.238 463.87 170.859 464.721 170.859C466.073 170.859 466.749 171.674 466.749 173.303V177ZM469.057 169.477C468.885 169.477 468.739 169.418 468.618 169.301C468.497 169.184 468.436 169.035 468.436 168.855C468.436 168.676 468.497 168.527 468.618 168.41C468.739 168.289 468.885 168.229 469.057 168.229C469.233 168.229 469.381 168.289 469.502 168.41C469.627 168.527 469.69 168.676 469.69 168.855C469.69 169.027 469.627 169.174 469.502 169.295C469.381 169.416 469.233 169.477 469.057 169.477ZM469.526 177H468.565V171H469.526V177ZM474.6 171.973C474.432 171.844 474.19 171.779 473.874 171.779C473.463 171.779 473.12 171.973 472.842 172.359C472.569 172.746 472.432 173.273 472.432 173.941V177H471.471V171H472.432V172.236H472.456C472.592 171.814 472.801 171.486 473.083 171.252C473.364 171.014 473.678 170.895 474.026 170.895C474.276 170.895 474.467 170.922 474.6 170.977V171.973ZM480.764 177H479.803V175.98H479.78C479.334 176.754 478.647 177.141 477.717 177.141C476.963 177.141 476.36 176.873 475.907 176.338C475.458 175.799 475.233 175.066 475.233 174.141C475.233 173.148 475.483 172.354 475.983 171.756C476.483 171.158 477.149 170.859 477.981 170.859C478.805 170.859 479.405 171.184 479.78 171.832H479.803V168.117H480.764V177ZM479.803 174.287V173.402C479.803 172.918 479.643 172.508 479.323 172.172C479.002 171.836 478.596 171.668 478.104 171.668C477.518 171.668 477.057 171.883 476.721 172.312C476.385 172.742 476.217 173.336 476.217 174.094C476.217 174.785 476.377 175.332 476.698 175.734C477.022 176.133 477.456 176.332 477.999 176.332C478.534 176.332 478.967 176.139 479.299 175.752C479.635 175.365 479.803 174.877 479.803 174.287Z" fill="#323130"/>
</svg>
