<svg width="800" height="198" viewBox="0 0 800 198" fill="none" xmlns="http://www.w3.org/2000/svg">
<rect width="800" height="198" fill="#FAFAFA"/>
<mask id="path-1-outside-1_2_8101" maskUnits="userSpaceOnUse" x="328" y="5.5" width="144" height="144" fill="black">
<rect fill="white" x="328" y="5.5" width="144" height="144"/>
<path d="M470 77.5C470 116.16 438.66 147.5 400 147.5C361.34 147.5 330 116.16 330 77.5C330 38.8401 361.34 7.5 400 7.5C438.66 7.5 470 38.8401 470 77.5ZM345.82 77.5C345.82 107.423 370.077 131.68 400 131.68C429.923 131.68 454.18 107.423 454.18 77.5C454.18 47.5772 429.923 23.32 400 23.32C370.077 23.32 345.82 47.5772 345.82 77.5Z"/>
</mask>
<path d="M470 77.5C470 116.16 438.66 147.5 400 147.5C361.34 147.5 330 116.16 330 77.5C330 38.8401 361.34 7.5 400 7.5C438.66 7.5 470 38.8401 470 77.5ZM345.82 77.5C345.82 107.423 370.077 131.68 400 131.68C429.923 131.68 454.18 107.423 454.18 77.5C454.18 47.5772 429.923 23.32 400 23.32C370.077 23.32 345.82 47.5772 345.82 77.5Z" fill="#F5F5F5"/>
<path d="M470 77.5C470 116.16 438.66 147.5 400 147.5C361.34 147.5 330 116.16 330 77.5C330 38.8401 361.34 7.5 400 7.5C438.66 7.5 470 38.8401 470 77.5ZM345.82 77.5C345.82 107.423 370.077 131.68 400 131.68C429.923 131.68 454.18 107.423 454.18 77.5C454.18 47.5772 429.923 23.32 400 23.32C370.077 23.32 345.82 47.5772 345.82 77.5Z" stroke="white" stroke-width="4" mask="url(#path-1-outside-1_2_8101)"/>
<mask id="path-2-outside-2_2_8101" maskUnits="userSpaceOnUse" x="328" y="5.5" width="144" height="144" fill="black">
<rect fill="white" x="328" y="5.5" width="144" height="144"/>
<path d="M470 77.5C470 116.16 438.66 147.5 400 147.5C361.34 147.5 330 116.16 330 77.5C330 38.8401 361.34 7.5 400 7.5C438.66 7.5 470 38.8401 470 77.5ZM345.82 77.5C345.82 107.423 370.077 131.68 400 131.68C429.923 131.68 454.18 107.423 454.18 77.5C454.18 47.5772 429.923 23.32 400 23.32C370.077 23.32 345.82 47.5772 345.82 77.5Z"/>
</mask>
<path d="M470 77.5C470 116.16 438.66 147.5 400 147.5C361.34 147.5 330 116.16 330 77.5C330 38.8401 361.34 7.5 400 7.5C438.66 7.5 470 38.8401 470 77.5ZM345.82 77.5C345.82 107.423 370.077 131.68 400 131.68C429.923 131.68 454.18 107.423 454.18 77.5C454.18 47.5772 429.923 23.32 400 23.32C370.077 23.32 345.82 47.5772 345.82 77.5Z" fill="#3483FA"/>
<path d="M470 77.5C470 116.16 438.66 147.5 400 147.5C361.34 147.5 330 116.16 330 77.5C330 38.8401 361.34 7.5 400 7.5C438.66 7.5 470 38.8401 470 77.5ZM345.82 77.5C345.82 107.423 370.077 131.68 400 131.68C429.923 131.68 454.18 107.423 454.18 77.5C454.18 47.5772 429.923 23.32 400 23.32C370.077 23.32 345.82 47.5772 345.82 77.5Z" stroke="white" stroke-width="4" mask="url(#path-2-outside-2_2_8101)"/>
<mask id="path-3-outside-3_2_8101" maskUnits="userSpaceOnUse" x="328" y="5.5" width="144" height="144" fill="black">
<rect fill="white" x="328" y="5.5" width="144" height="144"/>
<path d="M400 7.5C413.316 7.5 426.355 11.298 437.589 18.4484C448.822 25.5988 457.783 35.8048 463.419 47.8688C469.056 59.9328 471.135 73.3543 469.411 86.5582C467.688 99.7621 462.235 112.201 453.691 122.414C445.147 132.628 433.867 140.192 421.175 144.22C408.483 148.248 394.906 148.573 382.036 145.156C369.166 141.738 357.538 134.721 348.516 124.928C339.494 115.134 333.452 102.97 331.1 89.8635L346.672 87.0694C348.492 97.2138 353.168 106.629 360.151 114.209C367.134 121.789 376.134 127.221 386.096 129.865C396.057 132.51 406.566 132.259 416.39 129.142C426.213 126.024 434.944 120.169 441.557 112.264C448.17 104.358 452.391 94.7309 453.724 84.5111C455.058 74.2912 453.449 63.903 449.086 54.5655C444.724 45.2279 437.788 37.3284 429.094 31.7941C420.399 26.2597 410.306 23.32 400 23.32V7.5Z"/>
</mask>
<path d="M400 7.5C413.316 7.5 426.355 11.298 437.589 18.4484C448.822 25.5988 457.783 35.8048 463.419 47.8688C469.056 59.9328 471.135 73.3543 469.411 86.5582C467.688 99.7621 462.235 112.201 453.691 122.414C445.147 132.628 433.867 140.192 421.175 144.22C408.483 148.248 394.906 148.573 382.036 145.156C369.166 141.738 357.538 134.721 348.516 124.928C339.494 115.134 333.452 102.97 331.1 89.8635L346.672 87.0694C348.492 97.2138 353.168 106.629 360.151 114.209C367.134 121.789 376.134 127.221 386.096 129.865C396.057 132.51 406.566 132.259 416.39 129.142C426.213 126.024 434.944 120.169 441.557 112.264C448.17 104.358 452.391 94.7309 453.724 84.5111C455.058 74.2912 453.449 63.903 449.086 54.5655C444.724 45.2279 437.788 37.3284 429.094 31.7941C420.399 26.2597 410.306 23.32 400 23.32V7.5Z" fill="#9A44FC"/>
<path d="M400 7.5C413.316 7.5 426.355 11.298 437.589 18.4484C448.822 25.5988 457.783 35.8048 463.419 47.8688C469.056 59.9328 471.135 73.3543 469.411 86.5582C467.688 99.7621 462.235 112.201 453.691 122.414C445.147 132.628 433.867 140.192 421.175 144.22C408.483 148.248 394.906 148.573 382.036 145.156C369.166 141.738 357.538 134.721 348.516 124.928C339.494 115.134 333.452 102.97 331.1 89.8635L346.672 87.0694C348.492 97.2138 353.168 106.629 360.151 114.209C367.134 121.789 376.134 127.221 386.096 129.865C396.057 132.51 406.566 132.259 416.39 129.142C426.213 126.024 434.944 120.169 441.557 112.264C448.17 104.358 452.391 94.7309 453.724 84.5111C455.058 74.2912 453.449 63.903 449.086 54.5655C444.724 45.2279 437.788 37.3284 429.094 31.7941C420.399 26.2597 410.306 23.32 400 23.32V7.5Z" stroke="white" stroke-width="4" mask="url(#path-3-outside-3_2_8101)"/>
<mask id="path-4-outside-4_2_8101" maskUnits="userSpaceOnUse" x="367" y="5.5" width="105" height="144" fill="black">
<rect fill="white" x="367" y="5.5" width="105" height="144"/>
<path d="M400 7.5C410.505 7.5 420.876 9.86453 430.343 14.4183C439.81 18.9721 448.131 25.5983 454.688 33.8057C461.246 42.0131 465.872 51.5912 468.224 61.83C470.575 72.0687 470.592 82.7055 468.273 92.9517C465.954 103.198 461.359 112.791 454.828 121.019C448.297 129.247 439.997 135.9 430.545 140.484C421.092 145.068 410.729 147.466 400.224 147.5C389.719 147.533 379.341 145.202 369.859 140.678L376.671 126.4C384.01 129.901 392.042 131.706 400.173 131.68C408.304 131.654 416.325 129.798 423.642 126.25C430.958 122.702 437.382 117.553 442.437 111.184C447.492 104.815 451.049 97.3902 452.844 89.4596C454.638 81.529 454.625 73.2962 452.805 65.3714C450.985 57.4466 447.404 50.0331 442.329 43.6806C437.253 37.3281 430.813 32.1994 423.486 28.6748C416.158 25.1501 408.131 23.32 400 23.32V7.5Z"/>
</mask>
<path d="M400 7.5C410.505 7.5 420.876 9.86453 430.343 14.4183C439.81 18.9721 448.131 25.5983 454.688 33.8057C461.246 42.0131 465.872 51.5912 468.224 61.83C470.575 72.0687 470.592 82.7055 468.273 92.9517C465.954 103.198 461.359 112.791 454.828 121.019C448.297 129.247 439.997 135.9 430.545 140.484C421.092 145.068 410.729 147.466 400.224 147.5C389.719 147.533 379.341 145.202 369.859 140.678L376.671 126.4C384.01 129.901 392.042 131.706 400.173 131.68C408.304 131.654 416.325 129.798 423.642 126.25C430.958 122.702 437.382 117.553 442.437 111.184C447.492 104.815 451.049 97.3902 452.844 89.4596C454.638 81.529 454.625 73.2962 452.805 65.3714C450.985 57.4466 447.404 50.0331 442.329 43.6806C437.253 37.3281 430.813 32.1994 423.486 28.6748C416.158 25.1501 408.131 23.32 400 23.32V7.5Z" fill="#00A892"/>
<path d="M400 7.5C410.505 7.5 420.876 9.86453 430.343 14.4183C439.81 18.9721 448.131 25.5983 454.688 33.8057C461.246 42.0131 465.872 51.5912 468.224 61.83C470.575 72.0687 470.592 82.7055 468.273 92.9517C465.954 103.198 461.359 112.791 454.828 121.019C448.297 129.247 439.997 135.9 430.545 140.484C421.092 145.068 410.729 147.466 400.224 147.5C389.719 147.533 379.341 145.202 369.859 140.678L376.671 126.4C384.01 129.901 392.042 131.706 400.173 131.68C408.304 131.654 416.325 129.798 423.642 126.25C430.958 122.702 437.382 117.553 442.437 111.184C447.492 104.815 451.049 97.3902 452.844 89.4596C454.638 81.529 454.625 73.2962 452.805 65.3714C450.985 57.4466 447.404 50.0331 442.329 43.6806C437.253 37.3281 430.813 32.1994 423.486 28.6748C416.158 25.1501 408.131 23.32 400 23.32V7.5Z" stroke="white" stroke-width="4" mask="url(#path-4-outside-4_2_8101)"/>
<path d="M382.375 70.4112V87.5909H379.656V73.7393C379.164 74.0909 378.633 74.3917 378.063 74.6417C377.5 74.8839 376.856 75.0987 376.129 75.2862V72.9659C376.582 72.8175 377.02 72.6612 377.441 72.4972C377.863 72.3331 378.277 72.1495 378.684 71.9464C379.098 71.7433 379.512 71.5167 379.926 71.2667C380.348 71.0167 380.781 70.7315 381.227 70.4112H382.375ZM391.305 87.8722C389.555 87.8722 388.188 87.1573 387.203 85.7276C386.227 84.2979 385.738 82.2315 385.738 79.5284C385.738 76.5597 386.25 74.3136 387.273 72.7901C388.297 71.2667 389.773 70.505 391.703 70.505C395.398 70.505 397.246 73.3761 397.246 79.1183C397.246 81.962 396.723 84.1339 395.676 85.6339C394.637 87.1261 393.18 87.8722 391.305 87.8722ZM391.574 72.6729C389.535 72.6729 388.516 74.919 388.516 79.4112C388.516 83.6143 389.516 85.7159 391.516 85.7159C393.484 85.7159 394.469 83.5792 394.469 79.3058C394.469 74.8839 393.504 72.6729 391.574 72.6729ZM404.641 87.8722C402.891 87.8722 401.523 87.1573 400.539 85.7276C399.563 84.2979 399.074 82.2315 399.074 79.5284C399.074 76.5597 399.586 74.3136 400.609 72.7901C401.633 71.2667 403.109 70.505 405.039 70.505C408.734 70.505 410.582 73.3761 410.582 79.1183C410.582 81.962 410.059 84.1339 409.012 85.6339C407.973 87.1261 406.516 87.8722 404.641 87.8722ZM404.91 72.6729C402.871 72.6729 401.852 74.919 401.852 79.4112C401.852 83.6143 402.852 85.7159 404.852 85.7159C406.82 85.7159 407.805 83.5792 407.805 79.3058C407.805 74.8839 406.84 72.6729 404.91 72.6729ZM417.977 87.8722C416.227 87.8722 414.859 87.1573 413.875 85.7276C412.898 84.2979 412.41 82.2315 412.41 79.5284C412.41 76.5597 412.922 74.3136 413.945 72.7901C414.969 71.2667 416.445 70.505 418.375 70.505C422.07 70.505 423.918 73.3761 423.918 79.1183C423.918 81.962 423.395 84.1339 422.348 85.6339C421.309 87.1261 419.852 87.8722 417.977 87.8722ZM418.246 72.6729C416.207 72.6729 415.188 74.919 415.188 79.4112C415.188 83.6143 416.188 85.7159 418.188 85.7159C420.156 85.7159 421.141 83.5792 421.141 79.3058C421.141 74.8839 420.176 72.6729 418.246 72.6729Z" fill="#323130"/>
<path d="M477.205 55.6211C477.205 56 477.133 56.3457 476.988 56.6582C476.848 56.9668 476.646 57.2324 476.385 57.4551C476.127 57.6738 475.816 57.8438 475.453 57.9648C475.09 58.0859 474.689 58.1465 474.252 58.1465C473.451 58.1465 472.814 57.9941 472.342 57.6895V56.6582C472.908 57.1035 473.557 57.3262 474.287 57.3262C474.58 57.3262 474.844 57.2891 475.078 57.2148C475.316 57.1406 475.52 57.0332 475.688 56.8926C475.859 56.752 475.99 56.582 476.08 56.3828C476.174 56.1836 476.221 55.959 476.221 55.709C476.221 54.6113 475.439 54.0625 473.877 54.0625H473.18V53.248H473.842C475.225 53.248 475.916 52.7324 475.916 51.7012C475.916 50.748 475.389 50.2715 474.334 50.2715C473.74 50.2715 473.184 50.4707 472.664 50.8691V49.9375C473.199 49.6172 473.836 49.457 474.574 49.457C474.926 49.457 475.244 49.5059 475.529 49.6035C475.814 49.7012 476.059 49.8379 476.262 50.0137C476.465 50.1895 476.621 50.4004 476.73 50.6465C476.844 50.8926 476.9 51.1641 476.9 51.4609C476.9 52.5664 476.342 53.2773 475.225 53.5938V53.6172C475.51 53.6484 475.773 53.7188 476.016 53.8281C476.258 53.9336 476.467 54.0723 476.643 54.2441C476.818 54.416 476.955 54.6191 477.053 54.8535C477.154 55.084 477.205 55.3398 477.205 55.6211ZM484.078 55.334C484.078 55.7441 484.012 56.1211 483.879 56.4648C483.746 56.8086 483.562 57.1055 483.328 57.3555C483.094 57.6055 482.814 57.8008 482.49 57.9414C482.166 58.0781 481.814 58.1465 481.436 58.1465C481.014 58.1465 480.635 58.0586 480.299 57.8828C479.967 57.707 479.684 57.4551 479.449 57.127C479.219 56.7949 479.043 56.3906 478.922 55.9141C478.801 55.4375 478.74 54.9004 478.74 54.3027C478.74 53.5723 478.82 52.9102 478.98 52.3164C479.145 51.7188 479.375 51.209 479.672 50.7871C479.973 50.3613 480.334 50.0332 480.756 49.8027C481.178 49.5723 481.648 49.457 482.168 49.457C482.746 49.457 483.211 49.5371 483.562 49.6973V50.6055C483.129 50.3828 482.672 50.2715 482.191 50.2715C481.816 50.2715 481.479 50.3555 481.178 50.5234C480.877 50.6914 480.619 50.9297 480.404 51.2383C480.189 51.543 480.023 51.9121 479.906 52.3457C479.793 52.7793 479.736 53.2617 479.736 53.793H479.76C480.146 53.0938 480.785 52.7441 481.676 52.7441C482.043 52.7441 482.373 52.8066 482.666 52.9316C482.963 53.0566 483.215 53.2344 483.422 53.4648C483.633 53.6914 483.795 53.9629 483.908 54.2793C484.021 54.5957 484.078 54.9473 484.078 55.334ZM483.094 55.457C483.094 55.1641 483.057 54.9004 482.982 54.666C482.908 54.4316 482.801 54.2324 482.66 54.0684C482.523 53.9043 482.354 53.7793 482.15 53.6934C481.947 53.6035 481.717 53.5586 481.459 53.5586C481.221 53.5586 481 53.6035 480.797 53.6934C480.594 53.7832 480.418 53.9062 480.27 54.0625C480.121 54.2148 480.004 54.3945 479.918 54.6016C479.836 54.8047 479.795 55.0215 479.795 55.252C479.795 55.541 479.836 55.8125 479.918 56.0664C480 56.3164 480.115 56.5352 480.264 56.7227C480.412 56.9102 480.588 57.0586 480.791 57.168C480.998 57.2734 481.227 57.3262 481.477 57.3262C481.719 57.3262 481.939 57.2812 482.139 57.1914C482.338 57.0977 482.508 56.9688 482.648 56.8047C482.789 56.6406 482.898 56.4453 482.977 56.2188C483.055 55.9883 483.094 55.7344 483.094 55.457ZM486.926 53.8105C486.348 53.8105 485.887 53.6211 485.543 53.2422C485.199 52.8594 485.027 52.3496 485.027 51.7129C485.027 51.0176 485.209 50.4707 485.572 50.0723C485.936 49.6699 486.426 49.4688 487.043 49.4688C487.641 49.4688 488.104 49.6543 488.432 50.0254C488.764 50.3965 488.93 50.918 488.93 51.5898C488.93 52.2617 488.744 52.8008 488.373 53.207C488.006 53.6094 487.523 53.8105 486.926 53.8105ZM487.008 50.1133C486.637 50.1133 486.344 50.252 486.129 50.5293C485.914 50.8027 485.807 51.1797 485.807 51.6602C485.807 52.1328 485.912 52.502 486.123 52.7676C486.334 53.0293 486.621 53.1602 486.984 53.1602C487.352 53.1602 487.639 53.0234 487.846 52.75C488.053 52.4766 488.156 52.0977 488.156 51.6133C488.156 51.1406 488.053 50.7734 487.846 50.5117C487.643 50.2461 487.363 50.1133 487.008 50.1133ZM492.551 49.5977L487.16 58.0586H486.322L491.707 49.5977H492.551ZM491.93 58.1289C491.352 58.1289 490.891 57.9375 490.547 57.5547C490.203 57.1719 490.031 56.6641 490.031 56.0312C490.031 55.3359 490.215 54.7871 490.582 54.3848C490.949 53.9785 491.438 53.7754 492.047 53.7754C492.641 53.7754 493.104 53.9629 493.436 54.3379C493.768 54.7129 493.934 55.2383 493.934 55.9141C493.934 56.582 493.748 57.1191 493.377 57.5254C493.01 57.9277 492.527 58.1289 491.93 58.1289ZM492.012 54.4375C491.637 54.4375 491.342 54.5742 491.127 54.8477C490.916 55.1211 490.811 55.5 490.811 55.9844C490.811 56.4492 490.916 56.8145 491.127 57.0801C491.338 57.3418 491.625 57.4727 491.988 57.4727C492.355 57.4727 492.643 57.3359 492.85 57.0625C493.057 56.7852 493.16 56.4062 493.16 55.9258C493.16 55.4492 493.057 55.082 492.85 54.8242C492.646 54.5664 492.367 54.4375 492.012 54.4375Z" fill="#323130"/>
<path d="M414.145 154.801C414.145 154.543 414.104 154.318 414.021 154.127C413.943 153.936 413.834 153.777 413.693 153.652C413.557 153.523 413.395 153.428 413.207 153.365C413.02 153.303 412.816 153.271 412.598 153.271C412.41 153.271 412.227 153.297 412.047 153.348C411.867 153.398 411.691 153.469 411.52 153.559C411.352 153.648 411.188 153.756 411.027 153.881C410.871 154.006 410.725 154.145 410.588 154.297V153.266C410.857 153.004 411.158 152.805 411.49 152.668C411.826 152.527 412.234 152.457 412.715 152.457C413.059 152.457 413.377 152.508 413.67 152.609C413.963 152.707 414.217 152.852 414.432 153.043C414.646 153.234 414.814 153.471 414.936 153.752C415.061 154.033 415.123 154.355 415.123 154.719C415.123 155.051 415.084 155.352 415.006 155.621C414.932 155.891 414.816 156.145 414.66 156.383C414.508 156.621 414.314 156.85 414.08 157.068C413.846 157.287 413.57 157.51 413.254 157.736C412.859 158.018 412.533 158.258 412.275 158.457C412.021 158.656 411.818 158.844 411.666 159.02C411.518 159.191 411.412 159.365 411.35 159.541C411.291 159.713 411.262 159.912 411.262 160.139H415.445V161H410.26V160.584C410.26 160.225 410.299 159.908 410.377 159.635C410.455 159.361 410.584 159.102 410.764 158.855C410.943 158.609 411.178 158.363 411.467 158.117C411.76 157.871 412.117 157.594 412.539 157.285C412.844 157.066 413.098 156.857 413.301 156.658C413.508 156.459 413.674 156.26 413.799 156.061C413.924 155.861 414.012 155.66 414.062 155.457C414.117 155.25 414.145 155.031 414.145 154.801ZM422.066 156.764C422.066 157.467 422.002 158.09 421.873 158.633C421.748 159.176 421.564 159.635 421.322 160.01C421.084 160.381 420.789 160.664 420.438 160.859C420.09 161.051 419.693 161.146 419.248 161.146C418.826 161.146 418.449 161.055 418.117 160.871C417.789 160.684 417.512 160.412 417.285 160.057C417.059 159.701 416.887 159.266 416.77 158.75C416.652 158.23 416.594 157.637 416.594 156.969C416.594 156.234 416.654 155.586 416.775 155.023C416.9 154.461 417.082 153.99 417.32 153.611C417.559 153.229 417.854 152.941 418.205 152.75C418.561 152.555 418.967 152.457 419.424 152.457C421.186 152.457 422.066 153.893 422.066 156.764ZM421.082 156.857C421.082 154.467 420.514 153.271 419.377 153.271C418.178 153.271 417.578 154.488 417.578 156.922C417.578 159.191 418.166 160.326 419.342 160.326C420.502 160.326 421.082 159.17 421.082 156.857ZM424.926 156.811C424.348 156.811 423.887 156.621 423.543 156.242C423.199 155.859 423.027 155.35 423.027 154.713C423.027 154.018 423.209 153.471 423.572 153.072C423.936 152.67 424.426 152.469 425.043 152.469C425.641 152.469 426.104 152.654 426.432 153.025C426.764 153.396 426.93 153.918 426.93 154.59C426.93 155.262 426.744 155.801 426.373 156.207C426.006 156.609 425.523 156.811 424.926 156.811ZM425.008 153.113C424.637 153.113 424.344 153.252 424.129 153.529C423.914 153.803 423.807 154.18 423.807 154.66C423.807 155.133 423.912 155.502 424.123 155.768C424.334 156.029 424.621 156.16 424.984 156.16C425.352 156.16 425.639 156.023 425.846 155.75C426.053 155.477 426.156 155.098 426.156 154.613C426.156 154.141 426.053 153.773 425.846 153.512C425.643 153.246 425.363 153.113 425.008 153.113ZM430.551 152.598L425.16 161.059H424.322L429.707 152.598H430.551ZM429.93 161.129C429.352 161.129 428.891 160.938 428.547 160.555C428.203 160.172 428.031 159.664 428.031 159.031C428.031 158.336 428.215 157.787 428.582 157.385C428.949 156.979 429.438 156.775 430.047 156.775C430.641 156.775 431.104 156.963 431.436 157.338C431.768 157.713 431.934 158.238 431.934 158.914C431.934 159.582 431.748 160.119 431.377 160.525C431.01 160.928 430.527 161.129 429.93 161.129ZM430.012 157.438C429.637 157.438 429.342 157.574 429.127 157.848C428.916 158.121 428.811 158.5 428.811 158.984C428.811 159.449 428.916 159.814 429.127 160.08C429.338 160.342 429.625 160.473 429.988 160.473C430.355 160.473 430.643 160.336 430.85 160.062C431.057 159.785 431.16 159.406 431.16 158.926C431.16 158.449 431.057 158.082 430.85 157.824C430.646 157.566 430.367 157.438 430.012 157.438Z" fill="#323130"/>
<path d="M325.363 132H324.402V124.74C324.328 124.814 324.219 124.9 324.074 124.998C323.934 125.092 323.773 125.186 323.594 125.279C323.418 125.373 323.23 125.461 323.031 125.543C322.836 125.625 322.645 125.689 322.457 125.736V124.764C322.668 124.705 322.891 124.627 323.125 124.529C323.363 124.428 323.596 124.316 323.822 124.195C324.053 124.07 324.27 123.941 324.473 123.809C324.676 123.672 324.852 123.539 325 123.41H325.363V132ZM332.57 123.598V129.146H333.648V130.025H332.57V132H331.621V130.025H327.672V129.193C328.039 128.779 328.41 128.338 328.785 127.869C329.16 127.396 329.518 126.918 329.857 126.434C330.201 125.949 330.518 125.467 330.807 124.986C331.1 124.502 331.346 124.039 331.545 123.598H332.57ZM328.756 129.146H331.621V125.033C331.328 125.545 331.051 126.002 330.789 126.404C330.527 126.807 330.277 127.172 330.039 127.5C329.805 127.828 329.58 128.125 329.365 128.391C329.15 128.656 328.947 128.908 328.756 129.146ZM336.426 127.811C335.848 127.811 335.387 127.621 335.043 127.242C334.699 126.859 334.527 126.35 334.527 125.713C334.527 125.018 334.709 124.471 335.072 124.072C335.436 123.67 335.926 123.469 336.543 123.469C337.141 123.469 337.604 123.654 337.932 124.025C338.264 124.396 338.43 124.918 338.43 125.59C338.43 126.262 338.244 126.801 337.873 127.207C337.506 127.609 337.023 127.811 336.426 127.811ZM336.508 124.113C336.137 124.113 335.844 124.252 335.629 124.529C335.414 124.803 335.307 125.18 335.307 125.66C335.307 126.133 335.412 126.502 335.623 126.768C335.834 127.029 336.121 127.16 336.484 127.16C336.852 127.16 337.139 127.023 337.346 126.75C337.553 126.477 337.656 126.098 337.656 125.613C337.656 125.141 337.553 124.773 337.346 124.512C337.143 124.246 336.863 124.113 336.508 124.113ZM342.051 123.598L336.66 132.059H335.822L341.207 123.598H342.051ZM341.43 132.129C340.852 132.129 340.391 131.938 340.047 131.555C339.703 131.172 339.531 130.664 339.531 130.031C339.531 129.336 339.715 128.787 340.082 128.385C340.449 127.979 340.938 127.775 341.547 127.775C342.141 127.775 342.604 127.963 342.936 128.338C343.268 128.713 343.434 129.238 343.434 129.914C343.434 130.582 343.248 131.119 342.877 131.525C342.51 131.928 342.027 132.129 341.43 132.129ZM341.512 128.438C341.137 128.438 340.842 128.574 340.627 128.848C340.416 129.121 340.311 129.5 340.311 129.984C340.311 130.449 340.416 130.814 340.627 131.08C340.838 131.342 341.125 131.473 341.488 131.473C341.855 131.473 342.143 131.336 342.35 131.062C342.557 130.785 342.66 130.406 342.66 129.926C342.66 129.449 342.557 129.082 342.35 128.824C342.146 128.566 341.867 128.438 341.512 128.438Z" fill="#323130"/>
<path d="M317.497 171.124C317.497 170.778 317.777 170.499 318.122 170.499H326.873C327.219 170.499 327.499 170.778 327.499 171.124V179.875C327.499 180.22 327.219 180.5 326.873 180.5H318.122C317.777 180.5 317.497 180.22 317.497 179.875V171.124Z" fill="#00A892"/>
<path d="M336.866 172.988H333.585V175.895H336.62V176.779H333.585V180.5H332.601V172.098H336.866V172.988ZM338.823 172.977C338.652 172.977 338.505 172.918 338.384 172.801C338.263 172.684 338.202 172.535 338.202 172.355C338.202 172.176 338.263 172.027 338.384 171.91C338.505 171.789 338.652 171.729 338.823 171.729C338.999 171.729 339.148 171.789 339.269 171.91C339.394 172.027 339.456 172.176 339.456 172.355C339.456 172.527 339.394 172.674 339.269 172.795C339.148 172.916 338.999 172.977 338.823 172.977ZM339.292 180.5H338.331V174.5H339.292V180.5ZM344.366 175.473C344.198 175.344 343.956 175.279 343.64 175.279C343.23 175.279 342.886 175.473 342.609 175.859C342.335 176.246 342.198 176.773 342.198 177.441V180.5H341.237V174.5H342.198V175.736H342.222C342.359 175.314 342.568 174.986 342.849 174.752C343.13 174.514 343.445 174.395 343.792 174.395C344.042 174.395 344.234 174.422 344.366 174.477V175.473ZM345.046 180.283V179.252C345.57 179.639 346.146 179.832 346.775 179.832C347.618 179.832 348.04 179.551 348.04 178.988C348.04 178.828 348.003 178.693 347.929 178.584C347.859 178.471 347.761 178.371 347.636 178.285C347.515 178.199 347.37 178.123 347.202 178.057C347.038 177.986 346.861 177.914 346.669 177.84C346.403 177.734 346.169 177.629 345.966 177.523C345.767 177.414 345.599 177.293 345.462 177.16C345.329 177.023 345.228 176.869 345.157 176.697C345.091 176.525 345.058 176.324 345.058 176.094C345.058 175.812 345.122 175.564 345.251 175.35C345.38 175.131 345.552 174.949 345.767 174.805C345.982 174.656 346.226 174.545 346.499 174.471C346.777 174.396 347.062 174.359 347.355 174.359C347.874 174.359 348.339 174.449 348.749 174.629V175.602C348.308 175.312 347.8 175.168 347.226 175.168C347.046 175.168 346.884 175.189 346.739 175.232C346.595 175.271 346.47 175.328 346.364 175.402C346.263 175.477 346.183 175.566 346.124 175.672C346.07 175.773 346.042 175.887 346.042 176.012C346.042 176.168 346.07 176.299 346.124 176.404C346.183 176.51 346.267 176.604 346.376 176.686C346.486 176.768 346.618 176.842 346.775 176.908C346.931 176.975 347.109 177.047 347.308 177.125C347.573 177.227 347.812 177.332 348.023 177.441C348.234 177.547 348.413 177.668 348.562 177.805C348.71 177.938 348.823 178.092 348.902 178.268C348.984 178.443 349.025 178.652 349.025 178.895C349.025 179.191 348.958 179.449 348.825 179.668C348.696 179.887 348.523 180.068 348.304 180.213C348.085 180.357 347.833 180.465 347.548 180.535C347.263 180.605 346.964 180.641 346.652 180.641C346.034 180.641 345.499 180.521 345.046 180.283ZM353.29 180.441C353.064 180.566 352.765 180.629 352.394 180.629C351.343 180.629 350.818 180.043 350.818 178.871V175.32H349.786V174.5H350.818V173.035L351.778 172.725V174.5H353.29V175.32H351.778V178.701C351.778 179.104 351.847 179.391 351.984 179.562C352.12 179.734 352.347 179.82 352.663 179.82C352.905 179.82 353.114 179.754 353.29 179.621V180.441Z" fill="#323130"/>
<path d="M370.499 171.124C370.499 170.778 370.778 170.499 371.124 170.499H379.875C380.22 170.499 380.5 170.778 380.5 171.124V179.875C380.5 180.22 380.22 180.5 379.875 180.5H371.124C370.778 180.5 370.499 180.22 370.499 179.875V171.124Z" fill="#9A44FC"/>
<path d="M385.21 180.16V179C385.343 179.117 385.501 179.223 385.684 179.316C385.872 179.41 386.067 179.49 386.27 179.557C386.477 179.619 386.684 179.668 386.891 179.703C387.098 179.738 387.29 179.756 387.466 179.756C388.071 179.756 388.522 179.645 388.819 179.422C389.12 179.195 389.27 178.871 389.27 178.449C389.27 178.223 389.22 178.025 389.118 177.857C389.02 177.689 388.884 177.537 388.708 177.4C388.532 177.26 388.323 177.127 388.081 177.002C387.843 176.873 387.585 176.738 387.307 176.598C387.014 176.449 386.741 176.299 386.487 176.146C386.233 175.994 386.013 175.826 385.825 175.643C385.638 175.459 385.489 175.252 385.38 175.021C385.274 174.787 385.222 174.514 385.222 174.201C385.222 173.818 385.306 173.486 385.473 173.205C385.641 172.92 385.862 172.686 386.136 172.502C386.409 172.318 386.72 172.182 387.067 172.092C387.419 172.002 387.776 171.957 388.139 171.957C388.968 171.957 389.571 172.057 389.95 172.256V173.363C389.454 173.02 388.817 172.848 388.04 172.848C387.825 172.848 387.61 172.871 387.395 172.918C387.181 172.961 386.989 173.033 386.821 173.135C386.653 173.236 386.516 173.367 386.411 173.527C386.306 173.688 386.253 173.883 386.253 174.113C386.253 174.328 386.292 174.514 386.37 174.67C386.452 174.826 386.571 174.969 386.727 175.098C386.884 175.227 387.073 175.352 387.296 175.473C387.522 175.594 387.782 175.727 388.075 175.871C388.376 176.02 388.661 176.176 388.931 176.34C389.2 176.504 389.436 176.686 389.639 176.885C389.843 177.084 390.003 177.305 390.12 177.547C390.241 177.789 390.302 178.066 390.302 178.379C390.302 178.793 390.22 179.145 390.056 179.434C389.895 179.719 389.677 179.951 389.399 180.131C389.126 180.311 388.809 180.439 388.45 180.518C388.091 180.6 387.712 180.641 387.313 180.641C387.181 180.641 387.016 180.629 386.821 180.605C386.626 180.586 386.427 180.555 386.223 180.512C386.02 180.473 385.827 180.424 385.643 180.365C385.464 180.303 385.319 180.234 385.21 180.16ZM396.671 177.74H392.434C392.45 178.408 392.63 178.924 392.973 179.287C393.317 179.65 393.79 179.832 394.391 179.832C395.067 179.832 395.688 179.609 396.255 179.164V180.066C395.727 180.449 395.03 180.641 394.163 180.641C393.315 180.641 392.649 180.369 392.165 179.826C391.681 179.279 391.438 178.512 391.438 177.523C391.438 176.59 391.702 175.83 392.229 175.244C392.761 174.654 393.419 174.359 394.204 174.359C394.989 174.359 395.597 174.613 396.026 175.121C396.456 175.629 396.671 176.334 396.671 177.236V177.74ZM395.686 176.926C395.682 176.371 395.548 175.939 395.282 175.631C395.02 175.322 394.655 175.168 394.186 175.168C393.733 175.168 393.348 175.33 393.032 175.654C392.716 175.979 392.52 176.402 392.446 176.926H395.686ZM402.22 180.225C401.759 180.502 401.212 180.641 400.579 180.641C399.723 180.641 399.032 180.363 398.505 179.809C397.981 179.25 397.72 178.527 397.72 177.641C397.72 176.652 398.003 175.859 398.569 175.262C399.136 174.66 399.891 174.359 400.837 174.359C401.364 174.359 401.829 174.457 402.231 174.652V175.637C401.786 175.324 401.309 175.168 400.802 175.168C400.188 175.168 399.684 175.389 399.29 175.83C398.899 176.268 398.704 176.844 398.704 177.559C398.704 178.262 398.888 178.816 399.255 179.223C399.626 179.629 400.122 179.832 400.743 179.832C401.266 179.832 401.759 179.658 402.22 179.311V180.225ZM406.181 180.641C405.294 180.641 404.585 180.361 404.054 179.803C403.526 179.24 403.263 178.496 403.263 177.57C403.263 176.562 403.538 175.775 404.089 175.209C404.639 174.643 405.384 174.359 406.321 174.359C407.216 174.359 407.913 174.635 408.413 175.186C408.917 175.736 409.169 176.5 409.169 177.477C409.169 178.434 408.897 179.201 408.354 179.779C407.815 180.354 407.091 180.641 406.181 180.641ZM406.251 175.168C405.634 175.168 405.145 175.379 404.786 175.801C404.427 176.219 404.247 176.797 404.247 177.535C404.247 178.246 404.429 178.807 404.792 179.217C405.155 179.627 405.641 179.832 406.251 179.832C406.872 179.832 407.348 179.631 407.681 179.229C408.016 178.826 408.184 178.254 408.184 177.512C408.184 176.762 408.016 176.184 407.681 175.777C407.348 175.371 406.872 175.168 406.251 175.168ZM415.684 180.5H414.723V177.078C414.723 175.805 414.259 175.168 413.329 175.168C412.848 175.168 412.45 175.35 412.134 175.713C411.821 176.072 411.665 176.527 411.665 177.078V180.5H410.704V174.5H411.665V175.496H411.688C412.141 174.738 412.798 174.359 413.657 174.359C414.313 174.359 414.815 174.572 415.163 174.998C415.511 175.42 415.684 176.031 415.684 176.832V180.5ZM422.622 180.5H421.661V179.48H421.638C421.192 180.254 420.505 180.641 419.575 180.641C418.821 180.641 418.218 180.373 417.764 179.838C417.315 179.299 417.091 178.566 417.091 177.641C417.091 176.648 417.341 175.854 417.841 175.256C418.341 174.658 419.007 174.359 419.839 174.359C420.663 174.359 421.263 174.684 421.638 175.332H421.661V171.617H422.622V180.5ZM421.661 177.787V176.902C421.661 176.418 421.501 176.008 421.181 175.672C420.86 175.336 420.454 175.168 419.962 175.168C419.376 175.168 418.915 175.383 418.579 175.812C418.243 176.242 418.075 176.836 418.075 177.594C418.075 178.285 418.235 178.832 418.556 179.234C418.88 179.633 419.313 179.832 419.856 179.832C420.391 179.832 420.825 179.639 421.157 179.252C421.493 178.865 421.661 178.377 421.661 177.787Z" fill="#323130"/>
<path d="M440.5 171.124C440.5 170.778 440.78 170.499 441.125 170.499H449.877C450.222 170.499 450.502 170.778 450.502 171.124V179.875C450.502 180.22 450.222 180.5 449.877 180.5H441.125C440.78 180.5 440.5 180.22 440.5 179.875V171.124Z" fill="#3483FA"/>
<path d="M460.573 172.988H458.147V180.5H457.163V172.988H454.743V172.098H460.573V172.988ZM466.749 180.5H465.788V177.043C465.788 175.793 465.323 175.168 464.393 175.168C463.924 175.168 463.53 175.35 463.209 175.713C462.889 176.072 462.729 176.535 462.729 177.102V180.5H461.768V171.617H462.729V175.496H462.752C463.213 174.738 463.87 174.359 464.721 174.359C466.073 174.359 466.749 175.174 466.749 176.803V180.5ZM469.057 172.977C468.885 172.977 468.739 172.918 468.618 172.801C468.497 172.684 468.436 172.535 468.436 172.355C468.436 172.176 468.497 172.027 468.618 171.91C468.739 171.789 468.885 171.729 469.057 171.729C469.233 171.729 469.381 171.789 469.502 171.91C469.627 172.027 469.69 172.176 469.69 172.355C469.69 172.527 469.627 172.674 469.502 172.795C469.381 172.916 469.233 172.977 469.057 172.977ZM469.526 180.5H468.565V174.5H469.526V180.5ZM474.6 175.473C474.432 175.344 474.19 175.279 473.874 175.279C473.463 175.279 473.12 175.473 472.842 175.859C472.569 176.246 472.432 176.773 472.432 177.441V180.5H471.471V174.5H472.432V175.736H472.456C472.592 175.314 472.801 174.986 473.083 174.752C473.364 174.514 473.678 174.395 474.026 174.395C474.276 174.395 474.467 174.422 474.6 174.477V175.473ZM480.764 180.5H479.803V179.48H479.78C479.334 180.254 478.647 180.641 477.717 180.641C476.963 180.641 476.36 180.373 475.907 179.838C475.458 179.299 475.233 178.566 475.233 177.641C475.233 176.648 475.483 175.854 475.983 175.256C476.483 174.658 477.149 174.359 477.981 174.359C478.805 174.359 479.405 174.684 479.78 175.332H479.803V171.617H480.764V180.5ZM479.803 177.787V176.902C479.803 176.418 479.643 176.008 479.323 175.672C479.002 175.336 478.596 175.168 478.104 175.168C477.518 175.168 477.057 175.383 476.721 175.812C476.385 176.242 476.217 176.836 476.217 177.594C476.217 178.285 476.377 178.832 476.698 179.234C477.022 179.633 477.456 179.832 477.999 179.832C478.534 179.832 478.967 179.639 479.299 179.252C479.635 178.865 479.803 178.377 479.803 177.787Z" fill="#323130"/>
</svg>
