<svg width="800" height="147" viewBox="0 0 800 147" fill="none" xmlns="http://www.w3.org/2000/svg">
<rect width="800" height="147" fill="#FAFAFA"/>
<path d="M174.072 119.141C173.197 119.141 172.514 118.783 172.021 118.068C171.533 117.354 171.289 116.32 171.289 114.969C171.289 113.484 171.545 112.361 172.057 111.6C172.568 110.838 173.307 110.457 174.271 110.457C176.119 110.457 177.043 111.893 177.043 114.764C177.043 116.186 176.781 117.271 176.258 118.021C175.738 118.768 175.01 119.141 174.072 119.141ZM174.207 111.541C173.188 111.541 172.678 112.664 172.678 114.91C172.678 117.012 173.178 118.062 174.178 118.062C175.162 118.062 175.654 116.994 175.654 114.857C175.654 112.646 175.172 111.541 174.207 111.541Z" fill="#323130"/>
<mask id="path-2-inside-1_2_8100" fill="white">
<path d="M181.5 99C181.5 89.2822 183.414 79.6595 187.133 70.6814C190.852 61.7033 196.303 53.5456 203.174 46.6741C210.046 39.8026 218.203 34.3518 227.181 30.6329C236.16 26.9141 245.782 25 255.5 25C265.218 25 274.84 26.9141 283.819 30.6329C292.797 34.3518 300.954 39.8026 307.826 46.6741C314.697 53.5456 320.148 61.7033 323.867 70.6814C327.586 79.6595 329.5 89.2822 329.5 99L307.596 99C307.596 92.1587 306.248 85.3843 303.63 79.0637C301.012 72.7432 297.175 67.0001 292.337 62.1626C287.5 57.325 281.757 53.4876 275.436 50.8696C269.116 48.2515 262.341 46.904 255.5 46.904C248.659 46.904 241.884 48.2515 235.564 50.8696C229.243 53.4876 223.5 57.325 218.663 62.1626C213.825 67.0001 209.988 72.7431 207.37 79.0637C204.752 85.3843 203.404 92.1587 203.404 99H181.5Z"/>
</mask>
<path d="M181.5 99C181.5 89.2822 183.414 79.6595 187.133 70.6814C190.852 61.7033 196.303 53.5456 203.174 46.6741C210.046 39.8026 218.203 34.3518 227.181 30.6329C236.16 26.9141 245.782 25 255.5 25C265.218 25 274.84 26.9141 283.819 30.6329C292.797 34.3518 300.954 39.8026 307.826 46.6741C314.697 53.5456 320.148 61.7033 323.867 70.6814C327.586 79.6595 329.5 89.2822 329.5 99L307.596 99C307.596 92.1587 306.248 85.3843 303.63 79.0637C301.012 72.7432 297.175 67.0001 292.337 62.1626C287.5 57.325 281.757 53.4876 275.436 50.8696C269.116 48.2515 262.341 46.904 255.5 46.904C248.659 46.904 241.884 48.2515 235.564 50.8696C229.243 53.4876 223.5 57.325 218.663 62.1626C213.825 67.0001 209.988 72.7431 207.37 79.0637C204.752 85.3843 203.404 92.1587 203.404 99H181.5Z" fill="#F5F5F5" stroke="white" stroke-width="4" mask="url(#path-2-inside-1_2_8100)"/>
<mask id="path-3-inside-2_2_8100" fill="white">
<path d="M181.5 99C181.5 83.4584 186.393 68.3113 195.486 55.7071C204.578 43.1028 217.408 33.6811 232.156 28.7784C246.904 23.8757 262.821 23.7409 277.65 28.3929C292.479 33.045 305.467 42.2479 314.772 54.6963L297.228 67.8102C290.677 59.0465 281.534 52.5677 271.094 49.2926C260.654 46.0176 249.449 46.1125 239.066 49.564C228.683 53.0155 219.651 59.6483 213.25 68.5218C206.849 77.3952 203.404 88.0587 203.404 99H181.5Z"/>
</mask>
<path d="M181.5 99C181.5 83.4584 186.393 68.3113 195.486 55.7071C204.578 43.1028 217.408 33.6811 232.156 28.7784C246.904 23.8757 262.821 23.7409 277.65 28.3929C292.479 33.045 305.467 42.2479 314.772 54.6963L297.228 67.8102C290.677 59.0465 281.534 52.5677 271.094 49.2926C260.654 46.0176 249.449 46.1125 239.066 49.564C228.683 53.0155 219.651 59.6483 213.25 68.5218C206.849 77.3952 203.404 88.0587 203.404 99H181.5Z" fill="#3483FA" stroke="white" stroke-width="4" mask="url(#path-3-inside-2_2_8100)"/>
<path d="M296.449 33.7417C295.466 33.1273 294.174 33.3803 293.496 34.3203L279.482 53.7277C278.193 55.513 278.684 58.0163 280.551 59.1832C282.419 60.35 284.884 59.6934 285.923 57.7523L297.223 36.6497C297.771 35.6276 297.432 34.3561 296.449 33.7417Z" fill="#292929" stroke="white" stroke-width="2"/>
<path d="M233.141 91.3125C233.141 90.8281 233.199 90.3594 233.316 89.9062C233.441 89.4531 233.625 89.0352 233.867 88.6523C234.109 88.2695 234.414 87.9258 234.781 87.6211C235.148 87.3164 235.578 87.0703 236.07 86.8828C235.344 86.4766 234.766 85.957 234.336 85.3242C233.906 84.6836 233.691 83.9766 233.691 83.2031C233.691 82.5859 233.816 82.0156 234.066 81.4922C234.324 80.9688 234.676 80.5156 235.121 80.1328C235.574 79.75 236.105 79.4531 236.715 79.2422C237.324 79.0234 237.988 78.9141 238.707 78.9141C239.434 78.9141 240.102 79.0234 240.711 79.2422C241.328 79.4609 241.859 79.7617 242.305 80.1445C242.758 80.5273 243.109 80.9805 243.359 81.5039C243.609 82.0273 243.734 82.5938 243.734 83.2031C243.734 83.9766 243.52 84.6836 243.09 85.3242C242.66 85.957 242.09 86.4766 241.379 86.8828C241.863 87.0703 242.289 87.3164 242.656 87.6211C243.031 87.918 243.344 88.2578 243.594 88.6406C243.844 89.0234 244.031 89.4414 244.156 89.8945C244.281 90.3477 244.344 90.8203 244.344 91.3125C244.344 92.0469 244.207 92.7188 243.934 93.3281C243.66 93.9375 243.277 94.4609 242.785 94.8984C242.293 95.3281 241.703 95.6641 241.016 95.9062C240.328 96.1484 239.57 96.2695 238.742 96.2695C237.922 96.2695 237.168 96.1484 236.48 95.9062C235.801 95.6641 235.211 95.3281 234.711 94.8984C234.219 94.4609 233.832 93.9375 233.551 93.3281C233.277 92.7188 233.141 92.0469 233.141 91.3125ZM235.789 91.0781C235.789 91.5547 235.859 91.9844 236 92.3672C236.141 92.75 236.34 93.0742 236.598 93.3398C236.855 93.6055 237.164 93.8086 237.523 93.9492C237.891 94.0898 238.297 94.1602 238.742 94.1602C239.172 94.1602 239.566 94.0898 239.926 93.9492C240.285 93.8008 240.594 93.5938 240.852 93.3281C241.117 93.0547 241.324 92.7305 241.473 92.3555C241.621 91.9727 241.695 91.5469 241.695 91.0781C241.695 90.6484 241.625 90.2461 241.484 89.8711C241.344 89.4883 241.145 89.1562 240.887 88.875C240.629 88.5938 240.316 88.3711 239.949 88.207C239.59 88.043 239.188 87.9609 238.742 87.9609C238.32 87.9609 237.926 88.0391 237.559 88.1953C237.199 88.3438 236.887 88.5586 236.621 88.8398C236.363 89.1133 236.16 89.4414 236.012 89.8242C235.863 90.207 235.789 90.625 235.789 91.0781ZM236.363 83.4844C236.363 83.8359 236.426 84.1641 236.551 84.4688C236.676 84.7656 236.844 85.0273 237.055 85.2539C237.266 85.4727 237.512 85.6445 237.793 85.7695C238.082 85.8945 238.391 85.957 238.719 85.957C239.047 85.957 239.352 85.8945 239.633 85.7695C239.922 85.6367 240.172 85.4609 240.383 85.2422C240.602 85.0156 240.773 84.7539 240.898 84.457C241.023 84.1523 241.086 83.8281 241.086 83.4844C241.086 83.1328 241.023 82.8047 240.898 82.5C240.781 82.1953 240.617 81.9336 240.406 81.7148C240.195 81.4961 239.945 81.3242 239.656 81.1992C239.367 81.0742 239.055 81.0117 238.719 81.0117C238.367 81.0117 238.047 81.0781 237.758 81.2109C237.469 81.3359 237.219 81.5117 237.008 81.7383C236.805 81.9648 236.645 82.2305 236.527 82.5352C236.418 82.832 236.363 83.1484 236.363 83.4844ZM251.891 96.2812C250.141 96.2812 248.773 95.5664 247.789 94.1367C246.812 92.707 246.324 90.6406 246.324 87.9375C246.324 84.9688 246.836 82.7227 247.859 81.1992C248.883 79.6758 250.359 78.9141 252.289 78.9141C255.984 78.9141 257.832 81.7852 257.832 87.5273C257.832 90.3711 257.309 92.543 256.262 94.043C255.223 95.5352 253.766 96.2812 251.891 96.2812ZM252.16 81.082C250.121 81.082 249.102 83.3281 249.102 87.8203C249.102 92.0234 250.102 94.125 252.102 94.125C254.07 94.125 255.055 91.9883 255.055 87.7148C255.055 83.293 254.09 81.082 252.16 81.082ZM263.621 87.6328C262.434 87.6328 261.488 87.2539 260.785 86.4961C260.082 85.7305 259.73 84.7109 259.73 83.4375C259.73 82.0469 260.102 80.9531 260.844 80.1562C261.594 79.3516 262.602 78.9492 263.867 78.9492C265.094 78.9492 266.043 79.3203 266.715 80.0625C267.395 80.8047 267.734 81.8477 267.734 83.1914C267.734 84.5352 267.355 85.6133 266.598 86.4258C265.84 87.2305 264.848 87.6328 263.621 87.6328ZM263.785 80.5898C263.145 80.5898 262.637 80.8359 262.262 81.3281C261.895 81.8203 261.711 82.4961 261.711 83.3555C261.711 84.1992 261.891 84.8555 262.25 85.3242C262.617 85.793 263.117 86.0273 263.75 86.0273C264.383 86.0273 264.879 85.7852 265.238 85.3008C265.598 84.8086 265.777 84.1289 265.777 83.2617C265.777 82.418 265.598 81.7617 265.238 81.293C264.887 80.8242 264.402 80.5898 263.785 80.5898ZM275 79.1953L264.219 96.1172H262.543L273.312 79.1953H275ZM273.488 96.2578C272.301 96.2578 271.355 95.8789 270.652 95.1211C269.949 94.3555 269.598 93.3359 269.598 92.0625C269.598 90.6719 269.969 89.5781 270.711 88.7812C271.461 87.9766 272.469 87.5742 273.734 87.5742C274.961 87.5742 275.91 87.9453 276.582 88.6875C277.262 89.4297 277.602 90.4727 277.602 91.8164C277.602 93.1602 277.223 94.2383 276.465 95.0508C275.707 95.8555 274.715 96.2578 273.488 96.2578ZM273.652 89.2148C273.012 89.2148 272.504 89.4609 272.129 89.9531C271.762 90.4453 271.578 91.1211 271.578 91.9805C271.578 92.8242 271.758 93.4805 272.117 93.9492C272.484 94.418 272.984 94.6523 273.617 94.6523C274.25 94.6523 274.746 94.4102 275.105 93.9258C275.465 93.4336 275.645 92.7539 275.645 91.8867C275.645 91.043 275.465 90.3867 275.105 89.918C274.754 89.4492 274.27 89.2148 273.652 89.2148Z" fill="#323130"/>
<path d="M337.104 110.41V119H335.744V112.074C335.498 112.25 335.232 112.4 334.947 112.525C334.666 112.646 334.344 112.754 333.98 112.848V111.688C334.207 111.613 334.426 111.535 334.637 111.453C334.848 111.371 335.055 111.279 335.258 111.178C335.465 111.076 335.672 110.963 335.879 110.838C336.09 110.713 336.307 110.57 336.529 110.41H337.104ZM341.568 119.141C340.693 119.141 340.01 118.783 339.518 118.068C339.029 117.354 338.785 116.32 338.785 114.969C338.785 113.484 339.041 112.361 339.553 111.6C340.064 110.838 340.803 110.457 341.768 110.457C343.615 110.457 344.539 111.893 344.539 114.764C344.539 116.186 344.277 117.271 343.754 118.021C343.234 118.768 342.506 119.141 341.568 119.141ZM341.703 111.541C340.684 111.541 340.174 112.664 340.174 114.91C340.174 117.012 340.674 118.062 341.674 118.062C342.658 118.062 343.15 116.994 343.15 114.857C343.15 112.646 342.668 111.541 341.703 111.541ZM348.236 119.141C347.361 119.141 346.678 118.783 346.186 118.068C345.697 117.354 345.453 116.32 345.453 114.969C345.453 113.484 345.709 112.361 346.221 111.6C346.732 110.838 347.471 110.457 348.436 110.457C350.283 110.457 351.207 111.893 351.207 114.764C351.207 116.186 350.945 117.271 350.422 118.021C349.902 118.768 349.174 119.141 348.236 119.141ZM348.371 111.541C347.352 111.541 346.842 112.664 346.842 114.91C346.842 117.012 347.342 118.062 348.342 118.062C349.326 118.062 349.818 116.994 349.818 114.857C349.818 112.646 349.336 111.541 348.371 111.541Z" fill="#323130"/>
<path d="M391.572 95.1406C390.697 95.1406 390.014 94.7832 389.521 94.0684C389.033 93.3535 388.789 92.3203 388.789 90.9688C388.789 89.4844 389.045 88.3613 389.557 87.5996C390.068 86.8379 390.807 86.457 391.771 86.457C393.619 86.457 394.543 87.8926 394.543 90.7637C394.543 92.1855 394.281 93.2715 393.758 94.0215C393.238 94.7676 392.51 95.1406 391.572 95.1406ZM391.707 87.541C390.688 87.541 390.178 88.6641 390.178 90.9102C390.178 93.0117 390.678 94.0625 391.678 94.0625C392.662 94.0625 393.154 92.9941 393.154 90.8574C393.154 88.6465 392.672 87.541 391.707 87.541Z" fill="#323130"/>
<mask id="path-8-inside-3_2_8100" fill="white">
<path d="M399 100C399 87.9184 401.38 75.9551 406.003 64.7931C410.627 53.6312 417.403 43.4892 425.946 34.9462C434.489 26.4032 444.631 19.6265 455.793 15.0031C466.955 10.3796 478.918 8 491 8C503.082 8 515.045 10.3797 526.207 15.0031C537.369 19.6265 547.511 26.4032 556.054 34.9462C564.597 43.4892 571.373 53.6312 575.997 64.7931C580.62 75.9551 583 87.9184 583 100L555.768 100C555.768 91.4946 554.093 83.0724 550.838 75.2144C547.583 67.3564 542.812 60.2164 536.798 54.2021C530.784 48.1879 523.644 43.4171 515.786 40.1622C507.928 36.9073 499.505 35.232 491 35.232C482.495 35.232 474.072 36.9073 466.214 40.1622C458.356 43.4171 451.216 48.1878 445.202 54.2021C439.188 60.2164 434.417 67.3563 431.162 75.2144C427.907 83.0724 426.232 91.4945 426.232 100H399Z"/>
</mask>
<path d="M399 100C399 87.9184 401.38 75.9551 406.003 64.7931C410.627 53.6312 417.403 43.4892 425.946 34.9462C434.489 26.4032 444.631 19.6265 455.793 15.0031C466.955 10.3796 478.918 8 491 8C503.082 8 515.045 10.3797 526.207 15.0031C537.369 19.6265 547.511 26.4032 556.054 34.9462C564.597 43.4892 571.373 53.6312 575.997 64.7931C580.62 75.9551 583 87.9184 583 100L555.768 100C555.768 91.4946 554.093 83.0724 550.838 75.2144C547.583 67.3564 542.812 60.2164 536.798 54.2021C530.784 48.1879 523.644 43.4171 515.786 40.1622C507.928 36.9073 499.505 35.232 491 35.232C482.495 35.232 474.072 36.9073 466.214 40.1622C458.356 43.4171 451.216 48.1878 445.202 54.2021C439.188 60.2164 434.417 67.3563 431.162 75.2144C427.907 83.0724 426.232 91.4945 426.232 100H399Z" fill="#F5F5F5" stroke="white" stroke-width="4" mask="url(#path-8-inside-3_2_8100)"/>
<mask id="path-9-inside-4_2_8100" fill="white">
<path d="M399 100C399 86.7708 401.853 73.6973 407.365 61.6709C412.876 49.6446 420.916 38.9483 430.937 30.3116L448.716 50.9394C441.661 57.0196 436.001 64.5498 432.121 73.0163C428.241 81.4829 426.232 90.6867 426.232 100H399Z"/>
</mask>
<path d="M399 100C399 86.7708 401.853 73.6973 407.365 61.6709C412.876 49.6446 420.916 38.9483 430.937 30.3116L448.716 50.9394C441.661 57.0196 436.001 64.5498 432.121 73.0163C428.241 81.4829 426.232 90.6867 426.232 100H399Z" fill="#4F6BED" stroke="white" stroke-width="4" mask="url(#path-9-inside-4_2_8100)"/>
<mask id="path-10-inside-5_2_8100" fill="white">
<path d="M399 100C399 87.9184 401.38 75.9551 406.003 64.7931C410.627 53.6312 417.403 43.4892 425.946 34.9462C434.489 26.4032 444.631 19.6265 455.793 15.0031C466.955 10.3796 478.918 8 491 8C503.082 8 515.045 10.3797 526.207 15.0031C537.369 19.6265 547.511 26.4032 556.054 34.9462C564.597 43.4892 571.373 53.6312 575.997 64.7931C580.62 75.9551 583 87.9184 583 100L555.768 100C555.768 91.4946 554.093 83.0724 550.838 75.2144C547.583 67.3564 542.812 60.2164 536.798 54.2021C530.784 48.1879 523.644 43.4171 515.786 40.1622C507.928 36.9073 499.505 35.232 491 35.232C482.495 35.232 474.072 36.9073 466.214 40.1622C458.356 43.4171 451.216 48.1878 445.202 54.2021C439.188 60.2164 434.417 67.3563 431.162 75.2144C427.907 83.0724 426.232 91.4945 426.232 100H399Z"/>
</mask>
<path d="M399 100C399 87.9184 401.38 75.9551 406.003 64.7931C410.627 53.6312 417.403 43.4892 425.946 34.9462C434.489 26.4032 444.631 19.6265 455.793 15.0031C466.955 10.3796 478.918 8 491 8C503.082 8 515.045 10.3797 526.207 15.0031C537.369 19.6265 547.511 26.4032 556.054 34.9462C564.597 43.4892 571.373 53.6312 575.997 64.7931C580.62 75.9551 583 87.9184 583 100L555.768 100C555.768 91.4946 554.093 83.0724 550.838 75.2144C547.583 67.3564 542.812 60.2164 536.798 54.2021C530.784 48.1879 523.644 43.4171 515.786 40.1622C507.928 36.9073 499.505 35.232 491 35.232C482.495 35.232 474.072 36.9073 466.214 40.1622C458.356 43.4171 451.216 48.1878 445.202 54.2021C439.188 60.2164 434.417 67.3563 431.162 75.2144C427.907 83.0724 426.232 91.4945 426.232 100H399Z" fill="#107C10" stroke="white" stroke-width="4" mask="url(#path-10-inside-5_2_8100)"/>
<mask id="path-11-inside-6_2_8100" fill="white">
<path d="M399 100C399 75.6001 408.693 52.1995 425.946 34.9462C443.2 17.6928 466.6 8 491 8V35.232C473.822 35.232 457.348 42.0558 445.202 54.2021C433.056 66.3485 426.232 82.8225 426.232 100H399Z"/>
</mask>
<path d="M399 100C399 75.6001 408.693 52.1995 425.946 34.9462C443.2 17.6928 466.6 8 491 8V35.232C473.822 35.232 457.348 42.0558 445.202 54.2021C433.056 66.3485 426.232 82.8225 426.232 100H399Z" fill="#F2610C" stroke="white" stroke-width="4" mask="url(#path-11-inside-6_2_8100)"/>
<mask id="path-12-inside-7_2_8100" fill="white">
<path d="M399 100C399 78.3541 406.632 57.4013 420.555 40.8268L441.407 58.3421C431.605 70.0105 426.232 84.7613 426.232 100H399Z"/>
</mask>
<path d="M399 100C399 78.3541 406.632 57.4013 420.555 40.8268L441.407 58.3421C431.605 70.0105 426.232 84.7613 426.232 100H399Z" fill="#C50F1F" stroke="white" stroke-width="4" mask="url(#path-12-inside-7_2_8100)"/>
<path d="M542.958 19.5227C541.82 18.8114 540.325 19.1043 539.539 20.1924L523.318 42.6587C521.825 44.7253 522.393 47.6232 524.555 48.974C526.717 50.3248 529.57 49.5647 530.773 47.3176L543.855 22.889C544.488 21.7058 544.096 20.2339 542.958 19.5227Z" fill="#292929" stroke="white" stroke-width="2.31522"/>
<path d="M476.141 76.4062C475.203 78.125 474.318 79.8281 473.484 81.5156C472.651 83.1927 471.896 84.8802 471.219 86.5781C470.542 88.276 469.953 89.9896 469.453 91.7188C468.953 93.4375 468.568 95.1979 468.297 97H464.5C464.75 95.3958 465.104 93.7969 465.562 92.2031C466.031 90.599 466.578 89 467.203 87.4062C467.828 85.8021 468.526 84.1927 469.297 82.5781C470.078 80.9635 470.906 79.3333 471.781 77.6875H461.172V74.5938H476.141V76.4062ZM492.828 97H478.766V95.2656C478.766 94.5573 478.865 93.8958 479.062 93.2812C479.26 92.6562 479.526 92.0729 479.859 91.5312C480.193 90.9792 480.583 90.4635 481.031 89.9844C481.479 89.4948 481.958 89.026 482.469 88.5781C482.979 88.1198 483.5 87.6823 484.031 87.2656C484.562 86.8385 485.083 86.4115 485.594 85.9844C486.073 85.5781 486.51 85.1823 486.906 84.7969C487.302 84.401 487.641 83.9948 487.922 83.5781C488.203 83.1615 488.422 82.724 488.578 82.2656C488.734 81.7969 488.812 81.2917 488.812 80.75C488.812 80.1562 488.719 79.6406 488.531 79.2031C488.354 78.7552 488.099 78.3854 487.766 78.0938C487.443 77.7917 487.057 77.5677 486.609 77.4219C486.161 77.2656 485.672 77.1875 485.141 77.1875C484.224 77.1875 483.292 77.401 482.344 77.8281C481.396 78.2552 480.484 78.8958 479.609 79.75V76.2656C480.068 75.9219 480.531 75.625 481 75.375C481.469 75.1146 481.953 74.901 482.453 74.7344C482.953 74.5573 483.479 74.4271 484.031 74.3438C484.583 74.2604 485.172 74.2188 485.797 74.2188C486.807 74.2188 487.724 74.3542 488.547 74.625C489.37 74.8854 490.073 75.276 490.656 75.7969C491.24 76.3073 491.688 76.9479 492 77.7188C492.323 78.4896 492.484 79.375 492.484 80.375C492.484 81.2812 492.37 82.099 492.141 82.8281C491.922 83.5469 491.604 84.2188 491.188 84.8438C490.781 85.4688 490.286 86.0625 489.703 86.625C489.12 87.1875 488.469 87.7656 487.75 88.3594C487.146 88.849 486.542 89.3281 485.938 89.7969C485.344 90.2552 484.807 90.7083 484.328 91.1562C483.849 91.5938 483.458 92.0365 483.156 92.4844C482.865 92.9219 482.719 93.3646 482.719 93.8125V93.8906H492.828V97ZM501.516 85.8438C499.932 85.8438 498.672 85.3385 497.734 84.3281C496.797 83.3073 496.328 81.9479 496.328 80.25C496.328 78.3958 496.823 76.9375 497.812 75.875C498.812 74.8021 500.156 74.2656 501.844 74.2656C503.479 74.2656 504.745 74.7604 505.641 75.75C506.547 76.7396 507 78.1302 507 79.9219C507 81.7135 506.495 83.151 505.484 84.2344C504.474 85.3073 503.151 85.8438 501.516 85.8438ZM501.734 76.4531C500.88 76.4531 500.203 76.7812 499.703 77.4375C499.214 78.0938 498.969 78.9948 498.969 80.1406C498.969 81.2656 499.208 82.1406 499.688 82.7656C500.177 83.3906 500.844 83.7031 501.688 83.7031C502.531 83.7031 503.193 83.3802 503.672 82.7344C504.151 82.0781 504.391 81.1719 504.391 80.0156C504.391 78.8906 504.151 78.0156 503.672 77.3906C503.203 76.7656 502.557 76.4531 501.734 76.4531ZM516.688 74.5938L502.312 97.1562H500.078L514.438 74.5938H516.688ZM514.672 97.3438C513.089 97.3438 511.828 96.8385 510.891 95.8281C509.953 94.8073 509.484 93.4479 509.484 91.75C509.484 89.8958 509.979 88.4375 510.969 87.375C511.969 86.3021 513.312 85.7656 515 85.7656C516.635 85.7656 517.901 86.2604 518.797 87.25C519.703 88.2396 520.156 89.6302 520.156 91.4219C520.156 93.2135 519.651 94.651 518.641 95.7344C517.63 96.8073 516.307 97.3438 514.672 97.3438ZM514.891 87.9531C514.036 87.9531 513.359 88.2812 512.859 88.9375C512.37 89.5938 512.125 90.4948 512.125 91.6406C512.125 92.7656 512.365 93.6406 512.844 94.2656C513.333 94.8906 514 95.2031 514.844 95.2031C515.688 95.2031 516.349 94.8802 516.828 94.2344C517.307 93.5781 517.547 92.6719 517.547 91.5156C517.547 90.3906 517.307 89.5156 516.828 88.8906C516.359 88.2656 515.714 87.9531 514.891 87.9531Z" fill="#323130"/>
<path d="M590.604 86.4102V95H589.244V88.0742C588.998 88.25 588.732 88.4004 588.447 88.5254C588.166 88.6465 587.844 88.7539 587.48 88.8477V87.6875C587.707 87.6133 587.926 87.5352 588.137 87.4531C588.348 87.3711 588.555 87.2793 588.758 87.1777C588.965 87.0762 589.172 86.9629 589.379 86.8379C589.59 86.7129 589.807 86.5703 590.029 86.4102H590.604ZM595.068 95.1406C594.193 95.1406 593.51 94.7832 593.018 94.0684C592.529 93.3535 592.285 92.3203 592.285 90.9688C592.285 89.4844 592.541 88.3613 593.053 87.5996C593.564 86.8379 594.303 86.457 595.268 86.457C597.115 86.457 598.039 87.8926 598.039 90.7637C598.039 92.1855 597.777 93.2715 597.254 94.0215C596.734 94.7676 596.006 95.1406 595.068 95.1406ZM595.203 87.541C594.184 87.541 593.674 88.6641 593.674 90.9102C593.674 93.0117 594.174 94.0625 595.174 94.0625C596.158 94.0625 596.65 92.9941 596.65 90.8574C596.65 88.6465 596.168 87.541 595.203 87.541ZM601.736 95.1406C600.861 95.1406 600.178 94.7832 599.686 94.0684C599.197 93.3535 598.953 92.3203 598.953 90.9688C598.953 89.4844 599.209 88.3613 599.721 87.5996C600.232 86.8379 600.971 86.457 601.936 86.457C603.783 86.457 604.707 87.8926 604.707 90.7637C604.707 92.1855 604.445 93.2715 603.922 94.0215C603.402 94.7676 602.674 95.1406 601.736 95.1406ZM601.871 87.541C600.852 87.541 600.342 88.6641 600.342 90.9102C600.342 93.0117 600.842 94.0625 601.842 94.0625C602.826 94.0625 603.318 92.9941 603.318 90.8574C603.318 88.6465 602.836 87.541 601.871 87.541Z" fill="#323130"/>
<path d="M399.997 113.624C399.997 113.278 400.277 112.999 400.622 112.999H409.373C409.719 112.999 409.999 113.278 409.999 113.624V122.375C409.999 122.72 409.719 123 409.373 123H400.622C400.277 123 399.997 122.72 399.997 122.375V113.624Z" fill="#C50F1F"/>
<path d="M420.82 122.648C420.198 122.977 419.425 123.141 418.499 123.141C417.304 123.141 416.347 122.756 415.628 121.986C414.909 121.217 414.55 120.207 414.55 118.957C414.55 117.613 414.954 116.527 415.763 115.699C416.571 114.871 417.597 114.457 418.839 114.457C419.636 114.457 420.296 114.572 420.82 114.803V115.852C420.218 115.516 419.554 115.348 418.827 115.348C417.862 115.348 417.079 115.67 416.478 116.314C415.88 116.959 415.581 117.82 415.581 118.898C415.581 119.922 415.861 120.738 416.419 121.348C416.982 121.953 417.718 122.256 418.628 122.256C419.472 122.256 420.202 122.068 420.82 121.693V122.648ZM425.53 117.973C425.362 117.844 425.12 117.779 424.804 117.779C424.394 117.779 424.05 117.973 423.773 118.359C423.499 118.746 423.362 119.273 423.362 119.941V123H422.402V117H423.362V118.236H423.386C423.523 117.814 423.732 117.486 424.013 117.252C424.294 117.014 424.609 116.895 424.956 116.895C425.206 116.895 425.398 116.922 425.53 116.977V117.973ZM427.066 115.477C426.894 115.477 426.747 115.418 426.626 115.301C426.505 115.184 426.445 115.035 426.445 114.855C426.445 114.676 426.505 114.527 426.626 114.41C426.747 114.289 426.894 114.229 427.066 114.229C427.241 114.229 427.39 114.289 427.511 114.41C427.636 114.527 427.698 114.676 427.698 114.855C427.698 115.027 427.636 115.174 427.511 115.295C427.39 115.416 427.241 115.477 427.066 115.477ZM427.534 123H426.573V117H427.534V123ZM432.263 122.941C432.036 123.066 431.737 123.129 431.366 123.129C430.316 123.129 429.79 122.543 429.79 121.371V117.82H428.759V117H429.79V115.535L430.751 115.225V117H432.263V117.82H430.751V121.201C430.751 121.604 430.82 121.891 430.956 122.062C431.093 122.234 431.32 122.32 431.636 122.32C431.878 122.32 432.087 122.254 432.263 122.121V122.941ZM434.038 115.477C433.866 115.477 433.72 115.418 433.599 115.301C433.478 115.184 433.417 115.035 433.417 114.855C433.417 114.676 433.478 114.527 433.599 114.41C433.72 114.289 433.866 114.229 434.038 114.229C434.214 114.229 434.362 114.289 434.484 114.41C434.609 114.527 434.671 114.676 434.671 114.855C434.671 115.027 434.609 115.174 434.484 115.295C434.362 115.416 434.214 115.477 434.038 115.477ZM434.507 123H433.546V117H434.507V123ZM440.542 122.725C440.081 123.002 439.534 123.141 438.902 123.141C438.046 123.141 437.355 122.863 436.827 122.309C436.304 121.75 436.042 121.027 436.042 120.141C436.042 119.152 436.325 118.359 436.892 117.762C437.458 117.16 438.214 116.859 439.159 116.859C439.687 116.859 440.152 116.957 440.554 117.152V118.137C440.109 117.824 439.632 117.668 439.124 117.668C438.511 117.668 438.007 117.889 437.612 118.33C437.222 118.768 437.027 119.344 437.027 120.059C437.027 120.762 437.21 121.316 437.577 121.723C437.948 122.129 438.445 122.332 439.066 122.332C439.589 122.332 440.081 122.158 440.542 121.811V122.725ZM446.29 123H445.329V122.062H445.306C444.888 122.781 444.273 123.141 443.46 123.141C442.862 123.141 442.394 122.982 442.054 122.666C441.718 122.35 441.55 121.93 441.55 121.406C441.55 120.285 442.21 119.633 443.53 119.449L445.329 119.197C445.329 118.178 444.917 117.668 444.093 117.668C443.37 117.668 442.718 117.914 442.136 118.406V117.422C442.726 117.047 443.405 116.859 444.175 116.859C445.585 116.859 446.29 117.605 446.29 119.098V123ZM445.329 119.965L443.882 120.164C443.437 120.227 443.101 120.338 442.874 120.498C442.648 120.654 442.534 120.934 442.534 121.336C442.534 121.629 442.638 121.869 442.845 122.057C443.056 122.24 443.335 122.332 443.683 122.332C444.159 122.332 444.552 122.166 444.861 121.834C445.173 121.498 445.329 121.074 445.329 120.562V119.965ZM449.062 123H448.101V114.117H449.062V123Z" fill="#323130"/>
<path d="M466.999 113.624C466.999 113.278 467.278 112.999 467.624 112.999H476.375C476.72 112.999 477 113.278 477 113.624V122.375C477 122.72 476.72 123 476.375 123H467.624C467.278 123 466.999 122.72 466.999 122.375V113.624Z" fill="#F2610C"/>
<path d="M492.063 114.598L489.69 123H488.536L486.807 116.859C486.733 116.598 486.688 116.312 486.673 116.004H486.649C486.626 116.293 486.575 116.574 486.497 116.848L484.757 123H483.614L481.153 114.598H482.237L484.024 121.043C484.099 121.312 484.145 121.594 484.165 121.887H484.194C484.214 121.68 484.274 121.398 484.376 121.043L486.233 114.598H487.177L488.958 121.09C489.02 121.312 489.067 121.574 489.099 121.875H489.122C489.138 121.672 489.19 121.402 489.28 121.066L490.997 114.598H492.063ZM497.015 123H496.054V122.062H496.03C495.612 122.781 494.997 123.141 494.184 123.141C493.587 123.141 493.118 122.982 492.778 122.666C492.442 122.35 492.274 121.93 492.274 121.406C492.274 120.285 492.934 119.633 494.255 119.449L496.054 119.197C496.054 118.178 495.641 117.668 494.817 117.668C494.095 117.668 493.442 117.914 492.86 118.406V117.422C493.45 117.047 494.13 116.859 494.899 116.859C496.309 116.859 497.015 117.605 497.015 119.098V123ZM496.054 119.965L494.606 120.164C494.161 120.227 493.825 120.338 493.599 120.498C493.372 120.654 493.259 120.934 493.259 121.336C493.259 121.629 493.362 121.869 493.569 122.057C493.78 122.24 494.059 122.332 494.407 122.332C494.884 122.332 495.276 122.166 495.585 121.834C495.897 121.498 496.054 121.074 496.054 120.562V119.965ZM501.954 117.973C501.786 117.844 501.544 117.779 501.227 117.779C500.817 117.779 500.474 117.973 500.196 118.359C499.923 118.746 499.786 119.273 499.786 119.941V123H498.825V117H499.786V118.236H499.809C499.946 117.814 500.155 117.486 500.436 117.252C500.718 117.014 501.032 116.895 501.38 116.895C501.63 116.895 501.821 116.922 501.954 116.977V117.973ZM507.977 123H507.016V119.578C507.016 118.305 506.552 117.668 505.622 117.668C505.141 117.668 504.743 117.85 504.427 118.213C504.114 118.572 503.958 119.027 503.958 119.578V123H502.997V117H503.958V117.996H503.981C504.434 117.238 505.091 116.859 505.95 116.859C506.606 116.859 507.108 117.072 507.456 117.498C507.804 117.92 507.977 118.531 507.977 119.332V123ZM510.286 115.477C510.114 115.477 509.968 115.418 509.847 115.301C509.725 115.184 509.665 115.035 509.665 114.855C509.665 114.676 509.725 114.527 509.847 114.41C509.968 114.289 510.114 114.229 510.286 114.229C510.462 114.229 510.61 114.289 510.731 114.41C510.856 114.527 510.919 114.676 510.919 114.855C510.919 115.027 510.856 115.174 510.731 115.295C510.61 115.416 510.462 115.477 510.286 115.477ZM510.755 123H509.794V117H510.755V123ZM517.681 123H516.72V119.578C516.72 118.305 516.255 117.668 515.325 117.668C514.845 117.668 514.446 117.85 514.13 118.213C513.817 118.572 513.661 119.027 513.661 119.578V123H512.7V117H513.661V117.996H513.684C514.138 117.238 514.794 116.859 515.653 116.859C516.309 116.859 516.811 117.072 517.159 117.498C517.507 117.92 517.681 118.531 517.681 119.332V123ZM524.618 122.52C524.618 124.723 523.563 125.824 521.454 125.824C520.712 125.824 520.063 125.684 519.509 125.402V124.441C520.184 124.816 520.829 125.004 521.442 125.004C522.919 125.004 523.657 124.219 523.657 122.648V121.992H523.634C523.177 122.758 522.489 123.141 521.571 123.141C520.825 123.141 520.224 122.875 519.766 122.344C519.313 121.809 519.087 121.092 519.087 120.193C519.087 119.174 519.331 118.363 519.819 117.762C520.311 117.16 520.983 116.859 521.835 116.859C522.643 116.859 523.243 117.184 523.634 117.832H523.657V117H524.618V122.52ZM523.657 120.287V119.402C523.657 118.926 523.495 118.518 523.171 118.178C522.85 117.838 522.45 117.668 521.97 117.668C521.376 117.668 520.911 117.885 520.575 118.318C520.239 118.748 520.071 119.352 520.071 120.129C520.071 120.797 520.231 121.332 520.552 121.734C520.876 122.133 521.304 122.332 521.835 122.332C522.374 122.332 522.811 122.141 523.147 121.758C523.487 121.375 523.657 120.885 523.657 120.287Z" fill="#323130"/>
<path d="M542 113.624C542 113.278 542.28 112.999 542.625 112.999H551.377C551.722 112.999 552.002 113.278 552.002 113.624V122.375C552.002 122.72 551.722 123 551.377 123H542.625C542.28 123 542 122.72 542 122.375V113.624Z" fill="#107C10"/>
<path d="M563.878 123H562.67L558.346 116.303C558.237 116.135 558.147 115.959 558.077 115.775H558.042C558.073 115.955 558.088 116.34 558.088 116.93V123H557.104V114.598H558.381L562.588 121.189C562.764 121.463 562.878 121.65 562.928 121.752H562.952C562.913 121.51 562.893 121.098 562.893 120.516V114.598H563.878V123ZM568.46 123.141C567.573 123.141 566.864 122.861 566.333 122.303C565.805 121.74 565.542 120.996 565.542 120.07C565.542 119.062 565.817 118.275 566.368 117.709C566.919 117.143 567.663 116.859 568.6 116.859C569.495 116.859 570.192 117.135 570.692 117.686C571.196 118.236 571.448 119 571.448 119.977C571.448 120.934 571.176 121.701 570.633 122.279C570.094 122.854 569.37 123.141 568.46 123.141ZM568.53 117.668C567.913 117.668 567.424 117.879 567.065 118.301C566.706 118.719 566.526 119.297 566.526 120.035C566.526 120.746 566.708 121.307 567.071 121.717C567.434 122.127 567.92 122.332 568.53 122.332C569.151 122.332 569.628 122.131 569.96 121.729C570.295 121.326 570.463 120.754 570.463 120.012C570.463 119.262 570.295 118.684 569.96 118.277C569.628 117.871 569.151 117.668 568.53 117.668ZM579.405 117.973C579.237 117.844 578.995 117.779 578.678 117.779C578.268 117.779 577.924 117.973 577.647 118.359C577.374 118.746 577.237 119.273 577.237 119.941V123H576.276V117H577.237V118.236H577.26C577.397 117.814 577.606 117.486 577.887 117.252C578.169 117.014 578.483 116.895 578.831 116.895C579.081 116.895 579.272 116.922 579.405 116.977V117.973ZM580.94 115.477C580.768 115.477 580.622 115.418 580.501 115.301C580.379 115.184 580.319 115.035 580.319 114.855C580.319 114.676 580.379 114.527 580.501 114.41C580.622 114.289 580.768 114.229 580.94 114.229C581.116 114.229 581.264 114.289 581.385 114.41C581.51 114.527 581.573 114.676 581.573 114.855C581.573 115.027 581.51 115.174 581.385 115.295C581.264 115.416 581.116 115.477 580.94 115.477ZM581.409 123H580.448V117H581.409V123ZM582.991 122.783V121.752C583.514 122.139 584.09 122.332 584.719 122.332C585.563 122.332 585.985 122.051 585.985 121.488C585.985 121.328 585.948 121.193 585.874 121.084C585.803 120.971 585.706 120.871 585.581 120.785C585.46 120.699 585.315 120.623 585.147 120.557C584.983 120.486 584.805 120.414 584.614 120.34C584.348 120.234 584.114 120.129 583.911 120.023C583.711 119.914 583.544 119.793 583.407 119.66C583.274 119.523 583.172 119.369 583.102 119.197C583.036 119.025 583.003 118.824 583.003 118.594C583.003 118.312 583.067 118.064 583.196 117.85C583.325 117.631 583.497 117.449 583.711 117.305C583.926 117.156 584.17 117.045 584.444 116.971C584.721 116.896 585.006 116.859 585.299 116.859C585.819 116.859 586.284 116.949 586.694 117.129V118.102C586.253 117.812 585.745 117.668 585.17 117.668C584.991 117.668 584.829 117.689 584.684 117.732C584.54 117.771 584.415 117.828 584.309 117.902C584.208 117.977 584.128 118.066 584.069 118.172C584.014 118.273 583.987 118.387 583.987 118.512C583.987 118.668 584.014 118.799 584.069 118.904C584.128 119.01 584.211 119.104 584.321 119.186C584.43 119.268 584.563 119.342 584.719 119.408C584.876 119.475 585.053 119.547 585.253 119.625C585.518 119.727 585.756 119.832 585.967 119.941C586.178 120.047 586.358 120.168 586.506 120.305C586.655 120.438 586.768 120.592 586.846 120.768C586.928 120.943 586.969 121.152 586.969 121.395C586.969 121.691 586.903 121.949 586.77 122.168C586.641 122.387 586.467 122.568 586.249 122.713C586.03 122.857 585.778 122.965 585.493 123.035C585.208 123.105 584.909 123.141 584.596 123.141C583.979 123.141 583.444 123.021 582.991 122.783ZM593.432 123H592.085L589.436 120.117H589.413V123H588.452V114.117H589.413V119.748H589.436L591.956 117H593.215L590.432 119.895L593.432 123Z" fill="#323130"/>
</svg>
