<svg width="800" height="132" viewBox="0 0 800 132" fill="none" xmlns="http://www.w3.org/2000/svg">
<path d="M174.072 111.641C173.197 111.641 172.514 111.283 172.021 110.568C171.533 109.854 171.289 108.82 171.289 107.469C171.289 105.984 171.545 104.861 172.057 104.1C172.568 103.338 173.307 102.957 174.271 102.957C176.119 102.957 177.043 104.393 177.043 107.264C177.043 108.686 176.781 109.771 176.258 110.521C175.738 111.268 175.01 111.641 174.072 111.641ZM174.207 104.041C173.188 104.041 172.678 105.164 172.678 107.41C172.678 109.512 173.178 110.562 174.178 110.562C175.162 110.562 175.654 109.494 175.654 107.357C175.654 105.146 175.172 104.041 174.207 104.041Z" fill="#323130"/>
<mask id="path-2-inside-1_2_8100" fill="white">
<path d="M181.5 91.5C181.5 81.7822 183.414 72.1595 187.133 63.1814C190.852 54.2033 196.303 46.0456 203.174 39.1741C210.046 32.3026 218.203 26.8518 227.181 23.1329C236.16 19.4141 245.782 17.5 255.5 17.5C265.218 17.5 274.84 19.4141 283.819 23.1329C292.797 26.8518 300.954 32.3026 307.826 39.1741C314.697 46.0456 320.148 54.2033 323.867 63.1814C327.586 72.1595 329.5 81.7822 329.5 91.5L307.596 91.5C307.596 84.6587 306.249 77.8843 303.63 71.5637C301.012 65.2432 297.175 59.5001 292.337 54.6626C287.5 49.825 281.757 45.9876 275.436 43.3696C269.116 40.7515 262.341 39.404 255.5 39.404C248.659 39.404 241.884 40.7515 235.564 43.3696C229.243 45.9876 223.5 49.825 218.663 54.6626C213.825 59.5001 209.988 65.2431 207.37 71.5637C204.752 77.8843 203.404 84.6587 203.404 91.5L181.5 91.5Z"/>
</mask>
<path d="M181.5 91.5C181.5 81.7822 183.414 72.1595 187.133 63.1814C190.852 54.2033 196.303 46.0456 203.174 39.1741C210.046 32.3026 218.203 26.8518 227.181 23.1329C236.16 19.4141 245.782 17.5 255.5 17.5C265.218 17.5 274.84 19.4141 283.819 23.1329C292.797 26.8518 300.954 32.3026 307.826 39.1741C314.697 46.0456 320.148 54.2033 323.867 63.1814C327.586 72.1595 329.5 81.7822 329.5 91.5L307.596 91.5C307.596 84.6587 306.249 77.8843 303.63 71.5637C301.012 65.2432 297.175 59.5001 292.337 54.6626C287.5 49.825 281.757 45.9876 275.436 43.3696C269.116 40.7515 262.341 39.404 255.5 39.404C248.659 39.404 241.884 40.7515 235.564 43.3696C229.243 45.9876 223.5 49.825 218.663 54.6626C213.825 59.5001 209.988 65.2431 207.37 71.5637C204.752 77.8843 203.404 84.6587 203.404 91.5L181.5 91.5Z" fill="#F5F5F5" stroke="white" stroke-width="4" mask="url(#path-2-inside-1_2_8100)"/>
<mask id="path-3-inside-2_2_8100" fill="white">
<path d="M181.5 91.5C181.5 75.9584 186.393 60.8113 195.486 48.207C204.578 35.6028 217.408 26.1811 232.156 21.2784C246.904 16.3757 262.821 16.2409 277.65 20.8929C292.479 25.545 305.467 34.7479 314.772 47.1963L297.228 60.3102C290.677 51.5465 281.534 45.0677 271.094 41.7926C260.654 38.5176 249.449 38.6125 239.066 42.064C228.683 45.5155 219.651 52.1483 213.25 61.0218C206.849 69.8952 203.404 80.5587 203.404 91.5L181.5 91.5Z"/>
</mask>
<path d="M181.5 91.5C181.5 75.9584 186.393 60.8113 195.486 48.207C204.578 35.6028 217.408 26.1811 232.156 21.2784C246.904 16.3757 262.821 16.2409 277.65 20.8929C292.479 25.545 305.467 34.7479 314.772 47.1963L297.228 60.3102C290.677 51.5465 281.534 45.0677 271.094 41.7926C260.654 38.5176 249.449 38.6125 239.066 42.064C228.683 45.5155 219.651 52.1483 213.25 61.0218C206.849 69.8952 203.404 80.5587 203.404 91.5L181.5 91.5Z" fill="#3483FA" stroke="white" stroke-width="4" mask="url(#path-3-inside-2_2_8100)"/>
<path d="M285.923 50.2523L297.223 29.1497C297.771 28.1276 297.432 26.8561 296.449 26.2417C295.466 25.6273 294.174 25.8803 293.496 26.8203L279.482 46.2277C278.193 48.013 278.684 50.5163 280.551 51.6832C282.419 52.85 284.884 52.1934 285.923 50.2523Z" fill="#292929" stroke="white" stroke-width="2"/>
<path d="M233.141 83.8125C233.141 83.3281 233.199 82.8594 233.316 82.4062C233.441 81.9531 233.625 81.5352 233.867 81.1523C234.109 80.7695 234.414 80.4258 234.781 80.1211C235.148 79.8164 235.578 79.5703 236.07 79.3828C235.344 78.9766 234.766 78.457 234.336 77.8242C233.906 77.1836 233.691 76.4766 233.691 75.7031C233.691 75.0859 233.816 74.5156 234.066 73.9922C234.324 73.4688 234.676 73.0156 235.121 72.6328C235.574 72.25 236.105 71.9531 236.715 71.7422C237.324 71.5234 237.988 71.4141 238.707 71.4141C239.434 71.4141 240.102 71.5234 240.711 71.7422C241.328 71.9609 241.859 72.2617 242.305 72.6445C242.758 73.0273 243.109 73.4805 243.359 74.0039C243.609 74.5273 243.734 75.0938 243.734 75.7031C243.734 76.4766 243.52 77.1836 243.09 77.8242C242.66 78.457 242.09 78.9766 241.379 79.3828C241.863 79.5703 242.289 79.8164 242.656 80.1211C243.031 80.418 243.344 80.7578 243.594 81.1406C243.844 81.5234 244.031 81.9414 244.156 82.3945C244.281 82.8477 244.344 83.3203 244.344 83.8125C244.344 84.5469 244.207 85.2188 243.934 85.8281C243.66 86.4375 243.277 86.9609 242.785 87.3984C242.293 87.8281 241.703 88.1641 241.016 88.4062C240.328 88.6484 239.57 88.7695 238.742 88.7695C237.922 88.7695 237.168 88.6484 236.48 88.4062C235.801 88.1641 235.211 87.8281 234.711 87.3984C234.219 86.9609 233.832 86.4375 233.551 85.8281C233.277 85.2188 233.141 84.5469 233.141 83.8125ZM235.789 83.5781C235.789 84.0547 235.859 84.4844 236 84.8672C236.141 85.25 236.34 85.5742 236.598 85.8398C236.855 86.1055 237.164 86.3086 237.523 86.4492C237.891 86.5898 238.297 86.6602 238.742 86.6602C239.172 86.6602 239.566 86.5898 239.926 86.4492C240.285 86.3008 240.594 86.0938 240.852 85.8281C241.117 85.5547 241.324 85.2305 241.473 84.8555C241.621 84.4727 241.695 84.0469 241.695 83.5781C241.695 83.1484 241.625 82.7461 241.484 82.3711C241.344 81.9883 241.145 81.6562 240.887 81.375C240.629 81.0938 240.316 80.8711 239.949 80.707C239.59 80.543 239.188 80.4609 238.742 80.4609C238.32 80.4609 237.926 80.5391 237.559 80.6953C237.199 80.8438 236.887 81.0586 236.621 81.3398C236.363 81.6133 236.16 81.9414 236.012 82.3242C235.863 82.707 235.789 83.125 235.789 83.5781ZM236.363 75.9844C236.363 76.3359 236.426 76.6641 236.551 76.9688C236.676 77.2656 236.844 77.5273 237.055 77.7539C237.266 77.9727 237.512 78.1445 237.793 78.2695C238.082 78.3945 238.391 78.457 238.719 78.457C239.047 78.457 239.352 78.3945 239.633 78.2695C239.922 78.1367 240.172 77.9609 240.383 77.7422C240.602 77.5156 240.773 77.2539 240.898 76.957C241.023 76.6523 241.086 76.3281 241.086 75.9844C241.086 75.6328 241.023 75.3047 240.898 75C240.781 74.6953 240.617 74.4336 240.406 74.2148C240.195 73.9961 239.945 73.8242 239.656 73.6992C239.367 73.5742 239.055 73.5117 238.719 73.5117C238.367 73.5117 238.047 73.5781 237.758 73.7109C237.469 73.8359 237.219 74.0117 237.008 74.2383C236.805 74.4648 236.645 74.7305 236.527 75.0352C236.418 75.332 236.363 75.6484 236.363 75.9844ZM251.891 88.7812C250.141 88.7812 248.773 88.0664 247.789 86.6367C246.812 85.207 246.324 83.1406 246.324 80.4375C246.324 77.4688 246.836 75.2227 247.859 73.6992C248.883 72.1758 250.359 71.4141 252.289 71.4141C255.984 71.4141 257.832 74.2852 257.832 80.0273C257.832 82.8711 257.309 85.043 256.262 86.543C255.223 88.0352 253.766 88.7812 251.891 88.7812ZM252.16 73.582C250.121 73.582 249.102 75.8281 249.102 80.3203C249.102 84.5234 250.102 86.625 252.102 86.625C254.07 86.625 255.055 84.4883 255.055 80.2148C255.055 75.793 254.09 73.582 252.16 73.582ZM263.621 80.1328C262.434 80.1328 261.488 79.7539 260.785 78.9961C260.082 78.2305 259.73 77.2109 259.73 75.9375C259.73 74.5469 260.102 73.4531 260.844 72.6562C261.594 71.8516 262.602 71.4492 263.867 71.4492C265.094 71.4492 266.043 71.8203 266.715 72.5625C267.395 73.3047 267.734 74.3477 267.734 75.6914C267.734 77.0352 267.355 78.1133 266.598 78.9258C265.84 79.7305 264.848 80.1328 263.621 80.1328ZM263.785 73.0898C263.145 73.0898 262.637 73.3359 262.262 73.8281C261.895 74.3203 261.711 74.9961 261.711 75.8555C261.711 76.6992 261.891 77.3555 262.25 77.8242C262.617 78.293 263.117 78.5273 263.75 78.5273C264.383 78.5273 264.879 78.2852 265.238 77.8008C265.598 77.3086 265.777 76.6289 265.777 75.7617C265.777 74.918 265.598 74.2617 265.238 73.793C264.887 73.3242 264.402 73.0898 263.785 73.0898ZM275 71.6953L264.219 88.6172H262.543L273.312 71.6953H275ZM273.488 88.7578C272.301 88.7578 271.355 88.3789 270.652 87.6211C269.949 86.8555 269.598 85.8359 269.598 84.5625C269.598 83.1719 269.969 82.0781 270.711 81.2812C271.461 80.4766 272.469 80.0742 273.734 80.0742C274.961 80.0742 275.91 80.4453 276.582 81.1875C277.262 81.9297 277.602 82.9727 277.602 84.3164C277.602 85.6602 277.223 86.7383 276.465 87.5508C275.707 88.3555 274.715 88.7578 273.488 88.7578ZM273.652 81.7148C273.012 81.7148 272.504 81.9609 272.129 82.4531C271.762 82.9453 271.578 83.6211 271.578 84.4805C271.578 85.3242 271.758 85.9805 272.117 86.4492C272.484 86.918 272.984 87.1523 273.617 87.1523C274.25 87.1523 274.746 86.9102 275.105 86.4258C275.465 85.9336 275.645 85.2539 275.645 84.3867C275.645 83.543 275.465 82.8867 275.105 82.418C274.754 81.9492 274.27 81.7148 273.652 81.7148Z" fill="#323130"/>
<path d="M337.104 102.91V111.5H335.744V104.574C335.498 104.75 335.232 104.9 334.947 105.025C334.666 105.146 334.344 105.254 333.98 105.348V104.188C334.207 104.113 334.426 104.035 334.637 103.953C334.848 103.871 335.055 103.779 335.258 103.678C335.465 103.576 335.672 103.463 335.879 103.338C336.09 103.213 336.307 103.07 336.529 102.91H337.104ZM341.568 111.641C340.693 111.641 340.01 111.283 339.518 110.568C339.029 109.854 338.785 108.82 338.785 107.469C338.785 105.984 339.041 104.861 339.553 104.1C340.064 103.338 340.803 102.957 341.768 102.957C343.615 102.957 344.539 104.393 344.539 107.264C344.539 108.686 344.277 109.771 343.754 110.521C343.234 111.268 342.506 111.641 341.568 111.641ZM341.703 104.041C340.684 104.041 340.174 105.164 340.174 107.41C340.174 109.512 340.674 110.562 341.674 110.562C342.658 110.562 343.15 109.494 343.15 107.357C343.15 105.146 342.668 104.041 341.703 104.041ZM348.236 111.641C347.361 111.641 346.678 111.283 346.186 110.568C345.697 109.854 345.453 108.82 345.453 107.469C345.453 105.984 345.709 104.861 346.221 104.1C346.732 103.338 347.471 102.957 348.436 102.957C350.283 102.957 351.207 104.393 351.207 107.264C351.207 108.686 350.945 109.771 350.422 110.521C349.902 111.268 349.174 111.641 348.236 111.641ZM348.371 104.041C347.352 104.041 346.842 105.164 346.842 107.41C346.842 109.512 347.342 110.562 348.342 110.562C349.326 110.562 349.818 109.494 349.818 107.357C349.818 105.146 349.336 104.041 348.371 104.041Z" fill="#323130"/>
<path d="M391.572 87.6406C390.697 87.6406 390.014 87.2832 389.521 86.5684C389.033 85.8535 388.789 84.8203 388.789 83.4688C388.789 81.9844 389.045 80.8613 389.557 80.0996C390.068 79.3379 390.807 78.957 391.771 78.957C393.619 78.957 394.543 80.3926 394.543 83.2637C394.543 84.6855 394.281 85.7715 393.758 86.5215C393.238 87.2676 392.51 87.6406 391.572 87.6406ZM391.707 80.041C390.688 80.041 390.178 81.1641 390.178 83.4102C390.178 85.5117 390.678 86.5625 391.678 86.5625C392.662 86.5625 393.154 85.4941 393.154 83.3574C393.154 81.1465 392.672 80.041 391.707 80.041Z" fill="#323130"/>
<mask id="path-8-inside-3_2_8100" fill="white">
<path d="M399 92.5C399 80.4184 401.38 68.4551 406.003 57.2931C410.627 46.1312 417.403 35.9892 425.946 27.4462C434.489 18.9032 444.631 12.1265 455.793 7.50308C466.955 2.87965 478.918 0.499998 491 0.5C503.082 0.500002 515.045 2.87965 526.207 7.50309C537.369 12.1265 547.511 18.9032 556.054 27.4462C564.597 35.9892 571.373 46.1312 575.997 57.2931C580.62 68.4551 583 80.4184 583 92.5L555.768 92.5C555.768 83.9946 554.093 75.5724 550.838 67.7144C547.583 59.8564 542.812 52.7164 536.798 46.7021C530.784 40.6879 523.644 35.9171 515.786 32.6622C507.928 29.4073 499.505 27.732 491 27.732C482.495 27.732 474.072 29.4073 466.214 32.6622C458.356 35.9171 451.216 40.6878 445.202 46.7021C439.188 52.7164 434.417 59.8563 431.162 67.7144C427.907 75.5724 426.232 83.9945 426.232 92.5L399 92.5Z"/>
</mask>
<path d="M399 92.5C399 80.4184 401.38 68.4551 406.003 57.2931C410.627 46.1312 417.403 35.9892 425.946 27.4462C434.489 18.9032 444.631 12.1265 455.793 7.50308C466.955 2.87965 478.918 0.499998 491 0.5C503.082 0.500002 515.045 2.87965 526.207 7.50309C537.369 12.1265 547.511 18.9032 556.054 27.4462C564.597 35.9892 571.373 46.1312 575.997 57.2931C580.62 68.4551 583 80.4184 583 92.5L555.768 92.5C555.768 83.9946 554.093 75.5724 550.838 67.7144C547.583 59.8564 542.812 52.7164 536.798 46.7021C530.784 40.6879 523.644 35.9171 515.786 32.6622C507.928 29.4073 499.505 27.732 491 27.732C482.495 27.732 474.072 29.4073 466.214 32.6622C458.356 35.9171 451.216 40.6878 445.202 46.7021C439.188 52.7164 434.417 59.8563 431.162 67.7144C427.907 75.5724 426.232 83.9945 426.232 92.5L399 92.5Z" fill="#F5F5F5" stroke="white" stroke-width="4" mask="url(#path-8-inside-3_2_8100)"/>
<mask id="path-9-inside-4_2_8100" fill="white">
<path d="M399 92.5C399 79.2708 401.853 66.1973 407.365 54.1709C412.876 42.1446 420.916 31.4483 430.937 22.8116L448.716 43.4394C441.661 49.5196 436.001 57.0498 432.121 65.5163C428.241 73.9829 426.232 83.1867 426.232 92.5L399 92.5Z"/>
</mask>
<path d="M399 92.5C399 79.2708 401.853 66.1973 407.365 54.1709C412.876 42.1446 420.916 31.4483 430.937 22.8116L448.716 43.4394C441.661 49.5196 436.001 57.0498 432.121 65.5163C428.241 73.9829 426.232 83.1867 426.232 92.5L399 92.5Z" fill="#4F6BED" stroke="white" stroke-width="4" mask="url(#path-9-inside-4_2_8100)"/>
<mask id="path-10-inside-5_2_8100" fill="white">
<path d="M399 92.5C399 80.4184 401.38 68.4551 406.003 57.2931C410.627 46.1312 417.403 35.9892 425.946 27.4462C434.489 18.9032 444.631 12.1265 455.793 7.50308C466.955 2.87965 478.918 0.499998 491 0.5C503.082 0.500002 515.045 2.87965 526.207 7.50309C537.369 12.1265 547.511 18.9032 556.054 27.4462C564.597 35.9892 571.373 46.1312 575.997 57.2931C580.62 68.4551 583 80.4184 583 92.5L555.768 92.5C555.768 83.9946 554.093 75.5724 550.838 67.7144C547.583 59.8564 542.812 52.7164 536.798 46.7021C530.784 40.6879 523.644 35.9171 515.786 32.6622C507.928 29.4073 499.505 27.732 491 27.732C482.495 27.732 474.072 29.4073 466.214 32.6622C458.356 35.9171 451.216 40.6878 445.202 46.7021C439.188 52.7164 434.417 59.8563 431.162 67.7144C427.907 75.5724 426.232 83.9945 426.232 92.5L399 92.5Z"/>
</mask>
<path d="M399 92.5C399 80.4184 401.38 68.4551 406.003 57.2931C410.627 46.1312 417.403 35.9892 425.946 27.4462C434.489 18.9032 444.631 12.1265 455.793 7.50308C466.955 2.87965 478.918 0.499998 491 0.5C503.082 0.500002 515.045 2.87965 526.207 7.50309C537.369 12.1265 547.511 18.9032 556.054 27.4462C564.597 35.9892 571.373 46.1312 575.997 57.2931C580.62 68.4551 583 80.4184 583 92.5L555.768 92.5C555.768 83.9946 554.093 75.5724 550.838 67.7144C547.583 59.8564 542.812 52.7164 536.798 46.7021C530.784 40.6879 523.644 35.9171 515.786 32.6622C507.928 29.4073 499.505 27.732 491 27.732C482.495 27.732 474.072 29.4073 466.214 32.6622C458.356 35.9171 451.216 40.6878 445.202 46.7021C439.188 52.7164 434.417 59.8563 431.162 67.7144C427.907 75.5724 426.232 83.9945 426.232 92.5L399 92.5Z" fill="#107C10" stroke="white" stroke-width="4" mask="url(#path-10-inside-5_2_8100)"/>
<mask id="path-11-inside-6_2_8100" fill="white">
<path d="M399 92.5C399 68.1001 408.693 44.6995 425.946 27.4462C443.2 10.1928 466.6 0.5 491 0.5L491 27.732C473.822 27.732 457.348 34.5558 445.202 46.7021C433.056 58.8485 426.232 75.3225 426.232 92.5L399 92.5Z"/>
</mask>
<path d="M399 92.5C399 68.1001 408.693 44.6995 425.946 27.4462C443.2 10.1928 466.6 0.5 491 0.5L491 27.732C473.822 27.732 457.348 34.5558 445.202 46.7021C433.056 58.8485 426.232 75.3225 426.232 92.5L399 92.5Z" fill="#F2610C" stroke="white" stroke-width="4" mask="url(#path-11-inside-6_2_8100)"/>
<mask id="path-12-inside-7_2_8100" fill="white">
<path d="M399 92.5C399 70.8541 406.632 49.9013 420.555 33.3268L441.407 50.8421C431.605 62.5105 426.232 77.2613 426.232 92.5L399 92.5Z"/>
</mask>
<path d="M399 92.5C399 70.8541 406.632 49.9013 420.555 33.3268L441.407 50.8421C431.605 62.5105 426.232 77.2613 426.232 92.5L399 92.5Z" fill="#C50F1F" stroke="white" stroke-width="4" mask="url(#path-12-inside-7_2_8100)"/>
<path d="M530.773 39.8176L543.855 15.389C544.488 14.2058 544.096 12.7339 542.958 12.0227C541.82 11.3114 540.325 11.6043 539.539 12.6924L523.318 35.1587C521.825 37.2253 522.393 40.1232 524.555 41.474C526.717 42.8248 529.57 42.0647 530.773 39.8176Z" fill="#292929" stroke="white" stroke-width="2.31522"/>
<path d="M476.141 68.9062C475.203 70.625 474.318 72.3281 473.484 74.0156C472.651 75.6927 471.896 77.3802 471.219 79.0781C470.542 80.776 469.953 82.4896 469.453 84.2188C468.953 85.9375 468.568 87.6979 468.297 89.5H464.5C464.75 87.8958 465.104 86.2969 465.562 84.7031C466.031 83.099 466.578 81.5 467.203 79.9062C467.828 78.3021 468.526 76.6927 469.297 75.0781C470.078 73.4635 470.906 71.8333 471.781 70.1875H461.172V67.0938H476.141V68.9062ZM492.828 89.5H478.766V87.7656C478.766 87.0573 478.865 86.3958 479.062 85.7812C479.26 85.1562 479.526 84.5729 479.859 84.0312C480.193 83.4792 480.583 82.9635 481.031 82.4844C481.479 81.9948 481.958 81.526 482.469 81.0781C482.979 80.6198 483.5 80.1823 484.031 79.7656C484.562 79.3385 485.083 78.9115 485.594 78.4844C486.073 78.0781 486.51 77.6823 486.906 77.2969C487.302 76.901 487.641 76.4948 487.922 76.0781C488.203 75.6615 488.422 75.224 488.578 74.7656C488.734 74.2969 488.812 73.7917 488.812 73.25C488.812 72.6562 488.719 72.1406 488.531 71.7031C488.354 71.2552 488.099 70.8854 487.766 70.5938C487.443 70.2917 487.057 70.0677 486.609 69.9219C486.161 69.7656 485.672 69.6875 485.141 69.6875C484.224 69.6875 483.292 69.901 482.344 70.3281C481.396 70.7552 480.484 71.3958 479.609 72.25V68.7656C480.068 68.4219 480.531 68.125 481 67.875C481.469 67.6146 481.953 67.401 482.453 67.2344C482.953 67.0573 483.479 66.9271 484.031 66.8438C484.583 66.7604 485.172 66.7188 485.797 66.7188C486.807 66.7188 487.724 66.8542 488.547 67.125C489.37 67.3854 490.073 67.776 490.656 68.2969C491.24 68.8073 491.688 69.4479 492 70.2188C492.323 70.9896 492.484 71.875 492.484 72.875C492.484 73.7812 492.37 74.599 492.141 75.3281C491.922 76.0469 491.604 76.7188 491.188 77.3438C490.781 77.9688 490.286 78.5625 489.703 79.125C489.12 79.6875 488.469 80.2656 487.75 80.8594C487.146 81.349 486.542 81.8281 485.938 82.2969C485.344 82.7552 484.807 83.2083 484.328 83.6562C483.849 84.0938 483.458 84.5365 483.156 84.9844C482.865 85.4219 482.719 85.8646 482.719 86.3125V86.3906H492.828V89.5ZM501.516 78.3438C499.932 78.3438 498.672 77.8385 497.734 76.8281C496.797 75.8073 496.328 74.4479 496.328 72.75C496.328 70.8958 496.823 69.4375 497.812 68.375C498.812 67.3021 500.156 66.7656 501.844 66.7656C503.479 66.7656 504.745 67.2604 505.641 68.25C506.547 69.2396 507 70.6302 507 72.4219C507 74.2135 506.495 75.651 505.484 76.7344C504.474 77.8073 503.151 78.3438 501.516 78.3438ZM501.734 68.9531C500.88 68.9531 500.203 69.2812 499.703 69.9375C499.214 70.5938 498.969 71.4948 498.969 72.6406C498.969 73.7656 499.208 74.6406 499.688 75.2656C500.177 75.8906 500.844 76.2031 501.688 76.2031C502.531 76.2031 503.193 75.8802 503.672 75.2344C504.151 74.5781 504.391 73.6719 504.391 72.5156C504.391 71.3906 504.151 70.5156 503.672 69.8906C503.203 69.2656 502.557 68.9531 501.734 68.9531ZM516.688 67.0938L502.312 89.6562H500.078L514.438 67.0938H516.688ZM514.672 89.8438C513.089 89.8438 511.828 89.3385 510.891 88.3281C509.953 87.3073 509.484 85.9479 509.484 84.25C509.484 82.3958 509.979 80.9375 510.969 79.875C511.969 78.8021 513.312 78.2656 515 78.2656C516.635 78.2656 517.901 78.7604 518.797 79.75C519.703 80.7396 520.156 82.1302 520.156 83.9219C520.156 85.7135 519.651 87.151 518.641 88.2344C517.63 89.3073 516.307 89.8438 514.672 89.8438ZM514.891 80.4531C514.036 80.4531 513.359 80.7812 512.859 81.4375C512.37 82.0938 512.125 82.9948 512.125 84.1406C512.125 85.2656 512.365 86.1406 512.844 86.7656C513.333 87.3906 514 87.7031 514.844 87.7031C515.688 87.7031 516.349 87.3802 516.828 86.7344C517.307 86.0781 517.547 85.1719 517.547 84.0156C517.547 82.8906 517.307 82.0156 516.828 81.3906C516.359 80.7656 515.714 80.4531 514.891 80.4531Z" fill="#323130"/>
<path d="M590.604 78.9102V87.5H589.244V80.5742C588.998 80.75 588.732 80.9004 588.447 81.0254C588.166 81.1465 587.844 81.2539 587.48 81.3477V80.1875C587.707 80.1133 587.926 80.0352 588.137 79.9531C588.348 79.8711 588.555 79.7793 588.758 79.6777C588.965 79.5762 589.172 79.4629 589.379 79.3379C589.59 79.2129 589.807 79.0703 590.029 78.9102H590.604ZM595.068 87.6406C594.193 87.6406 593.51 87.2832 593.018 86.5684C592.529 85.8535 592.285 84.8203 592.285 83.4688C592.285 81.9844 592.541 80.8613 593.053 80.0996C593.564 79.3379 594.303 78.957 595.268 78.957C597.115 78.957 598.039 80.3926 598.039 83.2637C598.039 84.6855 597.777 85.7715 597.254 86.5215C596.734 87.2676 596.006 87.6406 595.068 87.6406ZM595.203 80.041C594.184 80.041 593.674 81.1641 593.674 83.4102C593.674 85.5117 594.174 86.5625 595.174 86.5625C596.158 86.5625 596.65 85.4941 596.65 83.3574C596.65 81.1465 596.168 80.041 595.203 80.041ZM601.736 87.6406C600.861 87.6406 600.178 87.2832 599.686 86.5684C599.197 85.8535 598.953 84.8203 598.953 83.4688C598.953 81.9844 599.209 80.8613 599.721 80.0996C600.232 79.3379 600.971 78.957 601.936 78.957C603.783 78.957 604.707 80.3926 604.707 83.2637C604.707 84.6855 604.445 85.7715 603.922 86.5215C603.402 87.2676 602.674 87.6406 601.736 87.6406ZM601.871 80.041C600.852 80.041 600.342 81.1641 600.342 83.4102C600.342 85.5117 600.842 86.5625 601.842 86.5625C602.826 86.5625 603.318 85.4941 603.318 83.3574C603.318 81.1465 602.836 80.041 601.871 80.041Z" fill="#323130"/>
<path d="M399.997 106.124C399.997 105.778 400.277 105.499 400.622 105.499H409.373C409.719 105.499 409.999 105.778 409.999 106.124V114.875C409.999 115.22 409.719 115.5 409.373 115.5H400.622C400.277 115.5 399.997 115.22 399.997 114.875V106.124Z" fill="#C50F1F"/>
<path d="M420.82 115.148C420.198 115.477 419.425 115.641 418.499 115.641C417.304 115.641 416.347 115.256 415.628 114.486C414.909 113.717 414.55 112.707 414.55 111.457C414.55 110.113 414.954 109.027 415.763 108.199C416.571 107.371 417.597 106.957 418.839 106.957C419.636 106.957 420.296 107.072 420.82 107.303V108.352C420.218 108.016 419.554 107.848 418.827 107.848C417.862 107.848 417.079 108.17 416.478 108.814C415.88 109.459 415.581 110.32 415.581 111.398C415.581 112.422 415.861 113.238 416.419 113.848C416.982 114.453 417.718 114.756 418.628 114.756C419.472 114.756 420.202 114.568 420.82 114.193V115.148ZM425.53 110.473C425.362 110.344 425.12 110.279 424.804 110.279C424.394 110.279 424.05 110.473 423.773 110.859C423.499 111.246 423.362 111.773 423.362 112.441V115.5H422.402V109.5H423.362V110.736H423.386C423.523 110.314 423.732 109.986 424.013 109.752C424.294 109.514 424.609 109.395 424.956 109.395C425.206 109.395 425.398 109.422 425.53 109.477V110.473ZM427.066 107.977C426.894 107.977 426.747 107.918 426.626 107.801C426.505 107.684 426.445 107.535 426.445 107.355C426.445 107.176 426.505 107.027 426.626 106.91C426.747 106.789 426.894 106.729 427.066 106.729C427.241 106.729 427.39 106.789 427.511 106.91C427.636 107.027 427.698 107.176 427.698 107.355C427.698 107.527 427.636 107.674 427.511 107.795C427.39 107.916 427.241 107.977 427.066 107.977ZM427.534 115.5H426.573V109.5H427.534V115.5ZM432.263 115.441C432.036 115.566 431.737 115.629 431.366 115.629C430.316 115.629 429.79 115.043 429.79 113.871V110.32H428.759V109.5H429.79V108.035L430.751 107.725V109.5H432.263V110.32H430.751V113.701C430.751 114.104 430.82 114.391 430.956 114.562C431.093 114.734 431.32 114.82 431.636 114.82C431.878 114.82 432.087 114.754 432.263 114.621V115.441ZM434.038 107.977C433.866 107.977 433.72 107.918 433.599 107.801C433.478 107.684 433.417 107.535 433.417 107.355C433.417 107.176 433.478 107.027 433.599 106.91C433.72 106.789 433.866 106.729 434.038 106.729C434.214 106.729 434.362 106.789 434.484 106.91C434.609 107.027 434.671 107.176 434.671 107.355C434.671 107.527 434.609 107.674 434.484 107.795C434.362 107.916 434.214 107.977 434.038 107.977ZM434.507 115.5H433.546V109.5H434.507V115.5ZM440.542 115.225C440.081 115.502 439.534 115.641 438.902 115.641C438.046 115.641 437.355 115.363 436.827 114.809C436.304 114.25 436.042 113.527 436.042 112.641C436.042 111.652 436.325 110.859 436.892 110.262C437.458 109.66 438.214 109.359 439.159 109.359C439.687 109.359 440.152 109.457 440.554 109.652V110.637C440.109 110.324 439.632 110.168 439.124 110.168C438.511 110.168 438.007 110.389 437.612 110.83C437.222 111.268 437.027 111.844 437.027 112.559C437.027 113.262 437.21 113.816 437.577 114.223C437.948 114.629 438.445 114.832 439.066 114.832C439.589 114.832 440.081 114.658 440.542 114.311V115.225ZM446.29 115.5H445.329V114.562H445.306C444.888 115.281 444.273 115.641 443.46 115.641C442.862 115.641 442.394 115.482 442.054 115.166C441.718 114.85 441.55 114.43 441.55 113.906C441.55 112.785 442.21 112.133 443.53 111.949L445.329 111.697C445.329 110.678 444.917 110.168 444.093 110.168C443.37 110.168 442.718 110.414 442.136 110.906V109.922C442.726 109.547 443.405 109.359 444.175 109.359C445.585 109.359 446.29 110.105 446.29 111.598V115.5ZM445.329 112.465L443.882 112.664C443.437 112.727 443.101 112.838 442.874 112.998C442.648 113.154 442.534 113.434 442.534 113.836C442.534 114.129 442.638 114.369 442.845 114.557C443.056 114.74 443.335 114.832 443.683 114.832C444.159 114.832 444.552 114.666 444.861 114.334C445.173 113.998 445.329 113.574 445.329 113.062V112.465ZM449.062 115.5H448.101V106.617H449.062V115.5Z" fill="#323130"/>
<path d="M466.999 106.124C466.999 105.778 467.278 105.499 467.624 105.499H476.375C476.72 105.499 477 105.778 477 106.124V114.875C477 115.22 476.72 115.5 476.375 115.5H467.624C467.278 115.5 466.999 115.22 466.999 114.875V106.124Z" fill="#F2610C"/>
<path d="M492.063 107.098L489.69 115.5H488.536L486.807 109.359C486.733 109.098 486.688 108.812 486.673 108.504H486.649C486.626 108.793 486.575 109.074 486.497 109.348L484.757 115.5H483.614L481.153 107.098H482.237L484.024 113.543C484.099 113.812 484.145 114.094 484.165 114.387H484.194C484.214 114.18 484.274 113.898 484.376 113.543L486.233 107.098H487.177L488.958 113.59C489.02 113.812 489.067 114.074 489.099 114.375H489.122C489.138 114.172 489.19 113.902 489.28 113.566L490.997 107.098H492.063ZM497.015 115.5H496.054V114.562H496.03C495.612 115.281 494.997 115.641 494.184 115.641C493.587 115.641 493.118 115.482 492.778 115.166C492.442 114.85 492.274 114.43 492.274 113.906C492.274 112.785 492.934 112.133 494.255 111.949L496.054 111.697C496.054 110.678 495.641 110.168 494.817 110.168C494.095 110.168 493.442 110.414 492.86 110.906V109.922C493.45 109.547 494.13 109.359 494.899 109.359C496.309 109.359 497.015 110.105 497.015 111.598V115.5ZM496.054 112.465L494.606 112.664C494.161 112.727 493.825 112.838 493.599 112.998C493.372 113.154 493.259 113.434 493.259 113.836C493.259 114.129 493.362 114.369 493.569 114.557C493.78 114.74 494.059 114.832 494.407 114.832C494.884 114.832 495.276 114.666 495.585 114.334C495.897 113.998 496.054 113.574 496.054 113.062V112.465ZM501.954 110.473C501.786 110.344 501.544 110.279 501.227 110.279C500.817 110.279 500.474 110.473 500.196 110.859C499.923 111.246 499.786 111.773 499.786 112.441V115.5H498.825V109.5H499.786V110.736H499.809C499.946 110.314 500.155 109.986 500.436 109.752C500.718 109.514 501.032 109.395 501.38 109.395C501.63 109.395 501.821 109.422 501.954 109.477V110.473ZM507.977 115.5H507.016V112.078C507.016 110.805 506.552 110.168 505.622 110.168C505.141 110.168 504.743 110.35 504.427 110.713C504.114 111.072 503.958 111.527 503.958 112.078V115.5H502.997V109.5H503.958V110.496H503.981C504.434 109.738 505.091 109.359 505.95 109.359C506.606 109.359 507.108 109.572 507.456 109.998C507.804 110.42 507.977 111.031 507.977 111.832V115.5ZM510.286 107.977C510.114 107.977 509.968 107.918 509.847 107.801C509.725 107.684 509.665 107.535 509.665 107.355C509.665 107.176 509.725 107.027 509.847 106.91C509.968 106.789 510.114 106.729 510.286 106.729C510.462 106.729 510.61 106.789 510.731 106.91C510.856 107.027 510.919 107.176 510.919 107.355C510.919 107.527 510.856 107.674 510.731 107.795C510.61 107.916 510.462 107.977 510.286 107.977ZM510.755 115.5H509.794V109.5H510.755V115.5ZM517.681 115.5H516.72V112.078C516.72 110.805 516.255 110.168 515.325 110.168C514.845 110.168 514.446 110.35 514.13 110.713C513.817 111.072 513.661 111.527 513.661 112.078V115.5H512.7V109.5H513.661V110.496H513.684C514.138 109.738 514.794 109.359 515.653 109.359C516.309 109.359 516.811 109.572 517.159 109.998C517.507 110.42 517.681 111.031 517.681 111.832V115.5ZM524.618 115.02C524.618 117.223 523.563 118.324 521.454 118.324C520.712 118.324 520.063 118.184 519.509 117.902V116.941C520.184 117.316 520.829 117.504 521.442 117.504C522.919 117.504 523.657 116.719 523.657 115.148V114.492H523.634C523.177 115.258 522.489 115.641 521.571 115.641C520.825 115.641 520.224 115.375 519.766 114.844C519.313 114.309 519.087 113.592 519.087 112.693C519.087 111.674 519.331 110.863 519.819 110.262C520.311 109.66 520.983 109.359 521.835 109.359C522.643 109.359 523.243 109.684 523.634 110.332H523.657V109.5H524.618V115.02ZM523.657 112.787V111.902C523.657 111.426 523.495 111.018 523.171 110.678C522.85 110.338 522.45 110.168 521.97 110.168C521.376 110.168 520.911 110.385 520.575 110.818C520.239 111.248 520.071 111.852 520.071 112.629C520.071 113.297 520.231 113.832 520.552 114.234C520.876 114.633 521.304 114.832 521.835 114.832C522.374 114.832 522.811 114.641 523.147 114.258C523.487 113.875 523.657 113.385 523.657 112.787Z" fill="#323130"/>
<path d="M542 106.124C542 105.778 542.28 105.499 542.625 105.499H551.377C551.722 105.499 552.002 105.778 552.002 106.124V114.875C552.002 115.22 551.722 115.5 551.377 115.5H542.625C542.28 115.5 542 115.22 542 114.875V106.124Z" fill="#107C10"/>
<path d="M563.878 115.5H562.67L558.346 108.803C558.237 108.635 558.147 108.459 558.077 108.275H558.042C558.073 108.455 558.088 108.84 558.088 109.43V115.5H557.104V107.098H558.381L562.588 113.689C562.764 113.963 562.878 114.15 562.928 114.252H562.952C562.913 114.01 562.893 113.598 562.893 113.016V107.098H563.878V115.5ZM568.46 115.641C567.573 115.641 566.864 115.361 566.333 114.803C565.805 114.24 565.542 113.496 565.542 112.57C565.542 111.562 565.817 110.775 566.368 110.209C566.919 109.643 567.663 109.359 568.6 109.359C569.495 109.359 570.192 109.635 570.692 110.186C571.196 110.736 571.448 111.5 571.448 112.477C571.448 113.434 571.176 114.201 570.633 114.779C570.094 115.354 569.37 115.641 568.46 115.641ZM568.53 110.168C567.913 110.168 567.424 110.379 567.065 110.801C566.706 111.219 566.526 111.797 566.526 112.535C566.526 113.246 566.708 113.807 567.071 114.217C567.434 114.627 567.92 114.832 568.53 114.832C569.151 114.832 569.628 114.631 569.96 114.229C570.295 113.826 570.463 113.254 570.463 112.512C570.463 111.762 570.295 111.184 569.96 110.777C569.628 110.371 569.151 110.168 568.53 110.168ZM579.405 110.473C579.237 110.344 578.995 110.279 578.678 110.279C578.268 110.279 577.924 110.473 577.647 110.859C577.374 111.246 577.237 111.773 577.237 112.441V115.5H576.276V109.5H577.237V110.736H577.26C577.397 110.314 577.606 109.986 577.887 109.752C578.169 109.514 578.483 109.395 578.831 109.395C579.081 109.395 579.272 109.422 579.405 109.477V110.473ZM580.94 107.977C580.768 107.977 580.622 107.918 580.501 107.801C580.379 107.684 580.319 107.535 580.319 107.355C580.319 107.176 580.379 107.027 580.501 106.91C580.622 106.789 580.768 106.729 580.94 106.729C581.116 106.729 581.264 106.789 581.385 106.91C581.51 107.027 581.573 107.176 581.573 107.355C581.573 107.527 581.51 107.674 581.385 107.795C581.264 107.916 581.116 107.977 580.94 107.977ZM581.409 115.5H580.448V109.5H581.409V115.5ZM582.991 115.283V114.252C583.514 114.639 584.09 114.832 584.719 114.832C585.563 114.832 585.985 114.551 585.985 113.988C585.985 113.828 585.948 113.693 585.874 113.584C585.803 113.471 585.706 113.371 585.581 113.285C585.46 113.199 585.315 113.123 585.147 113.057C584.983 112.986 584.805 112.914 584.614 112.84C584.348 112.734 584.114 112.629 583.911 112.523C583.711 112.414 583.544 112.293 583.407 112.16C583.274 112.023 583.172 111.869 583.102 111.697C583.036 111.525 583.003 111.324 583.003 111.094C583.003 110.812 583.067 110.564 583.196 110.35C583.325 110.131 583.497 109.949 583.711 109.805C583.926 109.656 584.17 109.545 584.444 109.471C584.721 109.396 585.006 109.359 585.299 109.359C585.819 109.359 586.284 109.449 586.694 109.629V110.602C586.253 110.312 585.745 110.168 585.17 110.168C584.991 110.168 584.829 110.189 584.684 110.232C584.54 110.271 584.415 110.328 584.309 110.402C584.208 110.477 584.128 110.566 584.069 110.672C584.014 110.773 583.987 110.887 583.987 111.012C583.987 111.168 584.014 111.299 584.069 111.404C584.128 111.51 584.211 111.604 584.321 111.686C584.43 111.768 584.563 111.842 584.719 111.908C584.876 111.975 585.053 112.047 585.253 112.125C585.518 112.227 585.756 112.332 585.967 112.441C586.178 112.547 586.358 112.668 586.506 112.805C586.655 112.938 586.768 113.092 586.846 113.268C586.928 113.443 586.969 113.652 586.969 113.895C586.969 114.191 586.903 114.449 586.77 114.668C586.641 114.887 586.467 115.068 586.249 115.213C586.03 115.357 585.778 115.465 585.493 115.535C585.208 115.605 584.909 115.641 584.596 115.641C583.979 115.641 583.444 115.521 582.991 115.283ZM593.432 115.5H592.085L589.436 112.617H589.413V115.5H588.452V106.617H589.413V112.248H589.436L591.956 109.5H593.215L590.432 112.395L593.432 115.5Z" fill="#323130"/>
</svg>
