<svg width="800" height="130" viewBox="0 0 800 130" fill="none" xmlns="http://www.w3.org/2000/svg">
<path d="M294.572 87.1406C293.697 87.1406 293.014 86.7832 292.521 86.0684C292.033 85.3535 291.789 84.3203 291.789 82.9688C291.789 81.4844 292.045 80.3613 292.557 79.5996C293.068 78.8379 293.807 78.457 294.771 78.457C296.619 78.457 297.543 79.8926 297.543 82.7637C297.543 84.1855 297.281 85.2715 296.758 86.0215C296.238 86.7676 295.51 87.1406 294.572 87.1406ZM294.707 79.541C293.688 79.541 293.178 80.6641 293.178 82.9102C293.178 85.0117 293.678 86.0625 294.678 86.0625C295.662 86.0625 296.154 84.9941 296.154 82.8574C296.154 80.6465 295.672 79.541 294.707 79.541Z" fill="#323130"/>
<mask id="path-2-inside-1_2_8100" fill="white">
<path d="M302 92C302 79.9184 304.38 67.9551 309.003 56.7931C313.627 45.6312 320.403 35.4892 328.946 26.9462C337.489 18.4032 347.631 11.6265 358.793 7.00308C369.955 2.37965 381.918 -1.58431e-06 394 0C406.082 1.58431e-06 418.045 2.37965 429.207 7.00309C440.369 11.6265 450.511 18.4032 459.054 26.9462C467.597 35.4892 474.373 45.6312 478.997 56.7931C483.62 67.9551 486 79.9184 486 92L458.768 92C458.768 83.4946 457.093 75.0724 453.838 67.2144C450.583 59.3564 445.812 52.2164 439.798 46.2021C433.784 40.1879 426.644 35.4171 418.786 32.1622C410.928 28.9073 402.505 27.232 394 27.232C385.495 27.232 377.072 28.9073 369.214 32.1622C361.356 35.4171 354.216 40.1878 348.202 46.2021C342.188 52.2164 337.417 59.3563 334.162 67.2144C330.907 75.0724 329.232 83.4945 329.232 92L302 92Z"/>
</mask>
<path d="M302 92C302 79.9184 304.38 67.9551 309.003 56.7931C313.627 45.6312 320.403 35.4892 328.946 26.9462C337.489 18.4032 347.631 11.6265 358.793 7.00308C369.955 2.37965 381.918 -1.58431e-06 394 0C406.082 1.58431e-06 418.045 2.37965 429.207 7.00309C440.369 11.6265 450.511 18.4032 459.054 26.9462C467.597 35.4892 474.373 45.6312 478.997 56.7931C483.62 67.9551 486 79.9184 486 92L458.768 92C458.768 83.4946 457.093 75.0724 453.838 67.2144C450.583 59.3564 445.812 52.2164 439.798 46.2021C433.784 40.1879 426.644 35.4171 418.786 32.1622C410.928 28.9073 402.505 27.232 394 27.232C385.495 27.232 377.072 28.9073 369.214 32.1622C361.356 35.4171 354.216 40.1878 348.202 46.2021C342.188 52.2164 337.417 59.3563 334.162 67.2144C330.907 75.0724 329.232 83.4945 329.232 92L302 92Z" fill="#F5F5F5" stroke="white" stroke-width="4" mask="url(#path-2-inside-1_2_8100)"/>
<mask id="path-3-inside-2_2_8100" fill="white">
<path d="M302 92C302 78.7708 304.853 65.6973 310.365 53.6709C315.876 41.6446 323.916 30.9483 333.937 22.3116L351.716 42.9394C344.661 49.0196 339.001 56.5498 335.121 65.0163C331.241 73.4829 329.232 82.6867 329.232 92L302 92Z"/>
</mask>
<path d="M302 92C302 78.7708 304.853 65.6973 310.365 53.6709C315.876 41.6446 323.916 30.9483 333.937 22.3116L351.716 42.9394C344.661 49.0196 339.001 56.5498 335.121 65.0163C331.241 73.4829 329.232 82.6867 329.232 92L302 92Z" fill="#4F6BED" stroke="white" stroke-width="4" mask="url(#path-3-inside-2_2_8100)"/>
<mask id="path-4-inside-3_2_8100" fill="white">
<path d="M302 92C302 79.9184 304.38 67.9551 309.003 56.7931C313.627 45.6312 320.403 35.4892 328.946 26.9462C337.489 18.4032 347.631 11.6265 358.793 7.00308C369.955 2.37965 381.918 -1.58431e-06 394 0C406.082 1.58431e-06 418.045 2.37965 429.207 7.00309C440.369 11.6265 450.511 18.4032 459.054 26.9462C467.597 35.4892 474.373 45.6312 478.997 56.7931C483.62 67.9551 486 79.9184 486 92L458.768 92C458.768 83.4946 457.093 75.0724 453.838 67.2144C450.583 59.3564 445.812 52.2164 439.798 46.2021C433.784 40.1879 426.644 35.4171 418.786 32.1622C410.928 28.9073 402.505 27.232 394 27.232C385.495 27.232 377.072 28.9073 369.214 32.1622C361.356 35.4171 354.216 40.1878 348.202 46.2021C342.188 52.2164 337.417 59.3563 334.162 67.2144C330.907 75.0724 329.232 83.4945 329.232 92L302 92Z"/>
</mask>
<path d="M302 92C302 79.9184 304.38 67.9551 309.003 56.7931C313.627 45.6312 320.403 35.4892 328.946 26.9462C337.489 18.4032 347.631 11.6265 358.793 7.00308C369.955 2.37965 381.918 -1.58431e-06 394 0C406.082 1.58431e-06 418.045 2.37965 429.207 7.00309C440.369 11.6265 450.511 18.4032 459.054 26.9462C467.597 35.4892 474.373 45.6312 478.997 56.7931C483.62 67.9551 486 79.9184 486 92L458.768 92C458.768 83.4946 457.093 75.0724 453.838 67.2144C450.583 59.3564 445.812 52.2164 439.798 46.2021C433.784 40.1879 426.644 35.4171 418.786 32.1622C410.928 28.9073 402.505 27.232 394 27.232C385.495 27.232 377.072 28.9073 369.214 32.1622C361.356 35.4171 354.216 40.1878 348.202 46.2021C342.188 52.2164 337.417 59.3563 334.162 67.2144C330.907 75.0724 329.232 83.4945 329.232 92L302 92Z" fill="#107C10" stroke="white" stroke-width="4" mask="url(#path-4-inside-3_2_8100)"/>
<mask id="path-5-inside-4_2_8100" fill="white">
<path d="M302 92C302 67.6001 311.693 44.1995 328.946 26.9462C346.2 9.69283 369.6 -2.90966e-07 394 0L394 27.232C376.822 27.232 360.348 34.0558 348.202 46.2021C336.056 58.3485 329.232 74.8225 329.232 92L302 92Z"/>
</mask>
<path d="M302 92C302 67.6001 311.693 44.1995 328.946 26.9462C346.2 9.69283 369.6 -2.90966e-07 394 0L394 27.232C376.822 27.232 360.348 34.0558 348.202 46.2021C336.056 58.3485 329.232 74.8225 329.232 92L302 92Z" fill="#F2610C" stroke="white" stroke-width="4" mask="url(#path-5-inside-4_2_8100)"/>
<mask id="path-6-inside-5_2_8100" fill="white">
<path d="M302 92C302 70.3541 309.632 49.4013 323.555 32.8268L344.407 50.3421C334.605 62.0105 329.232 76.7613 329.232 92L302 92Z"/>
</mask>
<path d="M302 92C302 70.3541 309.632 49.4013 323.555 32.8268L344.407 50.3421C334.605 62.0105 329.232 76.7613 329.232 92L302 92Z" fill="#C50F1F" stroke="white" stroke-width="4" mask="url(#path-6-inside-5_2_8100)"/>
<path d="M433.773 39.3176L446.855 14.889C447.488 13.7058 447.096 12.2339 445.958 11.5227C444.82 10.8114 443.325 11.1043 442.539 12.1924L426.318 34.6587C424.825 36.7253 425.393 39.6232 427.555 40.974C429.717 42.3248 432.57 41.5647 433.773 39.3176Z" fill="#292929" stroke="white" stroke-width="2.31522"/>
<path d="M379.141 68.4062C378.203 70.125 377.318 71.8281 376.484 73.5156C375.651 75.1927 374.896 76.8802 374.219 78.5781C373.542 80.276 372.953 81.9896 372.453 83.7188C371.953 85.4375 371.568 87.1979 371.297 89H367.5C367.75 87.3958 368.104 85.7969 368.562 84.2031C369.031 82.599 369.578 81 370.203 79.4062C370.828 77.8021 371.526 76.1927 372.297 74.5781C373.078 72.9635 373.906 71.3333 374.781 69.6875H364.172V66.5938H379.141V68.4062ZM395.828 89H381.766V87.2656C381.766 86.5573 381.865 85.8958 382.062 85.2812C382.26 84.6562 382.526 84.0729 382.859 83.5312C383.193 82.9792 383.583 82.4635 384.031 81.9844C384.479 81.4948 384.958 81.026 385.469 80.5781C385.979 80.1198 386.5 79.6823 387.031 79.2656C387.562 78.8385 388.083 78.4115 388.594 77.9844C389.073 77.5781 389.51 77.1823 389.906 76.7969C390.302 76.401 390.641 75.9948 390.922 75.5781C391.203 75.1615 391.422 74.724 391.578 74.2656C391.734 73.7969 391.812 73.2917 391.812 72.75C391.812 72.1562 391.719 71.6406 391.531 71.2031C391.354 70.7552 391.099 70.3854 390.766 70.0938C390.443 69.7917 390.057 69.5677 389.609 69.4219C389.161 69.2656 388.672 69.1875 388.141 69.1875C387.224 69.1875 386.292 69.401 385.344 69.8281C384.396 70.2552 383.484 70.8958 382.609 71.75V68.2656C383.068 67.9219 383.531 67.625 384 67.375C384.469 67.1146 384.953 66.901 385.453 66.7344C385.953 66.5573 386.479 66.4271 387.031 66.3438C387.583 66.2604 388.172 66.2188 388.797 66.2188C389.807 66.2188 390.724 66.3542 391.547 66.625C392.37 66.8854 393.073 67.276 393.656 67.7969C394.24 68.3073 394.688 68.9479 395 69.7188C395.323 70.4896 395.484 71.375 395.484 72.375C395.484 73.2812 395.37 74.099 395.141 74.8281C394.922 75.5469 394.604 76.2188 394.188 76.8438C393.781 77.4688 393.286 78.0625 392.703 78.625C392.12 79.1875 391.469 79.7656 390.75 80.3594C390.146 80.849 389.542 81.3281 388.938 81.7969C388.344 82.2552 387.807 82.7083 387.328 83.1562C386.849 83.5938 386.458 84.0365 386.156 84.4844C385.865 84.9219 385.719 85.3646 385.719 85.8125V85.8906H395.828V89ZM404.516 77.8438C402.932 77.8438 401.672 77.3385 400.734 76.3281C399.797 75.3073 399.328 73.9479 399.328 72.25C399.328 70.3958 399.823 68.9375 400.812 67.875C401.812 66.8021 403.156 66.2656 404.844 66.2656C406.479 66.2656 407.745 66.7604 408.641 67.75C409.547 68.7396 410 70.1302 410 71.9219C410 73.7135 409.495 75.151 408.484 76.2344C407.474 77.3073 406.151 77.8438 404.516 77.8438ZM404.734 68.4531C403.88 68.4531 403.203 68.7812 402.703 69.4375C402.214 70.0938 401.969 70.9948 401.969 72.1406C401.969 73.2656 402.208 74.1406 402.688 74.7656C403.177 75.3906 403.844 75.7031 404.688 75.7031C405.531 75.7031 406.193 75.3802 406.672 74.7344C407.151 74.0781 407.391 73.1719 407.391 72.0156C407.391 70.8906 407.151 70.0156 406.672 69.3906C406.203 68.7656 405.557 68.4531 404.734 68.4531ZM419.688 66.5938L405.312 89.1562H403.078L417.438 66.5938H419.688ZM417.672 89.3438C416.089 89.3438 414.828 88.8385 413.891 87.8281C412.953 86.8073 412.484 85.4479 412.484 83.75C412.484 81.8958 412.979 80.4375 413.969 79.375C414.969 78.3021 416.312 77.7656 418 77.7656C419.635 77.7656 420.901 78.2604 421.797 79.25C422.703 80.2396 423.156 81.6302 423.156 83.4219C423.156 85.2135 422.651 86.651 421.641 87.7344C420.63 88.8073 419.307 89.3438 417.672 89.3438ZM417.891 79.9531C417.036 79.9531 416.359 80.2812 415.859 80.9375C415.37 81.5938 415.125 82.4948 415.125 83.6406C415.125 84.7656 415.365 85.6406 415.844 86.2656C416.333 86.8906 417 87.2031 417.844 87.2031C418.688 87.2031 419.349 86.8802 419.828 86.2344C420.307 85.5781 420.547 84.6719 420.547 83.5156C420.547 82.3906 420.307 81.5156 419.828 80.8906C419.359 80.2656 418.714 79.9531 417.891 79.9531Z" fill="#323130"/>
<path d="M493.604 78.4102V87H492.244V80.0742C491.998 80.25 491.732 80.4004 491.447 80.5254C491.166 80.6465 490.844 80.7539 490.48 80.8477V79.6875C490.707 79.6133 490.926 79.5352 491.137 79.4531C491.348 79.3711 491.555 79.2793 491.758 79.1777C491.965 79.0762 492.172 78.9629 492.379 78.8379C492.59 78.7129 492.807 78.5703 493.029 78.4102H493.604ZM498.068 87.1406C497.193 87.1406 496.51 86.7832 496.018 86.0684C495.529 85.3535 495.285 84.3203 495.285 82.9688C495.285 81.4844 495.541 80.3613 496.053 79.5996C496.564 78.8379 497.303 78.457 498.268 78.457C500.115 78.457 501.039 79.8926 501.039 82.7637C501.039 84.1855 500.777 85.2715 500.254 86.0215C499.734 86.7676 499.006 87.1406 498.068 87.1406ZM498.203 79.541C497.184 79.541 496.674 80.6641 496.674 82.9102C496.674 85.0117 497.174 86.0625 498.174 86.0625C499.158 86.0625 499.65 84.9941 499.65 82.8574C499.65 80.6465 499.168 79.541 498.203 79.541ZM504.736 87.1406C503.861 87.1406 503.178 86.7832 502.686 86.0684C502.197 85.3535 501.953 84.3203 501.953 82.9688C501.953 81.4844 502.209 80.3613 502.721 79.5996C503.232 78.8379 503.971 78.457 504.936 78.457C506.783 78.457 507.707 79.8926 507.707 82.7637C507.707 84.1855 507.445 85.2715 506.922 86.0215C506.402 86.7676 505.674 87.1406 504.736 87.1406ZM504.871 79.541C503.852 79.541 503.342 80.6641 503.342 82.9102C503.342 85.0117 503.842 86.0625 504.842 86.0625C505.826 86.0625 506.318 84.9941 506.318 82.8574C506.318 80.6465 505.836 79.541 504.871 79.541Z" fill="#323130"/>
<path d="M302.997 105.624C302.997 105.278 303.277 104.999 303.622 104.999H312.373C312.719 104.999 312.999 105.278 312.999 105.624V114.375C312.999 114.72 312.719 115 312.373 115H303.622C303.277 115 302.997 114.72 302.997 114.375V105.624Z" fill="#C50F1F"/>
<path d="M323.819 114.648C323.198 114.977 322.425 115.141 321.499 115.141C320.304 115.141 319.347 114.756 318.628 113.986C317.909 113.217 317.55 112.207 317.55 110.957C317.55 109.613 317.954 108.527 318.763 107.699C319.571 106.871 320.597 106.457 321.839 106.457C322.636 106.457 323.296 106.572 323.819 106.803V107.852C323.218 107.516 322.554 107.348 321.827 107.348C320.862 107.348 320.079 107.67 319.478 108.314C318.88 108.959 318.581 109.82 318.581 110.898C318.581 111.922 318.86 112.738 319.419 113.348C319.982 113.953 320.718 114.256 321.628 114.256C322.472 114.256 323.202 114.068 323.819 113.693V114.648ZM328.53 109.973C328.362 109.844 328.12 109.779 327.804 109.779C327.394 109.779 327.05 109.973 326.773 110.359C326.499 110.746 326.362 111.273 326.362 111.941V115H325.401V109H326.362V110.236H326.386C326.523 109.814 326.732 109.486 327.013 109.252C327.294 109.014 327.609 108.895 327.956 108.895C328.206 108.895 328.398 108.922 328.53 108.977V109.973ZM330.066 107.477C329.894 107.477 329.747 107.418 329.626 107.301C329.505 107.184 329.444 107.035 329.444 106.855C329.444 106.676 329.505 106.527 329.626 106.41C329.747 106.289 329.894 106.229 330.066 106.229C330.241 106.229 330.39 106.289 330.511 106.41C330.636 106.527 330.698 106.676 330.698 106.855C330.698 107.027 330.636 107.174 330.511 107.295C330.39 107.416 330.241 107.477 330.066 107.477ZM330.534 115H329.573V109H330.534V115ZM335.263 114.941C335.036 115.066 334.737 115.129 334.366 115.129C333.316 115.129 332.79 114.543 332.79 113.371V109.82H331.759V109H332.79V107.535L333.751 107.225V109H335.263V109.82H333.751V113.201C333.751 113.604 333.819 113.891 333.956 114.062C334.093 114.234 334.319 114.32 334.636 114.32C334.878 114.32 335.087 114.254 335.263 114.121V114.941ZM337.038 107.477C336.866 107.477 336.72 107.418 336.599 107.301C336.478 107.184 336.417 107.035 336.417 106.855C336.417 106.676 336.478 106.527 336.599 106.41C336.72 106.289 336.866 106.229 337.038 106.229C337.214 106.229 337.362 106.289 337.484 106.41C337.609 106.527 337.671 106.676 337.671 106.855C337.671 107.027 337.609 107.174 337.484 107.295C337.362 107.416 337.214 107.477 337.038 107.477ZM337.507 115H336.546V109H337.507V115ZM343.542 114.725C343.081 115.002 342.534 115.141 341.901 115.141C341.046 115.141 340.355 114.863 339.827 114.309C339.304 113.75 339.042 113.027 339.042 112.141C339.042 111.152 339.325 110.359 339.892 109.762C340.458 109.16 341.214 108.859 342.159 108.859C342.687 108.859 343.151 108.957 343.554 109.152V110.137C343.109 109.824 342.632 109.668 342.124 109.668C341.511 109.668 341.007 109.889 340.612 110.33C340.222 110.768 340.026 111.344 340.026 112.059C340.026 112.762 340.21 113.316 340.577 113.723C340.948 114.129 341.444 114.332 342.066 114.332C342.589 114.332 343.081 114.158 343.542 113.811V114.725ZM349.29 115H348.329V114.062H348.306C347.888 114.781 347.273 115.141 346.46 115.141C345.862 115.141 345.394 114.982 345.054 114.666C344.718 114.35 344.55 113.93 344.55 113.406C344.55 112.285 345.21 111.633 346.53 111.449L348.329 111.197C348.329 110.178 347.917 109.668 347.093 109.668C346.37 109.668 345.718 109.914 345.136 110.406V109.422C345.726 109.047 346.405 108.859 347.175 108.859C348.585 108.859 349.29 109.605 349.29 111.098V115ZM348.329 111.965L346.882 112.164C346.437 112.227 346.101 112.338 345.874 112.498C345.648 112.654 345.534 112.934 345.534 113.336C345.534 113.629 345.638 113.869 345.845 114.057C346.056 114.24 346.335 114.332 346.683 114.332C347.159 114.332 347.552 114.166 347.86 113.834C348.173 113.498 348.329 113.074 348.329 112.562V111.965ZM352.062 115H351.101V106.117H352.062V115Z" fill="#323130"/>
<path d="M369.999 105.624C369.999 105.278 370.278 104.999 370.624 104.999H379.375C379.72 104.999 380 105.278 380 105.624V114.375C380 114.72 379.72 115 379.375 115H370.624C370.278 115 369.999 114.72 369.999 114.375V105.624Z" fill="#F2610C"/>
<path d="M395.063 106.598L392.69 115H391.536L389.807 108.859C389.733 108.598 389.688 108.312 389.673 108.004H389.649C389.626 108.293 389.575 108.574 389.497 108.848L387.757 115H386.614L384.153 106.598H385.237L387.024 113.043C387.099 113.312 387.145 113.594 387.165 113.887H387.194C387.214 113.68 387.274 113.398 387.376 113.043L389.233 106.598H390.177L391.958 113.09C392.02 113.312 392.067 113.574 392.099 113.875H392.122C392.138 113.672 392.19 113.402 392.28 113.066L393.997 106.598H395.063ZM400.015 115H399.054V114.062H399.03C398.612 114.781 397.997 115.141 397.184 115.141C396.587 115.141 396.118 114.982 395.778 114.666C395.442 114.35 395.274 113.93 395.274 113.406C395.274 112.285 395.934 111.633 397.255 111.449L399.054 111.197C399.054 110.178 398.641 109.668 397.817 109.668C397.095 109.668 396.442 109.914 395.86 110.406V109.422C396.45 109.047 397.13 108.859 397.899 108.859C399.309 108.859 400.015 109.605 400.015 111.098V115ZM399.054 111.965L397.606 112.164C397.161 112.227 396.825 112.338 396.599 112.498C396.372 112.654 396.259 112.934 396.259 113.336C396.259 113.629 396.362 113.869 396.569 114.057C396.78 114.24 397.059 114.332 397.407 114.332C397.884 114.332 398.276 114.166 398.585 113.834C398.897 113.498 399.054 113.074 399.054 112.562V111.965ZM404.954 109.973C404.786 109.844 404.544 109.779 404.227 109.779C403.817 109.779 403.474 109.973 403.196 110.359C402.923 110.746 402.786 111.273 402.786 111.941V115H401.825V109H402.786V110.236H402.809C402.946 109.814 403.155 109.486 403.436 109.252C403.718 109.014 404.032 108.895 404.38 108.895C404.63 108.895 404.821 108.922 404.954 108.977V109.973ZM410.977 115H410.016V111.578C410.016 110.305 409.552 109.668 408.622 109.668C408.141 109.668 407.743 109.85 407.427 110.213C407.114 110.572 406.958 111.027 406.958 111.578V115H405.997V109H406.958V109.996H406.981C407.434 109.238 408.091 108.859 408.95 108.859C409.606 108.859 410.108 109.072 410.456 109.498C410.804 109.92 410.977 110.531 410.977 111.332V115ZM413.286 107.477C413.114 107.477 412.968 107.418 412.847 107.301C412.725 107.184 412.665 107.035 412.665 106.855C412.665 106.676 412.725 106.527 412.847 106.41C412.968 106.289 413.114 106.229 413.286 106.229C413.462 106.229 413.61 106.289 413.731 106.41C413.856 106.527 413.919 106.676 413.919 106.855C413.919 107.027 413.856 107.174 413.731 107.295C413.61 107.416 413.462 107.477 413.286 107.477ZM413.755 115H412.794V109H413.755V115ZM420.681 115H419.72V111.578C419.72 110.305 419.255 109.668 418.325 109.668C417.845 109.668 417.446 109.85 417.13 110.213C416.817 110.572 416.661 111.027 416.661 111.578V115H415.7V109H416.661V109.996H416.684C417.138 109.238 417.794 108.859 418.653 108.859C419.309 108.859 419.811 109.072 420.159 109.498C420.507 109.92 420.681 110.531 420.681 111.332V115ZM427.618 114.52C427.618 116.723 426.563 117.824 424.454 117.824C423.712 117.824 423.063 117.684 422.509 117.402V116.441C423.184 116.816 423.829 117.004 424.442 117.004C425.919 117.004 426.657 116.219 426.657 114.648V113.992H426.634C426.177 114.758 425.489 115.141 424.571 115.141C423.825 115.141 423.224 114.875 422.766 114.344C422.313 113.809 422.087 113.092 422.087 112.193C422.087 111.174 422.331 110.363 422.819 109.762C423.311 109.16 423.983 108.859 424.835 108.859C425.643 108.859 426.243 109.184 426.634 109.832H426.657V109H427.618V114.52ZM426.657 112.287V111.402C426.657 110.926 426.495 110.518 426.171 110.178C425.85 109.838 425.45 109.668 424.97 109.668C424.376 109.668 423.911 109.885 423.575 110.318C423.239 110.748 423.071 111.352 423.071 112.129C423.071 112.797 423.231 113.332 423.552 113.734C423.876 114.133 424.304 114.332 424.835 114.332C425.374 114.332 425.811 114.141 426.147 113.758C426.487 113.375 426.657 112.885 426.657 112.287Z" fill="#323130"/>
<path d="M445 105.624C445 105.278 445.28 104.999 445.625 104.999H454.377C454.722 104.999 455.002 105.278 455.002 105.624V114.375C455.002 114.72 454.722 115 454.377 115H445.625C445.28 115 445 114.72 445 114.375V105.624Z" fill="#107C10"/>
<path d="M466.878 115H465.67L461.346 108.303C461.237 108.135 461.147 107.959 461.077 107.775H461.042C461.073 107.955 461.088 108.34 461.088 108.93V115H460.104V106.598H461.381L465.588 113.189C465.764 113.463 465.878 113.65 465.928 113.752H465.952C465.913 113.51 465.893 113.098 465.893 112.516V106.598H466.878V115ZM471.46 115.141C470.573 115.141 469.864 114.861 469.333 114.303C468.805 113.74 468.542 112.996 468.542 112.07C468.542 111.062 468.817 110.275 469.368 109.709C469.919 109.143 470.663 108.859 471.6 108.859C472.495 108.859 473.192 109.135 473.692 109.686C474.196 110.236 474.448 111 474.448 111.977C474.448 112.934 474.176 113.701 473.633 114.279C473.094 114.854 472.37 115.141 471.46 115.141ZM471.53 109.668C470.913 109.668 470.424 109.879 470.065 110.301C469.706 110.719 469.526 111.297 469.526 112.035C469.526 112.746 469.708 113.307 470.071 113.717C470.434 114.127 470.92 114.332 471.53 114.332C472.151 114.332 472.628 114.131 472.96 113.729C473.295 113.326 473.463 112.754 473.463 112.012C473.463 111.262 473.295 110.684 472.96 110.277C472.628 109.871 472.151 109.668 471.53 109.668ZM482.405 109.973C482.237 109.844 481.995 109.779 481.678 109.779C481.268 109.779 480.924 109.973 480.647 110.359C480.374 110.746 480.237 111.273 480.237 111.941V115H479.276V109H480.237V110.236H480.26C480.397 109.814 480.606 109.486 480.887 109.252C481.169 109.014 481.483 108.895 481.831 108.895C482.081 108.895 482.272 108.922 482.405 108.977V109.973ZM483.94 107.477C483.768 107.477 483.622 107.418 483.501 107.301C483.379 107.184 483.319 107.035 483.319 106.855C483.319 106.676 483.379 106.527 483.501 106.41C483.622 106.289 483.768 106.229 483.94 106.229C484.116 106.229 484.264 106.289 484.385 106.41C484.51 106.527 484.573 106.676 484.573 106.855C484.573 107.027 484.51 107.174 484.385 107.295C484.264 107.416 484.116 107.477 483.94 107.477ZM484.409 115H483.448V109H484.409V115ZM485.991 114.783V113.752C486.514 114.139 487.09 114.332 487.719 114.332C488.563 114.332 488.985 114.051 488.985 113.488C488.985 113.328 488.948 113.193 488.874 113.084C488.803 112.971 488.706 112.871 488.581 112.785C488.46 112.699 488.315 112.623 488.147 112.557C487.983 112.486 487.805 112.414 487.614 112.34C487.348 112.234 487.114 112.129 486.911 112.023C486.711 111.914 486.544 111.793 486.407 111.66C486.274 111.523 486.172 111.369 486.102 111.197C486.036 111.025 486.003 110.824 486.003 110.594C486.003 110.312 486.067 110.064 486.196 109.85C486.325 109.631 486.497 109.449 486.711 109.305C486.926 109.156 487.17 109.045 487.444 108.971C487.721 108.896 488.006 108.859 488.299 108.859C488.819 108.859 489.284 108.949 489.694 109.129V110.102C489.253 109.812 488.745 109.668 488.17 109.668C487.991 109.668 487.829 109.689 487.684 109.732C487.54 109.771 487.415 109.828 487.309 109.902C487.208 109.977 487.128 110.066 487.069 110.172C487.014 110.273 486.987 110.387 486.987 110.512C486.987 110.668 487.014 110.799 487.069 110.904C487.128 111.01 487.211 111.104 487.321 111.186C487.43 111.268 487.563 111.342 487.719 111.408C487.876 111.475 488.053 111.547 488.253 111.625C488.518 111.727 488.756 111.832 488.967 111.941C489.178 112.047 489.358 112.168 489.506 112.305C489.655 112.438 489.768 112.592 489.846 112.768C489.928 112.943 489.969 113.152 489.969 113.395C489.969 113.691 489.903 113.949 489.77 114.168C489.641 114.387 489.467 114.568 489.249 114.713C489.03 114.857 488.778 114.965 488.493 115.035C488.208 115.105 487.909 115.141 487.596 115.141C486.979 115.141 486.444 115.021 485.991 114.783ZM496.432 115H495.085L492.436 112.117H492.413V115H491.452V106.117H492.413V111.748H492.436L494.956 109H496.215L493.432 111.895L496.432 115Z" fill="#323130"/>
</svg>
