<svg width="800" height="140" viewBox="0 0 800 140" fill="none" xmlns="http://www.w3.org/2000/svg">
<g clip-path="url(#clip0_2_8016)">
<path d="M231.367 5.48828H228.086V8.39453H231.121V9.2793H228.086V13H227.102V4.59766H231.367V5.48828ZM233.324 5.47656C233.152 5.47656 233.006 5.41797 232.885 5.30078C232.764 5.18359 232.703 5.03516 232.703 4.85547C232.703 4.67578 232.764 4.52734 232.885 4.41016C233.006 4.28906 233.152 4.22852 233.324 4.22852C233.5 4.22852 233.648 4.28906 233.77 4.41016C233.895 4.52734 233.957 4.67578 233.957 4.85547C233.957 5.02734 233.895 5.17383 233.77 5.29492C233.648 5.41602 233.5 5.47656 233.324 5.47656ZM233.793 13H232.832V7H233.793V13ZM238.867 7.97266C238.699 7.84375 238.457 7.7793 238.141 7.7793C237.73 7.7793 237.387 7.97266 237.109 8.35938C236.836 8.74609 236.699 9.27344 236.699 9.94141V13H235.738V7H236.699V8.23633H236.723C236.859 7.81445 237.068 7.48633 237.35 7.25195C237.631 7.01367 237.945 6.89453 238.293 6.89453C238.543 6.89453 238.734 6.92188 238.867 6.97656V7.97266ZM239.547 12.7832V11.752C240.07 12.1387 240.646 12.332 241.275 12.332C242.119 12.332 242.541 12.0508 242.541 11.4883C242.541 11.3281 242.504 11.1934 242.43 11.084C242.359 10.9707 242.262 10.8711 242.137 10.7852C242.016 10.6992 241.871 10.623 241.703 10.5566C241.539 10.4863 241.361 10.4141 241.17 10.3398C240.904 10.2344 240.67 10.1289 240.467 10.0234C240.268 9.91406 240.1 9.79297 239.963 9.66016C239.83 9.52344 239.729 9.36914 239.658 9.19727C239.592 9.02539 239.559 8.82422 239.559 8.59375C239.559 8.3125 239.623 8.06445 239.752 7.84961C239.881 7.63086 240.053 7.44922 240.268 7.30469C240.482 7.15625 240.727 7.04492 241 6.9707C241.277 6.89648 241.562 6.85938 241.855 6.85938C242.375 6.85938 242.84 6.94922 243.25 7.12891V8.10156C242.809 7.8125 242.301 7.66797 241.727 7.66797C241.547 7.66797 241.385 7.68945 241.24 7.73242C241.096 7.77148 240.971 7.82812 240.865 7.90234C240.764 7.97656 240.684 8.06641 240.625 8.17188C240.57 8.27344 240.543 8.38672 240.543 8.51172C240.543 8.66797 240.57 8.79883 240.625 8.9043C240.684 9.00977 240.768 9.10352 240.877 9.18555C240.986 9.26758 241.119 9.3418 241.275 9.4082C241.432 9.47461 241.609 9.54688 241.809 9.625C242.074 9.72656 242.312 9.83203 242.523 9.94141C242.734 10.0469 242.914 10.168 243.062 10.3047C243.211 10.4375 243.324 10.5918 243.402 10.7676C243.484 10.9434 243.525 11.1523 243.525 11.3945C243.525 11.6914 243.459 11.9492 243.326 12.168C243.197 12.3867 243.023 12.5684 242.805 12.7129C242.586 12.8574 242.334 12.9648 242.049 13.0352C241.764 13.1055 241.465 13.1406 241.152 13.1406C240.535 13.1406 240 13.0215 239.547 12.7832ZM247.791 12.9414C247.564 13.0664 247.266 13.1289 246.895 13.1289C245.844 13.1289 245.318 12.543 245.318 11.3711V7.82031H244.287V7H245.318V5.53516L246.279 5.22461V7H247.791V7.82031H246.279V11.2012C246.279 11.6035 246.348 11.8906 246.484 12.0625C246.621 12.2344 246.848 12.3203 247.164 12.3203C247.406 12.3203 247.615 12.2539 247.791 12.1211V12.9414Z" fill="#171717"/>
<path d="M563.604 4.41016V13H562.244V6.07422C561.998 6.25 561.732 6.40039 561.447 6.52539C561.166 6.64648 560.844 6.75391 560.48 6.84766V5.6875C560.707 5.61328 560.926 5.53516 561.137 5.45312C561.348 5.37109 561.555 5.2793 561.758 5.17773C561.965 5.07617 562.172 4.96289 562.379 4.83789C562.59 4.71289 562.807 4.57031 563.029 4.41016H563.604ZM568.068 13.1406C567.193 13.1406 566.51 12.7832 566.018 12.0684C565.529 11.3535 565.285 10.3203 565.285 8.96875C565.285 7.48438 565.541 6.36133 566.053 5.59961C566.564 4.83789 567.303 4.45703 568.268 4.45703C570.115 4.45703 571.039 5.89258 571.039 8.76367C571.039 10.1855 570.777 11.2715 570.254 12.0215C569.734 12.7676 569.006 13.1406 568.068 13.1406ZM568.203 5.54102C567.184 5.54102 566.674 6.66406 566.674 8.91016C566.674 11.0117 567.174 12.0625 568.174 12.0625C569.158 12.0625 569.65 10.9941 569.65 8.85742C569.65 6.64648 569.168 5.54102 568.203 5.54102Z" fill="#171717"/>
</g>
<g clip-path="url(#clip1_2_8016)">
<rect x="226" y="20" width="348" height="12" fill="#D9D9D9"/>
<path d="M226 20H266V32H226V20Z" fill="#00A892"/>
</g>
<g clip-path="url(#clip2_2_8016)">
<path d="M226.709 48.6602V47.5C226.842 47.6172 227 47.7227 227.184 47.8164C227.371 47.9102 227.566 47.9902 227.77 48.0566C227.977 48.1191 228.184 48.168 228.391 48.2031C228.598 48.2383 228.789 48.2559 228.965 48.2559C229.57 48.2559 230.021 48.1445 230.318 47.9219C230.619 47.6953 230.77 47.3711 230.77 46.9492C230.77 46.7227 230.719 46.5254 230.617 46.3574C230.52 46.1895 230.383 46.0371 230.207 45.9004C230.031 45.7598 229.822 45.627 229.58 45.502C229.342 45.373 229.084 45.2383 228.807 45.0977C228.514 44.9492 228.24 44.7988 227.986 44.6465C227.732 44.4941 227.512 44.3262 227.324 44.1426C227.137 43.959 226.988 43.752 226.879 43.5215C226.773 43.2871 226.721 43.0137 226.721 42.7012C226.721 42.3184 226.805 41.9863 226.973 41.7051C227.141 41.4199 227.361 41.1855 227.635 41.002C227.908 40.8184 228.219 40.6816 228.566 40.5918C228.918 40.502 229.275 40.457 229.639 40.457C230.467 40.457 231.07 40.5566 231.449 40.7559V41.8633C230.953 41.5195 230.316 41.3477 229.539 41.3477C229.324 41.3477 229.109 41.3711 228.895 41.418C228.68 41.4609 228.488 41.5332 228.32 41.6348C228.152 41.7363 228.016 41.8672 227.91 42.0273C227.805 42.1875 227.752 42.3828 227.752 42.6133C227.752 42.8281 227.791 43.0137 227.869 43.1699C227.951 43.3262 228.07 43.4688 228.227 43.5977C228.383 43.7266 228.572 43.8516 228.795 43.9727C229.021 44.0938 229.281 44.2266 229.574 44.3711C229.875 44.5195 230.16 44.6758 230.43 44.8398C230.699 45.0039 230.936 45.1855 231.139 45.3848C231.342 45.584 231.502 45.8047 231.619 46.0469C231.74 46.2891 231.801 46.5664 231.801 46.8789C231.801 47.293 231.719 47.6445 231.555 47.9336C231.395 48.2188 231.176 48.4512 230.898 48.6309C230.625 48.8105 230.309 48.9395 229.949 49.0176C229.59 49.0996 229.211 49.1406 228.812 49.1406C228.68 49.1406 228.516 49.1289 228.32 49.1055C228.125 49.0859 227.926 49.0547 227.723 49.0117C227.52 48.9727 227.326 48.9238 227.143 48.8652C226.963 48.8027 226.818 48.7344 226.709 48.6602ZM238.17 46.2402H233.934C233.949 46.9082 234.129 47.4238 234.473 47.7871C234.816 48.1504 235.289 48.332 235.891 48.332C236.566 48.332 237.188 48.1094 237.754 47.6641V48.5664C237.227 48.9492 236.529 49.1406 235.662 49.1406C234.814 49.1406 234.148 48.8691 233.664 48.3262C233.18 47.7793 232.938 47.0117 232.938 46.0234C232.938 45.0898 233.201 44.3301 233.729 43.7441C234.26 43.1543 234.918 42.8594 235.703 42.8594C236.488 42.8594 237.096 43.1133 237.525 43.6211C237.955 44.1289 238.17 44.834 238.17 45.7363V46.2402ZM237.186 45.4258C237.182 44.8711 237.047 44.4395 236.781 44.1309C236.52 43.8223 236.154 43.668 235.686 43.668C235.232 43.668 234.848 43.8301 234.531 44.1543C234.215 44.4785 234.02 44.9023 233.945 45.4258H237.186ZM243.719 48.7246C243.258 49.002 242.711 49.1406 242.078 49.1406C241.223 49.1406 240.531 48.8633 240.004 48.3086C239.48 47.75 239.219 47.0273 239.219 46.1406C239.219 45.1523 239.502 44.3594 240.068 43.7617C240.635 43.1602 241.391 42.8594 242.336 42.8594C242.863 42.8594 243.328 42.957 243.73 43.1523V44.1367C243.285 43.8242 242.809 43.668 242.301 43.668C241.688 43.668 241.184 43.8887 240.789 44.3301C240.398 44.7676 240.203 45.3438 240.203 46.0586C240.203 46.7617 240.387 47.3164 240.754 47.7227C241.125 48.1289 241.621 48.332 242.242 48.332C242.766 48.332 243.258 48.1582 243.719 47.8105V48.7246ZM247.68 49.1406C246.793 49.1406 246.084 48.8613 245.553 48.3027C245.025 47.7402 244.762 46.9961 244.762 46.0703C244.762 45.0625 245.037 44.2754 245.588 43.709C246.139 43.1426 246.883 42.8594 247.82 42.8594C248.715 42.8594 249.412 43.1348 249.912 43.6855C250.416 44.2363 250.668 45 250.668 45.9766C250.668 46.9336 250.396 47.7012 249.854 48.2793C249.314 48.8535 248.59 49.1406 247.68 49.1406ZM247.75 43.668C247.133 43.668 246.645 43.8789 246.285 44.3008C245.926 44.7188 245.746 45.2969 245.746 46.0352C245.746 46.7461 245.928 47.3066 246.291 47.7168C246.654 48.127 247.141 48.332 247.75 48.332C248.371 48.332 248.848 48.1309 249.18 47.7285C249.516 47.3262 249.684 46.7539 249.684 46.0117C249.684 45.2617 249.516 44.6836 249.18 44.2773C248.848 43.8711 248.371 43.668 247.75 43.668ZM257.184 49H256.223V45.5781C256.223 44.3047 255.758 43.668 254.828 43.668C254.348 43.668 253.949 43.8496 253.633 44.2129C253.32 44.5723 253.164 45.0273 253.164 45.5781V49H252.203V43H253.164V43.9961H253.188C253.641 43.2383 254.297 42.8594 255.156 42.8594C255.812 42.8594 256.314 43.0723 256.662 43.498C257.01 43.9199 257.184 44.5312 257.184 45.332V49ZM264.121 49H263.16V47.9805H263.137C262.691 48.7539 262.004 49.1406 261.074 49.1406C260.32 49.1406 259.717 48.873 259.264 48.3379C258.814 47.7988 258.59 47.0664 258.59 46.1406C258.59 45.1484 258.84 44.3535 259.34 43.7559C259.84 43.1582 260.506 42.8594 261.338 42.8594C262.162 42.8594 262.762 43.1836 263.137 43.832H263.16V40.1172H264.121V49ZM263.16 46.2871V45.4023C263.16 44.918 263 44.5078 262.68 44.1719C262.359 43.8359 261.953 43.668 261.461 43.668C260.875 43.668 260.414 43.8828 260.078 44.3125C259.742 44.7422 259.574 45.3359 259.574 46.0938C259.574 46.7852 259.734 47.332 260.055 47.7344C260.379 48.1328 260.812 48.332 261.355 48.332C261.891 48.332 262.324 48.1387 262.656 47.752C262.992 47.3652 263.16 46.877 263.16 46.2871Z" fill="#171717"/>
<path d="M563.848 49H558.574V48.3496C558.574 48.084 558.611 47.8359 558.686 47.6055C558.76 47.3711 558.859 47.1523 558.984 46.9492C559.109 46.7422 559.256 46.5488 559.424 46.3691C559.592 46.1855 559.771 46.0098 559.963 45.8418C560.154 45.6699 560.35 45.5059 560.549 45.3496C560.748 45.1895 560.943 45.0293 561.135 44.8691C561.314 44.7168 561.479 44.5684 561.627 44.4238C561.775 44.2754 561.902 44.123 562.008 43.9668C562.113 43.8105 562.195 43.6465 562.254 43.4746C562.312 43.2988 562.342 43.1094 562.342 42.9062C562.342 42.6836 562.307 42.4902 562.236 42.3262C562.17 42.1582 562.074 42.0195 561.949 41.9102C561.828 41.7969 561.684 41.7129 561.516 41.6582C561.348 41.5996 561.164 41.5703 560.965 41.5703C560.621 41.5703 560.271 41.6504 559.916 41.8105C559.561 41.9707 559.219 42.2109 558.891 42.5312V41.2246C559.062 41.0957 559.236 40.9844 559.412 40.8906C559.588 40.793 559.77 40.7129 559.957 40.6504C560.145 40.584 560.342 40.5352 560.549 40.5039C560.756 40.4727 560.977 40.457 561.211 40.457C561.59 40.457 561.934 40.5078 562.242 40.6094C562.551 40.707 562.814 40.8535 563.033 41.0488C563.252 41.2402 563.42 41.4805 563.537 41.7695C563.658 42.0586 563.719 42.3906 563.719 42.7656C563.719 43.1055 563.676 43.4121 563.59 43.6855C563.508 43.9551 563.389 44.207 563.232 44.4414C563.08 44.6758 562.895 44.8984 562.676 45.1094C562.457 45.3203 562.213 45.5371 561.943 45.7598C561.717 45.9434 561.49 46.123 561.264 46.2988C561.041 46.4707 560.84 46.6406 560.66 46.8086C560.48 46.9727 560.334 47.1387 560.221 47.3066C560.111 47.4707 560.057 47.6367 560.057 47.8047V47.834H563.848V49ZM567.908 49.1406C567.033 49.1406 566.35 48.7832 565.857 48.0684C565.369 47.3535 565.125 46.3203 565.125 44.9688C565.125 43.4844 565.381 42.3613 565.893 41.5996C566.404 40.8379 567.143 40.457 568.107 40.457C569.955 40.457 570.879 41.8926 570.879 44.7637C570.879 46.1855 570.617 47.2715 570.094 48.0215C569.574 48.7676 568.846 49.1406 567.908 49.1406ZM568.043 41.541C567.023 41.541 566.514 42.6641 566.514 44.9102C566.514 47.0117 567.014 48.0625 568.014 48.0625C568.998 48.0625 569.49 46.9941 569.49 44.8574C569.49 42.6465 569.008 41.541 568.043 41.541Z" fill="#171717"/>
</g>
<g clip-path="url(#clip3_2_8016)">
<rect x="226" y="56" width="348" height="12" fill="#D9D9D9"/>
<path d="M226 56H313V68H226V56Z" fill="#9A44FC"/>
</g>
<g clip-path="url(#clip4_2_8016)">
<path d="M232.07 77.4883H229.645V85H228.66V77.4883H226.24V76.5977H232.07V77.4883ZM238.246 85H237.285V81.543C237.285 80.293 236.82 79.668 235.891 79.668C235.422 79.668 235.027 79.8496 234.707 80.2129C234.387 80.5723 234.227 81.0352 234.227 81.6016V85H233.266V76.1172H234.227V79.9961H234.25C234.711 79.2383 235.367 78.8594 236.219 78.8594C237.57 78.8594 238.246 79.6738 238.246 81.3027V85ZM240.555 77.4766C240.383 77.4766 240.236 77.418 240.115 77.3008C239.994 77.1836 239.934 77.0352 239.934 76.8555C239.934 76.6758 239.994 76.5273 240.115 76.4102C240.236 76.2891 240.383 76.2285 240.555 76.2285C240.73 76.2285 240.879 76.2891 241 76.4102C241.125 76.5273 241.188 76.6758 241.188 76.8555C241.188 77.0273 241.125 77.1738 241 77.2949C240.879 77.416 240.73 77.4766 240.555 77.4766ZM241.023 85H240.062V79H241.023V85ZM246.098 79.9727C245.93 79.8438 245.688 79.7793 245.371 79.7793C244.961 79.7793 244.617 79.9727 244.34 80.3594C244.066 80.7461 243.93 81.2734 243.93 81.9414V85H242.969V79H243.93V80.2363H243.953C244.09 79.8145 244.299 79.4863 244.58 79.252C244.861 79.0137 245.176 78.8945 245.523 78.8945C245.773 78.8945 245.965 78.9219 246.098 78.9766V79.9727ZM252.262 85H251.301V83.9805H251.277C250.832 84.7539 250.145 85.1406 249.215 85.1406C248.461 85.1406 247.857 84.873 247.404 84.3379C246.955 83.7988 246.73 83.0664 246.73 82.1406C246.73 81.1484 246.98 80.3535 247.48 79.7559C247.98 79.1582 248.646 78.8594 249.479 78.8594C250.303 78.8594 250.902 79.1836 251.277 79.832H251.301V76.1172H252.262V85ZM251.301 82.2871V81.4023C251.301 80.918 251.141 80.5078 250.82 80.1719C250.5 79.8359 250.094 79.668 249.602 79.668C249.016 79.668 248.555 79.8828 248.219 80.3125C247.883 80.7422 247.715 81.3359 247.715 82.0938C247.715 82.7852 247.875 83.332 248.195 83.7344C248.52 84.1328 248.953 84.332 249.496 84.332C250.031 84.332 250.465 84.1387 250.797 83.752C251.133 83.3652 251.301 82.877 251.301 82.2871Z" fill="#171717"/>
<path d="M556.604 76.4102V85H555.244V78.0742C554.998 78.25 554.732 78.4004 554.447 78.5254C554.166 78.6465 553.844 78.7539 553.48 78.8477V77.6875C553.707 77.6133 553.926 77.5352 554.137 77.4531C554.348 77.3711 554.555 77.2793 554.758 77.1777C554.965 77.0762 555.172 76.9629 555.379 76.8379C555.59 76.7129 555.807 76.5703 556.029 76.4102H556.604ZM563.676 85H558.402V84.3496C558.402 84.084 558.439 83.8359 558.514 83.6055C558.588 83.3711 558.688 83.1523 558.812 82.9492C558.938 82.7422 559.084 82.5488 559.252 82.3691C559.42 82.1855 559.6 82.0098 559.791 81.8418C559.982 81.6699 560.178 81.5059 560.377 81.3496C560.576 81.1895 560.771 81.0293 560.963 80.8691C561.143 80.7168 561.307 80.5684 561.455 80.4238C561.604 80.2754 561.73 80.123 561.836 79.9668C561.941 79.8105 562.023 79.6465 562.082 79.4746C562.141 79.2988 562.17 79.1094 562.17 78.9062C562.17 78.6836 562.135 78.4902 562.064 78.3262C561.998 78.1582 561.902 78.0195 561.777 77.9102C561.656 77.7969 561.512 77.7129 561.344 77.6582C561.176 77.5996 560.992 77.5703 560.793 77.5703C560.449 77.5703 560.1 77.6504 559.744 77.8105C559.389 77.9707 559.047 78.2109 558.719 78.5312V77.2246C558.891 77.0957 559.064 76.9844 559.24 76.8906C559.416 76.793 559.598 76.7129 559.785 76.6504C559.973 76.584 560.17 76.5352 560.377 76.5039C560.584 76.4727 560.805 76.457 561.039 76.457C561.418 76.457 561.762 76.5078 562.07 76.6094C562.379 76.707 562.643 76.8535 562.861 77.0488C563.08 77.2402 563.248 77.4805 563.365 77.7695C563.486 78.0586 563.547 78.3906 563.547 78.7656C563.547 79.1055 563.504 79.4121 563.418 79.6855C563.336 79.9551 563.217 80.207 563.061 80.4414C562.908 80.6758 562.723 80.8984 562.504 81.1094C562.285 81.3203 562.041 81.5371 561.771 81.7598C561.545 81.9434 561.318 82.123 561.092 82.2988C560.869 82.4707 560.668 82.6406 560.488 82.8086C560.309 82.9727 560.162 83.1387 560.049 83.3066C559.939 83.4707 559.885 83.6367 559.885 83.8047V83.834H563.676V85ZM567.736 85.1406C566.861 85.1406 566.178 84.7832 565.686 84.0684C565.197 83.3535 564.953 82.3203 564.953 80.9688C564.953 79.4844 565.209 78.3613 565.721 77.5996C566.232 76.8379 566.971 76.457 567.936 76.457C569.783 76.457 570.707 77.8926 570.707 80.7637C570.707 82.1855 570.445 83.2715 569.922 84.0215C569.402 84.7676 568.674 85.1406 567.736 85.1406ZM567.871 77.541C566.852 77.541 566.342 78.6641 566.342 80.9102C566.342 83.0117 566.842 84.0625 567.842 84.0625C568.826 84.0625 569.318 82.9941 569.318 80.8574C569.318 78.6465 568.836 77.541 567.871 77.541Z" fill="#171717"/>
</g>
<g clip-path="url(#clip5_2_8016)">
<rect x="226" y="92" width="348" height="12" fill="#D9D9D9"/>
<path d="M226 92H574V104H226V92Z" fill="#3483FA"/>
</g>
<g clip-path="url(#clip6_2_8016)">
<path d="M231.367 113.488H228.086V116.395H231.121V117.279H228.086V121H227.102V112.598H231.367V113.488ZM235.34 121.141C234.453 121.141 233.744 120.861 233.213 120.303C232.686 119.74 232.422 118.996 232.422 118.07C232.422 117.062 232.697 116.275 233.248 115.709C233.799 115.143 234.543 114.859 235.48 114.859C236.375 114.859 237.072 115.135 237.572 115.686C238.076 116.236 238.328 117 238.328 117.977C238.328 118.934 238.057 119.701 237.514 120.279C236.975 120.854 236.25 121.141 235.34 121.141ZM235.41 115.668C234.793 115.668 234.305 115.879 233.945 116.301C233.586 116.719 233.406 117.297 233.406 118.035C233.406 118.746 233.588 119.307 233.951 119.717C234.314 120.127 234.801 120.332 235.41 120.332C236.031 120.332 236.508 120.131 236.84 119.729C237.176 119.326 237.344 118.754 237.344 118.012C237.344 117.262 237.176 116.684 236.84 116.277C236.508 115.871 236.031 115.668 235.41 115.668ZM244.715 121H243.754V120.051H243.73C243.332 120.777 242.715 121.141 241.879 121.141C240.449 121.141 239.734 120.289 239.734 118.586V115H240.689V118.434C240.689 119.699 241.174 120.332 242.143 120.332C242.611 120.332 242.996 120.16 243.297 119.816C243.602 119.469 243.754 119.016 243.754 118.457V115H244.715V121ZM249.789 115.973C249.621 115.844 249.379 115.779 249.062 115.779C248.652 115.779 248.309 115.973 248.031 116.359C247.758 116.746 247.621 117.273 247.621 117.941V121H246.66V115H247.621V116.236H247.645C247.781 115.814 247.99 115.486 248.271 115.252C248.553 115.014 248.867 114.895 249.215 114.895C249.465 114.895 249.656 114.922 249.789 114.977V115.973ZM253.615 120.941C253.389 121.066 253.09 121.129 252.719 121.129C251.668 121.129 251.143 120.543 251.143 119.371V115.82H250.111V115H251.143V113.535L252.104 113.225V115H253.615V115.82H252.104V119.201C252.104 119.604 252.172 119.891 252.309 120.062C252.445 120.234 252.672 120.32 252.988 120.32C253.23 120.32 253.439 120.254 253.615 120.121V120.941ZM259.879 121H258.918V117.543C258.918 116.293 258.453 115.668 257.523 115.668C257.055 115.668 256.66 115.85 256.34 116.213C256.02 116.572 255.859 117.035 255.859 117.602V121H254.898V112.117H255.859V115.996H255.883C256.344 115.238 257 114.859 257.852 114.859C259.203 114.859 259.879 115.674 259.879 117.303V121Z" fill="#171717"/>
<path d="M564.135 116.342C564.135 117.182 564.043 117.904 563.859 118.51C563.68 119.115 563.43 119.613 563.109 120.004C562.793 120.395 562.42 120.684 561.99 120.871C561.564 121.055 561.105 121.146 560.613 121.146C560.453 121.146 560.291 121.137 560.127 121.117C559.967 121.098 559.812 121.072 559.664 121.041C559.52 121.01 559.387 120.977 559.266 120.941C559.148 120.902 559.051 120.865 558.973 120.83V119.605C559.055 119.656 559.156 119.709 559.277 119.764C559.398 119.814 559.529 119.861 559.67 119.904C559.814 119.943 559.963 119.977 560.115 120.004C560.271 120.027 560.422 120.039 560.566 120.039C560.898 120.039 561.199 119.975 561.469 119.846C561.742 119.717 561.975 119.525 562.166 119.271C562.357 119.018 562.504 118.703 562.605 118.328C562.711 117.949 562.764 117.512 562.764 117.016H562.74C562.67 117.141 562.576 117.26 562.459 117.373C562.346 117.482 562.215 117.58 562.066 117.666C561.918 117.748 561.752 117.814 561.568 117.865C561.389 117.916 561.195 117.941 560.988 117.941C560.637 117.941 560.309 117.881 560.004 117.76C559.703 117.635 559.441 117.459 559.219 117.232C558.996 117.006 558.82 116.73 558.691 116.406C558.566 116.082 558.504 115.721 558.504 115.322C558.504 114.885 558.576 114.49 558.721 114.139C558.865 113.783 559.064 113.482 559.318 113.236C559.572 112.986 559.871 112.795 560.215 112.662C560.559 112.525 560.932 112.457 561.334 112.457C561.713 112.457 562.07 112.529 562.406 112.674C562.746 112.814 563.043 113.041 563.297 113.354C563.555 113.662 563.758 114.062 563.906 114.555C564.059 115.047 564.135 115.643 564.135 116.342ZM562.717 115.445C562.717 115.164 562.68 114.908 562.605 114.678C562.535 114.447 562.436 114.25 562.307 114.086C562.178 113.922 562.023 113.795 561.844 113.705C561.668 113.615 561.475 113.57 561.264 113.57C561.076 113.57 560.896 113.609 560.725 113.688C560.557 113.762 560.408 113.869 560.279 114.01C560.154 114.15 560.055 114.32 559.98 114.52C559.906 114.719 559.869 114.939 559.869 115.182C559.869 115.447 559.904 115.682 559.975 115.885C560.049 116.088 560.15 116.26 560.279 116.4C560.408 116.537 560.562 116.643 560.742 116.717C560.926 116.787 561.127 116.822 561.346 116.822C561.541 116.822 561.721 116.787 561.885 116.717C562.053 116.643 562.197 116.545 562.318 116.424C562.443 116.299 562.541 116.152 562.611 115.984C562.682 115.816 562.717 115.637 562.717 115.445ZM567.943 121.141C567.068 121.141 566.385 120.783 565.893 120.068C565.404 119.354 565.16 118.32 565.16 116.969C565.16 115.484 565.416 114.361 565.928 113.6C566.439 112.838 567.178 112.457 568.143 112.457C569.99 112.457 570.914 113.893 570.914 116.764C570.914 118.186 570.652 119.271 570.129 120.021C569.609 120.768 568.881 121.141 567.943 121.141ZM568.078 113.541C567.059 113.541 566.549 114.664 566.549 116.91C566.549 119.012 567.049 120.062 568.049 120.062C569.033 120.062 569.525 118.994 569.525 116.857C569.525 114.646 569.043 113.541 568.078 113.541Z" fill="#171717"/>
</g>
<g clip-path="url(#clip7_2_8016)">
<rect x="226" y="128" width="348" height="12" fill="#D9D9D9"/>
<path d="M226 128H537V140H226V128Z" fill="#EBA800"/>
</g>
<defs>
<clipPath id="clip0_2_8016">
<rect width="348" height="16" fill="white" transform="translate(226)"/>
</clipPath>
<clipPath id="clip1_2_8016">
<rect width="348" height="12" fill="white" transform="translate(226 20)"/>
</clipPath>
<clipPath id="clip2_2_8016">
<rect width="348" height="16" fill="white" transform="translate(226 36)"/>
</clipPath>
<clipPath id="clip3_2_8016">
<rect width="348" height="12" fill="white" transform="translate(226 56)"/>
</clipPath>
<clipPath id="clip4_2_8016">
<rect width="348" height="16" fill="white" transform="translate(226 72)"/>
</clipPath>
<clipPath id="clip5_2_8016">
<rect width="348" height="12" fill="white" transform="translate(226 92)"/>
</clipPath>
<clipPath id="clip6_2_8016">
<rect width="348" height="16" fill="white" transform="translate(226 108)"/>
</clipPath>
<clipPath id="clip7_2_8016">
<rect width="348" height="12" fill="white" transform="translate(226 128)"/>
</clipPath>
</defs>
</svg>
