<svg width="800" height="140" viewBox="0 0 800 140" fill="none" xmlns="http://www.w3.org/2000/svg">
<g clip-path="url(#clip0_2_8016)">
<path d="M13.3672 5.48828H10.0859V8.39453H13.1211V9.2793H10.0859V13H9.10156V4.59766H13.3672V5.48828ZM15.3242 5.47656C15.1523 5.47656 15.0059 5.41797 14.8848 5.30078C14.7637 5.18359 14.7031 5.03516 14.7031 4.85547C14.7031 4.67578 14.7637 4.52734 14.8848 4.41016C15.0059 4.28906 15.1523 4.22852 15.3242 4.22852C15.5 4.22852 15.6484 4.28906 15.7695 4.41016C15.8945 4.52734 15.957 4.67578 15.957 4.85547C15.957 5.02734 15.8945 5.17383 15.7695 5.29492C15.6484 5.41602 15.5 5.47656 15.3242 5.47656ZM15.793 13H14.832V7H15.793V13ZM20.8672 7.97266C20.6992 7.84375 20.457 7.7793 20.1406 7.7793C19.7305 7.7793 19.3867 7.97266 19.1094 8.35938C18.8359 8.74609 18.6992 9.27344 18.6992 9.94141V13H17.7383V7H18.6992V8.23633H18.7227C18.8594 7.81445 19.0684 7.48633 19.3496 7.25195C19.6309 7.01367 19.9453 6.89453 20.293 6.89453C20.543 6.89453 20.7344 6.92188 20.8672 6.97656V7.97266ZM21.5469 12.7832V11.752C22.0703 12.1387 22.6465 12.332 23.2754 12.332C24.1191 12.332 24.541 12.0508 24.541 11.4883C24.541 11.3281 24.5039 11.1934 24.4297 11.084C24.3594 10.9707 24.2617 10.8711 24.1367 10.7852C24.0156 10.6992 23.8711 10.623 23.7031 10.5566C23.5391 10.4863 23.3613 10.4141 23.1699 10.3398C22.9043 10.2344 22.6699 10.1289 22.4668 10.0234C22.2676 9.91406 22.0996 9.79297 21.9629 9.66016C21.8301 9.52344 21.7285 9.36914 21.6582 9.19727C21.5918 9.02539 21.5586 8.82422 21.5586 8.59375C21.5586 8.3125 21.623 8.06445 21.752 7.84961C21.8809 7.63086 22.0527 7.44922 22.2676 7.30469C22.4824 7.15625 22.7266 7.04492 23 6.9707C23.2773 6.89648 23.5625 6.85938 23.8555 6.85938C24.375 6.85938 24.8398 6.94922 25.25 7.12891V8.10156C24.8086 7.8125 24.3008 7.66797 23.7266 7.66797C23.5469 7.66797 23.3848 7.68945 23.2402 7.73242C23.0957 7.77148 22.9707 7.82812 22.8652 7.90234C22.7637 7.97656 22.6836 8.06641 22.625 8.17188C22.5703 8.27344 22.543 8.38672 22.543 8.51172C22.543 8.66797 22.5703 8.79883 22.625 8.9043C22.6836 9.00977 22.7676 9.10352 22.877 9.18555C22.9863 9.26758 23.1191 9.3418 23.2754 9.4082C23.4316 9.47461 23.6094 9.54688 23.8086 9.625C24.0742 9.72656 24.3125 9.83203 24.5234 9.94141C24.7344 10.0469 24.9141 10.168 25.0625 10.3047C25.2109 10.4375 25.3242 10.5918 25.4023 10.7676C25.4844 10.9434 25.5254 11.1523 25.5254 11.3945C25.5254 11.6914 25.459 11.9492 25.3262 12.168C25.1973 12.3867 25.0234 12.5684 24.8047 12.7129C24.5859 12.8574 24.334 12.9648 24.0488 13.0352C23.7637 13.1055 23.4648 13.1406 23.1523 13.1406C22.5352 13.1406 22 13.0215 21.5469 12.7832ZM29.791 12.9414C29.5645 13.0664 29.2656 13.1289 28.8945 13.1289C27.8438 13.1289 27.3184 12.543 27.3184 11.3711V7.82031H26.2871V7H27.3184V5.53516L28.2793 5.22461V7H29.791V7.82031H28.2793V11.2012C28.2793 11.6035 28.3477 11.8906 28.4844 12.0625C28.6211 12.2344 28.8477 12.3203 29.1641 12.3203C29.4062 12.3203 29.6152 12.2539 29.791 12.1211V12.9414Z" fill="#171717"/>
<path d="M754.604 4.41016V13H753.244V6.07422C752.998 6.25 752.732 6.40039 752.447 6.52539C752.166 6.64648 751.844 6.75391 751.48 6.84766V5.6875C751.707 5.61328 751.926 5.53516 752.137 5.45312C752.348 5.37109 752.555 5.2793 752.758 5.17773C752.965 5.07617 753.172 4.96289 753.379 4.83789C753.59 4.71289 753.807 4.57031 754.029 4.41016H754.604ZM759.068 13.1406C758.193 13.1406 757.51 12.7832 757.018 12.0684C756.529 11.3535 756.285 10.3203 756.285 8.96875C756.285 7.48438 756.541 6.36133 757.053 5.59961C757.564 4.83789 758.303 4.45703 759.268 4.45703C761.115 4.45703 762.039 5.89258 762.039 8.76367C762.039 10.1855 761.777 11.2715 761.254 12.0215C760.734 12.7676 760.006 13.1406 759.068 13.1406ZM759.203 5.54102C758.184 5.54102 757.674 6.66406 757.674 8.91016C757.674 11.0117 758.174 12.0625 759.174 12.0625C760.158 12.0625 760.65 10.9941 760.65 8.85742C760.65 6.64648 760.168 5.54102 759.203 5.54102Z" fill="#171717"/>
<path d="M768.764 4.59766L764.732 14.3945H763.836L767.855 4.59766H768.764Z" fill="#2C2C2C"/>
<path d="M774.242 13H773.281V5.74023C773.207 5.81445 773.098 5.90039 772.953 5.99805C772.812 6.0918 772.652 6.18555 772.473 6.2793C772.297 6.37305 772.109 6.46094 771.91 6.54297C771.715 6.625 771.523 6.68945 771.336 6.73633V5.76367C771.547 5.70508 771.77 5.62695 772.004 5.5293C772.242 5.42773 772.475 5.31641 772.701 5.19531C772.932 5.07031 773.148 4.94141 773.352 4.80859C773.555 4.67188 773.73 4.53906 773.879 4.41016H774.242V13ZM782.445 8.76367C782.445 9.4668 782.381 10.0898 782.252 10.6328C782.127 11.1758 781.943 11.6348 781.701 12.0098C781.463 12.3809 781.168 12.6641 780.816 12.8594C780.469 13.0508 780.072 13.1465 779.627 13.1465C779.205 13.1465 778.828 13.0547 778.496 12.8711C778.168 12.6836 777.891 12.4121 777.664 12.0566C777.438 11.7012 777.266 11.2656 777.148 10.75C777.031 10.2305 776.973 9.63672 776.973 8.96875C776.973 8.23438 777.033 7.58594 777.154 7.02344C777.279 6.46094 777.461 5.99023 777.699 5.61133C777.938 5.22852 778.232 4.94141 778.584 4.75C778.939 4.55469 779.346 4.45703 779.803 4.45703C781.564 4.45703 782.445 5.89258 782.445 8.76367ZM781.461 8.85742C781.461 6.4668 780.893 5.27148 779.756 5.27148C778.557 5.27148 777.957 6.48828 777.957 8.92188C777.957 11.1914 778.545 12.3262 779.721 12.3262C780.881 12.3262 781.461 11.1699 781.461 8.85742ZM788.914 8.76367C788.914 9.4668 788.85 10.0898 788.721 10.6328C788.596 11.1758 788.412 11.6348 788.17 12.0098C787.932 12.3809 787.637 12.6641 787.285 12.8594C786.938 13.0508 786.541 13.1465 786.096 13.1465C785.674 13.1465 785.297 13.0547 784.965 12.8711C784.637 12.6836 784.359 12.4121 784.133 12.0566C783.906 11.7012 783.734 11.2656 783.617 10.75C783.5 10.2305 783.441 9.63672 783.441 8.96875C783.441 8.23438 783.502 7.58594 783.623 7.02344C783.748 6.46094 783.93 5.99023 784.168 5.61133C784.406 5.22852 784.701 4.94141 785.053 4.75C785.408 4.55469 785.814 4.45703 786.271 4.45703C788.033 4.45703 788.914 5.89258 788.914 8.76367ZM787.93 8.85742C787.93 6.4668 787.361 5.27148 786.225 5.27148C785.025 5.27148 784.426 6.48828 784.426 8.92188C784.426 11.1914 785.014 12.3262 786.189 12.3262C787.35 12.3262 787.93 11.1699 787.93 8.85742Z" fill="#2C2C2C"/>
</g>
<g clip-path="url(#clip1_2_8016)">
<rect x="8" y="20" width="784" height="12" fill="#D9D9D9"/>
<mask id="path-6-outside-1_2_8016" maskUnits="userSpaceOnUse" x="8" y="20" width="478" height="12" fill="black">
<rect fill="white" x="8" y="20" width="478" height="12"/>
<path d="M8 20H484V32H8V20Z"/>
</mask>
<path d="M8 20H484V32H8V20Z" fill="#00A892"/>
<path d="M482 20V32H486V20H482Z" fill="white" mask="url(#path-6-outside-1_2_8016)"/>
</g>
<g clip-path="url(#clip2_2_8016)">
<path d="M8.70898 48.6602V47.5C8.8418 47.6172 9 47.7227 9.18359 47.8164C9.37109 47.9102 9.56641 47.9902 9.76953 48.0566C9.97656 48.1191 10.1836 48.168 10.3906 48.2031C10.5977 48.2383 10.7891 48.2559 10.9648 48.2559C11.5703 48.2559 12.0215 48.1445 12.3184 47.9219C12.6191 47.6953 12.7695 47.3711 12.7695 46.9492C12.7695 46.7227 12.7188 46.5254 12.6172 46.3574C12.5195 46.1895 12.3828 46.0371 12.207 45.9004C12.0312 45.7598 11.8223 45.627 11.5801 45.502C11.3418 45.373 11.084 45.2383 10.8066 45.0977C10.5137 44.9492 10.2402 44.7988 9.98633 44.6465C9.73242 44.4941 9.51172 44.3262 9.32422 44.1426C9.13672 43.959 8.98828 43.752 8.87891 43.5215C8.77344 43.2871 8.7207 43.0137 8.7207 42.7012C8.7207 42.3184 8.80469 41.9863 8.97266 41.7051C9.14062 41.4199 9.36133 41.1855 9.63477 41.002C9.9082 40.8184 10.2188 40.6816 10.5664 40.5918C10.918 40.502 11.2754 40.457 11.6387 40.457C12.4668 40.457 13.0703 40.5566 13.4492 40.7559V41.8633C12.9531 41.5195 12.3164 41.3477 11.5391 41.3477C11.3242 41.3477 11.1094 41.3711 10.8945 41.418C10.6797 41.4609 10.4883 41.5332 10.3203 41.6348C10.1523 41.7363 10.0156 41.8672 9.91016 42.0273C9.80469 42.1875 9.75195 42.3828 9.75195 42.6133C9.75195 42.8281 9.79102 43.0137 9.86914 43.1699C9.95117 43.3262 10.0703 43.4688 10.2266 43.5977C10.3828 43.7266 10.5723 43.8516 10.7949 43.9727C11.0215 44.0938 11.2812 44.2266 11.5742 44.3711C11.875 44.5195 12.1602 44.6758 12.4297 44.8398C12.6992 45.0039 12.9355 45.1855 13.1387 45.3848C13.3418 45.584 13.502 45.8047 13.6191 46.0469C13.7402 46.2891 13.8008 46.5664 13.8008 46.8789C13.8008 47.293 13.7188 47.6445 13.5547 47.9336C13.3945 48.2188 13.1758 48.4512 12.8984 48.6309C12.625 48.8105 12.3086 48.9395 11.9492 49.0176C11.5898 49.0996 11.2109 49.1406 10.8125 49.1406C10.6797 49.1406 10.5156 49.1289 10.3203 49.1055C10.125 49.0859 9.92578 49.0547 9.72266 49.0117C9.51953 48.9727 9.32617 48.9238 9.14258 48.8652C8.96289 48.8027 8.81836 48.7344 8.70898 48.6602ZM20.1699 46.2402H15.9336C15.9492 46.9082 16.1289 47.4238 16.4727 47.7871C16.8164 48.1504 17.2891 48.332 17.8906 48.332C18.5664 48.332 19.1875 48.1094 19.7539 47.6641V48.5664C19.2266 48.9492 18.5293 49.1406 17.6621 49.1406C16.8145 49.1406 16.1484 48.8691 15.6641 48.3262C15.1797 47.7793 14.9375 47.0117 14.9375 46.0234C14.9375 45.0898 15.2012 44.3301 15.7285 43.7441C16.2598 43.1543 16.918 42.8594 17.7031 42.8594C18.4883 42.8594 19.0957 43.1133 19.5254 43.6211C19.9551 44.1289 20.1699 44.834 20.1699 45.7363V46.2402ZM19.1855 45.4258C19.1816 44.8711 19.0469 44.4395 18.7812 44.1309C18.5195 43.8223 18.1543 43.668 17.6855 43.668C17.2324 43.668 16.8477 43.8301 16.5312 44.1543C16.2148 44.4785 16.0195 44.9023 15.9453 45.4258H19.1855ZM25.7188 48.7246C25.2578 49.002 24.7109 49.1406 24.0781 49.1406C23.2227 49.1406 22.5312 48.8633 22.0039 48.3086C21.4805 47.75 21.2188 47.0273 21.2188 46.1406C21.2188 45.1523 21.502 44.3594 22.0684 43.7617C22.6348 43.1602 23.3906 42.8594 24.3359 42.8594C24.8633 42.8594 25.3281 42.957 25.7305 43.1523V44.1367C25.2852 43.8242 24.8086 43.668 24.3008 43.668C23.6875 43.668 23.1836 43.8887 22.7891 44.3301C22.3984 44.7676 22.2031 45.3438 22.2031 46.0586C22.2031 46.7617 22.3867 47.3164 22.7539 47.7227C23.125 48.1289 23.6211 48.332 24.2422 48.332C24.7656 48.332 25.2578 48.1582 25.7188 47.8105V48.7246ZM29.6797 49.1406C28.793 49.1406 28.084 48.8613 27.5527 48.3027C27.0254 47.7402 26.7617 46.9961 26.7617 46.0703C26.7617 45.0625 27.0371 44.2754 27.5879 43.709C28.1387 43.1426 28.8828 42.8594 29.8203 42.8594C30.7148 42.8594 31.4121 43.1348 31.9121 43.6855C32.416 44.2363 32.668 45 32.668 45.9766C32.668 46.9336 32.3965 47.7012 31.8535 48.2793C31.3145 48.8535 30.5898 49.1406 29.6797 49.1406ZM29.75 43.668C29.1328 43.668 28.6445 43.8789 28.2852 44.3008C27.9258 44.7188 27.7461 45.2969 27.7461 46.0352C27.7461 46.7461 27.9277 47.3066 28.291 47.7168C28.6543 48.127 29.1406 48.332 29.75 48.332C30.3711 48.332 30.8477 48.1309 31.1797 47.7285C31.5156 47.3262 31.6836 46.7539 31.6836 46.0117C31.6836 45.2617 31.5156 44.6836 31.1797 44.2773C30.8477 43.8711 30.3711 43.668 29.75 43.668ZM39.1836 49H38.2227V45.5781C38.2227 44.3047 37.7578 43.668 36.8281 43.668C36.3477 43.668 35.9492 43.8496 35.6328 44.2129C35.3203 44.5723 35.1641 45.0273 35.1641 45.5781V49H34.2031V43H35.1641V43.9961H35.1875C35.6406 43.2383 36.2969 42.8594 37.1562 42.8594C37.8125 42.8594 38.3145 43.0723 38.6621 43.498C39.0098 43.9199 39.1836 44.5312 39.1836 45.332V49ZM46.1211 49H45.1602V47.9805H45.1367C44.6914 48.7539 44.0039 49.1406 43.0742 49.1406C42.3203 49.1406 41.7168 48.873 41.2637 48.3379C40.8145 47.7988 40.5898 47.0664 40.5898 46.1406C40.5898 45.1484 40.8398 44.3535 41.3398 43.7559C41.8398 43.1582 42.5059 42.8594 43.3379 42.8594C44.1621 42.8594 44.7617 43.1836 45.1367 43.832H45.1602V40.1172H46.1211V49ZM45.1602 46.2871V45.4023C45.1602 44.918 45 44.5078 44.6797 44.1719C44.3594 43.8359 43.9531 43.668 43.4609 43.668C42.875 43.668 42.4141 43.8828 42.0781 44.3125C41.7422 44.7422 41.5742 45.3359 41.5742 46.0938C41.5742 46.7852 41.7344 47.332 42.0547 47.7344C42.3789 48.1328 42.8125 48.332 43.3555 48.332C43.8906 48.332 44.3242 48.1387 44.6562 47.752C44.9922 47.3652 45.1602 46.877 45.1602 46.2871Z" fill="#171717"/>
<path d="M754.848 49H749.574V48.3496C749.574 48.084 749.611 47.8359 749.686 47.6055C749.76 47.3711 749.859 47.1523 749.984 46.9492C750.109 46.7422 750.256 46.5488 750.424 46.3691C750.592 46.1855 750.771 46.0098 750.963 45.8418C751.154 45.6699 751.35 45.5059 751.549 45.3496C751.748 45.1895 751.943 45.0293 752.135 44.8691C752.314 44.7168 752.479 44.5684 752.627 44.4238C752.775 44.2754 752.902 44.123 753.008 43.9668C753.113 43.8105 753.195 43.6465 753.254 43.4746C753.312 43.2988 753.342 43.1094 753.342 42.9062C753.342 42.6836 753.307 42.4902 753.236 42.3262C753.17 42.1582 753.074 42.0195 752.949 41.9102C752.828 41.7969 752.684 41.7129 752.516 41.6582C752.348 41.5996 752.164 41.5703 751.965 41.5703C751.621 41.5703 751.271 41.6504 750.916 41.8105C750.561 41.9707 750.219 42.2109 749.891 42.5312V41.2246C750.062 41.0957 750.236 40.9844 750.412 40.8906C750.588 40.793 750.77 40.7129 750.957 40.6504C751.145 40.584 751.342 40.5352 751.549 40.5039C751.756 40.4727 751.977 40.457 752.211 40.457C752.59 40.457 752.934 40.5078 753.242 40.6094C753.551 40.707 753.814 40.8535 754.033 41.0488C754.252 41.2402 754.42 41.4805 754.537 41.7695C754.658 42.0586 754.719 42.3906 754.719 42.7656C754.719 43.1055 754.676 43.4121 754.59 43.6855C754.508 43.9551 754.389 44.207 754.232 44.4414C754.08 44.6758 753.895 44.8984 753.676 45.1094C753.457 45.3203 753.213 45.5371 752.943 45.7598C752.717 45.9434 752.49 46.123 752.264 46.2988C752.041 46.4707 751.84 46.6406 751.66 46.8086C751.48 46.9727 751.334 47.1387 751.221 47.3066C751.111 47.4707 751.057 47.6367 751.057 47.8047V47.834H754.848V49ZM758.908 49.1406C758.033 49.1406 757.35 48.7832 756.857 48.0684C756.369 47.3535 756.125 46.3203 756.125 44.9688C756.125 43.4844 756.381 42.3613 756.893 41.5996C757.404 40.8379 758.143 40.457 759.107 40.457C760.955 40.457 761.879 41.8926 761.879 44.7637C761.879 46.1855 761.617 47.2715 761.094 48.0215C760.574 48.7676 759.846 49.1406 758.908 49.1406ZM759.043 41.541C758.023 41.541 757.514 42.6641 757.514 44.9102C757.514 47.0117 758.014 48.0625 759.014 48.0625C759.998 48.0625 760.49 46.9941 760.49 44.8574C760.49 42.6465 760.008 41.541 759.043 41.541Z" fill="#171717"/>
<path d="M768.764 40.5977L764.732 50.3945H763.836L767.855 40.5977H768.764Z" fill="#303030"/>
<path d="M774.242 49H773.281V41.7402C773.207 41.8145 773.098 41.9004 772.953 41.998C772.812 42.0918 772.652 42.1855 772.473 42.2793C772.297 42.373 772.109 42.4609 771.91 42.543C771.715 42.625 771.523 42.6895 771.336 42.7363V41.7637C771.547 41.7051 771.77 41.627 772.004 41.5293C772.242 41.4277 772.475 41.3164 772.701 41.1953C772.932 41.0703 773.148 40.9414 773.352 40.8086C773.555 40.6719 773.73 40.5391 773.879 40.4102H774.242V49ZM782.445 44.7637C782.445 45.4668 782.381 46.0898 782.252 46.6328C782.127 47.1758 781.943 47.6348 781.701 48.0098C781.463 48.3809 781.168 48.6641 780.816 48.8594C780.469 49.0508 780.072 49.1465 779.627 49.1465C779.205 49.1465 778.828 49.0547 778.496 48.8711C778.168 48.6836 777.891 48.4121 777.664 48.0566C777.438 47.7012 777.266 47.2656 777.148 46.75C777.031 46.2305 776.973 45.6367 776.973 44.9688C776.973 44.2344 777.033 43.5859 777.154 43.0234C777.279 42.4609 777.461 41.9902 777.699 41.6113C777.938 41.2285 778.232 40.9414 778.584 40.75C778.939 40.5547 779.346 40.457 779.803 40.457C781.564 40.457 782.445 41.8926 782.445 44.7637ZM781.461 44.8574C781.461 42.4668 780.893 41.2715 779.756 41.2715C778.557 41.2715 777.957 42.4883 777.957 44.9219C777.957 47.1914 778.545 48.3262 779.721 48.3262C780.881 48.3262 781.461 47.1699 781.461 44.8574ZM788.914 44.7637C788.914 45.4668 788.85 46.0898 788.721 46.6328C788.596 47.1758 788.412 47.6348 788.17 48.0098C787.932 48.3809 787.637 48.6641 787.285 48.8594C786.938 49.0508 786.541 49.1465 786.096 49.1465C785.674 49.1465 785.297 49.0547 784.965 48.8711C784.637 48.6836 784.359 48.4121 784.133 48.0566C783.906 47.7012 783.734 47.2656 783.617 46.75C783.5 46.2305 783.441 45.6367 783.441 44.9688C783.441 44.2344 783.502 43.5859 783.623 43.0234C783.748 42.4609 783.93 41.9902 784.168 41.6113C784.406 41.2285 784.701 40.9414 785.053 40.75C785.408 40.5547 785.814 40.457 786.271 40.457C788.033 40.457 788.914 41.8926 788.914 44.7637ZM787.93 44.8574C787.93 42.4668 787.361 41.2715 786.225 41.2715C785.025 41.2715 784.426 42.4883 784.426 44.9219C784.426 47.1914 785.014 48.3262 786.189 48.3262C787.35 48.3262 787.93 47.1699 787.93 44.8574Z" fill="#303030"/>
</g>
<g clip-path="url(#clip3_2_8016)">
<rect x="8" y="56" width="784" height="12" fill="#D9D9D9"/>
<mask id="path-13-outside-2_2_8016" maskUnits="userSpaceOnUse" x="8" y="56" width="525" height="12" fill="black">
<rect fill="white" x="8" y="56" width="525" height="12"/>
<path d="M8 56H531V68H8V56Z"/>
</mask>
<path d="M8 56H531V68H8V56Z" fill="#9A44FC"/>
<path d="M529 56V68H533V56H529Z" fill="white" mask="url(#path-13-outside-2_2_8016)"/>
</g>
<g clip-path="url(#clip4_2_8016)">
<path d="M14.0703 77.4883H11.6445V85H10.6602V77.4883H8.24023V76.5977H14.0703V77.4883ZM20.2461 85H19.2852V81.543C19.2852 80.293 18.8203 79.668 17.8906 79.668C17.4219 79.668 17.0273 79.8496 16.707 80.2129C16.3867 80.5723 16.2266 81.0352 16.2266 81.6016V85H15.2656V76.1172H16.2266V79.9961H16.25C16.7109 79.2383 17.3672 78.8594 18.2188 78.8594C19.5703 78.8594 20.2461 79.6738 20.2461 81.3027V85ZM22.5547 77.4766C22.3828 77.4766 22.2363 77.418 22.1152 77.3008C21.9941 77.1836 21.9336 77.0352 21.9336 76.8555C21.9336 76.6758 21.9941 76.5273 22.1152 76.4102C22.2363 76.2891 22.3828 76.2285 22.5547 76.2285C22.7305 76.2285 22.8789 76.2891 23 76.4102C23.125 76.5273 23.1875 76.6758 23.1875 76.8555C23.1875 77.0273 23.125 77.1738 23 77.2949C22.8789 77.416 22.7305 77.4766 22.5547 77.4766ZM23.0234 85H22.0625V79H23.0234V85ZM28.0977 79.9727C27.9297 79.8438 27.6875 79.7793 27.3711 79.7793C26.9609 79.7793 26.6172 79.9727 26.3398 80.3594C26.0664 80.7461 25.9297 81.2734 25.9297 81.9414V85H24.9688V79H25.9297V80.2363H25.9531C26.0898 79.8145 26.2988 79.4863 26.5801 79.252C26.8613 79.0137 27.1758 78.8945 27.5234 78.8945C27.7734 78.8945 27.9648 78.9219 28.0977 78.9766V79.9727ZM34.2617 85H33.3008V83.9805H33.2773C32.832 84.7539 32.1445 85.1406 31.2148 85.1406C30.4609 85.1406 29.8574 84.873 29.4043 84.3379C28.9551 83.7988 28.7305 83.0664 28.7305 82.1406C28.7305 81.1484 28.9805 80.3535 29.4805 79.7559C29.9805 79.1582 30.6465 78.8594 31.4785 78.8594C32.3027 78.8594 32.9023 79.1836 33.2773 79.832H33.3008V76.1172H34.2617V85ZM33.3008 82.2871V81.4023C33.3008 80.918 33.1406 80.5078 32.8203 80.1719C32.5 79.8359 32.0938 79.668 31.6016 79.668C31.0156 79.668 30.5547 79.8828 30.2188 80.3125C29.8828 80.7422 29.7148 81.3359 29.7148 82.0938C29.7148 82.7852 29.875 83.332 30.1953 83.7344C30.5195 84.1328 30.9531 84.332 31.4961 84.332C32.0312 84.332 32.4648 84.1387 32.7969 83.752C33.1328 83.3652 33.3008 82.877 33.3008 82.2871Z" fill="#171717"/>
<path d="M747.604 76.4102V85H746.244V78.0742C745.998 78.25 745.732 78.4004 745.447 78.5254C745.166 78.6465 744.844 78.7539 744.48 78.8477V77.6875C744.707 77.6133 744.926 77.5352 745.137 77.4531C745.348 77.3711 745.555 77.2793 745.758 77.1777C745.965 77.0762 746.172 76.9629 746.379 76.8379C746.59 76.7129 746.807 76.5703 747.029 76.4102H747.604ZM754.676 85H749.402V84.3496C749.402 84.084 749.439 83.8359 749.514 83.6055C749.588 83.3711 749.688 83.1523 749.812 82.9492C749.938 82.7422 750.084 82.5488 750.252 82.3691C750.42 82.1855 750.6 82.0098 750.791 81.8418C750.982 81.6699 751.178 81.5059 751.377 81.3496C751.576 81.1895 751.771 81.0293 751.963 80.8691C752.143 80.7168 752.307 80.5684 752.455 80.4238C752.604 80.2754 752.73 80.123 752.836 79.9668C752.941 79.8105 753.023 79.6465 753.082 79.4746C753.141 79.2988 753.17 79.1094 753.17 78.9062C753.17 78.6836 753.135 78.4902 753.064 78.3262C752.998 78.1582 752.902 78.0195 752.777 77.9102C752.656 77.7969 752.512 77.7129 752.344 77.6582C752.176 77.5996 751.992 77.5703 751.793 77.5703C751.449 77.5703 751.1 77.6504 750.744 77.8105C750.389 77.9707 750.047 78.2109 749.719 78.5312V77.2246C749.891 77.0957 750.064 76.9844 750.24 76.8906C750.416 76.793 750.598 76.7129 750.785 76.6504C750.973 76.584 751.17 76.5352 751.377 76.5039C751.584 76.4727 751.805 76.457 752.039 76.457C752.418 76.457 752.762 76.5078 753.07 76.6094C753.379 76.707 753.643 76.8535 753.861 77.0488C754.08 77.2402 754.248 77.4805 754.365 77.7695C754.486 78.0586 754.547 78.3906 754.547 78.7656C754.547 79.1055 754.504 79.4121 754.418 79.6855C754.336 79.9551 754.217 80.207 754.061 80.4414C753.908 80.6758 753.723 80.8984 753.504 81.1094C753.285 81.3203 753.041 81.5371 752.771 81.7598C752.545 81.9434 752.318 82.123 752.092 82.2988C751.869 82.4707 751.668 82.6406 751.488 82.8086C751.309 82.9727 751.162 83.1387 751.049 83.3066C750.939 83.4707 750.885 83.6367 750.885 83.8047V83.834H754.676V85ZM758.736 85.1406C757.861 85.1406 757.178 84.7832 756.686 84.0684C756.197 83.3535 755.953 82.3203 755.953 80.9688C755.953 79.4844 756.209 78.3613 756.721 77.5996C757.232 76.8379 757.971 76.457 758.936 76.457C760.783 76.457 761.707 77.8926 761.707 80.7637C761.707 82.1855 761.445 83.2715 760.922 84.0215C760.402 84.7676 759.674 85.1406 758.736 85.1406ZM758.871 77.541C757.852 77.541 757.342 78.6641 757.342 80.9102C757.342 83.0117 757.842 84.0625 758.842 84.0625C759.826 84.0625 760.318 82.9941 760.318 80.8574C760.318 78.6465 759.836 77.541 758.871 77.541Z" fill="#171717"/>
<path d="M768.764 76.5977L764.732 86.3945H763.836L767.855 76.5977H768.764Z" fill="#303030"/>
<path d="M774.242 85H773.281V77.7402C773.207 77.8145 773.098 77.9004 772.953 77.998C772.812 78.0918 772.652 78.1855 772.473 78.2793C772.297 78.373 772.109 78.4609 771.91 78.543C771.715 78.625 771.523 78.6895 771.336 78.7363V77.7637C771.547 77.7051 771.77 77.627 772.004 77.5293C772.242 77.4277 772.475 77.3164 772.701 77.1953C772.932 77.0703 773.148 76.9414 773.352 76.8086C773.555 76.6719 773.73 76.5391 773.879 76.4102H774.242V85ZM782.445 80.7637C782.445 81.4668 782.381 82.0898 782.252 82.6328C782.127 83.1758 781.943 83.6348 781.701 84.0098C781.463 84.3809 781.168 84.6641 780.816 84.8594C780.469 85.0508 780.072 85.1465 779.627 85.1465C779.205 85.1465 778.828 85.0547 778.496 84.8711C778.168 84.6836 777.891 84.4121 777.664 84.0566C777.438 83.7012 777.266 83.2656 777.148 82.75C777.031 82.2305 776.973 81.6367 776.973 80.9688C776.973 80.2344 777.033 79.5859 777.154 79.0234C777.279 78.4609 777.461 77.9902 777.699 77.6113C777.938 77.2285 778.232 76.9414 778.584 76.75C778.939 76.5547 779.346 76.457 779.803 76.457C781.564 76.457 782.445 77.8926 782.445 80.7637ZM781.461 80.8574C781.461 78.4668 780.893 77.2715 779.756 77.2715C778.557 77.2715 777.957 78.4883 777.957 80.9219C777.957 83.1914 778.545 84.3262 779.721 84.3262C780.881 84.3262 781.461 83.1699 781.461 80.8574ZM788.914 80.7637C788.914 81.4668 788.85 82.0898 788.721 82.6328C788.596 83.1758 788.412 83.6348 788.17 84.0098C787.932 84.3809 787.637 84.6641 787.285 84.8594C786.938 85.0508 786.541 85.1465 786.096 85.1465C785.674 85.1465 785.297 85.0547 784.965 84.8711C784.637 84.6836 784.359 84.4121 784.133 84.0566C783.906 83.7012 783.734 83.2656 783.617 82.75C783.5 82.2305 783.441 81.6367 783.441 80.9688C783.441 80.2344 783.502 79.5859 783.623 79.0234C783.748 78.4609 783.93 77.9902 784.168 77.6113C784.406 77.2285 784.701 76.9414 785.053 76.75C785.408 76.5547 785.814 76.457 786.271 76.457C788.033 76.457 788.914 77.8926 788.914 80.7637ZM787.93 80.8574C787.93 78.4668 787.361 77.2715 786.225 77.2715C785.025 77.2715 784.426 78.4883 784.426 80.9219C784.426 83.1914 785.014 84.3262 786.189 84.3262C787.35 84.3262 787.93 83.1699 787.93 80.8574Z" fill="#303030"/>
</g>
<g clip-path="url(#clip5_2_8016)">
<rect x="8" y="92" width="784" height="12" fill="#D9D9D9"/>
<mask id="path-20-outside-3_2_8016" maskUnits="userSpaceOnUse" x="8" y="92" width="786" height="12" fill="black">
<rect fill="white" x="8" y="92" width="786" height="12"/>
<path d="M8 92H792V104H8V92Z"/>
</mask>
<path d="M8 92H792V104H8V92Z" fill="#3483FA"/>
<path d="M790 92V104H794V92H790Z" fill="white" mask="url(#path-20-outside-3_2_8016)"/>
</g>
<g clip-path="url(#clip6_2_8016)">
<path d="M13.3672 113.488H10.0859V116.395H13.1211V117.279H10.0859V121H9.10156V112.598H13.3672V113.488ZM17.3398 121.141C16.4531 121.141 15.7441 120.861 15.2129 120.303C14.6855 119.74 14.4219 118.996 14.4219 118.07C14.4219 117.062 14.6973 116.275 15.248 115.709C15.7988 115.143 16.543 114.859 17.4805 114.859C18.375 114.859 19.0723 115.135 19.5723 115.686C20.0762 116.236 20.3281 117 20.3281 117.977C20.3281 118.934 20.0566 119.701 19.5137 120.279C18.9746 120.854 18.25 121.141 17.3398 121.141ZM17.4102 115.668C16.793 115.668 16.3047 115.879 15.9453 116.301C15.5859 116.719 15.4062 117.297 15.4062 118.035C15.4062 118.746 15.5879 119.307 15.9512 119.717C16.3145 120.127 16.8008 120.332 17.4102 120.332C18.0312 120.332 18.5078 120.131 18.8398 119.729C19.1758 119.326 19.3438 118.754 19.3438 118.012C19.3438 117.262 19.1758 116.684 18.8398 116.277C18.5078 115.871 18.0312 115.668 17.4102 115.668ZM26.7148 121H25.7539V120.051H25.7305C25.332 120.777 24.7148 121.141 23.8789 121.141C22.4492 121.141 21.7344 120.289 21.7344 118.586V115H22.6895V118.434C22.6895 119.699 23.1738 120.332 24.1426 120.332C24.6113 120.332 24.9961 120.16 25.2969 119.816C25.6016 119.469 25.7539 119.016 25.7539 118.457V115H26.7148V121ZM31.7891 115.973C31.6211 115.844 31.3789 115.779 31.0625 115.779C30.6523 115.779 30.3086 115.973 30.0312 116.359C29.7578 116.746 29.6211 117.273 29.6211 117.941V121H28.6602V115H29.6211V116.236H29.6445C29.7812 115.814 29.9902 115.486 30.2715 115.252C30.5527 115.014 30.8672 114.895 31.2148 114.895C31.4648 114.895 31.6562 114.922 31.7891 114.977V115.973ZM35.6152 120.941C35.3887 121.066 35.0898 121.129 34.7188 121.129C33.668 121.129 33.1426 120.543 33.1426 119.371V115.82H32.1113V115H33.1426V113.535L34.1035 113.225V115H35.6152V115.82H34.1035V119.201C34.1035 119.604 34.1719 119.891 34.3086 120.062C34.4453 120.234 34.6719 120.32 34.9883 120.32C35.2305 120.32 35.4395 120.254 35.6152 120.121V120.941ZM41.8789 121H40.918V117.543C40.918 116.293 40.4531 115.668 39.5234 115.668C39.0547 115.668 38.6602 115.85 38.3398 116.213C38.0195 116.572 37.8594 117.035 37.8594 117.602V121H36.8984V112.117H37.8594V115.996H37.8828C38.3438 115.238 39 114.859 39.8516 114.859C41.2031 114.859 41.8789 115.674 41.8789 117.303V121Z" fill="#171717"/>
<path d="M755.135 116.342C755.135 117.182 755.043 117.904 754.859 118.51C754.68 119.115 754.43 119.613 754.109 120.004C753.793 120.395 753.42 120.684 752.99 120.871C752.564 121.055 752.105 121.146 751.613 121.146C751.453 121.146 751.291 121.137 751.127 121.117C750.967 121.098 750.812 121.072 750.664 121.041C750.52 121.01 750.387 120.977 750.266 120.941C750.148 120.902 750.051 120.865 749.973 120.83V119.605C750.055 119.656 750.156 119.709 750.277 119.764C750.398 119.814 750.529 119.861 750.67 119.904C750.814 119.943 750.963 119.977 751.115 120.004C751.271 120.027 751.422 120.039 751.566 120.039C751.898 120.039 752.199 119.975 752.469 119.846C752.742 119.717 752.975 119.525 753.166 119.271C753.357 119.018 753.504 118.703 753.605 118.328C753.711 117.949 753.764 117.512 753.764 117.016H753.74C753.67 117.141 753.576 117.26 753.459 117.373C753.346 117.482 753.215 117.58 753.066 117.666C752.918 117.748 752.752 117.814 752.568 117.865C752.389 117.916 752.195 117.941 751.988 117.941C751.637 117.941 751.309 117.881 751.004 117.76C750.703 117.635 750.441 117.459 750.219 117.232C749.996 117.006 749.82 116.73 749.691 116.406C749.566 116.082 749.504 115.721 749.504 115.322C749.504 114.885 749.576 114.49 749.721 114.139C749.865 113.783 750.064 113.482 750.318 113.236C750.572 112.986 750.871 112.795 751.215 112.662C751.559 112.525 751.932 112.457 752.334 112.457C752.713 112.457 753.07 112.529 753.406 112.674C753.746 112.814 754.043 113.041 754.297 113.354C754.555 113.662 754.758 114.062 754.906 114.555C755.059 115.047 755.135 115.643 755.135 116.342ZM753.717 115.445C753.717 115.164 753.68 114.908 753.605 114.678C753.535 114.447 753.436 114.25 753.307 114.086C753.178 113.922 753.023 113.795 752.844 113.705C752.668 113.615 752.475 113.57 752.264 113.57C752.076 113.57 751.896 113.609 751.725 113.688C751.557 113.762 751.408 113.869 751.279 114.01C751.154 114.15 751.055 114.32 750.98 114.52C750.906 114.719 750.869 114.939 750.869 115.182C750.869 115.447 750.904 115.682 750.975 115.885C751.049 116.088 751.15 116.26 751.279 116.4C751.408 116.537 751.562 116.643 751.742 116.717C751.926 116.787 752.127 116.822 752.346 116.822C752.541 116.822 752.721 116.787 752.885 116.717C753.053 116.643 753.197 116.545 753.318 116.424C753.443 116.299 753.541 116.152 753.611 115.984C753.682 115.816 753.717 115.637 753.717 115.445ZM758.943 121.141C758.068 121.141 757.385 120.783 756.893 120.068C756.404 119.354 756.16 118.32 756.16 116.969C756.16 115.484 756.416 114.361 756.928 113.6C757.439 112.838 758.178 112.457 759.143 112.457C760.99 112.457 761.914 113.893 761.914 116.764C761.914 118.186 761.652 119.271 761.129 120.021C760.609 120.768 759.881 121.141 758.943 121.141ZM759.078 113.541C758.059 113.541 757.549 114.664 757.549 116.91C757.549 119.012 758.049 120.062 759.049 120.062C760.033 120.062 760.525 118.994 760.525 116.857C760.525 114.646 760.043 113.541 759.078 113.541Z" fill="#171717"/>
<path d="M768.764 112.598L764.732 122.395H763.836L767.855 112.598H768.764Z" fill="#303030"/>
<path d="M774.242 121H773.281V113.74C773.207 113.814 773.098 113.9 772.953 113.998C772.812 114.092 772.652 114.186 772.473 114.279C772.297 114.373 772.109 114.461 771.91 114.543C771.715 114.625 771.523 114.689 771.336 114.736V113.764C771.547 113.705 771.77 113.627 772.004 113.529C772.242 113.428 772.475 113.316 772.701 113.195C772.932 113.07 773.148 112.941 773.352 112.809C773.555 112.672 773.73 112.539 773.879 112.41H774.242V121ZM782.445 116.764C782.445 117.467 782.381 118.09 782.252 118.633C782.127 119.176 781.943 119.635 781.701 120.01C781.463 120.381 781.168 120.664 780.816 120.859C780.469 121.051 780.072 121.146 779.627 121.146C779.205 121.146 778.828 121.055 778.496 120.871C778.168 120.684 777.891 120.412 777.664 120.057C777.438 119.701 777.266 119.266 777.148 118.75C777.031 118.23 776.973 117.637 776.973 116.969C776.973 116.234 777.033 115.586 777.154 115.023C777.279 114.461 777.461 113.99 777.699 113.611C777.938 113.229 778.232 112.941 778.584 112.75C778.939 112.555 779.346 112.457 779.803 112.457C781.564 112.457 782.445 113.893 782.445 116.764ZM781.461 116.857C781.461 114.467 780.893 113.271 779.756 113.271C778.557 113.271 777.957 114.488 777.957 116.922C777.957 119.191 778.545 120.326 779.721 120.326C780.881 120.326 781.461 119.17 781.461 116.857ZM788.914 116.764C788.914 117.467 788.85 118.09 788.721 118.633C788.596 119.176 788.412 119.635 788.17 120.01C787.932 120.381 787.637 120.664 787.285 120.859C786.938 121.051 786.541 121.146 786.096 121.146C785.674 121.146 785.297 121.055 784.965 120.871C784.637 120.684 784.359 120.412 784.133 120.057C783.906 119.701 783.734 119.266 783.617 118.75C783.5 118.23 783.441 117.637 783.441 116.969C783.441 116.234 783.502 115.586 783.623 115.023C783.748 114.461 783.93 113.99 784.168 113.611C784.406 113.229 784.701 112.941 785.053 112.75C785.408 112.555 785.814 112.457 786.271 112.457C788.033 112.457 788.914 113.893 788.914 116.764ZM787.93 116.857C787.93 114.467 787.361 113.271 786.225 113.271C785.025 113.271 784.426 114.488 784.426 116.922C784.426 119.191 785.014 120.326 786.189 120.326C787.35 120.326 787.93 119.17 787.93 116.857Z" fill="#303030"/>
</g>
<g clip-path="url(#clip7_2_8016)">
<rect x="8" y="128" width="784" height="12" fill="#D9D9D9"/>
<mask id="path-27-outside-4_2_8016" maskUnits="userSpaceOnUse" x="8" y="128" width="749" height="12" fill="black">
<rect fill="white" x="8" y="128" width="749" height="12"/>
<path d="M8 128H755V140H8V128Z"/>
</mask>
<path d="M8 128H755V140H8V128Z" fill="#EBA800"/>
<path d="M753 128V140H757V128H753Z" fill="white" mask="url(#path-27-outside-4_2_8016)"/>
</g>
<defs>
<clipPath id="clip0_2_8016">
<rect width="784" height="16" fill="white" transform="translate(8)"/>
</clipPath>
<clipPath id="clip1_2_8016">
<rect width="784" height="12" fill="white" transform="translate(8 20)"/>
</clipPath>
<clipPath id="clip2_2_8016">
<rect width="784" height="16" fill="white" transform="translate(8 36)"/>
</clipPath>
<clipPath id="clip3_2_8016">
<rect width="784" height="12" fill="white" transform="translate(8 56)"/>
</clipPath>
<clipPath id="clip4_2_8016">
<rect width="784" height="16" fill="white" transform="translate(8 72)"/>
</clipPath>
<clipPath id="clip5_2_8016">
<rect width="784" height="12" fill="white" transform="translate(8 92)"/>
</clipPath>
<clipPath id="clip6_2_8016">
<rect width="784" height="16" fill="white" transform="translate(8 108)"/>
</clipPath>
<clipPath id="clip7_2_8016">
<rect width="784" height="12" fill="white" transform="translate(8 128)"/>
</clipPath>
</defs>
</svg>
