<svg width="800" height="169" viewBox="0 0 800 169" fill="none" xmlns="http://www.w3.org/2000/svg">
<rect width="800" height="169" fill="#FAFAFA"/>
<g clip-path="url(#clip0_2_8016)">
<path d="M13.3672 19.9883H10.0859V22.8945H13.1211V23.7793H10.0859V27.5H9.10156V19.0977H13.3672V19.9883ZM15.3242 19.9766C15.1523 19.9766 15.0059 19.918 14.8848 19.8008C14.7637 19.6836 14.7031 19.5352 14.7031 19.3555C14.7031 19.1758 14.7637 19.0273 14.8848 18.9102C15.0059 18.7891 15.1523 18.7285 15.3242 18.7285C15.5 18.7285 15.6484 18.7891 15.7695 18.9102C15.8945 19.0273 15.957 19.1758 15.957 19.3555C15.957 19.5273 15.8945 19.6738 15.7695 19.7949C15.6484 19.916 15.5 19.9766 15.3242 19.9766ZM15.793 27.5H14.832V21.5H15.793V27.5ZM20.8672 22.4727C20.6992 22.3438 20.457 22.2793 20.1406 22.2793C19.7305 22.2793 19.3867 22.4727 19.1094 22.8594C18.8359 23.2461 18.6992 23.7734 18.6992 24.4414V27.5H17.7383V21.5H18.6992V22.7363H18.7227C18.8594 22.3145 19.0684 21.9863 19.3496 21.752C19.6309 21.5137 19.9453 21.3945 20.293 21.3945C20.543 21.3945 20.7344 21.4219 20.8672 21.4766V22.4727ZM21.5469 27.2832V26.252C22.0703 26.6387 22.6465 26.832 23.2754 26.832C24.1191 26.832 24.541 26.5508 24.541 25.9883C24.541 25.8281 24.5039 25.6934 24.4297 25.584C24.3594 25.4707 24.2617 25.3711 24.1367 25.2852C24.0156 25.1992 23.8711 25.123 23.7031 25.0566C23.5391 24.9863 23.3613 24.9141 23.1699 24.8398C22.9043 24.7344 22.6699 24.6289 22.4668 24.5234C22.2676 24.4141 22.0996 24.293 21.9629 24.1602C21.8301 24.0234 21.7285 23.8691 21.6582 23.6973C21.5918 23.5254 21.5586 23.3242 21.5586 23.0938C21.5586 22.8125 21.623 22.5645 21.752 22.3496C21.8809 22.1309 22.0527 21.9492 22.2676 21.8047C22.4824 21.6562 22.7266 21.5449 23 21.4707C23.2773 21.3965 23.5625 21.3594 23.8555 21.3594C24.375 21.3594 24.8398 21.4492 25.25 21.6289V22.6016C24.8086 22.3125 24.3008 22.168 23.7266 22.168C23.5469 22.168 23.3848 22.1895 23.2402 22.2324C23.0957 22.2715 22.9707 22.3281 22.8652 22.4023C22.7637 22.4766 22.6836 22.5664 22.625 22.6719C22.5703 22.7734 22.543 22.8867 22.543 23.0117C22.543 23.168 22.5703 23.2988 22.625 23.4043C22.6836 23.5098 22.7676 23.6035 22.877 23.6855C22.9863 23.7676 23.1191 23.8418 23.2754 23.9082C23.4316 23.9746 23.6094 24.0469 23.8086 24.125C24.0742 24.2266 24.3125 24.332 24.5234 24.4414C24.7344 24.5469 24.9141 24.668 25.0625 24.8047C25.2109 24.9375 25.3242 25.0918 25.4023 25.2676C25.4844 25.4434 25.5254 25.6523 25.5254 25.8945C25.5254 26.1914 25.459 26.4492 25.3262 26.668C25.1973 26.8867 25.0234 27.0684 24.8047 27.2129C24.5859 27.3574 24.334 27.4648 24.0488 27.5352C23.7637 27.6055 23.4648 27.6406 23.1523 27.6406C22.5352 27.6406 22 27.5215 21.5469 27.2832ZM29.791 27.4414C29.5645 27.5664 29.2656 27.6289 28.8945 27.6289C27.8438 27.6289 27.3184 27.043 27.3184 25.8711V22.3203H26.2871V21.5H27.3184V20.0352L28.2793 19.7246V21.5H29.791V22.3203H28.2793V25.7012C28.2793 26.1035 28.3477 26.3906 28.4844 26.5625C28.6211 26.7344 28.8477 26.8203 29.1641 26.8203C29.4062 26.8203 29.6152 26.7539 29.791 26.6211V27.4414Z" fill="#171717"/>
<path d="M754.604 18.9102V27.5H753.244V20.5742C752.998 20.75 752.732 20.9004 752.447 21.0254C752.166 21.1465 751.844 21.2539 751.48 21.3477V20.1875C751.707 20.1133 751.926 20.0352 752.137 19.9531C752.348 19.8711 752.555 19.7793 752.758 19.6777C752.965 19.5762 753.172 19.4629 753.379 19.3379C753.59 19.2129 753.807 19.0703 754.029 18.9102H754.604ZM759.068 27.6406C758.193 27.6406 757.51 27.2832 757.018 26.5684C756.529 25.8535 756.285 24.8203 756.285 23.4688C756.285 21.9844 756.541 20.8613 757.053 20.0996C757.564 19.3379 758.303 18.957 759.268 18.957C761.115 18.957 762.039 20.3926 762.039 23.2637C762.039 24.6855 761.777 25.7715 761.254 26.5215C760.734 27.2676 760.006 27.6406 759.068 27.6406ZM759.203 20.041C758.184 20.041 757.674 21.1641 757.674 23.4102C757.674 25.5117 758.174 26.5625 759.174 26.5625C760.158 26.5625 760.65 25.4941 760.65 23.3574C760.65 21.1465 760.168 20.041 759.203 20.041Z" fill="#171717"/>
<path d="M768.764 19.0977L764.732 28.8945H763.836L767.855 19.0977H768.764Z" fill="#2C2C2C"/>
<path d="M774.242 27.5H773.281V20.2402C773.207 20.3145 773.098 20.4004 772.953 20.498C772.812 20.5918 772.652 20.6855 772.473 20.7793C772.297 20.873 772.109 20.9609 771.91 21.043C771.715 21.125 771.523 21.1895 771.336 21.2363V20.2637C771.547 20.2051 771.77 20.127 772.004 20.0293C772.242 19.9277 772.475 19.8164 772.701 19.6953C772.932 19.5703 773.148 19.4414 773.352 19.3086C773.555 19.1719 773.73 19.0391 773.879 18.9102H774.242V27.5ZM782.445 23.2637C782.445 23.9668 782.381 24.5898 782.252 25.1328C782.127 25.6758 781.943 26.1348 781.701 26.5098C781.463 26.8809 781.168 27.1641 780.816 27.3594C780.469 27.5508 780.072 27.6465 779.627 27.6465C779.205 27.6465 778.828 27.5547 778.496 27.3711C778.168 27.1836 777.891 26.9121 777.664 26.5566C777.438 26.2012 777.266 25.7656 777.148 25.25C777.031 24.7305 776.973 24.1367 776.973 23.4688C776.973 22.7344 777.033 22.0859 777.154 21.5234C777.279 20.9609 777.461 20.4902 777.699 20.1113C777.938 19.7285 778.232 19.4414 778.584 19.25C778.939 19.0547 779.346 18.957 779.803 18.957C781.564 18.957 782.445 20.3926 782.445 23.2637ZM781.461 23.3574C781.461 20.9668 780.893 19.7715 779.756 19.7715C778.557 19.7715 777.957 20.9883 777.957 23.4219C777.957 25.6914 778.545 26.8262 779.721 26.8262C780.881 26.8262 781.461 25.6699 781.461 23.3574ZM788.914 23.2637C788.914 23.9668 788.85 24.5898 788.721 25.1328C788.596 25.6758 788.412 26.1348 788.17 26.5098C787.932 26.8809 787.637 27.1641 787.285 27.3594C786.938 27.5508 786.541 27.6465 786.096 27.6465C785.674 27.6465 785.297 27.5547 784.965 27.3711C784.637 27.1836 784.359 26.9121 784.133 26.5566C783.906 26.2012 783.734 25.7656 783.617 25.25C783.5 24.7305 783.441 24.1367 783.441 23.4688C783.441 22.7344 783.502 22.0859 783.623 21.5234C783.748 20.9609 783.93 20.4902 784.168 20.1113C784.406 19.7285 784.701 19.4414 785.053 19.25C785.408 19.0547 785.814 18.957 786.271 18.957C788.033 18.957 788.914 20.3926 788.914 23.2637ZM787.93 23.3574C787.93 20.9668 787.361 19.7715 786.225 19.7715C785.025 19.7715 784.426 20.9883 784.426 23.4219C784.426 25.6914 785.014 26.8262 786.189 26.8262C787.35 26.8262 787.93 25.6699 787.93 23.3574Z" fill="#2C2C2C"/>
</g>
<g clip-path="url(#clip1_2_8016)">
<rect x="8" y="34.5" width="784" height="12" fill="#D9D9D9"/>
<mask id="path-6-outside-1_2_8016" maskUnits="userSpaceOnUse" x="8" y="34.5" width="478" height="12" fill="black">
<rect fill="white" x="8" y="34.5" width="478" height="12"/>
<path d="M8 34.5H484V46.5H8V34.5Z"/>
</mask>
<path d="M8 34.5H484V46.5H8V34.5Z" fill="#00A892"/>
<path d="M482 34.5V46.5H486V34.5H482Z" fill="white" mask="url(#path-6-outside-1_2_8016)"/>
</g>
<g clip-path="url(#clip2_2_8016)">
<path d="M8.70898 63.1602V62C8.8418 62.1172 9 62.2227 9.18359 62.3164C9.37109 62.4102 9.56641 62.4902 9.76953 62.5566C9.97656 62.6191 10.1836 62.668 10.3906 62.7031C10.5977 62.7383 10.7891 62.7559 10.9648 62.7559C11.5703 62.7559 12.0215 62.6445 12.3184 62.4219C12.6191 62.1953 12.7695 61.8711 12.7695 61.4492C12.7695 61.2227 12.7188 61.0254 12.6172 60.8574C12.5195 60.6895 12.3828 60.5371 12.207 60.4004C12.0312 60.2598 11.8223 60.127 11.5801 60.002C11.3418 59.873 11.084 59.7383 10.8066 59.5977C10.5137 59.4492 10.2402 59.2988 9.98633 59.1465C9.73242 58.9941 9.51172 58.8262 9.32422 58.6426C9.13672 58.459 8.98828 58.252 8.87891 58.0215C8.77344 57.7871 8.7207 57.5137 8.7207 57.2012C8.7207 56.8184 8.80469 56.4863 8.97266 56.2051C9.14062 55.9199 9.36133 55.6855 9.63477 55.502C9.9082 55.3184 10.2188 55.1816 10.5664 55.0918C10.918 55.002 11.2754 54.957 11.6387 54.957C12.4668 54.957 13.0703 55.0566 13.4492 55.2559V56.3633C12.9531 56.0195 12.3164 55.8477 11.5391 55.8477C11.3242 55.8477 11.1094 55.8711 10.8945 55.918C10.6797 55.9609 10.4883 56.0332 10.3203 56.1348C10.1523 56.2363 10.0156 56.3672 9.91016 56.5273C9.80469 56.6875 9.75195 56.8828 9.75195 57.1133C9.75195 57.3281 9.79102 57.5137 9.86914 57.6699C9.95117 57.8262 10.0703 57.9688 10.2266 58.0977C10.3828 58.2266 10.5723 58.3516 10.7949 58.4727C11.0215 58.5938 11.2812 58.7266 11.5742 58.8711C11.875 59.0195 12.1602 59.1758 12.4297 59.3398C12.6992 59.5039 12.9355 59.6855 13.1387 59.8848C13.3418 60.084 13.502 60.3047 13.6191 60.5469C13.7402 60.7891 13.8008 61.0664 13.8008 61.3789C13.8008 61.793 13.7188 62.1445 13.5547 62.4336C13.3945 62.7188 13.1758 62.9512 12.8984 63.1309C12.625 63.3105 12.3086 63.4395 11.9492 63.5176C11.5898 63.5996 11.2109 63.6406 10.8125 63.6406C10.6797 63.6406 10.5156 63.6289 10.3203 63.6055C10.125 63.5859 9.92578 63.5547 9.72266 63.5117C9.51953 63.4727 9.32617 63.4238 9.14258 63.3652C8.96289 63.3027 8.81836 63.2344 8.70898 63.1602ZM20.1699 60.7402H15.9336C15.9492 61.4082 16.1289 61.9238 16.4727 62.2871C16.8164 62.6504 17.2891 62.832 17.8906 62.832C18.5664 62.832 19.1875 62.6094 19.7539 62.1641V63.0664C19.2266 63.4492 18.5293 63.6406 17.6621 63.6406C16.8145 63.6406 16.1484 63.3691 15.6641 62.8262C15.1797 62.2793 14.9375 61.5117 14.9375 60.5234C14.9375 59.5898 15.2012 58.8301 15.7285 58.2441C16.2598 57.6543 16.918 57.3594 17.7031 57.3594C18.4883 57.3594 19.0957 57.6133 19.5254 58.1211C19.9551 58.6289 20.1699 59.334 20.1699 60.2363V60.7402ZM19.1855 59.9258C19.1816 59.3711 19.0469 58.9395 18.7812 58.6309C18.5195 58.3223 18.1543 58.168 17.6855 58.168C17.2324 58.168 16.8477 58.3301 16.5312 58.6543C16.2148 58.9785 16.0195 59.4023 15.9453 59.9258H19.1855ZM25.7188 63.2246C25.2578 63.502 24.7109 63.6406 24.0781 63.6406C23.2227 63.6406 22.5312 63.3633 22.0039 62.8086C21.4805 62.25 21.2188 61.5273 21.2188 60.6406C21.2188 59.6523 21.502 58.8594 22.0684 58.2617C22.6348 57.6602 23.3906 57.3594 24.3359 57.3594C24.8633 57.3594 25.3281 57.457 25.7305 57.6523V58.6367C25.2852 58.3242 24.8086 58.168 24.3008 58.168C23.6875 58.168 23.1836 58.3887 22.7891 58.8301C22.3984 59.2676 22.2031 59.8438 22.2031 60.5586C22.2031 61.2617 22.3867 61.8164 22.7539 62.2227C23.125 62.6289 23.6211 62.832 24.2422 62.832C24.7656 62.832 25.2578 62.6582 25.7188 62.3105V63.2246ZM29.6797 63.6406C28.793 63.6406 28.084 63.3613 27.5527 62.8027C27.0254 62.2402 26.7617 61.4961 26.7617 60.5703C26.7617 59.5625 27.0371 58.7754 27.5879 58.209C28.1387 57.6426 28.8828 57.3594 29.8203 57.3594C30.7148 57.3594 31.4121 57.6348 31.9121 58.1855C32.416 58.7363 32.668 59.5 32.668 60.4766C32.668 61.4336 32.3965 62.2012 31.8535 62.7793C31.3145 63.3535 30.5898 63.6406 29.6797 63.6406ZM29.75 58.168C29.1328 58.168 28.6445 58.3789 28.2852 58.8008C27.9258 59.2188 27.7461 59.7969 27.7461 60.5352C27.7461 61.2461 27.9277 61.8066 28.291 62.2168C28.6543 62.627 29.1406 62.832 29.75 62.832C30.3711 62.832 30.8477 62.6309 31.1797 62.2285C31.5156 61.8262 31.6836 61.2539 31.6836 60.5117C31.6836 59.7617 31.5156 59.1836 31.1797 58.7773C30.8477 58.3711 30.3711 58.168 29.75 58.168ZM39.1836 63.5H38.2227V60.0781C38.2227 58.8047 37.7578 58.168 36.8281 58.168C36.3477 58.168 35.9492 58.3496 35.6328 58.7129C35.3203 59.0723 35.1641 59.5273 35.1641 60.0781V63.5H34.2031V57.5H35.1641V58.4961H35.1875C35.6406 57.7383 36.2969 57.3594 37.1562 57.3594C37.8125 57.3594 38.3145 57.5723 38.6621 57.998C39.0098 58.4199 39.1836 59.0312 39.1836 59.832V63.5ZM46.1211 63.5H45.1602V62.4805H45.1367C44.6914 63.2539 44.0039 63.6406 43.0742 63.6406C42.3203 63.6406 41.7168 63.373 41.2637 62.8379C40.8145 62.2988 40.5898 61.5664 40.5898 60.6406C40.5898 59.6484 40.8398 58.8535 41.3398 58.2559C41.8398 57.6582 42.5059 57.3594 43.3379 57.3594C44.1621 57.3594 44.7617 57.6836 45.1367 58.332H45.1602V54.6172H46.1211V63.5ZM45.1602 60.7871V59.9023C45.1602 59.418 45 59.0078 44.6797 58.6719C44.3594 58.3359 43.9531 58.168 43.4609 58.168C42.875 58.168 42.4141 58.3828 42.0781 58.8125C41.7422 59.2422 41.5742 59.8359 41.5742 60.5938C41.5742 61.2852 41.7344 61.832 42.0547 62.2344C42.3789 62.6328 42.8125 62.832 43.3555 62.832C43.8906 62.832 44.3242 62.6387 44.6562 62.252C44.9922 61.8652 45.1602 61.377 45.1602 60.7871Z" fill="#171717"/>
<path d="M754.848 63.5H749.574V62.8496C749.574 62.584 749.611 62.3359 749.686 62.1055C749.76 61.8711 749.859 61.6523 749.984 61.4492C750.109 61.2422 750.256 61.0488 750.424 60.8691C750.592 60.6855 750.771 60.5098 750.963 60.3418C751.154 60.1699 751.35 60.0059 751.549 59.8496C751.748 59.6895 751.943 59.5293 752.135 59.3691C752.314 59.2168 752.479 59.0684 752.627 58.9238C752.775 58.7754 752.902 58.623 753.008 58.4668C753.113 58.3105 753.195 58.1465 753.254 57.9746C753.312 57.7988 753.342 57.6094 753.342 57.4062C753.342 57.1836 753.307 56.9902 753.236 56.8262C753.17 56.6582 753.074 56.5195 752.949 56.4102C752.828 56.2969 752.684 56.2129 752.516 56.1582C752.348 56.0996 752.164 56.0703 751.965 56.0703C751.621 56.0703 751.271 56.1504 750.916 56.3105C750.561 56.4707 750.219 56.7109 749.891 57.0312V55.7246C750.062 55.5957 750.236 55.4844 750.412 55.3906C750.588 55.293 750.77 55.2129 750.957 55.1504C751.145 55.084 751.342 55.0352 751.549 55.0039C751.756 54.9727 751.977 54.957 752.211 54.957C752.59 54.957 752.934 55.0078 753.242 55.1094C753.551 55.207 753.814 55.3535 754.033 55.5488C754.252 55.7402 754.42 55.9805 754.537 56.2695C754.658 56.5586 754.719 56.8906 754.719 57.2656C754.719 57.6055 754.676 57.9121 754.59 58.1855C754.508 58.4551 754.389 58.707 754.232 58.9414C754.08 59.1758 753.895 59.3984 753.676 59.6094C753.457 59.8203 753.213 60.0371 752.943 60.2598C752.717 60.4434 752.49 60.623 752.264 60.7988C752.041 60.9707 751.84 61.1406 751.66 61.3086C751.48 61.4727 751.334 61.6387 751.221 61.8066C751.111 61.9707 751.057 62.1367 751.057 62.3047V62.334H754.848V63.5ZM758.908 63.6406C758.033 63.6406 757.35 63.2832 756.857 62.5684C756.369 61.8535 756.125 60.8203 756.125 59.4688C756.125 57.9844 756.381 56.8613 756.893 56.0996C757.404 55.3379 758.143 54.957 759.107 54.957C760.955 54.957 761.879 56.3926 761.879 59.2637C761.879 60.6855 761.617 61.7715 761.094 62.5215C760.574 63.2676 759.846 63.6406 758.908 63.6406ZM759.043 56.041C758.023 56.041 757.514 57.1641 757.514 59.4102C757.514 61.5117 758.014 62.5625 759.014 62.5625C759.998 62.5625 760.49 61.4941 760.49 59.3574C760.49 57.1465 760.008 56.041 759.043 56.041Z" fill="#171717"/>
<path d="M768.764 55.0977L764.732 64.8945H763.836L767.855 55.0977H768.764Z" fill="#303030"/>
<path d="M774.242 63.5H773.281V56.2402C773.207 56.3145 773.098 56.4004 772.953 56.498C772.812 56.5918 772.652 56.6855 772.473 56.7793C772.297 56.873 772.109 56.9609 771.91 57.043C771.715 57.125 771.523 57.1895 771.336 57.2363V56.2637C771.547 56.2051 771.77 56.127 772.004 56.0293C772.242 55.9277 772.475 55.8164 772.701 55.6953C772.932 55.5703 773.148 55.4414 773.352 55.3086C773.555 55.1719 773.73 55.0391 773.879 54.9102H774.242V63.5ZM782.445 59.2637C782.445 59.9668 782.381 60.5898 782.252 61.1328C782.127 61.6758 781.943 62.1348 781.701 62.5098C781.463 62.8809 781.168 63.1641 780.816 63.3594C780.469 63.5508 780.072 63.6465 779.627 63.6465C779.205 63.6465 778.828 63.5547 778.496 63.3711C778.168 63.1836 777.891 62.9121 777.664 62.5566C777.438 62.2012 777.266 61.7656 777.148 61.25C777.031 60.7305 776.973 60.1367 776.973 59.4688C776.973 58.7344 777.033 58.0859 777.154 57.5234C777.279 56.9609 777.461 56.4902 777.699 56.1113C777.938 55.7285 778.232 55.4414 778.584 55.25C778.939 55.0547 779.346 54.957 779.803 54.957C781.564 54.957 782.445 56.3926 782.445 59.2637ZM781.461 59.3574C781.461 56.9668 780.893 55.7715 779.756 55.7715C778.557 55.7715 777.957 56.9883 777.957 59.4219C777.957 61.6914 778.545 62.8262 779.721 62.8262C780.881 62.8262 781.461 61.6699 781.461 59.3574ZM788.914 59.2637C788.914 59.9668 788.85 60.5898 788.721 61.1328C788.596 61.6758 788.412 62.1348 788.17 62.5098C787.932 62.8809 787.637 63.1641 787.285 63.3594C786.938 63.5508 786.541 63.6465 786.096 63.6465C785.674 63.6465 785.297 63.5547 784.965 63.3711C784.637 63.1836 784.359 62.9121 784.133 62.5566C783.906 62.2012 783.734 61.7656 783.617 61.25C783.5 60.7305 783.441 60.1367 783.441 59.4688C783.441 58.7344 783.502 58.0859 783.623 57.5234C783.748 56.9609 783.93 56.4902 784.168 56.1113C784.406 55.7285 784.701 55.4414 785.053 55.25C785.408 55.0547 785.814 54.957 786.271 54.957C788.033 54.957 788.914 56.3926 788.914 59.2637ZM787.93 59.3574C787.93 56.9668 787.361 55.7715 786.225 55.7715C785.025 55.7715 784.426 56.9883 784.426 59.4219C784.426 61.6914 785.014 62.8262 786.189 62.8262C787.35 62.8262 787.93 61.6699 787.93 59.3574Z" fill="#303030"/>
</g>
<g clip-path="url(#clip3_2_8016)">
<rect x="8" y="70.5" width="784" height="12" fill="#D9D9D9"/>
<mask id="path-13-outside-2_2_8016" maskUnits="userSpaceOnUse" x="8" y="70.5" width="525" height="12" fill="black">
<rect fill="white" x="8" y="70.5" width="525" height="12"/>
<path d="M8 70.5H531V82.5H8V70.5Z"/>
</mask>
<path d="M8 70.5H531V82.5H8V70.5Z" fill="#9A44FC"/>
<path d="M529 70.5V82.5H533V70.5H529Z" fill="white" mask="url(#path-13-outside-2_2_8016)"/>
</g>
<g clip-path="url(#clip4_2_8016)">
<path d="M14.0703 91.9883H11.6445V99.5H10.6602V91.9883H8.24023V91.0977H14.0703V91.9883ZM20.2461 99.5H19.2852V96.043C19.2852 94.793 18.8203 94.168 17.8906 94.168C17.4219 94.168 17.0273 94.3496 16.707 94.7129C16.3867 95.0723 16.2266 95.5352 16.2266 96.1016V99.5H15.2656V90.6172H16.2266V94.4961H16.25C16.7109 93.7383 17.3672 93.3594 18.2188 93.3594C19.5703 93.3594 20.2461 94.1738 20.2461 95.8027V99.5ZM22.5547 91.9766C22.3828 91.9766 22.2363 91.918 22.1152 91.8008C21.9941 91.6836 21.9336 91.5352 21.9336 91.3555C21.9336 91.1758 21.9941 91.0273 22.1152 90.9102C22.2363 90.7891 22.3828 90.7285 22.5547 90.7285C22.7305 90.7285 22.8789 90.7891 23 90.9102C23.125 91.0273 23.1875 91.1758 23.1875 91.3555C23.1875 91.5273 23.125 91.6738 23 91.7949C22.8789 91.916 22.7305 91.9766 22.5547 91.9766ZM23.0234 99.5H22.0625V93.5H23.0234V99.5ZM28.0977 94.4727C27.9297 94.3438 27.6875 94.2793 27.3711 94.2793C26.9609 94.2793 26.6172 94.4727 26.3398 94.8594C26.0664 95.2461 25.9297 95.7734 25.9297 96.4414V99.5H24.9688V93.5H25.9297V94.7363H25.9531C26.0898 94.3145 26.2988 93.9863 26.5801 93.752C26.8613 93.5137 27.1758 93.3945 27.5234 93.3945C27.7734 93.3945 27.9648 93.4219 28.0977 93.4766V94.4727ZM34.2617 99.5H33.3008V98.4805H33.2773C32.832 99.2539 32.1445 99.6406 31.2148 99.6406C30.4609 99.6406 29.8574 99.373 29.4043 98.8379C28.9551 98.2988 28.7305 97.5664 28.7305 96.6406C28.7305 95.6484 28.9805 94.8535 29.4805 94.2559C29.9805 93.6582 30.6465 93.3594 31.4785 93.3594C32.3027 93.3594 32.9023 93.6836 33.2773 94.332H33.3008V90.6172H34.2617V99.5ZM33.3008 96.7871V95.9023C33.3008 95.418 33.1406 95.0078 32.8203 94.6719C32.5 94.3359 32.0938 94.168 31.6016 94.168C31.0156 94.168 30.5547 94.3828 30.2188 94.8125C29.8828 95.2422 29.7148 95.8359 29.7148 96.5938C29.7148 97.2852 29.875 97.832 30.1953 98.2344C30.5195 98.6328 30.9531 98.832 31.4961 98.832C32.0312 98.832 32.4648 98.6387 32.7969 98.252C33.1328 97.8652 33.3008 97.377 33.3008 96.7871Z" fill="#171717"/>
<path d="M747.604 90.9102V99.5H746.244V92.5742C745.998 92.75 745.732 92.9004 745.447 93.0254C745.166 93.1465 744.844 93.2539 744.48 93.3477V92.1875C744.707 92.1133 744.926 92.0352 745.137 91.9531C745.348 91.8711 745.555 91.7793 745.758 91.6777C745.965 91.5762 746.172 91.4629 746.379 91.3379C746.59 91.2129 746.807 91.0703 747.029 90.9102H747.604ZM754.676 99.5H749.402V98.8496C749.402 98.584 749.439 98.3359 749.514 98.1055C749.588 97.8711 749.688 97.6523 749.812 97.4492C749.938 97.2422 750.084 97.0488 750.252 96.8691C750.42 96.6855 750.6 96.5098 750.791 96.3418C750.982 96.1699 751.178 96.0059 751.377 95.8496C751.576 95.6895 751.771 95.5293 751.963 95.3691C752.143 95.2168 752.307 95.0684 752.455 94.9238C752.604 94.7754 752.73 94.623 752.836 94.4668C752.941 94.3105 753.023 94.1465 753.082 93.9746C753.141 93.7988 753.17 93.6094 753.17 93.4062C753.17 93.1836 753.135 92.9902 753.064 92.8262C752.998 92.6582 752.902 92.5195 752.777 92.4102C752.656 92.2969 752.512 92.2129 752.344 92.1582C752.176 92.0996 751.992 92.0703 751.793 92.0703C751.449 92.0703 751.1 92.1504 750.744 92.3105C750.389 92.4707 750.047 92.7109 749.719 93.0312V91.7246C749.891 91.5957 750.064 91.4844 750.24 91.3906C750.416 91.293 750.598 91.2129 750.785 91.1504C750.973 91.084 751.17 91.0352 751.377 91.0039C751.584 90.9727 751.805 90.957 752.039 90.957C752.418 90.957 752.762 91.0078 753.07 91.1094C753.379 91.207 753.643 91.3535 753.861 91.5488C754.08 91.7402 754.248 91.9805 754.365 92.2695C754.486 92.5586 754.547 92.8906 754.547 93.2656C754.547 93.6055 754.504 93.9121 754.418 94.1855C754.336 94.4551 754.217 94.707 754.061 94.9414C753.908 95.1758 753.723 95.3984 753.504 95.6094C753.285 95.8203 753.041 96.0371 752.771 96.2598C752.545 96.4434 752.318 96.623 752.092 96.7988C751.869 96.9707 751.668 97.1406 751.488 97.3086C751.309 97.4727 751.162 97.6387 751.049 97.8066C750.939 97.9707 750.885 98.1367 750.885 98.3047V98.334H754.676V99.5ZM758.736 99.6406C757.861 99.6406 757.178 99.2832 756.686 98.5684C756.197 97.8535 755.953 96.8203 755.953 95.4688C755.953 93.9844 756.209 92.8613 756.721 92.0996C757.232 91.3379 757.971 90.957 758.936 90.957C760.783 90.957 761.707 92.3926 761.707 95.2637C761.707 96.6855 761.445 97.7715 760.922 98.5215C760.402 99.2676 759.674 99.6406 758.736 99.6406ZM758.871 92.041C757.852 92.041 757.342 93.1641 757.342 95.4102C757.342 97.5117 757.842 98.5625 758.842 98.5625C759.826 98.5625 760.318 97.4941 760.318 95.3574C760.318 93.1465 759.836 92.041 758.871 92.041Z" fill="#171717"/>
<path d="M768.764 91.0977L764.732 100.895H763.836L767.855 91.0977H768.764Z" fill="#303030"/>
<path d="M774.242 99.5H773.281V92.2402C773.207 92.3145 773.098 92.4004 772.953 92.498C772.812 92.5918 772.652 92.6855 772.473 92.7793C772.297 92.873 772.109 92.9609 771.91 93.043C771.715 93.125 771.523 93.1895 771.336 93.2363V92.2637C771.547 92.2051 771.77 92.127 772.004 92.0293C772.242 91.9277 772.475 91.8164 772.701 91.6953C772.932 91.5703 773.148 91.4414 773.352 91.3086C773.555 91.1719 773.73 91.0391 773.879 90.9102H774.242V99.5ZM782.445 95.2637C782.445 95.9668 782.381 96.5898 782.252 97.1328C782.127 97.6758 781.943 98.1348 781.701 98.5098C781.463 98.8809 781.168 99.1641 780.816 99.3594C780.469 99.5508 780.072 99.6465 779.627 99.6465C779.205 99.6465 778.828 99.5547 778.496 99.3711C778.168 99.1836 777.891 98.9121 777.664 98.5566C777.438 98.2012 777.266 97.7656 777.148 97.25C777.031 96.7305 776.973 96.1367 776.973 95.4688C776.973 94.7344 777.033 94.0859 777.154 93.5234C777.279 92.9609 777.461 92.4902 777.699 92.1113C777.938 91.7285 778.232 91.4414 778.584 91.25C778.939 91.0547 779.346 90.957 779.803 90.957C781.564 90.957 782.445 92.3926 782.445 95.2637ZM781.461 95.3574C781.461 92.9668 780.893 91.7715 779.756 91.7715C778.557 91.7715 777.957 92.9883 777.957 95.4219C777.957 97.6914 778.545 98.8262 779.721 98.8262C780.881 98.8262 781.461 97.6699 781.461 95.3574ZM788.914 95.2637C788.914 95.9668 788.85 96.5898 788.721 97.1328C788.596 97.6758 788.412 98.1348 788.17 98.5098C787.932 98.8809 787.637 99.1641 787.285 99.3594C786.938 99.5508 786.541 99.6465 786.096 99.6465C785.674 99.6465 785.297 99.5547 784.965 99.3711C784.637 99.1836 784.359 98.9121 784.133 98.5566C783.906 98.2012 783.734 97.7656 783.617 97.25C783.5 96.7305 783.441 96.1367 783.441 95.4688C783.441 94.7344 783.502 94.0859 783.623 93.5234C783.748 92.9609 783.93 92.4902 784.168 92.1113C784.406 91.7285 784.701 91.4414 785.053 91.25C785.408 91.0547 785.814 90.957 786.271 90.957C788.033 90.957 788.914 92.3926 788.914 95.2637ZM787.93 95.3574C787.93 92.9668 787.361 91.7715 786.225 91.7715C785.025 91.7715 784.426 92.9883 784.426 95.4219C784.426 97.6914 785.014 98.8262 786.189 98.8262C787.35 98.8262 787.93 97.6699 787.93 95.3574Z" fill="#303030"/>
</g>
<g clip-path="url(#clip5_2_8016)">
<rect x="8" y="106.5" width="784" height="12" fill="#D9D9D9"/>
<mask id="path-20-outside-3_2_8016" maskUnits="userSpaceOnUse" x="8" y="106.5" width="786" height="12" fill="black">
<rect fill="white" x="8" y="106.5" width="786" height="12"/>
<path d="M8 106.5H792V118.5H8V106.5Z"/>
</mask>
<path d="M8 106.5H792V118.5H8V106.5Z" fill="#3483FA"/>
<path d="M790 106.5V118.5H794V106.5H790Z" fill="white" mask="url(#path-20-outside-3_2_8016)"/>
</g>
<g clip-path="url(#clip6_2_8016)">
<path d="M13.3672 127.988H10.0859V130.895H13.1211V131.779H10.0859V135.5H9.10156V127.098H13.3672V127.988ZM17.3398 135.641C16.4531 135.641 15.7441 135.361 15.2129 134.803C14.6855 134.24 14.4219 133.496 14.4219 132.57C14.4219 131.562 14.6973 130.775 15.248 130.209C15.7988 129.643 16.543 129.359 17.4805 129.359C18.375 129.359 19.0723 129.635 19.5723 130.186C20.0762 130.736 20.3281 131.5 20.3281 132.477C20.3281 133.434 20.0566 134.201 19.5137 134.779C18.9746 135.354 18.25 135.641 17.3398 135.641ZM17.4102 130.168C16.793 130.168 16.3047 130.379 15.9453 130.801C15.5859 131.219 15.4062 131.797 15.4062 132.535C15.4062 133.246 15.5879 133.807 15.9512 134.217C16.3145 134.627 16.8008 134.832 17.4102 134.832C18.0312 134.832 18.5078 134.631 18.8398 134.229C19.1758 133.826 19.3438 133.254 19.3438 132.512C19.3438 131.762 19.1758 131.184 18.8398 130.777C18.5078 130.371 18.0312 130.168 17.4102 130.168ZM26.7148 135.5H25.7539V134.551H25.7305C25.332 135.277 24.7148 135.641 23.8789 135.641C22.4492 135.641 21.7344 134.789 21.7344 133.086V129.5H22.6895V132.934C22.6895 134.199 23.1738 134.832 24.1426 134.832C24.6113 134.832 24.9961 134.66 25.2969 134.316C25.6016 133.969 25.7539 133.516 25.7539 132.957V129.5H26.7148V135.5ZM31.7891 130.473C31.6211 130.344 31.3789 130.279 31.0625 130.279C30.6523 130.279 30.3086 130.473 30.0312 130.859C29.7578 131.246 29.6211 131.773 29.6211 132.441V135.5H28.6602V129.5H29.6211V130.736H29.6445C29.7812 130.314 29.9902 129.986 30.2715 129.752C30.5527 129.514 30.8672 129.395 31.2148 129.395C31.4648 129.395 31.6562 129.422 31.7891 129.477V130.473ZM35.6152 135.441C35.3887 135.566 35.0898 135.629 34.7188 135.629C33.668 135.629 33.1426 135.043 33.1426 133.871V130.32H32.1113V129.5H33.1426V128.035L34.1035 127.725V129.5H35.6152V130.32H34.1035V133.701C34.1035 134.104 34.1719 134.391 34.3086 134.562C34.4453 134.734 34.6719 134.82 34.9883 134.82C35.2305 134.82 35.4395 134.754 35.6152 134.621V135.441ZM41.8789 135.5H40.918V132.043C40.918 130.793 40.4531 130.168 39.5234 130.168C39.0547 130.168 38.6602 130.35 38.3398 130.713C38.0195 131.072 37.8594 131.535 37.8594 132.102V135.5H36.8984V126.617H37.8594V130.496H37.8828C38.3438 129.738 39 129.359 39.8516 129.359C41.2031 129.359 41.8789 130.174 41.8789 131.803V135.5Z" fill="#171717"/>
<path d="M755.135 130.842C755.135 131.682 755.043 132.404 754.859 133.01C754.68 133.615 754.43 134.113 754.109 134.504C753.793 134.895 753.42 135.184 752.99 135.371C752.564 135.555 752.105 135.646 751.613 135.646C751.453 135.646 751.291 135.637 751.127 135.617C750.967 135.598 750.812 135.572 750.664 135.541C750.52 135.51 750.387 135.477 750.266 135.441C750.148 135.402 750.051 135.365 749.973 135.33V134.105C750.055 134.156 750.156 134.209 750.277 134.264C750.398 134.314 750.529 134.361 750.67 134.404C750.814 134.443 750.963 134.477 751.115 134.504C751.271 134.527 751.422 134.539 751.566 134.539C751.898 134.539 752.199 134.475 752.469 134.346C752.742 134.217 752.975 134.025 753.166 133.771C753.357 133.518 753.504 133.203 753.605 132.828C753.711 132.449 753.764 132.012 753.764 131.516H753.74C753.67 131.641 753.576 131.76 753.459 131.873C753.346 131.982 753.215 132.08 753.066 132.166C752.918 132.248 752.752 132.314 752.568 132.365C752.389 132.416 752.195 132.441 751.988 132.441C751.637 132.441 751.309 132.381 751.004 132.26C750.703 132.135 750.441 131.959 750.219 131.732C749.996 131.506 749.82 131.23 749.691 130.906C749.566 130.582 749.504 130.221 749.504 129.822C749.504 129.385 749.576 128.99 749.721 128.639C749.865 128.283 750.064 127.982 750.318 127.736C750.572 127.486 750.871 127.295 751.215 127.162C751.559 127.025 751.932 126.957 752.334 126.957C752.713 126.957 753.07 127.029 753.406 127.174C753.746 127.314 754.043 127.541 754.297 127.854C754.555 128.162 754.758 128.562 754.906 129.055C755.059 129.547 755.135 130.143 755.135 130.842ZM753.717 129.945C753.717 129.664 753.68 129.408 753.605 129.178C753.535 128.947 753.436 128.75 753.307 128.586C753.178 128.422 753.023 128.295 752.844 128.205C752.668 128.115 752.475 128.07 752.264 128.07C752.076 128.07 751.896 128.109 751.725 128.188C751.557 128.262 751.408 128.369 751.279 128.51C751.154 128.65 751.055 128.82 750.98 129.02C750.906 129.219 750.869 129.439 750.869 129.682C750.869 129.947 750.904 130.182 750.975 130.385C751.049 130.588 751.15 130.76 751.279 130.9C751.408 131.037 751.562 131.143 751.742 131.217C751.926 131.287 752.127 131.322 752.346 131.322C752.541 131.322 752.721 131.287 752.885 131.217C753.053 131.143 753.197 131.045 753.318 130.924C753.443 130.799 753.541 130.652 753.611 130.484C753.682 130.316 753.717 130.137 753.717 129.945ZM758.943 135.641C758.068 135.641 757.385 135.283 756.893 134.568C756.404 133.854 756.16 132.82 756.16 131.469C756.16 129.984 756.416 128.861 756.928 128.1C757.439 127.338 758.178 126.957 759.143 126.957C760.99 126.957 761.914 128.393 761.914 131.264C761.914 132.686 761.652 133.771 761.129 134.521C760.609 135.268 759.881 135.641 758.943 135.641ZM759.078 128.041C758.059 128.041 757.549 129.164 757.549 131.41C757.549 133.512 758.049 134.562 759.049 134.562C760.033 134.562 760.525 133.494 760.525 131.357C760.525 129.146 760.043 128.041 759.078 128.041Z" fill="#171717"/>
<path d="M768.764 127.098L764.732 136.895H763.836L767.855 127.098H768.764Z" fill="#303030"/>
<path d="M774.242 135.5H773.281V128.24C773.207 128.314 773.098 128.4 772.953 128.498C772.812 128.592 772.652 128.686 772.473 128.779C772.297 128.873 772.109 128.961 771.91 129.043C771.715 129.125 771.523 129.189 771.336 129.236V128.264C771.547 128.205 771.77 128.127 772.004 128.029C772.242 127.928 772.475 127.816 772.701 127.695C772.932 127.57 773.148 127.441 773.352 127.309C773.555 127.172 773.73 127.039 773.879 126.91H774.242V135.5ZM782.445 131.264C782.445 131.967 782.381 132.59 782.252 133.133C782.127 133.676 781.943 134.135 781.701 134.51C781.463 134.881 781.168 135.164 780.816 135.359C780.469 135.551 780.072 135.646 779.627 135.646C779.205 135.646 778.828 135.555 778.496 135.371C778.168 135.184 777.891 134.912 777.664 134.557C777.438 134.201 777.266 133.766 777.148 133.25C777.031 132.73 776.973 132.137 776.973 131.469C776.973 130.734 777.033 130.086 777.154 129.523C777.279 128.961 777.461 128.49 777.699 128.111C777.938 127.729 778.232 127.441 778.584 127.25C778.939 127.055 779.346 126.957 779.803 126.957C781.564 126.957 782.445 128.393 782.445 131.264ZM781.461 131.357C781.461 128.967 780.893 127.771 779.756 127.771C778.557 127.771 777.957 128.988 777.957 131.422C777.957 133.691 778.545 134.826 779.721 134.826C780.881 134.826 781.461 133.67 781.461 131.357ZM788.914 131.264C788.914 131.967 788.85 132.59 788.721 133.133C788.596 133.676 788.412 134.135 788.17 134.51C787.932 134.881 787.637 135.164 787.285 135.359C786.938 135.551 786.541 135.646 786.096 135.646C785.674 135.646 785.297 135.555 784.965 135.371C784.637 135.184 784.359 134.912 784.133 134.557C783.906 134.201 783.734 133.766 783.617 133.25C783.5 132.73 783.441 132.137 783.441 131.469C783.441 130.734 783.502 130.086 783.623 129.523C783.748 128.961 783.93 128.49 784.168 128.111C784.406 127.729 784.701 127.441 785.053 127.25C785.408 127.055 785.814 126.957 786.271 126.957C788.033 126.957 788.914 128.393 788.914 131.264ZM787.93 131.357C787.93 128.967 787.361 127.771 786.225 127.771C785.025 127.771 784.426 128.988 784.426 131.422C784.426 133.691 785.014 134.826 786.189 134.826C787.35 134.826 787.93 133.67 787.93 131.357Z" fill="#303030"/>
</g>
<g clip-path="url(#clip7_2_8016)">
<rect x="8" y="142.5" width="784" height="12" fill="#D9D9D9"/>
<mask id="path-27-outside-4_2_8016" maskUnits="userSpaceOnUse" x="8" y="142.5" width="749" height="12" fill="black">
<rect fill="white" x="8" y="142.5" width="749" height="12"/>
<path d="M8 142.5H755V154.5H8V142.5Z"/>
</mask>
<path d="M8 142.5H755V154.5H8V142.5Z" fill="#EBA800"/>
<path d="M753 142.5V154.5H757V142.5H753Z" fill="white" mask="url(#path-27-outside-4_2_8016)"/>
</g>
<defs>
<clipPath id="clip0_2_8016">
<rect width="784" height="16" fill="white" transform="translate(8 14.5)"/>
</clipPath>
<clipPath id="clip1_2_8016">
<rect width="784" height="12" fill="white" transform="translate(8 34.5)"/>
</clipPath>
<clipPath id="clip2_2_8016">
<rect width="784" height="16" fill="white" transform="translate(8 50.5)"/>
</clipPath>
<clipPath id="clip3_2_8016">
<rect width="784" height="12" fill="white" transform="translate(8 70.5)"/>
</clipPath>
<clipPath id="clip4_2_8016">
<rect width="784" height="16" fill="white" transform="translate(8 86.5)"/>
</clipPath>
<clipPath id="clip5_2_8016">
<rect width="784" height="12" fill="white" transform="translate(8 106.5)"/>
</clipPath>
<clipPath id="clip6_2_8016">
<rect width="784" height="16" fill="white" transform="translate(8 122.5)"/>
</clipPath>
<clipPath id="clip7_2_8016">
<rect width="784" height="12" fill="white" transform="translate(8 142.5)"/>
</clipPath>
</defs>
</svg>
