<svg width="800" height="76" viewBox="0 0 800 76" fill="none" xmlns="http://www.w3.org/2000/svg">
<rect width="800" height="76" fill="#FAFAFA"/>
<g clip-path="url(#clip0_2_8099)">
<rect x="16" y="22" width="140.591" height="12" fill="#00A892"/>
<rect x="158.592" y="22" width="140.591" height="12" fill="#9A44FC"/>
<rect x="301.183" y="22" width="140.591" height="12" fill="#3483FA"/>
<rect x="443.774" y="22" width="140.591" height="12" fill="#EBA800"/>
</g>
<path d="M23.9993 51.6236C23.9993 51.2784 24.2791 50.9985 24.6244 50.9985H33.3758C33.721 50.9985 34.0009 51.2784 34.0009 51.6236V60.3751C34.0009 60.7203 33.721 61.0002 33.3758 61.0002H24.6244C24.2791 61.0002 23.9993 60.7203 23.9993 60.3751V51.6236Z" fill="#00A892"/>
<path d="M43.3689 53.4883H40.0876V56.3945H43.1228V57.2793H40.0876V61H39.1033V52.5977H43.3689V53.4883ZM45.3259 53.4766C45.1541 53.4766 45.0076 53.418 44.8865 53.3008C44.7654 53.1836 44.7048 53.0352 44.7048 52.8555C44.7048 52.6758 44.7654 52.5273 44.8865 52.4102C45.0076 52.2891 45.1541 52.2285 45.3259 52.2285C45.5017 52.2285 45.6501 52.2891 45.7712 52.4102C45.8962 52.5273 45.9587 52.6758 45.9587 52.8555C45.9587 53.0273 45.8962 53.1738 45.7712 53.2949C45.6501 53.416 45.5017 53.4766 45.3259 53.4766ZM45.7947 61H44.8337V55H45.7947V61ZM50.8689 55.9727C50.7009 55.8438 50.4587 55.7793 50.1423 55.7793C49.7322 55.7793 49.3884 55.9727 49.1111 56.3594C48.8376 56.7461 48.7009 57.2734 48.7009 57.9414V61H47.74V55H48.7009V56.2363H48.7244C48.8611 55.8145 49.0701 55.4863 49.3513 55.252C49.6326 55.0137 49.947 54.8945 50.2947 54.8945C50.5447 54.8945 50.7361 54.9219 50.8689 54.9766V55.9727ZM51.5486 60.7832V59.752C52.072 60.1387 52.6482 60.332 53.2771 60.332C54.1208 60.332 54.5427 60.0508 54.5427 59.4883C54.5427 59.3281 54.5056 59.1934 54.4314 59.084C54.3611 58.9707 54.2634 58.8711 54.1384 58.7852C54.0173 58.6992 53.8728 58.623 53.7048 58.5566C53.5408 58.4863 53.363 58.4141 53.1716 58.3398C52.906 58.2344 52.6716 58.1289 52.4685 58.0234C52.2693 57.9141 52.1013 57.793 51.9646 57.6602C51.8318 57.5234 51.7302 57.3691 51.6599 57.1973C51.5935 57.0254 51.5603 56.8242 51.5603 56.5938C51.5603 56.3125 51.6248 56.0645 51.7537 55.8496C51.8826 55.6309 52.0544 55.4492 52.2693 55.3047C52.4841 55.1562 52.7283 55.0449 53.0017 54.9707C53.2791 54.8965 53.5642 54.8594 53.8572 54.8594C54.3767 54.8594 54.8416 54.9492 55.2517 55.1289V56.1016C54.8103 55.8125 54.3025 55.668 53.7283 55.668C53.5486 55.668 53.3865 55.6895 53.2419 55.7324C53.0974 55.7715 52.9724 55.8281 52.8669 55.9023C52.7654 55.9766 52.6853 56.0664 52.6267 56.1719C52.572 56.2734 52.5447 56.3867 52.5447 56.5117C52.5447 56.668 52.572 56.7988 52.6267 56.9043C52.6853 57.0098 52.7693 57.1035 52.8787 57.1855C52.988 57.2676 53.1208 57.3418 53.2771 57.4082C53.4333 57.4746 53.6111 57.5469 53.8103 57.625C54.0759 57.7266 54.3142 57.832 54.5251 57.9414C54.7361 58.0469 54.9158 58.168 55.0642 58.3047C55.2126 58.4375 55.3259 58.5918 55.4041 58.7676C55.4861 58.9434 55.5271 59.1523 55.5271 59.3945C55.5271 59.6914 55.4607 59.9492 55.3279 60.168C55.199 60.3867 55.0251 60.5684 54.8064 60.7129C54.5876 60.8574 54.3357 60.9648 54.0505 61.0352C53.7654 61.1055 53.4666 61.1406 53.1541 61.1406C52.5369 61.1406 52.0017 61.0215 51.5486 60.7832ZM59.7927 60.9414C59.5662 61.0664 59.2673 61.1289 58.8962 61.1289C57.8455 61.1289 57.3201 60.543 57.3201 59.3711V55.8203H56.2888V55H57.3201V53.5352L58.281 53.2246V55H59.7927V55.8203H58.281V59.2012C58.281 59.6035 58.3494 59.8906 58.4861 60.0625C58.6228 60.2344 58.8494 60.3203 59.1658 60.3203C59.408 60.3203 59.6169 60.2539 59.7927 60.1211V60.9414Z" fill="#323130"/>
<path d="M77.001 51.6236C77.001 51.2784 77.2808 50.9985 77.6261 50.9985H86.3775C86.7227 50.9985 87.0026 51.2784 87.0026 51.6236V60.3751C87.0026 60.7203 86.7227 61.0002 86.3775 61.0002H77.6261C77.2808 61.0002 77.001 60.7203 77.001 60.3751V51.6236Z" fill="#9A44FC"/>
<path d="M91.7124 60.6602V59.5C91.8452 59.6172 92.0034 59.7227 92.187 59.8164C92.3745 59.9102 92.5698 59.9902 92.7729 60.0566C92.98 60.1191 93.187 60.168 93.394 60.2031C93.6011 60.2383 93.7925 60.2559 93.9683 60.2559C94.5737 60.2559 95.0249 60.1445 95.3218 59.9219C95.6226 59.6953 95.7729 59.3711 95.7729 58.9492C95.7729 58.7227 95.7222 58.5254 95.6206 58.3574C95.5229 58.1895 95.3862 58.0371 95.2104 57.9004C95.0347 57.7598 94.8257 57.627 94.5835 57.502C94.3452 57.373 94.0874 57.2383 93.8101 57.0977C93.5171 56.9492 93.2437 56.7988 92.9897 56.6465C92.7358 56.4941 92.5151 56.3262 92.3276 56.1426C92.1401 55.959 91.9917 55.752 91.8823 55.5215C91.7769 55.2871 91.7241 55.0137 91.7241 54.7012C91.7241 54.3184 91.8081 53.9863 91.9761 53.7051C92.144 53.4199 92.3647 53.1855 92.6382 53.002C92.9116 52.8184 93.2222 52.6816 93.5698 52.5918C93.9214 52.502 94.2788 52.457 94.6421 52.457C95.4702 52.457 96.0737 52.5566 96.4526 52.7559V53.8633C95.9565 53.5195 95.3198 53.3477 94.5425 53.3477C94.3276 53.3477 94.1128 53.3711 93.8979 53.418C93.6831 53.4609 93.4917 53.5332 93.3237 53.6348C93.1558 53.7363 93.019 53.8672 92.9136 54.0273C92.8081 54.1875 92.7554 54.3828 92.7554 54.6133C92.7554 54.8281 92.7944 55.0137 92.8726 55.1699C92.9546 55.3262 93.0737 55.4688 93.23 55.5977C93.3862 55.7266 93.5757 55.8516 93.7983 55.9727C94.0249 56.0938 94.2847 56.2266 94.5776 56.3711C94.8784 56.5195 95.1636 56.6758 95.4331 56.8398C95.7026 57.0039 95.939 57.1855 96.1421 57.3848C96.3452 57.584 96.5054 57.8047 96.6226 58.0469C96.7437 58.2891 96.8042 58.5664 96.8042 58.8789C96.8042 59.293 96.7222 59.6445 96.5581 59.9336C96.3979 60.2188 96.1792 60.4512 95.9019 60.6309C95.6284 60.8105 95.312 60.9395 94.9526 61.0176C94.5933 61.0996 94.2144 61.1406 93.8159 61.1406C93.6831 61.1406 93.519 61.1289 93.3237 61.1055C93.1284 61.0859 92.9292 61.0547 92.7261 61.0117C92.5229 60.9727 92.3296 60.9238 92.146 60.8652C91.9663 60.8027 91.8218 60.7344 91.7124 60.6602ZM103.173 58.2402H98.937C98.9526 58.9082 99.1323 59.4238 99.4761 59.7871C99.8198 60.1504 100.292 60.332 100.894 60.332C101.57 60.332 102.191 60.1094 102.757 59.6641V60.5664C102.23 60.9492 101.533 61.1406 100.666 61.1406C99.8179 61.1406 99.1519 60.8691 98.6675 60.3262C98.1831 59.7793 97.9409 59.0117 97.9409 58.0234C97.9409 57.0898 98.2046 56.3301 98.7319 55.7441C99.2632 55.1543 99.9214 54.8594 100.707 54.8594C101.492 54.8594 102.099 55.1133 102.529 55.6211C102.958 56.1289 103.173 56.834 103.173 57.7363V58.2402ZM102.189 57.4258C102.185 56.8711 102.05 56.4395 101.785 56.1309C101.523 55.8223 101.158 55.668 100.689 55.668C100.236 55.668 99.8511 55.8301 99.5347 56.1543C99.2183 56.4785 99.0229 56.9023 98.9487 57.4258H102.189ZM108.722 60.7246C108.261 61.002 107.714 61.1406 107.082 61.1406C106.226 61.1406 105.535 60.8633 105.007 60.3086C104.484 59.75 104.222 59.0273 104.222 58.1406C104.222 57.1523 104.505 56.3594 105.072 55.7617C105.638 55.1602 106.394 54.8594 107.339 54.8594C107.867 54.8594 108.332 54.957 108.734 55.1523V56.1367C108.289 55.8242 107.812 55.668 107.304 55.668C106.691 55.668 106.187 55.8887 105.792 56.3301C105.402 56.7676 105.207 57.3438 105.207 58.0586C105.207 58.7617 105.39 59.3164 105.757 59.7227C106.128 60.1289 106.625 60.332 107.246 60.332C107.769 60.332 108.261 60.1582 108.722 59.8105V60.7246ZM112.683 61.1406C111.796 61.1406 111.087 60.8613 110.556 60.3027C110.029 59.7402 109.765 58.9961 109.765 58.0703C109.765 57.0625 110.041 56.2754 110.591 55.709C111.142 55.1426 111.886 54.8594 112.824 54.8594C113.718 54.8594 114.416 55.1348 114.916 55.6855C115.419 56.2363 115.671 57 115.671 57.9766C115.671 58.9336 115.4 59.7012 114.857 60.2793C114.318 60.8535 113.593 61.1406 112.683 61.1406ZM112.753 55.668C112.136 55.668 111.648 55.8789 111.289 56.3008C110.929 56.7188 110.75 57.2969 110.75 58.0352C110.75 58.7461 110.931 59.3066 111.294 59.7168C111.658 60.127 112.144 60.332 112.753 60.332C113.375 60.332 113.851 60.1309 114.183 59.7285C114.519 59.3262 114.687 58.7539 114.687 58.0117C114.687 57.2617 114.519 56.6836 114.183 56.2773C113.851 55.8711 113.375 55.668 112.753 55.668ZM122.187 61H121.226V57.5781C121.226 56.3047 120.761 55.668 119.832 55.668C119.351 55.668 118.953 55.8496 118.636 56.2129C118.324 56.5723 118.167 57.0273 118.167 57.5781V61H117.207V55H118.167V55.9961H118.191C118.644 55.2383 119.3 54.8594 120.16 54.8594C120.816 54.8594 121.318 55.0723 121.666 55.498C122.013 55.9199 122.187 56.5312 122.187 57.332V61ZM129.125 61H128.164V59.9805H128.14C127.695 60.7539 127.007 61.1406 126.078 61.1406C125.324 61.1406 124.72 60.873 124.267 60.3379C123.818 59.7988 123.593 59.0664 123.593 58.1406C123.593 57.1484 123.843 56.3535 124.343 55.7559C124.843 55.1582 125.509 54.8594 126.341 54.8594C127.166 54.8594 127.765 55.1836 128.14 55.832H128.164V52.1172H129.125V61ZM128.164 58.2871V57.4023C128.164 56.918 128.003 56.5078 127.683 56.1719C127.363 55.8359 126.957 55.668 126.464 55.668C125.878 55.668 125.417 55.8828 125.082 56.3125C124.746 56.7422 124.578 57.3359 124.578 58.0938C124.578 58.7852 124.738 59.332 125.058 59.7344C125.382 60.1328 125.816 60.332 126.359 60.332C126.894 60.332 127.328 60.1387 127.66 59.752C127.996 59.3652 128.164 58.877 128.164 58.2871Z" fill="#323130"/>
<path d="M147.002 51.6236C147.002 51.2784 147.282 50.9985 147.628 50.9985H156.379C156.724 50.9985 157.004 51.2784 157.004 51.6236V60.3751C157.004 60.7203 156.724 61.0002 156.379 61.0002H147.628C147.282 61.0002 147.002 60.7203 147.002 60.3751V51.6236Z" fill="#3483FA"/>
<path d="M167.075 53.4883H164.649V61H163.665V53.4883H161.245V52.5977H167.075V53.4883ZM173.251 61H172.29V57.543C172.29 56.293 171.825 55.668 170.896 55.668C170.427 55.668 170.032 55.8496 169.712 56.2129C169.392 56.5723 169.231 57.0352 169.231 57.6016V61H168.271V52.1172H169.231V55.9961H169.255C169.716 55.2383 170.372 54.8594 171.224 54.8594C172.575 54.8594 173.251 55.6738 173.251 57.3027V61ZM175.56 53.4766C175.388 53.4766 175.241 53.418 175.12 53.3008C174.999 53.1836 174.938 53.0352 174.938 52.8555C174.938 52.6758 174.999 52.5273 175.12 52.4102C175.241 52.2891 175.388 52.2285 175.56 52.2285C175.735 52.2285 175.884 52.2891 176.005 52.4102C176.13 52.5273 176.192 52.6758 176.192 52.8555C176.192 53.0273 176.13 53.1738 176.005 53.2949C175.884 53.416 175.735 53.4766 175.56 53.4766ZM176.028 61H175.067V55H176.028V61ZM181.103 55.9727C180.935 55.8438 180.692 55.7793 180.376 55.7793C179.966 55.7793 179.622 55.9727 179.345 56.3594C179.071 56.7461 178.935 57.2734 178.935 57.9414V61H177.974V55H178.935V56.2363H178.958C179.095 55.8145 179.304 55.4863 179.585 55.252C179.866 55.0137 180.181 54.8945 180.528 54.8945C180.778 54.8945 180.97 54.9219 181.103 54.9766V55.9727ZM187.267 61H186.306V59.9805H186.282C185.837 60.7539 185.149 61.1406 184.22 61.1406C183.466 61.1406 182.862 60.873 182.409 60.3379C181.96 59.7988 181.735 59.0664 181.735 58.1406C181.735 57.1484 181.985 56.3535 182.485 55.7559C182.985 55.1582 183.651 54.8594 184.483 54.8594C185.308 54.8594 185.907 55.1836 186.282 55.832H186.306V52.1172H187.267V61ZM186.306 58.2871V57.4023C186.306 56.918 186.146 56.5078 185.825 56.1719C185.505 55.8359 185.099 55.668 184.606 55.668C184.021 55.668 183.56 55.8828 183.224 56.3125C182.888 56.7422 182.72 57.3359 182.72 58.0938C182.72 58.7852 182.88 59.332 183.2 59.7344C183.524 60.1328 183.958 60.332 184.501 60.332C185.036 60.332 185.47 60.1387 185.802 59.752C186.138 59.3652 186.306 58.877 186.306 58.2871Z" fill="#323130"/>
<path d="M205.004 51.6236C205.004 51.2784 205.284 50.9985 205.629 50.9985H214.381C214.726 50.9985 215.006 51.2784 215.006 51.6236V60.3751C215.006 60.7203 214.726 61.0002 214.381 61.0002H205.629C205.284 61.0002 205.004 60.7203 205.004 60.3751V51.6236Z" fill="#EBA800"/>
<path d="M224.374 53.4883H221.092V56.3945H224.128V57.2793H221.092V61H220.108V52.5977H224.374V53.4883ZM228.346 61.1406C227.46 61.1406 226.751 60.8613 226.219 60.3027C225.692 59.7402 225.428 58.9961 225.428 58.0703C225.428 57.0625 225.704 56.2754 226.255 55.709C226.805 55.1426 227.549 54.8594 228.487 54.8594C229.381 54.8594 230.079 55.1348 230.579 55.6855C231.083 56.2363 231.335 57 231.335 57.9766C231.335 58.9336 231.063 59.7012 230.52 60.2793C229.981 60.8535 229.256 61.1406 228.346 61.1406ZM228.417 55.668C227.799 55.668 227.311 55.8789 226.952 56.3008C226.592 56.7188 226.413 57.2969 226.413 58.0352C226.413 58.7461 226.594 59.3066 226.958 59.7168C227.321 60.127 227.807 60.332 228.417 60.332C229.038 60.332 229.514 60.1309 229.846 59.7285C230.182 59.3262 230.35 58.7539 230.35 58.0117C230.35 57.2617 230.182 56.6836 229.846 56.2773C229.514 55.8711 229.038 55.668 228.417 55.668ZM237.721 61H236.76V60.0508H236.737C236.339 60.7773 235.721 61.1406 234.885 61.1406C233.456 61.1406 232.741 60.2891 232.741 58.5859V55H233.696V58.4336C233.696 59.6992 234.18 60.332 235.149 60.332C235.618 60.332 236.003 60.1602 236.303 59.8164C236.608 59.4688 236.76 59.0156 236.76 58.457V55H237.721V61ZM242.796 55.9727C242.628 55.8438 242.385 55.7793 242.069 55.7793C241.659 55.7793 241.315 55.9727 241.038 56.3594C240.764 56.7461 240.628 57.2734 240.628 57.9414V61H239.667V55H240.628V56.2363H240.651C240.788 55.8145 240.997 55.4863 241.278 55.252C241.559 55.0137 241.874 54.8945 242.221 54.8945C242.471 54.8945 242.663 54.9219 242.796 54.9766V55.9727ZM246.622 60.9414C246.395 61.0664 246.096 61.1289 245.725 61.1289C244.674 61.1289 244.149 60.543 244.149 59.3711V55.8203H243.118V55H244.149V53.5352L245.11 53.2246V55H246.622V55.8203H245.11V59.2012C245.11 59.6035 245.178 59.8906 245.315 60.0625C245.452 60.2344 245.678 60.3203 245.995 60.3203C246.237 60.3203 246.446 60.2539 246.622 60.1211V60.9414ZM252.885 61H251.924V57.543C251.924 56.293 251.46 55.668 250.53 55.668C250.061 55.668 249.667 55.8496 249.346 56.2129C249.026 56.5723 248.866 57.0352 248.866 57.6016V61H247.905V52.1172H248.866V55.9961H248.889C249.35 55.2383 250.006 54.8594 250.858 54.8594C252.21 54.8594 252.885 55.6738 252.885 57.3027V61Z" fill="#323130"/>
<defs>
<clipPath id="clip0_2_8099">
<rect width="578.366" height="16" fill="white" transform="translate(16 20)"/>
</clipPath>
</defs>
</svg>
