<svg width="800" height="75" viewBox="0 0 800 75" fill="none" xmlns="http://www.w3.org/2000/svg">
<g clip-path="url(#clip0_2_8099)">
<path d="M216.07 5.48828H213.645V13H212.66V5.48828H210.24V4.59766H216.07V5.48828ZM217.758 5.47656C217.586 5.47656 217.439 5.41797 217.318 5.30078C217.197 5.18359 217.137 5.03516 217.137 4.85547C217.137 4.67578 217.197 4.52734 217.318 4.41016C217.439 4.28906 217.586 4.22852 217.758 4.22852C217.934 4.22852 218.082 4.28906 218.203 4.41016C218.328 4.52734 218.391 4.67578 218.391 4.85547C218.391 5.02734 218.328 5.17383 218.203 5.29492C218.082 5.41602 217.934 5.47656 217.758 5.47656ZM218.227 13H217.266V7H218.227V13ZM222.955 12.9414C222.729 13.0664 222.43 13.1289 222.059 13.1289C221.008 13.1289 220.482 12.543 220.482 11.3711V7.82031H219.451V7H220.482V5.53516L221.443 5.22461V7H222.955V7.82031H221.443V11.2012C221.443 11.6035 221.512 11.8906 221.648 12.0625C221.785 12.2344 222.012 12.3203 222.328 12.3203C222.57 12.3203 222.779 12.2539 222.955 12.1211V12.9414ZM225.199 13H224.238V4.11719H225.199V13ZM231.967 10.2402H227.73C227.746 10.9082 227.926 11.4238 228.27 11.7871C228.613 12.1504 229.086 12.332 229.688 12.332C230.363 12.332 230.984 12.1094 231.551 11.6641V12.5664C231.023 12.9492 230.326 13.1406 229.459 13.1406C228.611 13.1406 227.945 12.8691 227.461 12.3262C226.977 11.7793 226.734 11.0117 226.734 10.0234C226.734 9.08984 226.998 8.33008 227.525 7.74414C228.057 7.1543 228.715 6.85938 229.5 6.85938C230.285 6.85938 230.893 7.11328 231.322 7.62109C231.752 8.12891 231.967 8.83398 231.967 9.73633V10.2402ZM230.982 9.42578C230.979 8.87109 230.844 8.43945 230.578 8.13086C230.316 7.82227 229.951 7.66797 229.482 7.66797C229.029 7.66797 228.645 7.83008 228.328 8.1543C228.012 8.47852 227.816 8.90234 227.742 9.42578H230.982ZM239.684 4.96094C239.496 4.85547 239.283 4.80273 239.045 4.80273C238.373 4.80273 238.037 5.22656 238.037 6.07422V7H239.443V7.82031H238.037V13H237.082V7.82031H236.057V7H237.082V6.02734C237.082 5.39844 237.264 4.90234 237.627 4.53906C237.99 4.17188 238.443 3.98828 238.986 3.98828C239.279 3.98828 239.512 4.02344 239.684 4.09375V4.96094ZM242.988 13.1406C242.102 13.1406 241.393 12.8613 240.861 12.3027C240.334 11.7402 240.07 10.9961 240.07 10.0703C240.07 9.0625 240.346 8.27539 240.896 7.70898C241.447 7.14258 242.191 6.85938 243.129 6.85938C244.023 6.85938 244.721 7.13477 245.221 7.68555C245.725 8.23633 245.977 9 245.977 9.97656C245.977 10.9336 245.705 11.7012 245.162 12.2793C244.623 12.8535 243.898 13.1406 242.988 13.1406ZM243.059 7.66797C242.441 7.66797 241.953 7.87891 241.594 8.30078C241.234 8.71875 241.055 9.29688 241.055 10.0352C241.055 10.7461 241.236 11.3066 241.6 11.7168C241.963 12.127 242.449 12.332 243.059 12.332C243.68 12.332 244.156 12.1309 244.488 11.7285C244.824 11.3262 244.992 10.7539 244.992 10.0117C244.992 9.26172 244.824 8.68359 244.488 8.27734C244.156 7.87109 243.68 7.66797 243.059 7.66797ZM250.641 7.97266C250.473 7.84375 250.23 7.7793 249.914 7.7793C249.504 7.7793 249.16 7.97266 248.883 8.35938C248.609 8.74609 248.473 9.27344 248.473 9.94141V13H247.512V7H248.473V8.23633H248.496C248.633 7.81445 248.842 7.48633 249.123 7.25195C249.404 7.01367 249.719 6.89453 250.066 6.89453C250.316 6.89453 250.508 6.92188 250.641 6.97656V7.97266ZM257.76 12.9414C257.533 13.0664 257.234 13.1289 256.863 13.1289C255.812 13.1289 255.287 12.543 255.287 11.3711V7.82031H254.256V7H255.287V5.53516L256.248 5.22461V7H257.76V7.82031H256.248V11.2012C256.248 11.6035 256.316 11.8906 256.453 12.0625C256.59 12.2344 256.816 12.3203 257.133 12.3203C257.375 12.3203 257.584 12.2539 257.76 12.1211V12.9414ZM264.023 13H263.062V9.54297C263.062 8.29297 262.598 7.66797 261.668 7.66797C261.199 7.66797 260.805 7.84961 260.484 8.21289C260.164 8.57227 260.004 9.03516 260.004 9.60156V13H259.043V4.11719H260.004V7.99609H260.027C260.488 7.23828 261.145 6.85938 261.996 6.85938C263.348 6.85938 264.023 7.67383 264.023 9.30273V13ZM270.662 10.2402H266.426C266.441 10.9082 266.621 11.4238 266.965 11.7871C267.309 12.1504 267.781 12.332 268.383 12.332C269.059 12.332 269.68 12.1094 270.246 11.6641V12.5664C269.719 12.9492 269.021 13.1406 268.154 13.1406C267.307 13.1406 266.641 12.8691 266.156 12.3262C265.672 11.7793 265.43 11.0117 265.43 10.0234C265.43 9.08984 265.693 8.33008 266.221 7.74414C266.752 7.1543 267.41 6.85938 268.195 6.85938C268.98 6.85938 269.588 7.11328 270.018 7.62109C270.447 8.12891 270.662 8.83398 270.662 9.73633V10.2402ZM269.678 9.42578C269.674 8.87109 269.539 8.43945 269.273 8.13086C269.012 7.82227 268.646 7.66797 268.178 7.66797C267.725 7.66797 267.34 7.83008 267.023 8.1543C266.707 8.47852 266.512 8.90234 266.438 9.42578H269.678ZM280.535 13H279.574V11.9805H279.551C279.105 12.7539 278.418 13.1406 277.488 13.1406C276.734 13.1406 276.131 12.873 275.678 12.3379C275.229 11.7988 275.004 11.0664 275.004 10.1406C275.004 9.14844 275.254 8.35352 275.754 7.75586C276.254 7.1582 276.92 6.85938 277.752 6.85938C278.576 6.85938 279.176 7.18359 279.551 7.83203H279.574V4.11719H280.535V13ZM279.574 10.2871V9.40234C279.574 8.91797 279.414 8.50781 279.094 8.17188C278.773 7.83594 278.367 7.66797 277.875 7.66797C277.289 7.66797 276.828 7.88281 276.492 8.3125C276.156 8.74219 275.988 9.33594 275.988 10.0938C275.988 10.7852 276.148 11.332 276.469 11.7344C276.793 12.1328 277.227 12.332 277.77 12.332C278.305 12.332 278.738 12.1387 279.07 11.752C279.406 11.3652 279.574 10.877 279.574 10.2871ZM286.775 13H285.814V12.0625H285.791C285.373 12.7812 284.758 13.1406 283.945 13.1406C283.348 13.1406 282.879 12.9824 282.539 12.666C282.203 12.3496 282.035 11.9297 282.035 11.4062C282.035 10.2852 282.695 9.63281 284.016 9.44922L285.814 9.19727C285.814 8.17773 285.402 7.66797 284.578 7.66797C283.855 7.66797 283.203 7.91406 282.621 8.40625V7.42188C283.211 7.04688 283.891 6.85938 284.66 6.85938C286.07 6.85938 286.775 7.60547 286.775 9.09766V13ZM285.814 9.96484L284.367 10.1641C283.922 10.2266 283.586 10.3379 283.359 10.498C283.133 10.6543 283.02 10.9336 283.02 11.3359C283.02 11.6289 283.123 11.8691 283.33 12.0566C283.541 12.2402 283.82 12.332 284.168 12.332C284.645 12.332 285.037 12.166 285.346 11.834C285.658 11.498 285.814 11.0742 285.814 10.5625V9.96484ZM291.369 12.9414C291.143 13.0664 290.844 13.1289 290.473 13.1289C289.422 13.1289 288.896 12.543 288.896 11.3711V7.82031H287.865V7H288.896V5.53516L289.857 5.22461V7H291.369V7.82031H289.857V11.2012C289.857 11.6035 289.926 11.8906 290.062 12.0625C290.199 12.2344 290.426 12.3203 290.742 12.3203C290.984 12.3203 291.193 12.2539 291.369 12.1211V12.9414ZM296.947 13H295.986V12.0625H295.963C295.545 12.7812 294.93 13.1406 294.117 13.1406C293.52 13.1406 293.051 12.9824 292.711 12.666C292.375 12.3496 292.207 11.9297 292.207 11.4062C292.207 10.2852 292.867 9.63281 294.188 9.44922L295.986 9.19727C295.986 8.17773 295.574 7.66797 294.75 7.66797C294.027 7.66797 293.375 7.91406 292.793 8.40625V7.42188C293.383 7.04688 294.062 6.85938 294.832 6.85938C296.242 6.85938 296.947 7.60547 296.947 9.09766V13ZM295.986 9.96484L294.539 10.1641C294.094 10.2266 293.758 10.3379 293.531 10.498C293.305 10.6543 293.191 10.9336 293.191 11.3359C293.191 11.6289 293.295 11.8691 293.502 12.0566C293.713 12.2402 293.992 12.332 294.34 12.332C294.816 12.332 295.209 12.166 295.518 11.834C295.83 11.498 295.986 11.0742 295.986 10.5625V9.96484Z" fill="#171717"/>
</g>
<g clip-path="url(#clip1_2_8099)">
<rect x="210" y="22" width="89.1268" height="12" fill="#00A892"/>
<rect x="301.127" y="22" width="89.1268" height="12" fill="#9A44FC"/>
<rect x="392.254" y="22" width="89.1268" height="12" fill="#3483FA"/>
<rect x="483.38" y="22" width="89.1268" height="12" fill="#EBA800"/>
</g>
<g clip-path="url(#clip2_2_8099)">
<path d="M215.352 50.6236C215.352 50.2784 215.631 49.9985 215.977 49.9985H224.728C225.073 49.9985 225.353 50.2784 225.353 50.6236V59.3751C225.353 59.7203 225.073 60.0002 224.728 60.0002H215.977C215.631 60.0002 215.352 59.7203 215.352 59.3751V50.6236Z" fill="#00A892"/>
<path d="M234.721 52.4883H231.44V55.3945H234.475V56.2793H231.44V60H230.455V51.5977H234.721V52.4883ZM236.678 52.4766C236.506 52.4766 236.36 52.418 236.239 52.3008C236.117 52.1836 236.057 52.0352 236.057 51.8555C236.057 51.6758 236.117 51.5273 236.239 51.4102C236.36 51.2891 236.506 51.2285 236.678 51.2285C236.854 51.2285 237.002 51.2891 237.123 51.4102C237.248 51.5273 237.311 51.6758 237.311 51.8555C237.311 52.0273 237.248 52.1738 237.123 52.2949C237.002 52.416 236.854 52.4766 236.678 52.4766ZM237.147 60H236.186V54H237.147V60ZM242.221 54.9727C242.053 54.8438 241.811 54.7793 241.494 54.7793C241.084 54.7793 240.74 54.9727 240.463 55.3594C240.19 55.7461 240.053 56.2734 240.053 56.9414V60H239.092V54H240.053V55.2363H240.076C240.213 54.8145 240.422 54.4863 240.703 54.252C240.985 54.0137 241.299 53.8945 241.647 53.8945C241.897 53.8945 242.088 53.9219 242.221 53.9766V54.9727ZM242.901 59.7832V58.752C243.424 59.1387 244 59.332 244.629 59.332C245.473 59.332 245.895 59.0508 245.895 58.4883C245.895 58.3281 245.858 58.1934 245.783 58.084C245.713 57.9707 245.615 57.8711 245.49 57.7852C245.369 57.6992 245.225 57.623 245.057 57.5566C244.893 57.4863 244.715 57.4141 244.524 57.3398C244.258 57.2344 244.024 57.1289 243.821 57.0234C243.621 56.9141 243.453 56.793 243.317 56.6602C243.184 56.5234 243.082 56.3691 243.012 56.1973C242.946 56.0254 242.912 55.8242 242.912 55.5938C242.912 55.3125 242.977 55.0645 243.106 54.8496C243.235 54.6309 243.406 54.4492 243.621 54.3047C243.836 54.1562 244.08 54.0449 244.354 53.9707C244.631 53.8965 244.916 53.8594 245.209 53.8594C245.729 53.8594 246.194 53.9492 246.604 54.1289V55.1016C246.162 54.8125 245.655 54.668 245.08 54.668C244.901 54.668 244.739 54.6895 244.594 54.7324C244.449 54.7715 244.324 54.8281 244.219 54.9023C244.117 54.9766 244.037 55.0664 243.979 55.1719C243.924 55.2734 243.897 55.3867 243.897 55.5117C243.897 55.668 243.924 55.7988 243.979 55.9043C244.037 56.0098 244.121 56.1035 244.231 56.1855C244.34 56.2676 244.473 56.3418 244.629 56.4082C244.785 56.4746 244.963 56.5469 245.162 56.625C245.428 56.7266 245.666 56.832 245.877 56.9414C246.088 57.0469 246.268 57.168 246.416 57.3047C246.565 57.4375 246.678 57.5918 246.756 57.7676C246.838 57.9434 246.879 58.1523 246.879 58.3945C246.879 58.6914 246.813 58.9492 246.68 59.168C246.551 59.3867 246.377 59.5684 246.158 59.7129C245.94 59.8574 245.688 59.9648 245.403 60.0352C245.117 60.1055 244.819 60.1406 244.506 60.1406C243.889 60.1406 243.354 60.0215 242.901 59.7832ZM251.145 59.9414C250.918 60.0664 250.619 60.1289 250.248 60.1289C249.198 60.1289 248.672 59.543 248.672 58.3711V54.8203H247.641V54H248.672V52.5352L249.633 52.2246V54H251.145V54.8203H249.633V58.2012C249.633 58.6035 249.701 58.8906 249.838 59.0625C249.975 59.2344 250.201 59.3203 250.518 59.3203C250.76 59.3203 250.969 59.2539 251.145 59.1211V59.9414Z" fill="#323130"/>
<path d="M268.353 50.6236C268.353 50.2784 268.633 49.9985 268.978 49.9985H277.73C278.075 49.9985 278.355 50.2784 278.355 50.6236V59.3751C278.355 59.7203 278.075 60.0002 277.73 60.0002H268.978C268.633 60.0002 268.353 59.7203 268.353 59.3751V50.6236Z" fill="#9A44FC"/>
<path d="M283.064 59.6602V58.5C283.197 58.6172 283.355 58.7227 283.539 58.8164C283.726 58.9102 283.922 58.9902 284.125 59.0566C284.332 59.1191 284.539 59.168 284.746 59.2031C284.953 59.2383 285.144 59.2559 285.32 59.2559C285.926 59.2559 286.377 59.1445 286.674 58.9219C286.974 58.6953 287.125 58.3711 287.125 57.9492C287.125 57.7227 287.074 57.5254 286.973 57.3574C286.875 57.1895 286.738 57.0371 286.562 56.9004C286.387 56.7598 286.178 56.627 285.935 56.502C285.697 56.373 285.439 56.2383 285.162 56.0977C284.869 55.9492 284.596 55.7988 284.342 55.6465C284.088 55.4941 283.867 55.3262 283.68 55.1426C283.492 54.959 283.344 54.752 283.234 54.5215C283.129 54.2871 283.076 54.0137 283.076 53.7012C283.076 53.3184 283.16 52.9863 283.328 52.7051C283.496 52.4199 283.717 52.1855 283.99 52.002C284.264 51.8184 284.574 51.6816 284.922 51.5918C285.273 51.502 285.631 51.457 285.994 51.457C286.822 51.457 287.426 51.5566 287.805 51.7559V52.8633C287.308 52.5195 286.672 52.3477 285.894 52.3477C285.68 52.3477 285.465 52.3711 285.25 52.418C285.035 52.4609 284.844 52.5332 284.676 52.6348C284.508 52.7363 284.371 52.8672 284.266 53.0273C284.16 53.1875 284.107 53.3828 284.107 53.6133C284.107 53.8281 284.146 54.0137 284.224 54.1699C284.307 54.3262 284.426 54.4688 284.582 54.5977C284.738 54.7266 284.928 54.8516 285.15 54.9727C285.377 55.0938 285.637 55.2266 285.93 55.3711C286.23 55.5195 286.516 55.6758 286.785 55.8398C287.055 56.0039 287.291 56.1855 287.494 56.3848C287.697 56.584 287.857 56.8047 287.974 57.0469C288.096 57.2891 288.156 57.5664 288.156 57.8789C288.156 58.293 288.074 58.6445 287.91 58.9336C287.75 59.2188 287.531 59.4512 287.254 59.6309C286.98 59.8105 286.664 59.9395 286.305 60.0176C285.945 60.0996 285.566 60.1406 285.168 60.1406C285.035 60.1406 284.871 60.1289 284.676 60.1055C284.48 60.0859 284.281 60.0547 284.078 60.0117C283.875 59.9727 283.682 59.9238 283.498 59.8652C283.318 59.8027 283.174 59.7344 283.064 59.6602ZM294.525 57.2402H290.289C290.305 57.9082 290.484 58.4238 290.828 58.7871C291.172 59.1504 291.644 59.332 292.246 59.332C292.922 59.332 293.543 59.1094 294.109 58.6641V59.5664C293.582 59.9492 292.885 60.1406 292.017 60.1406C291.17 60.1406 290.504 59.8691 290.019 59.3262C289.535 58.7793 289.293 58.0117 289.293 57.0234C289.293 56.0898 289.557 55.3301 290.084 54.7441C290.615 54.1543 291.273 53.8594 292.058 53.8594C292.844 53.8594 293.451 54.1133 293.881 54.6211C294.31 55.1289 294.525 55.834 294.525 56.7363V57.2402ZM293.541 56.4258C293.537 55.8711 293.402 55.4395 293.137 55.1309C292.875 54.8223 292.51 54.668 292.041 54.668C291.588 54.668 291.203 54.8301 290.887 55.1543C290.57 55.4785 290.375 55.9023 290.301 56.4258H293.541ZM300.074 59.7246C299.613 60.002 299.066 60.1406 298.433 60.1406C297.578 60.1406 296.887 59.8633 296.359 59.3086C295.836 58.75 295.574 58.0273 295.574 57.1406C295.574 56.1523 295.857 55.3594 296.424 54.7617C296.99 54.1602 297.746 53.8594 298.691 53.8594C299.219 53.8594 299.683 53.957 300.086 54.1523V55.1367C299.641 54.8242 299.164 54.668 298.656 54.668C298.043 54.668 297.539 54.8887 297.144 55.3301C296.754 55.7676 296.558 56.3438 296.558 57.0586C296.558 57.7617 296.742 58.3164 297.109 58.7227C297.48 59.1289 297.976 59.332 298.598 59.332C299.121 59.332 299.613 59.1582 300.074 58.8105V59.7246ZM304.035 60.1406C303.148 60.1406 302.439 59.8613 301.908 59.3027C301.381 58.7402 301.117 57.9961 301.117 57.0703C301.117 56.0625 301.392 55.2754 301.943 54.709C302.494 54.1426 303.238 53.8594 304.176 53.8594C305.07 53.8594 305.767 54.1348 306.267 54.6855C306.771 55.2363 307.023 56 307.023 56.9766C307.023 57.9336 306.752 58.7012 306.209 59.2793C305.67 59.8535 304.945 60.1406 304.035 60.1406ZM304.105 54.668C303.488 54.668 303 54.8789 302.641 55.3008C302.281 55.7188 302.101 56.2969 302.101 57.0352C302.101 57.7461 302.283 58.3066 302.646 58.7168C303.01 59.127 303.496 59.332 304.105 59.332C304.726 59.332 305.203 59.1309 305.535 58.7285C305.871 58.3262 306.039 57.7539 306.039 57.0117C306.039 56.2617 305.871 55.6836 305.535 55.2773C305.203 54.8711 304.726 54.668 304.105 54.668ZM313.539 60H312.578V56.5781C312.578 55.3047 312.113 54.668 311.183 54.668C310.703 54.668 310.305 54.8496 309.988 55.2129C309.676 55.5723 309.519 56.0273 309.519 56.5781V60H308.558V54H309.519V54.9961H309.543C309.996 54.2383 310.652 53.8594 311.512 53.8594C312.168 53.8594 312.67 54.0723 313.017 54.498C313.365 54.9199 313.539 55.5312 313.539 56.332V60ZM320.476 60H319.516V58.9805H319.492C319.047 59.7539 318.359 60.1406 317.43 60.1406C316.676 60.1406 316.072 59.873 315.619 59.3379C315.17 58.7988 314.945 58.0664 314.945 57.1406C314.945 56.1484 315.195 55.3535 315.695 54.7559C316.195 54.1582 316.861 53.8594 317.693 53.8594C318.517 53.8594 319.117 54.1836 319.492 54.832H319.516V51.1172H320.476V60ZM319.516 57.2871V56.4023C319.516 55.918 319.355 55.5078 319.035 55.1719C318.715 54.8359 318.308 54.668 317.816 54.668C317.23 54.668 316.769 54.8828 316.433 55.3125C316.098 55.7422 315.93 56.3359 315.93 57.0938C315.93 57.7852 316.09 58.332 316.41 58.7344C316.734 59.1328 317.168 59.332 317.711 59.332C318.246 59.332 318.68 59.1387 319.012 58.752C319.348 58.3652 319.516 57.877 319.516 57.2871Z" fill="#323130"/>
<path d="M338.355 50.6236C338.355 50.2784 338.635 49.9985 338.98 49.9985H347.731C348.077 49.9985 348.356 50.2784 348.356 50.6236V59.3751C348.356 59.7203 348.077 60.0002 347.731 60.0002H338.98C338.635 60.0002 338.355 59.7203 338.355 59.3751V50.6236Z" fill="#3483FA"/>
<path d="M358.427 52.4883H356.002V60H355.017V52.4883H352.597V51.5977H358.427V52.4883ZM364.603 60H363.642V56.543C363.642 55.293 363.177 54.668 362.248 54.668C361.779 54.668 361.384 54.8496 361.064 55.2129C360.744 55.5723 360.584 56.0352 360.584 56.6016V60H359.623V51.1172H360.584V54.9961H360.607C361.068 54.2383 361.724 53.8594 362.576 53.8594C363.927 53.8594 364.603 54.6738 364.603 56.3027V60ZM366.912 52.4766C366.74 52.4766 366.593 52.418 366.472 52.3008C366.351 52.1836 366.291 52.0352 366.291 51.8555C366.291 51.6758 366.351 51.5273 366.472 51.4102C366.593 51.2891 366.74 51.2285 366.912 51.2285C367.088 51.2285 367.236 51.2891 367.357 51.4102C367.482 51.5273 367.545 51.6758 367.545 51.8555C367.545 52.0273 367.482 52.1738 367.357 52.2949C367.236 52.416 367.088 52.4766 366.912 52.4766ZM367.38 60H366.42V54H367.38V60ZM372.455 54.9727C372.287 54.8438 372.045 54.7793 371.728 54.7793C371.318 54.7793 370.974 54.9727 370.697 55.3594C370.423 55.7461 370.287 56.2734 370.287 56.9414V60H369.326V54H370.287V55.2363H370.31C370.447 54.8145 370.656 54.4863 370.937 54.252C371.218 54.0137 371.533 53.8945 371.88 53.8945C372.13 53.8945 372.322 53.9219 372.455 53.9766V54.9727ZM378.619 60H377.658V58.9805H377.634C377.189 59.7539 376.502 60.1406 375.572 60.1406C374.818 60.1406 374.214 59.873 373.761 59.3379C373.312 58.7988 373.088 58.0664 373.088 57.1406C373.088 56.1484 373.338 55.3535 373.838 54.7559C374.338 54.1582 375.004 53.8594 375.836 53.8594C376.66 53.8594 377.259 54.1836 377.634 54.832H377.658V51.1172H378.619V60ZM377.658 57.2871V56.4023C377.658 55.918 377.498 55.5078 377.177 55.1719C376.857 54.8359 376.451 54.668 375.959 54.668C375.373 54.668 374.912 54.8828 374.576 55.3125C374.24 55.7422 374.072 56.3359 374.072 57.0938C374.072 57.7852 374.232 58.332 374.552 58.7344C374.877 59.1328 375.31 59.332 375.853 59.332C376.388 59.332 376.822 59.1387 377.154 58.752C377.49 58.3652 377.658 57.877 377.658 57.2871Z" fill="#323130"/>
<path d="M396.356 50.6236C396.356 50.2784 396.636 49.9985 396.982 49.9985H405.733C406.078 49.9985 406.358 50.2784 406.358 50.6236V59.3751C406.358 59.7203 406.078 60.0002 405.733 60.0002H396.982C396.636 60.0002 396.356 59.7203 396.356 59.3751V50.6236Z" fill="#EBA800"/>
<path d="M415.726 52.4883H412.445V55.3945H415.48V56.2793H412.445V60H411.46V51.5977H415.726V52.4883ZM419.698 60.1406C418.812 60.1406 418.103 59.8613 417.572 59.3027C417.044 58.7402 416.781 57.9961 416.781 57.0703C416.781 56.0625 417.056 55.2754 417.607 54.709C418.157 54.1426 418.902 53.8594 419.839 53.8594C420.734 53.8594 421.431 54.1348 421.931 54.6855C422.435 55.2363 422.687 56 422.687 56.9766C422.687 57.9336 422.415 58.7012 421.872 59.2793C421.333 59.8535 420.609 60.1406 419.698 60.1406ZM419.769 54.668C419.152 54.668 418.663 54.8789 418.304 55.3008C417.945 55.7188 417.765 56.2969 417.765 57.0352C417.765 57.7461 417.947 58.3066 418.31 58.7168C418.673 59.127 419.159 59.332 419.769 59.332C420.39 59.332 420.866 59.1309 421.198 58.7285C421.534 58.3262 421.702 57.7539 421.702 57.0117C421.702 56.2617 421.534 55.6836 421.198 55.2773C420.866 54.8711 420.39 54.668 419.769 54.668ZM429.073 60H428.113V59.0508H428.089C427.691 59.7773 427.073 60.1406 426.238 60.1406C424.808 60.1406 424.093 59.2891 424.093 57.5859V54H425.048V57.4336C425.048 58.6992 425.532 59.332 426.501 59.332C426.97 59.332 427.355 59.1602 427.656 58.8164C427.96 58.4688 428.113 58.0156 428.113 57.457V54H429.073V60ZM434.148 54.9727C433.98 54.8438 433.738 54.7793 433.421 54.7793C433.011 54.7793 432.667 54.9727 432.39 55.3594C432.116 55.7461 431.98 56.2734 431.98 56.9414V60H431.019V54H431.98V55.2363H432.003C432.14 54.8145 432.349 54.4863 432.63 54.252C432.911 54.0137 433.226 53.8945 433.573 53.8945C433.823 53.8945 434.015 53.9219 434.148 53.9766V54.9727ZM437.974 59.9414C437.747 60.0664 437.448 60.1289 437.077 60.1289C436.027 60.1289 435.501 59.543 435.501 58.3711V54.8203H434.47V54H435.501V52.5352L436.462 52.2246V54H437.974V54.8203H436.462V58.2012C436.462 58.6035 436.531 58.8906 436.667 59.0625C436.804 59.2344 437.031 59.3203 437.347 59.3203C437.589 59.3203 437.798 59.2539 437.974 59.1211V59.9414ZM444.238 60H443.277V56.543C443.277 55.293 442.812 54.668 441.882 54.668C441.413 54.668 441.019 54.8496 440.698 55.2129C440.378 55.5723 440.218 56.0352 440.218 56.6016V60H439.257V51.1172H440.218V54.9961H440.241C440.702 54.2383 441.359 53.8594 442.21 53.8594C443.562 53.8594 444.238 54.6738 444.238 56.3027V60Z" fill="#323130"/>
</g>
<defs>
<clipPath id="clip0_2_8099">
<rect width="372.507" height="16" fill="white" transform="translate(210)"/>
</clipPath>
<clipPath id="clip1_2_8099">
<rect width="372.507" height="16" fill="white" transform="translate(210 20)"/>
</clipPath>
<clipPath id="clip2_2_8099">
<rect width="374.648" height="40" fill="white" transform="translate(215.352 35)"/>
</clipPath>
</defs>
</svg>
