<svg width="800" height="76" viewBox="0 0 800 76" fill="none" xmlns="http://www.w3.org/2000/svg">
<g clip-path="url(#clip0_2_8099)">
<rect y="22" width="140.591" height="12" fill="#00A892"/>
<rect x="142.592" y="22" width="140.591" height="12" fill="#9A44FC"/>
<rect x="285.183" y="22" width="140.591" height="12" fill="#3483FA"/>
<rect x="427.774" y="22" width="140.591" height="12" fill="#EBA800"/>
</g>
<path d="M7.99927 51.6236C7.99927 51.2784 8.27914 50.9985 8.62437 50.9985H17.3758C17.721 50.9985 18.0009 51.2784 18.0009 51.6236V60.3751C18.0009 60.7203 17.721 61.0002 17.3758 61.0002H8.62437C8.27913 61.0002 7.99927 60.7203 7.99927 60.3751V51.6236Z" fill="#00A892"/>
<path d="M27.3689 53.4883H24.0876V56.3945H27.1228V57.2793H24.0876V61H23.1033V52.5977H27.3689V53.4883ZM29.3259 53.4766C29.1541 53.4766 29.0076 53.418 28.8865 53.3008C28.7654 53.1836 28.7048 53.0352 28.7048 52.8555C28.7048 52.6758 28.7654 52.5273 28.8865 52.4102C29.0076 52.2891 29.1541 52.2285 29.3259 52.2285C29.5017 52.2285 29.6501 52.2891 29.7712 52.4102C29.8962 52.5273 29.9587 52.6758 29.9587 52.8555C29.9587 53.0273 29.8962 53.1738 29.7712 53.2949C29.6501 53.416 29.5017 53.4766 29.3259 53.4766ZM29.7947 61H28.8337V55H29.7947V61ZM34.8689 55.9727C34.7009 55.8438 34.4587 55.7793 34.1423 55.7793C33.7322 55.7793 33.3884 55.9727 33.1111 56.3594C32.8376 56.7461 32.7009 57.2734 32.7009 57.9414V61H31.74V55H32.7009V56.2363H32.7244C32.8611 55.8145 33.0701 55.4863 33.3513 55.252C33.6326 55.0137 33.947 54.8945 34.2947 54.8945C34.5447 54.8945 34.7361 54.9219 34.8689 54.9766V55.9727ZM35.5486 60.7832V59.752C36.072 60.1387 36.6482 60.332 37.2771 60.332C38.1208 60.332 38.5427 60.0508 38.5427 59.4883C38.5427 59.3281 38.5056 59.1934 38.4314 59.084C38.3611 58.9707 38.2634 58.8711 38.1384 58.7852C38.0173 58.6992 37.8728 58.623 37.7048 58.5566C37.5408 58.4863 37.363 58.4141 37.1716 58.3398C36.906 58.2344 36.6716 58.1289 36.4685 58.0234C36.2693 57.9141 36.1013 57.793 35.9646 57.6602C35.8318 57.5234 35.7302 57.3691 35.6599 57.1973C35.5935 57.0254 35.5603 56.8242 35.5603 56.5938C35.5603 56.3125 35.6248 56.0645 35.7537 55.8496C35.8826 55.6309 36.0544 55.4492 36.2693 55.3047C36.4841 55.1562 36.7283 55.0449 37.0017 54.9707C37.2791 54.8965 37.5642 54.8594 37.8572 54.8594C38.3767 54.8594 38.8416 54.9492 39.2517 55.1289V56.1016C38.8103 55.8125 38.3025 55.668 37.7283 55.668C37.5486 55.668 37.3865 55.6895 37.2419 55.7324C37.0974 55.7715 36.9724 55.8281 36.8669 55.9023C36.7654 55.9766 36.6853 56.0664 36.6267 56.1719C36.572 56.2734 36.5447 56.3867 36.5447 56.5117C36.5447 56.668 36.572 56.7988 36.6267 56.9043C36.6853 57.0098 36.7693 57.1035 36.8787 57.1855C36.988 57.2676 37.1208 57.3418 37.2771 57.4082C37.4333 57.4746 37.6111 57.5469 37.8103 57.625C38.0759 57.7266 38.3142 57.832 38.5251 57.9414C38.7361 58.0469 38.9158 58.168 39.0642 58.3047C39.2126 58.4375 39.3259 58.5918 39.4041 58.7676C39.4861 58.9434 39.5271 59.1523 39.5271 59.3945C39.5271 59.6914 39.4607 59.9492 39.3279 60.168C39.199 60.3867 39.0251 60.5684 38.8064 60.7129C38.5876 60.8574 38.3357 60.9648 38.0505 61.0352C37.7654 61.1055 37.4666 61.1406 37.1541 61.1406C36.5369 61.1406 36.0017 61.0215 35.5486 60.7832ZM43.7927 60.9414C43.5662 61.0664 43.2673 61.1289 42.8962 61.1289C41.8455 61.1289 41.3201 60.543 41.3201 59.3711V55.8203H40.2888V55H41.3201V53.5352L42.281 53.2246V55H43.7927V55.8203H42.281V59.2012C42.281 59.6035 42.3494 59.8906 42.4861 60.0625C42.6228 60.2344 42.8494 60.3203 43.1658 60.3203C43.408 60.3203 43.6169 60.2539 43.7927 60.1211V60.9414Z" fill="#323130"/>
<path d="M61.001 51.6236C61.001 51.2784 61.2808 50.9985 61.6261 50.9985H70.3775C70.7227 50.9985 71.0026 51.2784 71.0026 51.6236V60.3751C71.0026 60.7203 70.7227 61.0002 70.3775 61.0002H61.6261C61.2808 61.0002 61.001 60.7203 61.001 60.3751V51.6236Z" fill="#9A44FC"/>
<path d="M75.7124 60.6602V59.5C75.8452 59.6172 76.0034 59.7227 76.187 59.8164C76.3745 59.9102 76.5698 59.9902 76.7729 60.0566C76.98 60.1191 77.187 60.168 77.394 60.2031C77.6011 60.2383 77.7925 60.2559 77.9683 60.2559C78.5737 60.2559 79.0249 60.1445 79.3218 59.9219C79.6226 59.6953 79.7729 59.3711 79.7729 58.9492C79.7729 58.7227 79.7222 58.5254 79.6206 58.3574C79.5229 58.1895 79.3862 58.0371 79.2104 57.9004C79.0347 57.7598 78.8257 57.627 78.5835 57.502C78.3452 57.373 78.0874 57.2383 77.8101 57.0977C77.5171 56.9492 77.2437 56.7988 76.9897 56.6465C76.7358 56.4941 76.5151 56.3262 76.3276 56.1426C76.1401 55.959 75.9917 55.752 75.8823 55.5215C75.7769 55.2871 75.7241 55.0137 75.7241 54.7012C75.7241 54.3184 75.8081 53.9863 75.9761 53.7051C76.144 53.4199 76.3647 53.1855 76.6382 53.002C76.9116 52.8184 77.2222 52.6816 77.5698 52.5918C77.9214 52.502 78.2788 52.457 78.6421 52.457C79.4702 52.457 80.0737 52.5566 80.4526 52.7559V53.8633C79.9565 53.5195 79.3198 53.3477 78.5425 53.3477C78.3276 53.3477 78.1128 53.3711 77.8979 53.418C77.6831 53.4609 77.4917 53.5332 77.3237 53.6348C77.1558 53.7363 77.019 53.8672 76.9136 54.0273C76.8081 54.1875 76.7554 54.3828 76.7554 54.6133C76.7554 54.8281 76.7944 55.0137 76.8726 55.1699C76.9546 55.3262 77.0737 55.4688 77.23 55.5977C77.3862 55.7266 77.5757 55.8516 77.7983 55.9727C78.0249 56.0938 78.2847 56.2266 78.5776 56.3711C78.8784 56.5195 79.1636 56.6758 79.4331 56.8398C79.7026 57.0039 79.939 57.1855 80.1421 57.3848C80.3452 57.584 80.5054 57.8047 80.6226 58.0469C80.7437 58.2891 80.8042 58.5664 80.8042 58.8789C80.8042 59.293 80.7222 59.6445 80.5581 59.9336C80.3979 60.2188 80.1792 60.4512 79.9019 60.6309C79.6284 60.8105 79.312 60.9395 78.9526 61.0176C78.5933 61.0996 78.2144 61.1406 77.8159 61.1406C77.6831 61.1406 77.519 61.1289 77.3237 61.1055C77.1284 61.0859 76.9292 61.0547 76.7261 61.0117C76.5229 60.9727 76.3296 60.9238 76.146 60.8652C75.9663 60.8027 75.8218 60.7344 75.7124 60.6602ZM87.1733 58.2402H82.937C82.9526 58.9082 83.1323 59.4238 83.4761 59.7871C83.8198 60.1504 84.2925 60.332 84.894 60.332C85.5698 60.332 86.1909 60.1094 86.7573 59.6641V60.5664C86.23 60.9492 85.5327 61.1406 84.6655 61.1406C83.8179 61.1406 83.1519 60.8691 82.6675 60.3262C82.1831 59.7793 81.9409 59.0117 81.9409 58.0234C81.9409 57.0898 82.2046 56.3301 82.7319 55.7441C83.2632 55.1543 83.9214 54.8594 84.7065 54.8594C85.4917 54.8594 86.0991 55.1133 86.5288 55.6211C86.9585 56.1289 87.1733 56.834 87.1733 57.7363V58.2402ZM86.189 57.4258C86.1851 56.8711 86.0503 56.4395 85.7847 56.1309C85.5229 55.8223 85.1577 55.668 84.689 55.668C84.2358 55.668 83.8511 55.8301 83.5347 56.1543C83.2183 56.4785 83.0229 56.9023 82.9487 57.4258H86.189ZM92.7222 60.7246C92.2612 61.002 91.7144 61.1406 91.0815 61.1406C90.2261 61.1406 89.5347 60.8633 89.0073 60.3086C88.4839 59.75 88.2222 59.0273 88.2222 58.1406C88.2222 57.1523 88.5054 56.3594 89.0718 55.7617C89.6382 55.1602 90.394 54.8594 91.3394 54.8594C91.8667 54.8594 92.3315 54.957 92.7339 55.1523V56.1367C92.2886 55.8242 91.812 55.668 91.3042 55.668C90.6909 55.668 90.187 55.8887 89.7925 56.3301C89.4019 56.7676 89.2065 57.3438 89.2065 58.0586C89.2065 58.7617 89.3901 59.3164 89.7573 59.7227C90.1284 60.1289 90.6245 60.332 91.2456 60.332C91.769 60.332 92.2612 60.1582 92.7222 59.8105V60.7246ZM96.6831 61.1406C95.7964 61.1406 95.0874 60.8613 94.5562 60.3027C94.0288 59.7402 93.7651 58.9961 93.7651 58.0703C93.7651 57.0625 94.0405 56.2754 94.5913 55.709C95.1421 55.1426 95.8862 54.8594 96.8237 54.8594C97.7183 54.8594 98.4155 55.1348 98.9155 55.6855C99.4194 56.2363 99.6714 57 99.6714 57.9766C99.6714 58.9336 99.3999 59.7012 98.8569 60.2793C98.3179 60.8535 97.5933 61.1406 96.6831 61.1406ZM96.7534 55.668C96.1362 55.668 95.6479 55.8789 95.2886 56.3008C94.9292 56.7188 94.7495 57.2969 94.7495 58.0352C94.7495 58.7461 94.9312 59.3066 95.2944 59.7168C95.6577 60.127 96.144 60.332 96.7534 60.332C97.3745 60.332 97.8511 60.1309 98.1831 59.7285C98.519 59.3262 98.687 58.7539 98.687 58.0117C98.687 57.2617 98.519 56.6836 98.1831 56.2773C97.8511 55.8711 97.3745 55.668 96.7534 55.668ZM106.187 61H105.226V57.5781C105.226 56.3047 104.761 55.668 103.832 55.668C103.351 55.668 102.953 55.8496 102.636 56.2129C102.324 56.5723 102.167 57.0273 102.167 57.5781V61H101.207V55H102.167V55.9961H102.191C102.644 55.2383 103.3 54.8594 104.16 54.8594C104.816 54.8594 105.318 55.0723 105.666 55.498C106.013 55.9199 106.187 56.5312 106.187 57.332V61ZM113.125 61H112.164V59.9805H112.14C111.695 60.7539 111.007 61.1406 110.078 61.1406C109.324 61.1406 108.72 60.873 108.267 60.3379C107.818 59.7988 107.593 59.0664 107.593 58.1406C107.593 57.1484 107.843 56.3535 108.343 55.7559C108.843 55.1582 109.509 54.8594 110.341 54.8594C111.166 54.8594 111.765 55.1836 112.14 55.832H112.164V52.1172H113.125V61ZM112.164 58.2871V57.4023C112.164 56.918 112.003 56.5078 111.683 56.1719C111.363 55.8359 110.957 55.668 110.464 55.668C109.878 55.668 109.417 55.8828 109.082 56.3125C108.746 56.7422 108.578 57.3359 108.578 58.0938C108.578 58.7852 108.738 59.332 109.058 59.7344C109.382 60.1328 109.816 60.332 110.359 60.332C110.894 60.332 111.328 60.1387 111.66 59.752C111.996 59.3652 112.164 58.877 112.164 58.2871Z" fill="#323130"/>
<path d="M131.002 51.6236C131.002 51.2784 131.282 50.9985 131.628 50.9985H140.379C140.724 50.9985 141.004 51.2784 141.004 51.6236V60.3751C141.004 60.7203 140.724 61.0002 140.379 61.0002H131.628C131.282 61.0002 131.002 60.7203 131.002 60.3751V51.6236Z" fill="#3483FA"/>
<path d="M151.075 53.4883H148.649V61H147.665V53.4883H145.245V52.5977H151.075V53.4883ZM157.251 61H156.29V57.543C156.29 56.293 155.825 55.668 154.896 55.668C154.427 55.668 154.032 55.8496 153.712 56.2129C153.392 56.5723 153.231 57.0352 153.231 57.6016V61H152.271V52.1172H153.231V55.9961H153.255C153.716 55.2383 154.372 54.8594 155.224 54.8594C156.575 54.8594 157.251 55.6738 157.251 57.3027V61ZM159.56 53.4766C159.388 53.4766 159.241 53.418 159.12 53.3008C158.999 53.1836 158.938 53.0352 158.938 52.8555C158.938 52.6758 158.999 52.5273 159.12 52.4102C159.241 52.2891 159.388 52.2285 159.56 52.2285C159.735 52.2285 159.884 52.2891 160.005 52.4102C160.13 52.5273 160.192 52.6758 160.192 52.8555C160.192 53.0273 160.13 53.1738 160.005 53.2949C159.884 53.416 159.735 53.4766 159.56 53.4766ZM160.028 61H159.067V55H160.028V61ZM165.103 55.9727C164.935 55.8438 164.692 55.7793 164.376 55.7793C163.966 55.7793 163.622 55.9727 163.345 56.3594C163.071 56.7461 162.935 57.2734 162.935 57.9414V61H161.974V55H162.935V56.2363H162.958C163.095 55.8145 163.304 55.4863 163.585 55.252C163.866 55.0137 164.181 54.8945 164.528 54.8945C164.778 54.8945 164.97 54.9219 165.103 54.9766V55.9727ZM171.267 61H170.306V59.9805H170.282C169.837 60.7539 169.149 61.1406 168.22 61.1406C167.466 61.1406 166.862 60.873 166.409 60.3379C165.96 59.7988 165.735 59.0664 165.735 58.1406C165.735 57.1484 165.985 56.3535 166.485 55.7559C166.985 55.1582 167.651 54.8594 168.483 54.8594C169.308 54.8594 169.907 55.1836 170.282 55.832H170.306V52.1172H171.267V61ZM170.306 58.2871V57.4023C170.306 56.918 170.146 56.5078 169.825 56.1719C169.505 55.8359 169.099 55.668 168.606 55.668C168.021 55.668 167.56 55.8828 167.224 56.3125C166.888 56.7422 166.72 57.3359 166.72 58.0938C166.72 58.7852 166.88 59.332 167.2 59.7344C167.524 60.1328 167.958 60.332 168.501 60.332C169.036 60.332 169.47 60.1387 169.802 59.752C170.138 59.3652 170.306 58.877 170.306 58.2871Z" fill="#323130"/>
<path d="M189.004 51.6236C189.004 51.2784 189.284 50.9985 189.629 50.9985H198.381C198.726 50.9985 199.006 51.2784 199.006 51.6236V60.3751C199.006 60.7203 198.726 61.0002 198.381 61.0002H189.629C189.284 61.0002 189.004 60.7203 189.004 60.3751V51.6236Z" fill="#EBA800"/>
<path d="M208.374 53.4883H205.092V56.3945H208.128V57.2793H205.092V61H204.108V52.5977H208.374V53.4883ZM212.346 61.1406C211.46 61.1406 210.751 60.8613 210.219 60.3027C209.692 59.7402 209.428 58.9961 209.428 58.0703C209.428 57.0625 209.704 56.2754 210.255 55.709C210.805 55.1426 211.549 54.8594 212.487 54.8594C213.381 54.8594 214.079 55.1348 214.579 55.6855C215.083 56.2363 215.335 57 215.335 57.9766C215.335 58.9336 215.063 59.7012 214.52 60.2793C213.981 60.8535 213.256 61.1406 212.346 61.1406ZM212.417 55.668C211.799 55.668 211.311 55.8789 210.952 56.3008C210.592 56.7188 210.413 57.2969 210.413 58.0352C210.413 58.7461 210.594 59.3066 210.958 59.7168C211.321 60.127 211.807 60.332 212.417 60.332C213.038 60.332 213.514 60.1309 213.846 59.7285C214.182 59.3262 214.35 58.7539 214.35 58.0117C214.35 57.2617 214.182 56.6836 213.846 56.2773C213.514 55.8711 213.038 55.668 212.417 55.668ZM221.721 61H220.76V60.0508H220.737C220.339 60.7773 219.721 61.1406 218.885 61.1406C217.456 61.1406 216.741 60.2891 216.741 58.5859V55H217.696V58.4336C217.696 59.6992 218.18 60.332 219.149 60.332C219.618 60.332 220.003 60.1602 220.303 59.8164C220.608 59.4688 220.76 59.0156 220.76 58.457V55H221.721V61ZM226.796 55.9727C226.628 55.8438 226.385 55.7793 226.069 55.7793C225.659 55.7793 225.315 55.9727 225.038 56.3594C224.764 56.7461 224.628 57.2734 224.628 57.9414V61H223.667V55H224.628V56.2363H224.651C224.788 55.8145 224.997 55.4863 225.278 55.252C225.559 55.0137 225.874 54.8945 226.221 54.8945C226.471 54.8945 226.663 54.9219 226.796 54.9766V55.9727ZM230.622 60.9414C230.395 61.0664 230.096 61.1289 229.725 61.1289C228.674 61.1289 228.149 60.543 228.149 59.3711V55.8203H227.118V55H228.149V53.5352L229.11 53.2246V55H230.622V55.8203H229.11V59.2012C229.11 59.6035 229.178 59.8906 229.315 60.0625C229.452 60.2344 229.678 60.3203 229.995 60.3203C230.237 60.3203 230.446 60.2539 230.622 60.1211V60.9414ZM236.885 61H235.924V57.543C235.924 56.293 235.46 55.668 234.53 55.668C234.061 55.668 233.667 55.8496 233.346 56.2129C233.026 56.5723 232.866 57.0352 232.866 57.6016V61H231.905V52.1172H232.866V55.9961H232.889C233.35 55.2383 234.006 54.8594 234.858 54.8594C236.21 54.8594 236.885 55.6738 236.885 57.3027V61Z" fill="#323130"/>
<defs>
<clipPath id="clip0_2_8099">
<rect width="578.366" height="16" fill="white" transform="translate(0 20)"/>
</clipPath>
</defs>
</svg>
