<svg width="38" height="57" viewBox="0 0 38 57" fill="none" xmlns="http://www.w3.org/2000/svg">
<path opacity="0.15" d="M36.4739 8.0625H1.36923C0.610919 8.0625 0.000976562 8.67244 0.000976562 9.43075V55.2341C0.000976562 55.9925 0.610919 56.6024 1.36923 56.6024H36.4739C37.2322 56.6024 37.8421 55.9925 37.8421 55.2341V9.43075C37.8339 8.67244 37.2157 8.0625 36.4739 8.0625Z" fill="#1F1D20"/>
<path d="M36.4739 7.0293H1.36923C0.610919 7.0293 0.000976562 7.63924 0.000976562 8.39755V54.2009C0.000976562 54.9593 0.610919 55.5692 1.36923 55.5692H36.4739C37.2322 55.5692 37.8421 54.9593 37.8421 54.2009V8.39755C37.8339 7.63924 37.2157 7.0293 36.4739 7.0293Z" fill="url(#paint0_linear_2898_44358)"/>
<path fill-rule="evenodd" clip-rule="evenodd" d="M21.2828 0.715629C22.6016 1.408 23.3764 2.8257 23.3764 4.30935V4.67201C23.3764 4.88315 23.5372 5.06765 23.7484 5.06765H26.2036C27.0526 5.06765 27.8521 5.49626 28.2807 6.22984C29.4841 8.33991 28.0005 10.483 26.0058 10.483H11.6227C10.7737 10.483 9.97414 10.0543 9.54553 9.32077C8.34213 7.21069 9.82578 5.06765 11.8205 5.06765H14.0788C14.293 5.06765 14.4663 4.88622 14.4663 4.67201V4.55662C14.4663 1.34206 17.8787 -1.08123 21.2828 0.715629Z" fill="#002D4C"/>
<path d="M18.9172 6.64099C19.931 6.64099 20.7553 5.81674 20.7553 4.80292C20.7553 3.78909 19.931 2.96484 18.9172 2.96484C17.9034 2.96484 17.0791 3.78909 17.0791 4.80292C17.0791 5.81674 17.9034 6.64099 18.9172 6.64099Z" fill="#F2F2F2"/>
<path opacity="0.15" d="M14.4165 17.8908C14.7124 17.5943 14.7122 17.1142 14.416 16.818C14.1196 16.5216 13.6391 16.5216 13.3427 16.818L9.31691 20.8438C8.87472 21.286 8.15736 21.2846 7.71686 20.8407L7.45373 20.5756C7.15838 20.278 6.67742 20.2771 6.38094 20.5735C6.08526 20.8692 6.08526 21.3486 6.38094 21.6443L7.18592 22.4493C7.92668 23.19 9.12785 23.1895 9.8679 22.448L14.4165 17.8908Z" fill="#1F1D20"/>
<path opacity="0.15" d="M14.4165 29.8869C14.7124 29.5904 14.7122 29.1103 14.416 28.8141C14.1196 28.5177 13.6391 28.5177 13.3427 28.8141L9.31691 32.8399C8.87472 33.2821 8.15736 33.2807 7.71686 32.8368L7.45373 32.5717C7.15838 32.2741 6.67742 32.2732 6.38094 32.5696C6.08526 32.8653 6.08526 33.3447 6.38094 33.6404L7.18592 34.4454C7.92668 35.1861 9.12785 35.1856 9.8679 34.4441L14.4165 29.8869Z" fill="#1F1D20"/>
<path opacity="0.15" d="M14.4149 41.9918C14.7115 41.6958 14.7117 41.2154 14.4154 40.9191C14.1193 40.623 13.6393 40.623 13.3432 40.9191L9.32298 44.9392C8.87743 45.3848 8.15462 45.3834 7.71074 44.9362L7.44152 44.6649C7.14617 44.3673 6.66521 44.3664 6.36874 44.6629C6.07305 44.9586 6.07305 45.438 6.36874 45.7337L7.17498 46.5399C7.91544 47.2804 9.1158 47.281 9.85696 46.5412L14.4149 41.9918Z" fill="#1F1D20"/>
<path d="M14.4165 17.465C14.7124 17.1685 14.7122 16.6884 14.416 16.3922C14.1196 16.0958 13.6391 16.0958 13.3427 16.3922L9.31691 20.418C8.87472 20.8602 8.15736 20.8588 7.71686 20.4149L7.45373 20.1498C7.15838 19.8522 6.67742 19.8513 6.38094 20.1478C6.08526 20.4434 6.08526 20.9228 6.38094 21.2185L7.18592 22.0235C7.92668 22.7643 9.12785 22.7637 9.8679 22.0222L14.4165 17.465Z" fill="#35AFE4"/>
<path d="M14.4165 29.4611C14.7124 29.1646 14.7122 28.6845 14.416 28.3883C14.1196 28.0919 13.6391 28.0919 13.3427 28.3883L9.31691 32.4141C8.87472 32.8563 8.15736 32.8549 7.71686 32.411L7.45373 32.1459C7.15838 31.8483 6.67742 31.8474 6.38094 32.1439C6.08526 32.4395 6.08526 32.9189 6.38094 33.2146L7.18592 34.0196C7.92668 34.7603 9.12785 34.7598 9.8679 34.0183L14.4165 29.4611Z" fill="#2E76BC"/>
<path d="M14.4149 41.5661C14.7115 41.27 14.7117 40.7896 14.4154 40.4933C14.1193 40.1972 13.6393 40.1972 13.3432 40.4933L9.32298 44.5135C8.87743 44.959 8.15462 44.9576 7.71074 44.5104L7.44152 44.2392C7.14617 43.9416 6.66521 43.9407 6.36874 44.2371C6.07305 44.5328 6.07305 45.0122 6.36874 45.3079L7.17498 46.1141C7.91544 46.8546 9.1158 46.8552 9.85696 46.1154L14.4149 41.5661Z" fill="url(#paint1_linear_2898_44358)"/>
<path d="M32.5639 17.4023H18.1707C17.5391 17.4023 17.0405 17.9342 17.0405 18.5325C17.0405 19.1641 17.5724 19.6627 18.1707 19.6627H32.5639C33.1955 19.6627 33.6941 19.1309 33.6941 18.5325C33.6941 17.901 33.1955 17.4023 32.5639 17.4023Z" fill="#45CAF2"/>
<path d="M32.5639 22.3203H18.1707C17.5391 22.3203 17.0405 22.8522 17.0405 23.4505C17.0405 24.0821 17.5724 24.5807 18.1707 24.5807H32.5639C33.1955 24.5807 33.6941 24.0488 33.6941 23.4505C33.6941 22.8522 33.1955 22.3203 32.5639 22.3203Z" fill="#0078D4"/>
<path fill-rule="evenodd" clip-rule="evenodd" d="M18.1707 27.6406H25.3507C25.9823 27.6406 26.4809 28.1725 26.4809 28.7708C26.4809 29.4024 25.949 29.901 25.3507 29.901H18.1707C17.5391 29.901 17.0405 29.3691 17.0405 28.7708C17.0405 28.1392 17.5391 27.6406 18.1707 27.6406Z" fill="#185A97"/>
<defs>
<linearGradient id="paint0_linear_2898_44358" x1="18.6414" y1="58.7259" x2="19.3421" y2="9.7967" gradientUnits="userSpaceOnUse">
<stop offset="0.3831" stop-color="#D2EBFF"/>
<stop offset="1" stop-color="#F0FFFD"/>
</linearGradient>
<linearGradient id="paint1_linear_2898_44358" x1="10.1316" y1="39.4742" x2="48.7328" y2="58.3732" gradientUnits="userSpaceOnUse">
<stop stop-color="#15548F"/>
<stop offset="0.4179" stop-color="#243A5E"/>
<stop offset="0.9677" stop-color="#1A2C45"/>
</linearGradient>
</defs>
</svg>
