<svg id="ICONS-64x" xmlns="http://www.w3.org/2000/svg" viewBox="0 0 64 64"><defs><style>.cls-1{fill:#fff;stroke:#556a8a;stroke-miterlimit:10;stroke-width:2px}</style></defs><path class="cls-1" d="M1 7v54h62V7z"/><path class="cls-1" d="M38.5 3A7.9 7.9 0 0032 6a7.9 7.9 0 00-6.5-3H8v51h17.5a6.88 6.88 0 015 2.43C31.15 57.16 32 58 32 58s.85-.84 1.5-1.57a6.88 6.88 0 015-2.43H56V3z"/><path d="M9 4h8v49H9zm38 0h8v49h-8z" fill="#e5e5e5"/><path d="M33 6.34V55.5l-.25.27-.75.8c-.24-.25-.51-.53-.75-.8L31 55.5V6.33z" fill="#2bc7f4"/></svg>