<svg xmlns="http://www.w3.org/2000/svg" viewBox="0 0 400 140"><defs><style>.cls-2{fill:#556a8a}.cls-3,.cls-7,.cls-8{fill:#fff}.cls-4{fill:#e5e5e5}.cls-7,.cls-8{stroke:#556a8a;stroke-miterlimit:10;stroke-width:2px}.cls-8{stroke:#505c6d}</style></defs><g id="ICONS"><path d="M254.1 66.69a39.37 39.37 0 00-77.71-1.23 26.79 26.79 0 00-43 13.62 23.42 23.42 0 10-5.56 46.16h131.74C272.94 122.52 283 110.12 283 96a29.27 29.27 0 00-28.9-29.31z" fill="#80def9" opacity=".7"/><path class="cls-2" d="M186 95.06L163.45 116h-6.44l9.66-27.38 10.65-4.83L186 95.06zm18.01 0L226.56 116H233l-9.66-27.38-10.65-4.83-8.68 11.27zm-2 24.94h-14l3-10h8l3 10z"/><path class="cls-3" d="M195 23s-21.33 27.54-21 48.32c.36 21.65 11.17 35.29 11.27 35.43h19.33c.1-.14 10.92-13.78 11.27-35.43C216.23 50.54 195 23 195 23z"/><path class="cls-4" d="M215.29 72.08a62 62 0 01-10.63 34.3l-.24.34h-9.66l-.24-.34a62.15 62.15 0 01-10.63-34.3c-.11-6.62 2-14 5-20.92a131.36 131.36 0 0110.69-19.62 131.36 131.36 0 0110.69 19.62c2.98 6.95 5.13 14.31 5.02 20.92z"/><path d="M179 51l.3-.7a142 142 0 0114.52-25.24l1.07-1.46 1.11 1.46a142.08 142.08 0 0114.47 25.24l.3.7z" fill="#83d9e0"/><path d="M195 23.25s-21.33 27.55-21 48.32c.36 21.65 11.17 35.29 11.27 35.43h19.33c.1-.14 10.92-13.78 11.27-35.43C216.23 50.8 195 23.25 195 23.25z" stroke-width="2" stroke-miterlimit="10" stroke="#556a8a" fill="none"/><circle class="cls-7" cx="194.36" cy="63.24" r="8.05"/><path class="cls-2" d="M187 107h16v4h-16z"/><path class="cls-8" d="M135.6 58.23v-.5a20 20 0 00-.65-5A18 18 0 00105.41 40C101 34.5 95.46 31.76 88 31.76c-13.15 0-23.08 11.48-23.3 24.41 0 .89.22 1.56.22 2.45C58 62 54 67.76 54 75.12c0 10.52 8.27 18.94 19.23 19.56 1 7.3 7.55 14.08 18.77 14.08 9.46 0 15.1.76 22-7a23.25 23.25 0 0011 3c13.25 0 24-11.75 24-25a24 24 0 00-13.4-21.53z"/><path fill-rule="evenodd" fill="#3a96dd" d="M319.23 11.11L339.58 31H330v49h-21V31h-10l20.23-19.89z"/><path d="M312.5 31v49-49zm7-10v59-59zm4 21v38-38zm3-13v51-51z" opacity=".6" stroke="#fff" fill-rule="evenodd" stroke-miterlimit="10" fill="none"/><path d="M312.5 27l3.5 4h-7l3.5-4zm15-3l4.5 6h-9l4.5-6zm-8-8l4.5 5h-9l4.5-5zm4 20l5 6h-10l5-6z" opacity=".6" fill-rule="evenodd" fill="#fff"/><path class="cls-8" d="M317.6 58.23v-.5a20 20 0 00-.65-5A18 18 0 00287.41 40c-4.41-5.5-9.95-8.24-17.41-8.24-13.15 0-23.08 11.48-23.3 24.41 0 .89.22 1.56.22 2.45C240 62 236 67.76 236 75.12c0 10.52 8.27 18.94 19.23 19.56 1 7.3 7.55 14.08 18.77 14.08 9.46 0 15.1.76 22-7a23.25 23.25 0 0011 3c13.25 0 24-11.75 24-25a24 24 0 00-13.4-21.53z"/><path d="M120 72.76h-5v-20l3-3.88-3-9.12h-4l-3 9 3 4v20h-5v5h3c0 1.87-2 4.14-3 4.22v11.63c0 3.09 2 6.15 4 6.15h6c2 0 4-3.53 4-6.62V81.9c-1 0-3-2.27-3-4.14h3z" fill="#3a96dd"/><path class="cls-3" d="M110 79.76h2v17h-2zm4 0h2v17h-2z"/><path class="cls-7" d="M100 50.76a12 12 0 00-7-10.91v7.91l-5 4-5-4v-7.91a12 12 0 000 21.81v35.1a4 4 0 004 4h1a4 4 0 004-4v-34.7a12 12 0 008-11.3z"/><path class="cls-4" d="M84 90.76h7v5h-7z"/><path class="cls-7" d="M255 74l4 .6a15.58 15.58 0 00.41 2.74l-3.32 2.14a1.05 1.05 0 00-.59 1.43l1 2.46a.91.91 0 001.29.44l4-.85 1.28 2.18-2.32 3.15a1.07 1.07 0 000 1.44l2 2a1.3 1.3 0 001.44 0l3.18-2.28c.72.43 1.58 1 2.29 1.45l-.89 4a1 1 0 00.56 1.16l2.45 1a.92.92 0 001.3-.41l2.19-3.6a8.41 8.41 0 002.58.6l.55 4a1 1 0 001 1l2.74-.14c.43.14.87-.29 1-.71l.76-4.18a8.68 8.68 0 002.59-.55l2.14 3.6a1.43 1.43 0 001.29.44l2.6-1.13a1 1 0 00.59-1.14l-1-3.91a5.09 5.09 0 00.56-.38c.12-.08.24-.17.36-.27.42-.32.85-.67 1.26-.92l3.29 2.47a.92.92 0 001.3-.13l1.21-1.19.67-.67a.93.93 0 00.13-1.27l-2.42-3.33a11.82 11.82 0 001.6-2.44l4 1.17a1.28 1.28 0 001.31-.7l1-2.45a1.25 1.25 0 00-.56-1.44l-3.45-2c.3-.86.3-1.73.59-2.58l4-.55a1.27 1.27 0 00.87-1.15v-2.55a1.22 1.22 0 00-.84-1.16l-3.99-.46a16.44 16.44 0 00-.55-2.89l3.55-2.13a.92.92 0 00.45-1.3l-1-2.45a1.34 1.34 0 00-1.29-.73l-4 1.12c-.42-.72-.85-1.45-1.28-2.17l2.47-3.29a1.33 1.33 0 00-.14-1.3l-2-2a1.08 1.08 0 00-1.29-.15l-3.33 2.44c-.72-.45-1.57-1-2.3-1.46l.88-4a1 1 0 00-.56-1.15L290 46.24a1.24 1.24 0 00-1.3.42l-2 3.46c-.86 0-1.73-.3-2.59-.32l-.4-4.18a1.26 1.26 0 00-1.15-.86l-2.74-.16a1.69 1.69 0 00-1 1l-.61 4c-1 .14-1.87.42-2.88.55l-2-3.46a1 1 0 00-1.3-.44l-2.45 1a1.17 1.17 0 00-.74 1.29l1 3.9a9.3 9.3 0 00-2.17 1.56l-3.3-2.47a1 1 0 00-1.45 0l-1.73 1.71-.15.14a1 1 0 000 1.44l2.42 3.33a6.45 6.45 0 00-1.23 1.67l-.11.2c-.09.18-.18.37-.26.57l-4-1.17a1 1 0 00-1.15.56l-1.17 2.59a1.46 1.46 0 00.42 1.3l3.59 2.18a7.14 7.14 0 00-.46 2.45l-4.18.68c-.42.15-.86.58-.86.87L254 73a1 1 0 001 1z"/><path d="M267.16 65.91a15 15 0 11-1.16 5.85 14.82 14.82 0 011.16-5.85z" fill="#00b7c3"/><path stroke="#fff" fill-rule="evenodd" stroke-width="2" stroke-miterlimit="10" fill="none" d="M270.24 71.86l7.75 7.75 14.25-14.25"/></g></svg>