<svg width="16" height="16" viewBox="0 0 16 16" fill="none" xmlns="http://www.w3.org/2000/svg">
<path d="M9.72361 5.0529C9.9706 5.17639 10.0707 5.47673 9.94721 5.72372L6.94721 11.7237C6.82372 11.9707 6.52338 12.0708 6.27639 11.9473C6.0294 11.8238 5.92929 11.5235 6.05279 11.2765L9.05279 5.2765C9.17628 5.02951 9.47662 4.9294 9.72361 5.0529Z" fill="url(#paint0_linear_2921_3653)"/>
<path d="M10.6464 9.64656C10.4512 9.84182 10.4512 10.1584 10.6464 10.3537C10.8417 10.5489 11.1583 10.5489 11.3536 10.3537L12.8536 8.85366C13.0488 8.6584 13.0488 8.34182 12.8536 8.14656L11.3536 6.64656C11.1583 6.45129 10.8417 6.45129 10.6464 6.64656C10.4512 6.84182 10.4512 7.1584 10.6464 7.35366L11.7929 8.50011L10.6464 9.64656Z" fill="url(#paint1_linear_2921_3653)"/>
<path d="M5.35355 7.35366C5.54882 7.1584 5.54882 6.84182 5.35355 6.64656C5.15829 6.45129 4.84171 6.45129 4.64645 6.64656L3.14645 8.14656C2.95118 8.34182 2.95118 8.6584 3.14645 8.85366L4.64645 10.3537C4.84171 10.5489 5.15829 10.5489 5.35355 10.3537C5.54882 10.1584 5.54882 9.84182 5.35355 9.64656L4.20711 8.50011L5.35355 7.35366Z" fill="url(#paint2_linear_2921_3653)"/>
<path d="M3 1C1.89543 1 1 1.89543 1 3V13C1 14.1046 1.89543 15 3 15H13C14.1046 15 15 14.1046 15 13V5.12132C15 4.59089 14.7893 4.08218 14.4142 3.70711L12.2929 1.58579C11.9178 1.21071 11.4091 1 10.8787 1H3ZM2 3C2 2.44772 2.44771 2 3 2H10.8787C11.1439 2 11.3983 2.10536 11.5858 2.29289L13.7071 4.41421C13.8946 4.60175 14 4.8561 14 5.12132V13C14 13.5523 13.5523 14 13 14H3C2.44772 14 2 13.5523 2 13V3Z" fill="url(#paint3_linear_2921_3653)"/>
<defs>
<linearGradient id="paint0_linear_2921_3653" x1="8" y1="2.5" x2="11.5152" y2="15.3158" gradientUnits="userSpaceOnUse">
<stop stop-color="#A572FF"/>
<stop offset="1" stop-color="#165FE0"/>
</linearGradient>
<linearGradient id="paint1_linear_2921_3653" x1="8" y1="2.5" x2="11.5152" y2="15.3158" gradientUnits="userSpaceOnUse">
<stop stop-color="#A572FF"/>
<stop offset="1" stop-color="#165FE0"/>
</linearGradient>
<linearGradient id="paint2_linear_2921_3653" x1="8" y1="2.5" x2="11.5152" y2="15.3158" gradientUnits="userSpaceOnUse">
<stop stop-color="#A572FF"/>
<stop offset="1" stop-color="#165FE0"/>
</linearGradient>
<linearGradient id="paint3_linear_2921_3653" x1="8" y1="2.5" x2="11.5152" y2="15.3158" gradientUnits="userSpaceOnUse">
<stop stop-color="#A572FF"/>
<stop offset="1" stop-color="#165FE0"/>
</linearGradient>
</defs>
</svg>
