<svg width="16" height="16" viewBox="0 0 16 16" fill="none" xmlns="http://www.w3.org/2000/svg">
<path d="M1 5.5C1 4.11929 2.11929 3 3.5 3H12.5C13.8807 3 15 4.11929 15 5.5V8.33692C14.7161 7.93379 14.3794 7.57052 14 7.25716V5.5C14 4.67157 13.3284 4 12.5 4H3.5C2.67157 4 2 4.67157 2 5.5V10.5C2 11.3284 2.67157 12 3.5 12H5.02242C5.05337 12.3434 5.11588 12.6777 5.20703 13H3.5C2.11929 13 1 11.8807 1 10.5V5.5Z" fill="url(#paint0_linear_2921_3657)"/>
<path d="M8.06536 8.44209C8.36865 9.52325 7.72265 10.6421 6.6347 10.9201L6.17365 11.0378C6.15867 11.1898 6.15099 11.344 6.15099 11.5C6.15099 11.6876 6.1621 11.8726 6.18366 12.0542L6.53322 12.1369C7.65266 12.4016 8.31864 13.5537 7.9893 14.6558L7.86297 15.0786C8.12015 15.2819 8.39989 15.4561 8.69762 15.5965L9.02261 15.2524C9.81243 14.4161 11.1432 14.4168 11.9321 15.254L12.2695 15.6119C12.5619 15.477 12.8373 15.3096 13.0913 15.1143L12.9352 14.5577C12.6319 13.4765 13.2779 12.3576 14.3659 12.0797L14.8264 11.962C14.8414 11.8101 14.849 11.656 14.849 11.5C14.849 11.3122 14.8379 11.1271 14.8163 10.9454L14.4673 10.8629C13.3479 10.5982 12.6819 9.44605 13.0112 8.3439L13.1374 7.92161C12.8802 7.71832 12.6004 7.54405 12.3026 7.40353L11.9779 7.74732C11.1881 8.58361 9.85736 8.58291 9.06843 7.74579L8.73106 7.38782C8.43863 7.5227 8.16325 7.69 7.90916 7.8853L8.06536 8.44209ZM10.5 12.5C9.94773 12.5 9.50001 12.0523 9.50001 11.5C9.50001 10.9477 9.94773 10.5 10.5 10.5C11.0523 10.5 11.5 10.9477 11.5 11.5C11.5 12.0523 11.0523 12.5 10.5 12.5Z" fill="url(#paint1_linear_2921_3657)"/>
<defs>
<linearGradient id="paint0_linear_2921_3657" x1="8" y1="4.35128" x2="10.8908" y2="16.0507" gradientUnits="userSpaceOnUse">
<stop stop-color="#A572FF"/>
<stop offset="1" stop-color="#165FE0"/>
</linearGradient>
<linearGradient id="paint1_linear_2921_3657" x1="8" y1="4.35128" x2="10.8908" y2="16.0507" gradientUnits="userSpaceOnUse">
<stop stop-color="#A572FF"/>
<stop offset="1" stop-color="#165FE0"/>
</linearGradient>
</defs>
</svg>
