<svg width="1920" height="360" viewBox="0 0 1920 360" fill="none" xmlns="http://www.w3.org/2000/svg">
<rect width="1920" height="359.059" fill="#F5F5F5"/>
<g clip-path="url(#clip0_35_27254)">
<rect x="690" y="15" width="539" height="36" fill="#742774"/>
<rect x="690" y="9" width="150" height="48" fill="#742774"/>
<rect x="690" y="9" width="48" height="48" fill="#742774"/>
<path d="M707.5 25C707.708 25 707.904 25.0391 708.086 25.1172C708.268 25.1953 708.427 25.3021 708.562 25.4375C708.698 25.5729 708.805 25.7318 708.883 25.9141C708.961 26.0964 709 26.2917 709 26.5C709 26.7083 708.961 26.9036 708.883 27.0859C708.805 27.2682 708.698 27.4271 708.562 27.5625C708.427 27.6979 708.268 27.8047 708.086 27.8828C707.904 27.9609 707.708 28 707.5 28C707.292 28 707.096 27.9609 706.914 27.8828C706.732 27.8047 706.573 27.6979 706.438 27.5625C706.302 27.4271 706.195 27.2682 706.117 27.0859C706.039 26.9036 706 26.7083 706 26.5C706 26.2917 706.039 26.0964 706.117 25.9141C706.195 25.7318 706.302 25.5729 706.438 25.4375C706.573 25.3021 706.732 25.1953 706.914 25.1172C707.096 25.0391 707.292 25 707.5 25ZM713.5 25C713.708 25 713.904 25.0391 714.086 25.1172C714.268 25.1953 714.427 25.3021 714.562 25.4375C714.698 25.5729 714.805 25.7318 714.883 25.9141C714.961 26.0964 715 26.2917 715 26.5C715 26.7083 714.961 26.9036 714.883 27.0859C714.805 27.2682 714.698 27.4271 714.562 27.5625C714.427 27.6979 714.268 27.8047 714.086 27.8828C713.904 27.9609 713.708 28 713.5 28C713.292 28 713.096 27.9609 712.914 27.8828C712.732 27.8047 712.573 27.6979 712.438 27.5625C712.302 27.4271 712.195 27.2682 712.117 27.0859C712.039 26.9036 712 26.7083 712 26.5C712 26.2917 712.039 26.0964 712.117 25.9141C712.195 25.7318 712.302 25.5729 712.438 25.4375C712.573 25.3021 712.732 25.1953 712.914 25.1172C713.096 25.0391 713.292 25 713.5 25ZM719.5 28C719.292 28 719.096 27.9609 718.914 27.8828C718.732 27.8047 718.573 27.6979 718.438 27.5625C718.302 27.4271 718.195 27.2682 718.117 27.0859C718.039 26.9036 718 26.7083 718 26.5C718 26.2917 718.039 26.0964 718.117 25.9141C718.195 25.7318 718.302 25.5729 718.438 25.4375C718.573 25.3021 718.732 25.1953 718.914 25.1172C719.096 25.0391 719.292 25 719.5 25C719.708 25 719.904 25.0391 720.086 25.1172C720.268 25.1953 720.427 25.3021 720.562 25.4375C720.698 25.5729 720.805 25.7318 720.883 25.9141C720.961 26.0964 721 26.2917 721 26.5C721 26.7083 720.961 26.9036 720.883 27.0859C720.805 27.2682 720.698 27.4271 720.562 27.5625C720.427 27.6979 720.268 27.8047 720.086 27.8828C719.904 27.9609 719.708 28 719.5 28ZM707.5 31C707.708 31 707.904 31.0391 708.086 31.1172C708.268 31.1953 708.427 31.3021 708.562 31.4375C708.698 31.5729 708.805 31.7318 708.883 31.9141C708.961 32.0964 709 32.2917 709 32.5C709 32.7083 708.961 32.9036 708.883 33.0859C708.805 33.2682 708.698 33.4271 708.562 33.5625C708.427 33.6979 708.268 33.8047 708.086 33.8828C707.904 33.9609 707.708 34 707.5 34C707.292 34 707.096 33.9609 706.914 33.8828C706.732 33.8047 706.573 33.6979 706.438 33.5625C706.302 33.4271 706.195 33.2682 706.117 33.0859C706.039 32.9036 706 32.7083 706 32.5C706 32.2917 706.039 32.0964 706.117 31.9141C706.195 31.7318 706.302 31.5729 706.438 31.4375C706.573 31.3021 706.732 31.1953 706.914 31.1172C707.096 31.0391 707.292 31 707.5 31ZM713.5 31C713.708 31 713.904 31.0391 714.086 31.1172C714.268 31.1953 714.427 31.3021 714.562 31.4375C714.698 31.5729 714.805 31.7318 714.883 31.9141C714.961 32.0964 715 32.2917 715 32.5C715 32.7083 714.961 32.9036 714.883 33.0859C714.805 33.2682 714.698 33.4271 714.562 33.5625C714.427 33.6979 714.268 33.8047 714.086 33.8828C713.904 33.9609 713.708 34 713.5 34C713.292 34 713.096 33.9609 712.914 33.8828C712.732 33.8047 712.573 33.6979 712.438 33.5625C712.302 33.4271 712.195 33.2682 712.117 33.0859C712.039 32.9036 712 32.7083 712 32.5C712 32.2917 712.039 32.0964 712.117 31.9141C712.195 31.7318 712.302 31.5729 712.438 31.4375C712.573 31.3021 712.732 31.1953 712.914 31.1172C713.096 31.0391 713.292 31 713.5 31ZM719.5 31C719.708 31 719.904 31.0391 720.086 31.1172C720.268 31.1953 720.427 31.3021 720.562 31.4375C720.698 31.5729 720.805 31.7318 720.883 31.9141C720.961 32.0964 721 32.2917 721 32.5C721 32.7083 720.961 32.9036 720.883 33.0859C720.805 33.2682 720.698 33.4271 720.562 33.5625C720.427 33.6979 720.268 33.8047 720.086 33.8828C719.904 33.9609 719.708 34 719.5 34C719.292 34 719.096 33.9609 718.914 33.8828C718.732 33.8047 718.573 33.6979 718.438 33.5625C718.302 33.4271 718.195 33.2682 718.117 33.0859C718.039 32.9036 718 32.7083 718 32.5C718 32.2917 718.039 32.0964 718.117 31.9141C718.195 31.7318 718.302 31.5729 718.438 31.4375C718.573 31.3021 718.732 31.1953 718.914 31.1172C719.096 31.0391 719.292 31 719.5 31ZM707.5 37C707.708 37 707.904 37.0391 708.086 37.1172C708.268 37.1953 708.427 37.3021 708.562 37.4375C708.698 37.5729 708.805 37.7318 708.883 37.9141C708.961 38.0964 709 38.2917 709 38.5C709 38.7083 708.961 38.9036 708.883 39.0859C708.805 39.2682 708.698 39.4271 708.562 39.5625C708.427 39.6979 708.268 39.8047 708.086 39.8828C707.904 39.9609 707.708 40 707.5 40C707.292 40 707.096 39.9609 706.914 39.8828C706.732 39.8047 706.573 39.6979 706.438 39.5625C706.302 39.4271 706.195 39.2682 706.117 39.0859C706.039 38.9036 706 38.7083 706 38.5C706 38.2917 706.039 38.0964 706.117 37.9141C706.195 37.7318 706.302 37.5729 706.438 37.4375C706.573 37.3021 706.732 37.1953 706.914 37.1172C707.096 37.0391 707.292 37 707.5 37ZM713.5 37C713.708 37 713.904 37.0391 714.086 37.1172C714.268 37.1953 714.427 37.3021 714.562 37.4375C714.698 37.5729 714.805 37.7318 714.883 37.9141C714.961 38.0964 715 38.2917 715 38.5C715 38.7083 714.961 38.9036 714.883 39.0859C714.805 39.2682 714.698 39.4271 714.562 39.5625C714.427 39.6979 714.268 39.8047 714.086 39.8828C713.904 39.9609 713.708 40 713.5 40C713.292 40 713.096 39.9609 712.914 39.8828C712.732 39.8047 712.573 39.6979 712.438 39.5625C712.302 39.4271 712.195 39.2682 712.117 39.0859C712.039 38.9036 712 38.7083 712 38.5C712 38.2917 712.039 38.0964 712.117 37.9141C712.195 37.7318 712.302 37.5729 712.438 37.4375C712.573 37.3021 712.732 37.1953 712.914 37.1172C713.096 37.0391 713.292 37 713.5 37ZM719.5 37C719.708 37 719.904 37.0391 720.086 37.1172C720.268 37.1953 720.427 37.3021 720.562 37.4375C720.698 37.5729 720.805 37.7318 720.883 37.9141C720.961 38.0964 721 38.2917 721 38.5C721 38.7083 720.961 38.9036 720.883 39.0859C720.805 39.2682 720.698 39.4271 720.562 39.5625C720.427 39.6979 720.268 39.8047 720.086 39.8828C719.904 39.9609 719.708 40 719.5 40C719.292 40 719.096 39.9609 718.914 39.8828C718.732 39.8047 718.573 39.6979 718.438 39.5625C718.302 39.4271 718.195 39.2682 718.117 39.0859C718.039 38.9036 718 38.7083 718 38.5C718 38.2917 718.039 38.0964 718.117 37.9141C718.195 37.7318 718.302 37.5729 718.438 37.4375C718.573 37.3021 718.732 37.1953 718.914 37.1172C719.096 37.0391 719.292 37 719.5 37Z" fill="white"/>
<rect x="737" y="25" width="69" height="17" rx="8.5" fill="#953B95"/>
<path fill-rule="evenodd" clip-rule="evenodd" d="M1060.96 39C1064.27 39 1066.96 36.3137 1066.96 33C1066.96 29.6863 1064.27 27 1060.96 27C1057.64 27 1054.96 29.6863 1054.96 33C1054.96 36.3137 1057.64 39 1060.96 39Z" fill="#953B95"/>
<path fill-rule="evenodd" clip-rule="evenodd" d="M1108.96 39C1112.27 39 1114.96 36.3137 1114.96 33C1114.96 29.6863 1112.27 27 1108.96 27C1105.64 27 1102.96 29.6863 1102.96 33C1102.96 36.3137 1105.64 39 1108.96 39Z" fill="#953B95"/>
<path fill-rule="evenodd" clip-rule="evenodd" d="M1156.96 39C1160.27 39 1162.96 36.3137 1162.96 33C1162.96 29.6863 1160.27 27 1156.96 27C1153.64 27 1150.96 29.6863 1150.96 33C1150.96 36.3137 1153.64 39 1156.96 39Z" fill="#953B95"/>
<rect x="1181" y="9" width="48" height="48" fill="#742774"/>
<path d="M1191 33C1191 25.268 1197.27 19 1205 19V19C1212.73 19 1219 25.268 1219 33V33C1219 40.732 1212.73 47 1205 47V47C1197.27 47 1191 40.732 1191 33V33Z" fill="#953B95"/>
<path d="M1205 25C1202.79 25 1201 26.7909 1201 29C1201 31.2091 1202.79 33 1205 33C1207.21 33 1209 31.2091 1209 29C1209 26.7909 1207.21 25 1205 25ZM1202 29C1202 27.3431 1203.34 26 1205 26C1206.66 26 1208 27.3431 1208 29C1208 30.6569 1206.66 32 1205 32C1203.34 32 1202 30.6569 1202 29ZM1200.01 34C1198.9 34 1198 34.8869 1198 36C1198 37.6912 1198.83 38.9663 1200.13 39.7966C1201.42 40.614 1203.15 41 1205 41C1206.85 41 1208.58 40.614 1209.87 39.7966C1211.17 38.9663 1212 37.6912 1212 36C1212 34.8956 1211.1 34 1210 34L1200.01 34ZM1199 36C1199 35.4467 1199.45 35 1200.01 35L1210 35C1210.55 35 1211 35.4478 1211 36C1211 37.3088 1210.38 38.2837 1209.33 38.9534C1208.26 39.636 1206.74 40 1205 40C1203.26 40 1201.74 39.636 1200.67 38.9534C1199.62 38.2837 1199 37.3088 1199 36Z" fill="#DF65DF"/>
</g>
<rect x="690" y="15" width="539" height="36" stroke="#FF0000" stroke-width="3" stroke-dasharray="10 10"/>
<g clip-path="url(#clip1_35_27254)">
<rect x="690" y="59" width="150" height="285" fill="#EBEBEB"/>
<rect x="739" y="75" width="79" height="17" rx="8.5" fill="#D9D9D9"/>
<rect x="706" y="75" width="24" height="17" rx="8.5" fill="#D9D9D9"/>
<rect x="739" y="111" width="61" height="17" rx="8.5" fill="#D9D9D9"/>
<rect x="706" y="111" width="24" height="17" rx="8.5" fill="#D9D9D9"/>
<rect x="739" y="147" width="54" height="17" rx="8.5" fill="#D9D9D9"/>
<rect x="706" y="147" width="24" height="17" rx="8.5" fill="#D9D9D9"/>
<rect x="739" y="183" width="59" height="17" rx="8.5" fill="#D9D9D9"/>
<rect x="706" y="183" width="24" height="17" rx="8.5" fill="#D9D9D9"/>
<rect x="739" y="219" width="65" height="17" rx="8.5" fill="#D9D9D9"/>
<rect x="706" y="219" width="24" height="17" rx="8.5" fill="#D9D9D9"/>
<rect x="739" y="255" width="57" height="17" rx="8.5" fill="#D9D9D9"/>
<rect x="706" y="255" width="24" height="17" rx="8.5" fill="#D9D9D9"/>
<rect x="739" y="291" width="84" height="17" rx="8.5" fill="#D9D9D9"/>
<rect x="706" y="291" width="24" height="17" rx="8.5" fill="#D9D9D9"/>
<rect x="739" y="327" width="62" height="17" rx="8.5" fill="#D9D9D9"/>
<rect x="706" y="327" width="24" height="17" rx="8.5" fill="#D9D9D9"/>
</g>
<rect x="691.5" y="60.5" width="147" height="282" stroke="#FF0000" stroke-width="3" stroke-dasharray="10 10"/>
<rect x="849.5" y="60.5" width="375" height="282" fill="white"/>
<rect x="849.5" y="60.5" width="375" height="282" stroke="#FF0000" stroke-width="3" stroke-dasharray="10 10"/>
<circle cx="769.5" cy="229.5" r="31.5" fill="black"/>
<path d="M776.645 241H764.34V239.482C764.34 238.863 764.426 238.284 764.6 237.746C764.773 237.199 765.005 236.689 765.297 236.215C765.589 235.732 765.93 235.281 766.322 234.861C766.714 234.433 767.133 234.023 767.58 233.631C768.027 233.23 768.482 232.847 768.947 232.482C769.412 232.109 769.868 231.735 770.314 231.361C770.734 231.006 771.117 230.66 771.463 230.322C771.809 229.976 772.105 229.62 772.352 229.256C772.598 228.891 772.789 228.508 772.926 228.107C773.062 227.697 773.131 227.255 773.131 226.781C773.131 226.262 773.049 225.811 772.885 225.428C772.73 225.036 772.507 224.712 772.215 224.457C771.932 224.193 771.595 223.997 771.203 223.869C770.811 223.732 770.383 223.664 769.918 223.664C769.116 223.664 768.3 223.851 767.471 224.225C766.641 224.598 765.844 225.159 765.078 225.906V222.857C765.479 222.557 765.885 222.297 766.295 222.078C766.705 221.85 767.129 221.663 767.566 221.518C768.004 221.363 768.464 221.249 768.947 221.176C769.43 221.103 769.945 221.066 770.492 221.066C771.376 221.066 772.178 221.185 772.898 221.422C773.618 221.65 774.234 221.992 774.744 222.447C775.255 222.894 775.646 223.454 775.92 224.129C776.202 224.803 776.344 225.578 776.344 226.453C776.344 227.246 776.243 227.962 776.043 228.6C775.852 229.229 775.574 229.816 775.209 230.363C774.854 230.91 774.421 231.43 773.91 231.922C773.4 232.414 772.83 232.92 772.201 233.439C771.673 233.868 771.144 234.287 770.615 234.697C770.096 235.098 769.626 235.495 769.207 235.887C768.788 236.27 768.446 236.657 768.182 237.049C767.926 237.432 767.799 237.819 767.799 238.211V238.279H776.645V241Z" fill="white"/>
<circle cx="1042.5" cy="231.5" r="31.5" fill="black"/>
<path d="M1037.68 242.275V239.295C1038.96 240.307 1040.4 240.812 1042 240.812C1043.31 240.812 1044.34 240.516 1045.12 239.924C1045.9 239.331 1046.29 238.529 1046.29 237.518C1046.29 235.294 1044.6 234.182 1041.2 234.182H1039.68V231.639H1041.13C1044.14 231.639 1045.65 230.59 1045.65 228.494C1045.65 226.562 1044.48 225.596 1042.12 225.596C1040.81 225.596 1039.58 226.065 1038.42 227.004V224.188C1039.75 223.44 1041.32 223.066 1043.14 223.066C1044.88 223.066 1046.27 223.504 1047.32 224.379C1048.37 225.254 1048.89 226.375 1048.89 227.742C1048.89 230.322 1047.58 231.98 1044.96 232.719V232.773C1046.37 232.91 1047.48 233.407 1048.3 234.264C1049.12 235.111 1049.54 236.173 1049.54 237.449C1049.54 239.208 1048.87 240.63 1047.55 241.715C1046.23 242.79 1044.49 243.328 1042.33 243.328C1040.39 243.328 1038.84 242.977 1037.68 242.275Z" fill="white"/>
<line x1="908" y1="34" x2="907" y2="85" stroke="#FF0000" stroke-width="3"/>
<circle cx="908.5" cy="113.5" r="31.5" fill="black"/>
<path d="M910.408 104.957V125H907.236V108.84C906.662 109.25 906.042 109.601 905.377 109.893C904.721 110.175 903.969 110.426 903.121 110.645V107.938C903.65 107.764 904.16 107.582 904.652 107.391C905.145 107.199 905.628 106.985 906.102 106.748C906.585 106.511 907.068 106.247 907.551 105.955C908.043 105.663 908.549 105.331 909.068 104.957H910.408Z" fill="white"/>
<circle cx="908" cy="32" r="5" fill="#FF0000"/>
<defs>
<clipPath id="clip0_35_27254">
<rect x="690" y="15" width="539" height="36" fill="white"/>
</clipPath>
<clipPath id="clip1_35_27254">
<rect x="690" y="59" width="150" height="285" fill="white"/>
</clipPath>
</defs>
</svg>
