<svg width="1920" height="500" viewBox="0 0 1920 500" fill="none" xmlns="http://www.w3.org/2000/svg">
<rect width="1920" height="500" fill="#F5F5F5"/>
<g filter="url(#filter0_dd_47_107765)">
<rect x="429" y="33" width="612" height="434" rx="16" fill="#616161"/>
<rect x="438.533" y="43" width="592" height="414" rx="8" fill="black"/>
</g>
<g clip-path="url(#clip0_47_107765)">
<g clip-path="url(#clip1_47_107765)">
<rect width="593" height="36" transform="translate(438 43)" fill="#742774"/>
<rect x="438" y="37" width="150" height="48" fill="#742774"/>
<rect x="438" y="37" width="48" height="48" fill="#742774"/>
<path d="M455.5 53C455.708 53 455.904 53.0391 456.086 53.1172C456.268 53.1953 456.427 53.3021 456.562 53.4375C456.698 53.5729 456.805 53.7318 456.883 53.9141C456.961 54.0964 457 54.2917 457 54.5C457 54.7083 456.961 54.9036 456.883 55.0859C456.805 55.2682 456.698 55.4271 456.562 55.5625C456.427 55.6979 456.268 55.8047 456.086 55.8828C455.904 55.9609 455.708 56 455.5 56C455.292 56 455.096 55.9609 454.914 55.8828C454.732 55.8047 454.573 55.6979 454.438 55.5625C454.302 55.4271 454.195 55.2682 454.117 55.0859C454.039 54.9036 454 54.7083 454 54.5C454 54.2917 454.039 54.0964 454.117 53.9141C454.195 53.7318 454.302 53.5729 454.438 53.4375C454.573 53.3021 454.732 53.1953 454.914 53.1172C455.096 53.0391 455.292 53 455.5 53ZM461.5 53C461.708 53 461.904 53.0391 462.086 53.1172C462.268 53.1953 462.427 53.3021 462.562 53.4375C462.698 53.5729 462.805 53.7318 462.883 53.9141C462.961 54.0964 463 54.2917 463 54.5C463 54.7083 462.961 54.9036 462.883 55.0859C462.805 55.2682 462.698 55.4271 462.562 55.5625C462.427 55.6979 462.268 55.8047 462.086 55.8828C461.904 55.9609 461.708 56 461.5 56C461.292 56 461.096 55.9609 460.914 55.8828C460.732 55.8047 460.573 55.6979 460.438 55.5625C460.302 55.4271 460.195 55.2682 460.117 55.0859C460.039 54.9036 460 54.7083 460 54.5C460 54.2917 460.039 54.0964 460.117 53.9141C460.195 53.7318 460.302 53.5729 460.438 53.4375C460.573 53.3021 460.732 53.1953 460.914 53.1172C461.096 53.0391 461.292 53 461.5 53ZM467.5 56C467.292 56 467.096 55.9609 466.914 55.8828C466.732 55.8047 466.573 55.6979 466.438 55.5625C466.302 55.4271 466.195 55.2682 466.117 55.0859C466.039 54.9036 466 54.7083 466 54.5C466 54.2917 466.039 54.0964 466.117 53.9141C466.195 53.7318 466.302 53.5729 466.438 53.4375C466.573 53.3021 466.732 53.1953 466.914 53.1172C467.096 53.0391 467.292 53 467.5 53C467.708 53 467.904 53.0391 468.086 53.1172C468.268 53.1953 468.427 53.3021 468.562 53.4375C468.698 53.5729 468.805 53.7318 468.883 53.9141C468.961 54.0964 469 54.2917 469 54.5C469 54.7083 468.961 54.9036 468.883 55.0859C468.805 55.2682 468.698 55.4271 468.562 55.5625C468.427 55.6979 468.268 55.8047 468.086 55.8828C467.904 55.9609 467.708 56 467.5 56ZM455.5 59C455.708 59 455.904 59.0391 456.086 59.1172C456.268 59.1953 456.427 59.3021 456.562 59.4375C456.698 59.5729 456.805 59.7318 456.883 59.9141C456.961 60.0964 457 60.2917 457 60.5C457 60.7083 456.961 60.9036 456.883 61.0859C456.805 61.2682 456.698 61.4271 456.562 61.5625C456.427 61.6979 456.268 61.8047 456.086 61.8828C455.904 61.9609 455.708 62 455.5 62C455.292 62 455.096 61.9609 454.914 61.8828C454.732 61.8047 454.573 61.6979 454.438 61.5625C454.302 61.4271 454.195 61.2682 454.117 61.0859C454.039 60.9036 454 60.7083 454 60.5C454 60.2917 454.039 60.0964 454.117 59.9141C454.195 59.7318 454.302 59.5729 454.438 59.4375C454.573 59.3021 454.732 59.1953 454.914 59.1172C455.096 59.0391 455.292 59 455.5 59ZM461.5 59C461.708 59 461.904 59.0391 462.086 59.1172C462.268 59.1953 462.427 59.3021 462.562 59.4375C462.698 59.5729 462.805 59.7318 462.883 59.9141C462.961 60.0964 463 60.2917 463 60.5C463 60.7083 462.961 60.9036 462.883 61.0859C462.805 61.2682 462.698 61.4271 462.562 61.5625C462.427 61.6979 462.268 61.8047 462.086 61.8828C461.904 61.9609 461.708 62 461.5 62C461.292 62 461.096 61.9609 460.914 61.8828C460.732 61.8047 460.573 61.6979 460.438 61.5625C460.302 61.4271 460.195 61.2682 460.117 61.0859C460.039 60.9036 460 60.7083 460 60.5C460 60.2917 460.039 60.0964 460.117 59.9141C460.195 59.7318 460.302 59.5729 460.438 59.4375C460.573 59.3021 460.732 59.1953 460.914 59.1172C461.096 59.0391 461.292 59 461.5 59ZM467.5 59C467.708 59 467.904 59.0391 468.086 59.1172C468.268 59.1953 468.427 59.3021 468.562 59.4375C468.698 59.5729 468.805 59.7318 468.883 59.9141C468.961 60.0964 469 60.2917 469 60.5C469 60.7083 468.961 60.9036 468.883 61.0859C468.805 61.2682 468.698 61.4271 468.562 61.5625C468.427 61.6979 468.268 61.8047 468.086 61.8828C467.904 61.9609 467.708 62 467.5 62C467.292 62 467.096 61.9609 466.914 61.8828C466.732 61.8047 466.573 61.6979 466.438 61.5625C466.302 61.4271 466.195 61.2682 466.117 61.0859C466.039 60.9036 466 60.7083 466 60.5C466 60.2917 466.039 60.0964 466.117 59.9141C466.195 59.7318 466.302 59.5729 466.438 59.4375C466.573 59.3021 466.732 59.1953 466.914 59.1172C467.096 59.0391 467.292 59 467.5 59ZM455.5 65C455.708 65 455.904 65.0391 456.086 65.1172C456.268 65.1953 456.427 65.3021 456.562 65.4375C456.698 65.5729 456.805 65.7318 456.883 65.9141C456.961 66.0964 457 66.2917 457 66.5C457 66.7083 456.961 66.9036 456.883 67.0859C456.805 67.2682 456.698 67.4271 456.562 67.5625C456.427 67.6979 456.268 67.8047 456.086 67.8828C455.904 67.9609 455.708 68 455.5 68C455.292 68 455.096 67.9609 454.914 67.8828C454.732 67.8047 454.573 67.6979 454.438 67.5625C454.302 67.4271 454.195 67.2682 454.117 67.0859C454.039 66.9036 454 66.7083 454 66.5C454 66.2917 454.039 66.0964 454.117 65.9141C454.195 65.7318 454.302 65.5729 454.438 65.4375C454.573 65.3021 454.732 65.1953 454.914 65.1172C455.096 65.0391 455.292 65 455.5 65ZM461.5 65C461.708 65 461.904 65.0391 462.086 65.1172C462.268 65.1953 462.427 65.3021 462.562 65.4375C462.698 65.5729 462.805 65.7318 462.883 65.9141C462.961 66.0964 463 66.2917 463 66.5C463 66.7083 462.961 66.9036 462.883 67.0859C462.805 67.2682 462.698 67.4271 462.562 67.5625C462.427 67.6979 462.268 67.8047 462.086 67.8828C461.904 67.9609 461.708 68 461.5 68C461.292 68 461.096 67.9609 460.914 67.8828C460.732 67.8047 460.573 67.6979 460.438 67.5625C460.302 67.4271 460.195 67.2682 460.117 67.0859C460.039 66.9036 460 66.7083 460 66.5C460 66.2917 460.039 66.0964 460.117 65.9141C460.195 65.7318 460.302 65.5729 460.438 65.4375C460.573 65.3021 460.732 65.1953 460.914 65.1172C461.096 65.0391 461.292 65 461.5 65ZM467.5 65C467.708 65 467.904 65.0391 468.086 65.1172C468.268 65.1953 468.427 65.3021 468.562 65.4375C468.698 65.5729 468.805 65.7318 468.883 65.9141C468.961 66.0964 469 66.2917 469 66.5C469 66.7083 468.961 66.9036 468.883 67.0859C468.805 67.2682 468.698 67.4271 468.562 67.5625C468.427 67.6979 468.268 67.8047 468.086 67.8828C467.904 67.9609 467.708 68 467.5 68C467.292 68 467.096 67.9609 466.914 67.8828C466.732 67.8047 466.573 67.6979 466.438 67.5625C466.302 67.4271 466.195 67.2682 466.117 67.0859C466.039 66.9036 466 66.7083 466 66.5C466 66.2917 466.039 66.0964 466.117 65.9141C466.195 65.7318 466.302 65.5729 466.438 65.4375C466.573 65.3021 466.732 65.1953 466.914 65.1172C467.096 65.0391 467.292 65 467.5 65Z" fill="white"/>
<rect x="485" y="53" width="69" height="17" rx="8.5" fill="#953B95"/>
<path fill-rule="evenodd" clip-rule="evenodd" d="M862.956 67C866.27 67 868.956 64.3137 868.956 61C868.956 57.6863 866.27 55 862.956 55C859.642 55 856.956 57.6863 856.956 61C856.956 64.3137 859.642 67 862.956 67Z" fill="#953B95"/>
<path fill-rule="evenodd" clip-rule="evenodd" d="M910.956 67C914.27 67 916.956 64.3137 916.956 61C916.956 57.6863 914.27 55 910.956 55C907.642 55 904.956 57.6863 904.956 61C904.956 64.3137 907.642 67 910.956 67Z" fill="#953B95"/>
<path fill-rule="evenodd" clip-rule="evenodd" d="M958.956 67C962.27 67 964.956 64.3137 964.956 61C964.956 57.6863 962.27 55 958.956 55C955.642 55 952.956 57.6863 952.956 61C952.956 64.3137 955.642 67 958.956 67Z" fill="#953B95"/>
<rect x="983" y="37" width="48" height="48" fill="#742774"/>
<path d="M993 61C993 53.268 999.268 47 1007 47C1014.73 47 1021 53.268 1021 61C1021 68.732 1014.73 75 1007 75C999.268 75 993 68.732 993 61Z" fill="#953B95"/>
<path d="M1007 53C1004.79 53 1003 54.7909 1003 57C1003 59.2091 1004.79 61 1007 61C1009.21 61 1011 59.2091 1011 57C1011 54.7909 1009.21 53 1007 53ZM1004 57C1004 55.3431 1005.34 54 1007 54C1008.66 54 1010 55.3431 1010 57C1010 58.6569 1008.66 60 1007 60C1005.34 60 1004 58.6569 1004 57ZM1002.01 62C1000.9 62 1000 62.8869 1000 64C1000 65.6912 1000.83 66.9663 1002.13 67.7966C1003.42 68.614 1005.15 69 1007 69C1008.85 69 1010.58 68.614 1011.87 67.7966C1013.17 66.9663 1014 65.6912 1014 64C1014 62.8956 1013.1 62 1012 62L1002.01 62ZM1001 64C1001 63.4467 1001.45 63 1002.01 63L1012 63C1012.55 63 1013 63.4478 1013 64C1013 65.3088 1012.38 66.2837 1011.33 66.9534C1010.26 67.636 1008.74 68 1007 68C1005.26 68 1003.74 67.636 1002.67 66.9534C1001.62 66.2837 1001 65.3088 1001 64Z" fill="#DF65DF"/>
</g>
<g clip-path="url(#clip2_47_107765)">
<rect width="49" height="379" transform="translate(438 79)" fill="#EBEBEB"/>
<path d="M454.5 99.75C454.5 99.3358 454.836 99 455.25 99H469.75C470.164 99 470.5 99.3358 470.5 99.75C470.5 100.164 470.164 100.5 469.75 100.5H455.25C454.836 100.5 454.5 100.164 454.5 99.75ZM454.5 104.75C454.5 104.336 454.836 104 455.25 104H469.75C470.164 104 470.5 104.336 470.5 104.75C470.5 105.164 470.164 105.5 469.75 105.5H455.25C454.836 105.5 454.5 105.164 454.5 104.75ZM455.25 109C454.836 109 454.5 109.336 454.5 109.75C454.5 110.164 454.836 110.5 455.25 110.5H469.75C470.164 110.5 470.5 110.164 470.5 109.75C470.5 109.336 470.164 109 469.75 109H455.25Z" fill="#818181"/>
<rect x="454.5" y="134" width="17" height="17" rx="8.5" fill="#D9D9D9"/>
<rect x="454.5" y="169" width="16" height="16" rx="8" fill="#D9D9D9"/>
<rect x="454.5" y="204" width="16" height="16" rx="8" fill="#D9D9D9"/>
<rect x="454.5" y="239" width="16" height="16" rx="8" fill="#D9D9D9"/>
<rect x="454.5" y="274" width="16" height="16" rx="8" fill="#D9D9D9"/>
<rect x="454.5" y="309" width="16" height="16" rx="8" fill="#D9D9D9"/>
<rect x="454.5" y="344" width="16" height="16" rx="8" fill="#D9D9D9"/>
<rect x="454.5" y="379" width="16" height="16" rx="8" fill="#D9D9D9"/>
</g>
<rect width="544" height="379" transform="translate(487 79)" fill="#FAFAFA"/>
<g filter="url(#filter1_dd_47_107765)">
<g clip-path="url(#clip3_47_107765)">
<rect x="503" y="129" width="135" height="293" rx="8" fill="#F5ECF5"/>
<path d="M521 179L521 424.5" stroke="#ECD1EC"/>
<rect x="511.5" y="161.5" width="19" height="19" rx="9.5" fill="#ECD1EC"/>
<rect x="511.5" y="161.5" width="19" height="19" rx="9.5" stroke="white"/>
<path d="M521 166C519.895 166 519 166.895 519 168C519 169.105 519.895 170 521 170C522.105 170 523 169.105 523 168C523 166.895 522.105 166 521 166ZM523.5 171L518.5 171C517.672 171 517 171.672 517 172.5C517 173.616 517.459 174.51 518.212 175.115C518.953 175.71 519.947 176 521 176C522.053 176 523.047 175.71 523.788 175.115C524.541 174.51 525 173.616 525 172.5C525 171.672 524.328 171 523.5 171Z" fill="#E1ADE1"/>
<rect x="543" y="167.5" width="74" height="7" rx="3.5" fill="#E6E6E6"/>
<rect x="511.5" y="197.5" width="19" height="19" rx="9.5" fill="#E8D0FB"/>
<rect x="511.5" y="197.5" width="19" height="19" rx="9.5" stroke="white"/>
<path d="M521 202C519.895 202 519 202.895 519 204C519 205.105 519.895 206 521 206C522.105 206 523 205.105 523 204C523 202.895 522.105 202 521 202ZM523.5 207L518.5 207C517.672 207 517 207.672 517 208.5C517 209.616 517.459 210.51 518.212 211.115C518.953 211.71 519.947 212 521 212C522.053 212 523.047 211.71 523.788 211.115C524.541 210.51 525 209.616 525 208.5C525 207.672 524.328 207 523.5 207Z" fill="#D6AEFB"/>
<rect x="543" y="203.5" width="74" height="7" rx="3.5" fill="#E6E6E6"/>
<rect x="511.5" y="233.5" width="19" height="19" rx="9.5" fill="#FEF6EC"/>
<rect x="511.5" y="233.5" width="19" height="19" rx="9.5" stroke="white"/>
<path d="M521 238C519.895 238 519 238.895 519 240C519 241.105 519.895 242 521 242C522.105 242 523 241.105 523 240C523 238.895 522.105 238 521 238ZM523.5 243L518.5 243C517.672 243 517 243.672 517 244.5C517 245.616 517.459 246.51 518.212 247.115C518.953 247.71 519.947 248 521 248C522.053 248 523.047 247.71 523.788 247.115C524.541 246.51 525 245.616 525 244.5C525 243.672 524.328 243 523.5 243Z" fill="#F7CB8D"/>
<rect x="543" y="239.5" width="74" height="7" rx="3.5" fill="#E6E6E6"/>
<rect x="511.5" y="269.5" width="19" height="19" rx="9.5" fill="#D9D7FF"/>
<rect x="511.5" y="269.5" width="19" height="19" rx="9.5" stroke="white"/>
<path d="M521 274C519.895 274 519 274.895 519 276C519 277.105 519.895 278 521 278C522.105 278 523 277.105 523 276C523 274.895 522.105 274 521 274ZM523.5 279L518.5 279C517.672 279 517 279.672 517 280.5C517 281.616 517.459 282.51 518.212 283.115C518.953 283.71 519.947 284 521 284C522.053 284 523.047 283.71 523.788 283.115C524.541 282.51 525 281.616 525 280.5C525 279.672 524.328 279 523.5 279Z" fill="#BDB9FF"/>
<rect x="543" y="275.5" width="74" height="7" rx="3.5" fill="#E6E6E6"/>
<rect x="511.5" y="305.5" width="19" height="19" rx="9.5" fill="#E8D0FB"/>
<rect x="511.5" y="305.5" width="19" height="19" rx="9.5" stroke="white"/>
<path d="M521 310C519.895 310 519 310.895 519 312C519 313.105 519.895 314 521 314C522.105 314 523 313.105 523 312C523 310.895 522.105 310 521 310ZM523.5 315L518.5 315C517.672 315 517 315.672 517 316.5C517 317.616 517.459 318.51 518.212 319.115C518.953 319.71 519.947 320 521 320C522.053 320 523.047 319.71 523.788 319.115C524.541 318.51 525 317.616 525 316.5C525 315.672 524.328 315 523.5 315Z" fill="#D6AEFB"/>
<rect x="543" y="311.5" width="74" height="7" rx="3.5" fill="#E6E6E6"/>
<rect x="511.5" y="341.5" width="19" height="19" rx="9.5" fill="#ECD1EC"/>
<rect x="511.5" y="341.5" width="19" height="19" rx="9.5" stroke="white"/>
<path d="M521 346C519.895 346 519 346.895 519 348C519 349.105 519.895 350 521 350C522.105 350 523 349.105 523 348C523 346.895 522.105 346 521 346ZM523.5 351L518.5 351C517.672 351 517 351.672 517 352.5C517 353.616 517.459 354.51 518.212 355.115C518.953 355.71 519.947 356 521 356C522.053 356 523.047 355.71 523.788 355.115C524.541 354.51 525 353.616 525 352.5C525 351.672 524.328 351 523.5 351Z" fill="#E1ADE1"/>
<rect x="543" y="347.5" width="74" height="7" rx="3.5" fill="#E6E6E6"/>
<rect x="511.5" y="377.5" width="19" height="19" rx="9.5" fill="#FEF6EC"/>
<rect x="511.5" y="377.5" width="19" height="19" rx="9.5" stroke="white"/>
<path d="M521 382C519.895 382 519 382.895 519 384C519 385.105 519.895 386 521 386C522.105 386 523 385.105 523 384C523 382.895 522.105 382 521 382ZM523.5 387L518.5 387C517.672 387 517 387.672 517 388.5C517 389.616 517.459 390.51 518.212 391.115C518.953 391.71 519.947 392 521 392C522.053 392 523.047 391.71 523.788 391.115C524.541 390.51 525 389.616 525 388.5C525 387.672 524.328 387 523.5 387Z" fill="#F7CB8D"/>
<rect x="543" y="383.5" width="74" height="7" rx="3.5" fill="#E6E6E6"/>
<rect x="511" y="141" width="63" height="6" rx="3" fill="#ECD1EC"/>
</g>
</g>
<g filter="url(#filter2_dd_47_107765)">
<g clip-path="url(#clip4_47_107765)">
<rect x="654" y="129" width="200" height="120" rx="8" fill="#F4EBFD"/>
<g opacity="0.8">
<mask id="path-49-outside-1_47_107765" maskUnits="userSpaceOnUse" x="703" y="138" width="100" height="100" fill="black">
<rect fill="white" x="703" y="138" width="100" height="100"/>
<path d="M801 188C801 214.51 779.51 236 753 236C726.49 236 705 214.51 705 188C705 161.49 726.49 140 753 140C779.51 140 801 161.49 801 188ZM721.855 188C721.855 205.201 735.799 219.145 753 219.145C770.201 219.145 784.145 205.201 784.145 188C784.145 170.799 770.201 156.855 753 156.855C735.799 156.855 721.855 170.799 721.855 188Z"/>
</mask>
<path d="M801 188C801 214.51 779.51 236 753 236C726.49 236 705 214.51 705 188C705 161.49 726.49 140 753 140C779.51 140 801 161.49 801 188ZM721.855 188C721.855 205.201 735.799 219.145 753 219.145C770.201 219.145 784.145 205.201 784.145 188C784.145 170.799 770.201 156.855 753 156.855C735.799 156.855 721.855 170.799 721.855 188Z" fill="#A967E4"/>
<path d="M801 188C801 214.51 779.51 236 753 236C726.49 236 705 214.51 705 188C705 161.49 726.49 140 753 140C779.51 140 801 161.49 801 188ZM721.855 188C721.855 205.201 735.799 219.145 753 219.145C770.201 219.145 784.145 205.201 784.145 188C784.145 170.799 770.201 156.855 753 156.855C735.799 156.855 721.855 170.799 721.855 188Z" stroke="white" stroke-width="4" mask="url(#path-49-outside-1_47_107765)"/>
<mask id="path-50-outside-2_47_107765" maskUnits="userSpaceOnUse" x="703" y="138" width="100" height="100" fill="black">
<rect fill="white" x="703" y="138" width="100" height="100"/>
<path d="M753 140C762.057 140 770.93 142.563 778.592 147.392C786.255 152.221 792.395 159.119 796.303 167.29C800.21 175.461 801.727 184.571 800.676 193.567C799.626 202.564 796.051 211.079 790.366 218.13C784.681 225.18 777.116 230.479 768.547 233.412C759.978 236.346 750.754 236.795 741.94 234.709C733.127 232.622 725.083 228.084 718.74 221.619C712.396 215.154 708.011 207.027 706.091 198.175L722.186 194.684C723.447 200.498 726.328 205.837 730.495 210.084C734.662 214.33 739.946 217.311 745.735 218.682C751.525 220.053 757.584 219.758 763.213 217.831C768.842 215.903 773.81 212.423 777.545 207.792C781.279 203.16 783.627 197.567 784.318 191.657C785.008 185.748 784.012 179.764 781.445 174.396C778.878 169.029 774.845 164.497 769.811 161.325C764.778 158.153 758.95 156.47 753 156.47V140Z"/>
</mask>
<path d="M753 140C762.057 140 770.93 142.563 778.592 147.392C786.255 152.221 792.395 159.119 796.303 167.29C800.21 175.461 801.727 184.571 800.676 193.567C799.626 202.564 796.051 211.079 790.366 218.13C784.681 225.18 777.116 230.479 768.547 233.412C759.978 236.346 750.754 236.795 741.94 234.709C733.127 232.622 725.083 228.084 718.74 221.619C712.396 215.154 708.011 207.027 706.091 198.175L722.186 194.684C723.447 200.498 726.328 205.837 730.495 210.084C734.662 214.33 739.946 217.311 745.735 218.682C751.525 220.053 757.584 219.758 763.213 217.831C768.842 215.903 773.81 212.423 777.545 207.792C781.279 203.16 783.627 197.567 784.318 191.657C785.008 185.748 784.012 179.764 781.445 174.396C778.878 169.029 774.845 164.497 769.811 161.325C764.778 158.153 758.95 156.47 753 156.47V140Z" fill="#8F47CF"/>
<path d="M753 140C762.057 140 770.93 142.563 778.592 147.392C786.255 152.221 792.395 159.119 796.303 167.29C800.21 175.461 801.727 184.571 800.676 193.567C799.626 202.564 796.051 211.079 790.366 218.13C784.681 225.18 777.116 230.479 768.547 233.412C759.978 236.346 750.754 236.795 741.94 234.709C733.127 232.622 725.083 228.084 718.74 221.619C712.396 215.154 708.011 207.027 706.091 198.175L722.186 194.684C723.447 200.498 726.328 205.837 730.495 210.084C734.662 214.33 739.946 217.311 745.735 218.682C751.525 220.053 757.584 219.758 763.213 217.831C768.842 215.903 773.81 212.423 777.545 207.792C781.279 203.16 783.627 197.567 784.318 191.657C785.008 185.748 784.012 179.764 781.445 174.396C778.878 169.029 774.845 164.497 769.811 161.325C764.778 158.153 758.95 156.47 753 156.47V140Z" stroke="white" stroke-width="4" mask="url(#path-50-outside-2_47_107765)"/>
<mask id="path-51-outside-3_47_107765" maskUnits="userSpaceOnUse" x="729" y="138" width="74" height="100" fill="black">
<rect fill="white" x="729" y="138" width="74" height="100"/>
<path d="M753 140C760.201 140 767.31 141.62 773.8 144.741C780.291 147.862 785.995 152.403 790.492 158.027C794.989 163.652 798.162 170.217 799.777 177.235C801.392 184.253 801.408 191.544 799.822 198.569C798.236 205.593 795.091 212.171 790.617 217.815C786.144 223.459 780.459 228.023 773.982 231.171C767.505 234.319 760.403 235.969 753.202 236C746 236.03 738.884 234.439 732.381 231.346L739.279 216.845C743.607 218.903 748.342 219.962 753.134 219.941C757.926 219.921 762.652 218.823 766.962 216.728C771.273 214.634 775.056 211.596 778.033 207.84C781.009 204.085 783.103 199.708 784.158 195.033C785.213 190.358 785.203 185.506 784.128 180.836C783.053 176.166 780.942 171.798 777.949 168.055C774.957 164.312 771.161 161.29 766.842 159.213C762.523 157.137 757.792 156.058 753 156.058V140Z"/>
</mask>
<path d="M753 140C760.201 140 767.31 141.62 773.8 144.741C780.291 147.862 785.995 152.403 790.492 158.027C794.989 163.652 798.162 170.217 799.777 177.235C801.392 184.253 801.408 191.544 799.822 198.569C798.236 205.593 795.091 212.171 790.617 217.815C786.144 223.459 780.459 228.023 773.982 231.171C767.505 234.319 760.403 235.969 753.202 236C746 236.03 738.884 234.439 732.381 231.346L739.279 216.845C743.607 218.903 748.342 219.962 753.134 219.941C757.926 219.921 762.652 218.823 766.962 216.728C771.273 214.634 775.056 211.596 778.033 207.84C781.009 204.085 783.103 199.708 784.158 195.033C785.213 190.358 785.203 185.506 784.128 180.836C783.053 176.166 780.942 171.798 777.949 168.055C774.957 164.312 771.161 161.29 766.842 159.213C762.523 157.137 757.792 156.058 753 156.058V140Z" fill="#E8D0FB"/>
<path d="M753 140C760.201 140 767.31 141.62 773.8 144.741C780.291 147.862 785.995 152.403 790.492 158.027C794.989 163.652 798.162 170.217 799.777 177.235C801.392 184.253 801.408 191.544 799.822 198.569C798.236 205.593 795.091 212.171 790.617 217.815C786.144 223.459 780.459 228.023 773.982 231.171C767.505 234.319 760.403 235.969 753.202 236C746 236.03 738.884 234.439 732.381 231.346L739.279 216.845C743.607 218.903 748.342 219.962 753.134 219.941C757.926 219.921 762.652 218.823 766.962 216.728C771.273 214.634 775.056 211.596 778.033 207.84C781.009 204.085 783.103 199.708 784.158 195.033C785.213 190.358 785.203 185.506 784.128 180.836C783.053 176.166 780.942 171.798 777.949 168.055C774.957 164.312 771.161 161.29 766.842 159.213C762.523 157.137 757.792 156.058 753 156.058V140Z" stroke="white" stroke-width="4" mask="url(#path-51-outside-3_47_107765)"/>
<mask id="path-52-outside-4_47_107765" maskUnits="userSpaceOnUse" x="751" y="138" width="52" height="89" fill="black">
<rect fill="white" x="751" y="138" width="52" height="89"/>
<path d="M753 140C762.691 140 772.154 142.933 780.146 148.414C788.138 153.894 794.284 161.665 797.776 170.705C801.268 179.745 801.941 189.63 799.709 199.059C797.476 208.489 792.441 217.023 785.267 223.537L773.885 211.001C778.528 206.785 781.787 201.262 783.232 195.158C784.677 189.055 784.241 182.657 781.981 176.806C779.721 170.955 775.743 165.925 770.57 162.378C765.398 158.831 759.272 156.932 753 156.932V140Z"/>
</mask>
<path d="M753 140C762.691 140 772.154 142.933 780.146 148.414C788.138 153.894 794.284 161.665 797.776 170.705C801.268 179.745 801.941 189.63 799.709 199.059C797.476 208.489 792.441 217.023 785.267 223.537L773.885 211.001C778.528 206.785 781.787 201.262 783.232 195.158C784.677 189.055 784.241 182.657 781.981 176.806C779.721 170.955 775.743 165.925 770.57 162.378C765.398 158.831 759.272 156.932 753 156.932V140Z" fill="#D6AEFB"/>
<path d="M753 140C762.691 140 772.154 142.933 780.146 148.414C788.138 153.894 794.284 161.665 797.776 170.705C801.268 179.745 801.941 189.63 799.709 199.059C797.476 208.489 792.441 217.023 785.267 223.537L773.885 211.001C778.528 206.785 781.787 201.262 783.232 195.158C784.677 189.055 784.241 182.657 781.981 176.806C779.721 170.955 775.743 165.925 770.57 162.378C765.398 158.831 759.272 156.932 753 156.932V140Z" stroke="white" stroke-width="4" mask="url(#path-52-outside-4_47_107765)"/>
</g>
</g>
</g>
<g filter="url(#filter3_dd_47_107765)">
<g clip-path="url(#clip5_47_107765)">
<rect x="654" y="265" width="200" height="157" rx="8" fill="#F4EBFD"/>
<rect x="655" y="405" width="163" height="1" fill="#EDEBE9"/>
<rect x="668" y="355" width="32.9895" height="50" fill="#36327A" fill-opacity="0.5"/>
<rect x="714.67" y="312" width="32.9895" height="93" fill="#4842B0" fill-opacity="0.5"/>
<rect x="761.34" y="355" width="32.9895" height="50" fill="#625BDE" fill-opacity="0.5"/>
<rect x="808.01" y="341" width="32.9896" height="64" fill="#807AEA" fill-opacity="0.5"/>
</g>
</g>
<g filter="url(#filter4_dd_47_107765)">
<rect x="870" y="129" width="145" height="179" rx="8" fill="#EFEEFF"/>
<rect x="885" y="159" width="8" height="8" rx="4" fill="#E6E6E6"/>
<rect x="905" y="160.5" width="86" height="5" rx="2.5" fill="#E6E6E6"/>
<rect x="885" y="184.4" width="8" height="8" rx="4" fill="#E6E6E6"/>
<rect x="905" y="185.9" width="53" height="5" rx="2.5" fill="#E6E6E6"/>
<rect x="885" y="209.8" width="8" height="8" rx="4" fill="#E6E6E6"/>
<rect x="905" y="211.3" width="66" height="5" rx="2.5" fill="#E6E6E6"/>
<rect x="885" y="235.2" width="8" height="8" rx="4" fill="#E6E6E6"/>
<rect x="905" y="236.7" width="63" height="5" rx="2.5" fill="#E6E6E6"/>
<rect x="885" y="260.6" width="8" height="8" rx="4" fill="#E6E6E6"/>
<rect x="905" y="262.1" width="77" height="5" rx="2.5" fill="#E6E6E6"/>
<rect x="885" y="286" width="8" height="8" rx="4" fill="#E6E6E6"/>
<rect x="905" y="287.5" width="53" height="5" rx="2.5" fill="#E6E6E6"/>
<rect x="884" y="143" width="43" height="5" rx="2.5" fill="#BDB9FF"/>
</g>
<g filter="url(#filter5_dd_47_107765)">
<rect x="870" y="324" width="145" height="98" rx="8" fill="#EFEEFF"/>
</g>
<rect x="501" y="96" width="143" height="13" rx="6.5" fill="#AB84AB"/>
<rect x="1006" y="98" width="9" height="9" rx="4.5" fill="#AB84AB"/>
<rect x="986" y="98" width="9" height="9" rx="4.5" fill="#AB84AB"/>
</g>
<g filter="url(#filter6_dd_47_107765)">
<g filter="url(#filter7_i_47_107765)">
<rect x="1162" y="44" width="201" height="413" rx="16" fill="#616161"/>
</g>
<rect x="1168.98" y="50.8833" width="187.031" height="399.233" rx="8" fill="black"/>
<g clip-path="url(#clip6_47_107765)">
<rect width="187" height="32" transform="translate(1169 51)" fill="#EBEBEB"/>
<path d="M1181 62.75C1181 62.3358 1181.34 62 1181.75 62H1196.25C1196.66 62 1197 62.3358 1197 62.75C1197 63.1642 1196.66 63.5 1196.25 63.5H1181.75C1181.34 63.5 1181 63.1642 1181 62.75ZM1181 67.75C1181 67.3358 1181.34 67 1181.75 67H1196.25C1196.66 67 1197 67.3358 1197 67.75C1197 68.1642 1196.66 68.5 1196.25 68.5H1181.75C1181.34 68.5 1181 68.1642 1181 67.75ZM1181.75 72C1181.34 72 1181 72.3358 1181 72.75C1181 73.1642 1181.34 73.5 1181.75 73.5H1196.25C1196.66 73.5 1197 73.1642 1197 72.75C1197 72.3358 1196.66 72 1196.25 72H1181.75Z" fill="#818181"/>
<g clip-path="url(#clip7_47_107765)">
<rect width="187" height="367" transform="translate(1169 83)" fill="#FAFAFA"/>
<g filter="url(#filter8_dd_47_107765)">
<g clip-path="url(#clip8_47_107765)">
<rect x="1177" y="119" width="171" height="140" rx="8" fill="#F5ECF5"/>
<path d="M1195 169L1195 261.5" stroke="#ECD1EC"/>
<rect x="1185.5" y="151.5" width="19" height="19" rx="9.5" fill="#ECD1EC"/>
<rect x="1185.5" y="151.5" width="19" height="19" rx="9.5" stroke="white"/>
<path d="M1195 156C1193.9 156 1193 156.895 1193 158C1193 159.105 1193.9 160 1195 160C1196.1 160 1197 159.105 1197 158C1197 156.895 1196.1 156 1195 156ZM1197.5 161L1192.5 161C1191.67 161 1191 161.672 1191 162.5C1191 163.616 1191.46 164.51 1192.21 165.115C1192.95 165.71 1193.95 166 1195 166C1196.05 166 1197.05 165.71 1197.79 165.115C1198.54 164.51 1199 163.616 1199 162.5C1199 161.672 1198.33 161 1197.5 161Z" fill="#E1ADE1"/>
<rect x="1217" y="157.5" width="120" height="7" rx="3.5" fill="#E6E6E6"/>
<rect x="1185.5" y="187.5" width="19" height="19" rx="9.5" fill="#E8D0FB"/>
<rect x="1185.5" y="187.5" width="19" height="19" rx="9.5" stroke="white"/>
<path d="M1195 192C1193.9 192 1193 192.895 1193 194C1193 195.105 1193.9 196 1195 196C1196.1 196 1197 195.105 1197 194C1197 192.895 1196.1 192 1195 192ZM1197.5 197L1192.5 197C1191.67 197 1191 197.672 1191 198.5C1191 199.616 1191.46 200.51 1192.21 201.115C1192.95 201.71 1193.95 202 1195 202C1196.05 202 1197.05 201.71 1197.79 201.115C1198.54 200.51 1199 199.616 1199 198.5C1199 197.672 1198.33 197 1197.5 197Z" fill="#D6AEFB"/>
<rect x="1217" y="193.5" width="120" height="7" rx="3.5" fill="#E6E6E6"/>
<rect x="1185.5" y="223.5" width="19" height="19" rx="9.5" fill="#FEF6EC"/>
<rect x="1185.5" y="223.5" width="19" height="19" rx="9.5" stroke="white"/>
<path d="M1195 228C1193.9 228 1193 228.895 1193 230C1193 231.105 1193.9 232 1195 232C1196.1 232 1197 231.105 1197 230C1197 228.895 1196.1 228 1195 228ZM1197.5 233L1192.5 233C1191.67 233 1191 233.672 1191 234.5C1191 235.616 1191.46 236.51 1192.21 237.115C1192.95 237.71 1193.95 238 1195 238C1196.05 238 1197.05 237.71 1197.79 237.115C1198.54 236.51 1199 235.616 1199 234.5C1199 233.672 1198.33 233 1197.5 233Z" fill="#F7CB8D"/>
<rect x="1217" y="229.5" width="120" height="7" rx="3.5" fill="#E6E6E6"/>
<rect x="1185" y="131" width="63" height="6" rx="3" fill="#ECD1EC"/>
</g>
</g>
<g filter="url(#filter9_dd_47_107765)">
<g clip-path="url(#clip9_47_107765)">
<rect x="1177" y="267" width="171" height="114" rx="8" fill="#F4EBFD"/>
<g opacity="0.8">
<mask id="path-94-outside-5_47_107765" maskUnits="userSpaceOnUse" x="1222" y="287" width="81" height="81" fill="black">
<rect fill="white" x="1222" y="287" width="81" height="81"/>
<path d="M1301 327.5C1301 348.763 1283.76 366 1262.5 366C1241.24 366 1224 348.763 1224 327.5C1224 306.237 1241.24 289 1262.5 289C1283.76 289 1301 306.237 1301 327.5ZM1237.52 327.5C1237.52 341.296 1248.7 352.481 1262.5 352.481C1276.3 352.481 1287.48 341.296 1287.48 327.5C1287.48 313.704 1276.3 302.519 1262.5 302.519C1248.7 302.519 1237.52 313.704 1237.52 327.5Z"/>
</mask>
<path d="M1301 327.5C1301 348.763 1283.76 366 1262.5 366C1241.24 366 1224 348.763 1224 327.5C1224 306.237 1241.24 289 1262.5 289C1283.76 289 1301 306.237 1301 327.5ZM1237.52 327.5C1237.52 341.296 1248.7 352.481 1262.5 352.481C1276.3 352.481 1287.48 341.296 1287.48 327.5C1287.48 313.704 1276.3 302.519 1262.5 302.519C1248.7 302.519 1237.52 313.704 1237.52 327.5Z" fill="#A967E4"/>
<path d="M1301 327.5C1301 348.763 1283.76 366 1262.5 366C1241.24 366 1224 348.763 1224 327.5C1224 306.237 1241.24 289 1262.5 289C1283.76 289 1301 306.237 1301 327.5ZM1237.52 327.5C1237.52 341.296 1248.7 352.481 1262.5 352.481C1276.3 352.481 1287.48 341.296 1287.48 327.5C1287.48 313.704 1276.3 302.519 1262.5 302.519C1248.7 302.519 1237.52 313.704 1237.52 327.5Z" stroke="white" stroke-width="4" mask="url(#path-94-outside-5_47_107765)"/>
<mask id="path-95-outside-6_47_107765" maskUnits="userSpaceOnUse" x="1222" y="287" width="81" height="81" fill="black">
<rect fill="white" x="1222" y="287" width="81" height="81"/>
<path d="M1262.5 289C1269.76 289 1276.88 291.055 1283.03 294.929C1289.17 298.802 1294.1 304.335 1297.23 310.889C1300.37 317.443 1301.58 324.75 1300.74 331.965C1299.9 339.181 1297.03 346.011 1292.47 351.666C1287.91 357.322 1281.84 361.571 1274.97 363.924C1268.1 366.278 1260.7 366.638 1253.63 364.964C1246.56 363.29 1240.11 359.65 1235.02 354.465C1229.93 349.28 1226.41 342.761 1224.87 335.661L1237.78 332.861C1238.8 337.525 1241.11 341.807 1244.45 345.213C1247.79 348.619 1252.03 351.01 1256.67 352.109C1261.32 353.209 1266.18 352.972 1270.69 351.427C1275.21 349.881 1279.19 347.089 1282.19 343.375C1285.18 339.66 1287.07 335.173 1287.62 330.433C1288.17 325.693 1287.37 320.894 1285.31 316.589C1283.26 312.284 1280.02 308.649 1275.98 306.105C1271.95 303.56 1267.27 302.21 1262.5 302.21V289Z"/>
</mask>
<path d="M1262.5 289C1269.76 289 1276.88 291.055 1283.03 294.929C1289.17 298.802 1294.1 304.335 1297.23 310.889C1300.37 317.443 1301.58 324.75 1300.74 331.965C1299.9 339.181 1297.03 346.011 1292.47 351.666C1287.91 357.322 1281.84 361.571 1274.97 363.924C1268.1 366.278 1260.7 366.638 1253.63 364.964C1246.56 363.29 1240.11 359.65 1235.02 354.465C1229.93 349.28 1226.41 342.761 1224.87 335.661L1237.78 332.861C1238.8 337.525 1241.11 341.807 1244.45 345.213C1247.79 348.619 1252.03 351.01 1256.67 352.109C1261.32 353.209 1266.18 352.972 1270.69 351.427C1275.21 349.881 1279.19 347.089 1282.19 343.375C1285.18 339.66 1287.07 335.173 1287.62 330.433C1288.17 325.693 1287.37 320.894 1285.31 316.589C1283.26 312.284 1280.02 308.649 1275.98 306.105C1271.95 303.56 1267.27 302.21 1262.5 302.21V289Z" fill="#8F47CF"/>
<path d="M1262.5 289C1269.76 289 1276.88 291.055 1283.03 294.929C1289.17 298.802 1294.1 304.335 1297.23 310.889C1300.37 317.443 1301.58 324.75 1300.74 331.965C1299.9 339.181 1297.03 346.011 1292.47 351.666C1287.91 357.322 1281.84 361.571 1274.97 363.924C1268.1 366.278 1260.7 366.638 1253.63 364.964C1246.56 363.29 1240.11 359.65 1235.02 354.465C1229.93 349.28 1226.41 342.761 1224.87 335.661L1237.78 332.861C1238.8 337.525 1241.11 341.807 1244.45 345.213C1247.79 348.619 1252.03 351.01 1256.67 352.109C1261.32 353.209 1266.18 352.972 1270.69 351.427C1275.21 349.881 1279.19 347.089 1282.19 343.375C1285.18 339.66 1287.07 335.173 1287.62 330.433C1288.17 325.693 1287.37 320.894 1285.31 316.589C1283.26 312.284 1280.02 308.649 1275.98 306.105C1271.95 303.56 1267.27 302.21 1262.5 302.21V289Z" stroke="white" stroke-width="4" mask="url(#path-95-outside-6_47_107765)"/>
<mask id="path-96-outside-7_47_107765" maskUnits="userSpaceOnUse" x="1243" y="287" width="60" height="81" fill="black">
<rect fill="white" x="1243" y="287" width="60" height="81"/>
<path d="M1262.5 289C1268.28 289 1273.98 290.3 1279.18 292.803C1284.39 295.306 1288.96 298.948 1292.57 303.46C1296.18 307.971 1298.72 313.236 1300.02 318.865C1301.31 324.494 1301.33 330.343 1300.06 335.977C1298.78 341.611 1296.26 346.887 1292.67 351.414C1289.08 355.941 1284.52 359.602 1279.33 362.127C1274.13 364.652 1268.44 365.975 1262.66 366C1256.89 366.024 1251.18 364.748 1245.96 362.267L1251.49 350.636C1254.97 352.287 1258.76 353.136 1262.61 353.12C1266.45 353.104 1270.24 352.223 1273.7 350.543C1277.16 348.862 1280.19 346.426 1282.58 343.414C1284.97 340.401 1286.64 336.89 1287.49 333.141C1288.34 329.392 1288.33 325.5 1287.47 321.754C1286.61 318.008 1284.91 314.504 1282.51 311.502C1280.11 308.5 1277.07 306.076 1273.6 304.411C1270.14 302.745 1266.34 301.88 1262.5 301.88V289Z"/>
</mask>
<path d="M1262.5 289C1268.28 289 1273.98 290.3 1279.18 292.803C1284.39 295.306 1288.96 298.948 1292.57 303.46C1296.18 307.971 1298.72 313.236 1300.02 318.865C1301.31 324.494 1301.33 330.343 1300.06 335.977C1298.78 341.611 1296.26 346.887 1292.67 351.414C1289.08 355.941 1284.52 359.602 1279.33 362.127C1274.13 364.652 1268.44 365.975 1262.66 366C1256.89 366.024 1251.18 364.748 1245.96 362.267L1251.49 350.636C1254.97 352.287 1258.76 353.136 1262.61 353.12C1266.45 353.104 1270.24 352.223 1273.7 350.543C1277.16 348.862 1280.19 346.426 1282.58 343.414C1284.97 340.401 1286.64 336.89 1287.49 333.141C1288.34 329.392 1288.33 325.5 1287.47 321.754C1286.61 318.008 1284.91 314.504 1282.51 311.502C1280.11 308.5 1277.07 306.076 1273.6 304.411C1270.14 302.745 1266.34 301.88 1262.5 301.88V289Z" fill="#E8D0FB"/>
<path d="M1262.5 289C1268.28 289 1273.98 290.3 1279.18 292.803C1284.39 295.306 1288.96 298.948 1292.57 303.46C1296.18 307.971 1298.72 313.236 1300.02 318.865C1301.31 324.494 1301.33 330.343 1300.06 335.977C1298.78 341.611 1296.26 346.887 1292.67 351.414C1289.08 355.941 1284.52 359.602 1279.33 362.127C1274.13 364.652 1268.44 365.975 1262.66 366C1256.89 366.024 1251.18 364.748 1245.96 362.267L1251.49 350.636C1254.97 352.287 1258.76 353.136 1262.61 353.12C1266.45 353.104 1270.24 352.223 1273.7 350.543C1277.16 348.862 1280.19 346.426 1282.58 343.414C1284.97 340.401 1286.64 336.89 1287.49 333.141C1288.34 329.392 1288.33 325.5 1287.47 321.754C1286.61 318.008 1284.91 314.504 1282.51 311.502C1280.11 308.5 1277.07 306.076 1273.6 304.411C1270.14 302.745 1266.34 301.88 1262.5 301.88V289Z" stroke="white" stroke-width="4" mask="url(#path-96-outside-7_47_107765)"/>
<mask id="path-97-outside-8_47_107765" maskUnits="userSpaceOnUse" x="1260" y="287" width="43" height="72" fill="black">
<rect fill="white" x="1260" y="287" width="43" height="72"/>
<path d="M1262.5 289C1270.27 289 1277.86 291.353 1284.27 295.748C1290.68 300.144 1295.61 306.377 1298.41 313.628C1301.21 320.879 1301.76 328.807 1299.96 336.371C1298.17 343.934 1294.14 350.779 1288.38 356.004L1279.25 345.949C1282.98 342.567 1285.59 338.137 1286.75 333.242C1287.91 328.346 1287.56 323.214 1285.75 318.521C1283.93 313.828 1280.74 309.794 1276.59 306.949C1272.44 304.104 1267.53 302.581 1262.5 302.581V289Z"/>
</mask>
<path d="M1262.5 289C1270.27 289 1277.86 291.353 1284.27 295.748C1290.68 300.144 1295.61 306.377 1298.41 313.628C1301.21 320.879 1301.76 328.807 1299.96 336.371C1298.17 343.934 1294.14 350.779 1288.38 356.004L1279.25 345.949C1282.98 342.567 1285.59 338.137 1286.75 333.242C1287.91 328.346 1287.56 323.214 1285.75 318.521C1283.93 313.828 1280.74 309.794 1276.59 306.949C1272.44 304.104 1267.53 302.581 1262.5 302.581V289Z" fill="#D6AEFB"/>
<path d="M1262.5 289C1270.27 289 1277.86 291.353 1284.27 295.748C1290.68 300.144 1295.61 306.377 1298.41 313.628C1301.21 320.879 1301.76 328.807 1299.96 336.371C1298.17 343.934 1294.14 350.779 1288.38 356.004L1279.25 345.949C1282.98 342.567 1285.59 338.137 1286.75 333.242C1287.91 328.346 1287.56 323.214 1285.75 318.521C1283.93 313.828 1280.74 309.794 1276.59 306.949C1272.44 304.104 1267.53 302.581 1262.5 302.581V289Z" stroke="white" stroke-width="4" mask="url(#path-97-outside-8_47_107765)"/>
</g>
</g>
</g>
<g filter="url(#filter10_dd_47_107765)">
<g clip-path="url(#clip10_47_107765)">
<rect x="1177" y="389" width="171" height="98" rx="8" fill="#F4EBFD"/>
<rect x="1193" y="437.098" width="27.0161" height="43.9024" fill="#36327A" fill-opacity="0.5"/>
<rect x="1228.02" y="399.342" width="27.0161" height="81.6585" fill="#4842B0" fill-opacity="0.5"/>
<rect x="1263.03" y="437.098" width="27.0161" height="43.9024" fill="#625BDE" fill-opacity="0.5"/>
<rect x="1298.05" y="424.805" width="27.0161" height="56.1951" fill="#807AEA" fill-opacity="0.5"/>
</g>
</g>
<rect x="1337" y="99" width="9" height="9" rx="4.5" fill="#AB84AB"/>
<rect x="1317" y="99" width="9" height="9" rx="4.5" fill="#AB84AB"/>
</g>
</g>
<line x1="1229.49" y1="436.917" x2="1294.94" y2="436.917" stroke="white" stroke-opacity="0.5" stroke-width="4" stroke-linecap="round" stroke-linejoin="round"/>
</g>
<rect x="1179" y="98" width="113" height="13" rx="6.5" fill="#AB84AB"/>
<defs>
<filter id="filter0_dd_47_107765" x="414.6" y="25" width="640.8" height="462.8" filterUnits="userSpaceOnUse" color-interpolation-filters="sRGB">
<feFlood flood-opacity="0" result="BackgroundImageFix"/>
<feColorMatrix in="SourceAlpha" type="matrix" values="0 0 0 0 0 0 0 0 0 0 0 0 0 0 0 0 0 0 127 0" result="hardAlpha"/>
<feOffset dy="6.4"/>
<feGaussianBlur stdDeviation="7.2"/>
<feColorMatrix type="matrix" values="0 0 0 0 0 0 0 0 0 0 0 0 0 0 0 0 0 0 0.13 0"/>
<feBlend mode="normal" in2="BackgroundImageFix" result="effect1_dropShadow_47_107765"/>
<feColorMatrix in="SourceAlpha" type="matrix" values="0 0 0 0 0 0 0 0 0 0 0 0 0 0 0 0 0 0 127 0" result="hardAlpha"/>
<feOffset dy="1.2"/>
<feGaussianBlur stdDeviation="1.8"/>
<feColorMatrix type="matrix" values="0 0 0 0 0 0 0 0 0 0 0 0 0 0 0 0 0 0 0.1 0"/>
<feBlend mode="normal" in2="effect1_dropShadow_47_107765" result="effect2_dropShadow_47_107765"/>
<feBlend mode="normal" in="SourceGraphic" in2="effect2_dropShadow_47_107765" result="shape"/>
</filter>
<filter id="filter1_dd_47_107765" x="501" y="127" width="139" height="298" filterUnits="userSpaceOnUse" color-interpolation-filters="sRGB">
<feFlood flood-opacity="0" result="BackgroundImageFix"/>
<feColorMatrix in="SourceAlpha" type="matrix" values="0 0 0 0 0 0 0 0 0 0 0 0 0 0 0 0 0 0 127 0" result="hardAlpha"/>
<feOffset/>
<feGaussianBlur stdDeviation="1"/>
<feComposite in2="hardAlpha" operator="out"/>
<feColorMatrix type="matrix" values="0 0 0 0 0 0 0 0 0 0 0 0 0 0 0 0 0 0 0.12 0"/>
<feBlend mode="normal" in2="BackgroundImageFix" result="effect1_dropShadow_47_107765"/>
<feColorMatrix in="SourceAlpha" type="matrix" values="0 0 0 0 0 0 0 0 0 0 0 0 0 0 0 0 0 0 127 0" result="hardAlpha"/>
<feOffset dy="1"/>
<feGaussianBlur stdDeviation="1"/>
<feComposite in2="hardAlpha" operator="out"/>
<feColorMatrix type="matrix" values="0 0 0 0 0 0 0 0 0 0 0 0 0 0 0 0 0 0 0.14 0"/>
<feBlend mode="normal" in2="effect1_dropShadow_47_107765" result="effect2_dropShadow_47_107765"/>
<feBlend mode="normal" in="SourceGraphic" in2="effect2_dropShadow_47_107765" result="shape"/>
</filter>
<filter id="filter2_dd_47_107765" x="652" y="127" width="204" height="125" filterUnits="userSpaceOnUse" color-interpolation-filters="sRGB">
<feFlood flood-opacity="0" result="BackgroundImageFix"/>
<feColorMatrix in="SourceAlpha" type="matrix" values="0 0 0 0 0 0 0 0 0 0 0 0 0 0 0 0 0 0 127 0" result="hardAlpha"/>
<feOffset/>
<feGaussianBlur stdDeviation="1"/>
<feComposite in2="hardAlpha" operator="out"/>
<feColorMatrix type="matrix" values="0 0 0 0 0 0 0 0 0 0 0 0 0 0 0 0 0 0 0.12 0"/>
<feBlend mode="normal" in2="BackgroundImageFix" result="effect1_dropShadow_47_107765"/>
<feColorMatrix in="SourceAlpha" type="matrix" values="0 0 0 0 0 0 0 0 0 0 0 0 0 0 0 0 0 0 127 0" result="hardAlpha"/>
<feOffset dy="1"/>
<feGaussianBlur stdDeviation="1"/>
<feComposite in2="hardAlpha" operator="out"/>
<feColorMatrix type="matrix" values="0 0 0 0 0 0 0 0 0 0 0 0 0 0 0 0 0 0 0.14 0"/>
<feBlend mode="normal" in2="effect1_dropShadow_47_107765" result="effect2_dropShadow_47_107765"/>
<feBlend mode="normal" in="SourceGraphic" in2="effect2_dropShadow_47_107765" result="shape"/>
</filter>
<filter id="filter3_dd_47_107765" x="652" y="263" width="204" height="162" filterUnits="userSpaceOnUse" color-interpolation-filters="sRGB">
<feFlood flood-opacity="0" result="BackgroundImageFix"/>
<feColorMatrix in="SourceAlpha" type="matrix" values="0 0 0 0 0 0 0 0 0 0 0 0 0 0 0 0 0 0 127 0" result="hardAlpha"/>
<feOffset/>
<feGaussianBlur stdDeviation="1"/>
<feComposite in2="hardAlpha" operator="out"/>
<feColorMatrix type="matrix" values="0 0 0 0 0 0 0 0 0 0 0 0 0 0 0 0 0 0 0.12 0"/>
<feBlend mode="normal" in2="BackgroundImageFix" result="effect1_dropShadow_47_107765"/>
<feColorMatrix in="SourceAlpha" type="matrix" values="0 0 0 0 0 0 0 0 0 0 0 0 0 0 0 0 0 0 127 0" result="hardAlpha"/>
<feOffset dy="1"/>
<feGaussianBlur stdDeviation="1"/>
<feComposite in2="hardAlpha" operator="out"/>
<feColorMatrix type="matrix" values="0 0 0 0 0 0 0 0 0 0 0 0 0 0 0 0 0 0 0.14 0"/>
<feBlend mode="normal" in2="effect1_dropShadow_47_107765" result="effect2_dropShadow_47_107765"/>
<feBlend mode="normal" in="SourceGraphic" in2="effect2_dropShadow_47_107765" result="shape"/>
</filter>
<filter id="filter4_dd_47_107765" x="868" y="127" width="149" height="184" filterUnits="userSpaceOnUse" color-interpolation-filters="sRGB">
<feFlood flood-opacity="0" result="BackgroundImageFix"/>
<feColorMatrix in="SourceAlpha" type="matrix" values="0 0 0 0 0 0 0 0 0 0 0 0 0 0 0 0 0 0 127 0" result="hardAlpha"/>
<feOffset/>
<feGaussianBlur stdDeviation="1"/>
<feComposite in2="hardAlpha" operator="out"/>
<feColorMatrix type="matrix" values="0 0 0 0 0 0 0 0 0 0 0 0 0 0 0 0 0 0 0.12 0"/>
<feBlend mode="normal" in2="BackgroundImageFix" result="effect1_dropShadow_47_107765"/>
<feColorMatrix in="SourceAlpha" type="matrix" values="0 0 0 0 0 0 0 0 0 0 0 0 0 0 0 0 0 0 127 0" result="hardAlpha"/>
<feOffset dy="1"/>
<feGaussianBlur stdDeviation="1"/>
<feComposite in2="hardAlpha" operator="out"/>
<feColorMatrix type="matrix" values="0 0 0 0 0 0 0 0 0 0 0 0 0 0 0 0 0 0 0.14 0"/>
<feBlend mode="normal" in2="effect1_dropShadow_47_107765" result="effect2_dropShadow_47_107765"/>
<feBlend mode="normal" in="SourceGraphic" in2="effect2_dropShadow_47_107765" result="shape"/>
</filter>
<filter id="filter5_dd_47_107765" x="868" y="322" width="149" height="103" filterUnits="userSpaceOnUse" color-interpolation-filters="sRGB">
<feFlood flood-opacity="0" result="BackgroundImageFix"/>
<feColorMatrix in="SourceAlpha" type="matrix" values="0 0 0 0 0 0 0 0 0 0 0 0 0 0 0 0 0 0 127 0" result="hardAlpha"/>
<feOffset/>
<feGaussianBlur stdDeviation="1"/>
<feComposite in2="hardAlpha" operator="out"/>
<feColorMatrix type="matrix" values="0 0 0 0 0 0 0 0 0 0 0 0 0 0 0 0 0 0 0.12 0"/>
<feBlend mode="normal" in2="BackgroundImageFix" result="effect1_dropShadow_47_107765"/>
<feColorMatrix in="SourceAlpha" type="matrix" values="0 0 0 0 0 0 0 0 0 0 0 0 0 0 0 0 0 0 127 0" result="hardAlpha"/>
<feOffset dy="1"/>
<feGaussianBlur stdDeviation="1"/>
<feComposite in2="hardAlpha" operator="out"/>
<feColorMatrix type="matrix" values="0 0 0 0 0 0 0 0 0 0 0 0 0 0 0 0 0 0 0.14 0"/>
<feBlend mode="normal" in2="effect1_dropShadow_47_107765" result="effect2_dropShadow_47_107765"/>
<feBlend mode="normal" in="SourceGraphic" in2="effect2_dropShadow_47_107765" result="shape"/>
</filter>
<filter id="filter6_dd_47_107765" x="1147.6" y="36" width="229.8" height="441.8" filterUnits="userSpaceOnUse" color-interpolation-filters="sRGB">
<feFlood flood-opacity="0" result="BackgroundImageFix"/>
<feColorMatrix in="SourceAlpha" type="matrix" values="0 0 0 0 0 0 0 0 0 0 0 0 0 0 0 0 0 0 127 0" result="hardAlpha"/>
<feOffset dy="6.4"/>
<feGaussianBlur stdDeviation="7.2"/>
<feColorMatrix type="matrix" values="0 0 0 0 0 0 0 0 0 0 0 0 0 0 0 0 0 0 0.13 0"/>
<feBlend mode="normal" in2="BackgroundImageFix" result="effect1_dropShadow_47_107765"/>
<feColorMatrix in="SourceAlpha" type="matrix" values="0 0 0 0 0 0 0 0 0 0 0 0 0 0 0 0 0 0 127 0" result="hardAlpha"/>
<feOffset dy="1.2"/>
<feGaussianBlur stdDeviation="1.8"/>
<feColorMatrix type="matrix" values="0 0 0 0 0 0 0 0 0 0 0 0 0 0 0 0 0 0 0.1 0"/>
<feBlend mode="normal" in2="effect1_dropShadow_47_107765" result="effect2_dropShadow_47_107765"/>
<feBlend mode="normal" in="SourceGraphic" in2="effect2_dropShadow_47_107765" result="shape"/>
</filter>
<filter id="filter7_i_47_107765" x="1162" y="42.6" width="201" height="414.4" filterUnits="userSpaceOnUse" color-interpolation-filters="sRGB">
<feFlood flood-opacity="0" result="BackgroundImageFix"/>
<feBlend mode="normal" in="SourceGraphic" in2="BackgroundImageFix" result="shape"/>
<feColorMatrix in="SourceAlpha" type="matrix" values="0 0 0 0 0 0 0 0 0 0 0 0 0 0 0 0 0 0 127 0" result="hardAlpha"/>
<feOffset dy="-1.4"/>
<feGaussianBlur stdDeviation="2"/>
<feComposite in2="hardAlpha" operator="arithmetic" k2="-1" k3="1"/>
<feColorMatrix type="matrix" values="0 0 0 0 0 0 0 0 0 0 0 0 0 0 0 0 0 0 0.08 0"/>
<feBlend mode="normal" in2="shape" result="effect1_innerShadow_47_107765"/>
</filter>
<filter id="filter8_dd_47_107765" x="1175" y="117" width="175" height="145" filterUnits="userSpaceOnUse" color-interpolation-filters="sRGB">
<feFlood flood-opacity="0" result="BackgroundImageFix"/>
<feColorMatrix in="SourceAlpha" type="matrix" values="0 0 0 0 0 0 0 0 0 0 0 0 0 0 0 0 0 0 127 0" result="hardAlpha"/>
<feOffset/>
<feGaussianBlur stdDeviation="1"/>
<feComposite in2="hardAlpha" operator="out"/>
<feColorMatrix type="matrix" values="0 0 0 0 0 0 0 0 0 0 0 0 0 0 0 0 0 0 0.12 0"/>
<feBlend mode="normal" in2="BackgroundImageFix" result="effect1_dropShadow_47_107765"/>
<feColorMatrix in="SourceAlpha" type="matrix" values="0 0 0 0 0 0 0 0 0 0 0 0 0 0 0 0 0 0 127 0" result="hardAlpha"/>
<feOffset dy="1"/>
<feGaussianBlur stdDeviation="1"/>
<feComposite in2="hardAlpha" operator="out"/>
<feColorMatrix type="matrix" values="0 0 0 0 0 0 0 0 0 0 0 0 0 0 0 0 0 0 0.14 0"/>
<feBlend mode="normal" in2="effect1_dropShadow_47_107765" result="effect2_dropShadow_47_107765"/>
<feBlend mode="normal" in="SourceGraphic" in2="effect2_dropShadow_47_107765" result="shape"/>
</filter>
<filter id="filter9_dd_47_107765" x="1175" y="265" width="175" height="119" filterUnits="userSpaceOnUse" color-interpolation-filters="sRGB">
<feFlood flood-opacity="0" result="BackgroundImageFix"/>
<feColorMatrix in="SourceAlpha" type="matrix" values="0 0 0 0 0 0 0 0 0 0 0 0 0 0 0 0 0 0 127 0" result="hardAlpha"/>
<feOffset/>
<feGaussianBlur stdDeviation="1"/>
<feComposite in2="hardAlpha" operator="out"/>
<feColorMatrix type="matrix" values="0 0 0 0 0 0 0 0 0 0 0 0 0 0 0 0 0 0 0.12 0"/>
<feBlend mode="normal" in2="BackgroundImageFix" result="effect1_dropShadow_47_107765"/>
<feColorMatrix in="SourceAlpha" type="matrix" values="0 0 0 0 0 0 0 0 0 0 0 0 0 0 0 0 0 0 127 0" result="hardAlpha"/>
<feOffset dy="1"/>
<feGaussianBlur stdDeviation="1"/>
<feComposite in2="hardAlpha" operator="out"/>
<feColorMatrix type="matrix" values="0 0 0 0 0 0 0 0 0 0 0 0 0 0 0 0 0 0 0.14 0"/>
<feBlend mode="normal" in2="effect1_dropShadow_47_107765" result="effect2_dropShadow_47_107765"/>
<feBlend mode="normal" in="SourceGraphic" in2="effect2_dropShadow_47_107765" result="shape"/>
</filter>
<filter id="filter10_dd_47_107765" x="1175" y="387" width="175" height="103" filterUnits="userSpaceOnUse" color-interpolation-filters="sRGB">
<feFlood flood-opacity="0" result="BackgroundImageFix"/>
<feColorMatrix in="SourceAlpha" type="matrix" values="0 0 0 0 0 0 0 0 0 0 0 0 0 0 0 0 0 0 127 0" result="hardAlpha"/>
<feOffset/>
<feGaussianBlur stdDeviation="1"/>
<feComposite in2="hardAlpha" operator="out"/>
<feColorMatrix type="matrix" values="0 0 0 0 0 0 0 0 0 0 0 0 0 0 0 0 0 0 0.12 0"/>
<feBlend mode="normal" in2="BackgroundImageFix" result="effect1_dropShadow_47_107765"/>
<feColorMatrix in="SourceAlpha" type="matrix" values="0 0 0 0 0 0 0 0 0 0 0 0 0 0 0 0 0 0 127 0" result="hardAlpha"/>
<feOffset dy="1"/>
<feGaussianBlur stdDeviation="1"/>
<feComposite in2="hardAlpha" operator="out"/>
<feColorMatrix type="matrix" values="0 0 0 0 0 0 0 0 0 0 0 0 0 0 0 0 0 0 0.14 0"/>
<feBlend mode="normal" in2="effect1_dropShadow_47_107765" result="effect2_dropShadow_47_107765"/>
<feBlend mode="normal" in="SourceGraphic" in2="effect2_dropShadow_47_107765" result="shape"/>
</filter>
<clipPath id="clip0_47_107765">
<rect x="438" y="43" width="593" height="415" rx="8" fill="white"/>
</clipPath>
<clipPath id="clip1_47_107765">
<rect width="593" height="36" fill="white" transform="translate(438 43)"/>
</clipPath>
<clipPath id="clip2_47_107765">
<rect width="49" height="379" fill="white" transform="translate(438 79)"/>
</clipPath>
<clipPath id="clip3_47_107765">
<rect x="503" y="129" width="135" height="293" rx="8" fill="white"/>
</clipPath>
<clipPath id="clip4_47_107765">
<rect x="654" y="129" width="200" height="120" rx="8" fill="white"/>
</clipPath>
<clipPath id="clip5_47_107765">
<rect x="654" y="265" width="200" height="157" rx="8" fill="white"/>
</clipPath>
<clipPath id="clip6_47_107765">
<rect x="1169" y="51" width="187" height="399" rx="8" fill="white"/>
</clipPath>
<clipPath id="clip7_47_107765">
<rect width="187" height="367" fill="white" transform="translate(1169 83)"/>
</clipPath>
<clipPath id="clip8_47_107765">
<rect x="1177" y="119" width="171" height="140" rx="8" fill="white"/>
</clipPath>
<clipPath id="clip9_47_107765">
<rect x="1177" y="267" width="171" height="114" rx="8" fill="white"/>
</clipPath>
<clipPath id="clip10_47_107765">
<rect x="1177" y="389" width="171" height="98" rx="8" fill="white"/>
</clipPath>
</defs>
</svg>
