<svg width="1920" height="500" viewBox="0 0 1920 500" fill="none" xmlns="http://www.w3.org/2000/svg">
<rect width="1920" height="500" fill="#F5F5F5"/>
<g filter="url(#filter0_dd_55_27890)">
<rect x="429" y="33" width="612" height="434" rx="16" fill="#616161"/>
<rect x="438.533" y="43" width="592" height="414" rx="8" fill="black"/>
</g>
<g clip-path="url(#clip0_55_27890)">
<g clip-path="url(#clip1_55_27890)">
<rect width="593" height="36" transform="translate(438 43)" fill="#742774"/>
<rect x="438" y="37" width="150" height="48" fill="#742774"/>
<rect x="438" y="37" width="48" height="48" fill="#742774"/>
<path d="M455.5 53C455.708 53 455.904 53.0391 456.086 53.1172C456.268 53.1953 456.427 53.3021 456.562 53.4375C456.698 53.5729 456.805 53.7318 456.883 53.9141C456.961 54.0964 457 54.2917 457 54.5C457 54.7083 456.961 54.9036 456.883 55.0859C456.805 55.2682 456.698 55.4271 456.562 55.5625C456.427 55.6979 456.268 55.8047 456.086 55.8828C455.904 55.9609 455.708 56 455.5 56C455.292 56 455.096 55.9609 454.914 55.8828C454.732 55.8047 454.573 55.6979 454.438 55.5625C454.302 55.4271 454.195 55.2682 454.117 55.0859C454.039 54.9036 454 54.7083 454 54.5C454 54.2917 454.039 54.0964 454.117 53.9141C454.195 53.7318 454.302 53.5729 454.438 53.4375C454.573 53.3021 454.732 53.1953 454.914 53.1172C455.096 53.0391 455.292 53 455.5 53ZM461.5 53C461.708 53 461.904 53.0391 462.086 53.1172C462.268 53.1953 462.427 53.3021 462.562 53.4375C462.698 53.5729 462.805 53.7318 462.883 53.9141C462.961 54.0964 463 54.2917 463 54.5C463 54.7083 462.961 54.9036 462.883 55.0859C462.805 55.2682 462.698 55.4271 462.562 55.5625C462.427 55.6979 462.268 55.8047 462.086 55.8828C461.904 55.9609 461.708 56 461.5 56C461.292 56 461.096 55.9609 460.914 55.8828C460.732 55.8047 460.573 55.6979 460.438 55.5625C460.302 55.4271 460.195 55.2682 460.117 55.0859C460.039 54.9036 460 54.7083 460 54.5C460 54.2917 460.039 54.0964 460.117 53.9141C460.195 53.7318 460.302 53.5729 460.438 53.4375C460.573 53.3021 460.732 53.1953 460.914 53.1172C461.096 53.0391 461.292 53 461.5 53ZM467.5 56C467.292 56 467.096 55.9609 466.914 55.8828C466.732 55.8047 466.573 55.6979 466.438 55.5625C466.302 55.4271 466.195 55.2682 466.117 55.0859C466.039 54.9036 466 54.7083 466 54.5C466 54.2917 466.039 54.0964 466.117 53.9141C466.195 53.7318 466.302 53.5729 466.438 53.4375C466.573 53.3021 466.732 53.1953 466.914 53.1172C467.096 53.0391 467.292 53 467.5 53C467.708 53 467.904 53.0391 468.086 53.1172C468.268 53.1953 468.427 53.3021 468.562 53.4375C468.698 53.5729 468.805 53.7318 468.883 53.9141C468.961 54.0964 469 54.2917 469 54.5C469 54.7083 468.961 54.9036 468.883 55.0859C468.805 55.2682 468.698 55.4271 468.562 55.5625C468.427 55.6979 468.268 55.8047 468.086 55.8828C467.904 55.9609 467.708 56 467.5 56ZM455.5 59C455.708 59 455.904 59.0391 456.086 59.1172C456.268 59.1953 456.427 59.3021 456.562 59.4375C456.698 59.5729 456.805 59.7318 456.883 59.9141C456.961 60.0964 457 60.2917 457 60.5C457 60.7083 456.961 60.9036 456.883 61.0859C456.805 61.2682 456.698 61.4271 456.562 61.5625C456.427 61.6979 456.268 61.8047 456.086 61.8828C455.904 61.9609 455.708 62 455.5 62C455.292 62 455.096 61.9609 454.914 61.8828C454.732 61.8047 454.573 61.6979 454.438 61.5625C454.302 61.4271 454.195 61.2682 454.117 61.0859C454.039 60.9036 454 60.7083 454 60.5C454 60.2917 454.039 60.0964 454.117 59.9141C454.195 59.7318 454.302 59.5729 454.438 59.4375C454.573 59.3021 454.732 59.1953 454.914 59.1172C455.096 59.0391 455.292 59 455.5 59ZM461.5 59C461.708 59 461.904 59.0391 462.086 59.1172C462.268 59.1953 462.427 59.3021 462.562 59.4375C462.698 59.5729 462.805 59.7318 462.883 59.9141C462.961 60.0964 463 60.2917 463 60.5C463 60.7083 462.961 60.9036 462.883 61.0859C462.805 61.2682 462.698 61.4271 462.562 61.5625C462.427 61.6979 462.268 61.8047 462.086 61.8828C461.904 61.9609 461.708 62 461.5 62C461.292 62 461.096 61.9609 460.914 61.8828C460.732 61.8047 460.573 61.6979 460.438 61.5625C460.302 61.4271 460.195 61.2682 460.117 61.0859C460.039 60.9036 460 60.7083 460 60.5C460 60.2917 460.039 60.0964 460.117 59.9141C460.195 59.7318 460.302 59.5729 460.438 59.4375C460.573 59.3021 460.732 59.1953 460.914 59.1172C461.096 59.0391 461.292 59 461.5 59ZM467.5 59C467.708 59 467.904 59.0391 468.086 59.1172C468.268 59.1953 468.427 59.3021 468.562 59.4375C468.698 59.5729 468.805 59.7318 468.883 59.9141C468.961 60.0964 469 60.2917 469 60.5C469 60.7083 468.961 60.9036 468.883 61.0859C468.805 61.2682 468.698 61.4271 468.562 61.5625C468.427 61.6979 468.268 61.8047 468.086 61.8828C467.904 61.9609 467.708 62 467.5 62C467.292 62 467.096 61.9609 466.914 61.8828C466.732 61.8047 466.573 61.6979 466.438 61.5625C466.302 61.4271 466.195 61.2682 466.117 61.0859C466.039 60.9036 466 60.7083 466 60.5C466 60.2917 466.039 60.0964 466.117 59.9141C466.195 59.7318 466.302 59.5729 466.438 59.4375C466.573 59.3021 466.732 59.1953 466.914 59.1172C467.096 59.0391 467.292 59 467.5 59ZM455.5 65C455.708 65 455.904 65.0391 456.086 65.1172C456.268 65.1953 456.427 65.3021 456.562 65.4375C456.698 65.5729 456.805 65.7318 456.883 65.9141C456.961 66.0964 457 66.2917 457 66.5C457 66.7083 456.961 66.9036 456.883 67.0859C456.805 67.2682 456.698 67.4271 456.562 67.5625C456.427 67.6979 456.268 67.8047 456.086 67.8828C455.904 67.9609 455.708 68 455.5 68C455.292 68 455.096 67.9609 454.914 67.8828C454.732 67.8047 454.573 67.6979 454.438 67.5625C454.302 67.4271 454.195 67.2682 454.117 67.0859C454.039 66.9036 454 66.7083 454 66.5C454 66.2917 454.039 66.0964 454.117 65.9141C454.195 65.7318 454.302 65.5729 454.438 65.4375C454.573 65.3021 454.732 65.1953 454.914 65.1172C455.096 65.0391 455.292 65 455.5 65ZM461.5 65C461.708 65 461.904 65.0391 462.086 65.1172C462.268 65.1953 462.427 65.3021 462.562 65.4375C462.698 65.5729 462.805 65.7318 462.883 65.9141C462.961 66.0964 463 66.2917 463 66.5C463 66.7083 462.961 66.9036 462.883 67.0859C462.805 67.2682 462.698 67.4271 462.562 67.5625C462.427 67.6979 462.268 67.8047 462.086 67.8828C461.904 67.9609 461.708 68 461.5 68C461.292 68 461.096 67.9609 460.914 67.8828C460.732 67.8047 460.573 67.6979 460.438 67.5625C460.302 67.4271 460.195 67.2682 460.117 67.0859C460.039 66.9036 460 66.7083 460 66.5C460 66.2917 460.039 66.0964 460.117 65.9141C460.195 65.7318 460.302 65.5729 460.438 65.4375C460.573 65.3021 460.732 65.1953 460.914 65.1172C461.096 65.0391 461.292 65 461.5 65ZM467.5 65C467.708 65 467.904 65.0391 468.086 65.1172C468.268 65.1953 468.427 65.3021 468.562 65.4375C468.698 65.5729 468.805 65.7318 468.883 65.9141C468.961 66.0964 469 66.2917 469 66.5C469 66.7083 468.961 66.9036 468.883 67.0859C468.805 67.2682 468.698 67.4271 468.562 67.5625C468.427 67.6979 468.268 67.8047 468.086 67.8828C467.904 67.9609 467.708 68 467.5 68C467.292 68 467.096 67.9609 466.914 67.8828C466.732 67.8047 466.573 67.6979 466.438 67.5625C466.302 67.4271 466.195 67.2682 466.117 67.0859C466.039 66.9036 466 66.7083 466 66.5C466 66.2917 466.039 66.0964 466.117 65.9141C466.195 65.7318 466.302 65.5729 466.438 65.4375C466.573 65.3021 466.732 65.1953 466.914 65.1172C467.096 65.0391 467.292 65 467.5 65Z" fill="white"/>
<rect x="485" y="53" width="69" height="17" rx="8.5" fill="#953B95"/>
<path fill-rule="evenodd" clip-rule="evenodd" d="M862.956 67C866.27 67 868.956 64.3137 868.956 61C868.956 57.6863 866.27 55 862.956 55C859.642 55 856.956 57.6863 856.956 61C856.956 64.3137 859.642 67 862.956 67Z" fill="#953B95"/>
<path fill-rule="evenodd" clip-rule="evenodd" d="M910.956 67C914.27 67 916.956 64.3137 916.956 61C916.956 57.6863 914.27 55 910.956 55C907.642 55 904.956 57.6863 904.956 61C904.956 64.3137 907.642 67 910.956 67Z" fill="#953B95"/>
<path fill-rule="evenodd" clip-rule="evenodd" d="M958.956 67C962.27 67 964.956 64.3137 964.956 61C964.956 57.6863 962.27 55 958.956 55C955.642 55 952.956 57.6863 952.956 61C952.956 64.3137 955.642 67 958.956 67Z" fill="#953B95"/>
<rect x="983" y="37" width="48" height="48" fill="#742774"/>
<path d="M993 61C993 53.268 999.268 47 1007 47C1014.73 47 1021 53.268 1021 61C1021 68.732 1014.73 75 1007 75C999.268 75 993 68.732 993 61Z" fill="#953B95"/>
<path d="M1007 53C1004.79 53 1003 54.7909 1003 57C1003 59.2091 1004.79 61 1007 61C1009.21 61 1011 59.2091 1011 57C1011 54.7909 1009.21 53 1007 53ZM1004 57C1004 55.3431 1005.34 54 1007 54C1008.66 54 1010 55.3431 1010 57C1010 58.6569 1008.66 60 1007 60C1005.34 60 1004 58.6569 1004 57ZM1002.01 62C1000.9 62 1000 62.8869 1000 64C1000 65.6912 1000.83 66.9663 1002.13 67.7966C1003.42 68.614 1005.15 69 1007 69C1008.85 69 1010.58 68.614 1011.87 67.7966C1013.17 66.9663 1014 65.6912 1014 64C1014 62.8956 1013.1 62 1012 62L1002.01 62ZM1001 64C1001 63.4467 1001.45 63 1002.01 63L1012 63C1012.55 63 1013 63.4478 1013 64C1013 65.3088 1012.38 66.2837 1011.33 66.9534C1010.26 67.636 1008.74 68 1007 68C1005.26 68 1003.74 67.636 1002.67 66.9534C1001.62 66.2837 1001 65.3088 1001 64Z" fill="#DF65DF"/>
</g>
<g clip-path="url(#clip2_55_27890)">
<rect width="49" height="379" transform="translate(438 79)" fill="#EBEBEB"/>
<path d="M454.5 99.75C454.5 99.3358 454.836 99 455.25 99H469.75C470.164 99 470.5 99.3358 470.5 99.75C470.5 100.164 470.164 100.5 469.75 100.5H455.25C454.836 100.5 454.5 100.164 454.5 99.75ZM454.5 104.75C454.5 104.336 454.836 104 455.25 104H469.75C470.164 104 470.5 104.336 470.5 104.75C470.5 105.164 470.164 105.5 469.75 105.5H455.25C454.836 105.5 454.5 105.164 454.5 104.75ZM455.25 109C454.836 109 454.5 109.336 454.5 109.75C454.5 110.164 454.836 110.5 455.25 110.5H469.75C470.164 110.5 470.5 110.164 470.5 109.75C470.5 109.336 470.164 109 469.75 109H455.25Z" fill="#818181"/>
<rect x="454.5" y="134" width="17" height="17" rx="8.5" fill="#D9D9D9"/>
<rect x="454.5" y="169" width="16" height="16" rx="8" fill="#D9D9D9"/>
<rect x="454.5" y="204" width="16" height="16" rx="8" fill="#D9D9D9"/>
<rect x="454.5" y="239" width="16" height="16" rx="8" fill="#D9D9D9"/>
<rect x="454.5" y="274" width="16" height="16" rx="8" fill="#D9D9D9"/>
<rect x="454.5" y="309" width="16" height="16" rx="8" fill="#D9D9D9"/>
<rect x="454.5" y="344" width="16" height="16" rx="8" fill="#D9D9D9"/>
<rect x="454.5" y="379" width="16" height="16" rx="8" fill="#D9D9D9"/>
</g>
<g clip-path="url(#clip3_55_27890)">
<rect width="544" height="379" transform="translate(487 79)" fill="#F5F5F5"/>
<g filter="url(#filter1_dd_55_27890)">
<rect x="548" y="152" width="415" height="254" rx="8" fill="white"/>
<rect x="571" y="199" width="123" height="13" rx="4" fill="#F0F0F0"/>
<rect x="571" y="184" width="73" height="5" rx="2.5" fill="#808080"/>
<path d="M661.5 186.5H657.207L660.243 183.464C660.438 183.269 660.438 182.952 660.243 182.757C660.048 182.562 659.731 182.562 659.536 182.757L656.5 185.793V181.5C656.5 181.224 656.276 181 656 181C655.724 181 655.5 181.224 655.5 181.5V185.793L652.464 182.757C652.269 182.562 651.952 182.562 651.757 182.757C651.562 182.952 651.562 183.269 651.757 183.464L654.793 186.5H650.5C650.224 186.5 650 186.724 650 187C650 187.276 650.224 187.5 650.5 187.5H654.793L651.757 190.536C651.562 190.731 651.562 191.048 651.757 191.243C651.855 191.341 651.983 191.389 652.111 191.389C652.239 191.389 652.367 191.34 652.465 191.243L655.501 188.207V192.5C655.501 192.776 655.725 193 656.001 193C656.277 193 656.501 192.776 656.501 192.5V188.207L659.537 191.243C659.635 191.341 659.763 191.389 659.891 191.389C660.019 191.389 660.147 191.34 660.245 191.243C660.44 191.048 660.44 190.731 660.245 190.536L657.209 187.5H661.502C661.778 187.5 662.002 187.276 662.002 187C662.002 186.724 661.778 186.5 661.502 186.5H661.5Z" fill="#C50F1F"/>
<rect x="571" y="245" width="123" height="13" rx="4" fill="#F0F0F0"/>
<rect x="571" y="231" width="50" height="5" rx="2.5" fill="#808080"/>
<path d="M641.5 232.5H637.207L640.243 229.464C640.438 229.269 640.438 228.952 640.243 228.757C640.048 228.562 639.731 228.562 639.536 228.757L636.5 231.793V227.5C636.5 227.224 636.276 227 636 227C635.724 227 635.5 227.224 635.5 227.5V231.793L632.464 228.757C632.269 228.562 631.952 228.562 631.757 228.757C631.562 228.952 631.562 229.269 631.757 229.464L634.793 232.5H630.5C630.224 232.5 630 232.724 630 233C630 233.276 630.224 233.5 630.5 233.5H634.793L631.757 236.536C631.562 236.731 631.562 237.048 631.757 237.243C631.855 237.341 631.983 237.389 632.111 237.389C632.239 237.389 632.367 237.34 632.465 237.243L635.501 234.207V238.5C635.501 238.776 635.725 239 636.001 239C636.277 239 636.501 238.776 636.501 238.5V234.207L639.537 237.243C639.635 237.341 639.763 237.389 639.891 237.389C640.019 237.389 640.147 237.34 640.245 237.243C640.44 237.048 640.44 236.731 640.245 236.536L637.209 233.5H641.502C641.778 233.5 642.002 233.276 642.002 233C642.002 232.724 641.778 232.5 641.502 232.5H641.5Z" fill="#C50F1F"/>
<rect x="571" y="297" width="355" height="22" rx="4" fill="#F0F0F0"/>
<rect x="571" y="283" width="93" height="5" rx="2.5" fill="#808080"/>
<path d="M571 365C571 362.791 572.791 361 575 361H647C649.209 361 651 362.791 651 365V381C651 383.209 649.209 385 647 385H575C572.791 385 571 383.209 571 381V365Z" fill="#CA5BCA"/>
<mask id="path-34-inside-1_55_27890" fill="white">
<path d="M660 365C660 362.791 661.791 361 664 361H736C738.209 361 740 362.791 740 365V381C740 383.209 738.209 385 736 385H664C661.791 385 660 383.209 660 381V365Z"/>
</mask>
<path d="M660 365C660 362.791 661.791 361 664 361H736C738.209 361 740 362.791 740 365V381C740 383.209 738.209 385 736 385H664C661.791 385 660 383.209 660 381V365Z" fill="white"/>
<path d="M664 362H736V360H664V362ZM739 365V381H741V365H739ZM736 384H664V386H736V384ZM661 381V365H659V381H661ZM664 384C662.343 384 661 382.657 661 381H659C659 383.761 661.239 386 664 386V384ZM739 381C739 382.657 737.657 384 736 384V386C738.761 386 741 383.761 741 381H739ZM736 362C737.657 362 739 363.343 739 365H741C741 362.239 738.761 360 736 360V362ZM664 360C661.239 360 659 362.239 659 365H661C661 363.343 662.343 362 664 362V360Z" fill="#D1D1D1" mask="url(#path-34-inside-1_55_27890)"/>
</g>
<rect x="548" y="125" width="143" height="13" rx="6.5" fill="#AB84AB"/>
<rect width="545" height="24" transform="translate(487 79)" fill="#EBEBEB"/>
<path d="M513 91C513 91.4142 512.664 91.75 512.25 91.75L503.463 91.75L506.75 94.6911C507.059 94.9673 507.085 95.4414 506.809 95.7501C506.533 96.0588 506.059 96.0851 505.75 95.8089L501 91.5589C500.841 91.4167 500.75 91.2134 500.75 91C500.75 90.7866 500.841 90.5834 501 90.4411L505.75 86.1911C506.059 85.9149 506.533 85.9412 506.809 86.2499C507.085 86.5586 507.059 87.0327 506.75 87.3089L503.463 90.25L512.25 90.25C512.664 90.25 513 90.5858 513 91Z" fill="#CA5BCA"/>
<path fill-rule="evenodd" clip-rule="evenodd" d="M527 95C529.209 95 531 93.2091 531 91C531 88.7909 529.209 87 527 87C524.791 87 523 88.7909 523 91C523 93.2091 524.791 95 527 95Z" fill="#818181"/>
<path d="M705.499 130.5C705.499 130.224 705.275 130 704.999 130C704.723 130 704.499 130.224 704.499 130.5V133.5C704.499 133.776 704.723 134 704.999 134C705.275 134 705.499 133.776 705.499 133.5V130.5ZM705.748 128.5C705.748 128.914 705.413 129.249 704.999 129.249C704.585 129.249 704.25 128.914 704.25 128.5C704.25 128.086 704.585 127.751 704.999 127.751C705.413 127.751 705.748 128.086 705.748 128.5ZM705 124C701.134 124 698 127.134 698 131C698 134.866 701.134 138 705 138C708.866 138 712 134.866 712 131C712 127.134 708.866 124 705 124ZM699 131C699 127.686 701.686 125 705 125C708.314 125 711 127.686 711 131C711 134.314 708.314 137 705 137C701.686 137 699 134.314 699 131Z" fill="#808080"/>
</g>
</g>
<g filter="url(#filter2_dd_55_27890)">
<g filter="url(#filter3_i_55_27890)">
<rect x="1162" y="44" width="201" height="413" rx="16" fill="#616161"/>
</g>
<rect x="1168.98" y="50.8834" width="187.031" height="399.233" rx="8" fill="black"/>
<g clip-path="url(#clip4_55_27890)">
<rect width="187" height="32" transform="translate(1169 51)" fill="#EBEBEB"/>
<path d="M1181 62.75C1181 62.3358 1181.34 62 1181.75 62H1196.25C1196.66 62 1197 62.3358 1197 62.75C1197 63.1642 1196.66 63.5 1196.25 63.5H1181.75C1181.34 63.5 1181 63.1642 1181 62.75ZM1181 67.75C1181 67.3358 1181.34 67 1181.75 67H1196.25C1196.66 67 1197 67.3358 1197 67.75C1197 68.1642 1196.66 68.5 1196.25 68.5H1181.75C1181.34 68.5 1181 68.1642 1181 67.75ZM1181.75 72C1181.34 72 1181 72.3358 1181 72.75C1181 73.1642 1181.34 73.5 1181.75 73.5H1196.25C1196.66 73.5 1197 73.1642 1197 72.75C1197 72.3358 1196.66 72 1196.25 72H1181.75Z" fill="#818181"/>
<g clip-path="url(#clip5_55_27890)">
<rect width="187" height="367" transform="translate(1169 83)" fill="#FAFAFA"/>
<g filter="url(#filter4_dd_55_27890)">
<g clip-path="url(#clip6_55_27890)">
<rect x="1177" y="119" width="171" height="228" rx="8" fill="white"/>
<rect x="1189" y="152" width="123" height="13" rx="4" fill="#F0F0F0"/>
<rect x="1189" y="136" width="72" height="8" rx="4" fill="#D6D6D6"/>
<path d="M1279.5 139.5H1275.21L1278.24 136.464C1278.44 136.269 1278.44 135.952 1278.24 135.757C1278.05 135.562 1277.73 135.562 1277.54 135.757L1274.5 138.793V134.5C1274.5 134.224 1274.28 134 1274 134C1273.72 134 1273.5 134.224 1273.5 134.5V138.793L1270.46 135.757C1270.27 135.562 1269.95 135.562 1269.76 135.757C1269.56 135.952 1269.56 136.269 1269.76 136.464L1272.79 139.5H1268.5C1268.22 139.5 1268 139.724 1268 140C1268 140.276 1268.22 140.5 1268.5 140.5H1272.79L1269.76 143.536C1269.56 143.731 1269.56 144.048 1269.76 144.243C1269.85 144.341 1269.98 144.389 1270.11 144.389C1270.24 144.389 1270.37 144.34 1270.47 144.243L1273.5 141.207V145.5C1273.5 145.776 1273.73 146 1274 146C1274.28 146 1274.5 145.776 1274.5 145.5V141.207L1277.54 144.243C1277.63 144.341 1277.76 144.389 1277.89 144.389C1278.02 144.389 1278.15 144.34 1278.24 144.243C1278.44 144.048 1278.44 143.731 1278.24 143.536L1275.21 140.5H1279.5C1279.78 140.5 1280 140.276 1280 140C1280 139.724 1279.78 139.5 1279.5 139.5H1279.5Z" fill="#C50F1F"/>
<rect x="1189" y="198" width="123" height="13" rx="4" fill="#F0F0F0"/>
<rect x="1189" y="182" width="53" height="8" rx="4" fill="#D6D6D6"/>
<path d="M1259.5 185.5H1255.21L1258.24 182.464C1258.44 182.269 1258.44 181.952 1258.24 181.757C1258.05 181.562 1257.73 181.562 1257.54 181.757L1254.5 184.793V180.5C1254.5 180.224 1254.28 180 1254 180C1253.72 180 1253.5 180.224 1253.5 180.5V184.793L1250.46 181.757C1250.27 181.562 1249.95 181.562 1249.76 181.757C1249.56 181.952 1249.56 182.269 1249.76 182.464L1252.79 185.5H1248.5C1248.22 185.5 1248 185.724 1248 186C1248 186.276 1248.22 186.5 1248.5 186.5H1252.79L1249.76 189.536C1249.56 189.731 1249.56 190.048 1249.76 190.243C1249.85 190.341 1249.98 190.389 1250.11 190.389C1250.24 190.389 1250.37 190.34 1250.47 190.243L1253.5 187.207V191.5C1253.5 191.776 1253.73 192 1254 192C1254.28 192 1254.5 191.776 1254.5 191.5V187.207L1257.54 190.243C1257.63 190.341 1257.76 190.389 1257.89 190.389C1258.02 190.389 1258.15 190.34 1258.24 190.243C1258.44 190.048 1258.44 189.731 1258.24 189.536L1255.21 186.5H1259.5C1259.78 186.5 1260 186.276 1260 186C1260 185.724 1259.78 185.5 1259.5 185.5H1259.5Z" fill="#C50F1F"/>
<rect x="1189" y="250" width="149" height="63" rx="4" fill="#F0F0F0"/>
<rect x="1189" y="234" width="87" height="8" rx="4" fill="#D6D6D6"/>
</g>
</g>
<path d="M1340.5 103.5C1340.5 103.224 1340.28 103 1340 103C1339.72 103 1339.5 103.224 1339.5 103.5V106.5C1339.5 106.776 1339.72 107 1340 107C1340.28 107 1340.5 106.776 1340.5 106.5V103.5ZM1340.75 101.5C1340.75 101.914 1340.41 102.249 1340 102.249C1339.59 102.249 1339.25 101.914 1339.25 101.5C1339.25 101.086 1339.59 100.751 1340 100.751C1340.41 100.751 1340.75 101.086 1340.75 101.5ZM1340 97C1336.13 97 1333 100.134 1333 104C1333 107.866 1336.13 111 1340 111C1343.87 111 1347 107.866 1347 104C1347 100.134 1343.87 97 1340 97ZM1334 104C1334 100.686 1336.69 98 1340 98C1343.31 98 1346 100.686 1346 104C1346 107.314 1343.31 110 1340 110C1336.69 110 1334 107.314 1334 104Z" fill="#808080"/>
<path d="M1177 362C1177 359.791 1178.79 358 1181 358H1345C1347.21 358 1349 359.791 1349 362V387C1349 389.209 1347.21 391 1345 391H1181C1178.79 391 1177 389.209 1177 387V362Z" fill="#CA5BCA"/>
<mask id="path-55-inside-2_55_27890" fill="white">
<path d="M1177 401C1177 398.791 1178.79 397 1181 397H1345C1347.21 397 1349 398.791 1349 401V426C1349 428.209 1347.21 430 1345 430H1181C1178.79 430 1177 428.209 1177 426V401Z"/>
</mask>
<path d="M1177 401C1177 398.791 1178.79 397 1181 397H1345C1347.21 397 1349 398.791 1349 401V426C1349 428.209 1347.21 430 1345 430H1181C1178.79 430 1177 428.209 1177 426V401Z" fill="white"/>
<path d="M1181 398H1345V396H1181V398ZM1348 401V426H1350V401H1348ZM1345 429H1181V431H1345V429ZM1178 426V401H1176V426H1178ZM1181 429C1179.34 429 1178 427.657 1178 426H1176C1176 428.761 1178.24 431 1181 431V429ZM1348 426C1348 427.657 1346.66 429 1345 429V431C1347.76 431 1350 428.761 1350 426H1348ZM1345 398C1346.66 398 1348 399.343 1348 401H1350C1350 398.239 1347.76 396 1345 396V398ZM1181 396C1178.24 396 1176 398.239 1176 401H1178C1178 399.343 1179.34 398 1181 398V396Z" fill="#D1D1D1" mask="url(#path-55-inside-2_55_27890)"/>
</g>
</g>
<line x1="1229.49" y1="436.916" x2="1294.94" y2="436.916" stroke="white" stroke-opacity="0.5" stroke-width="4" stroke-linecap="round" stroke-linejoin="round"/>
</g>
<rect x="1179" y="98" width="113" height="13" rx="6.5" fill="#AB84AB"/>
<defs>
<filter id="filter0_dd_55_27890" x="414.6" y="25" width="640.8" height="462.8" filterUnits="userSpaceOnUse" color-interpolation-filters="sRGB">
<feFlood flood-opacity="0" result="BackgroundImageFix"/>
<feColorMatrix in="SourceAlpha" type="matrix" values="0 0 0 0 0 0 0 0 0 0 0 0 0 0 0 0 0 0 127 0" result="hardAlpha"/>
<feOffset dy="6.4"/>
<feGaussianBlur stdDeviation="7.2"/>
<feColorMatrix type="matrix" values="0 0 0 0 0 0 0 0 0 0 0 0 0 0 0 0 0 0 0.13 0"/>
<feBlend mode="normal" in2="BackgroundImageFix" result="effect1_dropShadow_55_27890"/>
<feColorMatrix in="SourceAlpha" type="matrix" values="0 0 0 0 0 0 0 0 0 0 0 0 0 0 0 0 0 0 127 0" result="hardAlpha"/>
<feOffset dy="1.2"/>
<feGaussianBlur stdDeviation="1.8"/>
<feColorMatrix type="matrix" values="0 0 0 0 0 0 0 0 0 0 0 0 0 0 0 0 0 0 0.1 0"/>
<feBlend mode="normal" in2="effect1_dropShadow_55_27890" result="effect2_dropShadow_55_27890"/>
<feBlend mode="normal" in="SourceGraphic" in2="effect2_dropShadow_55_27890" result="shape"/>
</filter>
<filter id="filter1_dd_55_27890" x="546" y="150" width="419" height="259" filterUnits="userSpaceOnUse" color-interpolation-filters="sRGB">
<feFlood flood-opacity="0" result="BackgroundImageFix"/>
<feColorMatrix in="SourceAlpha" type="matrix" values="0 0 0 0 0 0 0 0 0 0 0 0 0 0 0 0 0 0 127 0" result="hardAlpha"/>
<feOffset/>
<feGaussianBlur stdDeviation="1"/>
<feComposite in2="hardAlpha" operator="out"/>
<feColorMatrix type="matrix" values="0 0 0 0 0 0 0 0 0 0 0 0 0 0 0 0 0 0 0.12 0"/>
<feBlend mode="normal" in2="BackgroundImageFix" result="effect1_dropShadow_55_27890"/>
<feColorMatrix in="SourceAlpha" type="matrix" values="0 0 0 0 0 0 0 0 0 0 0 0 0 0 0 0 0 0 127 0" result="hardAlpha"/>
<feOffset dy="1"/>
<feGaussianBlur stdDeviation="1"/>
<feComposite in2="hardAlpha" operator="out"/>
<feColorMatrix type="matrix" values="0 0 0 0 0 0 0 0 0 0 0 0 0 0 0 0 0 0 0.14 0"/>
<feBlend mode="normal" in2="effect1_dropShadow_55_27890" result="effect2_dropShadow_55_27890"/>
<feBlend mode="normal" in="SourceGraphic" in2="effect2_dropShadow_55_27890" result="shape"/>
</filter>
<filter id="filter2_dd_55_27890" x="1147.6" y="36" width="229.8" height="441.8" filterUnits="userSpaceOnUse" color-interpolation-filters="sRGB">
<feFlood flood-opacity="0" result="BackgroundImageFix"/>
<feColorMatrix in="SourceAlpha" type="matrix" values="0 0 0 0 0 0 0 0 0 0 0 0 0 0 0 0 0 0 127 0" result="hardAlpha"/>
<feOffset dy="6.4"/>
<feGaussianBlur stdDeviation="7.2"/>
<feColorMatrix type="matrix" values="0 0 0 0 0 0 0 0 0 0 0 0 0 0 0 0 0 0 0.13 0"/>
<feBlend mode="normal" in2="BackgroundImageFix" result="effect1_dropShadow_55_27890"/>
<feColorMatrix in="SourceAlpha" type="matrix" values="0 0 0 0 0 0 0 0 0 0 0 0 0 0 0 0 0 0 127 0" result="hardAlpha"/>
<feOffset dy="1.2"/>
<feGaussianBlur stdDeviation="1.8"/>
<feColorMatrix type="matrix" values="0 0 0 0 0 0 0 0 0 0 0 0 0 0 0 0 0 0 0.1 0"/>
<feBlend mode="normal" in2="effect1_dropShadow_55_27890" result="effect2_dropShadow_55_27890"/>
<feBlend mode="normal" in="SourceGraphic" in2="effect2_dropShadow_55_27890" result="shape"/>
</filter>
<filter id="filter3_i_55_27890" x="1162" y="42.6" width="201" height="414.4" filterUnits="userSpaceOnUse" color-interpolation-filters="sRGB">
<feFlood flood-opacity="0" result="BackgroundImageFix"/>
<feBlend mode="normal" in="SourceGraphic" in2="BackgroundImageFix" result="shape"/>
<feColorMatrix in="SourceAlpha" type="matrix" values="0 0 0 0 0 0 0 0 0 0 0 0 0 0 0 0 0 0 127 0" result="hardAlpha"/>
<feOffset dy="-1.4"/>
<feGaussianBlur stdDeviation="2"/>
<feComposite in2="hardAlpha" operator="arithmetic" k2="-1" k3="1"/>
<feColorMatrix type="matrix" values="0 0 0 0 0 0 0 0 0 0 0 0 0 0 0 0 0 0 0.08 0"/>
<feBlend mode="normal" in2="shape" result="effect1_innerShadow_55_27890"/>
</filter>
<filter id="filter4_dd_55_27890" x="1175" y="117" width="175" height="233" filterUnits="userSpaceOnUse" color-interpolation-filters="sRGB">
<feFlood flood-opacity="0" result="BackgroundImageFix"/>
<feColorMatrix in="SourceAlpha" type="matrix" values="0 0 0 0 0 0 0 0 0 0 0 0 0 0 0 0 0 0 127 0" result="hardAlpha"/>
<feOffset/>
<feGaussianBlur stdDeviation="1"/>
<feComposite in2="hardAlpha" operator="out"/>
<feColorMatrix type="matrix" values="0 0 0 0 0 0 0 0 0 0 0 0 0 0 0 0 0 0 0.12 0"/>
<feBlend mode="normal" in2="BackgroundImageFix" result="effect1_dropShadow_55_27890"/>
<feColorMatrix in="SourceAlpha" type="matrix" values="0 0 0 0 0 0 0 0 0 0 0 0 0 0 0 0 0 0 127 0" result="hardAlpha"/>
<feOffset dy="1"/>
<feGaussianBlur stdDeviation="1"/>
<feComposite in2="hardAlpha" operator="out"/>
<feColorMatrix type="matrix" values="0 0 0 0 0 0 0 0 0 0 0 0 0 0 0 0 0 0 0.14 0"/>
<feBlend mode="normal" in2="effect1_dropShadow_55_27890" result="effect2_dropShadow_55_27890"/>
<feBlend mode="normal" in="SourceGraphic" in2="effect2_dropShadow_55_27890" result="shape"/>
</filter>
<clipPath id="clip0_55_27890">
<rect x="438" y="43" width="593" height="415" rx="8" fill="white"/>
</clipPath>
<clipPath id="clip1_55_27890">
<rect width="593" height="36" fill="white" transform="translate(438 43)"/>
</clipPath>
<clipPath id="clip2_55_27890">
<rect width="49" height="379" fill="white" transform="translate(438 79)"/>
</clipPath>
<clipPath id="clip3_55_27890">
<rect width="544" height="379" fill="white" transform="translate(487 79)"/>
</clipPath>
<clipPath id="clip4_55_27890">
<rect x="1169" y="51" width="187" height="399" rx="8" fill="white"/>
</clipPath>
<clipPath id="clip5_55_27890">
<rect width="187" height="367" fill="white" transform="translate(1169 83)"/>
</clipPath>
<clipPath id="clip6_55_27890">
<rect x="1177" y="119" width="171" height="228" rx="8" fill="white"/>
</clipPath>
</defs>
</svg>
