<svg width="1920" height="500" viewBox="0 0 1920 500" fill="none" xmlns="http://www.w3.org/2000/svg">
<rect width="1920" height="500" fill="#F5F5F5"/>
<g filter="url(#filter0_dd_57_28232)">
<rect x="429" y="33" width="612" height="434" rx="16" fill="#616161"/>
<rect x="438.533" y="43" width="592" height="414" rx="8" fill="black"/>
</g>
<g clip-path="url(#clip0_57_28232)">
<g clip-path="url(#clip1_57_28232)">
<rect width="593" height="36" transform="translate(438 43)" fill="#742774"/>
<rect x="438" y="37" width="150" height="48" fill="#742774"/>
<rect x="438" y="37" width="48" height="48" fill="#742774"/>
<path d="M455.5 53C455.708 53 455.904 53.0391 456.086 53.1172C456.268 53.1953 456.427 53.3021 456.562 53.4375C456.698 53.5729 456.805 53.7318 456.883 53.9141C456.961 54.0964 457 54.2917 457 54.5C457 54.7083 456.961 54.9036 456.883 55.0859C456.805 55.2682 456.698 55.4271 456.562 55.5625C456.427 55.6979 456.268 55.8047 456.086 55.8828C455.904 55.9609 455.708 56 455.5 56C455.292 56 455.096 55.9609 454.914 55.8828C454.732 55.8047 454.573 55.6979 454.438 55.5625C454.302 55.4271 454.195 55.2682 454.117 55.0859C454.039 54.9036 454 54.7083 454 54.5C454 54.2917 454.039 54.0964 454.117 53.9141C454.195 53.7318 454.302 53.5729 454.438 53.4375C454.573 53.3021 454.732 53.1953 454.914 53.1172C455.096 53.0391 455.292 53 455.5 53ZM461.5 53C461.708 53 461.904 53.0391 462.086 53.1172C462.268 53.1953 462.427 53.3021 462.562 53.4375C462.698 53.5729 462.805 53.7318 462.883 53.9141C462.961 54.0964 463 54.2917 463 54.5C463 54.7083 462.961 54.9036 462.883 55.0859C462.805 55.2682 462.698 55.4271 462.562 55.5625C462.427 55.6979 462.268 55.8047 462.086 55.8828C461.904 55.9609 461.708 56 461.5 56C461.292 56 461.096 55.9609 460.914 55.8828C460.732 55.8047 460.573 55.6979 460.438 55.5625C460.302 55.4271 460.195 55.2682 460.117 55.0859C460.039 54.9036 460 54.7083 460 54.5C460 54.2917 460.039 54.0964 460.117 53.9141C460.195 53.7318 460.302 53.5729 460.438 53.4375C460.573 53.3021 460.732 53.1953 460.914 53.1172C461.096 53.0391 461.292 53 461.5 53ZM467.5 56C467.292 56 467.096 55.9609 466.914 55.8828C466.732 55.8047 466.573 55.6979 466.438 55.5625C466.302 55.4271 466.195 55.2682 466.117 55.0859C466.039 54.9036 466 54.7083 466 54.5C466 54.2917 466.039 54.0964 466.117 53.9141C466.195 53.7318 466.302 53.5729 466.438 53.4375C466.573 53.3021 466.732 53.1953 466.914 53.1172C467.096 53.0391 467.292 53 467.5 53C467.708 53 467.904 53.0391 468.086 53.1172C468.268 53.1953 468.427 53.3021 468.562 53.4375C468.698 53.5729 468.805 53.7318 468.883 53.9141C468.961 54.0964 469 54.2917 469 54.5C469 54.7083 468.961 54.9036 468.883 55.0859C468.805 55.2682 468.698 55.4271 468.562 55.5625C468.427 55.6979 468.268 55.8047 468.086 55.8828C467.904 55.9609 467.708 56 467.5 56ZM455.5 59C455.708 59 455.904 59.0391 456.086 59.1172C456.268 59.1953 456.427 59.3021 456.562 59.4375C456.698 59.5729 456.805 59.7318 456.883 59.9141C456.961 60.0964 457 60.2917 457 60.5C457 60.7083 456.961 60.9036 456.883 61.0859C456.805 61.2682 456.698 61.4271 456.562 61.5625C456.427 61.6979 456.268 61.8047 456.086 61.8828C455.904 61.9609 455.708 62 455.5 62C455.292 62 455.096 61.9609 454.914 61.8828C454.732 61.8047 454.573 61.6979 454.438 61.5625C454.302 61.4271 454.195 61.2682 454.117 61.0859C454.039 60.9036 454 60.7083 454 60.5C454 60.2917 454.039 60.0964 454.117 59.9141C454.195 59.7318 454.302 59.5729 454.438 59.4375C454.573 59.3021 454.732 59.1953 454.914 59.1172C455.096 59.0391 455.292 59 455.5 59ZM461.5 59C461.708 59 461.904 59.0391 462.086 59.1172C462.268 59.1953 462.427 59.3021 462.562 59.4375C462.698 59.5729 462.805 59.7318 462.883 59.9141C462.961 60.0964 463 60.2917 463 60.5C463 60.7083 462.961 60.9036 462.883 61.0859C462.805 61.2682 462.698 61.4271 462.562 61.5625C462.427 61.6979 462.268 61.8047 462.086 61.8828C461.904 61.9609 461.708 62 461.5 62C461.292 62 461.096 61.9609 460.914 61.8828C460.732 61.8047 460.573 61.6979 460.438 61.5625C460.302 61.4271 460.195 61.2682 460.117 61.0859C460.039 60.9036 460 60.7083 460 60.5C460 60.2917 460.039 60.0964 460.117 59.9141C460.195 59.7318 460.302 59.5729 460.438 59.4375C460.573 59.3021 460.732 59.1953 460.914 59.1172C461.096 59.0391 461.292 59 461.5 59ZM467.5 59C467.708 59 467.904 59.0391 468.086 59.1172C468.268 59.1953 468.427 59.3021 468.562 59.4375C468.698 59.5729 468.805 59.7318 468.883 59.9141C468.961 60.0964 469 60.2917 469 60.5C469 60.7083 468.961 60.9036 468.883 61.0859C468.805 61.2682 468.698 61.4271 468.562 61.5625C468.427 61.6979 468.268 61.8047 468.086 61.8828C467.904 61.9609 467.708 62 467.5 62C467.292 62 467.096 61.9609 466.914 61.8828C466.732 61.8047 466.573 61.6979 466.438 61.5625C466.302 61.4271 466.195 61.2682 466.117 61.0859C466.039 60.9036 466 60.7083 466 60.5C466 60.2917 466.039 60.0964 466.117 59.9141C466.195 59.7318 466.302 59.5729 466.438 59.4375C466.573 59.3021 466.732 59.1953 466.914 59.1172C467.096 59.0391 467.292 59 467.5 59ZM455.5 65C455.708 65 455.904 65.0391 456.086 65.1172C456.268 65.1953 456.427 65.3021 456.562 65.4375C456.698 65.5729 456.805 65.7318 456.883 65.9141C456.961 66.0964 457 66.2917 457 66.5C457 66.7083 456.961 66.9036 456.883 67.0859C456.805 67.2682 456.698 67.4271 456.562 67.5625C456.427 67.6979 456.268 67.8047 456.086 67.8828C455.904 67.9609 455.708 68 455.5 68C455.292 68 455.096 67.9609 454.914 67.8828C454.732 67.8047 454.573 67.6979 454.438 67.5625C454.302 67.4271 454.195 67.2682 454.117 67.0859C454.039 66.9036 454 66.7083 454 66.5C454 66.2917 454.039 66.0964 454.117 65.9141C454.195 65.7318 454.302 65.5729 454.438 65.4375C454.573 65.3021 454.732 65.1953 454.914 65.1172C455.096 65.0391 455.292 65 455.5 65ZM461.5 65C461.708 65 461.904 65.0391 462.086 65.1172C462.268 65.1953 462.427 65.3021 462.562 65.4375C462.698 65.5729 462.805 65.7318 462.883 65.9141C462.961 66.0964 463 66.2917 463 66.5C463 66.7083 462.961 66.9036 462.883 67.0859C462.805 67.2682 462.698 67.4271 462.562 67.5625C462.427 67.6979 462.268 67.8047 462.086 67.8828C461.904 67.9609 461.708 68 461.5 68C461.292 68 461.096 67.9609 460.914 67.8828C460.732 67.8047 460.573 67.6979 460.438 67.5625C460.302 67.4271 460.195 67.2682 460.117 67.0859C460.039 66.9036 460 66.7083 460 66.5C460 66.2917 460.039 66.0964 460.117 65.9141C460.195 65.7318 460.302 65.5729 460.438 65.4375C460.573 65.3021 460.732 65.1953 460.914 65.1172C461.096 65.0391 461.292 65 461.5 65ZM467.5 65C467.708 65 467.904 65.0391 468.086 65.1172C468.268 65.1953 468.427 65.3021 468.562 65.4375C468.698 65.5729 468.805 65.7318 468.883 65.9141C468.961 66.0964 469 66.2917 469 66.5C469 66.7083 468.961 66.9036 468.883 67.0859C468.805 67.2682 468.698 67.4271 468.562 67.5625C468.427 67.6979 468.268 67.8047 468.086 67.8828C467.904 67.9609 467.708 68 467.5 68C467.292 68 467.096 67.9609 466.914 67.8828C466.732 67.8047 466.573 67.6979 466.438 67.5625C466.302 67.4271 466.195 67.2682 466.117 67.0859C466.039 66.9036 466 66.7083 466 66.5C466 66.2917 466.039 66.0964 466.117 65.9141C466.195 65.7318 466.302 65.5729 466.438 65.4375C466.573 65.3021 466.732 65.1953 466.914 65.1172C467.096 65.0391 467.292 65 467.5 65Z" fill="white"/>
<rect x="485" y="53" width="69" height="17" rx="8.5" fill="#953B95"/>
<path fill-rule="evenodd" clip-rule="evenodd" d="M862.956 67C866.27 67 868.956 64.3137 868.956 61C868.956 57.6863 866.27 55 862.956 55C859.642 55 856.956 57.6863 856.956 61C856.956 64.3137 859.642 67 862.956 67Z" fill="#953B95"/>
<path fill-rule="evenodd" clip-rule="evenodd" d="M910.956 67C914.27 67 916.956 64.3137 916.956 61C916.956 57.6863 914.27 55 910.956 55C907.642 55 904.956 57.6863 904.956 61C904.956 64.3137 907.642 67 910.956 67Z" fill="#953B95"/>
<path fill-rule="evenodd" clip-rule="evenodd" d="M958.956 67C962.27 67 964.956 64.3137 964.956 61C964.956 57.6863 962.27 55 958.956 55C955.642 55 952.956 57.6863 952.956 61C952.956 64.3137 955.642 67 958.956 67Z" fill="#953B95"/>
<rect x="983" y="37" width="48" height="48" fill="#742774"/>
<path d="M993 61C993 53.268 999.268 47 1007 47C1014.73 47 1021 53.268 1021 61C1021 68.732 1014.73 75 1007 75C999.268 75 993 68.732 993 61Z" fill="#953B95"/>
<path d="M1007 53C1004.79 53 1003 54.7909 1003 57C1003 59.2091 1004.79 61 1007 61C1009.21 61 1011 59.2091 1011 57C1011 54.7909 1009.21 53 1007 53ZM1004 57C1004 55.3431 1005.34 54 1007 54C1008.66 54 1010 55.3431 1010 57C1010 58.6569 1008.66 60 1007 60C1005.34 60 1004 58.6569 1004 57ZM1002.01 62C1000.9 62 1000 62.8869 1000 64C1000 65.6912 1000.83 66.9663 1002.13 67.7966C1003.42 68.614 1005.15 69 1007 69C1008.85 69 1010.58 68.614 1011.87 67.7966C1013.17 66.9663 1014 65.6912 1014 64C1014 62.8956 1013.1 62 1012 62L1002.01 62ZM1001 64C1001 63.4467 1001.45 63 1002.01 63L1012 63C1012.55 63 1013 63.4478 1013 64C1013 65.3088 1012.38 66.2837 1011.33 66.9534C1010.26 67.636 1008.74 68 1007 68C1005.26 68 1003.74 67.636 1002.67 66.9534C1001.62 66.2837 1001 65.3088 1001 64Z" fill="#DF65DF"/>
</g>
<g clip-path="url(#clip2_57_28232)">
<rect width="49" height="379" transform="translate(438 79)" fill="#EBEBEB"/>
<path d="M454.5 99.75C454.5 99.3358 454.836 99 455.25 99H469.75C470.164 99 470.5 99.3358 470.5 99.75C470.5 100.164 470.164 100.5 469.75 100.5H455.25C454.836 100.5 454.5 100.164 454.5 99.75ZM454.5 104.75C454.5 104.336 454.836 104 455.25 104H469.75C470.164 104 470.5 104.336 470.5 104.75C470.5 105.164 470.164 105.5 469.75 105.5H455.25C454.836 105.5 454.5 105.164 454.5 104.75ZM455.25 109C454.836 109 454.5 109.336 454.5 109.75C454.5 110.164 454.836 110.5 455.25 110.5H469.75C470.164 110.5 470.5 110.164 470.5 109.75C470.5 109.336 470.164 109 469.75 109H455.25Z" fill="#818181"/>
<rect x="454.5" y="134" width="17" height="17" rx="8.5" fill="#D9D9D9"/>
<rect x="454.5" y="169" width="16" height="16" rx="8" fill="#D9D9D9"/>
<rect x="454.5" y="204" width="16" height="16" rx="8" fill="#D9D9D9"/>
<rect x="454.5" y="239" width="16" height="16" rx="8" fill="#D9D9D9"/>
<rect x="454.5" y="274" width="16" height="16" rx="8" fill="#D9D9D9"/>
<rect x="454.5" y="309" width="16" height="16" rx="8" fill="#D9D9D9"/>
<rect x="454.5" y="344" width="16" height="16" rx="8" fill="#D9D9D9"/>
<rect x="454.5" y="379" width="16" height="16" rx="8" fill="#D9D9D9"/>
</g>
<g clip-path="url(#clip3_57_28232)">
<rect width="544" height="379" transform="translate(487 79)" fill="#FAFAFA"/>
<g filter="url(#filter1_dd_57_28232)">
<g clip-path="url(#clip4_57_28232)">
<rect x="513" y="155" width="492" height="319" rx="8" fill="white"/>
<rect x="548.5" y="198" width="14" height="14" rx="7" fill="#7F7CAD" fill-opacity="0.5"/>
<rect x="578.5" y="198" width="103" height="14" rx="7" fill="#7F7CAD" fill-opacity="0.5"/>
<rect x="697.5" y="198" width="129" height="14" rx="7" fill="#7F7CAD" fill-opacity="0.5"/>
<rect x="842.5" y="198" width="33" height="14" rx="7" fill="#7F7CAD" fill-opacity="0.5"/>
<rect x="891.5" y="198" width="102" height="14" rx="7" fill="#7F7CAD" fill-opacity="0.5"/>
<rect x="548.5" y="229" width="14" height="14" rx="7" fill="#7F7CAD" fill-opacity="0.5"/>
<rect x="578.5" y="229" width="103" height="14" rx="7" fill="#7F7CAD" fill-opacity="0.5"/>
<rect x="697.5" y="229" width="129" height="14" rx="7" fill="#7F7CAD" fill-opacity="0.5"/>
<rect x="842.5" y="229" width="33" height="14" rx="7" fill="#7F7CAD" fill-opacity="0.5"/>
<rect x="891.5" y="229" width="102" height="14" rx="7" fill="#7F7CAD" fill-opacity="0.5"/>
<rect x="548.5" y="260" width="14" height="14" rx="7" fill="#7F7CAD" fill-opacity="0.5"/>
<rect x="578.5" y="260" width="103" height="14" rx="7" fill="#7F7CAD" fill-opacity="0.5"/>
<rect x="697.5" y="260" width="129" height="14" rx="7" fill="#7F7CAD" fill-opacity="0.5"/>
<rect x="842.5" y="260" width="33" height="14" rx="7" fill="#7F7CAD" fill-opacity="0.5"/>
<rect x="891.5" y="260" width="102" height="14" rx="7" fill="#7F7CAD" fill-opacity="0.5"/>
<rect width="466" height="18" transform="translate(538 288)" fill="#EFEEFF"/>
<rect x="548.5" y="290" width="14" height="14" rx="7" fill="#0E00FF" fill-opacity="0.5"/>
<rect x="578.5" y="290" width="103" height="14" rx="7" fill="#7F7CAD" fill-opacity="0.5"/>
<rect x="697.5" y="290" width="129" height="14" rx="7" fill="#7F7CAD" fill-opacity="0.5"/>
<rect x="842.5" y="290" width="33" height="14" rx="7" fill="#7F7CAD" fill-opacity="0.5"/>
<rect x="891.5" y="290" width="102" height="14" rx="7" fill="#7F7CAD" fill-opacity="0.5"/>
<rect x="548.5" y="320" width="14" height="14" rx="7" fill="#7F7CAD" fill-opacity="0.5"/>
<rect x="578.5" y="320" width="103" height="14" rx="7" fill="#7F7CAD" fill-opacity="0.5"/>
<rect x="697.5" y="320" width="129" height="14" rx="7" fill="#7F7CAD" fill-opacity="0.5"/>
<rect x="842.5" y="320" width="33" height="14" rx="7" fill="#7F7CAD" fill-opacity="0.5"/>
<rect x="891.5" y="320" width="102" height="14" rx="7" fill="#7F7CAD" fill-opacity="0.5"/>
<rect x="548.5" y="351" width="14" height="14" rx="7" fill="#7F7CAD" fill-opacity="0.5"/>
<rect x="578.5" y="351" width="103" height="14" rx="7" fill="#7F7CAD" fill-opacity="0.5"/>
<rect x="697.5" y="351" width="129" height="14" rx="7" fill="#7F7CAD" fill-opacity="0.5"/>
<rect x="842.5" y="351" width="33" height="14" rx="7" fill="#7F7CAD" fill-opacity="0.5"/>
<rect x="891.5" y="351" width="102" height="14" rx="7" fill="#7F7CAD" fill-opacity="0.5"/>
<rect x="548.5" y="382" width="14" height="14" rx="7" fill="#7F7CAD" fill-opacity="0.5"/>
<rect x="578.5" y="382" width="103" height="14" rx="7" fill="#7F7CAD" fill-opacity="0.5"/>
<rect x="697.5" y="382" width="129" height="14" rx="7" fill="#7F7CAD" fill-opacity="0.5"/>
<rect x="842.5" y="382" width="33" height="14" rx="7" fill="#7F7CAD" fill-opacity="0.5"/>
<rect x="891.5" y="382" width="102" height="14" rx="7" fill="#7F7CAD" fill-opacity="0.5"/>
<rect x="548.5" y="413" width="14" height="14" rx="7" fill="#7F7CAD" fill-opacity="0.5"/>
<rect x="578.5" y="413" width="103" height="14" rx="7" fill="#7F7CAD" fill-opacity="0.5"/>
<rect x="697.5" y="413" width="129" height="14" rx="7" fill="#7F7CAD" fill-opacity="0.5"/>
<rect x="842.5" y="413" width="33" height="14" rx="7" fill="#7F7CAD" fill-opacity="0.5"/>
<rect x="891.5" y="413" width="102" height="14" rx="7" fill="#7F7CAD" fill-opacity="0.5"/>
<rect x="548.5" y="444" width="14" height="14" rx="7" fill="#7F7CAD" fill-opacity="0.5"/>
<rect x="578.5" y="444" width="103" height="14" rx="7" fill="#7F7CAD" fill-opacity="0.5"/>
<rect x="697.5" y="444" width="129" height="14" rx="7" fill="#7F7CAD" fill-opacity="0.5"/>
<rect x="842.5" y="444" width="33" height="14" rx="7" fill="#7F7CAD" fill-opacity="0.5"/>
<rect x="891.5" y="444" width="102" height="14" rx="7" fill="#7F7CAD" fill-opacity="0.5"/>
<rect x="580" y="172" width="33" height="5" rx="2.5" fill="#808080"/>
<rect x="698" y="172" width="33" height="5" rx="2.5" fill="#808080"/>
<rect x="844" y="172" width="33" height="5" rx="2.5" fill="#808080"/>
<rect x="895" y="172" width="33" height="5" rx="2.5" fill="#808080"/>
</g>
</g>
<rect x="513" y="126" width="113" height="13" rx="6.5" fill="#AB84AB"/>
<rect width="545" height="24" transform="translate(487 79)" fill="#EBEBEB"/>
<path fill-rule="evenodd" clip-rule="evenodd" d="M507 95C509.209 95 511 93.2091 511 91C511 88.7909 509.209 87 507 87C504.791 87 503 88.7909 503 91C503 93.2091 504.791 95 507 95Z" fill="#818181"/>
<path fill-rule="evenodd" clip-rule="evenodd" d="M527 95C529.209 95 531 93.2091 531 91C531 88.7909 529.209 87 527 87C524.791 87 523 88.7909 523 91C523 93.2091 524.791 95 527 95Z" fill="#818181"/>
<path fill-rule="evenodd" clip-rule="evenodd" d="M547 95C549.209 95 551 93.2091 551 91C551 88.7909 549.209 87 547 87C544.791 87 543 88.7909 543 91C543 93.2091 544.791 95 547 95Z" fill="#818181"/>
<path fill-rule="evenodd" clip-rule="evenodd" d="M567 95C569.209 95 571 93.2091 571 91C571 88.7909 569.209 87 567 87C564.791 87 563 88.7909 563 91C563 93.2091 564.791 95 567 95Z" fill="#818181"/>
<path fill-rule="evenodd" clip-rule="evenodd" d="M992 95C994.209 95 996 93.2091 996 91C996 88.7909 994.209 87 992 87C989.791 87 988 88.7909 988 91C988 93.2091 989.791 95 992 95Z" fill="#818181"/>
<path fill-rule="evenodd" clip-rule="evenodd" d="M1012 95C1014.21 95 1016 93.2091 1016 91C1016 88.7909 1014.21 87 1012 87C1009.79 87 1008 88.7909 1008 91C1008 93.2091 1009.79 95 1012 95Z" fill="#818181"/>
<rect x="932" y="126" width="73" height="13" rx="4" fill="#D6D6D6"/>
<path d="M914.5 125C917.538 125 920 127.462 920 130.5C920 131.748 919.584 132.9 918.883 133.823L923.03 137.97C923.323 138.263 923.323 138.737 923.03 139.03C922.764 139.297 922.347 139.321 922.054 139.103L921.97 139.03L917.823 134.883C916.9 135.584 915.748 136 914.5 136C911.462 136 909 133.538 909 130.5C909 127.462 911.462 125 914.5 125ZM914.5 126.5C912.291 126.5 910.5 128.291 910.5 130.5C910.5 132.709 912.291 134.5 914.5 134.5C916.709 134.5 918.5 132.709 918.5 130.5C918.5 128.291 916.709 126.5 914.5 126.5Z" fill="#CA5BCA"/>
<path d="M894.25 135.5C894.664 135.5 895 135.836 895 136.25C895 136.664 894.664 137 894.25 137H889.75C889.336 137 889 136.664 889 136.25C889 135.836 889.336 135.5 889.75 135.5H894.25ZM896.25 131.25C896.664 131.25 897 131.586 897 132C897 132.414 896.664 132.75 896.25 132.75H887.75C887.336 132.75 887 132.414 887 132C887 131.586 887.336 131.25 887.75 131.25H896.25ZM898.25 127C898.664 127 899 127.336 899 127.75C899 128.164 898.664 128.5 898.25 128.5H885.75C885.336 128.5 885 128.164 885 127.75C885 127.336 885.336 127 885.75 127H898.25Z" fill="#CA5BCA"/>
</g>
</g>
<g filter="url(#filter2_dd_57_28232)">
<g filter="url(#filter3_i_57_28232)">
<rect x="1162" y="44" width="201" height="413" rx="16" fill="#616161"/>
</g>
<rect x="1168.98" y="50.8833" width="187.031" height="399.233" rx="8" fill="black"/>
<g clip-path="url(#clip5_57_28232)">
<rect width="187" height="32" transform="translate(1169 51)" fill="#EBEBEB"/>
<path d="M1181 62.75C1181 62.3358 1181.34 62 1181.75 62H1196.25C1196.66 62 1197 62.3358 1197 62.75C1197 63.1642 1196.66 63.5 1196.25 63.5H1181.75C1181.34 63.5 1181 63.1642 1181 62.75ZM1181 67.75C1181 67.3358 1181.34 67 1181.75 67H1196.25C1196.66 67 1197 67.3358 1197 67.75C1197 68.1642 1196.66 68.5 1196.25 68.5H1181.75C1181.34 68.5 1181 68.1642 1181 67.75ZM1181.75 72C1181.34 72 1181 72.3358 1181 72.75C1181 73.1642 1181.34 73.5 1181.75 73.5H1196.25C1196.66 73.5 1197 73.1642 1197 72.75C1197 72.3358 1196.66 72 1196.25 72H1181.75Z" fill="#818181"/>
<g clip-path="url(#clip6_57_28232)">
<rect width="187" height="367" transform="translate(1169 83)" fill="#FAFAFA"/>
<g filter="url(#filter4_dd_57_28232)">
<g clip-path="url(#clip7_57_28232)">
<rect x="1179" y="119" width="172" height="319" rx="8" fill="white"/>
<rect x="1185.5" y="132" width="14" height="14" rx="7" fill="#7F7CAD" fill-opacity="0.5"/>
<rect x="1215.5" y="132" width="103" height="14" rx="7" fill="#7F7CAD" fill-opacity="0.5"/>
<rect x="1334.5" y="132" width="129" height="14" rx="7" fill="#7F7CAD" fill-opacity="0.5"/>
<rect x="1185.5" y="163" width="14" height="14" rx="7" fill="#7F7CAD" fill-opacity="0.5"/>
<rect x="1215.5" y="163" width="103" height="14" rx="7" fill="#7F7CAD" fill-opacity="0.5"/>
<rect x="1334.5" y="163" width="129" height="14" rx="7" fill="#7F7CAD" fill-opacity="0.5"/>
<rect x="1185.5" y="194" width="14" height="14" rx="7" fill="#7F7CAD" fill-opacity="0.5"/>
<rect x="1215.5" y="194" width="103" height="14" rx="7" fill="#7F7CAD" fill-opacity="0.5"/>
<rect x="1334.5" y="194" width="129" height="14" rx="7" fill="#7F7CAD" fill-opacity="0.5"/>
<rect width="466" height="18" transform="translate(1175 222)" fill="#EFEEFF"/>
<rect x="1185.5" y="224" width="14" height="14" rx="7" fill="#0E00FF" fill-opacity="0.5"/>
<rect x="1215.5" y="224" width="103" height="14" rx="7" fill="#7F7CAD" fill-opacity="0.5"/>
<rect x="1334.5" y="224" width="129" height="14" rx="7" fill="#7F7CAD" fill-opacity="0.5"/>
<rect x="1185.5" y="254" width="14" height="14" rx="7" fill="#7F7CAD" fill-opacity="0.5"/>
<rect x="1215.5" y="254" width="103" height="14" rx="7" fill="#7F7CAD" fill-opacity="0.5"/>
<rect x="1334.5" y="254" width="129" height="14" rx="7" fill="#7F7CAD" fill-opacity="0.5"/>
<rect x="1185.5" y="285" width="14" height="14" rx="7" fill="#7F7CAD" fill-opacity="0.5"/>
<rect x="1215.5" y="285" width="103" height="14" rx="7" fill="#7F7CAD" fill-opacity="0.5"/>
<rect x="1334.5" y="285" width="129" height="14" rx="7" fill="#7F7CAD" fill-opacity="0.5"/>
<rect x="1185.5" y="316" width="14" height="14" rx="7" fill="#7F7CAD" fill-opacity="0.5"/>
<rect x="1215.5" y="316" width="103" height="14" rx="7" fill="#7F7CAD" fill-opacity="0.5"/>
<rect x="1334.5" y="316" width="129" height="14" rx="7" fill="#7F7CAD" fill-opacity="0.5"/>
<rect x="1185.5" y="347" width="14" height="14" rx="7" fill="#7F7CAD" fill-opacity="0.5"/>
<rect x="1215.5" y="347" width="103" height="14" rx="7" fill="#7F7CAD" fill-opacity="0.5"/>
<rect x="1334.5" y="347" width="129" height="14" rx="7" fill="#7F7CAD" fill-opacity="0.5"/>
<rect x="1185.5" y="378" width="14" height="14" rx="7" fill="#7F7CAD" fill-opacity="0.5"/>
<rect x="1215.5" y="378" width="103" height="14" rx="7" fill="#7F7CAD" fill-opacity="0.5"/>
<rect x="1334.5" y="378" width="129" height="14" rx="7" fill="#7F7CAD" fill-opacity="0.5"/>
<rect x="1185.5" y="409" width="14" height="14" rx="7" fill="#7F7CAD" fill-opacity="0.5"/>
<rect x="1215.5" y="409" width="103" height="14" rx="7" fill="#7F7CAD" fill-opacity="0.5"/>
<rect x="1334.5" y="409" width="129" height="14" rx="7" fill="#7F7CAD" fill-opacity="0.5"/>
</g>
</g>
<path d="M1314.25 106.5C1314.66 106.5 1315 106.836 1315 107.25C1315 107.664 1314.66 108 1314.25 108H1309.75C1309.34 108 1309 107.664 1309 107.25C1309 106.836 1309.34 106.5 1309.75 106.5H1314.25ZM1316.25 102.25C1316.66 102.25 1317 102.586 1317 103C1317 103.414 1316.66 103.75 1316.25 103.75H1307.75C1307.34 103.75 1307 103.414 1307 103C1307 102.586 1307.34 102.25 1307.75 102.25H1316.25ZM1318.25 98C1318.66 98 1319 98.3358 1319 98.75C1319 99.1642 1318.66 99.5 1318.25 99.5H1305.75C1305.34 99.5 1305 99.1642 1305 98.75C1305 98.3358 1305.34 98 1305.75 98H1318.25Z" fill="#CA5BCA"/>
<path d="M1334.5 96C1337.54 96 1340 98.4624 1340 101.5C1340 102.748 1339.58 103.9 1338.88 104.823L1343.03 108.97C1343.32 109.263 1343.32 109.737 1343.03 110.03C1342.76 110.297 1342.35 110.321 1342.05 110.103L1341.97 110.03L1337.82 105.883C1336.9 106.584 1335.75 107 1334.5 107C1331.46 107 1329 104.538 1329 101.5C1329 98.4624 1331.46 96 1334.5 96ZM1334.5 97.5C1332.29 97.5 1330.5 99.2909 1330.5 101.5C1330.5 103.709 1332.29 105.5 1334.5 105.5C1336.71 105.5 1338.5 103.709 1338.5 101.5C1338.5 99.2909 1336.71 97.5 1334.5 97.5Z" fill="#CA5BCA"/>
</g>
</g>
<line x1="1229.49" y1="436.916" x2="1294.94" y2="436.916" stroke="white" stroke-opacity="0.5" stroke-width="4" stroke-linecap="round" stroke-linejoin="round"/>
</g>
<rect x="1181" y="98" width="93" height="10" rx="5" fill="#AB84AB"/>
<defs>
<filter id="filter0_dd_57_28232" x="414.6" y="25" width="640.8" height="462.8" filterUnits="userSpaceOnUse" color-interpolation-filters="sRGB">
<feFlood flood-opacity="0" result="BackgroundImageFix"/>
<feColorMatrix in="SourceAlpha" type="matrix" values="0 0 0 0 0 0 0 0 0 0 0 0 0 0 0 0 0 0 127 0" result="hardAlpha"/>
<feOffset dy="6.4"/>
<feGaussianBlur stdDeviation="7.2"/>
<feColorMatrix type="matrix" values="0 0 0 0 0 0 0 0 0 0 0 0 0 0 0 0 0 0 0.13 0"/>
<feBlend mode="normal" in2="BackgroundImageFix" result="effect1_dropShadow_57_28232"/>
<feColorMatrix in="SourceAlpha" type="matrix" values="0 0 0 0 0 0 0 0 0 0 0 0 0 0 0 0 0 0 127 0" result="hardAlpha"/>
<feOffset dy="1.2"/>
<feGaussianBlur stdDeviation="1.8"/>
<feColorMatrix type="matrix" values="0 0 0 0 0 0 0 0 0 0 0 0 0 0 0 0 0 0 0.1 0"/>
<feBlend mode="normal" in2="effect1_dropShadow_57_28232" result="effect2_dropShadow_57_28232"/>
<feBlend mode="normal" in="SourceGraphic" in2="effect2_dropShadow_57_28232" result="shape"/>
</filter>
<filter id="filter1_dd_57_28232" x="511" y="153" width="496" height="324" filterUnits="userSpaceOnUse" color-interpolation-filters="sRGB">
<feFlood flood-opacity="0" result="BackgroundImageFix"/>
<feColorMatrix in="SourceAlpha" type="matrix" values="0 0 0 0 0 0 0 0 0 0 0 0 0 0 0 0 0 0 127 0" result="hardAlpha"/>
<feOffset/>
<feGaussianBlur stdDeviation="1"/>
<feComposite in2="hardAlpha" operator="out"/>
<feColorMatrix type="matrix" values="0 0 0 0 0 0 0 0 0 0 0 0 0 0 0 0 0 0 0.12 0"/>
<feBlend mode="normal" in2="BackgroundImageFix" result="effect1_dropShadow_57_28232"/>
<feColorMatrix in="SourceAlpha" type="matrix" values="0 0 0 0 0 0 0 0 0 0 0 0 0 0 0 0 0 0 127 0" result="hardAlpha"/>
<feOffset dy="1"/>
<feGaussianBlur stdDeviation="1"/>
<feComposite in2="hardAlpha" operator="out"/>
<feColorMatrix type="matrix" values="0 0 0 0 0 0 0 0 0 0 0 0 0 0 0 0 0 0 0.14 0"/>
<feBlend mode="normal" in2="effect1_dropShadow_57_28232" result="effect2_dropShadow_57_28232"/>
<feBlend mode="normal" in="SourceGraphic" in2="effect2_dropShadow_57_28232" result="shape"/>
</filter>
<filter id="filter2_dd_57_28232" x="1147.6" y="36" width="229.8" height="441.8" filterUnits="userSpaceOnUse" color-interpolation-filters="sRGB">
<feFlood flood-opacity="0" result="BackgroundImageFix"/>
<feColorMatrix in="SourceAlpha" type="matrix" values="0 0 0 0 0 0 0 0 0 0 0 0 0 0 0 0 0 0 127 0" result="hardAlpha"/>
<feOffset dy="6.4"/>
<feGaussianBlur stdDeviation="7.2"/>
<feColorMatrix type="matrix" values="0 0 0 0 0 0 0 0 0 0 0 0 0 0 0 0 0 0 0.13 0"/>
<feBlend mode="normal" in2="BackgroundImageFix" result="effect1_dropShadow_57_28232"/>
<feColorMatrix in="SourceAlpha" type="matrix" values="0 0 0 0 0 0 0 0 0 0 0 0 0 0 0 0 0 0 127 0" result="hardAlpha"/>
<feOffset dy="1.2"/>
<feGaussianBlur stdDeviation="1.8"/>
<feColorMatrix type="matrix" values="0 0 0 0 0 0 0 0 0 0 0 0 0 0 0 0 0 0 0.1 0"/>
<feBlend mode="normal" in2="effect1_dropShadow_57_28232" result="effect2_dropShadow_57_28232"/>
<feBlend mode="normal" in="SourceGraphic" in2="effect2_dropShadow_57_28232" result="shape"/>
</filter>
<filter id="filter3_i_57_28232" x="1162" y="42.6" width="201" height="414.4" filterUnits="userSpaceOnUse" color-interpolation-filters="sRGB">
<feFlood flood-opacity="0" result="BackgroundImageFix"/>
<feBlend mode="normal" in="SourceGraphic" in2="BackgroundImageFix" result="shape"/>
<feColorMatrix in="SourceAlpha" type="matrix" values="0 0 0 0 0 0 0 0 0 0 0 0 0 0 0 0 0 0 127 0" result="hardAlpha"/>
<feOffset dy="-1.4"/>
<feGaussianBlur stdDeviation="2"/>
<feComposite in2="hardAlpha" operator="arithmetic" k2="-1" k3="1"/>
<feColorMatrix type="matrix" values="0 0 0 0 0 0 0 0 0 0 0 0 0 0 0 0 0 0 0.08 0"/>
<feBlend mode="normal" in2="shape" result="effect1_innerShadow_57_28232"/>
</filter>
<filter id="filter4_dd_57_28232" x="1177" y="117" width="176" height="324" filterUnits="userSpaceOnUse" color-interpolation-filters="sRGB">
<feFlood flood-opacity="0" result="BackgroundImageFix"/>
<feColorMatrix in="SourceAlpha" type="matrix" values="0 0 0 0 0 0 0 0 0 0 0 0 0 0 0 0 0 0 127 0" result="hardAlpha"/>
<feOffset/>
<feGaussianBlur stdDeviation="1"/>
<feComposite in2="hardAlpha" operator="out"/>
<feColorMatrix type="matrix" values="0 0 0 0 0 0 0 0 0 0 0 0 0 0 0 0 0 0 0.12 0"/>
<feBlend mode="normal" in2="BackgroundImageFix" result="effect1_dropShadow_57_28232"/>
<feColorMatrix in="SourceAlpha" type="matrix" values="0 0 0 0 0 0 0 0 0 0 0 0 0 0 0 0 0 0 127 0" result="hardAlpha"/>
<feOffset dy="1"/>
<feGaussianBlur stdDeviation="1"/>
<feComposite in2="hardAlpha" operator="out"/>
<feColorMatrix type="matrix" values="0 0 0 0 0 0 0 0 0 0 0 0 0 0 0 0 0 0 0.14 0"/>
<feBlend mode="normal" in2="effect1_dropShadow_57_28232" result="effect2_dropShadow_57_28232"/>
<feBlend mode="normal" in="SourceGraphic" in2="effect2_dropShadow_57_28232" result="shape"/>
</filter>
<clipPath id="clip0_57_28232">
<rect x="438" y="43" width="593" height="415" rx="8" fill="white"/>
</clipPath>
<clipPath id="clip1_57_28232">
<rect width="593" height="36" fill="white" transform="translate(438 43)"/>
</clipPath>
<clipPath id="clip2_57_28232">
<rect width="49" height="379" fill="white" transform="translate(438 79)"/>
</clipPath>
<clipPath id="clip3_57_28232">
<rect width="544" height="379" fill="white" transform="translate(487 79)"/>
</clipPath>
<clipPath id="clip4_57_28232">
<rect x="513" y="155" width="492" height="319" rx="8" fill="white"/>
</clipPath>
<clipPath id="clip5_57_28232">
<rect x="1169" y="51" width="187" height="399" rx="8" fill="white"/>
</clipPath>
<clipPath id="clip6_57_28232">
<rect width="187" height="367" fill="white" transform="translate(1169 83)"/>
</clipPath>
<clipPath id="clip7_57_28232">
<rect x="1179" y="119" width="172" height="319" rx="8" fill="white"/>
</clipPath>
</defs>
</svg>
