<svg width="1920" height="500" viewBox="0 0 1920 500" fill="none" xmlns="http://www.w3.org/2000/svg">
<rect width="1920" height="500" fill="#F5F5F5"/>
<g filter="url(#filter0_dd_57_28403)">
<rect x="429" y="33" width="612" height="434" rx="16" fill="#616161"/>
<rect x="438.533" y="43" width="592" height="414" rx="8" fill="black"/>
</g>
<g clip-path="url(#clip0_57_28403)">
<g clip-path="url(#clip1_57_28403)">
<rect width="593" height="36" transform="translate(438 43)" fill="#742774"/>
<rect x="438" y="37" width="150" height="48" fill="#742774"/>
<rect x="438" y="37" width="48" height="48" fill="#742774"/>
<path d="M455.5 53C455.708 53 455.904 53.0391 456.086 53.1172C456.268 53.1953 456.427 53.3021 456.562 53.4375C456.698 53.5729 456.805 53.7318 456.883 53.9141C456.961 54.0964 457 54.2917 457 54.5C457 54.7083 456.961 54.9036 456.883 55.0859C456.805 55.2682 456.698 55.4271 456.562 55.5625C456.427 55.6979 456.268 55.8047 456.086 55.8828C455.904 55.9609 455.708 56 455.5 56C455.292 56 455.096 55.9609 454.914 55.8828C454.732 55.8047 454.573 55.6979 454.438 55.5625C454.302 55.4271 454.195 55.2682 454.117 55.0859C454.039 54.9036 454 54.7083 454 54.5C454 54.2917 454.039 54.0964 454.117 53.9141C454.195 53.7318 454.302 53.5729 454.438 53.4375C454.573 53.3021 454.732 53.1953 454.914 53.1172C455.096 53.0391 455.292 53 455.5 53ZM461.5 53C461.708 53 461.904 53.0391 462.086 53.1172C462.268 53.1953 462.427 53.3021 462.562 53.4375C462.698 53.5729 462.805 53.7318 462.883 53.9141C462.961 54.0964 463 54.2917 463 54.5C463 54.7083 462.961 54.9036 462.883 55.0859C462.805 55.2682 462.698 55.4271 462.562 55.5625C462.427 55.6979 462.268 55.8047 462.086 55.8828C461.904 55.9609 461.708 56 461.5 56C461.292 56 461.096 55.9609 460.914 55.8828C460.732 55.8047 460.573 55.6979 460.438 55.5625C460.302 55.4271 460.195 55.2682 460.117 55.0859C460.039 54.9036 460 54.7083 460 54.5C460 54.2917 460.039 54.0964 460.117 53.9141C460.195 53.7318 460.302 53.5729 460.438 53.4375C460.573 53.3021 460.732 53.1953 460.914 53.1172C461.096 53.0391 461.292 53 461.5 53ZM467.5 56C467.292 56 467.096 55.9609 466.914 55.8828C466.732 55.8047 466.573 55.6979 466.438 55.5625C466.302 55.4271 466.195 55.2682 466.117 55.0859C466.039 54.9036 466 54.7083 466 54.5C466 54.2917 466.039 54.0964 466.117 53.9141C466.195 53.7318 466.302 53.5729 466.438 53.4375C466.573 53.3021 466.732 53.1953 466.914 53.1172C467.096 53.0391 467.292 53 467.5 53C467.708 53 467.904 53.0391 468.086 53.1172C468.268 53.1953 468.427 53.3021 468.562 53.4375C468.698 53.5729 468.805 53.7318 468.883 53.9141C468.961 54.0964 469 54.2917 469 54.5C469 54.7083 468.961 54.9036 468.883 55.0859C468.805 55.2682 468.698 55.4271 468.562 55.5625C468.427 55.6979 468.268 55.8047 468.086 55.8828C467.904 55.9609 467.708 56 467.5 56ZM455.5 59C455.708 59 455.904 59.0391 456.086 59.1172C456.268 59.1953 456.427 59.3021 456.562 59.4375C456.698 59.5729 456.805 59.7318 456.883 59.9141C456.961 60.0964 457 60.2917 457 60.5C457 60.7083 456.961 60.9036 456.883 61.0859C456.805 61.2682 456.698 61.4271 456.562 61.5625C456.427 61.6979 456.268 61.8047 456.086 61.8828C455.904 61.9609 455.708 62 455.5 62C455.292 62 455.096 61.9609 454.914 61.8828C454.732 61.8047 454.573 61.6979 454.438 61.5625C454.302 61.4271 454.195 61.2682 454.117 61.0859C454.039 60.9036 454 60.7083 454 60.5C454 60.2917 454.039 60.0964 454.117 59.9141C454.195 59.7318 454.302 59.5729 454.438 59.4375C454.573 59.3021 454.732 59.1953 454.914 59.1172C455.096 59.0391 455.292 59 455.5 59ZM461.5 59C461.708 59 461.904 59.0391 462.086 59.1172C462.268 59.1953 462.427 59.3021 462.562 59.4375C462.698 59.5729 462.805 59.7318 462.883 59.9141C462.961 60.0964 463 60.2917 463 60.5C463 60.7083 462.961 60.9036 462.883 61.0859C462.805 61.2682 462.698 61.4271 462.562 61.5625C462.427 61.6979 462.268 61.8047 462.086 61.8828C461.904 61.9609 461.708 62 461.5 62C461.292 62 461.096 61.9609 460.914 61.8828C460.732 61.8047 460.573 61.6979 460.438 61.5625C460.302 61.4271 460.195 61.2682 460.117 61.0859C460.039 60.9036 460 60.7083 460 60.5C460 60.2917 460.039 60.0964 460.117 59.9141C460.195 59.7318 460.302 59.5729 460.438 59.4375C460.573 59.3021 460.732 59.1953 460.914 59.1172C461.096 59.0391 461.292 59 461.5 59ZM467.5 59C467.708 59 467.904 59.0391 468.086 59.1172C468.268 59.1953 468.427 59.3021 468.562 59.4375C468.698 59.5729 468.805 59.7318 468.883 59.9141C468.961 60.0964 469 60.2917 469 60.5C469 60.7083 468.961 60.9036 468.883 61.0859C468.805 61.2682 468.698 61.4271 468.562 61.5625C468.427 61.6979 468.268 61.8047 468.086 61.8828C467.904 61.9609 467.708 62 467.5 62C467.292 62 467.096 61.9609 466.914 61.8828C466.732 61.8047 466.573 61.6979 466.438 61.5625C466.302 61.4271 466.195 61.2682 466.117 61.0859C466.039 60.9036 466 60.7083 466 60.5C466 60.2917 466.039 60.0964 466.117 59.9141C466.195 59.7318 466.302 59.5729 466.438 59.4375C466.573 59.3021 466.732 59.1953 466.914 59.1172C467.096 59.0391 467.292 59 467.5 59ZM455.5 65C455.708 65 455.904 65.0391 456.086 65.1172C456.268 65.1953 456.427 65.3021 456.562 65.4375C456.698 65.5729 456.805 65.7318 456.883 65.9141C456.961 66.0964 457 66.2917 457 66.5C457 66.7083 456.961 66.9036 456.883 67.0859C456.805 67.2682 456.698 67.4271 456.562 67.5625C456.427 67.6979 456.268 67.8047 456.086 67.8828C455.904 67.9609 455.708 68 455.5 68C455.292 68 455.096 67.9609 454.914 67.8828C454.732 67.8047 454.573 67.6979 454.438 67.5625C454.302 67.4271 454.195 67.2682 454.117 67.0859C454.039 66.9036 454 66.7083 454 66.5C454 66.2917 454.039 66.0964 454.117 65.9141C454.195 65.7318 454.302 65.5729 454.438 65.4375C454.573 65.3021 454.732 65.1953 454.914 65.1172C455.096 65.0391 455.292 65 455.5 65ZM461.5 65C461.708 65 461.904 65.0391 462.086 65.1172C462.268 65.1953 462.427 65.3021 462.562 65.4375C462.698 65.5729 462.805 65.7318 462.883 65.9141C462.961 66.0964 463 66.2917 463 66.5C463 66.7083 462.961 66.9036 462.883 67.0859C462.805 67.2682 462.698 67.4271 462.562 67.5625C462.427 67.6979 462.268 67.8047 462.086 67.8828C461.904 67.9609 461.708 68 461.5 68C461.292 68 461.096 67.9609 460.914 67.8828C460.732 67.8047 460.573 67.6979 460.438 67.5625C460.302 67.4271 460.195 67.2682 460.117 67.0859C460.039 66.9036 460 66.7083 460 66.5C460 66.2917 460.039 66.0964 460.117 65.9141C460.195 65.7318 460.302 65.5729 460.438 65.4375C460.573 65.3021 460.732 65.1953 460.914 65.1172C461.096 65.0391 461.292 65 461.5 65ZM467.5 65C467.708 65 467.904 65.0391 468.086 65.1172C468.268 65.1953 468.427 65.3021 468.562 65.4375C468.698 65.5729 468.805 65.7318 468.883 65.9141C468.961 66.0964 469 66.2917 469 66.5C469 66.7083 468.961 66.9036 468.883 67.0859C468.805 67.2682 468.698 67.4271 468.562 67.5625C468.427 67.6979 468.268 67.8047 468.086 67.8828C467.904 67.9609 467.708 68 467.5 68C467.292 68 467.096 67.9609 466.914 67.8828C466.732 67.8047 466.573 67.6979 466.438 67.5625C466.302 67.4271 466.195 67.2682 466.117 67.0859C466.039 66.9036 466 66.7083 466 66.5C466 66.2917 466.039 66.0964 466.117 65.9141C466.195 65.7318 466.302 65.5729 466.438 65.4375C466.573 65.3021 466.732 65.1953 466.914 65.1172C467.096 65.0391 467.292 65 467.5 65Z" fill="white"/>
<rect x="485" y="53" width="69" height="17" rx="8.5" fill="#953B95"/>
<path fill-rule="evenodd" clip-rule="evenodd" d="M862.956 67C866.27 67 868.956 64.3137 868.956 61C868.956 57.6863 866.27 55 862.956 55C859.642 55 856.956 57.6863 856.956 61C856.956 64.3137 859.642 67 862.956 67Z" fill="#953B95"/>
<path fill-rule="evenodd" clip-rule="evenodd" d="M910.956 67C914.27 67 916.956 64.3137 916.956 61C916.956 57.6863 914.27 55 910.956 55C907.642 55 904.956 57.6863 904.956 61C904.956 64.3137 907.642 67 910.956 67Z" fill="#953B95"/>
<path fill-rule="evenodd" clip-rule="evenodd" d="M958.956 67C962.27 67 964.956 64.3137 964.956 61C964.956 57.6863 962.27 55 958.956 55C955.642 55 952.956 57.6863 952.956 61C952.956 64.3137 955.642 67 958.956 67Z" fill="#953B95"/>
<rect x="983" y="37" width="48" height="48" fill="#742774"/>
<path d="M993 61C993 53.268 999.268 47 1007 47C1014.73 47 1021 53.268 1021 61C1021 68.732 1014.73 75 1007 75C999.268 75 993 68.732 993 61Z" fill="#953B95"/>
<path d="M1007 53C1004.79 53 1003 54.7909 1003 57C1003 59.2091 1004.79 61 1007 61C1009.21 61 1011 59.2091 1011 57C1011 54.7909 1009.21 53 1007 53ZM1004 57C1004 55.3431 1005.34 54 1007 54C1008.66 54 1010 55.3431 1010 57C1010 58.6569 1008.66 60 1007 60C1005.34 60 1004 58.6569 1004 57ZM1002.01 62C1000.9 62 1000 62.8869 1000 64C1000 65.6912 1000.83 66.9663 1002.13 67.7966C1003.42 68.614 1005.15 69 1007 69C1008.85 69 1010.58 68.614 1011.87 67.7966C1013.17 66.9663 1014 65.6912 1014 64C1014 62.8956 1013.1 62 1012 62L1002.01 62ZM1001 64C1001 63.4467 1001.45 63 1002.01 63L1012 63C1012.55 63 1013 63.4478 1013 64C1013 65.3088 1012.38 66.2837 1011.33 66.9534C1010.26 67.636 1008.74 68 1007 68C1005.26 68 1003.74 67.636 1002.67 66.9534C1001.62 66.2837 1001 65.3088 1001 64Z" fill="#DF65DF"/>
</g>
<g clip-path="url(#clip2_57_28403)">
<rect width="49" height="379" transform="translate(438 79)" fill="#EBEBEB"/>
<path d="M454.5 99.75C454.5 99.3358 454.836 99 455.25 99H469.75C470.164 99 470.5 99.3358 470.5 99.75C470.5 100.164 470.164 100.5 469.75 100.5H455.25C454.836 100.5 454.5 100.164 454.5 99.75ZM454.5 104.75C454.5 104.336 454.836 104 455.25 104H469.75C470.164 104 470.5 104.336 470.5 104.75C470.5 105.164 470.164 105.5 469.75 105.5H455.25C454.836 105.5 454.5 105.164 454.5 104.75ZM455.25 109C454.836 109 454.5 109.336 454.5 109.75C454.5 110.164 454.836 110.5 455.25 110.5H469.75C470.164 110.5 470.5 110.164 470.5 109.75C470.5 109.336 470.164 109 469.75 109H455.25Z" fill="#818181"/>
<rect x="454.5" y="134" width="17" height="17" rx="8.5" fill="#D9D9D9"/>
<rect x="454.5" y="169" width="16" height="16" rx="8" fill="#D9D9D9"/>
<rect x="454.5" y="204" width="16" height="16" rx="8" fill="#D9D9D9"/>
<rect x="454.5" y="239" width="16" height="16" rx="8" fill="#D9D9D9"/>
<rect x="454.5" y="274" width="16" height="16" rx="8" fill="#D9D9D9"/>
<rect x="454.5" y="309" width="16" height="16" rx="8" fill="#D9D9D9"/>
<rect x="454.5" y="344" width="16" height="16" rx="8" fill="#D9D9D9"/>
<rect x="454.5" y="379" width="16" height="16" rx="8" fill="#D9D9D9"/>
</g>
<g clip-path="url(#clip3_57_28403)">
<rect width="544" height="379" transform="translate(487 79)" fill="white"/>
<g filter="url(#filter1_dd_57_28403)">
<rect x="772" y="92" width="248" height="70" rx="8" fill="#F5ECF5"/>
<rect x="786" y="109" width="143" height="13" rx="6.5" fill="#AB84AB"/>
<rect x="786.5" y="133.5" width="62" height="12" rx="3.5" fill="#FAFAFA" stroke="#F0F0F0"/>
<rect x="856.5" y="133.5" width="42" height="12" rx="3.5" fill="#FAFAFA" stroke="#F0F0F0"/>
</g>
<g filter="url(#filter2_dd_57_28403)">
<rect x="772" y="178" width="248" height="254" rx="8" fill="white"/>
<rect x="795" y="225" width="123" height="13" rx="4" fill="#F0F0F0"/>
<rect x="795" y="210" width="73" height="5" rx="2.5" fill="#808080"/>
<path d="M885.5 212.5H881.207L884.243 209.464C884.438 209.269 884.438 208.952 884.243 208.757C884.048 208.562 883.731 208.562 883.536 208.757L880.5 211.793V207.5C880.5 207.224 880.276 207 880 207C879.724 207 879.5 207.224 879.5 207.5V211.793L876.464 208.757C876.269 208.562 875.952 208.562 875.757 208.757C875.562 208.952 875.562 209.269 875.757 209.464L878.793 212.5H874.5C874.224 212.5 874 212.724 874 213C874 213.276 874.224 213.5 874.5 213.5H878.793L875.757 216.536C875.562 216.731 875.562 217.048 875.757 217.243C875.855 217.341 875.983 217.389 876.111 217.389C876.239 217.389 876.367 217.34 876.465 217.243L879.501 214.207V218.5C879.501 218.776 879.725 219 880.001 219C880.277 219 880.501 218.776 880.501 218.5V214.207L883.537 217.243C883.635 217.341 883.763 217.389 883.891 217.389C884.019 217.389 884.147 217.34 884.245 217.243C884.44 217.048 884.44 216.731 884.245 216.536L881.209 213.5H885.502C885.778 213.5 886.002 213.276 886.002 213C886.002 212.724 885.778 212.5 885.502 212.5H885.5Z" fill="#C50F1F"/>
<rect x="795" y="271" width="123" height="13" rx="4" fill="#F0F0F0"/>
<rect x="795" y="257" width="50" height="5" rx="2.5" fill="#808080"/>
<path d="M865.5 258.5H861.207L864.243 255.464C864.438 255.269 864.438 254.952 864.243 254.757C864.048 254.562 863.731 254.562 863.536 254.757L860.5 257.793V253.5C860.5 253.224 860.276 253 860 253C859.724 253 859.5 253.224 859.5 253.5V257.793L856.464 254.757C856.269 254.562 855.952 254.562 855.757 254.757C855.562 254.952 855.562 255.269 855.757 255.464L858.793 258.5H854.5C854.224 258.5 854 258.724 854 259C854 259.276 854.224 259.5 854.5 259.5H858.793L855.757 262.536C855.562 262.731 855.562 263.048 855.757 263.243C855.855 263.341 855.983 263.389 856.111 263.389C856.239 263.389 856.367 263.34 856.465 263.243L859.501 260.207V264.5C859.501 264.776 859.725 265 860.001 265C860.277 265 860.501 264.776 860.501 264.5V260.207L863.537 263.243C863.635 263.341 863.763 263.389 863.891 263.389C864.019 263.389 864.147 263.34 864.245 263.243C864.44 263.048 864.44 262.731 864.245 262.536L861.209 259.5H865.502C865.778 259.5 866.002 259.276 866.002 259C866.002 258.724 865.778 258.5 865.502 258.5H865.5Z" fill="#C50F1F"/>
<rect x="795" y="323" width="200" height="22" rx="4" fill="#F0F0F0"/>
<rect x="795" y="309" width="93" height="5" rx="2.5" fill="#808080"/>
<path d="M795 391C795 388.791 796.791 387 799 387H871C873.209 387 875 388.791 875 391V407C875 409.209 873.209 411 871 411H799C796.791 411 795 409.209 795 407V391Z" fill="#CA5BCA"/>
<mask id="path-38-inside-1_57_28403" fill="white">
<path d="M882 391C882 388.791 883.791 387 886 387H958C960.209 387 962 388.791 962 391V407C962 409.209 960.209 411 958 411H886C883.791 411 882 409.209 882 407V391Z"/>
</mask>
<path d="M882 391C882 388.791 883.791 387 886 387H958C960.209 387 962 388.791 962 391V407C962 409.209 960.209 411 958 411H886C883.791 411 882 409.209 882 407V391Z" fill="white"/>
<path d="M886 388H958V386H886V388ZM961 391V407H963V391H961ZM958 410H886V412H958V410ZM883 407V391H881V407H883ZM886 410C884.343 410 883 408.657 883 407H881C881 409.761 883.239 412 886 412V410ZM961 407C961 408.657 959.657 410 958 410V412C960.761 412 963 409.761 963 407H961ZM958 388C959.657 388 961 389.343 961 391H963C963 388.239 960.761 386 958 386V388ZM886 386C883.239 386 881 388.239 881 391H883C883 389.343 884.343 388 886 388V386Z" fill="#D1D1D1" mask="url(#path-38-inside-1_57_28403)"/>
</g>
<line x1="757.5" y1="79" x2="757.5" y2="458" stroke="#B8B8B8"/>
<rect width="270" height="385" transform="translate(487 79)" fill="#FAFAFA"/>
<rect x="501" y="90.5554" width="104" height="13.2058" rx="6.6029" fill="#AB84AB"/>
<rect x="664.732" y="91.0634" width="78.268" height="13.2058" rx="4" fill="#D6D6D6"/>
<path d="M648.5 90C651.538 90 654 92.4624 654 95.5C654 96.7483 653.584 97.8995 652.883 98.8226L657.03 102.97C657.323 103.263 657.323 103.737 657.03 104.03C656.764 104.297 656.347 104.321 656.054 104.103L655.97 104.03L651.823 99.8834C650.9 100.584 649.748 101 648.5 101C645.462 101 643 98.5376 643 95.5C643 92.4624 645.462 90 648.5 90ZM648.5 91.5C646.291 91.5 644.5 93.2909 644.5 95.5C644.5 97.7091 646.291 99.5 648.5 99.5C650.709 99.5 652.5 97.7091 652.5 95.5C652.5 93.2909 650.709 91.5 648.5 91.5Z" fill="#CA5BCA"/>
<g filter="url(#filter3_dd_57_28403)">
<g clip-path="url(#clip4_57_28403)">
<rect x="501" y="115.317" width="242" height="338" rx="8" fill="white"/>
<rect x="511.5" y="158.317" width="14" height="14" rx="7" fill="#7F7CAD" fill-opacity="0.5"/>
<rect x="541.5" y="158.317" width="103" height="14" rx="7" fill="#7F7CAD" fill-opacity="0.5"/>
<rect x="660.5" y="158.317" width="129" height="14" rx="7" fill="#7F7CAD" fill-opacity="0.5"/>
<rect x="511.5" y="189.317" width="14" height="14" rx="7" fill="#7F7CAD" fill-opacity="0.5"/>
<rect x="541.5" y="189.317" width="103" height="14" rx="7" fill="#7F7CAD" fill-opacity="0.5"/>
<rect x="660.5" y="189.317" width="129" height="14" rx="7" fill="#7F7CAD" fill-opacity="0.5"/>
<rect x="511.5" y="220.317" width="14" height="14" rx="7" fill="#7F7CAD" fill-opacity="0.5"/>
<rect x="541.5" y="220.317" width="103" height="14" rx="7" fill="#7F7CAD" fill-opacity="0.5"/>
<rect x="660.5" y="220.317" width="129" height="14" rx="7" fill="#7F7CAD" fill-opacity="0.5"/>
<rect width="466" height="18" transform="translate(501 248.317)" fill="#EFEEFF"/>
<rect x="511.5" y="250.317" width="14" height="14" rx="7" fill="#0E00FF" fill-opacity="0.5"/>
<rect x="541.5" y="250.317" width="103" height="14" rx="7" fill="#7F7CAD" fill-opacity="0.5"/>
<rect x="660.5" y="250.317" width="129" height="14" rx="7" fill="#7F7CAD" fill-opacity="0.5"/>
<rect x="511.5" y="280.317" width="14" height="14" rx="7" fill="#7F7CAD" fill-opacity="0.5"/>
<rect x="541.5" y="280.317" width="103" height="14" rx="7" fill="#7F7CAD" fill-opacity="0.5"/>
<rect x="660.5" y="280.317" width="129" height="14" rx="7" fill="#7F7CAD" fill-opacity="0.5"/>
<rect x="511.5" y="311.317" width="14" height="14" rx="7" fill="#7F7CAD" fill-opacity="0.5"/>
<rect x="541.5" y="311.317" width="103" height="14" rx="7" fill="#7F7CAD" fill-opacity="0.5"/>
<rect x="660.5" y="311.317" width="129" height="14" rx="7" fill="#7F7CAD" fill-opacity="0.5"/>
<rect x="511.5" y="342.317" width="14" height="14" rx="7" fill="#7F7CAD" fill-opacity="0.5"/>
<rect x="541.5" y="342.317" width="103" height="14" rx="7" fill="#7F7CAD" fill-opacity="0.5"/>
<rect x="660.5" y="342.317" width="129" height="14" rx="7" fill="#7F7CAD" fill-opacity="0.5"/>
<rect x="511.5" y="373.317" width="14" height="14" rx="7" fill="#7F7CAD" fill-opacity="0.5"/>
<rect x="541.5" y="373.317" width="103" height="14" rx="7" fill="#7F7CAD" fill-opacity="0.5"/>
<rect x="660.5" y="373.317" width="129" height="14" rx="7" fill="#7F7CAD" fill-opacity="0.5"/>
<rect x="511.5" y="404.317" width="14" height="14" rx="7" fill="#7F7CAD" fill-opacity="0.5"/>
<rect x="541.5" y="404.317" width="103" height="14" rx="7" fill="#7F7CAD" fill-opacity="0.5"/>
<rect x="660.5" y="404.317" width="129" height="14" rx="7" fill="#7F7CAD" fill-opacity="0.5"/>
<rect x="511.5" y="435.317" width="14" height="14" rx="7" fill="#7F7CAD" fill-opacity="0.5"/>
<rect x="541.5" y="435.317" width="103" height="14" rx="7" fill="#7F7CAD" fill-opacity="0.5"/>
<rect x="660.5" y="435.317" width="129" height="14" rx="7" fill="#7F7CAD" fill-opacity="0.5"/>
<rect x="531" y="125.317" width="43" height="14" rx="7" fill="#7F7CAD" fill-opacity="0.5"/>
<rect x="649" y="125.317" width="39" height="14" rx="7" fill="#7F7CAD" fill-opacity="0.5"/>
</g>
</g>
</g>
</g>
<g filter="url(#filter4_dd_57_28403)">
<g filter="url(#filter5_i_57_28403)">
<rect x="1162" y="44" width="201" height="413" rx="16" fill="#616161"/>
</g>
<rect x="1168.98" y="50.8833" width="187.031" height="399.233" rx="8" fill="black"/>
<g clip-path="url(#clip5_57_28403)">
<rect width="187" height="32" transform="translate(1169 51)" fill="#EBEBEB"/>
<path d="M1181 62.75C1181 62.3358 1181.34 62 1181.75 62H1196.25C1196.66 62 1197 62.3358 1197 62.75C1197 63.1642 1196.66 63.5 1196.25 63.5H1181.75C1181.34 63.5 1181 63.1642 1181 62.75ZM1181 67.75C1181 67.3358 1181.34 67 1181.75 67H1196.25C1196.66 67 1197 67.3358 1197 67.75C1197 68.1642 1196.66 68.5 1196.25 68.5H1181.75C1181.34 68.5 1181 68.1642 1181 67.75ZM1181.75 72C1181.34 72 1181 72.3358 1181 72.75C1181 73.1642 1181.34 73.5 1181.75 73.5H1196.25C1196.66 73.5 1197 73.1642 1197 72.75C1197 72.3358 1196.66 72 1196.25 72H1181.75Z" fill="#818181"/>
<g clip-path="url(#clip6_57_28403)">
<rect width="187" height="367" transform="translate(1169 83)" fill="#FAFAFA"/>
<g filter="url(#filter6_dd_57_28403)">
<g clip-path="url(#clip7_57_28403)">
<rect x="1177" y="119" width="171" height="228" rx="8" fill="white"/>
<rect x="1189" y="152" width="123" height="13" rx="4" fill="#F0F0F0"/>
<rect x="1189" y="136" width="72" height="8" rx="4" fill="#D6D6D6"/>
<path d="M1279.5 139.5H1275.21L1278.24 136.464C1278.44 136.269 1278.44 135.952 1278.24 135.757C1278.05 135.562 1277.73 135.562 1277.54 135.757L1274.5 138.793V134.5C1274.5 134.224 1274.28 134 1274 134C1273.72 134 1273.5 134.224 1273.5 134.5V138.793L1270.46 135.757C1270.27 135.562 1269.95 135.562 1269.76 135.757C1269.56 135.952 1269.56 136.269 1269.76 136.464L1272.79 139.5H1268.5C1268.22 139.5 1268 139.724 1268 140C1268 140.276 1268.22 140.5 1268.5 140.5H1272.79L1269.76 143.536C1269.56 143.731 1269.56 144.048 1269.76 144.243C1269.85 144.341 1269.98 144.389 1270.11 144.389C1270.24 144.389 1270.37 144.34 1270.47 144.243L1273.5 141.207V145.5C1273.5 145.776 1273.73 146 1274 146C1274.28 146 1274.5 145.776 1274.5 145.5V141.207L1277.54 144.243C1277.63 144.341 1277.76 144.389 1277.89 144.389C1278.02 144.389 1278.15 144.34 1278.24 144.243C1278.44 144.048 1278.44 143.731 1278.24 143.536L1275.21 140.5H1279.5C1279.78 140.5 1280 140.276 1280 140C1280 139.724 1279.78 139.5 1279.5 139.5H1279.5Z" fill="#C50F1F"/>
<rect x="1189" y="198" width="123" height="13" rx="4" fill="#F0F0F0"/>
<rect x="1189" y="182" width="53" height="8" rx="4" fill="#D6D6D6"/>
<path d="M1259.5 185.5H1255.21L1258.24 182.464C1258.44 182.269 1258.44 181.952 1258.24 181.757C1258.05 181.562 1257.73 181.562 1257.54 181.757L1254.5 184.793V180.5C1254.5 180.224 1254.28 180 1254 180C1253.72 180 1253.5 180.224 1253.5 180.5V184.793L1250.46 181.757C1250.27 181.562 1249.95 181.562 1249.76 181.757C1249.56 181.952 1249.56 182.269 1249.76 182.464L1252.79 185.5H1248.5C1248.22 185.5 1248 185.724 1248 186C1248 186.276 1248.22 186.5 1248.5 186.5H1252.79L1249.76 189.536C1249.56 189.731 1249.56 190.048 1249.76 190.243C1249.85 190.341 1249.98 190.389 1250.11 190.389C1250.24 190.389 1250.37 190.34 1250.47 190.243L1253.5 187.207V191.5C1253.5 191.776 1253.73 192 1254 192C1254.28 192 1254.5 191.776 1254.5 191.5V187.207L1257.54 190.243C1257.63 190.341 1257.76 190.389 1257.89 190.389C1258.02 190.389 1258.15 190.34 1258.24 190.243C1258.44 190.048 1258.44 189.731 1258.24 189.536L1255.21 186.5H1259.5C1259.78 186.5 1260 186.276 1260 186C1260 185.724 1259.78 185.5 1259.5 185.5H1259.5Z" fill="#C50F1F"/>
<rect x="1189" y="250" width="149" height="63" rx="4" fill="#F0F0F0"/>
<rect x="1189" y="234" width="87" height="8" rx="4" fill="#D6D6D6"/>
</g>
</g>
<path d="M1177 362C1177 359.791 1178.79 358 1181 358H1345C1347.21 358 1349 359.791 1349 362V387C1349 389.209 1347.21 391 1345 391H1181C1178.79 391 1177 389.209 1177 387V362Z" fill="#CA5BCA"/>
<mask id="path-91-inside-2_57_28403" fill="white">
<path d="M1177 401C1177 398.791 1178.79 397 1181 397H1345C1347.21 397 1349 398.791 1349 401V426C1349 428.209 1347.21 430 1345 430H1181C1178.79 430 1177 428.209 1177 426V401Z"/>
</mask>
<path d="M1177 401C1177 398.791 1178.79 397 1181 397H1345C1347.21 397 1349 398.791 1349 401V426C1349 428.209 1347.21 430 1345 430H1181C1178.79 430 1177 428.209 1177 426V401Z" fill="white"/>
<path d="M1181 398H1345V396H1181V398ZM1348 401V426H1350V401H1348ZM1345 429H1181V431H1345V429ZM1178 426V401H1176V426H1178ZM1181 429C1179.34 429 1178 427.657 1178 426H1176C1176 428.761 1178.24 431 1181 431V429ZM1348 426C1348 427.657 1346.66 429 1345 429V431C1347.76 431 1350 428.761 1350 426H1348ZM1345 398C1346.66 398 1348 399.343 1348 401H1350C1350 398.239 1347.76 396 1345 396V398ZM1181 396C1178.24 396 1176 398.239 1176 401H1178C1178 399.343 1179.34 398 1181 398V396Z" fill="#D1D1D1" mask="url(#path-91-inside-2_57_28403)"/>
</g>
</g>
<line x1="1229.49" y1="436.916" x2="1294.94" y2="436.916" stroke="white" stroke-opacity="0.5" stroke-width="4" stroke-linecap="round" stroke-linejoin="round"/>
</g>
<path d="M1191 100C1191 100.414 1190.66 100.75 1190.25 100.75L1181.46 100.75L1184.75 103.691C1185.06 103.967 1185.09 104.441 1184.81 104.75C1184.53 105.059 1184.06 105.085 1183.75 104.809L1179 100.559C1178.84 100.417 1178.75 100.213 1178.75 100C1178.75 99.7866 1178.84 99.5834 1179 99.4411L1183.75 95.1911C1184.06 94.9149 1184.53 94.9412 1184.81 95.2499C1185.09 95.5586 1185.06 96.0327 1184.75 96.3089L1181.46 99.25L1190.25 99.25C1190.66 99.25 1191 99.5858 1191 100Z" fill="#CA5BCA"/>
<rect x="1201" y="93.5" width="93" height="13" rx="6.5" fill="#AB84AB"/>
<rect x="1335" y="95.5" width="9" height="9" rx="4.5" fill="#AB84AB"/>
<rect x="1315" y="95.5" width="9" height="9" rx="4.5" fill="#AB84AB"/>
<defs>
<filter id="filter0_dd_57_28403" x="414.6" y="25" width="640.8" height="462.8" filterUnits="userSpaceOnUse" color-interpolation-filters="sRGB">
<feFlood flood-opacity="0" result="BackgroundImageFix"/>
<feColorMatrix in="SourceAlpha" type="matrix" values="0 0 0 0 0 0 0 0 0 0 0 0 0 0 0 0 0 0 127 0" result="hardAlpha"/>
<feOffset dy="6.4"/>
<feGaussianBlur stdDeviation="7.2"/>
<feColorMatrix type="matrix" values="0 0 0 0 0 0 0 0 0 0 0 0 0 0 0 0 0 0 0.13 0"/>
<feBlend mode="normal" in2="BackgroundImageFix" result="effect1_dropShadow_57_28403"/>
<feColorMatrix in="SourceAlpha" type="matrix" values="0 0 0 0 0 0 0 0 0 0 0 0 0 0 0 0 0 0 127 0" result="hardAlpha"/>
<feOffset dy="1.2"/>
<feGaussianBlur stdDeviation="1.8"/>
<feColorMatrix type="matrix" values="0 0 0 0 0 0 0 0 0 0 0 0 0 0 0 0 0 0 0.1 0"/>
<feBlend mode="normal" in2="effect1_dropShadow_57_28403" result="effect2_dropShadow_57_28403"/>
<feBlend mode="normal" in="SourceGraphic" in2="effect2_dropShadow_57_28403" result="shape"/>
</filter>
<filter id="filter1_dd_57_28403" x="770" y="90" width="252" height="75" filterUnits="userSpaceOnUse" color-interpolation-filters="sRGB">
<feFlood flood-opacity="0" result="BackgroundImageFix"/>
<feColorMatrix in="SourceAlpha" type="matrix" values="0 0 0 0 0 0 0 0 0 0 0 0 0 0 0 0 0 0 127 0" result="hardAlpha"/>
<feOffset/>
<feGaussianBlur stdDeviation="1"/>
<feComposite in2="hardAlpha" operator="out"/>
<feColorMatrix type="matrix" values="0 0 0 0 0 0 0 0 0 0 0 0 0 0 0 0 0 0 0.12 0"/>
<feBlend mode="normal" in2="BackgroundImageFix" result="effect1_dropShadow_57_28403"/>
<feColorMatrix in="SourceAlpha" type="matrix" values="0 0 0 0 0 0 0 0 0 0 0 0 0 0 0 0 0 0 127 0" result="hardAlpha"/>
<feOffset dy="1"/>
<feGaussianBlur stdDeviation="1"/>
<feComposite in2="hardAlpha" operator="out"/>
<feColorMatrix type="matrix" values="0 0 0 0 0 0 0 0 0 0 0 0 0 0 0 0 0 0 0.14 0"/>
<feBlend mode="normal" in2="effect1_dropShadow_57_28403" result="effect2_dropShadow_57_28403"/>
<feBlend mode="normal" in="SourceGraphic" in2="effect2_dropShadow_57_28403" result="shape"/>
</filter>
<filter id="filter2_dd_57_28403" x="770" y="176" width="252" height="259" filterUnits="userSpaceOnUse" color-interpolation-filters="sRGB">
<feFlood flood-opacity="0" result="BackgroundImageFix"/>
<feColorMatrix in="SourceAlpha" type="matrix" values="0 0 0 0 0 0 0 0 0 0 0 0 0 0 0 0 0 0 127 0" result="hardAlpha"/>
<feOffset/>
<feGaussianBlur stdDeviation="1"/>
<feComposite in2="hardAlpha" operator="out"/>
<feColorMatrix type="matrix" values="0 0 0 0 0 0 0 0 0 0 0 0 0 0 0 0 0 0 0.12 0"/>
<feBlend mode="normal" in2="BackgroundImageFix" result="effect1_dropShadow_57_28403"/>
<feColorMatrix in="SourceAlpha" type="matrix" values="0 0 0 0 0 0 0 0 0 0 0 0 0 0 0 0 0 0 127 0" result="hardAlpha"/>
<feOffset dy="1"/>
<feGaussianBlur stdDeviation="1"/>
<feComposite in2="hardAlpha" operator="out"/>
<feColorMatrix type="matrix" values="0 0 0 0 0 0 0 0 0 0 0 0 0 0 0 0 0 0 0.14 0"/>
<feBlend mode="normal" in2="effect1_dropShadow_57_28403" result="effect2_dropShadow_57_28403"/>
<feBlend mode="normal" in="SourceGraphic" in2="effect2_dropShadow_57_28403" result="shape"/>
</filter>
<filter id="filter3_dd_57_28403" x="499" y="113.317" width="246" height="343" filterUnits="userSpaceOnUse" color-interpolation-filters="sRGB">
<feFlood flood-opacity="0" result="BackgroundImageFix"/>
<feColorMatrix in="SourceAlpha" type="matrix" values="0 0 0 0 0 0 0 0 0 0 0 0 0 0 0 0 0 0 127 0" result="hardAlpha"/>
<feOffset/>
<feGaussianBlur stdDeviation="1"/>
<feComposite in2="hardAlpha" operator="out"/>
<feColorMatrix type="matrix" values="0 0 0 0 0 0 0 0 0 0 0 0 0 0 0 0 0 0 0.12 0"/>
<feBlend mode="normal" in2="BackgroundImageFix" result="effect1_dropShadow_57_28403"/>
<feColorMatrix in="SourceAlpha" type="matrix" values="0 0 0 0 0 0 0 0 0 0 0 0 0 0 0 0 0 0 127 0" result="hardAlpha"/>
<feOffset dy="1"/>
<feGaussianBlur stdDeviation="1"/>
<feComposite in2="hardAlpha" operator="out"/>
<feColorMatrix type="matrix" values="0 0 0 0 0 0 0 0 0 0 0 0 0 0 0 0 0 0 0.14 0"/>
<feBlend mode="normal" in2="effect1_dropShadow_57_28403" result="effect2_dropShadow_57_28403"/>
<feBlend mode="normal" in="SourceGraphic" in2="effect2_dropShadow_57_28403" result="shape"/>
</filter>
<filter id="filter4_dd_57_28403" x="1147.6" y="36" width="229.8" height="441.8" filterUnits="userSpaceOnUse" color-interpolation-filters="sRGB">
<feFlood flood-opacity="0" result="BackgroundImageFix"/>
<feColorMatrix in="SourceAlpha" type="matrix" values="0 0 0 0 0 0 0 0 0 0 0 0 0 0 0 0 0 0 127 0" result="hardAlpha"/>
<feOffset dy="6.4"/>
<feGaussianBlur stdDeviation="7.2"/>
<feColorMatrix type="matrix" values="0 0 0 0 0 0 0 0 0 0 0 0 0 0 0 0 0 0 0.13 0"/>
<feBlend mode="normal" in2="BackgroundImageFix" result="effect1_dropShadow_57_28403"/>
<feColorMatrix in="SourceAlpha" type="matrix" values="0 0 0 0 0 0 0 0 0 0 0 0 0 0 0 0 0 0 127 0" result="hardAlpha"/>
<feOffset dy="1.2"/>
<feGaussianBlur stdDeviation="1.8"/>
<feColorMatrix type="matrix" values="0 0 0 0 0 0 0 0 0 0 0 0 0 0 0 0 0 0 0.1 0"/>
<feBlend mode="normal" in2="effect1_dropShadow_57_28403" result="effect2_dropShadow_57_28403"/>
<feBlend mode="normal" in="SourceGraphic" in2="effect2_dropShadow_57_28403" result="shape"/>
</filter>
<filter id="filter5_i_57_28403" x="1162" y="42.6" width="201" height="414.4" filterUnits="userSpaceOnUse" color-interpolation-filters="sRGB">
<feFlood flood-opacity="0" result="BackgroundImageFix"/>
<feBlend mode="normal" in="SourceGraphic" in2="BackgroundImageFix" result="shape"/>
<feColorMatrix in="SourceAlpha" type="matrix" values="0 0 0 0 0 0 0 0 0 0 0 0 0 0 0 0 0 0 127 0" result="hardAlpha"/>
<feOffset dy="-1.4"/>
<feGaussianBlur stdDeviation="2"/>
<feComposite in2="hardAlpha" operator="arithmetic" k2="-1" k3="1"/>
<feColorMatrix type="matrix" values="0 0 0 0 0 0 0 0 0 0 0 0 0 0 0 0 0 0 0.08 0"/>
<feBlend mode="normal" in2="shape" result="effect1_innerShadow_57_28403"/>
</filter>
<filter id="filter6_dd_57_28403" x="1175" y="117" width="175" height="233" filterUnits="userSpaceOnUse" color-interpolation-filters="sRGB">
<feFlood flood-opacity="0" result="BackgroundImageFix"/>
<feColorMatrix in="SourceAlpha" type="matrix" values="0 0 0 0 0 0 0 0 0 0 0 0 0 0 0 0 0 0 127 0" result="hardAlpha"/>
<feOffset/>
<feGaussianBlur stdDeviation="1"/>
<feComposite in2="hardAlpha" operator="out"/>
<feColorMatrix type="matrix" values="0 0 0 0 0 0 0 0 0 0 0 0 0 0 0 0 0 0 0.12 0"/>
<feBlend mode="normal" in2="BackgroundImageFix" result="effect1_dropShadow_57_28403"/>
<feColorMatrix in="SourceAlpha" type="matrix" values="0 0 0 0 0 0 0 0 0 0 0 0 0 0 0 0 0 0 127 0" result="hardAlpha"/>
<feOffset dy="1"/>
<feGaussianBlur stdDeviation="1"/>
<feComposite in2="hardAlpha" operator="out"/>
<feColorMatrix type="matrix" values="0 0 0 0 0 0 0 0 0 0 0 0 0 0 0 0 0 0 0.14 0"/>
<feBlend mode="normal" in2="effect1_dropShadow_57_28403" result="effect2_dropShadow_57_28403"/>
<feBlend mode="normal" in="SourceGraphic" in2="effect2_dropShadow_57_28403" result="shape"/>
</filter>
<clipPath id="clip0_57_28403">
<rect x="438" y="43" width="593" height="415" rx="8" fill="white"/>
</clipPath>
<clipPath id="clip1_57_28403">
<rect width="593" height="36" fill="white" transform="translate(438 43)"/>
</clipPath>
<clipPath id="clip2_57_28403">
<rect width="49" height="379" fill="white" transform="translate(438 79)"/>
</clipPath>
<clipPath id="clip3_57_28403">
<rect width="544" height="379" fill="white" transform="translate(487 79)"/>
</clipPath>
<clipPath id="clip4_57_28403">
<rect x="501" y="115.317" width="242" height="338" rx="8" fill="white"/>
</clipPath>
<clipPath id="clip5_57_28403">
<rect x="1169" y="51" width="187" height="399" rx="8" fill="white"/>
</clipPath>
<clipPath id="clip6_57_28403">
<rect width="187" height="367" fill="white" transform="translate(1169 83)"/>
</clipPath>
<clipPath id="clip7_57_28403">
<rect x="1177" y="119" width="171" height="228" rx="8" fill="white"/>
</clipPath>
</defs>
</svg>
