<svg width="1920" height="500" viewBox="0 0 1920 500" fill="none" xmlns="http://www.w3.org/2000/svg">
<rect width="1920" height="500" fill="#F5F5F5"/>
<g filter="url(#filter0_dd_57_28574)">
<rect x="429" y="33" width="612" height="434" rx="16" fill="#616161"/>
<rect x="438.533" y="43" width="592" height="414" rx="8" fill="black"/>
</g>
<g clip-path="url(#clip0_57_28574)">
<g clip-path="url(#clip1_57_28574)">
<rect width="593" height="36" transform="translate(438 43)" fill="#742774"/>
<rect x="438" y="37" width="150" height="48" fill="#742774"/>
<rect x="438" y="37" width="48" height="48" fill="#742774"/>
<path d="M455.5 53C455.708 53 455.904 53.0391 456.086 53.1172C456.268 53.1953 456.427 53.3021 456.562 53.4375C456.698 53.5729 456.805 53.7318 456.883 53.9141C456.961 54.0964 457 54.2917 457 54.5C457 54.7083 456.961 54.9036 456.883 55.0859C456.805 55.2682 456.698 55.4271 456.562 55.5625C456.427 55.6979 456.268 55.8047 456.086 55.8828C455.904 55.9609 455.708 56 455.5 56C455.292 56 455.096 55.9609 454.914 55.8828C454.732 55.8047 454.573 55.6979 454.438 55.5625C454.302 55.4271 454.195 55.2682 454.117 55.0859C454.039 54.9036 454 54.7083 454 54.5C454 54.2917 454.039 54.0964 454.117 53.9141C454.195 53.7318 454.302 53.5729 454.438 53.4375C454.573 53.3021 454.732 53.1953 454.914 53.1172C455.096 53.0391 455.292 53 455.5 53ZM461.5 53C461.708 53 461.904 53.0391 462.086 53.1172C462.268 53.1953 462.427 53.3021 462.562 53.4375C462.698 53.5729 462.805 53.7318 462.883 53.9141C462.961 54.0964 463 54.2917 463 54.5C463 54.7083 462.961 54.9036 462.883 55.0859C462.805 55.2682 462.698 55.4271 462.562 55.5625C462.427 55.6979 462.268 55.8047 462.086 55.8828C461.904 55.9609 461.708 56 461.5 56C461.292 56 461.096 55.9609 460.914 55.8828C460.732 55.8047 460.573 55.6979 460.438 55.5625C460.302 55.4271 460.195 55.2682 460.117 55.0859C460.039 54.9036 460 54.7083 460 54.5C460 54.2917 460.039 54.0964 460.117 53.9141C460.195 53.7318 460.302 53.5729 460.438 53.4375C460.573 53.3021 460.732 53.1953 460.914 53.1172C461.096 53.0391 461.292 53 461.5 53ZM467.5 56C467.292 56 467.096 55.9609 466.914 55.8828C466.732 55.8047 466.573 55.6979 466.438 55.5625C466.302 55.4271 466.195 55.2682 466.117 55.0859C466.039 54.9036 466 54.7083 466 54.5C466 54.2917 466.039 54.0964 466.117 53.9141C466.195 53.7318 466.302 53.5729 466.438 53.4375C466.573 53.3021 466.732 53.1953 466.914 53.1172C467.096 53.0391 467.292 53 467.5 53C467.708 53 467.904 53.0391 468.086 53.1172C468.268 53.1953 468.427 53.3021 468.562 53.4375C468.698 53.5729 468.805 53.7318 468.883 53.9141C468.961 54.0964 469 54.2917 469 54.5C469 54.7083 468.961 54.9036 468.883 55.0859C468.805 55.2682 468.698 55.4271 468.562 55.5625C468.427 55.6979 468.268 55.8047 468.086 55.8828C467.904 55.9609 467.708 56 467.5 56ZM455.5 59C455.708 59 455.904 59.0391 456.086 59.1172C456.268 59.1953 456.427 59.3021 456.562 59.4375C456.698 59.5729 456.805 59.7318 456.883 59.9141C456.961 60.0964 457 60.2917 457 60.5C457 60.7083 456.961 60.9036 456.883 61.0859C456.805 61.2682 456.698 61.4271 456.562 61.5625C456.427 61.6979 456.268 61.8047 456.086 61.8828C455.904 61.9609 455.708 62 455.5 62C455.292 62 455.096 61.9609 454.914 61.8828C454.732 61.8047 454.573 61.6979 454.438 61.5625C454.302 61.4271 454.195 61.2682 454.117 61.0859C454.039 60.9036 454 60.7083 454 60.5C454 60.2917 454.039 60.0964 454.117 59.9141C454.195 59.7318 454.302 59.5729 454.438 59.4375C454.573 59.3021 454.732 59.1953 454.914 59.1172C455.096 59.0391 455.292 59 455.5 59ZM461.5 59C461.708 59 461.904 59.0391 462.086 59.1172C462.268 59.1953 462.427 59.3021 462.562 59.4375C462.698 59.5729 462.805 59.7318 462.883 59.9141C462.961 60.0964 463 60.2917 463 60.5C463 60.7083 462.961 60.9036 462.883 61.0859C462.805 61.2682 462.698 61.4271 462.562 61.5625C462.427 61.6979 462.268 61.8047 462.086 61.8828C461.904 61.9609 461.708 62 461.5 62C461.292 62 461.096 61.9609 460.914 61.8828C460.732 61.8047 460.573 61.6979 460.438 61.5625C460.302 61.4271 460.195 61.2682 460.117 61.0859C460.039 60.9036 460 60.7083 460 60.5C460 60.2917 460.039 60.0964 460.117 59.9141C460.195 59.7318 460.302 59.5729 460.438 59.4375C460.573 59.3021 460.732 59.1953 460.914 59.1172C461.096 59.0391 461.292 59 461.5 59ZM467.5 59C467.708 59 467.904 59.0391 468.086 59.1172C468.268 59.1953 468.427 59.3021 468.562 59.4375C468.698 59.5729 468.805 59.7318 468.883 59.9141C468.961 60.0964 469 60.2917 469 60.5C469 60.7083 468.961 60.9036 468.883 61.0859C468.805 61.2682 468.698 61.4271 468.562 61.5625C468.427 61.6979 468.268 61.8047 468.086 61.8828C467.904 61.9609 467.708 62 467.5 62C467.292 62 467.096 61.9609 466.914 61.8828C466.732 61.8047 466.573 61.6979 466.438 61.5625C466.302 61.4271 466.195 61.2682 466.117 61.0859C466.039 60.9036 466 60.7083 466 60.5C466 60.2917 466.039 60.0964 466.117 59.9141C466.195 59.7318 466.302 59.5729 466.438 59.4375C466.573 59.3021 466.732 59.1953 466.914 59.1172C467.096 59.0391 467.292 59 467.5 59ZM455.5 65C455.708 65 455.904 65.0391 456.086 65.1172C456.268 65.1953 456.427 65.3021 456.562 65.4375C456.698 65.5729 456.805 65.7318 456.883 65.9141C456.961 66.0964 457 66.2917 457 66.5C457 66.7083 456.961 66.9036 456.883 67.0859C456.805 67.2682 456.698 67.4271 456.562 67.5625C456.427 67.6979 456.268 67.8047 456.086 67.8828C455.904 67.9609 455.708 68 455.5 68C455.292 68 455.096 67.9609 454.914 67.8828C454.732 67.8047 454.573 67.6979 454.438 67.5625C454.302 67.4271 454.195 67.2682 454.117 67.0859C454.039 66.9036 454 66.7083 454 66.5C454 66.2917 454.039 66.0964 454.117 65.9141C454.195 65.7318 454.302 65.5729 454.438 65.4375C454.573 65.3021 454.732 65.1953 454.914 65.1172C455.096 65.0391 455.292 65 455.5 65ZM461.5 65C461.708 65 461.904 65.0391 462.086 65.1172C462.268 65.1953 462.427 65.3021 462.562 65.4375C462.698 65.5729 462.805 65.7318 462.883 65.9141C462.961 66.0964 463 66.2917 463 66.5C463 66.7083 462.961 66.9036 462.883 67.0859C462.805 67.2682 462.698 67.4271 462.562 67.5625C462.427 67.6979 462.268 67.8047 462.086 67.8828C461.904 67.9609 461.708 68 461.5 68C461.292 68 461.096 67.9609 460.914 67.8828C460.732 67.8047 460.573 67.6979 460.438 67.5625C460.302 67.4271 460.195 67.2682 460.117 67.0859C460.039 66.9036 460 66.7083 460 66.5C460 66.2917 460.039 66.0964 460.117 65.9141C460.195 65.7318 460.302 65.5729 460.438 65.4375C460.573 65.3021 460.732 65.1953 460.914 65.1172C461.096 65.0391 461.292 65 461.5 65ZM467.5 65C467.708 65 467.904 65.0391 468.086 65.1172C468.268 65.1953 468.427 65.3021 468.562 65.4375C468.698 65.5729 468.805 65.7318 468.883 65.9141C468.961 66.0964 469 66.2917 469 66.5C469 66.7083 468.961 66.9036 468.883 67.0859C468.805 67.2682 468.698 67.4271 468.562 67.5625C468.427 67.6979 468.268 67.8047 468.086 67.8828C467.904 67.9609 467.708 68 467.5 68C467.292 68 467.096 67.9609 466.914 67.8828C466.732 67.8047 466.573 67.6979 466.438 67.5625C466.302 67.4271 466.195 67.2682 466.117 67.0859C466.039 66.9036 466 66.7083 466 66.5C466 66.2917 466.039 66.0964 466.117 65.9141C466.195 65.7318 466.302 65.5729 466.438 65.4375C466.573 65.3021 466.732 65.1953 466.914 65.1172C467.096 65.0391 467.292 65 467.5 65Z" fill="white"/>
<rect x="485" y="53" width="69" height="17" rx="8.5" fill="#953B95"/>
<path fill-rule="evenodd" clip-rule="evenodd" d="M862.956 67C866.27 67 868.956 64.3137 868.956 61C868.956 57.6863 866.27 55 862.956 55C859.642 55 856.956 57.6863 856.956 61C856.956 64.3137 859.642 67 862.956 67Z" fill="#953B95"/>
<path fill-rule="evenodd" clip-rule="evenodd" d="M910.956 67C914.27 67 916.956 64.3137 916.956 61C916.956 57.6863 914.27 55 910.956 55C907.642 55 904.956 57.6863 904.956 61C904.956 64.3137 907.642 67 910.956 67Z" fill="#953B95"/>
<path fill-rule="evenodd" clip-rule="evenodd" d="M958.956 67C962.27 67 964.956 64.3137 964.956 61C964.956 57.6863 962.27 55 958.956 55C955.642 55 952.956 57.6863 952.956 61C952.956 64.3137 955.642 67 958.956 67Z" fill="#953B95"/>
<rect x="983" y="37" width="48" height="48" fill="#742774"/>
<path d="M993 61C993 53.268 999.268 47 1007 47V47C1014.73 47 1021 53.268 1021 61V61C1021 68.732 1014.73 75 1007 75V75C999.268 75 993 68.732 993 61V61Z" fill="#953B95"/>
<path d="M1007 53C1004.79 53 1003 54.7909 1003 57C1003 59.2091 1004.79 61 1007 61C1009.21 61 1011 59.2091 1011 57C1011 54.7909 1009.21 53 1007 53ZM1004 57C1004 55.3431 1005.34 54 1007 54C1008.66 54 1010 55.3431 1010 57C1010 58.6569 1008.66 60 1007 60C1005.34 60 1004 58.6569 1004 57ZM1002.01 62C1000.9 62 1000 62.8869 1000 64C1000 65.6912 1000.83 66.9663 1002.13 67.7966C1003.42 68.614 1005.15 69 1007 69C1008.85 69 1010.58 68.614 1011.87 67.7966C1013.17 66.9663 1014 65.6912 1014 64C1014 62.8956 1013.1 62 1012 62L1002.01 62ZM1001 64C1001 63.4467 1001.45 63 1002.01 63L1012 63C1012.55 63 1013 63.4478 1013 64C1013 65.3088 1012.38 66.2837 1011.33 66.9534C1010.26 67.636 1008.74 68 1007 68C1005.26 68 1003.74 67.636 1002.67 66.9534C1001.62 66.2837 1001 65.3088 1001 64Z" fill="#DF65DF"/>
</g>
<g clip-path="url(#clip2_57_28574)">
<rect width="49" height="379" transform="translate(438 79)" fill="#EBEBEB"/>
<path d="M454.5 99.75C454.5 99.3358 454.836 99 455.25 99H469.75C470.164 99 470.5 99.3358 470.5 99.75C470.5 100.164 470.164 100.5 469.75 100.5H455.25C454.836 100.5 454.5 100.164 454.5 99.75ZM454.5 104.75C454.5 104.336 454.836 104 455.25 104H469.75C470.164 104 470.5 104.336 470.5 104.75C470.5 105.164 470.164 105.5 469.75 105.5H455.25C454.836 105.5 454.5 105.164 454.5 104.75ZM455.25 109C454.836 109 454.5 109.336 454.5 109.75C454.5 110.164 454.836 110.5 455.25 110.5H469.75C470.164 110.5 470.5 110.164 470.5 109.75C470.5 109.336 470.164 109 469.75 109H455.25Z" fill="#818181"/>
<rect x="454.5" y="134" width="17" height="17" rx="8.5" fill="#D9D9D9"/>
<rect x="454.5" y="169" width="16" height="16" rx="8" fill="#D9D9D9"/>
<rect x="454.5" y="204" width="16" height="16" rx="8" fill="#D9D9D9"/>
<rect x="454.5" y="239" width="16" height="16" rx="8" fill="#D9D9D9"/>
<rect x="454.5" y="274" width="16" height="16" rx="8" fill="#D9D9D9"/>
<rect x="454.5" y="309" width="16" height="16" rx="8" fill="#D9D9D9"/>
<rect x="454.5" y="344" width="16" height="16" rx="8" fill="#D9D9D9"/>
<rect x="454.5" y="379" width="16" height="16" rx="8" fill="#D9D9D9"/>
</g>
<g clip-path="url(#clip3_57_28574)">
<rect width="544" height="379" transform="translate(487 79)" fill="#F5F5F5"/>
<g filter="url(#filter1_dd_57_28574)">
<rect width="409" height="355" transform="translate(622 103)" fill="white"/>
<rect x="649" y="190" width="123" height="13" rx="4" fill="#F0F0F0"/>
<rect x="649" y="175" width="73" height="5" rx="2.5" fill="#808080"/>
<path d="M739.5 177.5H735.207L738.243 174.464C738.438 174.269 738.438 173.952 738.243 173.757C738.048 173.562 737.731 173.562 737.536 173.757L734.5 176.793V172.5C734.5 172.224 734.276 172 734 172C733.724 172 733.5 172.224 733.5 172.5V176.793L730.464 173.757C730.269 173.562 729.952 173.562 729.757 173.757C729.562 173.952 729.562 174.269 729.757 174.464L732.793 177.5H728.5C728.224 177.5 728 177.724 728 178C728 178.276 728.224 178.5 728.5 178.5H732.793L729.757 181.536C729.562 181.731 729.562 182.048 729.757 182.243C729.855 182.341 729.983 182.389 730.111 182.389C730.239 182.389 730.367 182.34 730.465 182.243L733.501 179.207V183.5C733.501 183.776 733.725 184 734.001 184C734.277 184 734.501 183.776 734.501 183.5V179.207L737.537 182.243C737.635 182.341 737.763 182.389 737.891 182.389C738.019 182.389 738.147 182.34 738.245 182.243C738.44 182.048 738.44 181.731 738.245 181.536L735.209 178.5H739.502C739.778 178.5 740.002 178.276 740.002 178C740.002 177.724 739.778 177.5 739.502 177.5H739.5Z" fill="#C50F1F"/>
<rect x="649" y="236" width="123" height="13" rx="4" fill="#F0F0F0"/>
<rect x="649" y="222" width="50" height="5" rx="2.5" fill="#808080"/>
<path d="M719.5 223.5H715.207L718.243 220.464C718.438 220.269 718.438 219.952 718.243 219.757C718.048 219.562 717.731 219.562 717.536 219.757L714.5 222.793V218.5C714.5 218.224 714.276 218 714 218C713.724 218 713.5 218.224 713.5 218.5V222.793L710.464 219.757C710.269 219.562 709.952 219.562 709.757 219.757C709.562 219.952 709.562 220.269 709.757 220.464L712.793 223.5H708.5C708.224 223.5 708 223.724 708 224C708 224.276 708.224 224.5 708.5 224.5H712.793L709.757 227.536C709.562 227.731 709.562 228.048 709.757 228.243C709.855 228.341 709.983 228.389 710.111 228.389C710.239 228.389 710.367 228.34 710.465 228.243L713.501 225.207V229.5C713.501 229.776 713.725 230 714.001 230C714.277 230 714.501 229.776 714.501 229.5V225.207L717.537 228.243C717.635 228.341 717.763 228.389 717.891 228.389C718.019 228.389 718.147 228.34 718.245 228.243C718.44 228.048 718.44 227.731 718.245 227.536L715.209 224.5H719.502C719.778 224.5 720.002 224.276 720.002 224C720.002 223.724 719.778 223.5 719.502 223.5H719.5Z" fill="#C50F1F"/>
<rect x="649" y="288" width="253" height="22" rx="4" fill="#F0F0F0"/>
<rect x="649" y="274" width="93" height="5" rx="2.5" fill="#808080"/>
<mask id="path-32-inside-1_57_28574" fill="white">
<path d="M836 416C836 413.791 837.791 412 840 412H912C914.209 412 916 413.791 916 416V432C916 434.209 914.209 436 912 436H840C837.791 436 836 434.209 836 432V416Z"/>
</mask>
<path d="M836 416C836 413.791 837.791 412 840 412H912C914.209 412 916 413.791 916 416V432C916 434.209 914.209 436 912 436H840C837.791 436 836 434.209 836 432V416Z" fill="white"/>
<path d="M840 413H912V411H840V413ZM915 416V432H917V416H915ZM912 435H840V437H912V435ZM837 432V416H835V432H837ZM840 435C838.343 435 837 433.657 837 432H835C835 434.761 837.239 437 840 437V435ZM915 432C915 433.657 913.657 435 912 435V437C914.761 437 917 434.761 917 432H915ZM912 413C913.657 413 915 414.343 915 416H917C917 413.239 914.761 411 912 411V413ZM840 411C837.239 411 835 413.239 835 416H837C837 414.343 838.343 413 840 413V411Z" fill="#D1D1D1" mask="url(#path-32-inside-1_57_28574)"/>
<path d="M925 416C925 413.791 926.791 412 929 412H1001C1003.21 412 1005 413.791 1005 416V432C1005 434.209 1003.21 436 1001 436H929C926.791 436 925 434.209 925 432V416Z" fill="#CA5BCA"/>
</g>
<rect x="647" y="123" width="103" height="7" rx="3.5" fill="#AB84AB"/>
<rect width="545" height="24" transform="translate(487 79)" fill="#EBEBEB"/>
<path d="M513 91C513 91.4142 512.664 91.75 512.25 91.75L503.463 91.75L506.75 94.6911C507.059 94.9673 507.085 95.4414 506.809 95.7501C506.533 96.0588 506.059 96.0851 505.75 95.8089L501 91.5589C500.841 91.4167 500.75 91.2134 500.75 91C500.75 90.7866 500.841 90.5834 501 90.4411L505.75 86.1911C506.059 85.9149 506.533 85.9412 506.809 86.2499C507.085 86.5586 507.059 87.0327 506.75 87.3089L503.463 90.25L512.25 90.25C512.664 90.25 513 90.5858 513 91Z" fill="#CA5BCA"/>
<path fill-rule="evenodd" clip-rule="evenodd" d="M527 95C529.209 95 531 93.2091 531 91C531 88.7909 529.209 87 527 87C524.791 87 523 88.7909 523 91C523 93.2091 524.791 95 527 95Z" fill="#818181"/>
<g clip-path="url(#clip4_57_28574)">
<rect width="135" height="355" transform="translate(487 103)" fill="#F5F5F5"/>
<path d="M505 153L505 460.5" stroke="#ECD1EC"/>
<rect x="495.5" y="135.5" width="19" height="19" rx="9.5" fill="#CA5BCA"/>
<rect x="495.5" y="135.5" width="19" height="19" rx="9.5" stroke="white"/>
<path d="M508.765 142.205C509.066 142.489 509.08 142.964 508.795 143.265L504.545 147.765C504.406 147.912 504.213 147.997 504.011 148C503.808 148.003 503.613 147.924 503.47 147.78L501.22 145.53C500.927 145.237 500.927 144.763 501.22 144.47C501.513 144.177 501.987 144.177 502.28 144.47L503.985 146.174L507.705 142.235C507.989 141.934 508.464 141.92 508.765 142.205Z" fill="#822C82"/>
<rect x="527" y="141.5" width="74" height="7" rx="3.5" fill="#E6E6E6"/>
<rect x="495.5" y="171.5" width="19" height="19" rx="9.5" fill="#CA5BCA"/>
<rect x="495.5" y="171.5" width="19" height="19" rx="9.5" stroke="white"/>
<path d="M508.765 178.205C509.066 178.489 509.08 178.964 508.795 179.265L504.545 183.765C504.406 183.912 504.213 183.997 504.011 184C503.808 184.003 503.613 183.924 503.47 183.78L501.22 181.53C500.927 181.237 500.927 180.763 501.22 180.47C501.513 180.177 501.987 180.177 502.28 180.47L503.985 182.174L507.705 178.235C507.989 177.934 508.464 177.92 508.765 178.205Z" fill="#822C82"/>
<rect x="527" y="177.5" width="74" height="7" rx="3.5" fill="#E6E6E6"/>
<rect x="495.5" y="207.5" width="19" height="19" rx="9.5" fill="#CA5BCA"/>
<rect x="495.5" y="207.5" width="19" height="19" rx="9.5" stroke="white"/>
<rect x="527" y="213.5" width="74" height="7" rx="3.5" fill="#E6E6E6"/>
<rect x="495.5" y="243.5" width="19" height="19" rx="9.5" fill="#CCCCCC"/>
<rect x="495.5" y="243.5" width="19" height="19" rx="9.5" stroke="white"/>
<rect x="527" y="249.5" width="74" height="7" rx="3.5" fill="#E6E6E6"/>
<rect x="495.5" y="279.5" width="19" height="19" rx="9.5" fill="#CCCCCC"/>
<rect x="495.5" y="279.5" width="19" height="19" rx="9.5" stroke="white"/>
<rect x="527" y="285.5" width="74" height="7" rx="3.5" fill="#E6E6E6"/>
<rect x="495.5" y="315.5" width="19" height="19" rx="9.5" fill="#CCCCCC"/>
<rect x="495.5" y="315.5" width="19" height="19" rx="9.5" stroke="white"/>
<rect x="527" y="321.5" width="74" height="7" rx="3.5" fill="#E6E6E6"/>
<rect x="495.5" y="351.5" width="19" height="19" rx="9.5" fill="#CCCCCC"/>
<rect x="495.5" y="351.5" width="19" height="19" rx="9.5" stroke="white"/>
<rect x="527" y="357.5" width="74" height="7" rx="3.5" fill="#E6E6E6"/>
<rect x="495" y="115" width="63" height="6" rx="3" fill="#ECD1EC"/>
</g>
</g>
</g>
<g filter="url(#filter2_dd_57_28574)">
<g filter="url(#filter3_i_57_28574)">
<rect x="1162" y="44" width="201" height="413" rx="16" fill="#616161"/>
</g>
<rect x="1168.98" y="50.8833" width="187.031" height="399.233" rx="8" fill="black"/>
<g clip-path="url(#clip5_57_28574)">
<rect width="187" height="32" transform="translate(1169 51)" fill="#EBEBEB"/>
<path d="M1181 62.75C1181 62.3358 1181.34 62 1181.75 62H1196.25C1196.66 62 1197 62.3358 1197 62.75C1197 63.1642 1196.66 63.5 1196.25 63.5H1181.75C1181.34 63.5 1181 63.1642 1181 62.75ZM1181 67.75C1181 67.3358 1181.34 67 1181.75 67H1196.25C1196.66 67 1197 67.3358 1197 67.75C1197 68.1642 1196.66 68.5 1196.25 68.5H1181.75C1181.34 68.5 1181 68.1642 1181 67.75ZM1181.75 72C1181.34 72 1181 72.3358 1181 72.75C1181 73.1642 1181.34 73.5 1181.75 73.5H1196.25C1196.66 73.5 1197 73.1642 1197 72.75C1197 72.3358 1196.66 72 1196.25 72H1181.75Z" fill="#818181"/>
<g clip-path="url(#clip6_57_28574)">
<rect width="187" height="367" transform="translate(1169 83)" fill="white"/>
<g clip-path="url(#clip7_57_28574)">
<rect width="171" height="355" transform="translate(1177 119)" fill="#F5F5F5"/>
<path d="M1195 169L1195 476.5" stroke="#ECD1EC"/>
<rect x="1185.5" y="151.5" width="19" height="19" rx="9.5" fill="#CA5BCA"/>
<rect x="1185.5" y="151.5" width="19" height="19" rx="9.5" stroke="white"/>
<path d="M1198.76 158.205C1199.07 158.489 1199.08 158.964 1198.8 159.265L1194.55 163.765C1194.41 163.912 1194.21 163.997 1194.01 164C1193.81 164.003 1193.61 163.924 1193.47 163.78L1191.22 161.53C1190.93 161.237 1190.93 160.763 1191.22 160.47C1191.51 160.177 1191.99 160.177 1192.28 160.47L1193.98 162.174L1197.7 158.235C1197.99 157.934 1198.46 157.92 1198.76 158.205Z" fill="#822C82"/>
<rect x="1217" y="157.5" width="115" height="7" rx="3.5" fill="#E6E6E6"/>
<rect x="1185.5" y="187.5" width="19" height="19" rx="9.5" fill="#CA5BCA"/>
<rect x="1185.5" y="187.5" width="19" height="19" rx="9.5" stroke="white"/>
<path d="M1198.76 194.205C1199.07 194.489 1199.08 194.964 1198.8 195.265L1194.55 199.765C1194.41 199.912 1194.21 199.997 1194.01 200C1193.81 200.003 1193.61 199.924 1193.47 199.78L1191.22 197.53C1190.93 197.237 1190.93 196.763 1191.22 196.47C1191.51 196.177 1191.99 196.177 1192.28 196.47L1193.98 198.174L1197.7 194.235C1197.99 193.934 1198.46 193.92 1198.76 194.205Z" fill="#822C82"/>
<rect x="1217" y="193.5" width="115" height="7" rx="3.5" fill="#E6E6E6"/>
<rect x="1185.5" y="223.5" width="19" height="19" rx="9.5" fill="#CA5BCA"/>
<rect x="1185.5" y="223.5" width="19" height="19" rx="9.5" stroke="white"/>
<rect x="1217" y="229.5" width="115" height="7" rx="3.5" fill="#E6E6E6"/>
<rect x="1185.5" y="259.5" width="19" height="19" rx="9.5" fill="#CCCCCC"/>
<rect x="1185.5" y="259.5" width="19" height="19" rx="9.5" stroke="white"/>
<rect x="1217" y="265.5" width="115" height="7" rx="3.5" fill="#E6E6E6"/>
<rect x="1185.5" y="295.5" width="19" height="19" rx="9.5" fill="#CCCCCC"/>
<rect x="1185.5" y="295.5" width="19" height="19" rx="9.5" stroke="white"/>
<rect x="1217" y="301.5" width="115" height="7" rx="3.5" fill="#E6E6E6"/>
<rect x="1185.5" y="331.5" width="19" height="19" rx="9.5" fill="#CCCCCC"/>
<rect x="1185.5" y="331.5" width="19" height="19" rx="9.5" stroke="white"/>
<rect x="1217" y="337.5" width="115" height="7" rx="3.5" fill="#E6E6E6"/>
<rect x="1185.5" y="367.5" width="19" height="19" rx="9.5" fill="#CCCCCC"/>
<rect x="1185.5" y="367.5" width="19" height="19" rx="9.5" stroke="white"/>
<rect x="1217" y="373.5" width="115" height="7" rx="3.5" fill="#E6E6E6"/>
<rect x="1185.5" y="403.5" width="19" height="19" rx="9.5" fill="#CCCCCC"/>
<rect x="1185.5" y="403.5" width="19" height="19" rx="9.5" stroke="white"/>
<rect x="1217" y="409.5" width="115" height="7" rx="3.5" fill="#E6E6E6"/>
<rect x="1185.5" y="439.5" width="19" height="19" rx="9.5" fill="#CCCCCC"/>
<rect x="1185.5" y="439.5" width="19" height="19" rx="9.5" stroke="white"/>
<rect x="1217" y="445.5" width="115" height="7" rx="3.5" fill="#E6E6E6"/>
<rect x="1185" y="131" width="63" height="6" rx="3" fill="#ECD1EC"/>
</g>
<rect x="1337" y="99" width="9" height="9" rx="4.5" fill="#AB84AB"/>
<rect x="1317" y="99" width="9" height="9" rx="4.5" fill="#AB84AB"/>
</g>
</g>
<line x1="1229.49" y1="436.916" x2="1294.94" y2="436.916" stroke="white" stroke-opacity="0.5" stroke-width="4" stroke-linecap="round" stroke-linejoin="round"/>
</g>
<rect x="1179" y="98" width="113" height="13" rx="6.5" fill="#AB84AB"/>
<defs>
<filter id="filter0_dd_57_28574" x="414.6" y="25" width="640.8" height="462.8" filterUnits="userSpaceOnUse" color-interpolation-filters="sRGB">
<feFlood flood-opacity="0" result="BackgroundImageFix"/>
<feColorMatrix in="SourceAlpha" type="matrix" values="0 0 0 0 0 0 0 0 0 0 0 0 0 0 0 0 0 0 127 0" result="hardAlpha"/>
<feOffset dy="6.4"/>
<feGaussianBlur stdDeviation="7.2"/>
<feColorMatrix type="matrix" values="0 0 0 0 0 0 0 0 0 0 0 0 0 0 0 0 0 0 0.13 0"/>
<feBlend mode="normal" in2="BackgroundImageFix" result="effect1_dropShadow_57_28574"/>
<feColorMatrix in="SourceAlpha" type="matrix" values="0 0 0 0 0 0 0 0 0 0 0 0 0 0 0 0 0 0 127 0" result="hardAlpha"/>
<feOffset dy="1.2"/>
<feGaussianBlur stdDeviation="1.8"/>
<feColorMatrix type="matrix" values="0 0 0 0 0 0 0 0 0 0 0 0 0 0 0 0 0 0 0.1 0"/>
<feBlend mode="normal" in2="effect1_dropShadow_57_28574" result="effect2_dropShadow_57_28574"/>
<feBlend mode="normal" in="SourceGraphic" in2="effect2_dropShadow_57_28574" result="shape"/>
</filter>
<filter id="filter1_dd_57_28574" x="620" y="101" width="413" height="360" filterUnits="userSpaceOnUse" color-interpolation-filters="sRGB">
<feFlood flood-opacity="0" result="BackgroundImageFix"/>
<feColorMatrix in="SourceAlpha" type="matrix" values="0 0 0 0 0 0 0 0 0 0 0 0 0 0 0 0 0 0 127 0" result="hardAlpha"/>
<feOffset/>
<feGaussianBlur stdDeviation="1"/>
<feComposite in2="hardAlpha" operator="out"/>
<feColorMatrix type="matrix" values="0 0 0 0 0 0 0 0 0 0 0 0 0 0 0 0 0 0 0.12 0"/>
<feBlend mode="normal" in2="BackgroundImageFix" result="effect1_dropShadow_57_28574"/>
<feColorMatrix in="SourceAlpha" type="matrix" values="0 0 0 0 0 0 0 0 0 0 0 0 0 0 0 0 0 0 127 0" result="hardAlpha"/>
<feOffset dy="1"/>
<feGaussianBlur stdDeviation="1"/>
<feComposite in2="hardAlpha" operator="out"/>
<feColorMatrix type="matrix" values="0 0 0 0 0 0 0 0 0 0 0 0 0 0 0 0 0 0 0.14 0"/>
<feBlend mode="normal" in2="effect1_dropShadow_57_28574" result="effect2_dropShadow_57_28574"/>
<feBlend mode="normal" in="SourceGraphic" in2="effect2_dropShadow_57_28574" result="shape"/>
</filter>
<filter id="filter2_dd_57_28574" x="1147.6" y="36" width="229.8" height="441.8" filterUnits="userSpaceOnUse" color-interpolation-filters="sRGB">
<feFlood flood-opacity="0" result="BackgroundImageFix"/>
<feColorMatrix in="SourceAlpha" type="matrix" values="0 0 0 0 0 0 0 0 0 0 0 0 0 0 0 0 0 0 127 0" result="hardAlpha"/>
<feOffset dy="6.4"/>
<feGaussianBlur stdDeviation="7.2"/>
<feColorMatrix type="matrix" values="0 0 0 0 0 0 0 0 0 0 0 0 0 0 0 0 0 0 0.13 0"/>
<feBlend mode="normal" in2="BackgroundImageFix" result="effect1_dropShadow_57_28574"/>
<feColorMatrix in="SourceAlpha" type="matrix" values="0 0 0 0 0 0 0 0 0 0 0 0 0 0 0 0 0 0 127 0" result="hardAlpha"/>
<feOffset dy="1.2"/>
<feGaussianBlur stdDeviation="1.8"/>
<feColorMatrix type="matrix" values="0 0 0 0 0 0 0 0 0 0 0 0 0 0 0 0 0 0 0.1 0"/>
<feBlend mode="normal" in2="effect1_dropShadow_57_28574" result="effect2_dropShadow_57_28574"/>
<feBlend mode="normal" in="SourceGraphic" in2="effect2_dropShadow_57_28574" result="shape"/>
</filter>
<filter id="filter3_i_57_28574" x="1162" y="42.6" width="201" height="414.4" filterUnits="userSpaceOnUse" color-interpolation-filters="sRGB">
<feFlood flood-opacity="0" result="BackgroundImageFix"/>
<feBlend mode="normal" in="SourceGraphic" in2="BackgroundImageFix" result="shape"/>
<feColorMatrix in="SourceAlpha" type="matrix" values="0 0 0 0 0 0 0 0 0 0 0 0 0 0 0 0 0 0 127 0" result="hardAlpha"/>
<feOffset dy="-1.4"/>
<feGaussianBlur stdDeviation="2"/>
<feComposite in2="hardAlpha" operator="arithmetic" k2="-1" k3="1"/>
<feColorMatrix type="matrix" values="0 0 0 0 0 0 0 0 0 0 0 0 0 0 0 0 0 0 0.08 0"/>
<feBlend mode="normal" in2="shape" result="effect1_innerShadow_57_28574"/>
</filter>
<clipPath id="clip0_57_28574">
<rect x="438" y="43" width="593" height="415" rx="8" fill="white"/>
</clipPath>
<clipPath id="clip1_57_28574">
<rect width="593" height="36" fill="white" transform="translate(438 43)"/>
</clipPath>
<clipPath id="clip2_57_28574">
<rect width="49" height="379" fill="white" transform="translate(438 79)"/>
</clipPath>
<clipPath id="clip3_57_28574">
<rect width="544" height="379" fill="white" transform="translate(487 79)"/>
</clipPath>
<clipPath id="clip4_57_28574">
<rect width="135" height="355" fill="white" transform="translate(487 103)"/>
</clipPath>
<clipPath id="clip5_57_28574">
<rect x="1169" y="51" width="187" height="399" rx="8" fill="white"/>
</clipPath>
<clipPath id="clip6_57_28574">
<rect width="187" height="367" fill="white" transform="translate(1169 83)"/>
</clipPath>
<clipPath id="clip7_57_28574">
<rect width="171" height="355" fill="white" transform="translate(1177 119)"/>
</clipPath>
</defs>
</svg>
