<svg width="49.025" height="47.883" version="1.1" viewBox="0 0 49.025 47.883" xmlns="http://www.w3.org/2000/svg" aria-label="Get started icon">
 <g stroke-width=".81">
  <path d="m4.3821 46.886c-0.6156 0.2025-1.2717 0.3888-1.9521 0.5751 4.0986-17.01 12.15-13.94 12.15-13.94l1.3203 1.2474 0.0486 0.162c0.3078 1.1259 1.4013 7.8408-11.567 11.956z" fill="#ff9f2b"/>
  <path d="m4.3821 46.886c4.05-14.013 10.894-12.15 11.591-11.956 0.2835 1.1259 1.377 7.8408-11.591 11.956z" fill="#ff8c00"/>
  <path d="m16.613 38.147-5.7267-5.7267 4.5765-1.1502 2.1546 2.1627zm1.1421-12.693-15.463-0.567-2.2923-2.2923 13.171-6.3018 5.508 2.0655zm6.5448 4.6737 0.5751 15.463 2.2923 2.2923 6.2937-13.171-2.0655-5.508z" fill="#556a8a"/>
  <path d="m21.214 36.948h-0.1701l-0.1377-0.1215-8.1567-8.5131v-0.2025a33.809 33.809 0 0 1 9.3069-16.427c7.4034-7.371 24.681-10.465 25.41-10.595l0.567-0.0972-0.0972 0.567s-0.2997 1.7982-0.9234 4.4145c-1.6848 7.0794-4.698 16.524-9.5013 21.352-7.4763 7.5249-15.609 9.6228-16.297 9.6228z" fill="#fff"/>
  <path d="m46.575 6.9777c-1.3689 5.7591-4.3416 15.738-9.396 20.817-7.4682 7.533-15.592 9.072-16.014 9.153l-4.5603-4.5522s1.4499-8.3592 9.1692-16.038c5.0787-5.0463 15.034-8.019 20.801-9.3798z" fill="#e5e5e5"/>
  <path d="m48.195 0.74075a74.52 74.52 0 0 0-14.823 4.4145l10.854 10.854a99.695 99.695 0 0 0 3.969-15.269z" fill="#2bc7f4"/>
 </g>
 <path d="m21.214 36.948h-0.1701l-0.1377-0.1215-8.1567-8.5131v-0.2025a33.809 33.809 0 0 1 9.3069-16.427c7.4034-7.371 24.681-10.465 25.41-10.595l0.567-0.0972-0.0972 0.567s-0.2997 1.7982-0.9234 4.4145c-1.6848 7.0794-4.698 16.524-9.5013 21.352-7.4763 7.5249-15.609 9.6228-16.297 9.6228z" fill="none" stroke="#556a8a" stroke-miterlimit="10" stroke-width="1.62"/>
 <circle cx="29.16" cy="19.533" r="4.05" fill="#fff" stroke="#556a8a" stroke-miterlimit="10" stroke-width="1.8"/>
</svg>
