<svg width="50.424" height="50.571" version="1.1" viewBox="0 0 50.424 50.571" xmlns="http://www.w3.org/2000/svg">
 <path d="m1.8072 27.372 3.6207 0.5427a14.021 14.021 0 0 0 0.3726 2.43l-2.9889 1.9602a0.9477 0.9477 0 0 0-0.5346 1.2879l0.8991 2.2113a0.81 0.81 0 0 0 1.1583 0.3807l3.6369-0.7614 1.1502 1.9602-2.0898 2.8512a0.9639 0.9639 0 0 0 0 1.296l1.7982 1.8306a1.1664 1.1664 0 0 0 1.296 0l2.8593-2.0493c0.648 0.3888 1.4256 0.9072 2.0655 1.3041l-0.81 3.6207a0.891 0.891 0 0 0 0.5022 1.0449l2.2032 0.9153a0.81 0.81 0 0 0 1.1745-0.3726l1.9683-3.24a7.5735 7.5735 0 0 0 2.3247 0.5427l0.4941 3.6288a0.891 0.891 0 0 0 0.8991 0.9153l2.43-0.1215c0.3888 0.1296 0.81-0.2592 0.9072-0.6399l0.6804-3.7584a7.8084 7.8084 0 0 0 2.3328-0.4941l1.9278 3.24a1.2879 1.2879 0 0 0 1.1583 0.3969l2.3409-1.0206a0.8829 0.8829 0 0 0 0.5508-1.0287l-0.891-3.5154a4.5846 4.5846 0 0 0 0.5022-0.3402c0.1053-0.0729 0.2187-0.1539 0.324-0.243 0.3807-0.2835 0.7614-0.5994 1.134-0.81l2.9808 2.2032a0.81 0.81 0 0 0 1.1664-0.1215l1.0854-1.0692 0.6075-0.6075a0.81 0.81 0 0 0 0.1134-1.1421l-2.1627-3.0132a10.635 10.635 0 0 0 1.4499-2.2113l3.6126 1.053a1.1502 1.1502 0 0 0 1.1826-0.6318l0.9153-2.2032a1.1259 1.1259 0 0 0-0.5022-1.296l-3.1023-1.8387c0.2673-0.81 0.2673-1.5552 0.5346-2.3247l3.6288-0.4941a1.1502 1.1502 0 0 0 0.81-1.0368v-2.3085a1.1016 1.1016 0 0 0-0.7695-1.0692l-3.7665-0.4131a14.799 14.799 0 0 0-0.4941-2.6001l3.24-1.9197a0.81 0.81 0 0 0 0.405-1.1664l-0.8991-2.2032a1.2069 1.2069 0 0 0-1.1502-0.6075l-3.645 1.0125c-0.3807-0.648-0.7614-1.3041-1.1502-1.9521l2.2275-2.9646a1.1988 1.1988 0 0 0-0.0972-1.1907l-1.8306-1.8306a0.972 0.972 0 0 0-1.1583-0.1377l-2.997 2.2032c-0.648-0.405-1.4175-0.9234-2.0655-1.3122l0.81-3.6288a0.8667 0.8667 0 0 0-0.5022-1.0368l-2.3247-1.053a1.1178 1.1178 0 0 0-1.1745 0.3807l-1.8468 3.1023c-0.81 0-1.5552-0.2673-2.3328-0.2835l-0.3564-3.7584a1.134 1.134 0 0 0-1.0368-0.81l-2.43-0.1458a1.5147 1.5147 0 0 0-0.9072 0.891l-0.5832 3.6693c-0.9072 0.1215-1.6848 0.3807-2.592 0.4941l-1.782-3.1185a0.8991 0.8991 0 0 0-1.1664-0.3969l-2.2113 0.8991a1.053 1.053 0 0 0-0.6723 1.1583l0.891 3.5073a8.3754 8.3754 0 0 0-1.944 1.4418l-2.997-2.2518a0.8667 0.8667 0 0 0-1.3041 0l-1.5552 1.539-0.1377 0.1296a0.8829 0.8829 0 0 0 0 1.296l2.187 2.997a5.7996 5.7996 0 0 0-1.1097 1.4985l-0.0972 0.1782c-0.081 0.162-0.162 0.3321-0.2349 0.5103l-3.6045-1.0368a0.8829 0.8829 0 0 0-1.0368 0.5022l-1.053 2.3328a1.3203 1.3203 0 0 0 0.3807 1.1745l3.24 1.9602a6.4233 6.4233 0 0 0-0.4131 2.2032l-3.7665 0.6156c-0.3807 0.1377-0.81 0.5184-0.81 0.81v2.592a0.8748 0.8748 0 0 0 0.9072 0.8667z" fill="#fff" stroke="#556a8a" stroke-miterlimit="10" stroke-width="1.8"/>
 <path d="m13.998 20.625a12.15 12.15 0 1 1-0.9396 4.7385 12.004 12.004 0 0 1 0.9396-4.7385z" fill="#2bc7f4" stroke-width=".81"/>
 <path d="m16.492 25.452 6.2775 6.2775 11.542-11.542" fill="none" stroke="#fff" stroke-miterlimit="10" stroke-width="1.8"/>
</svg>
