<svg id="ICONS-64x" xmlns="http://www.w3.org/2000/svg" viewBox="0 0 64 64"><defs><style>.cls-1{fill:#fff}</style></defs><path class="cls-1" d="M32 62.49a30.48 30.48 0 01-21.56-52.05 30.49 30.49 0 1143.12 43.12A30.29 30.29 0 0132 62.49z"/><path d="M10.35 9.93a30.25 30.25 0 0142.78 42.78z" fill="#e5e5e5"/><path d="M32 3a29 29 0 0120.5 49.5 29 29 0 11-41-41A28.8 28.8 0 0132 3m0-2a31 31 0 1021.91 9.08A30.89 30.89 0 0032 1z" fill="#556a8a"/><path fill="#55d2f6" d="M13.62 13.62l12.72 24.04 24.04 12.72L35 28 13.62 13.62z"/><path fill="#2bc7f4" d="M13.62 13.62l36.76 36.76-12.72-24.04-24.04-12.72z"/><path fill="none" d="M0 0h64v64H0z"/><path d="M32 6v7m0 38v7M6 31h7m38 0h7" stroke="#556a8a" stroke-miterlimit="10" stroke-width="2" fill="#fff"/><circle class="cls-1" cx="32" cy="32" r="3"/></svg>