<svg id="a" width="51.84" height="51.84" version="1.1" viewBox="0 0 51.84 51.84" xmlns="http://www.w3.org/2000/svg">
 <defs>
  <style>.cls-1{fill:#fff}</style>
 </defs>
 <g stroke-width=".81">
  <path class="cls-1" d="m25.92 50.617a24.689 24.689 0 0 1-17.464-42.16 24.697 24.697 0 1 1 34.927 34.927 24.535 24.535 0 0 1-17.464 7.2333z"/>
  <path d="m8.3835 8.0433a24.503 24.503 0 0 1 34.652 34.652z" fill="#e5e5e5"/>
  <path d="m25.92 2.43a23.49 23.49 0 0 1 16.605 40.095 23.49 23.49 0 1 1-33.21-33.21 23.328 23.328 0 0 1 16.605-6.885m0-1.62a25.11 25.11 0 1 0 17.747 7.3548 25.021 25.021 0 0 0-17.747-7.3548z" fill="#556a8a"/>
  <path d="m11.032 11.032 10.303 19.472 19.472 10.303-12.458-18.128z" fill="#55d2f6"/>
  <path d="m11.032 11.032 29.776 29.776-10.303-19.472z" fill="#2bc7f4"/>
  <path d="m0 0h51.84v51.84h-51.84z" fill="none"/>
 </g>
 <path d="m25.92 4.86v5.67m0 30.78v5.67m-21.06-21.87h5.67m30.78 0h5.67" fill="#fff" stroke="#556a8a" stroke-miterlimit="10" stroke-width="1.8"/>
 <circle class="cls-1" cx="25.92" cy="25.92" r="2.43" stroke-width=".81"/>
</svg>
