<svg id="ICONS-64x" xmlns="http://www.w3.org/2000/svg" viewBox="0 0 64 64"><defs><style>.cls-1{fill:#556a8a}.cls-3{fill:none;stroke:#556a8a;stroke-miterlimit:10;stroke-width:2px}</style></defs><rect class="cls-1" x="6" y="21.07" width="2" height="25" rx=".5" ry=".5"/><path d="M32 35l-20-8.67v15.4C12 47.3 21.16 52 32 52s20-4.7 20-10.26V26.28z" fill="#fff"/><path class="cls-3" d="M32 35l-20-8.67v15.4C12 47.3 21.16 52 32 52s20-4.7 20-10.26V26.28z"/><path fill="#2bc7f4" d="M51 25.61l-19.19 5.87L13 25.86V33l19 8.04L51 33v-7.39z"/><path fill="#e5e5e5" d="M3 22l29-10.93L60 22 32 34 3 22z"/><path class="cls-3" d="M61 22L32 11.07 3 22l29 12.99L61 22z"/><path class="cls-1" d="M5 47v-4c0-2.2.72-4 1.6-4h.8c.88 0 1.6 1.8 1.6 4v4z"/></svg>