<svg xmlns="http://www.w3.org/2000/svg" viewBox="0 0 64 64"><circle cx="32" cy="55" r="9" fill="#2bc7f4"/><path d="M32 0a5 5 0 105 5 5 5 0 00-5-5zm0 8a3 3 0 113-3 3 3 0 01-3 3z" fill="#556a8a"/><path d="M60 50.38V55H4v-4.62h1a8.34 8.34 0 008-8.43V24.3C13 13.64 20.62 5 30.75 5h2.5C43.38 5 51 13.64 51 24.3v17.65a8.34 8.34 0 008 8.43z" fill="#fff"/><path d="M60 50.42v4.92H33V5h.25C43.38 5 51 13.68 51 24.34V42a8.34 8.34 0 008 8.43z" fill="#e5e5e5"/><path d="M60 50.38V55H4v-4.62h1a8.34 8.34 0 008-8.43V24.3C13 13.64 20.62 5 30.75 5h2.5C43.38 5 51 13.64 51 24.3v17.65a8.34 8.34 0 008 8.43z" fill="none" stroke="#556a8a" stroke-miterlimit="10" stroke-width="2"/></svg>