<svg xmlns="http://www.w3.org/2000/svg" viewBox="0 0 64 64"><path d="M6.91 60.27c-.76.25-1.57.48-2.41.71 5.06-21 15-17.21 15-17.21l1.63 1.54.06.2c.38 1.39 1.73 9.68-14.28 14.76z" fill="#ff9f2b"/><path d="M6.91 60.27c5-17.3 13.45-15 14.31-14.76.35 1.39 1.7 9.68-14.31 14.76z" fill="#ff8c00"/><path d="M22.01 49.48l-7.07-7.07 5.65-1.42 2.66 2.67-1.24 5.82zm1.41-15.67l-19.09-.7-2.83-2.83 16.26-7.78 6.8 2.55-1.14 8.76zm8.08 5.77l.71 19.09 2.83 2.83 7.77-16.26-2.55-6.8-8.76 1.14z" fill="#556a8a"/><path d="M27.69 48h-.21l-.17-.15-10.07-10.51v-.25a41.74 41.74 0 0111.49-20.28C37.87 7.71 59.2 3.89 60.1 3.73l.7-.12-.12.7s-.37 2.22-1.14 5.45c-2.08 8.74-5.8 20.4-11.73 26.36C38.58 45.41 28.54 48 27.69 48z" fill="#fff"/><path d="M59 11c-1.69 7.11-5.36 19.43-11.6 25.7C38.18 46 28.15 47.9 27.63 48L22 42.38s1.79-10.32 11.32-19.8C39.59 16.35 51.88 12.68 59 11z" fill="#e5e5e5"/><path d="M61 3.3a92 92 0 00-18.3 5.45l13.4 13.4A123.08 123.08 0 0061 3.3z" fill="#2bc7f4"/><path d="M27.69 48h-.21l-.17-.15-10.07-10.51v-.25a41.74 41.74 0 0111.49-20.28C37.87 7.71 59.2 3.89 60.1 3.73l.7-.12-.12.7s-.37 2.22-1.14 5.45c-2.08 8.74-5.8 20.4-11.73 26.36C38.58 45.41 28.54 48 27.69 48z" stroke="#556a8a" stroke-miterlimit="10" stroke-width="2" fill="none"/><circle cx="37.5" cy="26.5" r="5" stroke="#556a8a" stroke-miterlimit="10" stroke-width="2" fill="#fff"/></svg>