<svg xmlns="http://www.w3.org/2000/svg" viewBox="0 0 64 64"><path d="M61.31 19.08a12 12 0 00-7.91-5.78c-.31-2-1.4-11.51-11-11.4-5 .06-8.28 3-10.43 6.49-7.44-6.88-16.83-.2-16.45 6.86a11.1 11.1 0 00-13.4 11c0 4.33 2.85 8 6.4 10.15 0 0 .26.16.68.38A10.59 10.59 0 0012.55 38H53.4c5.56-1.13 9.5-7 9.5-12.86a12.19 12.19 0 00-1.59-6.06z" fill="#2bc7f4"/><path fill="none" d="M0 0h64v64H0z"/><path d="M63 59.83a3 3 0 01-5 1.35l-9.72-9.72L45 48.28 43 46c-1.17-1.17-.54-2.21.63-3.38a3 3 0 011.37-.76c1-.27 1.24-.63 2 .14l5.46 5.22 9.73 9.73a3 3 0 01.81 2.88z" fill="#556a8a"/><path d="M33.49 15.5a16 16 0 1016 16 16 16 0 00-16-16zM26 26h15m-15 5h15m-15 5h15" fill="#fff" stroke="#556a8a" stroke-miterlimit="10" stroke-width="2"/></svg>