<svg xmlns="http://www.w3.org/2000/svg" viewBox="0 0 64 64"><defs><style>.cls-1{fill:none;stroke:#556a8a;stroke-miterlimit:10;stroke-width:2px}.cls-2{fill:#e5e5e5}</style></defs><g id="ICONS-64x"><path class="cls-1" d="M3 2h20v61H3zm40 8h17v53H43zM23 2h20v61H23zM3 9h19M3 56h19"/><path class="cls-2" d="M44 16h6v41h-6z"/><path class="cls-1" d="M43 17h17"/><path class="cls-2" d="M4 3h18v5H4zm0 54h18v5H4zm40-46h15v5H44zm0 44h15v7H44zM24 3h7v59h-7zM4 10h6v45H4z"/><path d="M26 7h14v5H26zm0 46h14v5H26z" fill="#2bc7f4"/><path class="cls-1" d="M43 55h17"/></g></svg>