<svg xmlns="http://www.w3.org/2000/svg" viewBox="0 0 64 64"><path d="M60 22H30c0 3.31-8 6-8 6v23a4 4 0 004 4h22.47L57 63v-8h3a4 4 0 004-4V26a4 4 0 00-4-4z" fill="#2bc7f4"/><path d="M9 53v-9H7c-2.48 0-5-2.18-5-4.56V5.84C2 3.44 4.54 2 7 2h46a3.64 3.64 0 014 3.84v33.6C57 41.8 55.5 44 53 44H19z" fill="#fff"/><path d="M56.65 5.58v28.5l-32-32h28.5a3.21 3.21 0 013.5 3.5z" fill="#e5e5e5"/><path d="M9 53v-9H7c-2.48 0-5-2.18-5-4.56V5.84C2 3.44 4.54 2 7 2h46a3.64 3.64 0 014 3.84v33.6C57 41.8 55.5 44 53 44H19.19z" fill="none" stroke="#556a8a" stroke-miterlimit="10" stroke-width="2"/><path d="M26.73 29.45a7.65 7.65 0 01-.37-1.45 10.22 10.22 0 01-.15-1.75 5.48 5.48 0 01.34-2 7.78 7.78 0 01.9-1.69 11.16 11.16 0 011.3-1.53l1.54-1.48q.64-.6 1.24-1.22a8.8 8.8 0 001-1.33 7.22 7.22 0 00.73-1.51 5.26 5.26 0 00.28-1.73 4.67 4.67 0 00-.4-2 4.19 4.19 0 00-1.1-1.45 4.88 4.88 0 00-1.65-.9 6.6 6.6 0 00-2.05-.31 9 9 0 00-3.57.7 10.26 10.26 0 00-3.05 2.05v-3A12.39 12.39 0 0125 7.21a11.81 11.81 0 013.6-.54 10.08 10.08 0 013 .44 7.07 7.07 0 012.44 1.3 6.21 6.21 0 011.63 2.12 6.68 6.68 0 01.6 2.91 7 7 0 01-.27 2.22 8.29 8.29 0 01-.88 1.87 11.71 11.71 0 01-1.24 1.61q-.69.75-1.42 1.44-.92.88-1.62 1.58a11.7 11.7 0 00-1.17 1.34 5.37 5.37 0 00-.72 1.31 4.23 4.23 0 00-.25 1.48 7.28 7.28 0 00.2 1.79 12.07 12.07 0 00.42 1.36zm1.33 8.94a2 2 0 01-.77-.15 1.94 1.94 0 01-.64-.43 2.2 2.2 0 01-.45-.66 1.9 1.9 0 01-.17-.81 2.08 2.08 0 01.16-.83 2 2 0 01.44-.64 2.16 2.16 0 01.66-.43 2 2 0 01.78-.16 2.11 2.11 0 01.78.15 2.07 2.07 0 01.67.43 2.15 2.15 0 01.46.66 2 2 0 01.17.83 1.92 1.92 0 01-.17.81 2.13 2.13 0 01-.46.66 2.05 2.05 0 01-.67.43 2.11 2.11 0 01-.79.14z" fill="#556a8a"/></svg>