<?xml version="1.0" encoding="iso-8859-1"?>
<!-- Uploaded to: SVG Repo, www.svgrepo.com, Generator: SVG Repo Mixer Tools -->
<svg height="800px" width="800px" version="1.1" id="Layer_1" xmlns="http://www.w3.org/2000/svg" xmlns:xlink="http://www.w3.org/1999/xlink" 
	 viewBox="0 0 512 512" xml:space="preserve">
<path style="fill:#A5A5A5;" d="M512,77.914v33.391H0V77.914c0-24.588,19.933-44.522,44.522-44.522h422.957
	C492.066,33.392,512,53.325,512,77.914z"/>
<path style="fill:#777777;" d="M397.913,66.227v1.113c0,4.61-3.738,8.348-8.348,8.348c-4.61,0-8.348-3.738-8.348-8.348v-1.113
	c0-4.61,3.738-8.348,8.348-8.348C394.175,57.879,397.913,61.616,397.913,66.227z M422.957,57.879c-4.61,0-8.348,3.738-8.348,8.348
	v1.113c0,4.61,3.738,8.348,8.348,8.348c4.61,0,8.348-3.738,8.348-8.348v-1.113C431.304,61.616,427.567,57.879,422.957,57.879z
	 M456.348,57.879c-4.61,0-8.348,3.738-8.348,8.348v1.113c0,4.61,3.738,8.348,8.348,8.348s8.348-3.738,8.348-8.348v-1.113
	C464.696,61.616,460.958,57.879,456.348,57.879z"/>
<path style="fill:#E9F2F4;" d="M512,100.174v311.652c0,24.588-19.933,44.522-44.522,44.522H44.522
	C19.933,456.348,0,436.415,0,411.827V100.174h66.783V22.261c0-12.295,9.966-22.261,22.261-22.261h89.043
	c12.295,0,22.261,9.966,22.261,22.261v77.913H512z"/>
<path style="fill:#CFDFE2;" d="M456.348,261.566v122.435c0,12.295-9.966,22.261-22.261,22.261H77.913
	c-12.295,0-22.261-9.966-22.261-22.261V261.566c0-12.295,9.966-22.261,22.261-22.261h356.174
	C446.382,239.305,456.348,249.271,456.348,261.566z M77.913,194.783h100.174c12.295,0,22.261-9.966,22.261-22.261l0,0
	c0-12.295-9.966-22.261-22.261-22.261H77.913c-12.295,0-22.261,9.966-22.261,22.261l0,0
	C55.652,184.817,65.618,194.783,77.913,194.783z M434.087,150.261H256c-12.295,0-22.261,9.966-22.261,22.261l0,0
	c0,12.295,9.966,22.261,22.261,22.261h178.087c12.295,0,22.261-9.966,22.261-22.261l0,0
	C456.348,160.228,446.382,150.261,434.087,150.261z"/>
<path style="fill:#C3E4ED;" d="M200.348,22.261v77.913H66.783V22.261c0-12.295,9.966-22.261,22.261-22.261h89.043
	C190.382,0.001,200.348,9.967,200.348,22.261z"/>
<path style="fill:#B2D1D8;" d="M178.087,38.957v22.261c0,6.147-4.983,11.13-11.13,11.13h-66.783c-6.147,0-11.13-4.983-11.13-11.13
	V38.957c0-6.147,4.983-11.13,11.13-11.13h66.783C173.104,27.827,178.087,32.81,178.087,38.957z"/>
<path style="fill:#A5A5A5;" d="M433.763,448.959L433.763,448.959c-8.035,13.916-25.829,18.685-39.746,10.65l-12.725-7.347
	c-8.067,6.904-17.409,12.359-27.624,15.97v14.672c0,16.069-13.027,29.096-29.096,29.096c-16.069,0-29.096-13.027-29.096-29.096
	v-14.672c-10.214-3.611-19.556-9.066-27.624-15.97l-12.725,7.347c-13.916,8.035-31.712,3.267-39.746-10.65l0,0
	c-8.035-13.916-3.267-31.711,10.65-39.746l12.713-7.339c-0.956-5.173-1.46-10.506-1.46-15.955c0-5.451,0.504-10.782,1.46-15.955
	l-12.713-7.339c-13.916-8.035-18.685-25.829-10.65-39.746l0,0c8.035-13.916,25.829-18.685,39.746-10.65l12.725,7.347
	c8.067-6.904,17.409-12.359,27.624-15.97v-14.672c0-16.069,13.027-29.096,29.096-29.096c16.069,0,29.096,13.027,29.096,29.096
	v14.672c10.214,3.611,19.556,9.066,27.624,15.97l12.725-7.347c13.916-8.035,31.712-3.267,39.746,10.65l0,0
	c8.035,13.916,3.267,31.712-10.65,39.746l-12.713,7.339c0.956,5.173,1.46,10.506,1.46,15.955c0,5.451-0.504,10.782-1.46,15.955
	l12.713,7.339C437.029,417.248,441.797,435.043,433.763,448.959z"/>
<path style="fill:#CCCAC4;" d="M382.763,385.918c0,32.138-26.053,58.192-58.192,58.192c-32.138,0-58.192-26.053-58.192-58.192
	c0-32.138,26.053-58.192,58.192-58.192C356.71,327.726,382.763,353.779,382.763,385.918z"/>
<path style="fill:#FFFFFF;" d="M353.667,385.918c0,16.069-13.027,29.096-29.096,29.096c-16.069,0-29.096-13.027-29.096-29.096
	c0-16.069,13.027-29.096,29.096-29.096C340.64,356.822,353.667,369.849,353.667,385.918z"/>
</svg>