<?xml version="1.0" encoding="utf-8"?>
<!-- Generator: Adobe Illustrator 26.0.1, SVG Export Plug-In . SVG Version: 6.00 Build 0)  -->
<svg version="1.1" id="Layer_1" xmlns="http://www.w3.org/2000/svg" xmlns:xlink="http://www.w3.org/1999/xlink" x="0px" y="0px"
	 viewBox="0 0 1920 1080" style="enable-background:new 0 0 1920 1080;" xml:space="preserve">
<style type="text/css">
	.st0{fill:none;}
	.st1{fill:#0078D4;}
	.st2{stroke:#0078D4;stroke-width:15.2808;stroke-linecap:round;stroke-miterlimit:10;}
	.st3{fill:#FFFFFF;}
	.st4{font-family:'SegoeProDisplay-Semibold';}
	.st5{font-size:42.6527px;}
	.st6{fill-rule:evenodd;clip-rule:evenodd;fill:#0078D4;}
	.st7{fill:#4FE4FF;}
	.st8{fill:none;stroke:#0078D4;stroke-width:9.5377;stroke-miterlimit:10;}
	.st9{fill:none;stroke:#4FE4FF;stroke-width:12.4248;stroke-miterlimit:10;}
	.st10{fill:none;stroke:#0078D4;stroke-width:11.2094;stroke-miterlimit:10;}
</style>
<g>
	<path class="st0" d="M1621.2,546.2c0-66.9-26.1-129.8-73.4-177.1c-45.8-45.8-106.3-71.7-170.9-73.3l-65,64l-10.5-10.7l54.2-53.4
		h-751l-64.8,64.1l-10.5-10.7l54-53.4h-32.1c-66.9,0-129.8,26.1-177.1,73.4s-73.4,110.2-73.4,177.1v43.5c0,64,23.8,124.3,67.3,170.8
		l86.9,2.6l-0.4,15l-70.7-2.1c46.1,41.5,105,64.2,167.5,64.2H980l65.1-61.9l10.3,10.9l-53.7,51h368.9c66.9,0,129.8-26.1,177.1-73.4
		c6.1-6.1,11.9-12.6,17.3-19.2l1.4-96.9l15,0.2l-1.1,75.8c26.5-40.4,40.7-87.6,40.7-137v-43.5H1621.2z"/>
	<path class="st1" d="M980,840.1H551.1c-62.5,0-121.4-22.7-167.5-64.2l-59.6-1.8l-1.8,46.9c29.6,29.3,64,52.3,102.2,68.5
		c40.2,17,82.8,25.6,126.7,25.6h422.4l-34.1-36.4L980,840.1z"/>
	<polygon class="st1" points="604.6,295.7 1355.6,295.7 1394.3,257.5 1358.6,220.7 607.1,220.7 643.1,257.6 	"/>
	<path class="st1" d="M1376.9,295.7c64.6,1.6,125.1,27.4,170.9,73.3c47.3,47.3,73.4,110.2,73.4,177.1v43.5
		c0,49.4-14.2,96.6-40.7,137l-0.8,55.2l52.9,1.2c15.3-20.6,28-42.9,38.1-66.7c17-40.2,25.6-82.8,25.6-126.7v-43.5
		c0-43.9-8.6-86.6-25.6-126.7c-16.4-38.8-39.9-73.6-69.7-103.4c-29.9-29.9-64.7-53.3-103.4-69.7c-37.4-15.8-77-24.4-117.8-25.5
		l35.8,37L1376.9,295.7z"/>
	<path class="st1" d="M367.9,760.4c-43.4-46.5-67.3-106.8-67.3-170.8v-43.5c0-66.9,26.1-129.8,73.4-177.1s110.2-73.4,177.1-73.4
		h32.1l38.7-38.3l-35.7-36.7h-35.1c-43.9,0-86.6,8.6-126.7,25.6c-38.8,16.4-73.6,39.9-103.4,69.7c-29.9,29.9-53.3,64.7-69.7,103.4
		c-17,40.2-25.6,82.8-25.6,126.7v43.5c0,43.9,8.6,86.6,25.6,126.7c13.9,32.9,32.9,62.9,56.6,89.5l1.8-47.1L367.9,760.4z"/>
	<path class="st1" d="M1565.2,747.5c-5.4,6.6-11.2,13.1-17.3,19.2c-47.3,47.3-110.2,73.4-177.1,73.4h-368.9l-41.3,39.2l33.5,35.8
		h376.7c43.9,0,86.6-8.6,126.7-25.6c38.8-16.4,73.6-39.9,103.4-69.7c7.1-7.1,13.7-14.4,20.1-22l-56.5-1.3L1565.2,747.5z"/>
</g>
<path class="st2" d="M1690.8,654h-99.7c-80.5,0-145.8-65.3-145.8-145.8v-20.6c0-80.5,65.3-145.8,145.8-145.8h99.7
	c80.5,0,145.8,65.3,145.8,145.8v20.6C1836.6,588.7,1771.4,654,1690.8,654z"/>
<path class="st2" d="M332.2,654h-99.7C152,654,86.7,588.7,86.7,508.2v-20.6c0-80.5,65.3-145.8,145.8-145.8h99.7
	c80.5,0,145.8,65.3,145.8,145.8v20.6C478,588.7,412.7,654,332.2,654z"/>
<path class="st2" d="M1038,409.6h-99.7c-80.5,0-145.8-65.3-145.8-145.8v-20.6c0-80.5,65.3-145.8,145.8-145.8h99.7
	c80.5,0,145.8,65.3,145.8,145.8v20.6C1183.8,344.3,1118.6,409.6,1038,409.6z"/>
<path class="st2" d="M709.1,1033.7h-99.7c-80.5,0-145.8-65.3-145.8-145.8v-20.6c0-80.5,65.3-145.8,145.8-145.8h99.7
	c80.5,0,145.8,65.3,145.8,145.8v20.6C854.9,968.4,789.6,1033.7,709.1,1033.7z"/>
<text transform="matrix(1 0 0 1 1558.291 419.2528)" class="st3 st4 st5">Integrate</text>
<text transform="matrix(1 0 0 1 194.8809 419.2529)" class="st3 st4 st5">Monitor</text>
<text transform="matrix(1 0 0 1 563.7485 802.2759)" class="st3 st4 st5">Implement</text>
<g>
	<g>
		<g>
			<path class="st6" d="M1752.2,534.2c0-26.5-21.8-47.9-48.6-47.9c-2.5,0-5,0.2-7.6,0.5c-6.4-18.9-24.7-32.8-46.5-32.8
				c-25.9,0-47,19.6-48.8,44.7c-3.4-0.9-7.1-1.4-11-1.4c-23.6,0-43.1,18.9-43.1,42.4c0,21.2,15.8,38.8,36.4,42l2.5,0.2
				c1.4,0.2,118.2,0,118.2,0C1730.7,581.8,1752.2,560.4,1752.2,534.2z"/>
		</g>
	</g>
	<path class="st7" d="M1574,552.9c5.2-5.2,8.4-11.7,9.6-18.4h8.4v10.8l16.5-16.5l-16.5-16.5v10.8h-8.4c-1.1-6.8-4.3-13.4-9.6-18.7
		c-13.4-13.4-35.2-13.4-48.6,0c-13.4,13.4-13.4,35.2,0,48.6C1538.9,566.4,1560.6,566.4,1574,552.9z"/>
	<polyline class="st8" points="1531.8,530.5 1543.7,542.4 1568.1,518.1 	"/>
	<g>
		<line class="st9" x1="1637.2" y1="506" x2="1680.8" y2="506"/>
		<line class="st9" x1="1616.3" y1="506" x2="1628.2" y2="506"/>
		<line class="st9" x1="1637.2" y1="527.9" x2="1680.8" y2="527.9"/>
		<line class="st9" x1="1616.3" y1="527.9" x2="1628.2" y2="527.9"/>
		<line class="st9" x1="1637.2" y1="549.8" x2="1680.8" y2="549.8"/>
		<line class="st9" x1="1616.3" y1="549.8" x2="1628.2" y2="549.8"/>
	</g>
</g>
<g>
	<path class="st2" d="M1333.9,1033.7h-99.7c-80.5,0-145.8-65.3-145.8-145.8v-20.6c0-80.5,65.3-145.8,145.8-145.8h99.7
		c80.5,0,145.8,65.3,145.8,145.8v20.6C1479.7,968.4,1414.4,1033.7,1333.9,1033.7z"/>
	<text transform="matrix(1 0 0 1 1223.418 802.2755)" class="st3 st4 st5">Triage</text>
	<g>
		<g>
			<g>
				<path class="st6" d="M1383.9,914.6c0-25.4-20.9-46-46.6-46c-2.4,0-4.8,0.2-7.3,0.4c-6.2-18.2-23.7-31.5-44.6-31.5
					c-24.8,0-45.1,18.8-46.8,42.9c-3.3-0.9-6.8-1.3-10.5-1.3c-22.6,0-41.3,18.2-41.3,40.7c0,20.4,15.2,37.2,34.9,40.3l2.4,0.2
					c1.3,0.2,113.4,0,113.4,0C1363.2,960.4,1383.9,939.8,1383.9,914.6z"/>
			</g>
		</g>
		<g>
			<line class="st9" x1="1275.7" y1="881.7" x2="1319.2" y2="881.7"/>
			<line class="st9" x1="1254.7" y1="881.7" x2="1266.6" y2="881.7"/>
			<line class="st9" x1="1275.7" y1="903.5" x2="1319.2" y2="903.5"/>
			<line class="st9" x1="1254.7" y1="903.5" x2="1266.6" y2="903.5"/>
			<line class="st9" x1="1275.7" y1="925.4" x2="1319.2" y2="925.4"/>
			<line class="st9" x1="1254.7" y1="925.4" x2="1266.6" y2="925.4"/>
		</g>
		<g>
			<path class="st7" d="M1272,970.8c0.5-0.5,1.1-0.8,1.8-1c1.9-0.4,3.8,0.9,4.2,2.8c0.2,1.2-0.1,2.4-1,3.2c-0.5,0.5-1.1,0.8-1.8,1
				c-1.3,0.3-2.2-0.2-2.7-0.5s-1.3-1-1.5-2.3C1270.8,972.8,1271.2,971.6,1272,970.8 M1264.5,963.2c-3.2,3.2-4.8,8-3.9,12.8
				c1.5,7.7,9,12.7,16.6,11.2c2.8-0.6,5.3-2,7.2-3.9c3.2-3.2,4.8-8,3.9-12.8c-1.5-7.7-9-12.7-16.6-11.2
				C1268.9,959.9,1266.4,961.3,1264.5,963.2L1264.5,963.2z"/>
			<polygon class="st7" points="1266,974.8 1276,964.7 1230.3,918.4 1220.3,928.5 			"/>
			<path class="st7" d="M1204.1,912.3l12.5,12.5l10-10l-12.5-12.5c5.6-2.7,13.8-1.2,18.6,3.7c6.9,6.9,6.9,18.2,0,25.1
				s-18.1,6.9-25,0C1202.9,926.1,1201.3,918.2,1204.1,912.3z"/>
		</g>
	</g>
</g>
<g>
	<g>
		<g>
			<path class="st6" d="M757.8,916.7c0-25.4-20.9-46-46.6-46c-2.4,0-4.8,0.2-7.3,0.4c-6.2-18.2-23.7-31.5-44.6-31.5
				c-24.8,0-45.1,18.8-46.8,42.9c-3.3-0.9-6.8-1.3-10.5-1.3c-22.6,0-41.3,18.2-41.3,40.7c0,20.4,15.2,37.2,34.9,40.3l2.4,0.2
				c1.3,0.2,113.4,0,113.4,0C737.1,962.4,757.8,941.8,757.8,916.7z"/>
		</g>
	</g>
	<g>
		<g>
			<path class="st7" d="M683.3,858.9c-15.9,0-31,9.6-37.3,25.3c-8.2,20.6,1.8,43.9,22.4,52.1c4.9,1.9,9.9,2.9,14.8,2.9
				c15.9,0,31-9.6,37.3-25.3c8.2-20.6-1.8-43.9-22.4-52.1C693.3,859.8,688.2,858.9,683.3,858.9 M683.3,870.3L683.3,870.3
				c3.6,0,7.2,0.7,10.6,2c7.1,2.8,12.7,8.3,15.7,15.3s3.1,14.8,0.3,21.9c-4.4,11-14.8,18-26.6,18c-3.6,0-7.2-0.7-10.6-2.1
				c-7.1-2.8-12.7-8.3-15.7-15.3s-3.1-14.8-0.3-21.9C661,877.4,671.5,870.3,683.3,870.3"/>
		</g>
		
			<rect x="694.9" y="855.3" transform="matrix(0.3704 -0.9289 0.9289 0.3704 -359.2329 1190.7079)" class="st7" width="7.6" height="10.1"/>
		
			<rect x="664.1" y="932.5" transform="matrix(0.3704 -0.9289 0.9289 0.3704 -450.3559 1210.6727)" class="st7" width="7.5" height="10.1"/>
		
			<rect x="716.8" y="910.5" transform="matrix(0.3703 -0.9289 0.9289 0.3703 -394.8011 1246.2961)" class="st7" width="10.1" height="7.6"/>
		
			<rect x="639.6" y="879.7" transform="matrix(0.3704 -0.9289 0.9289 0.3704 -414.7561 1155.0962)" class="st7" width="10.1" height="7.5"/>
		
			<rect x="641.4" y="910.4" transform="matrix(0.9188 -0.3948 0.3948 0.9188 -309.0097 329.0887)" class="st7" width="7.6" height="10.1"/>
		
			<rect x="717.7" y="877.6" transform="matrix(0.9188 -0.3948 0.3948 0.9188 -289.864 356.5474)" class="st7" width="7.6" height="10.1"/>
		
			<rect x="694.6" y="933.5" transform="matrix(0.9188 -0.3948 0.3948 0.9188 -313.1895 352.3577)" class="st7" width="10.1" height="7.6"/>
		
			<rect x="661.9" y="857.1" transform="matrix(0.9188 -0.3947 0.3947 0.9188 -285.6561 333.1405)" class="st7" width="10.1" height="7.6"/>
		<g>
			<path class="st7" d="M631.7,927.8c-0.1,0-0.2,0-0.3,0c-12.7,0.2-22.8,10.6-22.6,23.2c0.2,12.6,10.4,22.6,22.9,22.6
				c0.1,0,0.2,0,0.3,0c12.7-0.2,22.8-10.6,22.6-23.2C654.4,937.9,644.2,927.8,631.7,927.8 M631.7,939.3c6.2,0,11.4,5.1,11.5,11.3
				c0,3.1-1.1,6-3.3,8.1c-2.1,2.2-5,3.4-8.1,3.5h-0.2c-6.2,0-11.4-5.1-11.5-11.3c0-3.1,1.1-6,3.3-8.1c2.1-2.2,5-3.4,8.1-3.5H631.7
				L631.7,939.3z"/>
		</g>
		<polygon class="st7" points="634.1,928.5 628.4,928.6 628.4,923.9 634,923.8 		"/>
		<polygon class="st7" points="629.3,972.6 629.4,977.3 635,977.2 635,972.6 		"/>
		<polygon class="st7" points="658.4,947.8 658.4,953.3 653.7,953.4 653.6,947.8 		"/>
		<polygon class="st7" points="605,947.8 605,953.4 609.8,953.3 609.7,947.8 		"/>
		<polygon class="st7" points="614.1,964.3 618.3,968.4 615.2,971.5 611,967.4 		"/>
		<polygon class="st7" points="648.3,929.8 652.5,933.9 649.4,937 645.2,932.9 		"/>
		<polygon class="st7" points="645.6,968 649.8,963.9 653,966.9 648.8,971.1 		"/>
		<polygon class="st7" points="610.5,934.4 614.7,930.2 617.9,933.3 613.7,937.5 		"/>
		<g>
			<path class="st7" d="M620.2,891.7c-0.1,0-0.1,0-0.2,0c-7.2,0.1-13,6-12.9,13.3c0.1,7.2,5.9,12.9,13.1,12.9c0.1,0,0.1,0,0.2,0
				c7.2-0.1,13-6,12.9-13.3C633.2,897.5,627.4,891.7,620.2,891.7 M620.2,898.3c3.6,0,6.5,2.9,6.5,6.5c0,1.7-0.6,3.4-1.9,4.7
				c-1.2,1.3-2.9,2-4.6,2h-0.1c-3.6,0-6.5-2.9-6.5-6.5c0-1.7,0.6-3.4,1.9-4.7C616.8,899,618.4,898.3,620.2,898.3L620.2,898.3z"/>
		</g>
		<polygon class="st7" points="621.6,892.1 618.4,892.2 618.3,889.5 621.6,889.4 		"/>
		<polygon class="st7" points="622.1,920 618.9,920 618.9,917.3 622.1,917.3 		"/>
		<polygon class="st7" points="635.5,903.1 635.5,906.3 632.8,906.3 632.8,903.1 		"/>
		<polygon class="st7" points="605,903.1 605,906.3 607.7,906.3 607.7,903.1 		"/>
		<polygon class="st7" points="610.2,912.6 612.6,914.9 610.8,916.7 608.4,914.4 		"/>
		<polygon class="st7" points="629.7,892.9 632.1,895.2 630.4,897 627.9,894.6 		"/>
		<polygon class="st7" points="628.2,914.7 630.6,912.3 632.4,914.1 630,916.4 		"/>
		<polygon class="st7" points="608.2,895.5 610.5,893.1 612.3,894.8 610,897.2 		"/>
	</g>
</g>
<g>
	<g>
		<g>
			<path class="st6" d="M328.2,531.5c0-13.3-10.9-24.1-24.4-24.1c-1.3,0-2.5,0.1-3.8,0.2c-3.2-9.5-12.4-16.5-23.4-16.5
				c-13,0-23.6,9.9-24.5,22.5c-1.7-0.5-3.6-0.7-5.5-0.7c-11.9,0-21.6,9.5-21.6,21.3c0,10.7,7.9,19.5,18.3,21.1l1.3,0.1
				c0.7,0.1,59.4,0,59.4,0C317.4,555.5,328.2,544.7,328.2,531.5z"/>
		</g>
	</g>
	<g>
		<g>
			<path class="st1" d="M350.8,581.3H201c-6,0-10.8-4.9-10.8-10.8v-95c0-6,4.9-10.8,10.8-10.8h149.8c6,0,10.8,4.9,10.8,10.8v95
				C361.7,576.4,356.8,581.3,350.8,581.3z M202.8,568.6H349v-91.3H202.8V568.6z"/>
			<path class="st1" d="M357.4,582.7h-165c-7.3,0-13.2-6.4-13.2-14.4h191.4l0,0C370.6,576.2,364.7,582.7,357.4,582.7z"/>
			<g>
				<path d="M290.4,573.8h-29c-5.5,0-10-4.5-10-10l0,0h48.9l0,0C300.3,569.4,295.9,573.8,290.4,573.8z"/>
			</g>
		</g>
		<g>
			<polygon class="st0" points="202.8,568.6 349,568.6 349,477.3 232.6,477.3 202.8,507 			"/>
			<path class="st1" d="M202.8,477.3h29.8l12.7-12.7H201c-6,0-10.8,4.9-10.8,10.8v44.3l12.7-12.7L202.8,477.3L202.8,477.3z"/>
		</g>
	</g>
	<line class="st9" x1="248.2" y1="541.4" x2="248.2" y2="506.5"/>
	<line class="st9" x1="267.4" y1="541.4" x2="267.4" y2="519.7"/>
	<line class="st9" x1="285.8" y1="541.4" x2="285.8" y2="506.5"/>
	<line class="st9" x1="304.3" y1="541.4" x2="304.3" y2="491.2"/>
</g>
<g>
	<g>
		<g>
			<path class="st1" d="M1078.2,334.9H902.7c-7,0-12.7-5.7-12.7-12.7V210.9c0-7,5.7-12.7,12.7-12.7h175.5c7,0,12.7,5.7,12.7,12.7
				v111.3C1090.9,329.2,1085.2,334.9,1078.2,334.9z M904.9,320H1076V213.1H904.9V320z"/>
			<path class="st1" d="M1085.8,336.5H892.7c-8.6,0-15.5-7.5-15.5-16.8h224.2l0,0C1101.3,329,1094.4,336.5,1085.8,336.5z"/>
			<g>
				<path d="M1009.1,326.1h-37.3c-5.5,0-10-4.5-10-10v-1.7h57.2v1.7C1019.1,321.7,1014.6,326.1,1009.1,326.1z"/>
			</g>
		</g>
		<g>
			<polygon class="st0" points="904.9,320 1076,320 1076,213.1 939.7,213.1 904.9,247.9 			"/>
			<path class="st1" d="M904.9,213.1h34.8l14.9-14.9h-51.9c-7,0-12.7,5.7-12.7,12.7v51.9l14.9-14.9V213.1z"/>
		</g>
	</g>
	<g>
		<circle class="st7" cx="993.1" cy="268.8" r="40.4"/>
		<polyline class="st10" points="971.9,268.3 985.9,282.3 1014.5,253.7 		"/>
	</g>
</g>
<text transform="matrix(1 0 0 1 935.5527 164.2623)" class="st3 st4 st5">Assess</text>
</svg>
