<?xml version="1.0" encoding="utf-8"?>
<!-- Generator: Adobe Illustrator 27.8.1, SVG Export Plug-In . SVG Version: 6.00 Build 0)  -->
<svg version="1.1" xmlns="http://www.w3.org/2000/svg" xmlns:xlink="http://www.w3.org/1999/xlink" x="0px" y="0px" width="32px"
	 height="32px" viewBox="0 0 32 32" enable-background="new 0 0 32 32" xml:space="preserve">
<g id="Icon_art">
</g>
<g id="Layer_1">
	<g>
		<defs>
			<rect id="SVGID_00000109709996031712675630000009873555380340201901_" x="0.2598" y="0" width="32" height="32"/>
		</defs>
		<clipPath id="SVGID_00000147925829537498394380000014637831030213791920_">
			<use xlink:href="#SVGID_00000109709996031712675630000009873555380340201901_"  overflow="visible"/>
		</clipPath>
		<g clip-path="url(#SVGID_00000147925829537498394380000014637831030213791920_)">
			<g>
				
					<linearGradient id="SVGID_1_" gradientUnits="userSpaceOnUse" x1="16.2592" y1="1880.816" x2="16.2592" y2="1904.6877" gradientTransform="matrix(1 0 0 -1 0 1908.2914)">
					<stop  offset="0" style="stop-color:#B94A2B"/>
					<stop  offset="1" style="stop-color:#FF5C39"/>
				</linearGradient>
				<path fill-rule="evenodd" clip-rule="evenodd" fill="url(#SVGID_1_)" d="M30.406,24.3725L17.6601,4.3085
					c-0.6895-0.9339-1.8655-0.9522-2.5444,0.0195L2.134,24.364c-0.9895,1.3266-0.3543,3.0959,1.2484,3.0834l25.7276,0.028
					C30.7122,27.4635,31.3732,25.7212,30.406,24.3725z"/>
				<path fill="#FF9176" d="M29.1102,27.504L3.3824,27.476C3.3768,27.476,3.3712,27.476,3.3656,27.476
					c-0.6865,0.0001-1.2456-0.3275-1.5359-0.9004c-0.3444-0.68-0.2366-1.534,0.2815-2.2287L15.0917,4.3125
					c0.3279-0.4693,0.7802-0.7309,1.2746-0.7373c0.4932-0.0059,0.976,0.2547,1.3169,0.7163l12.7465,20.065
					c0.4992,0.6965,0.5968,1.5471,0.2544,2.2199C30.3868,27.1607,29.8131,27.4988,29.1102,27.504z M3.3822,27.4188l25.7278,0.028
					c0.6807-0.0051,1.2359-0.3318,1.5231-0.8963c0.3327-0.654,0.2368-1.4821-0.2503-2.1614l-0.0009-0.0013L17.636,4.3239
					c-0.3288-0.4451-0.7894-0.6992-1.2691-0.6915c-0.4753,0.0062-0.9114,0.259-1.2278,0.712L2.158,24.3795
					c-0.5061,0.6787-0.6119,1.5097-0.2773,2.1703c0.2801,0.553,0.8209,0.8691,1.4853,0.8691
					C3.3714,27.4189,3.3767,27.4189,3.3822,27.4188z"/>
			</g>
			<g>
				<path fill-rule="evenodd" clip-rule="evenodd" fill="#FFFFFF" d="M16.07,23.9425c-0.2546,0-0.4723-0.0886-0.6518-0.2677
					c-0.1801-0.1784-0.271-0.3958-0.271-0.6522c0-0.2565,0.0909-0.4756,0.271-0.6564c0.1801-0.1808,0.3978-0.2718,0.6518-0.2718
					c0.2481,0,0.4652,0.0904,0.6477,0.2718c0.1836,0.1814,0.2751,0.4005,0.2751,0.6564c0,0.257-0.0915,0.4744-0.2751,0.6522
					C16.5352,23.8539,16.3182,23.9425,16.07,23.9425z M16.7682,11.5979l-0.159,8.617h-1.1217l-0.1491-8.617H16.7682z"/>
				<path fill="#FFFFFF" d="M16.07,23.9996c-0.2702,0-0.503-0.0957-0.6922-0.2844c-0.1908-0.1891-0.2877-0.4222-0.2877-0.6926
					c0-0.2708,0.0968-0.5052,0.2876-0.6968c0.1908-0.1915,0.4238-0.2886,0.6923-0.2886c0.264,0,0.4954,0.097,0.6879,0.2884
					c0.1936,0.1914,0.292,0.4259,0.292,0.6969c0,0.272-0.0984,0.5052-0.2925,0.6932C16.5657,23.904,16.3343,23.9996,16.07,23.9996z
					 M16.07,22.1515c-0.2371,0-0.4427,0.0858-0.6113,0.255c-0.1687,0.1694-0.2544,0.3767-0.2544,0.6161
					c0,0.2388,0.0855,0.4446,0.254,0.6116c0.1671,0.1667,0.3728,0.2512,0.6116,0.2512c0.2333,0,0.4377-0.0845,0.6076-0.2513
					c0.1738-0.1682,0.258-0.3681,0.258-0.6114c0-0.2393-0.0868-0.4465-0.2581-0.6158C16.5071,22.2374,16.3027,22.1515,16.07,22.1515
					z M16.6653,20.2721h-1.2339l-0.1511-8.7312h1.5462l-0.0011,0.0582L16.6653,20.2721z M15.5437,20.1578h1.0094l0.1569-8.5027
					h-1.3134L15.5437,20.1578z"/>
			</g>
		</g>
	</g>
</g>
</svg>
