<?xml version="1.0" encoding="utf-8"?>
<!-- Generator: Adobe Illustrator 27.8.1, SVG Export Plug-In . SVG Version: 6.00 Build 0)  -->
<svg version="1.1" xmlns="http://www.w3.org/2000/svg" xmlns:xlink="http://www.w3.org/1999/xlink" x="0px" y="0px" width="32px"
	 height="32px" viewBox="0 0 32 32" enable-background="new 0 0 32 32" xml:space="preserve">
<g id="Icon_art">
</g>
<g id="Layer_1">
	<g>
		<defs>
			<rect id="SVGID_00000148660655603641223120000011570339566620129718_" width="32" height="32"/>
		</defs>
		<clipPath id="SVGID_00000003796378682001075060000000523912915002234249_">
			<use xlink:href="#SVGID_00000148660655603641223120000011570339566620129718_"  overflow="visible"/>
		</clipPath>
		<g clip-path="url(#SVGID_00000003796378682001075060000000523912915002234249_)">
			
				<linearGradient id="SVGID_1_" gradientUnits="userSpaceOnUse" x1="16.581" y1="1881.0496" x2="16.6941" y2="1909.423" gradientTransform="matrix(1 0 0 -1 0 1910.5575)">
				<stop  offset="0" style="stop-color:#46A0DE"/>
				<stop  offset="1" style="stop-color:#0078D4"/>
			</linearGradient>
			<path fill="url(#SVGID_1_)" d="M17.2158,1.2507l8.4591,0.1123c0.0948,0.0009,0.1885,0.0206,0.2757,0.0579
				c0.0872,0.0373,0.1661,0.0915,0.2323,0.1594c0.0662,0.0679,0.1183,0.1483,0.1532,0.2365
				c0.035,0.0881,0.0521,0.1823,0.0505,0.2772l-0.1127,8.4919c-0.0002,0.0649-0.0199,0.1283-0.0564,0.1819
				c-0.0365,0.0536-0.0883,0.0951-0.1486,0.1189c-0.0603,0.0239-0.1265,0.0292-0.1898,0.0152
				c-0.0634-0.0141-0.1211-0.0467-0.1657-0.0939l-2.572-2.6412c-0.0266-0.0319-0.0596-0.0581-0.0969-0.0766
				c-0.0372-0.0186-0.0779-0.0293-0.1195-0.0314c-0.0415-0.0021-0.0831,0.0045-0.122,0.0192
				c-0.0389,0.0148-0.0743,0.0374-0.1041,0.0665L10.181,20.3345c-0.0485,0.0472-0.1137,0.0732-0.1813,0.0723
				c-0.0676-0.0009-0.1321-0.0287-0.1793-0.0771l-2.8146-2.8903c-0.0472-0.0485-0.0732-0.1137-0.0723-0.1813
				c0.0009-0.0676,0.0287-0.1321,0.0771-0.1793L19.4621,4.9533c0.0419-0.0153,0.0799-0.0398,0.1113-0.0716
				c0.0313-0.0318,0.0552-0.0702,0.0699-0.1124s0.0198-0.0871,0.015-0.1315c-0.0047-0.0444-0.0193-0.0872-0.0427-0.1252
				l-2.6529-2.7242c-0.0413-0.0475-0.068-0.106-0.0767-0.1685c-0.0087-0.0624,0.001-0.126,0.0278-0.183
				c0.0269-0.057,0.0697-0.105,0.1233-0.1381C17.0907,1.2658,17.1528,1.2491,17.2158,1.2507z"/>
			<path fill="#8DE971" d="M10.0029,20.4355c-0.0012,0-0.0023,0-0.0036,0c-0.0758-0.0011-0.1467-0.0315-0.1994-0.0858
				l-2.8146-2.8903c-0.0529-0.0543-0.0815-0.1259-0.0805-0.2017c0.001-0.0746,0.0323-0.1473,0.0857-0.1994L19.4467,4.9286
				l0.0057-0.0021c0.0377-0.0138,0.0725-0.0363,0.1006-0.0648c0.0283-0.0287,0.0502-0.0639,0.0633-0.1017
				c0.0133-0.0379,0.018-0.0791,0.0136-0.119c-0.0042-0.0401-0.0176-0.0793-0.0386-0.1133l-2.649-2.7193
				c-0.0462-0.053-0.0751-0.1164-0.0846-0.1844c-0.0095-0.068,0.001-0.1368,0.0302-0.1991
				c0.0295-0.0623,0.0759-0.1143,0.1343-0.1502c0.0584-0.0361,0.1281-0.0542,0.1941-0.0525l8.459,0.1123
				c0.099,0.0009,0.1954,0.0211,0.2866,0.0602s0.1724,0.0948,0.2414,0.1657c0.0693,0.0711,0.1229,0.1539,0.1594,0.2459
				c0.0365,0.0918,0.0542,0.1888,0.0526,0.2881l-0.1127,8.4919c-0.0002,0.0705-0.0214,0.139-0.0613,0.1975
				c-0.04,0.0585-0.0959,0.1033-0.1618,0.1294c-0.0656,0.0261-0.1372,0.0318-0.2064,0.0166
				c-0.0693-0.0155-0.1317-0.0508-0.1804-0.1022L23.121,8.1866c-0.0257-0.0307-0.0552-0.054-0.0892-0.071
				c-0.0338-0.0169-0.0702-0.0265-0.1081-0.0284c-0.0376-0.0017-0.075,0.004-0.1104,0.0174
				c-0.0355,0.0135-0.0673,0.0338-0.0943,0.0602L10.201,20.355C10.1475,20.407,10.0773,20.4355,10.0029,20.4355z M19.4778,4.9779
				L7.0305,17.0992c-0.0427,0.0416-0.0677,0.0997-0.0685,0.1593c-0.0008,0.0605,0.022,0.1177,0.0642,0.161l2.8146,2.8903
				c0.0423,0.0434,0.0988,0.0677,0.1594,0.0685c0.0009,0,0.0019,0,0.0028,0c0.0594,0,0.1155-0.0228,0.1583-0.0643L22.679,8.1239
				c0.0327-0.0319,0.071-0.0564,0.114-0.0727s0.0879-0.0233,0.1336-0.021c0.0459,0.0023,0.0898,0.0139,0.1307,0.0343
				c0.0412,0.0205,0.0768,0.0487,0.1061,0.0839l2.5704,2.6395c0.0412,0.0434,0.0934,0.073,0.1516,0.0859
				c0.0581,0.0128,0.1179,0.008,0.173-0.0139c0.0552-0.0219,0.1021-0.0594,0.1355-0.1084c0.0335-0.0491,0.0512-0.1065,0.0515-0.1659
				l0.1127-8.4922c0.0016-0.0919-0.0148-0.1814-0.0485-0.2662c-0.0337-0.085-0.0831-0.1614-0.1471-0.2271
				c-0.0638-0.0655-0.1388-0.117-0.2231-0.153c-0.0842-0.036-0.1732-0.0547-0.2646-0.0556L17.215,1.2793
				c-0.0595-0.0013-0.114,0.0138-0.1628,0.044c-0.049,0.0301-0.0879,0.0737-0.1125,0.1259
				c-0.0246,0.0522-0.0334,0.1099-0.0253,0.1669c0.0079,0.0571,0.0321,0.1102,0.0699,0.1537l2.6518,2.723
				c0.0292,0.0461,0.0455,0.0936,0.0508,0.1421c0.0051,0.0483-0.0006,0.0981-0.0165,0.144
				c-0.0158,0.0457-0.0423,0.0883-0.0766,0.123C19.5613,4.9348,19.5213,4.9611,19.4778,4.9779z"/>
		</g>
		<g clip-path="url(#SVGID_00000003796378682001075060000000523912915002234249_)">
			
				<linearGradient id="SVGID_00000152951249500350804330000000192768614241775545_" gradientUnits="userSpaceOnUse" x1="15.6669" y1="1881.5648" x2="16.2321" y2="1909.1469" gradientTransform="matrix(1 0 0 -1 0 1910.5575)">
				<stop  offset="0" style="stop-color:#238CD9"/>
				<stop  offset="1" style="stop-color:#69B4E3"/>
			</linearGradient>
			<path fill="url(#SVGID_00000152951249500350804330000000192768614241775545_)" d="M15.2816,30.596l-8.4591-0.1123
				c-0.0949-0.0009-0.1885-0.0205-0.2757-0.0579c-0.0872-0.0373-0.1661-0.0915-0.2323-0.1594
				c-0.0662-0.0679-0.1182-0.1483-0.1532-0.2364c-0.035-0.0882-0.0521-0.1824-0.0505-0.2772l0.1127-8.4919
				c0.0002-0.0649,0.0198-0.1283,0.0564-0.1819c0.0365-0.0536,0.0883-0.0951,0.1486-0.1189
				c0.0603-0.0239,0.1264-0.0292,0.1898-0.0152c0.0633,0.0141,0.1211,0.0467,0.1657,0.0939l2.572,2.6412
				c0.0266,0.0319,0.0596,0.0581,0.0968,0.0766c0.0373,0.0186,0.0779,0.0293,0.1195,0.0314
				c0.0416,0.0021,0.0831-0.0045,0.1221-0.0192c0.0389-0.0148,0.0743-0.0374,0.1041-0.0665l12.5181-12.1901
				c0.0485-0.0472,0.1137-0.0732,0.1813-0.0723c0.0676,0.0009,0.1321,0.0287,0.1793,0.0771l2.8146,2.8904
				c0.0472,0.0484,0.0732,0.1137,0.0723,0.1813c-0.0009,0.0677-0.0287,0.1322-0.0771,0.1793L13.0353,26.8933
				c-0.0419,0.0153-0.0799,0.0398-0.1113,0.0716c-0.0313,0.0319-0.0552,0.0702-0.0699,0.1124
				c-0.0147,0.0421-0.0198,0.0871-0.015,0.1315c0.0047,0.0444,0.0193,0.0871,0.0427,0.1252l2.6529,2.7243
				c0.0413,0.0475,0.068,0.106,0.0767,0.1684c0.0087,0.0625-0.001,0.126-0.0278,0.1831c-0.0269,0.057-0.0697,0.1049-0.1233,0.138
				C15.4067,30.5809,15.3446,30.5976,15.2816,30.596z"/>
			<path fill="#8DE971" d="M15.2898,30.6247c-0.0029,0-0.0058-0.0001-0.0088-0.0001l-8.4587-0.1123
				c-0.0992-0.0009-0.1956-0.0212-0.2867-0.0602c-0.091-0.0389-0.1722-0.0947-0.2414-0.1658
				c-0.0693-0.071-0.1229-0.1537-0.1594-0.2458c-0.0365-0.0922-0.0542-0.1891-0.0526-0.2882l0.1127-8.4919
				c0.0002-0.0705,0.0214-0.139,0.0613-0.1975c0.0401-0.0586,0.096-0.1033,0.1618-0.1294c0.0658-0.0262,0.1374-0.0317,0.2065-0.0165
				c0.0692,0.0154,0.1316,0.0507,0.1802,0.1021l2.5717,2.6409c0.0254,0.0304,0.0557,0.0544,0.0891,0.071
				c0.0339,0.0169,0.0703,0.0265,0.1083,0.0284c0.0382,0.0016,0.0756-0.0042,0.1104-0.0174
				c0.0355-0.0134,0.0672-0.0337,0.0943-0.0602l12.5181-12.1902c0.0542-0.0528,0.1254-0.08,0.2016-0.0804
				c0.0758,0.001,0.1465,0.0314,0.1994,0.0857l2.8146,2.8904c0.0521,0.0533,0.0815,0.1268,0.0805,0.2016
				c-0.001,0.0757-0.0315,0.1466-0.0857,0.1994l-12.456,12.1297l-0.0057,0.0021c-0.0382,0.014-0.0721,0.0358-0.1008,0.0648
				c-0.0282,0.0287-0.0501,0.0639-0.0632,0.1017c-0.0133,0.0379-0.018,0.0791-0.0136,0.119
				c0.0042,0.0399,0.0176,0.0791,0.0386,0.1133l2.649,2.7193c0.0461,0.0529,0.075,0.1162,0.0846,0.1843
				c0.0095,0.0684-0.001,0.1372-0.0302,0.1993c-0.0292,0.0621-0.0757,0.1141-0.1343,0.1502
				C15.4196,30.6066,15.3556,30.6247,15.2898,30.6247z M6.548,20.9658c-0.0372,0-0.074,0.007-0.109,0.0209
				c-0.0551,0.0219-0.102,0.0594-0.1356,0.1085C6.27,21.1442,6.2523,21.2016,6.252,21.261l-0.1127,8.4922
				c-0.0016,0.0916,0.0148,0.1811,0.0485,0.2662c0.0337,0.085,0.0831,0.1614,0.1471,0.227c0.064,0.0656,0.139,0.1171,0.2231,0.1531
				c0.084,0.036,0.1731,0.0547,0.2647,0.0556l8.4595,0.1123c0.061,0.0023,0.1142-0.0138,0.1629-0.044
				c0.0492-0.0303,0.0881-0.0738,0.1125-0.1259c0.0246-0.0521,0.0334-0.1098,0.0254-0.167c-0.008-0.057-0.0323-0.1102-0.07-0.1535
				l-2.6518-2.7231c-0.0294-0.0464-0.0455-0.0939-0.0508-0.1421c-0.0051-0.0483,0.0006-0.0982,0.0165-0.144
				c0.0158-0.0457,0.0423-0.0883,0.0766-0.123c0.0326-0.0331,0.0727-0.0594,0.116-0.0762l12.4472-12.1213
				c0.0434-0.0422,0.0677-0.0988,0.0685-0.1593c0.0008-0.0597-0.0227-0.1183-0.0642-0.1609l-2.8146-2.8905
				c-0.0423-0.0433-0.0989-0.0676-0.1593-0.0684c-0.0011,0-0.0021,0-0.0031,0c-0.0594,0-0.1153,0.0227-0.1578,0.0642L9.8183,23.7227
				c-0.0328,0.032-0.0711,0.0565-0.114,0.0728c-0.0423,0.016-0.0891,0.0231-0.1336,0.021
				c-0.0459-0.0023-0.0898-0.0139-0.1308-0.0343c-0.0404-0.0201-0.0771-0.0492-0.106-0.0839l-2.5704-2.6396
				c-0.0412-0.0434-0.0934-0.073-0.1515-0.0859C6.5909,20.9682,6.5694,20.9658,6.548,20.9658z"/>
		</g>
	</g>
</g>
</svg>
