<svg width="1600" height="330" viewBox="0 0 1600 330" fill="none" xmlns="http://www.w3.org/2000/svg">
<rect x="0.5" y="0.5" width="1599" height="329" fill="#EDEDED" stroke="#C8C8C8"/>
<circle cx="642.5" cy="105.5" r="23.5" fill="#112881"/>
<circle cx="747.5" cy="105.5" r="23.5" fill="#0078D4"/>
<rect x="827" y="81" width="49" height="50" fill="#112881"/>
<rect x="930" y="81" width="50" height="50" fill="#0078D4"/>
<path d="M643 172L672.445 223H613.555L643 172Z" fill="#112881"/>
<path d="M747 172L776.445 223H717.555L747 172Z" fill="#0078D4"/>
<path d="M851.5 171L859.246 194.839H884.311L864.033 209.572L871.779 233.411L851.5 218.678L831.221 233.411L838.967 209.572L818.689 194.839H843.754L851.5 171Z" fill="#112881"/>
<path d="M954.5 171L962.246 194.839H987.311L967.033 209.572L974.779 233.411L954.5 218.678L934.221 233.411L941.967 209.572L921.689 194.839H946.754L954.5 171Z" fill="#0078D4"/>
</svg>
