<svg width="1600" height="330" viewBox="0 0 1600 330" fill="none" xmlns="http://www.w3.org/2000/svg">
<rect x="0.5" y="0.5" width="1599" height="329" fill="#EDEDED" stroke="#C8C8C8"/>
<rect x="531" y="62" width="204" height="77" rx="4" fill="white"/>
<path d="M578.859 106.49V104.75C579.059 104.926 579.296 105.084 579.571 105.225C579.853 105.365 580.146 105.485 580.45 105.585C580.761 105.679 581.071 105.752 581.382 105.805C581.692 105.857 581.979 105.884 582.243 105.884C583.151 105.884 583.828 105.717 584.273 105.383C584.725 105.043 584.95 104.557 584.95 103.924C584.95 103.584 584.874 103.288 584.722 103.036C584.575 102.784 584.37 102.556 584.106 102.351C583.843 102.14 583.529 101.94 583.166 101.753C582.809 101.56 582.422 101.357 582.006 101.146C581.566 100.924 581.156 100.698 580.775 100.47C580.395 100.241 580.063 99.9893 579.782 99.7139C579.501 99.4385 579.278 99.1279 579.114 98.7822C578.956 98.4307 578.877 98.0205 578.877 97.5518C578.877 96.9775 579.003 96.4795 579.255 96.0576C579.507 95.6299 579.838 95.2783 580.248 95.0029C580.658 94.7275 581.124 94.5225 581.646 94.3877C582.173 94.2529 582.709 94.1855 583.254 94.1855C584.496 94.1855 585.401 94.335 585.97 94.6338V96.2949C585.226 95.7793 584.271 95.5215 583.104 95.5215C582.782 95.5215 582.46 95.5566 582.138 95.627C581.815 95.6914 581.528 95.7998 581.276 95.9521C581.024 96.1045 580.819 96.3008 580.661 96.541C580.503 96.7812 580.424 97.0742 580.424 97.4199C580.424 97.7422 580.482 98.0205 580.6 98.2549C580.723 98.4893 580.901 98.7031 581.136 98.8965C581.37 99.0898 581.654 99.2773 581.988 99.459C582.328 99.6406 582.718 99.8398 583.157 100.057C583.608 100.279 584.036 100.514 584.44 100.76C584.845 101.006 585.199 101.278 585.504 101.577C585.809 101.876 586.049 102.207 586.225 102.57C586.406 102.934 586.497 103.35 586.497 103.818C586.497 104.439 586.374 104.967 586.128 105.4C585.888 105.828 585.56 106.177 585.144 106.446C584.733 106.716 584.259 106.909 583.72 107.026C583.181 107.149 582.612 107.211 582.015 107.211C581.815 107.211 581.569 107.193 581.276 107.158C580.983 107.129 580.685 107.082 580.38 107.018C580.075 106.959 579.785 106.886 579.51 106.798C579.24 106.704 579.023 106.602 578.859 106.49ZM595.453 98L591.313 108.441C590.575 110.305 589.538 111.236 588.202 111.236C587.827 111.236 587.514 111.198 587.262 111.122V109.83C587.572 109.936 587.856 109.988 588.114 109.988C588.841 109.988 589.386 109.555 589.749 108.688L590.47 106.982L586.954 98H588.554L590.988 104.926C591.018 105.014 591.079 105.242 591.173 105.611H591.226C591.255 105.471 591.313 105.248 591.401 104.943L593.959 98H595.453ZM596.464 106.675V105.128C597.249 105.708 598.113 105.998 599.057 105.998C600.322 105.998 600.955 105.576 600.955 104.732C600.955 104.492 600.899 104.29 600.788 104.126C600.683 103.956 600.536 103.807 600.349 103.678C600.167 103.549 599.95 103.435 599.698 103.335C599.452 103.229 599.186 103.121 598.898 103.01C598.5 102.852 598.148 102.693 597.844 102.535C597.545 102.371 597.293 102.189 597.088 101.99C596.889 101.785 596.736 101.554 596.631 101.296C596.531 101.038 596.481 100.736 596.481 100.391C596.481 99.9688 596.578 99.5967 596.771 99.2744C596.965 98.9463 597.223 98.6738 597.545 98.457C597.867 98.2344 598.233 98.0674 598.644 97.9561C599.06 97.8447 599.487 97.7891 599.927 97.7891C600.706 97.7891 601.403 97.9238 602.019 98.1934V99.6523C601.356 99.2188 600.595 99.002 599.733 99.002C599.464 99.002 599.221 99.0342 599.004 99.0986C598.787 99.1572 598.6 99.2422 598.441 99.3535C598.289 99.4648 598.169 99.5996 598.081 99.7578C597.999 99.9102 597.958 100.08 597.958 100.268C597.958 100.502 597.999 100.698 598.081 100.856C598.169 101.015 598.295 101.155 598.459 101.278C598.623 101.401 598.822 101.513 599.057 101.612C599.291 101.712 599.558 101.82 599.856 101.938C600.255 102.09 600.612 102.248 600.929 102.412C601.245 102.57 601.515 102.752 601.737 102.957C601.96 103.156 602.13 103.388 602.247 103.651C602.37 103.915 602.432 104.229 602.432 104.592C602.432 105.037 602.332 105.424 602.133 105.752C601.939 106.08 601.679 106.353 601.351 106.569C601.022 106.786 600.645 106.947 600.217 107.053C599.789 107.158 599.341 107.211 598.872 107.211C597.946 107.211 597.144 107.032 596.464 106.675ZM608.83 106.912C608.49 107.1 608.042 107.193 607.485 107.193C605.909 107.193 605.121 106.314 605.121 104.557V99.2305H603.574V98H605.121V95.8027L606.562 95.3369V98H608.83V99.2305H606.562V104.302C606.562 104.905 606.665 105.336 606.87 105.594C607.075 105.852 607.415 105.98 607.89 105.98C608.253 105.98 608.566 105.881 608.83 105.682V106.912ZM617.988 102.86H611.634C611.657 103.862 611.927 104.636 612.442 105.181C612.958 105.726 613.667 105.998 614.569 105.998C615.583 105.998 616.515 105.664 617.364 104.996V106.35C616.573 106.924 615.527 107.211 614.227 107.211C612.955 107.211 611.956 106.804 611.229 105.989C610.503 105.169 610.14 104.018 610.14 102.535C610.14 101.135 610.535 99.9951 611.326 99.1162C612.123 98.2314 613.11 97.7891 614.288 97.7891C615.466 97.7891 616.377 98.1699 617.021 98.9316C617.666 99.6934 617.988 100.751 617.988 102.104V102.86ZM616.512 101.639C616.506 100.807 616.304 100.159 615.905 99.6963C615.513 99.2334 614.965 99.002 614.262 99.002C613.582 99.002 613.005 99.2451 612.53 99.7314C612.056 100.218 611.763 100.854 611.651 101.639H616.512ZM632.956 107H631.515V101.832C631.515 100.836 631.359 100.115 631.049 99.6699C630.744 99.2246 630.229 99.002 629.502 99.002C628.887 99.002 628.362 99.2832 627.929 99.8457C627.501 100.408 627.287 101.082 627.287 101.867V107H625.846V101.656C625.846 99.8867 625.163 99.002 623.798 99.002C623.165 99.002 622.644 99.2686 622.233 99.8018C621.823 100.329 621.618 101.018 621.618 101.867V107H620.177V98H621.618V99.4238H621.653C622.292 98.334 623.224 97.7891 624.448 97.7891C625.063 97.7891 625.6 97.9619 626.057 98.3076C626.514 98.6475 626.827 99.0957 626.997 99.6523C627.665 98.4102 628.661 97.7891 629.985 97.7891C631.966 97.7891 632.956 99.0107 632.956 101.454V107ZM641.358 95.7148C641.101 95.7148 640.881 95.627 640.699 95.4512C640.518 95.2754 640.427 95.0527 640.427 94.7832C640.427 94.5137 640.518 94.291 640.699 94.1152C640.881 93.9336 641.101 93.8428 641.358 93.8428C641.622 93.8428 641.845 93.9336 642.026 94.1152C642.214 94.291 642.308 94.5137 642.308 94.7832C642.308 95.041 642.214 95.2607 642.026 95.4424C641.845 95.624 641.622 95.7148 641.358 95.7148ZM642.062 107H640.62V98H642.062V107ZM657.759 107H656.317V101.832C656.317 100.836 656.162 100.115 655.852 99.6699C655.547 99.2246 655.031 99.002 654.305 99.002C653.689 99.002 653.165 99.2832 652.731 99.8457C652.304 100.408 652.09 101.082 652.09 101.867V107H650.648V101.656C650.648 99.8867 649.966 99.002 648.601 99.002C647.968 99.002 647.446 99.2686 647.036 99.8018C646.626 100.329 646.421 101.018 646.421 101.867V107H644.979V98H646.421V99.4238H646.456C647.095 98.334 648.026 97.7891 649.251 97.7891C649.866 97.7891 650.402 97.9619 650.859 98.3076C651.316 98.6475 651.63 99.0957 651.8 99.6523C652.468 98.4102 653.464 97.7891 654.788 97.7891C656.769 97.7891 657.759 99.0107 657.759 101.454V107ZM666.926 107H665.484V105.594H665.449C664.822 106.672 663.899 107.211 662.681 107.211C661.784 107.211 661.081 106.974 660.571 106.499C660.067 106.024 659.815 105.395 659.815 104.609C659.815 102.928 660.806 101.949 662.786 101.674L665.484 101.296C665.484 99.7666 664.866 99.002 663.63 99.002C662.546 99.002 661.567 99.3711 660.694 100.109V98.6328C661.579 98.0703 662.599 97.7891 663.753 97.7891C665.868 97.7891 666.926 98.9082 666.926 101.146V107ZM665.484 102.447L663.313 102.746C662.646 102.84 662.142 103.007 661.802 103.247C661.462 103.481 661.292 103.9 661.292 104.504C661.292 104.943 661.447 105.304 661.758 105.585C662.074 105.86 662.493 105.998 663.015 105.998C663.729 105.998 664.318 105.749 664.781 105.251C665.25 104.747 665.484 104.111 665.484 103.344V102.447ZM677.323 106.279C677.323 109.584 675.741 111.236 672.577 111.236C671.464 111.236 670.491 111.025 669.659 110.604V109.162C670.673 109.725 671.64 110.006 672.56 110.006C674.774 110.006 675.882 108.828 675.882 106.473V105.488H675.847C675.161 106.637 674.13 107.211 672.753 107.211C671.634 107.211 670.731 106.812 670.046 106.016C669.366 105.213 669.026 104.138 669.026 102.79C669.026 101.261 669.393 100.045 670.125 99.1426C670.863 98.2402 671.871 97.7891 673.148 97.7891C674.361 97.7891 675.261 98.2754 675.847 99.248H675.882V98H677.323V106.279ZM675.882 102.931V101.604C675.882 100.889 675.639 100.276 675.152 99.7666C674.672 99.2568 674.071 99.002 673.351 99.002C672.46 99.002 671.763 99.3271 671.259 99.9775C670.755 100.622 670.503 101.527 670.503 102.693C670.503 103.695 670.743 104.498 671.224 105.102C671.71 105.699 672.352 105.998 673.148 105.998C673.957 105.998 674.613 105.711 675.117 105.137C675.627 104.562 675.882 103.827 675.882 102.931ZM687.475 102.86H681.12C681.144 103.862 681.413 104.636 681.929 105.181C682.444 105.726 683.153 105.998 684.056 105.998C685.069 105.998 686.001 105.664 686.851 104.996V106.35C686.06 106.924 685.014 107.211 683.713 107.211C682.441 107.211 681.442 106.804 680.716 105.989C679.989 105.169 679.626 104.018 679.626 102.535C679.626 101.135 680.021 99.9951 680.812 99.1162C681.609 98.2314 682.597 97.7891 683.774 97.7891C684.952 97.7891 685.863 98.1699 686.508 98.9316C687.152 99.6934 687.475 100.751 687.475 102.104V102.86ZM685.998 101.639C685.992 100.807 685.79 100.159 685.392 99.6963C684.999 99.2334 684.451 99.002 683.748 99.002C683.068 99.002 682.491 99.2451 682.017 99.7314C681.542 100.218 681.249 100.854 681.138 101.639H685.998Z" fill="#171717"/>
<rect x="862" y="62" width="204" height="77" rx="4" fill="white"/>
<path d="M921.294 92.9023C921.294 96.4414 919.697 98.2109 916.504 98.2109C913.445 98.2109 911.916 96.5088 911.916 93.1045V85.3965H913.393V93.0078C913.393 95.5918 914.482 96.8838 916.662 96.8838C918.766 96.8838 919.817 95.6357 919.817 93.1396V85.3965H921.294V92.9023ZM923.711 97.6748V96.1279C924.496 96.708 925.36 96.998 926.304 96.998C927.569 96.998 928.202 96.5762 928.202 95.7324C928.202 95.4922 928.146 95.29 928.035 95.126C927.93 94.9561 927.783 94.8066 927.596 94.6777C927.414 94.5488 927.197 94.4346 926.945 94.335C926.699 94.2295 926.433 94.1211 926.146 94.0098C925.747 93.8516 925.396 93.6934 925.091 93.5352C924.792 93.3711 924.54 93.1895 924.335 92.9902C924.136 92.7852 923.983 92.5537 923.878 92.2959C923.778 92.0381 923.729 91.7363 923.729 91.3906C923.729 90.9688 923.825 90.5967 924.019 90.2744C924.212 89.9463 924.47 89.6738 924.792 89.457C925.114 89.2344 925.48 89.0674 925.891 88.9561C926.307 88.8447 926.734 88.7891 927.174 88.7891C927.953 88.7891 928.65 88.9238 929.266 89.1934V90.6523C928.604 90.2188 927.842 90.002 926.98 90.002C926.711 90.002 926.468 90.0342 926.251 90.0986C926.034 90.1572 925.847 90.2422 925.688 90.3535C925.536 90.4648 925.416 90.5996 925.328 90.7578C925.246 90.9102 925.205 91.0801 925.205 91.2676C925.205 91.502 925.246 91.6982 925.328 91.8564C925.416 92.0146 925.542 92.1553 925.706 92.2783C925.87 92.4014 926.069 92.5127 926.304 92.6123C926.538 92.7119 926.805 92.8203 927.104 92.9375C927.502 93.0898 927.859 93.248 928.176 93.4121C928.492 93.5703 928.762 93.752 928.984 93.957C929.207 94.1562 929.377 94.3877 929.494 94.6514C929.617 94.915 929.679 95.2285 929.679 95.5918C929.679 96.0371 929.579 96.4238 929.38 96.752C929.187 97.0801 928.926 97.3525 928.598 97.5693C928.27 97.7861 927.892 97.9473 927.464 98.0527C927.036 98.1582 926.588 98.2109 926.119 98.2109C925.193 98.2109 924.391 98.0322 923.711 97.6748ZM939.136 93.8604H932.781C932.805 94.8623 933.074 95.6357 933.59 96.1807C934.105 96.7256 934.814 96.998 935.717 96.998C936.73 96.998 937.662 96.6641 938.512 95.9961V97.3496C937.721 97.9238 936.675 98.2109 935.374 98.2109C934.103 98.2109 933.104 97.8037 932.377 96.9893C931.65 96.1689 931.287 95.0176 931.287 93.5352C931.287 92.1348 931.683 90.9951 932.474 90.1162C933.271 89.2314 934.258 88.7891 935.436 88.7891C936.613 88.7891 937.524 89.1699 938.169 89.9316C938.813 90.6934 939.136 91.751 939.136 93.1045V93.8604ZM937.659 92.6387C937.653 91.8066 937.451 91.1592 937.053 90.6963C936.66 90.2334 936.112 90.002 935.409 90.002C934.729 90.002 934.152 90.2451 933.678 90.7314C933.203 91.2178 932.91 91.8535 932.799 92.6387H937.659ZM946.018 90.459C945.766 90.2656 945.402 90.1689 944.928 90.1689C944.312 90.1689 943.797 90.459 943.381 91.0391C942.971 91.6191 942.766 92.4102 942.766 93.4121V98H941.324V89H942.766V90.8545H942.801C943.006 90.2217 943.319 89.7295 943.741 89.3779C944.163 89.0205 944.635 88.8418 945.156 88.8418C945.531 88.8418 945.818 88.8828 946.018 88.9648V90.459ZM949.357 85.1855L948.127 89.1055H947.09L948.065 85.1855H949.357ZM951.168 97.6748V96.1279C951.953 96.708 952.817 96.998 953.761 96.998C955.026 96.998 955.659 96.5762 955.659 95.7324C955.659 95.4922 955.604 95.29 955.492 95.126C955.387 94.9561 955.24 94.8066 955.053 94.6777C954.871 94.5488 954.654 94.4346 954.402 94.335C954.156 94.2295 953.89 94.1211 953.603 94.0098C953.204 93.8516 952.853 93.6934 952.548 93.5352C952.249 93.3711 951.997 93.1895 951.792 92.9902C951.593 92.7852 951.44 92.5537 951.335 92.2959C951.235 92.0381 951.186 91.7363 951.186 91.3906C951.186 90.9688 951.282 90.5967 951.476 90.2744C951.669 89.9463 951.927 89.6738 952.249 89.457C952.571 89.2344 952.938 89.0674 953.348 88.9561C953.764 88.8447 954.191 88.7891 954.631 88.7891C955.41 88.7891 956.107 88.9238 956.723 89.1934V90.6523C956.061 90.2188 955.299 90.002 954.438 90.002C954.168 90.002 953.925 90.0342 953.708 90.0986C953.491 90.1572 953.304 90.2422 953.146 90.3535C952.993 90.4648 952.873 90.5996 952.785 90.7578C952.703 90.9102 952.662 91.0801 952.662 91.2676C952.662 91.502 952.703 91.6982 952.785 91.8564C952.873 92.0146 952.999 92.1553 953.163 92.2783C953.327 92.4014 953.526 92.5127 953.761 92.6123C953.995 92.7119 954.262 92.8203 954.561 92.9375C954.959 93.0898 955.316 93.248 955.633 93.4121C955.949 93.5703 956.219 93.752 956.441 93.957C956.664 94.1562 956.834 94.3877 956.951 94.6514C957.074 94.915 957.136 95.2285 957.136 95.5918C957.136 96.0371 957.036 96.4238 956.837 96.752C956.644 97.0801 956.383 97.3525 956.055 97.5693C955.727 97.7861 955.349 97.9473 954.921 98.0527C954.493 98.1582 954.045 98.2109 953.576 98.2109C952.65 98.2109 951.848 98.0322 951.168 97.6748ZM977.078 98H975.637V92.832C975.637 91.8359 975.481 91.1152 975.171 90.6699C974.866 90.2246 974.351 90.002 973.624 90.002C973.009 90.002 972.484 90.2832 972.051 90.8457C971.623 91.4082 971.409 92.082 971.409 92.8672V98H969.968V92.6562C969.968 90.8867 969.285 90.002 967.92 90.002C967.287 90.002 966.766 90.2686 966.355 90.8018C965.945 91.3291 965.74 92.0176 965.74 92.8672V98H964.299V89H965.74V90.4238H965.775C966.414 89.334 967.346 88.7891 968.57 88.7891C969.186 88.7891 969.722 88.9619 970.179 89.3076C970.636 89.6475 970.949 90.0957 971.119 90.6523C971.787 89.4102 972.783 88.7891 974.107 88.7891C976.088 88.7891 977.078 90.0107 977.078 92.4541V98ZM987.036 93.8604H980.682C980.705 94.8623 980.975 95.6357 981.49 96.1807C982.006 96.7256 982.715 96.998 983.617 96.998C984.631 96.998 985.562 96.6641 986.412 95.9961V97.3496C985.621 97.9238 984.575 98.2109 983.274 98.2109C982.003 98.2109 981.004 97.8037 980.277 96.9893C979.551 96.1689 979.188 95.0176 979.188 93.5352C979.188 92.1348 979.583 90.9951 980.374 90.1162C981.171 89.2314 982.158 88.7891 983.336 88.7891C984.514 88.7891 985.425 89.1699 986.069 89.9316C986.714 90.6934 987.036 91.751 987.036 93.1045V93.8604ZM985.56 92.6387C985.554 91.8066 985.352 91.1592 984.953 90.6963C984.561 90.2334 984.013 90.002 983.31 90.002C982.63 90.002 982.053 90.2451 981.578 90.7314C981.104 91.2178 980.811 91.8535 980.699 92.6387H985.56ZM996.695 98H995.254V92.8672C995.254 90.957 994.557 90.002 993.162 90.002C992.441 90.002 991.844 90.2744 991.369 90.8193C990.9 91.3584 990.666 92.041 990.666 92.8672V98H989.225V89H990.666V90.4941H990.701C991.381 89.3574 992.365 88.7891 993.654 88.7891C994.639 88.7891 995.392 89.1084 995.913 89.7471C996.435 90.3799 996.695 91.2969 996.695 92.498V98ZM1003.59 97.9121C1003.25 98.0996 1002.81 98.1934 1002.25 98.1934C1000.67 98.1934 999.886 97.3145 999.886 95.5566V90.2305H998.339V89H999.886V86.8027L1001.33 86.3369V89H1003.59V90.2305H1001.33V95.3018C1001.33 95.9053 1001.43 96.3359 1001.63 96.5938C1001.84 96.8516 1002.18 96.9805 1002.65 96.9805C1003.02 96.9805 1003.33 96.8809 1003.59 96.6816V97.9121ZM1011.96 98H1010.52V96.5938H1010.49C1009.86 97.6719 1008.94 98.2109 1007.72 98.2109C1006.82 98.2109 1006.12 97.9736 1005.61 97.499C1005.1 97.0244 1004.85 96.3945 1004.85 95.6094C1004.85 93.9277 1005.84 92.9492 1007.82 92.6738L1010.52 92.2959C1010.52 90.7666 1009.9 90.002 1008.67 90.002C1007.58 90.002 1006.6 90.3711 1005.73 91.1094V89.6328C1006.62 89.0703 1007.63 88.7891 1008.79 88.7891C1010.9 88.7891 1011.96 89.9082 1011.96 92.1465V98ZM1010.52 93.4473L1008.35 93.7461C1007.68 93.8398 1007.18 94.0068 1006.84 94.2471C1006.5 94.4814 1006.33 94.9004 1006.33 95.5039C1006.33 95.9434 1006.48 96.3037 1006.79 96.585C1007.11 96.8604 1007.53 96.998 1008.05 96.998C1008.77 96.998 1009.35 96.749 1009.82 96.251C1010.29 95.7471 1010.52 95.1113 1010.52 94.3438V93.4473ZM1016.12 98H1014.68V84.6758H1016.12V98ZM953.022 120H951.581V114.832C951.581 113.836 951.426 113.115 951.115 112.67C950.811 112.225 950.295 112.002 949.568 112.002C948.953 112.002 948.429 112.283 947.995 112.846C947.567 113.408 947.354 114.082 947.354 114.867V120H945.912V114.656C945.912 112.887 945.229 112.002 943.864 112.002C943.231 112.002 942.71 112.269 942.3 112.802C941.89 113.329 941.685 114.018 941.685 114.867V120H940.243V111H941.685V112.424H941.72C942.358 111.334 943.29 110.789 944.515 110.789C945.13 110.789 945.666 110.962 946.123 111.308C946.58 111.647 946.894 112.096 947.063 112.652C947.731 111.41 948.728 110.789 950.052 110.789C952.032 110.789 953.022 112.011 953.022 114.454V120ZM959.509 120.211C958.179 120.211 957.115 119.792 956.318 118.954C955.527 118.11 955.132 116.994 955.132 115.605C955.132 114.094 955.545 112.913 956.371 112.063C957.197 111.214 958.313 110.789 959.72 110.789C961.062 110.789 962.107 111.202 962.857 112.028C963.613 112.854 963.991 114 963.991 115.465C963.991 116.9 963.584 118.052 962.77 118.919C961.961 119.78 960.874 120.211 959.509 120.211ZM959.614 112.002C958.688 112.002 957.956 112.318 957.417 112.951C956.878 113.578 956.608 114.445 956.608 115.553C956.608 116.619 956.881 117.46 957.426 118.075C957.971 118.69 958.7 118.998 959.614 118.998C960.546 118.998 961.261 118.696 961.759 118.093C962.263 117.489 962.515 116.631 962.515 115.518C962.515 114.393 962.263 113.525 961.759 112.916C961.261 112.307 960.546 112.002 959.614 112.002ZM973.976 120H972.534V118.471H972.499C971.831 119.631 970.8 120.211 969.405 120.211C968.274 120.211 967.369 119.81 966.689 119.007C966.016 118.198 965.679 117.1 965.679 115.711C965.679 114.223 966.054 113.03 966.804 112.134C967.554 111.237 968.553 110.789 969.801 110.789C971.037 110.789 971.937 111.275 972.499 112.248H972.534V106.676H973.976V120ZM972.534 115.931V114.604C972.534 113.877 972.294 113.262 971.813 112.758C971.333 112.254 970.724 112.002 969.985 112.002C969.106 112.002 968.415 112.324 967.911 112.969C967.407 113.613 967.155 114.504 967.155 115.641C967.155 116.678 967.396 117.498 967.876 118.102C968.362 118.699 969.013 118.998 969.827 118.998C970.63 118.998 971.28 118.708 971.778 118.128C972.282 117.548 972.534 116.815 972.534 115.931ZM984.127 115.86H977.772C977.796 116.862 978.065 117.636 978.581 118.181C979.097 118.726 979.806 118.998 980.708 118.998C981.722 118.998 982.653 118.664 983.503 117.996V119.35C982.712 119.924 981.666 120.211 980.365 120.211C979.094 120.211 978.095 119.804 977.368 118.989C976.642 118.169 976.278 117.018 976.278 115.535C976.278 114.135 976.674 112.995 977.465 112.116C978.262 111.231 979.249 110.789 980.427 110.789C981.604 110.789 982.516 111.17 983.16 111.932C983.805 112.693 984.127 113.751 984.127 115.104V115.86ZM982.65 114.639C982.645 113.807 982.442 113.159 982.044 112.696C981.651 112.233 981.104 112.002 980.4 112.002C979.721 112.002 979.144 112.245 978.669 112.731C978.194 113.218 977.901 113.854 977.79 114.639H982.65ZM987.757 120H986.315V106.676H987.757V120Z" fill="#171717"/>
<rect x="531" y="206" width="204" height="77" rx="4" fill="white"/>
<path d="M590.294 236.902C590.294 240.441 588.697 242.211 585.504 242.211C582.445 242.211 580.916 240.509 580.916 237.104V229.396H582.393V237.008C582.393 239.592 583.482 240.884 585.662 240.884C587.766 240.884 588.817 239.636 588.817 237.14V229.396H590.294V236.902ZM592.711 241.675V240.128C593.496 240.708 594.36 240.998 595.304 240.998C596.569 240.998 597.202 240.576 597.202 239.732C597.202 239.492 597.146 239.29 597.035 239.126C596.93 238.956 596.783 238.807 596.596 238.678C596.414 238.549 596.197 238.435 595.945 238.335C595.699 238.229 595.433 238.121 595.146 238.01C594.747 237.852 594.396 237.693 594.091 237.535C593.792 237.371 593.54 237.189 593.335 236.99C593.136 236.785 592.983 236.554 592.878 236.296C592.778 236.038 592.729 235.736 592.729 235.391C592.729 234.969 592.825 234.597 593.019 234.274C593.212 233.946 593.47 233.674 593.792 233.457C594.114 233.234 594.48 233.067 594.891 232.956C595.307 232.845 595.734 232.789 596.174 232.789C596.953 232.789 597.65 232.924 598.266 233.193V234.652C597.604 234.219 596.842 234.002 595.98 234.002C595.711 234.002 595.468 234.034 595.251 234.099C595.034 234.157 594.847 234.242 594.688 234.354C594.536 234.465 594.416 234.6 594.328 234.758C594.246 234.91 594.205 235.08 594.205 235.268C594.205 235.502 594.246 235.698 594.328 235.856C594.416 236.015 594.542 236.155 594.706 236.278C594.87 236.401 595.069 236.513 595.304 236.612C595.538 236.712 595.805 236.82 596.104 236.938C596.502 237.09 596.859 237.248 597.176 237.412C597.492 237.57 597.762 237.752 597.984 237.957C598.207 238.156 598.377 238.388 598.494 238.651C598.617 238.915 598.679 239.229 598.679 239.592C598.679 240.037 598.579 240.424 598.38 240.752C598.187 241.08 597.926 241.353 597.598 241.569C597.27 241.786 596.892 241.947 596.464 242.053C596.036 242.158 595.588 242.211 595.119 242.211C594.193 242.211 593.391 242.032 592.711 241.675ZM608.136 237.86H601.781C601.805 238.862 602.074 239.636 602.59 240.181C603.105 240.726 603.814 240.998 604.717 240.998C605.73 240.998 606.662 240.664 607.512 239.996V241.35C606.721 241.924 605.675 242.211 604.374 242.211C603.103 242.211 602.104 241.804 601.377 240.989C600.65 240.169 600.287 239.018 600.287 237.535C600.287 236.135 600.683 234.995 601.474 234.116C602.271 233.231 603.258 232.789 604.436 232.789C605.613 232.789 606.524 233.17 607.169 233.932C607.813 234.693 608.136 235.751 608.136 237.104V237.86ZM606.659 236.639C606.653 235.807 606.451 235.159 606.053 234.696C605.66 234.233 605.112 234.002 604.409 234.002C603.729 234.002 603.152 234.245 602.678 234.731C602.203 235.218 601.91 235.854 601.799 236.639H606.659ZM615.018 234.459C614.766 234.266 614.402 234.169 613.928 234.169C613.312 234.169 612.797 234.459 612.381 235.039C611.971 235.619 611.766 236.41 611.766 237.412V242H610.324V233H611.766V234.854H611.801C612.006 234.222 612.319 233.729 612.741 233.378C613.163 233.021 613.635 232.842 614.156 232.842C614.531 232.842 614.818 232.883 615.018 232.965V234.459ZM618.357 229.186L617.127 233.105H616.09L617.065 229.186H618.357ZM620.168 241.675V240.128C620.953 240.708 621.817 240.998 622.761 240.998C624.026 240.998 624.659 240.576 624.659 239.732C624.659 239.492 624.604 239.29 624.492 239.126C624.387 238.956 624.24 238.807 624.053 238.678C623.871 238.549 623.654 238.435 623.402 238.335C623.156 238.229 622.89 238.121 622.603 238.01C622.204 237.852 621.853 237.693 621.548 237.535C621.249 237.371 620.997 237.189 620.792 236.99C620.593 236.785 620.44 236.554 620.335 236.296C620.235 236.038 620.186 235.736 620.186 235.391C620.186 234.969 620.282 234.597 620.476 234.274C620.669 233.946 620.927 233.674 621.249 233.457C621.571 233.234 621.938 233.067 622.348 232.956C622.764 232.845 623.191 232.789 623.631 232.789C624.41 232.789 625.107 232.924 625.723 233.193V234.652C625.061 234.219 624.299 234.002 623.438 234.002C623.168 234.002 622.925 234.034 622.708 234.099C622.491 234.157 622.304 234.242 622.146 234.354C621.993 234.465 621.873 234.6 621.785 234.758C621.703 234.91 621.662 235.08 621.662 235.268C621.662 235.502 621.703 235.698 621.785 235.856C621.873 236.015 621.999 236.155 622.163 236.278C622.327 236.401 622.526 236.513 622.761 236.612C622.995 236.712 623.262 236.82 623.561 236.938C623.959 237.09 624.316 237.248 624.633 237.412C624.949 237.57 625.219 237.752 625.441 237.957C625.664 238.156 625.834 238.388 625.951 238.651C626.074 238.915 626.136 239.229 626.136 239.592C626.136 240.037 626.036 240.424 625.837 240.752C625.644 241.08 625.383 241.353 625.055 241.569C624.727 241.786 624.349 241.947 623.921 242.053C623.493 242.158 623.045 242.211 622.576 242.211C621.65 242.211 620.848 242.032 620.168 241.675ZM646.078 242H644.637V236.832C644.637 235.836 644.481 235.115 644.171 234.67C643.866 234.225 643.351 234.002 642.624 234.002C642.009 234.002 641.484 234.283 641.051 234.846C640.623 235.408 640.409 236.082 640.409 236.867V242H638.968V236.656C638.968 234.887 638.285 234.002 636.92 234.002C636.287 234.002 635.766 234.269 635.355 234.802C634.945 235.329 634.74 236.018 634.74 236.867V242H633.299V233H634.74V234.424H634.775C635.414 233.334 636.346 232.789 637.57 232.789C638.186 232.789 638.722 232.962 639.179 233.308C639.636 233.647 639.949 234.096 640.119 234.652C640.787 233.41 641.783 232.789 643.107 232.789C645.088 232.789 646.078 234.011 646.078 236.454V242ZM656.036 237.86H649.682C649.705 238.862 649.975 239.636 650.49 240.181C651.006 240.726 651.715 240.998 652.617 240.998C653.631 240.998 654.562 240.664 655.412 239.996V241.35C654.621 241.924 653.575 242.211 652.274 242.211C651.003 242.211 650.004 241.804 649.277 240.989C648.551 240.169 648.188 239.018 648.188 237.535C648.188 236.135 648.583 234.995 649.374 234.116C650.171 233.231 651.158 232.789 652.336 232.789C653.514 232.789 654.425 233.17 655.069 233.932C655.714 234.693 656.036 235.751 656.036 237.104V237.86ZM654.56 236.639C654.554 235.807 654.352 235.159 653.953 234.696C653.561 234.233 653.013 234.002 652.31 234.002C651.63 234.002 651.053 234.245 650.578 234.731C650.104 235.218 649.811 235.854 649.699 236.639H654.56ZM665.695 242H664.254V236.867C664.254 234.957 663.557 234.002 662.162 234.002C661.441 234.002 660.844 234.274 660.369 234.819C659.9 235.358 659.666 236.041 659.666 236.867V242H658.225V233H659.666V234.494H659.701C660.381 233.357 661.365 232.789 662.654 232.789C663.639 232.789 664.392 233.108 664.913 233.747C665.435 234.38 665.695 235.297 665.695 236.498V242ZM672.595 241.912C672.255 242.1 671.807 242.193 671.25 242.193C669.674 242.193 668.886 241.314 668.886 239.557V234.23H667.339V233H668.886V230.803L670.327 230.337V233H672.595V234.23H670.327V239.302C670.327 239.905 670.43 240.336 670.635 240.594C670.84 240.852 671.18 240.98 671.654 240.98C672.018 240.98 672.331 240.881 672.595 240.682V241.912ZM680.962 242H679.521V240.594H679.485C678.858 241.672 677.936 242.211 676.717 242.211C675.82 242.211 675.117 241.974 674.607 241.499C674.104 241.024 673.852 240.395 673.852 239.609C673.852 237.928 674.842 236.949 676.822 236.674L679.521 236.296C679.521 234.767 678.902 234.002 677.666 234.002C676.582 234.002 675.604 234.371 674.73 235.109V233.633C675.615 233.07 676.635 232.789 677.789 232.789C679.904 232.789 680.962 233.908 680.962 236.146V242ZM679.521 237.447L677.35 237.746C676.682 237.84 676.178 238.007 675.838 238.247C675.498 238.481 675.328 238.9 675.328 239.504C675.328 239.943 675.483 240.304 675.794 240.585C676.11 240.86 676.529 240.998 677.051 240.998C677.766 240.998 678.354 240.749 678.817 240.251C679.286 239.747 679.521 239.111 679.521 238.344V237.447ZM685.119 242H683.678V228.676H685.119V242ZM622.022 264H620.581V258.832C620.581 257.836 620.426 257.115 620.115 256.67C619.811 256.225 619.295 256.002 618.568 256.002C617.953 256.002 617.429 256.283 616.995 256.846C616.567 257.408 616.354 258.082 616.354 258.867V264H614.912V258.656C614.912 256.887 614.229 256.002 612.864 256.002C612.231 256.002 611.71 256.269 611.3 256.802C610.89 257.329 610.685 258.018 610.685 258.867V264H609.243V255H610.685V256.424H610.72C611.358 255.334 612.29 254.789 613.515 254.789C614.13 254.789 614.666 254.962 615.123 255.308C615.58 255.647 615.894 256.096 616.063 256.652C616.731 255.41 617.728 254.789 619.052 254.789C621.032 254.789 622.022 256.011 622.022 258.454V264ZM628.509 264.211C627.179 264.211 626.115 263.792 625.318 262.954C624.527 262.11 624.132 260.994 624.132 259.605C624.132 258.094 624.545 256.913 625.371 256.063C626.197 255.214 627.313 254.789 628.72 254.789C630.062 254.789 631.107 255.202 631.857 256.028C632.613 256.854 632.991 258 632.991 259.465C632.991 260.9 632.584 262.052 631.77 262.919C630.961 263.78 629.874 264.211 628.509 264.211ZM628.614 256.002C627.688 256.002 626.956 256.318 626.417 256.951C625.878 257.578 625.608 258.445 625.608 259.553C625.608 260.619 625.881 261.46 626.426 262.075C626.971 262.69 627.7 262.998 628.614 262.998C629.546 262.998 630.261 262.696 630.759 262.093C631.263 261.489 631.515 260.631 631.515 259.518C631.515 258.393 631.263 257.525 630.759 256.916C630.261 256.307 629.546 256.002 628.614 256.002ZM642.976 264H641.534V262.471H641.499C640.831 263.631 639.8 264.211 638.405 264.211C637.274 264.211 636.369 263.81 635.689 263.007C635.016 262.198 634.679 261.1 634.679 259.711C634.679 258.223 635.054 257.03 635.804 256.134C636.554 255.237 637.553 254.789 638.801 254.789C640.037 254.789 640.937 255.275 641.499 256.248H641.534V250.676H642.976V264ZM641.534 259.931V258.604C641.534 257.877 641.294 257.262 640.813 256.758C640.333 256.254 639.724 256.002 638.985 256.002C638.106 256.002 637.415 256.324 636.911 256.969C636.407 257.613 636.155 258.504 636.155 259.641C636.155 260.678 636.396 261.498 636.876 262.102C637.362 262.699 638.013 262.998 638.827 262.998C639.63 262.998 640.28 262.708 640.778 262.128C641.282 261.548 641.534 260.815 641.534 259.931ZM653.127 259.86H646.772C646.796 260.862 647.065 261.636 647.581 262.181C648.097 262.726 648.806 262.998 649.708 262.998C650.722 262.998 651.653 262.664 652.503 261.996V263.35C651.712 263.924 650.666 264.211 649.365 264.211C648.094 264.211 647.095 263.804 646.368 262.989C645.642 262.169 645.278 261.018 645.278 259.535C645.278 258.135 645.674 256.995 646.465 256.116C647.262 255.231 648.249 254.789 649.427 254.789C650.604 254.789 651.516 255.17 652.16 255.932C652.805 256.693 653.127 257.751 653.127 259.104V259.86ZM651.65 258.639C651.645 257.807 651.442 257.159 651.044 256.696C650.651 256.233 650.104 256.002 649.4 256.002C648.721 256.002 648.144 256.245 647.669 256.731C647.194 257.218 646.901 257.854 646.79 258.639H651.65ZM656.757 264H655.315V250.676H656.757V264Z" fill="#171717"/>
<path d="M834.707 84.7071C835.098 84.3166 835.098 83.6834 834.707 83.2929L828.343 76.9289C827.953 76.5384 827.319 76.5384 826.929 76.9289C826.538 77.3195 826.538 77.9526 826.929 78.3431L832.586 84L826.929 89.6569C826.538 90.0474 826.538 90.6805 826.929 91.0711C827.319 91.4616 827.953 91.4616 828.343 91.0711L834.707 84.7071ZM763 85H834V83H763V85Z" fill="black"/>
<path d="M762.293 113.293C761.902 113.683 761.902 114.317 762.293 114.707L768.657 121.071C769.047 121.462 769.681 121.462 770.071 121.071C770.462 120.681 770.462 120.047 770.071 119.657L764.414 114L770.071 108.343C770.462 107.953 770.462 107.319 770.071 106.929C769.681 106.538 769.047 106.538 768.657 106.929L762.293 113.293ZM834 113L763 113L763 115L834 115L834 113Z" fill="black"/>
<path d="M633.707 155.293C633.317 154.902 632.683 154.902 632.293 155.293L625.929 161.657C625.538 162.047 625.538 162.681 625.929 163.071C626.319 163.462 626.953 163.462 627.343 163.071L633 157.414L638.657 163.071C639.047 163.462 639.681 163.462 640.071 163.071C640.462 162.681 640.462 162.047 640.071 161.657L633.707 155.293ZM634 189L634 156L632 156L632 189L634 189Z" fill="black"/>
<path d="M756.822 247.765C756.416 248.139 756.39 248.771 756.765 249.178L762.863 255.797C763.237 256.203 763.869 256.229 764.276 255.855C764.682 255.48 764.708 254.848 764.333 254.442L758.913 248.558L764.797 243.137C765.203 242.763 765.229 242.131 764.855 241.724C764.48 241.318 763.848 241.292 763.442 241.667L756.822 247.765ZM966.793 158.891C966.457 158.453 965.83 158.37 965.391 158.707L958.25 164.184C957.812 164.52 957.729 165.148 958.065 165.586C958.401 166.024 959.029 166.107 959.467 165.771L965.815 160.902L970.684 167.25C971.02 167.688 971.648 167.771 972.086 167.435C972.524 167.099 972.607 166.471 972.271 166.033L966.793 158.891ZM757.459 249.499C758.269 249.532 759.079 249.565 759.889 249.597L759.967 247.598C759.158 247.566 758.349 247.534 757.541 247.501L757.459 249.499ZM763.778 249.743C765.399 249.802 767.02 249.858 768.64 249.911L768.706 247.912C767.088 247.859 765.469 247.804 763.851 247.745L763.778 249.743ZM772.532 250.032C774.154 250.08 775.776 250.125 777.396 250.166L777.447 248.167C775.83 248.125 774.211 248.081 772.591 248.033L772.532 250.032ZM781.286 250.259C782.91 250.296 784.531 250.329 786.149 250.358L786.185 248.358C784.57 248.329 782.952 248.296 781.331 248.26L781.286 250.259ZM790.044 250.422C791.67 250.446 793.293 250.466 794.911 250.482L794.931 248.482C793.316 248.466 791.697 248.446 790.073 248.422L790.044 250.422ZM798.803 250.514C800.43 250.524 802.052 250.53 803.667 250.533L803.67 248.533C802.058 248.53 800.439 248.524 798.815 248.514L798.803 250.514ZM807.561 250.53C809.191 250.525 810.815 250.516 812.43 250.502L812.413 248.502C810.802 248.516 809.182 248.525 807.555 248.53L807.561 250.53ZM816.325 250.461C817.957 250.44 819.58 250.414 821.192 250.383L821.154 248.383C819.546 248.414 817.927 248.44 816.299 248.461L816.325 250.461ZM825.08 250.299C826.712 250.259 828.334 250.214 829.943 250.163L829.88 248.164C828.276 248.215 826.659 248.259 825.031 248.299L825.08 250.299ZM833.844 250.03C835.48 249.969 837.103 249.902 838.71 249.829L838.62 247.831C837.018 247.904 835.4 247.97 833.769 248.031L833.844 250.03ZM842.604 249.639C844.243 249.554 845.864 249.462 847.468 249.363L847.345 247.366C845.748 247.465 844.132 247.557 842.5 247.642L842.604 249.639ZM851.354 249.107C852.995 248.992 854.616 248.87 856.214 248.74L856.052 246.747C854.461 246.876 852.848 246.998 851.215 247.112L851.354 249.107ZM860.093 248.405C861.738 248.255 863.357 248.096 864.949 247.928L864.739 245.939C863.157 246.106 861.547 246.264 859.911 246.414L860.093 248.405ZM868.822 247.495C870.47 247.3 872.087 247.095 873.669 246.879L873.399 244.897C871.829 245.112 870.224 245.315 868.587 245.509L868.822 247.495ZM877.533 246.319C879.184 246.066 880.794 245.799 882.359 245.52L882.008 243.551C880.459 243.827 878.866 244.091 877.23 244.342L877.533 246.319ZM886.203 244.788C887.85 244.455 889.44 244.104 890.972 243.736L890.506 241.792C888.999 242.153 887.431 242.499 885.806 242.828L886.203 244.788ZM894.771 242.755C896.425 242.295 897.998 241.811 899.485 241.301L898.836 239.409C897.391 239.905 895.856 240.378 894.235 240.829L894.771 242.755ZM903.169 239.912C903.955 239.584 904.71 239.248 905.432 238.902L904.568 237.098C903.879 237.428 903.157 237.75 902.401 238.065L903.169 239.912ZM905.432 238.902C906.152 238.557 906.878 238.203 907.609 237.84L906.72 236.049C905.997 236.408 905.279 236.757 904.568 237.098L905.432 238.902ZM911.058 236.076C912.465 235.336 913.886 234.56 915.316 233.746L914.327 232.008C912.917 232.81 911.515 233.576 910.126 234.307L911.058 236.076ZM918.664 231.779C920.029 230.951 921.4 230.086 922.769 229.184L921.669 227.514C920.321 228.402 918.972 229.253 917.626 230.069L918.664 231.779ZM925.981 226.995C927.291 226.071 928.597 225.11 929.895 224.112L928.675 222.527C927.4 223.508 926.117 224.452 924.828 225.36L925.981 226.995ZM932.936 221.686C934.174 220.661 935.402 219.6 936.614 218.499L935.27 217.018C934.081 218.098 932.877 219.139 931.661 220.145L932.936 221.686ZM939.446 215.829C940.595 214.703 941.728 213.539 942.84 212.335L941.371 210.978C940.282 212.156 939.172 213.297 938.046 214.401L939.446 215.829ZM945.425 209.422C946.467 208.197 947.487 206.935 948.483 205.633L946.894 204.418C945.92 205.692 944.922 206.927 943.902 208.125L945.425 209.422ZM950.785 202.487C951.707 201.169 952.602 199.814 953.47 198.421L951.771 197.364C950.923 198.727 950.047 200.052 949.146 201.34L950.785 202.487ZM955.456 195.069C956.245 193.67 957.005 192.235 957.734 190.761L955.941 189.874C955.228 191.315 954.485 192.719 953.714 194.086L955.456 195.069ZM959.388 187.231C960.038 185.764 960.657 184.262 961.244 182.724L959.375 182.011C958.801 183.517 958.195 184.986 957.559 186.421L959.388 187.231ZM962.557 179.056C963.065 177.541 963.541 175.992 963.986 174.409L962.06 173.869C961.625 175.42 961.158 176.937 960.66 178.421L962.557 179.056ZM964.964 170.64C965.336 169.087 965.677 167.502 965.985 165.886L964.021 165.511C963.718 167.097 963.384 168.652 963.019 170.175L964.964 170.64ZM966.646 162.052C966.769 161.252 966.884 160.445 966.991 159.631L965.009 159.369C964.903 160.17 964.79 160.962 964.669 161.747L966.646 162.052Z" fill="black"/>
</svg>
