<svg width="1600" height="330" viewBox="0 0 1600 330" fill="none" xmlns="http://www.w3.org/2000/svg">
<rect x="0.5" y="0.5" width="1599" height="329" fill="#EDEDED" stroke="#C8C8C8"/>
<circle cx="578" cy="165" r="26" fill="#C4C4C4"/>
<circle cx="651" cy="165" r="26" fill="#C4C4C4"/>
<circle cx="725" cy="165" r="26" fill="#C4C4C4"/>
<circle cx="798" cy="165" r="26" fill="#C4C4C4"/>
<circle cx="874" cy="165" r="26" fill="#C4C4C4"/>
<circle cx="948" cy="165" r="26" fill="#C4C4C4"/>
<circle cx="1021" cy="165" r="26" fill="#C4C4C4"/>
<path d="M580.848 156.82V174H577.156V160.992C576.953 161.172 576.711 161.344 576.43 161.508C576.156 161.664 575.863 161.809 575.551 161.941C575.238 162.066 574.914 162.176 574.578 162.27C574.242 162.355 573.91 162.418 573.582 162.457V159.34C574.543 159.059 575.449 158.699 576.301 158.262C577.152 157.824 577.922 157.344 578.609 156.82H580.848Z" fill="#171717"/>
<path d="M649.125 170.93H656.25V174H645.07V172.734C645.07 171.875 645.215 171.105 645.504 170.426C645.793 169.738 646.156 169.125 646.594 168.586C647.031 168.039 647.508 167.559 648.023 167.145C648.547 166.723 649.043 166.344 649.512 166.008C650.004 165.656 650.434 165.32 650.801 165C651.176 164.68 651.488 164.363 651.738 164.051C651.996 163.73 652.188 163.41 652.312 163.09C652.438 162.762 652.5 162.414 652.5 162.047C652.5 161.328 652.297 160.785 651.891 160.418C651.484 160.051 650.863 159.867 650.027 159.867C648.582 159.867 647.199 160.441 645.879 161.59V158.332C647.34 157.387 648.988 156.914 650.824 156.914C651.676 156.914 652.438 157.027 653.109 157.254C653.789 157.473 654.363 157.789 654.832 158.203C655.301 158.617 655.656 159.121 655.898 159.715C656.148 160.301 656.273 160.957 656.273 161.684C656.273 162.457 656.152 163.145 655.91 163.746C655.676 164.348 655.359 164.895 654.961 165.387C654.57 165.879 654.117 166.332 653.602 166.746C653.086 167.152 652.551 167.547 651.996 167.93C651.621 168.195 651.258 168.461 650.906 168.727C650.562 168.984 650.258 169.242 649.992 169.5C649.727 169.75 649.516 169.996 649.359 170.238C649.203 170.48 649.125 170.711 649.125 170.93Z" fill="#171717"/>
<path d="M719.469 173.449V170.227C720.594 171.047 721.906 171.457 723.406 171.457C724.352 171.457 725.086 171.254 725.609 170.848C726.141 170.441 726.406 169.875 726.406 169.148C726.406 168.398 726.078 167.82 725.422 167.414C724.773 167.008 723.879 166.805 722.738 166.805H721.18V163.969H722.621C724.809 163.969 725.902 163.242 725.902 161.789C725.902 160.422 725.062 159.738 723.383 159.738C722.258 159.738 721.164 160.102 720.102 160.828V157.805C721.281 157.211 722.656 156.914 724.227 156.914C725.945 156.914 727.281 157.301 728.234 158.074C729.195 158.848 729.676 159.852 729.676 161.086C729.676 163.281 728.562 164.656 726.336 165.211V165.27C727.523 165.418 728.461 165.852 729.148 166.57C729.836 167.281 730.18 168.156 730.18 169.195C730.18 170.766 729.605 172.008 728.457 172.922C727.309 173.836 725.723 174.293 723.699 174.293C721.965 174.293 720.555 174.012 719.469 173.449Z" fill="#171717"/>
<path d="M802.254 157.195V167.789H804.27V170.555H802.254V174H798.879V170.555H791.555V167.66C792.203 166.934 792.875 166.141 793.57 165.281C794.266 164.414 794.938 163.523 795.586 162.609C796.234 161.695 796.836 160.777 797.391 159.855C797.953 158.926 798.43 158.039 798.82 157.195H802.254ZM794.871 167.789H798.879V161.918C798.605 162.426 798.309 162.941 797.988 163.465C797.668 163.98 797.332 164.492 796.98 165C796.629 165.5 796.273 165.988 795.914 166.465C795.555 166.934 795.207 167.375 794.871 167.789Z" fill="#171717"/>
<path d="M868.762 173.566V170.402C869.91 171.105 871.133 171.457 872.43 171.457C873.406 171.457 874.168 171.227 874.715 170.766C875.27 170.297 875.547 169.664 875.547 168.867C875.547 167.203 874.371 166.371 872.02 166.371C871.152 166.371 870.152 166.438 869.02 166.57L869.652 157.195H878.547V160.219H872.477L872.242 163.582C872.844 163.535 873.363 163.512 873.801 163.512C875.527 163.512 876.879 163.965 877.855 164.871C878.832 165.777 879.32 166.996 879.32 168.527C879.32 170.223 878.738 171.609 877.574 172.688C876.41 173.758 874.832 174.293 872.84 174.293C871.223 174.293 869.863 174.051 868.762 173.566Z" fill="#171717"/>
<path d="M954.105 168.41C954.105 169.238 953.961 170.012 953.672 170.73C953.383 171.449 952.98 172.074 952.465 172.605C951.949 173.129 951.336 173.543 950.625 173.848C949.914 174.145 949.137 174.293 948.293 174.293C947.348 174.293 946.5 174.117 945.75 173.766C945.008 173.414 944.379 172.906 943.863 172.242C943.348 171.57 942.953 170.75 942.68 169.781C942.406 168.812 942.27 167.715 942.27 166.488C942.27 165.043 942.445 163.734 942.797 162.562C943.156 161.383 943.664 160.375 944.32 159.539C944.984 158.703 945.785 158.059 946.723 157.605C947.66 157.145 948.715 156.914 949.887 156.914C951.184 156.914 952.191 157.066 952.91 157.371V160.465C952.059 159.98 951.129 159.738 950.121 159.738C949.496 159.738 948.93 159.859 948.422 160.102C947.914 160.344 947.477 160.688 947.109 161.133C946.75 161.578 946.465 162.117 946.254 162.75C946.051 163.375 945.941 164.074 945.926 164.848H945.996C946.793 163.746 947.969 163.195 949.523 163.195C950.219 163.195 950.848 163.32 951.41 163.57C951.973 163.82 952.453 164.176 952.852 164.637C953.25 165.09 953.559 165.637 953.777 166.277C953.996 166.918 954.105 167.629 954.105 168.41ZM950.484 168.645C950.484 166.84 949.746 165.938 948.27 165.938C947.934 165.938 947.629 166 947.355 166.125C947.082 166.25 946.848 166.426 946.652 166.652C946.457 166.879 946.305 167.148 946.195 167.461C946.094 167.766 946.043 168.105 946.043 168.48C946.043 168.895 946.098 169.281 946.207 169.641C946.316 170 946.469 170.316 946.664 170.59C946.867 170.855 947.105 171.066 947.379 171.223C947.652 171.379 947.957 171.457 948.293 171.457C948.629 171.457 948.93 171.391 949.195 171.258C949.469 171.117 949.699 170.926 949.887 170.684C950.082 170.434 950.23 170.137 950.332 169.793C950.434 169.441 950.484 169.059 950.484 168.645Z" fill="#171717"/>
<path d="M1026.92 159.328C1026.17 160.68 1025.5 161.949 1024.9 163.137C1024.31 164.316 1023.79 165.484 1023.33 166.641C1022.88 167.789 1022.49 168.961 1022.17 170.156C1021.85 171.344 1021.59 172.625 1021.39 174H1017.52C1017.74 172.695 1018.03 171.438 1018.39 170.227C1018.75 169.016 1019.16 167.844 1019.63 166.711C1020.11 165.57 1020.63 164.461 1021.2 163.383C1021.78 162.305 1022.39 161.25 1023.03 160.219H1015.22V157.195H1026.92V159.328Z" fill="#171717"/>
</svg>
