<svg width="1600" height="330" viewBox="0 0 1600 330" fill="none" xmlns="http://www.w3.org/2000/svg">
<rect x="0.5" y="0.5" width="1599" height="329" fill="#EDEDED" stroke="#C8C8C8"/>
<path d="M649.335 277.999C649.335 277.447 648.887 276.999 648.335 276.999L639.335 276.999C638.782 276.999 638.335 277.447 638.335 277.999C638.335 278.552 638.782 278.999 639.335 278.999L647.335 278.999L647.335 286.999C647.335 287.552 647.782 287.999 648.335 287.999C648.887 287.999 649.335 287.552 649.335 286.999L649.335 277.999ZM625.707 302.041L649.042 278.707L647.627 277.292L624.293 300.627L625.707 302.041Z" fill="black"/>
<path d="M1059.33 178.999C1059.33 178.447 1058.89 177.999 1058.33 177.999L1049.33 177.999C1048.78 177.999 1048.33 178.447 1048.33 178.999C1048.33 179.552 1048.78 179.999 1049.33 179.999L1057.33 179.999L1057.33 187.999C1057.33 188.552 1057.78 188.999 1058.33 188.999C1058.89 188.999 1059.33 188.552 1059.33 187.999L1059.33 178.999ZM1035.71 203.041L1059.04 179.707L1057.63 178.292L1034.29 201.627L1035.71 203.041Z" fill="black"/>
<path d="M561 176.399C565.985 163.614 579.05 139.04 591.559 139.04C614.5 139.04 632.5 163.947 642.274 214.258C645.646 231.611 662.43 324.842 693.64 205.292C724.849 85.7416 754.108 22.4797 761.91 34.4347C769.713 46.3897 772.313 165.441 781.416 195.328C790.519 225.216 833.666 239 860.5 205.292C883.5 176.399 895.724 143.913 904.953 163.947C924 205.292 971.923 214.258 994.03 195.328C1011.72 180.185 1046.05 168.097 1061 163.947" stroke="#0078D7" stroke-width="5" stroke-linecap="round"/>
</svg>
