<svg width="1600" height="330" viewBox="0 0 1600 330" fill="none" xmlns="http://www.w3.org/2000/svg">
<rect x="0.5" y="0.5" width="1599" height="329" fill="#EDEDED" stroke="#C8C8C8"/>
<path d="M741.967 141.395C746.907 141.395 751.695 142.352 756.33 144.267C758.329 145.072 760.327 145.683 762.325 146.099C764.351 146.516 766.447 146.724 768.612 146.724H787.263V184.026H769.902C768.098 184.026 766.391 184.359 764.782 185.025C763.2 185.692 761.77 186.663 760.494 187.94L734.598 213.793C733.904 214.487 733.21 215.029 732.517 215.417C731.823 215.806 730.976 216 729.977 216C729.061 216 728.201 215.833 727.396 215.5C726.591 215.14 725.883 214.654 725.273 214.043C724.662 213.433 724.176 212.725 723.815 211.92C723.482 211.115 723.316 210.255 723.316 209.339C723.316 207.091 723.566 204.954 724.065 202.927C724.565 200.874 725.3 198.847 726.272 196.849C726.827 195.656 727.299 194.448 727.687 193.227C728.076 191.978 728.339 190.687 728.478 189.355H709.993C708.911 189.355 707.884 189.147 706.913 188.731C705.941 188.314 705.081 187.745 704.331 187.024C703.61 186.302 703.041 185.456 702.624 184.484C702.208 183.513 702 182.472 702 181.362C702 180.474 702.139 179.627 702.416 178.822L713.074 146.849C713.629 145.211 714.601 143.893 715.988 142.894C717.376 141.894 718.931 141.395 720.651 141.395H741.967ZM781.934 152.053H768.612C763.644 152.053 758.856 151.095 754.249 149.18C750.252 147.542 746.158 146.724 741.967 146.724H720.651C720.096 146.724 719.583 146.89 719.111 147.223C718.639 147.556 718.306 148 718.112 148.556C717.973 148.944 717.709 149.693 717.321 150.804C716.96 151.914 716.516 153.26 715.988 154.842C715.461 156.396 714.878 158.117 714.24 160.004C713.602 161.864 712.963 163.751 712.325 165.666C711.686 167.582 711.062 169.455 710.451 171.287C709.869 173.091 709.341 174.728 708.869 176.199C708.398 177.643 708.023 178.836 707.745 179.78C707.468 180.696 707.329 181.223 707.329 181.362C707.329 182.083 707.593 182.708 708.12 183.235C708.647 183.763 709.272 184.026 709.993 184.026H733.974C733.974 185.497 733.932 186.871 733.849 188.148C733.793 189.397 733.655 190.618 733.432 191.812C733.238 193.005 732.947 194.198 732.558 195.392C732.17 196.585 731.656 197.848 731.018 199.181C730.241 200.79 729.644 202.442 729.228 204.135C728.839 205.8 728.645 207.535 728.645 209.339C728.645 209.727 728.77 210.047 729.019 210.296C729.269 210.546 729.588 210.671 729.977 210.671C730.144 210.671 730.282 210.616 730.393 210.505C730.532 210.366 730.657 210.241 730.768 210.13L756.705 184.151C757.593 183.263 758.537 182.486 759.536 181.82C760.563 181.154 761.645 180.585 762.783 180.113C765.004 179.169 767.377 178.697 769.902 178.697H781.934V152.053ZM887.93 157.382C889.013 157.382 890.04 157.59 891.011 158.006C891.983 158.422 892.829 158.991 893.551 159.713C894.3 160.435 894.883 161.281 895.299 162.253C895.716 163.224 895.924 164.265 895.924 165.375C895.924 166.263 895.785 167.11 895.507 167.915L884.85 199.888C884.572 200.693 884.183 201.443 883.684 202.136C883.184 202.803 882.601 203.372 881.935 203.843C881.269 204.315 880.534 204.69 879.729 204.967C878.952 205.217 878.133 205.342 877.272 205.342H855.957C850.988 205.342 846.201 204.385 841.593 202.469C839.595 201.665 837.583 201.054 835.557 200.638C833.558 200.221 831.477 200.013 829.312 200.013H810.661V162.711H828.021C829.825 162.711 831.518 162.377 833.1 161.711C834.71 161.045 836.153 160.074 837.43 158.797L863.326 132.943C864.019 132.249 864.713 131.708 865.407 131.32C866.101 130.931 866.948 130.737 867.947 130.737C868.863 130.737 869.723 130.917 870.528 131.278C871.333 131.611 872.041 132.083 872.651 132.694C873.262 133.304 873.734 134.012 874.067 134.817C874.428 135.622 874.608 136.482 874.608 137.398C874.608 139.646 874.358 141.797 873.859 143.851C873.359 145.877 872.623 147.889 871.652 149.888C871.097 151.081 870.625 152.302 870.237 153.551C869.848 154.773 869.584 156.049 869.446 157.382H887.93ZM877.272 200.013C877.828 200.013 878.341 199.847 878.813 199.514C879.285 199.181 879.618 198.736 879.812 198.181C879.951 197.793 880.201 197.043 880.561 195.933C880.95 194.823 881.408 193.491 881.935 191.936C882.463 190.354 883.045 188.634 883.684 186.774C884.322 184.887 884.961 182.986 885.599 181.07C886.237 179.155 886.848 177.296 887.431 175.492C888.041 173.66 888.583 172.022 889.054 170.579C889.526 169.108 889.901 167.915 890.178 166.999C890.456 166.055 890.595 165.514 890.595 165.375C890.595 164.653 890.331 164.029 889.804 163.502C889.276 162.974 888.652 162.711 887.93 162.711H863.95C863.95 161.24 863.978 159.88 864.033 158.631C864.117 157.354 864.255 156.119 864.45 154.925C864.672 153.732 864.977 152.538 865.366 151.345C865.754 150.151 866.268 148.889 866.906 147.556C867.683 145.947 868.266 144.309 868.655 142.644C869.071 140.951 869.279 139.202 869.279 137.398C869.279 137.009 869.154 136.69 868.904 136.44C868.655 136.191 868.335 136.066 867.947 136.066C867.78 136.066 867.628 136.135 867.489 136.274C867.378 136.385 867.267 136.496 867.156 136.607L841.219 162.586C840.331 163.474 839.373 164.251 838.346 164.917C837.347 165.583 836.278 166.152 835.14 166.624C832.92 167.568 830.547 168.039 828.021 168.039H815.99V194.684H829.312C834.252 194.684 839.04 195.642 843.675 197.557C847.672 199.194 851.766 200.013 855.957 200.013H877.272Z" fill="black"/>
</svg>
