<svg width="1600" height="330" viewBox="0 0 1600 330" fill="none" xmlns="http://www.w3.org/2000/svg">
<rect x="0.5" y="0.5" width="1599" height="329" fill="#EDEDED" stroke="#C8C8C8"/>
<path d="M609.293 143.707C609.683 144.098 610.317 144.098 610.707 143.707L617.071 137.343C617.462 136.953 617.462 136.319 617.071 135.929C616.681 135.538 616.047 135.538 615.657 135.929L610 141.586L604.343 135.929C603.953 135.538 603.319 135.538 602.929 135.929C602.538 136.319 602.538 136.953 602.929 137.343L609.293 143.707ZM609 110L609 143L611 143L611 110L609 110Z" fill="black"/>
<path d="M877.293 143.707C877.683 144.098 878.317 144.098 878.707 143.707L885.071 137.343C885.462 136.953 885.462 136.319 885.071 135.929C884.681 135.538 884.047 135.538 883.657 135.929L878 141.586L872.343 135.929C871.953 135.538 871.319 135.538 870.929 135.929C870.538 136.319 870.538 136.953 870.929 137.343L877.293 143.707ZM877 110L877 143L879 143L879 110L877 110Z" fill="black"/>
<path d="M1013.29 143.707C1013.68 144.098 1014.32 144.098 1014.71 143.707L1021.07 137.343C1021.46 136.953 1021.46 136.319 1021.07 135.929C1020.68 135.538 1020.05 135.538 1019.66 135.929L1014 141.586L1008.34 135.929C1007.95 135.538 1007.32 135.538 1006.93 135.929C1006.54 136.319 1006.54 136.953 1006.93 137.343L1013.29 143.707ZM1013 110L1013 143L1015 143L1015 110L1013 110Z" fill="black"/>
<circle cx="610.5" cy="196.5" r="23.5" fill="#C4C4C4"/>
<circle cx="677.5" cy="196.5" r="23.5" fill="#C4C4C4"/>
<circle cx="744.5" cy="196.5" r="23.5" fill="#C4C4C4"/>
<circle cx="811.5" cy="196.5" r="23.5" fill="#C4C4C4"/>
<circle cx="945.5" cy="196.5" r="23.5" fill="#C4C4C4"/>
<circle cx="1012.5" cy="196.5" r="23.5" fill="#C4C4C4"/>
<rect x="855" y="173" width="47" height="47" fill="#0078D7"/>
</svg>
