<svg width="1360" height="338" viewBox="0 0 1360 338" fill="none" xmlns="http://www.w3.org/2000/svg">
<rect x="0.5" y="0.5" width="1359" height="337" fill="#EDEDED" stroke="#C8C8C8"/>
<circle cx="683.75" cy="138.809" r="5" transform="rotate(30 683.75 138.809)" fill="#0078D4"/>
<circle cx="691.75" cy="124.952" r="5" transform="rotate(30 691.75 124.952)" fill="#0078D4"/>
<circle cx="699.75" cy="111.096" r="5" transform="rotate(30 699.75 111.096)" fill="#0078D4"/>
<circle cx="707.75" cy="97.2394" r="5" transform="rotate(30 707.75 97.2394)" fill="#0078D4"/>
<circle cx="715.75" cy="83.383" r="5" transform="rotate(30 715.75 83.383)" fill="#0078D4"/>
<circle cx="643.83" cy="209.256" r="5" transform="rotate(30 643.83 209.256)" fill="#112881"/>
<circle cx="651.83" cy="195.398" r="5" transform="rotate(30 651.83 195.398)" fill="#112881"/>
<circle cx="659.83" cy="181.543" r="5" transform="rotate(30 659.83 181.543)" fill="#112881"/>
<circle cx="667.83" cy="167.686" r="5" transform="rotate(30 667.83 167.686)" fill="#112881"/>
<circle cx="675.83" cy="153.83" r="5" transform="rotate(30 675.83 153.83)" fill="#112881"/>
<circle cx="595" cy="231" r="5" fill="#0078D4"/>
<circle cx="598" cy="214" r="5" fill="#0078D4"/>
<circle cx="605" cy="197" r="5" fill="#0078D4"/>
<circle cx="613" cy="182" r="5" fill="#0078D4"/>
<circle cx="625" cy="169" r="5" fill="#0078D4"/>
<circle cx="641" cy="157" r="5" fill="#0078D4"/>
<circle cx="661" cy="150" r="5" fill="#0078D4"/>
<circle cx="5" cy="5" r="5" transform="matrix(-1 0 0 1 764 226)" fill="#112881"/>
<circle cx="5" cy="5" r="5" transform="matrix(-1 0 0 1 761 209)" fill="#112881"/>
<circle cx="5" cy="5" r="5" transform="matrix(-1 0 0 1 754 192)" fill="#112881"/>
<circle cx="5" cy="5" r="5" transform="matrix(-1 0 0 1 746 177)" fill="#112881"/>
<circle cx="5" cy="5" r="5" transform="matrix(-1 0 0 1 734 164)" fill="#112881"/>
<circle cx="5" cy="5" r="5" transform="matrix(-1 0 0 1 715 152)" fill="#112881"/>
<circle cx="5" cy="5" r="5" transform="matrix(-1 0 0 1 696 146)" fill="#112881"/>
</svg>
