<svg width="1360" height="338" viewBox="0 0 1360 338" fill="none" xmlns="http://www.w3.org/2000/svg">
<rect x="0.5" y="0.5" width="1359" height="337" fill="#EDEDED" stroke="#C8C8C8"/>
<rect x="485" y="4" width="127" height="161" fill="white"/>
<rect x="617" y="4" width="126" height="161" fill="white"/>
<rect x="748" y="4" width="127" height="161" fill="white"/>
<rect x="485" y="170" width="127" height="162" fill="white"/>
<rect x="617" y="170" width="126" height="162" fill="white"/>
<rect x="748" y="170" width="127" height="162" fill="white"/>
<rect x="502" y="24" width="46" height="35" fill="#646464"/>
<rect x="502" y="70" width="46" height="35" fill="#646464"/>
<rect x="634" y="24" width="46" height="35" fill="#646464"/>
<rect x="634" y="70" width="46" height="35" fill="#646464"/>
<rect x="765" y="24" width="46" height="35" fill="#646464"/>
<rect x="765" y="70" width="46" height="35" fill="#646464"/>
<rect x="502" y="190" width="46" height="35" fill="#646464"/>
<rect x="502" y="236" width="46" height="35" fill="#646464"/>
<rect x="634" y="190" width="46" height="35" fill="#646464"/>
<rect x="634" y="236" width="46" height="35" fill="#646464"/>
<rect x="765" y="190" width="46" height="35" fill="#646464"/>
<rect x="765" y="236" width="46" height="35" fill="#646464"/>
</svg>
