<svg width="1360" height="338" viewBox="0 0 1360 338" fill="none" xmlns="http://www.w3.org/2000/svg">
<rect x="0.5" y="0.5" width="1359" height="337" fill="#EDEDED" stroke="#C8C8C8"/>
<rect x="571" y="105" width="33" height="33" fill="#C4C4C4"/>
<rect x="617" y="105" width="33" height="33" fill="#C4C4C4"/>
<rect x="663" y="105" width="33" height="33" fill="#C4C4C4"/>
<rect x="709" y="105" width="33" height="33" fill="#C4C4C4"/>
<rect x="755" y="105" width="33" height="33" fill="#C4C4C4"/>
<rect x="571" y="155" width="33" height="33" fill="#C4C4C4"/>
<rect x="617" y="155" width="33" height="33" fill="#C4C4C4"/>
<rect x="663" y="155" width="33" height="33" fill="#C4C4C4"/>
<rect x="709" y="155" width="33" height="33" fill="#0078D4"/>
<rect x="755" y="155" width="33" height="33" fill="#C4C4C4"/>
<rect x="571" y="205" width="33" height="33" fill="#C4C4C4"/>
<rect x="617" y="205" width="33" height="33" fill="#C4C4C4"/>
<rect x="663" y="205" width="33" height="33" fill="#C4C4C4"/>
<rect x="709" y="205" width="33" height="33" fill="#C4C4C4"/>
<rect x="755" y="205" width="33" height="33" fill="#C4C4C4"/>
</svg>
