<svg width="1360" height="338" viewBox="0 0 1360 338" fill="none" xmlns="http://www.w3.org/2000/svg">
<rect x="0.5" y="0.5" width="1359" height="337" fill="#EDEDED" stroke="#C8C8C8"/>
<rect x="516" y="29" width="326" height="308" fill="#C4C4C4"/>
<rect x="516" y="29" width="326" height="18.6667" fill="#646464"/>
<rect x="516" y="206" width="326" height="131.333" fill="white"/>
<rect x="564.614" y="241" width="122.965" height="6.52711" fill="#646464"/>
<rect x="564.614" y="314.578" width="91.5088" height="4.74699" fill="#646464"/>
<rect x="564.614" y="257.613" width="203.035" height="4.15361" fill="#646464"/>
<rect x="564.614" y="266.514" width="163" height="4.15361" fill="#646464"/>
<rect x="564.614" y="275.414" width="185.877" height="4.15361" fill="#646464"/>
<rect x="564.614" y="284.316" width="177.298" height="4.15361" fill="#646464"/>
<rect x="564.614" y="75" width="122.965" height="6.52711" fill="white"/>
<rect x="564.614" y="148.578" width="91.5088" height="4.74699" fill="white"/>
<rect x="564.614" y="91.6133" width="203.035" height="4.15361" fill="white"/>
<rect x="564.614" y="100.514" width="163" height="4.15361" fill="white"/>
<rect x="564.614" y="109.414" width="185.877" height="4.15361" fill="white"/>
<rect x="564.614" y="118.316" width="177.298" height="4.15361" fill="white"/>
</svg>
