<svg width="1360" height="338" viewBox="0 0 1360 338" fill="none" xmlns="http://www.w3.org/2000/svg">
<rect x="0.5" y="0.5" width="1359" height="337" fill="#EDEDED" stroke="#C8C8C8"/>
<rect x="580" y="64" width="31.507" height="31.507" fill="#C4C4C4"/>
<rect x="667.747" y="64" width="31.507" height="31.507" fill="#C4C4C4"/>
<rect x="755.493" y="64" width="31.507" height="31.507" fill="#C4C4C4"/>
<circle cx="639.924" cy="79.6945" r="15.6945" fill="#112881"/>
<circle cx="727.671" cy="79.6945" r="15.6945" fill="#112881"/>
<rect x="623.919" y="121.738" width="31.507" height="31.507" fill="#C4C4C4"/>
<rect x="667.838" y="121.738" width="31.507" height="31.507" fill="#C4C4C4"/>
<rect x="711.757" y="121.738" width="31.507" height="31.507" fill="#C4C4C4"/>
<circle cx="771.188" cy="137.493" r="15.6945" fill="#112881"/>
<circle cx="595.695" cy="137.492" r="15.6945" fill="#112881"/>
<rect x="580" y="184" width="31.507" height="31.507" fill="#C4C4C4"/>
<rect x="667.747" y="184" width="31.507" height="31.507" fill="#C4C4C4"/>
<rect x="755.493" y="184" width="31.507" height="31.507" fill="#C4C4C4"/>
<circle cx="639.924" cy="199.695" r="15.6945" fill="#112881"/>
<circle cx="727.671" cy="199.695" r="15.6945" fill="#112881"/>
<rect x="623.919" y="241.738" width="31.507" height="31.507" fill="#C4C4C4"/>
<rect x="667.838" y="241.738" width="31.507" height="31.507" fill="#C4C4C4"/>
<rect x="711.757" y="241.738" width="31.507" height="31.507" fill="#C4C4C4"/>
<circle cx="771.188" cy="257.492" r="15.6945" fill="#112881"/>
<circle cx="595.695" cy="257.492" r="15.6945" fill="#112881"/>
<rect x="570.5" y="57.5" width="225" height="104" stroke="black"/>
<rect x="570.5" y="175.5" width="225" height="104" stroke="black"/>
</svg>
