<svg width="1360" height="338" viewBox="0 0 1360 338" fill="none" xmlns="http://www.w3.org/2000/svg">
<rect x="0.5" y="0.5" width="1359" height="337" fill="#EDEDED" stroke="#C8C8C8"/>
<rect x="534" y="82" width="44.1654" height="44.1654" fill="#C4C4C4"/>
<rect x="657" y="82" width="44.1654" height="44.1654" fill="#C4C4C4"/>
<rect x="780" y="82" width="44.1654" height="44.1654" fill="#C4C4C4"/>
<circle cx="618" cy="104" r="22" fill="#112881"/>
<circle cx="741" cy="104" r="22" fill="#112881"/>
<rect x="534" y="215.834" width="44.1654" height="44.1654" fill="#C4C4C4"/>
<rect x="718" y="215.836" width="44.1654" height="44.1654" fill="#C4C4C4"/>
<rect x="780" y="215.836" width="44.1654" height="44.1654" fill="#C4C4C4"/>
<circle cx="679" cy="238" r="22" fill="#112881"/>
<circle cx="618" cy="238" r="22" fill="#112881"/>
<rect x="595.564" y="148.916" width="44.1654" height="44.1654" fill="#C4C4C4"/>
<rect x="657.128" y="148.916" width="44.1654" height="44.1654" fill="#C4C4C4"/>
<rect x="718.692" y="148.916" width="44.1654" height="44.1654" fill="#C4C4C4"/>
<circle cx="802" cy="171" r="22" fill="#112881"/>
<circle cx="556" cy="171" r="22" fill="#112881"/>
</svg>
